<?xml version="1.0" encoding="utf-8"?>
<!-- Generator: Adobe Illustrator 26.0.3, SVG Export Plug-In . SVG Version: 6.00 Build 0)  -->
<svg version="1.1" id="cutting" xmlns="http://www.w3.org/2000/svg" xmlns:xlink="http://www.w3.org/1999/xlink" x="0px" y="0px"
	 viewBox="0 0 1352 800" style="enable-background:new 0 0 1352 800;" xml:space="preserve">
<style type="text/css">
	.st0{fill:none;stroke:#00CC61;stroke-width:7;stroke-miterlimit:10;}
	.st1{fill:#00CC61;}
	.st2{fill:#FFFFFF;}
	.st3{fill:none;stroke:#FFFFFF;stroke-width:3;stroke-miterlimit:10;}
	.st4{opacity:0.2;fill:#FFFFFF;enable-background:new    ;}
</style>
<rect x="315.7" y="50.9" class="st0" width="196.8" height="196.8"/>
<rect x="856" y="28.9" class="st0" width="196.8" height="196.8"/>
<rect x="1151.4" y="194.5" class="st0" width="196.8" height="196.8"/>
<rect x="595.9" y="460.7" class="st0" width="196.8" height="196.8"/>
<rect x="3.8" y="386.5" class="st0" width="238" height="238"/>
<rect x="122.6" y="188.6" class="st0" width="153" height="153"/>
<rect x="838.5" y="597.1" class="st0" width="153" height="153"/>
<rect x="647.5" y="0.3" class="st1" width="84.4" height="84.4"/>
<rect x="401.6" y="284.5" class="st1" width="84.4" height="84.4"/>
<rect x="1127.5" y="419.8" class="st1" width="84.4" height="84.4"/>
<rect x="713.2" y="715.4" class="st1" width="84.4" height="84.4"/>
<rect x="1236.3" y="479.5" class="st2" width="56.2" height="56.2"/>
<rect x="1183.8" y="107" class="st3" width="56.2" height="56.2"/>
<rect x="626.3" y="694" class="st2" width="56.2" height="56.2"/>
<rect x="186.3" y="692.4" class="st3" width="56.2" height="56.2"/>
<rect x="332.1" y="342.6" class="st2" width="56.2" height="56.2"/>
<rect x="749.6" y="58.1" class="st2" width="56.2" height="56.2"/>
<rect x="543.3" y="157.2" class="st0" width="238" height="238"/>
<rect x="287.8" y="429.8" class="st0" width="275.7" height="275.7"/>
<rect x="821.5" y="285" class="st0" width="275.7" height="275.7"/>
<g id="_x30_4">
	<circle class="st4" cx="348" cy="562.4" r="37.4"/>
	<circle class="st4" cx="494.1" cy="511.6" r="32"/>
	<circle class="st4" cx="470" cy="616.4" r="53.3"/>
	<path class="st2" d="M455.4,652.3H386c-1.1,0-2-0.9-2-2v-15.9c0-1.1,0.9-2,2-2l0,0h69.4c1.1,0,2,0.9,2,2l0,0v15.9
		C457.4,651.5,456.5,652.3,455.4,652.3z M388,648.4h65.3v-12H388V648.4z"/>
	<path class="st2" d="M506.1,620.3H335.3c-1.1,0-2-0.9-2-2v-98.7c0-5.5,4.5-10,10-10h154.8c5.5,0,10,4.5,10,10v98.7
		C508.1,619.5,507.2,620.3,506.1,620.3z M337.4,616.4h166.8v-96.7c0-3.3-2.6-6-6-6H343.3c-3.3,0-6.1,2.6-6.1,6L337.4,616.4z"/>
	<path class="st2" d="M498.1,636.4H343.3c-5.5,0-10-4.5-10-10v-8c0-1.1,0.9-2,2-2l0,0H506c1.1,0,2,0.9,2,2l0,0v8
		C508.1,631.9,503.6,636.4,498.1,636.4z M337.4,620.3v6c0,3.3,2.6,6,6.1,6h154.8c3.3,0,6.1-2.6,6.1-6v-6H337.4z"/>
	<path class="st2" d="M474.1,652.3H367.4c-1.1,0-2-0.9-2-2c0-1.1,0.9-2,2-2h106.7c1.1,0,2,0.9,2,2
		C476.1,651.5,475.2,652.3,474.1,652.3z"/>
	<circle class="st2" cx="420.7" cy="626.4" r="2"/>
	<path class="st2" d="M439.3,607H402c-0.7,0-1.3-0.3-1.6-1c-0.3-0.5-0.4-1.3-0.1-2l8-16c0.3-0.7,1-1.1,1.8-1.1h21.3
		c0.8,0,1.4,0.4,1.8,1.1l8,16c0.4,1,0.1,2.2-0.9,2.6C440,606.9,439.7,607,439.3,607L439.3,607z M405.2,603.1h30.9l-6.1-12h-18.9
		L405.2,603.1z"/>
	<path class="st2" d="M354,596.4c-0.6,0-1.1-0.2-1.5-0.8c-0.5-0.5-0.7-1.4-0.3-2.1l12.2-26.6c0.2-0.4,0.5-0.8,1-1l13.1-6.2
		l13.8-27.6c0.4-1,1.6-1.4,2.6-0.9c0.7,0.3,1.1,1,1.1,1.8v50.7c0,0.9-0.7,1.7-1.4,2l-40,10.7C354.3,596.4,354.2,596.4,354,596.4z
		 M367.8,569.2l-10.1,22.1l34.4-9.1v-40.7L381.8,562c-0.2,0.4-0.6,0.8-0.9,0.9L367.8,569.2z M394,583.7L394,583.7z"/>
	<path class="st2" d="M487.4,596.4c-0.2,0-0.3,0-0.6-0.1l-40-10.7c-0.9-0.2-1.4-1-1.4-2v-50.7c0-1.1,0.9-2,2-2
		c0.8,0,1.4,0.4,1.8,1.1l13.8,27.6l13.1,6.2c0.4,0.2,0.8,0.6,1,1l12.2,26.6c0.4,1,0,2.2-1,2.6C488,596.4,487.7,596.4,487.4,596.4
		L487.4,596.4z M449.3,582.2l34.4,9.1l-10.1-22.1l-13-6.2c-0.4-0.2-0.8-0.5-0.9-0.9l-10.3-20.6L449.3,582.2L449.3,582.2z"/>
	<path class="st2" d="M431.4,591.1h-21.3c-0.2,0-0.4,0-0.7-0.1l-16.1-5.3c-0.8-0.2-1.3-1-1.3-1.9V529c0-8.2,2.5-16.2,7.4-22.9
		l19.7-27.6c0.7-0.9,2-1.1,2.9-0.4c0.1,0.1,0.2,0.2,0.4,0.4l19.7,27.6c4.7,6.7,7.3,14.6,7.3,22.9v54.8c0,0.9-0.6,1.7-1.3,1.9
		l-15.9,5.3C431.7,591,431.5,591.1,431.4,591.1z M410.4,587h20.7l14.3-4.7V529c0-7.4-2.3-14.5-6.6-20.6l-18.1-25.3l-18.1,25.3
		c-4.3,5.9-6.6,13.2-6.6,20.6v53.2L410.4,587z M447.4,583.7L447.4,583.7z"/>
	<path class="st2" d="M434.1,531.7c-0.1,0-0.2,0-0.4,0l-12.9-2.6l-13,2.6c-0.5,0.1-1.2,0-1.6-0.4c-0.4-0.3-0.8-1-0.8-1.5v-3.3
		c0-4.3,1.3-8.5,3.9-12l9.9-13.7c0.7-0.9,2-1.1,2.9-0.4c0.1,0.1,0.2,0.2,0.4,0.4l9.9,13.7c2.5,3.5,3.9,7.7,3.9,12v3.3
		C436.1,530.8,435.3,531.7,434.1,531.7L434.1,531.7L434.1,531.7L434.1,531.7z M420.7,525h0.4l11,2.2v-0.9c0-3.5-1.1-6.8-3.1-9.7
		l-8.2-11.5l-8.2,11.5c-2,2.9-3.1,6.2-3.1,9.7v0.9l11-2.2H420.7z"/>
	<path class="st2" d="M434.1,555.7h-0.4l-12.9-2.6l-13,2.6c-0.5,0.1-1.2,0-1.6-0.4c-0.4-0.3-0.8-1-0.8-1.5v-13.3c0-1,0.7-1.8,1.7-2
		l13.3-2.6c0.2,0,0.5,0,0.8,0l13.3,2.6c0.9,0.2,1.6,1,1.6,2v13.3C436,554.8,435.2,555.7,434.1,555.7L434.1,555.7L434.1,555.7z
		 M420.7,549.1h0.4l11,2.2V542l-11.3-2.3l-11.3,2.3v9.2l11-2.2H420.7z"/>
	<path class="st2" d="M364.6,553.7c-1.1,0-2-0.9-2-2l0,0v-13.3c0-1.1,0.9-2,2-2s2,0.9,2,2v13.3C366.6,552.8,365.7,553.7,364.6,553.7
		z"/>
	<path class="st2" d="M351.3,548.4c-1.1,0-2-0.9-2-2v-13.3c0-1.1,0.9-2,2-2c1.1,0,2,0.9,2,2v13.3
		C353.3,547.4,352.4,548.4,351.3,548.4L351.3,548.4z"/>
	<path class="st2" d="M378.1,543c-1.1,0-2-0.9-2-2l0,0v-13.3c0-1.1,0.9-2,2-2s2,0.9,2,2V541C380,542.1,379.1,543,378.1,543z"/>
	<path class="st2" d="M476.7,556.3c-1.1,0-2-0.9-2-2l0,0V541c0-1.1,0.9-2,2-2s2,0.9,2,2v13.3C478.7,555.4,477.8,556.3,476.7,556.3z"
		/>
	<path class="st2" d="M463.4,537.7c-1.1,0-2-0.9-2-2v-13.3c0-1.1,0.9-2,2-2c1.1,0,2,0.9,2,2v13.3
		C465.4,536.7,464.5,537.7,463.4,537.7L463.4,537.7z"/>
	<path class="st2" d="M490,545.6c-1.1,0-2-0.9-2-2l0,0v-13.3c-0.1-1.1,0.8-2.1,1.9-2.1c1.1-0.1,2.1,0.8,2.1,1.9c0,0.1,0,0.2,0,0.3
		v13.3C492,544.8,491.1,545.6,490,545.6L490,545.6z"/>
	<path class="st2" d="M396.7,487H386c-1.1,0-2-0.9-2-2c0-1.1,0.9-2,2-2h10.7c1.1,0,2,0.9,2,2C398.6,486.1,397.8,487,396.7,487z"/>
	<path class="st2" d="M391.4,492.3c-1.1,0-2-0.9-2-2l0,0v-10.7c0-1.1,0.9-2,2-2s2,0.9,2,2v10.7C393.4,491.4,392.5,492.3,391.4,492.3
		L391.4,492.3z"/>
	<path class="st2" d="M487.4,500.3h-10.7c-1.1,0-2-0.9-2-2s0.9-2,2-2h10.7c1.1,0,2,0.9,2,2S488.5,500.3,487.4,500.3L487.4,500.3z"/>
	<path class="st2" d="M482.1,505.7c-1.1,0-2-0.9-2-2l0,0v-10.7c-0.1-1.1,0.8-2.1,1.9-2.1c1.1-0.1,2.1,0.8,2.1,1.9c0,0.1,0,0.2,0,0.3
		v10.7C484.1,504.8,483.2,505.7,482.1,505.7L482.1,505.7z"/>
	<path class="st2" d="M458,492.3h-10.7c-1.1-0.1-2-1-1.9-2.1c0.1-1,0.9-1.8,1.9-1.9H458c1.1,0.1,2,1,1.9,2.1
		C459.8,491.4,459,492.3,458,492.3z"/>
	<path class="st2" d="M452.8,497.7c-1.1,0-2-0.9-2-2l0,0V485c-0.1-1.1,0.8-2.1,1.9-2.1c1.1-0.1,2.1,0.8,2.1,1.9c0,0.1,0,0.2,0,0.3
		v10.7C454.7,496.8,453.9,497.7,452.8,497.7z"/>
	<path class="st2" d="M364.6,494.9H354c-1.1,0-2-0.9-2-2s0.9-2,2-2h10.7c1.1,0,2,0.9,2,2S365.7,494.9,364.6,494.9L364.6,494.9z"/>
	<path class="st2" d="M359.4,500.3c-1.1,0-2-0.9-2-2l0,0v-10.7c0-1.1,0.9-2,2-2s2,0.9,2,2v10.7C361.3,499.4,360.5,500.3,359.4,500.3
		L359.4,500.3z"/>
</g>
<g id="_x30_8">
	<circle class="st4" cx="898.6" cy="395.8" r="34.8"/>
	<circle class="st4" cx="1034.4" cy="384.5" r="29.8"/>
	<circle class="st4" cx="979.9" cy="466.9" r="49.6"/>
	<path class="st2" d="M997.3,481.7h-44.7c-1,0-1.9-0.9-1.9-1.9v-17.4c0-1,0.9-1.9,1.9-1.9h44.7c1,0,1.9,0.9,1.9,1.9v17.4
		C999.1,481,998.2,481.7,997.3,481.7z M954.4,478h40.9v-13.6h-40.9V478z"/>
	<path class="st2" d="M1044.4,447h-139c-1,0-1.9-0.9-1.9-1.9v-96.8c0-5.2,4.2-9.3,9.3-9.3H1037c5.2,0,9.3,4.2,9.3,9.3v96.8
		C1046.3,446.2,1045.4,447,1044.4,447z M907.3,443.2h135.3v-94.9c0-3.1-2.5-5.6-5.6-5.6H912.8c-3.1,0-5.6,2.5-5.6,5.6L907.3,443.2z"
		/>
	<path class="st2" d="M1037,464.4H912.9c-5.2,0-9.3-4.2-9.3-9.4v-9.9c0-1,0.9-1.9,1.9-1.9h139c1,0,1.9,0.9,1.9,1.9v9.9
		C1046.3,460.3,1042.1,464.4,1037,464.4L1037,464.4z M907.3,447v8.1c0,3.1,2.5,5.6,5.6,5.6H1037c3.1,0,5.6-2.5,5.6-5.6v-8L907.3,447
		z"/>
	<path class="st2" d="M1014.6,481.7h-79.4c-1-0.1-1.8-1-1.8-2c0.1-0.9,0.8-1.6,1.8-1.8h79.4c1,0.1,1.8,1,1.8,2
		C1016.3,481,1015.5,481.7,1014.6,481.7z"/>
	<path class="st2" d="M962.5,501.6H893c-5.2,0-9.4-4.2-9.4-9.4v-94.4c0-5.2,4.2-9.4,9.4-9.4h69.5c5.2,0,9.4,4.2,9.4,9.4v94.4
		C971.7,497.5,967.7,501.6,962.5,501.6z M893,392.4c-3.1,0-5.6,2.5-5.6,5.6v94.4c0,3.1,2.5,5.6,5.6,5.6h69.5c3.1,0,5.6-2.5,5.6-5.6
		V398c0-3.1-2.5-5.6-5.6-5.6L893,392.4z"/>
	<path class="st2" d="M957.5,484.3h-59.6c-2.4,0-4.4-2-4.4-4.4v-69.5c0-2.4,2-4.4,4.4-4.4h59.6c2.4,0,4.4,2,4.4,4.4v69.5
		C961.9,482.3,960,484.3,957.5,484.3z M897.9,409.8c-0.3,0-0.7,0.3-0.7,0.7l0,0V480c0,0.3,0.2,0.7,0.7,0.7h59.6
		c0.3,0,0.7-0.3,0.7-0.7v-69.5c0-0.3-0.3-0.7-0.7-0.7l0,0H897.9z"/>
	<path class="st2" d="M936.4,401.1H919c-1-0.1-1.8-1-1.8-2c0.1-0.9,0.8-1.7,1.8-1.8h17.4c1,0.1,1.8,1,1.8,2
		C938.1,400.3,937.3,401,936.4,401.1L936.4,401.1z"/>
	<path class="st2" d="M936.4,493H919c-1,0-1.9-0.9-1.9-1.9s0.9-1.9,1.9-1.9h17.4c1,0,1.9,0.9,1.9,1.9S937.4,493,936.4,493L936.4,493
		L936.4,493z"/>
	<path class="st2" d="M933.6,360.1h-3.4c-1,0-1.9-0.9-1.9-1.9c0-1,0.9-1.9,1.9-1.9h3.4c1,0,1.9,0.9,1.9,1.9
		C935.4,359.2,934.7,360.1,933.6,360.1z"/>
	<path class="st2" d="M945.1,360.1h-3.4c-1,0-1.9-0.9-1.9-1.9c0-1,0.9-1.9,1.9-1.9h3.4c1,0,1.9,0.9,1.9,1.9
		C947,359.2,946.1,360.1,945.1,360.1z"/>
	<path class="st2" d="M937.6,367.5c-1,0-1.9-0.8-1.9-1.9l0,0v-3.4c0-1,0.9-1.9,1.9-1.9c1,0,1.9,0.9,1.9,1.9v3.4
		C939.5,366.7,938.6,367.5,937.6,367.5L937.6,367.5z"/>
	<path class="st2" d="M937.6,356.1c-1,0-1.9-0.9-1.9-1.9l0,0v-3.4c0-1,0.9-1.9,1.9-1.9c1,0,1.9,0.9,1.9,1.9v3.4
		C939.5,355.2,938.6,356.1,937.6,356.1z"/>
	<path class="st2" d="M1015.6,372.5h-3.4c-1-0.1-1.8-1-1.8-2c0.1-0.9,0.8-1.6,1.8-1.8h3.4c1,0.1,1.8,1,1.8,2
		C1017.3,371.7,1016.5,372.5,1015.6,372.5z"/>
	<path class="st2" d="M1027.1,372.5h-3.5c-1-0.1-1.8-1-1.8-2c0.1-0.9,0.8-1.6,1.8-1.8h3.4c1-0.1,2,0.7,2,1.8s-0.7,2-1.8,2H1027.1
		L1027.1,372.5z"/>
	<path class="st2" d="M1019.6,380c-1,0-1.9-0.9-1.9-1.9v-3.4c0.1-1,1-1.8,2-1.8c0.9,0.1,1.7,0.8,1.8,1.8v3.4
		C1021.5,379.1,1020.6,380,1019.6,380z"/>
	<path class="st2" d="M1019.6,368.5c-1,0-1.9-0.9-1.9-1.9v-3.4c0.1-1,1-1.8,2-1.8c0.9,0.1,1.7,0.8,1.8,1.8v3.4
		C1021.5,367.7,1020.6,368.5,1019.6,368.5z"/>
	<path class="st2" d="M993.2,409.8h-3.4c-1-0.1-1.8-1-1.8-2c0.1-0.9,0.8-1.6,1.8-1.8h3.4c1,0.1,1.8,1,1.8,2
		C994.8,409,994.2,409.7,993.2,409.8z"/>
	<path class="st2" d="M1004.6,409.8h-3.4c-1-0.1-1.8-1-1.8-2c0.1-0.9,0.8-1.6,1.8-1.8h3.4c1,0.1,1.8,1,1.8,2
		S1005.6,409.7,1004.6,409.8z"/>
	<path class="st2" d="M997.3,417.2c-1,0-1.9-0.9-1.9-1.9v-3.4c0.1-1,1-1.8,2-1.8c0.9,0.1,1.6,0.8,1.8,1.8v3.4
		C999.1,416.4,998.2,417.2,997.3,417.2L997.3,417.2z"/>
	<path class="st2" d="M997.3,405.7c-1,0-1.9-0.8-1.9-1.9l0,0v-3.4c-0.1-1,0.7-2,1.8-2s2,0.7,2,1.8c0,0.1,0,0.2,0,0.3v3.4
		C999.1,405,998.2,405.7,997.3,405.7L997.3,405.7z"/>
	<path class="st2" d="M938.6,459.4h-3.4c-1-0.1-1.8-1-1.8-2c0.1-0.9,0.8-1.6,1.8-1.8h3.4c1,0.1,1.8,1,1.8,2
		C940.3,458.6,939.5,459.4,938.6,459.4z"/>
	<path class="st2" d="M950.1,459.4h-3.4c-1-0.1-1.8-1-1.8-2c0.1-0.9,0.8-1.6,1.8-1.8h3.4c1,0.1,1.8,1,1.8,2
		C951.7,458.6,950.9,459.4,950.1,459.4z"/>
	<path class="st2" d="M942.6,466.9c-1,0-1.9-0.9-1.9-1.9v-3.4c0.1-1,1-1.8,2-1.8c0.9,0.1,1.7,0.8,1.8,1.8v3.4
		C944.5,466,943.7,466.9,942.6,466.9L942.6,466.9z"/>
	<path class="st2" d="M942.6,455.4c-1,0-1.9-0.9-1.9-1.9v-3.4c0.1-1,1-1.8,2-1.8c0.9,0.1,1.7,0.8,1.8,1.8v3.4
		C944.5,454.6,943.7,455.4,942.6,455.4L942.6,455.4z"/>
	<path class="st2" d="M921.2,427.2h-3.4c-1,0-1.9-0.9-1.9-1.9c0-1,0.9-1.9,1.9-1.9h3.4c1,0,1.9,0.9,1.9,1.9
		C923.1,426.3,922.2,427.2,921.2,427.2z"/>
	<path class="st2" d="M932.7,427.2h-3.4c-1,0-1.9-0.9-1.9-1.9c0-1,0.9-1.9,1.9-1.9h3.4c1,0,1.9,0.9,1.9,1.9
		C934.6,426.3,933.7,427.2,932.7,427.2z"/>
	<path class="st2" d="M925.2,434.6c-1,0-1.9-0.9-1.9-1.9v-3.4c-0.1-1,0.7-2,1.8-2c1.1,0,2,0.7,2,1.8c0,0.1,0,0.2,0,0.3v3.4
		C927.1,433.8,926.3,434.6,925.2,434.6L925.2,434.6z"/>
	<path class="st2" d="M925.2,423.1c-1,0-1.9-0.9-1.9-1.9v-3.4c0.1-1,1-1.8,2-1.8c0.9,0.1,1.7,0.8,1.8,1.8v3.4
		C927.1,422.3,926.3,423.1,925.2,423.1L925.2,423.1z"/>
	<path class="st2" d="M1034.4,430.6c-1,0-1.9-0.8-1.9-1.9l0,0v-24.1c0.1-1,1-1.8,2-1.8c0.9,0.1,1.7,0.8,1.8,1.8v24.1
		C1036.3,429.7,1035.5,430.6,1034.4,430.6L1034.4,430.6z"/>
	<path class="st2" d="M1034.4,396.6c-1,0-1.9-0.8-1.9-1.9l0,0V389c0.1-1,1-1.8,2-1.8c0.9,0.1,1.7,0.8,1.8,1.8v5.7
		C1036.3,395.7,1035.5,396.6,1034.4,396.6L1034.4,396.6z"/>
	<path class="st2" d="M905.4,475.2c-1,0-1.9-0.9-1.9-1.9v-19.1c-0.1-1,0.7-2,1.8-2c1.1,0,2,0.7,2,1.8c0,0.1,0,0.2,0,0.3v19.1
		C907.3,474.5,906.4,475.2,905.4,475.2z"/>
	<path class="st2" d="M905.4,446.2c-1,0-1.9-0.9-1.9-1.9v-5.7c-0.1-1,0.7-2,1.8-2c1.1,0,2,0.7,2,1.8c0,0.1,0,0.2,0,0.3v5.7
		C907.3,445.4,906.4,446.2,905.4,446.2L905.4,446.2z"/>
</g>
<g id="_x30_5">
	<circle class="st4" cx="686.3" cy="228" r="27.7"/>
	<circle class="st4" cx="601.3" cy="291.2" r="23.8"/>
	<circle class="st4" cx="708.7" cy="323.8" r="39.6"/>
	<path class="st2" d="M716.6,228c-0.5,0-1-0.2-1.4-0.6c-0.3-0.3-0.5-0.9-0.5-1.4c0-0.6,0.2-1,0.5-1.4c0.8-0.8,2-0.8,2.8,0
		c0.8,0.8,0.8,2,0,2.8C717.7,227.7,717.2,228,716.6,228L716.6,228z"/>
	<path class="st2" d="M702.8,226c0-1.1,0.9-2,2-2l0,0l0,0c1.1,0,2,0.9,2,2l0,0l0,0c0,1.1-0.9,2-2,2l0,0l0,0
		C703.7,228,702.8,227.1,702.8,226L702.8,226z"/>
	<path class="st2" d="M692.9,228c-0.5,0-1-0.2-1.4-0.6c-0.3-0.3-0.6-0.9-0.6-1.4c0-0.6,0.2-1,0.6-1.4c0.8-0.8,2-0.8,2.8,0
		c0.8,0.8,0.8,2,0,2.8C693.9,227.7,693.4,228,692.9,228L692.9,228z"/>
	<path class="st2" d="M728.5,237.3H601.8c-0.8,0-1.4-0.7-1.4-1.5v-15.8c0-3,2.4-5.5,5.5-5.5h118.8c3.1,0,5.5,2.4,5.5,5.5v15.8
		C730.1,236.6,729.4,237.3,728.5,237.3L728.5,237.3z M603.2,234.3H727V220c0-1.3-1.1-2.4-2.4-2.4l0,0H605.8c-1.3,0-2.4,1.1-2.4,2.4
		l0,0L603.2,234.3L603.2,234.3z"/>
	<path class="st2" d="M724.6,344.2H605.8c-3,0-5.5-2.5-5.5-5.5v-103c0-0.8,0.7-1.4,1.4-1.5l0,0h126.7c0.8,0,1.4,0.7,1.4,1.4l0,0v103
		C730,341.8,727.5,344.2,724.6,344.2z M603.2,237.3v101.4c0,1.3,1.1,2.4,2.4,2.4l0,0h118.8c1.3,0,2.4-1.1,2.4-2.4l0,0V237.3H603.2z"
		/>
	<path class="st2" d="M716.6,320.5h-15.8c-0.8,0-1.4-0.7-1.4-1.5v-47.5c0-0.8,0.7-1.4,1.4-1.5l0,0h15.8c0.8,0,1.4,0.7,1.4,1.4l0,0
		v47.5C718.1,319.8,717.4,320.5,716.6,320.5z M702.3,317.5h12.9V273h-12.9V317.5z"/>
	<path class="st2" d="M700.8,320.5h-51.5c-0.8,0-1.4-0.7-1.4-1.5v-47.5c0-0.8,0.7-1.4,1.4-1.5l0,0h51.5c0.8,0,1.4,0.7,1.4,1.5v47.5
		C702.2,319.8,701.6,320.5,700.8,320.5z M650.8,317.5h48.5V273h-48.5V317.5z"/>
	<path class="st2" d="M649.3,320.5h-35.6c-0.8,0-1.4-0.7-1.4-1.5v-47.5c0-0.8,0.7-1.4,1.4-1.5l0,0h35.6c0.8,0,1.4,0.7,1.4,1.5v47.5
		C650.8,319.8,650.1,320.5,649.3,320.5z M615.2,317.5h32.7V273h-32.7V317.5z"/>
	<path class="st2" d="M716.6,273h-103c-0.8,0-1.4-0.7-1.4-1.5v-21.8c0-1.9,1.5-3.4,3.5-3.4l0,0h99c1.9,0,3.5,1.5,3.5,3.4l0,0v21.8
		C718.2,272.3,717.4,273,716.6,273L716.6,273z M615.2,270h100v-20.3c0-0.2-0.2-0.6-0.5-0.6l0,0h-99c-0.2,0-0.5,0.2-0.5,0.4l0,0
		L615.2,270L615.2,270z"/>
	<path class="st2" d="M714.7,332.4h-99c-1.9,0-3.4-1.5-3.5-3.4V319c0-0.8,0.7-1.5,1.4-1.5h103.1c0.8,0,1.4,0.7,1.4,1.4l0,0v9.9
		C718.1,330.8,716.5,332.4,714.7,332.4L714.7,332.4z M615.1,320.5v8.4c0,0.2,0.2,0.6,0.5,0.6l0,0h99c0.2,0,0.5-0.2,0.5-0.4l0,0v-8.4
		H615.1V320.5z"/>
	<path class="st2" d="M635.5,267c-3,0-5.4-2.5-5.4-5.5s2.5-5.4,5.5-5.4s5.4,2.4,5.4,5.4C640.9,264.6,638.4,267,635.5,267z
		 M635.5,259.1c-1.3,0-2.4,1.1-2.4,2.4s1.1,2.4,2.4,2.4s2.4-1.1,2.4-2.4l0,0C637.9,260.2,636.8,259.1,635.5,259.1L635.5,259.1z"/>
	<path class="st2" d="M625.6,302.6c-3,0-5.4-2.5-5.4-5.5c0-3,2.5-5.4,5.5-5.4c3,0,5.4,2.4,5.4,5.4
		C631,300.2,628.5,302.6,625.6,302.6z M625.6,294.7c-1.3,0-2.4,1.1-2.4,2.4c0,1.3,1.1,2.4,2.4,2.4c1.3,0,2.4-1.1,2.4-2.4
		C628,295.8,626.9,294.7,625.6,294.7L625.6,294.7z"/>
	<path class="st2" d="M663.2,288.8c-3,0-5.4-2.5-5.4-5.5c0-3,2.5-5.4,5.5-5.4c3,0,5.4,2.4,5.4,5.4
		C668.6,286.4,666.2,288.8,663.2,288.8z M663.2,280.9c-1.3,0-2.4,1.1-2.4,2.4c0,1.3,1.1,2.4,2.4,2.4s2.4-1.1,2.4-2.4l0,0
		C665.6,282,664.5,280.9,663.2,280.9z"/>
	<path class="st2" d="M686.9,263c-3,0-5.5-2.4-5.5-5.5c0-3,2.4-5.4,5.5-5.4c3,0,5.5,2.4,5.5,5.4C692.3,260.6,689.9,263,686.9,263z
		 M686.9,255.1c-1.3,0-2.4,1.1-2.4,2.4c0,1.3,1.1,2.4,2.4,2.4s2.4-1.1,2.4-2.4C689.4,256.2,688.3,255.1,686.9,255.1L686.9,255.1z"/>
	<path class="st2" d="M679,306.6c-3,0-5.4-2.5-5.4-5.5c0-3,2.5-5.4,5.5-5.4c3,0,5.4,2.4,5.4,5.4C684.4,304.2,682,306.6,679,306.6z
		 M679,298.7c-1.3,0-2.4,1.1-2.4,2.4s1.1,2.4,2.4,2.4c1.3,0,2.4-1.1,2.4-2.4S680.3,298.7,679,298.7L679,298.7z"/>
	<path class="st2" d="M742.4,247.2h-7.9c-0.8,0-1.5-0.7-1.5-1.5s0.7-1.5,1.5-1.5h7.9c0.8,0,1.4,0.7,1.4,1.5S743.2,247.2,742.4,247.2
		z"/>
	<path class="st2" d="M738.4,251.2c-0.8,0-1.4-0.7-1.4-1.5v-7.9c0-0.8,0.7-1.5,1.4-1.5s1.5,0.7,1.5,1.5v7.9
		C739.9,250.5,739.2,251.2,738.4,251.2L738.4,251.2z"/>
	<circle class="st2" cx="738.4" cy="257.7" r="1.4"/>
	<circle class="st2" cx="738.4" cy="263.6" r="1.4"/>
	<circle class="st2" cx="738.4" cy="271.5" r="1.4"/>
	<circle class="st2" cx="738.4" cy="283.4" r="1.4"/>
	<path class="st2" d="M595.9,330.4h-7.9c-0.8,0-1.4-0.7-1.4-1.5c0-0.9,0.7-1.5,1.4-1.5h7.9c0.8,0,1.5,0.7,1.5,1.5
		C597.4,329.7,596.6,330.4,595.9,330.4L595.9,330.4L595.9,330.4z"/>
	<path class="st2" d="M591.9,334.3c-0.8,0-1.4-0.7-1.4-1.5v-7.9c0-0.8,0.7-1.5,1.5-1.5c0.8,0,1.4,0.7,1.4,1.5v7.9
		C593.3,333.7,592.7,334.3,591.9,334.3z"/>
	<circle class="st2" cx="591.9" cy="317.1" r="1.4"/>
	<circle class="st2" cx="591.9" cy="309.1" r="1.4"/>
	<circle class="st2" cx="591.9" cy="299.2" r="1.4"/>
	<circle class="st2" cx="591.9" cy="285.4" r="1.4"/>
</g>
<g id="_x30_6">
	<circle class="st4" cx="647.8" cy="588.5" r="25.2"/>
	<circle class="st4" cx="719.3" cy="601.6" r="21.7"/>
	<circle class="st4" cx="723.8" cy="530" r="36.1"/>
	<path class="st2" d="M694.1,592.2c-0.1,0-0.3,0-0.4-0.1l-50.5-18c-0.7-0.2-1.1-1-0.9-1.8c0.1-0.4,0.4-0.7,0.9-0.9l50.4-18
		c0.3-0.1,0.7-0.1,0.9,0l50.4,18c0.7,0.2,1.1,1,0.9,1.8c-0.1,0.4-0.4,0.7-0.9,0.9l-50.4,18C694.3,592.1,694.2,592.2,694.1,592.2z
		 M647.7,572.8l46.4,16.5l46.4-16.5l-46.4-16.6L647.7,572.8z"/>
	<path class="st2" d="M643.6,574.1c-0.4,0-0.9-0.2-1.2-0.7l-7.2-12.6c-0.2-0.3-0.2-0.8-0.1-1.1c0.1-0.3,0.4-0.7,0.8-0.8l50.5-18
		c0.7-0.2,1.3,0,1.7,0.5l7.3,12.6c0.2,0.3,0.2,0.8,0.1,1.1c-0.1,0.3-0.4,0.7-0.8,0.8L644,574C643.9,574.1,643.7,574.1,643.6,574.1z
		 M638.3,560.9l5.8,10.2l47.9-17.1l-5.8-10.2L638.3,560.9z"/>
	<path class="st2" d="M744.5,574.1c-0.1,0-0.3,0-0.4-0.1l-50.5-18c-0.3-0.1-0.7-0.4-0.8-0.8c-0.1-0.3-0.1-0.8,0.1-1.1l7.3-12.6
		c0.3-0.5,1-0.9,1.6-0.5l50.4,18c0.3,0.1,0.7,0.4,0.8,0.8c0.1,0.3,0.1,0.8-0.1,1.1l-7.1,12.6C745.5,573.8,745,574.1,744.5,574.1z
		 M696.1,554l47.8,17l5.8-10.2l-47.9-17.1L696.1,554z"/>
	<path class="st2" d="M709.2,568.3h-30.2c-0.8,0-1.3-0.7-1.3-1.3v-3.2c0-4-1.5-7.9-4.4-10.7c-12-11.5-12.4-30.6-0.9-42.6
		c5.3-5.5,12.5-8.8,20.1-9.2c16.6-1,30.9,11.8,31.8,28.4c0.5,8.7-2.9,17.3-9.1,23.3c-3,2.8-4.6,6.6-4.6,10.6v3.5
		C710.5,567.8,709.9,568.3,709.2,568.3L709.2,568.3z M680.3,565.7h27.5v-2.2c0.1-4.7,2.1-9.2,5.5-12.5c10.8-10.7,10.9-28,0.2-38.9
		c-5.5-5.6-13.1-8.6-21-8.1c-15.2,0.8-26.7,13.7-26,28.8c0.3,6.9,3.4,13.5,8.5,18.4c3.4,3.3,5.3,7.9,5.3,12.6L680.3,565.7z"/>
	<path class="st2" d="M703.1,575.6h-18c-2.8,0-5-2.2-5-5l0,0V567c0-0.8,0.7-1.3,1.3-1.3h25.2c0.8,0,1.3,0.7,1.3,1.3v3.6
		C708,573.4,705.8,575.6,703.1,575.6z M682.8,568.3v2.2c0,1.2,1,2.2,2.2,2.2h18c1.2,0,2.2-1,2.2-2.2v-2.2H682.8z"/>
	<path class="st2" d="M703.1,582.7h-18c-2.8,0.2-5.1-1.9-5.3-4.6c-0.2-2.8,1.9-5.1,4.6-5.3c0.2,0,0.4,0,0.7,0h18
		c2.8-0.2,5.1,1.9,5.3,4.6s-1.9,5.1-4.6,5.3C703.6,582.7,703.2,582.7,703.1,582.7z M685.1,575.6c-1.2,0-2.2,1-2.2,2.2s1,2.2,2.2,2.2
		h18c1.2,0,2.2-1,2.2-2.2s-1-2.2-2.2-2.2H685.1z"/>
	<path class="st2" d="M699.2,568.3h-10.2c-0.7,0-1.2-0.4-1.3-1l-7.4-30.8c-0.2-0.8,0.2-1.4,1-1.7c0.4-0.1,0.8,0,1.1,0.2l5.9,4.5
		l5-4.5c0.5-0.4,1.3-0.4,1.9,0l5,4.5l5.9-4.5c0.5-0.4,1.4-0.3,1.9,0.2c0.2,0.3,0.3,0.8,0.2,1.1l-7.5,30.8
		C700.3,567.9,699.7,568.3,699.2,568.3z M689.9,565.7h8.1l6.4-26.1l-3.9,3c-0.5,0.4-1.2,0.3-1.8-0.1l-4.8-4.4l-4.8,4.4
		c-0.4,0.4-1.2,0.4-1.8,0.1l-3.8-3L689.9,565.7z"/>
	<path class="st2" d="M713.5,528.7c-0.7,0-1.2-0.4-1.3-1.1c-0.3-1.8-1-3.4-1.8-5c-0.4-0.7-0.2-1.4,0.4-1.9c0.7-0.4,1.4-0.2,1.9,0.4
		c0,0,0,0.1,0.1,0.1c1,1.8,1.6,3.6,2,5.6c0.1,0.8-0.3,1.4-1.1,1.5l0,0C713.7,528.7,713.6,528.7,713.5,528.7z"/>
	<path class="st2" d="M707.5,518.1c-0.3,0-0.7-0.1-0.9-0.3c-6.8-6.3-17.2-6.6-24.3-0.7c-0.5,0.4-1.4,0.3-1.9-0.2
		c-0.4-0.5-0.3-1.3,0.2-1.8c8.1-6.7,20-6.4,27.8,0.8c0.5,0.5,0.5,1.3,0.1,1.9C708.3,518,707.8,518.1,707.5,518.1L707.5,518.1z"/>
	<path class="st2" d="M694.1,619.1c-0.1,0-0.3,0-0.4-0.1l-50.5-18c-0.5-0.2-0.9-0.7-0.9-1.3v-26.8c0-0.4,0.2-0.9,0.5-1.1
		c0.3-0.2,0.8-0.3,1.2-0.2l50.5,18c0.5,0.2,0.9,0.7,0.9,1.3v27.1C695.4,618.6,694.8,619.2,694.1,619.1
		C694.1,619.2,694.1,619.2,694.1,619.1L694.1,619.1z M644.9,598.9l47.7,17v-24.2l-47.7-17.1V598.9z"/>
	<path class="st2" d="M686.8,604.7c-0.1,0-0.3,0-0.4-0.1l-50.5-18c-0.7-0.2-1.1-1-0.8-1.8c0-0.1,0.1-0.1,0.1-0.2l7.2-12.7
		c0.3-0.5,1-0.8,1.6-0.5l50.5,18c0.7,0.2,1.1,1,0.9,1.7c0,0.1-0.1,0.2-0.1,0.2l-7.2,12.7C687.8,604.5,687.4,604.7,686.8,604.7z
		 M638.3,584.6l47.8,17l5.8-10.2l-47.9-17L638.3,584.6z"/>
	<path class="st2" d="M694.1,619.1c-0.3,0-0.5-0.1-0.8-0.2c-0.3-0.2-0.5-0.7-0.5-1.1v-27.1c0-0.5,0.3-1.1,0.9-1.3l50.5-18
		c0.7-0.2,1.5,0.1,1.8,0.9c0,0.1,0.1,0.3,0.1,0.4v27.1c0,0.5-0.3,1.1-0.9,1.3l-50.4,18C694.3,619.1,694.2,619.1,694.1,619.1z
		 M695.4,591.7v24.2l47.7-17v-24.2L695.4,591.7z"/>
	<path class="st2" d="M701.2,604.7c-0.4,0-1-0.2-1.2-0.7l-7.2-12.5c-0.3-0.7-0.1-1.4,0.4-1.9c0.1,0,0.1-0.1,0.2-0.1l50.5-18
		c0.7-0.2,1.3,0,1.7,0.5l7.1,12.7c0.3,0.7,0.1,1.4-0.5,1.9c-0.1,0-0.1,0.1-0.2,0.1l-50.4,18C701.6,604.7,701.4,604.7,701.2,604.7z
		 M696,591.5l5.8,10.2l47.8-17l-5.8-10.2L696,591.5z"/>
	<path class="st2" d="M727.2,509.2h-2.5c-0.8,0.1-1.4-0.4-1.4-1.2c-0.1-0.8,0.4-1.4,1.2-1.4c0.1,0,0.1,0,0.2,0h2.5
		c0.8-0.1,1.4,0.4,1.4,1.2c0.1,0.8-0.4,1.4-1.2,1.4C727.3,509.2,727.2,509.2,727.2,509.2z"/>
	<path class="st2" d="M735.5,509.2h-2.5c-0.8,0.1-1.4-0.4-1.4-1.2c-0.1-0.8,0.4-1.4,1.2-1.4c0.1,0,0.1,0,0.2,0h2.5
		c0.8-0.1,1.4,0.4,1.4,1.2c0.1,0.8-0.4,1.4-1.2,1.4C735.7,509.2,735.6,509.2,735.5,509.2z"/>
	<path class="st2" d="M730.1,514.7c-0.8,0-1.3-0.7-1.3-1.3v-2.5c-0.1-0.8,0.4-1.4,1.2-1.4c0.8-0.1,1.4,0.4,1.4,1.2
		c0,0.1,0,0.1,0,0.2v2.5C731.4,514.1,730.8,514.6,730.1,514.7z"/>
	<path class="st2" d="M730.1,506.4c-0.8,0-1.3-0.7-1.3-1.3v-2.5c-0.1-0.8,0.4-1.4,1.2-1.4c0.8-0.1,1.4,0.4,1.4,1.2
		c0,0.1,0,0.1,0,0.2v2.5C731.4,505.7,730.8,506.4,730.1,506.4z"/>
	<path class="st2" d="M743.4,532.7h-2.5c-0.8,0-1.3-0.7-1.3-1.3c0-0.8,0.7-1.3,1.3-1.3h2.5c0.8,0,1.3,0.7,1.3,1.3
		C744.7,532.1,744,532.7,743.4,532.7L743.4,532.7L743.4,532.7z"/>
	<path class="st2" d="M751.7,532.7h-2.5c-0.8,0-1.3-0.7-1.3-1.3c0-0.8,0.7-1.3,1.3-1.3h2.5c0.8,0,1.3,0.7,1.3,1.3
		C753.1,532.1,752.4,532.7,751.7,532.7z"/>
	<path class="st2" d="M746.3,538.1c-0.8,0-1.3-0.7-1.3-1.3v-2.5c0.1-0.8,0.8-1.3,1.4-1.2c0.7,0.1,1.2,0.5,1.2,1.2v2.5
		C747.7,537.5,747.1,538.1,746.3,538.1z"/>
	<path class="st2" d="M746.3,529.8c-0.8,0-1.3-0.7-1.3-1.3V526c-0.1-0.8,0.4-1.4,1.2-1.4c0.8-0.1,1.4,0.4,1.4,1.2c0,0.1,0,0.1,0,0.2
		v2.5C747.7,529.1,747.1,529.8,746.3,529.8z"/>
	<path class="st2" d="M651.5,518.3H649c-0.8,0.1-1.4-0.4-1.4-1.2c-0.1-0.8,0.4-1.4,1.2-1.4c0.1,0,0.1,0,0.2,0h2.5
		c0.8-0.1,1.4,0.4,1.4,1.2c0.1,0.8-0.4,1.4-1.2,1.4C651.6,518.3,651.6,518.3,651.5,518.3z"/>
	<path class="st2" d="M659.8,518.3h-2.5c-0.8,0.1-1.4-0.4-1.4-1.2c-0.1-0.8,0.4-1.4,1.2-1.4c0.1,0,0.1,0,0.2,0h2.5
		c0.8-0.1,1.4,0.4,1.4,1.2c0.1,0.8-0.4,1.4-1.2,1.4C660,518.3,659.9,518.3,659.8,518.3z"/>
	<path class="st2" d="M654.4,523.6c-0.8,0-1.3-0.7-1.3-1.3v-2.5c-0.1-0.8,0.4-1.4,1.2-1.4c0.8-0.1,1.4,0.4,1.4,1.2
		c0,0.1,0,0.1,0,0.2v2.5C655.8,523.1,655.2,523.6,654.4,523.6z"/>
	<path class="st2" d="M654.4,515.4c-0.8,0-1.3-0.7-1.3-1.3v-2.5c-0.1-0.8,0.4-1.4,1.2-1.4c0.8-0.1,1.4,0.4,1.4,1.2
		c0,0.1,0,0.1,0,0.2v2.5C655.8,514.7,655.2,515.4,654.4,515.4z"/>
	<path class="st2" d="M638.9,545.3h-2.5c-0.8,0.1-1.4-0.4-1.4-1.2c-0.1-0.8,0.4-1.4,1.2-1.4c0.1,0,0.1,0,0.2,0h2.5
		c0.8-0.1,1.4,0.4,1.4,1.2c0.1,0.8-0.4,1.4-1.2,1.4C639.1,545.3,639,545.3,638.9,545.3z"/>
	<path class="st2" d="M647.2,545.3h-2.5c-0.8,0.1-1.4-0.4-1.4-1.2c-0.1-0.8,0.4-1.4,1.2-1.4c0.1,0,0.1,0,0.2,0h2.5
		c0.8-0.1,1.4,0.4,1.4,1.2c0.1,0.8-0.4,1.4-1.2,1.4C647.3,545.3,647.2,545.3,647.2,545.3z"/>
	<path class="st2" d="M641.8,550.7c-0.8,0-1.3-0.7-1.3-1.3v-2.5c0-0.8,0.7-1.3,1.3-1.3c0.8,0,1.3,0.7,1.3,1.3v2.5
		C643.2,550.2,642.6,550.7,641.8,550.7L641.8,550.7z"/>
	<path class="st2" d="M641.8,542.3c-0.8,0-1.3-0.7-1.3-1.3v-2.5c0-0.8,0.7-1.3,1.3-1.3c0.8,0,1.3,0.7,1.3,1.3v2.5
		C643.2,541.8,642.6,542.3,641.8,542.3L641.8,542.3z"/>
</g>
<g id="_x30_9">
	<circle class="st4" cx="931.8" cy="645.1" r="19.7"/>
	<circle class="st4" cx="873.7" cy="677.4" r="16.8"/>
	<circle class="st4" cx="939.2" cy="711.1" r="28"/>
	<path class="st2" d="M953.1,705.1h-78.7c-3.6,0-6.7-3-6.7-6.7v-56.2c0-3.6,3-6.7,6.7-6.7h78.7c3.6,0,6.7,3,6.7,6.7v56.2
		C959.9,702.2,956.8,705.1,953.1,705.1z M874.5,637.7c-2.5,0-4.6,2.1-4.6,4.5l0,0v56.2c0,2.5,2.1,4.6,4.6,4.6l0,0h78.7
		c2.5,0,4.5-2.1,4.5-4.6v-56.1c0-2.5-2-4.6-4.5-4.6l0,0L874.5,637.7L874.5,637.7z"/>
	<path class="st2" d="M944.7,705.1h-61.8c-0.7,0-1.1-0.4-1.1-1.1v-67.3c0-0.7,0.4-1.1,1.1-1.1h61.8c0.7,0,1.1,0.4,1.1,1.1v67.4
		C945.8,704.7,945.2,705.1,944.7,705.1z M884,703.1h59.6v-65.3h-59.7L884,703.1z"/>
	<path class="st2" d="M926.9,690.2h-26.2c-3.6,0-6.7-3-6.7-6.7v-26.2c0-3.6,3-6.7,6.7-6.7h26.2c3.6,0,6.7,3,6.7,6.7v26.2
		C933.6,687.2,930.6,690.2,926.9,690.2z M900.7,652.8c-2.5,0-4.5,2.1-4.6,4.6v26.2c0,2.5,2.1,4.5,4.6,4.6h26.2
		c2.5,0,4.6-2.1,4.6-4.5l0,0v-26.3c0-2.5-2.1-4.6-4.6-4.6l0,0H900.7z"/>
	<path class="st2" d="M944.7,720.1h-22.2c-2,0-4.2-1.9-7-4.1s-5.8-4.7-9.1-5.8c-1.5-0.5-6.2,0.1-8.7,0.7c-0.4,0.1-0.9-0.1-1.1-0.4
		c-0.1-0.2-0.8-1.4-0.7-4.6c0.1-3.6,4.1-6.4,9.8-6.8c2.5-0.2,5.2,0,7.7,0.5v-31.1c0-2.5,2.3-4.5,5.3-4.5s5.2,2,5.2,4.5v13.9
		c2.1-1.1,4.7-0.8,6.5,0.9c2.6-1.7,6.2-0.9,7.8,1.8c0.1,0.2,0.2,0.4,0.3,0.7c0.5-0.1,1.1-0.2,1.5-0.2c3,0,5.4,2.2,5.6,5.2
		c0,0.1,0,0.2,0,0.3v28.3C945.7,719.7,945.2,720.1,944.7,720.1z M904.6,707.9c0.8,0,1.5,0.1,2.3,0.2c3.6,1.2,6.9,3.9,9.8,6.2
		c2.2,1.8,4.5,3.6,5.7,3.6h21.2v-27.4c0-0.1,0-0.1,0-0.2c-0.2-1.9-1.8-3.2-3.5-3.2c-0.5,0-1.2,0.1-1.8,0.4c-0.3,0.1-0.7,0.1-1,0
		c-0.3-0.1-0.5-0.4-0.5-0.8c-0.4-2-2.3-3.2-4.2-2.8c-0.7,0.1-1.2,0.4-1.8,0.9c-0.2,0.2-0.5,0.3-0.8,0.2c-0.3,0-0.6-0.2-0.8-0.4
		c-1.2-1.5-3.4-1.9-5-0.8c-0.3,0.2-0.5,0.4-0.8,0.8c-0.4,0.4-1.1,0.4-1.5,0.1c-0.2-0.2-0.3-0.4-0.3-0.7v-16.1c0-1.3-1.4-2.4-3.1-2.4
		s-3.1,1.1-3.1,2.4v32.6c0,0.5-0.4,1.1-1,1.1c-0.1,0-0.2,0-0.3,0c-2.8-0.8-5.5-1-8.2-0.8c-4.5,0.4-7.8,2.4-7.9,4.8
		c-0.1,0.9,0,1.9,0.2,2.8C900.2,708.2,902.4,708,904.6,707.9L904.6,707.9z"/>
	<path class="st2" d="M944.7,727.6h-22.2c-0.7,0-1.1-0.4-1.1-1.1v-7.4c0-0.7,0.4-1.1,1.1-1.1h22.2c0.7,0,1.1,0.4,1.1,1.1v7.5
		C945.8,727.1,945.2,727.6,944.7,727.6z M923.4,725.5h20.1v-5.4h-20.1V725.5z"/>
	<path class="st2" d="M951.7,679.8c-0.7,0-1.1-0.4-1.1-1.1v-16.8c0.2-0.6,0.8-0.9,1.3-0.8c0.3,0.1,0.7,0.4,0.8,0.8v16.8
		C952.7,679.3,952.3,679.8,951.7,679.8z"/>
	<path class="st2" d="M875.9,674.9c-0.7,0-1.1-0.4-1.1-1.1v-7c-0.2-0.5,0.1-1.2,0.8-1.4c0.5-0.2,1.2,0.1,1.4,0.8
		c0.1,0.2,0.1,0.4,0,0.7v7C876.9,674.5,876.5,674.9,875.9,674.9z"/>
	<path class="st2" d="M875.9,658.1c-0.7,0-1.1-0.4-1.1-1.1v-7c-0.2-0.5,0.1-1.2,0.8-1.4c0.5-0.2,1.2,0.1,1.4,0.8
		c0.1,0.2,0.1,0.4,0,0.7v7C876.9,657.5,876.5,658.1,875.9,658.1z"/>
	<path class="st2" d="M875.9,691.8c-0.7,0-1.1-0.4-1.1-1.1v-7c-0.2-0.5,0.1-1.2,0.8-1.4c0.5-0.2,1.2,0.1,1.4,0.8
		c0.1,0.2,0.1,0.4,0,0.7v7C876.9,691.3,876.5,691.7,875.9,691.8z"/>
	<circle class="st2" cx="951.7" cy="684.5" r="1.4"/>
	<path class="st2" d="M952.3,716.4h-2c-0.5-0.2-0.9-0.8-0.8-1.4c0.1-0.3,0.3-0.7,0.8-0.8h2c0.5-0.2,1.2,0.1,1.4,0.8
		c0.2,0.6-0.1,1.2-0.8,1.4C952.7,716.5,952.5,716.5,952.3,716.4z"/>
	<path class="st2" d="M958.8,716.4h-2c-0.5-0.2-0.9-0.8-0.8-1.4c0.1-0.3,0.3-0.7,0.8-0.8h2c0.5-0.2,1.2,0.1,1.4,0.8
		c0.2,0.6-0.1,1.2-0.8,1.4C959.2,716.5,959,716.5,958.8,716.4z"/>
	<path class="st2" d="M954.5,720.5c-0.5,0-1.1-0.4-1.1-1v-0.1v-2c-0.2-0.5,0.1-1.2,0.8-1.4c0.6-0.2,1.2,0.1,1.4,0.8
		c0.1,0.2,0.1,0.4,0,0.7v2C955.6,720,955.1,720.5,954.5,720.5z"/>
	<path class="st2" d="M954.5,714.1c-0.7,0-1.1-0.4-1.1-1.1v-2c-0.2-0.5,0.1-1.2,0.8-1.4c0.6-0.2,1.2,0.1,1.4,0.8
		c0.1,0.2,0.1,0.4,0,0.7v2C955.6,713.6,955.1,714.1,954.5,714.1z"/>
	<path class="st2" d="M903.1,723.4h-2c-0.6-0.2-0.9-0.8-0.8-1.3c0.1-0.3,0.4-0.7,0.8-0.8h2c0.5,0.2,0.9,0.8,0.8,1.3
		C903.8,723,903.4,723.3,903.1,723.4z"/>
	<path class="st2" d="M909.6,723.4h-2c-0.5-0.2-0.9-0.8-0.8-1.3c0.1-0.3,0.4-0.7,0.8-0.8h2c0.5-0.2,1.2,0.1,1.3,0.8
		c0.2,0.5-0.1,1.2-0.8,1.3C910,723.4,909.8,723.4,909.6,723.4z"/>
	<path class="st2" d="M905.4,727.6c-0.7,0-1.1-0.4-1.1-1.1v-1.9c-0.2-0.5,0.1-1.2,0.8-1.4c0.5-0.2,1.2,0.1,1.4,0.8
		c0.1,0.2,0.1,0.4,0,0.7v2C906.3,727.1,906,727.6,905.4,727.6z"/>
	<path class="st2" d="M905.4,721.1c-0.7,0-1.1-0.4-1.1-1.1v-1.9c-0.2-0.5,0.1-1.2,0.8-1.4c0.5-0.2,1.2,0.1,1.4,0.8
		c0.1,0.2,0.1,0.4,0,0.7v2C906.4,720.7,906,721.1,905.4,721.1z"/>
	<path class="st2" d="M877.8,714.9h-2c-0.5-0.2-0.9-0.8-0.8-1.3c0.1-0.3,0.4-0.7,0.8-0.8h2c0.5,0.2,0.9,0.8,0.8,1.3
		C878.5,714.6,878.1,714.8,877.8,714.9z"/>
	<path class="st2" d="M884.3,714.9h-2c-0.5-0.2-0.9-0.8-0.8-1.3c0.1-0.3,0.4-0.7,0.8-0.8h2c0.5,0.2,0.9,0.8,0.8,1.3
		C884.9,714.6,884.6,714.8,884.3,714.9z"/>
	<path class="st2" d="M880.1,719.2c-0.7,0-1.1-0.4-1.1-1.1v-2c0.2-0.6,0.8-0.9,1.4-0.8c0.3,0.1,0.7,0.3,0.8,0.8v2
		C881.1,718.7,880.7,719.1,880.1,719.2z"/>
	<path class="st2" d="M880.1,712.7c-0.7,0-1.1-0.4-1.1-1.1v-2c-0.2-0.5,0.1-1.2,0.8-1.4c0.6-0.2,1.2,0.1,1.4,0.8
		c0.1,0.2,0.1,0.4,0,0.7v2C881.1,712.2,880.7,712.6,880.1,712.7z"/>
	<path class="st2" d="M907.7,643.3h-17.8c-0.5,0.2-1.2-0.1-1.4-0.8c-0.2-0.6,0.1-1.2,0.8-1.4c0.2-0.1,0.4-0.1,0.7,0h17.8
		c0.5,0.2,0.9,0.8,0.8,1.4C908.4,643,908.2,643.2,907.7,643.3z"/>
	<path class="st2" d="M916.6,643.3h-3.2c-0.6-0.2-0.9-0.8-0.8-1.4c0.1-0.3,0.3-0.7,0.8-0.8h3.2c0.5-0.2,1.2,0.1,1.4,0.8
		c0.2,0.5-0.1,1.2-0.8,1.4C917.1,643.4,916.8,643.4,916.6,643.3z"/>
</g>
<g id="_x30_3">
	<circle class="st4" cx="403.8" cy="116.6" r="23.8"/>
	<circle class="st4" cx="464.7" cy="152.3" r="20.4"/>
	<circle class="st4" cx="382.1" cy="196.7" r="33.9"/>
	<path class="st2" d="M462.2,118.3c-0.4,0-0.9-0.2-1.2-0.4c-0.3-0.3-0.4-0.8-0.4-1.2c0-0.4,0.2-0.9,0.4-1.2c0.7-0.7,1.8-0.7,2.4,0
		c0.3,0.3,0.4,0.8,0.5,1.2c0,0.4-0.2,0.9-0.5,1.2C463.1,118.2,462.7,118.3,462.2,118.3z"/>
	<path class="st2" d="M451.2,116.6c0-0.9,0.8-1.6,1.6-1.6l0,0c0.9,0,1.6,0.8,1.6,1.6l0,0c0,1-0.8,1.7-1.6,1.7l0,0
		C452,118.3,451.2,117.5,451.2,116.6z"/>
	<path class="st2" d="M443.6,118.3c-0.4,0-0.9-0.2-1.2-0.4c-0.7-0.7-0.7-1.8,0-2.4c0.7-0.7,1.8-0.7,2.4,0c0.3,0.3,0.4,0.8,0.5,1.2
		c0,0.4-0.2,0.9-0.5,1.2C444.5,118.2,444.1,118.3,443.6,118.3z"/>
	<path class="st2" d="M470.8,126.4H362.3c-0.7,0-1.3-0.5-1.3-1.3v-13.5c0-2.5,2.1-4.6,4.6-4.6h101.8c2.5,0,4.6,2.1,4.6,4.6v13.5
		C472,125.8,471.5,126.4,470.8,126.4z M363.5,123.9h105.9v-12.3c0-1.2-1-2.1-2.1-2.1l0,0H365.6c-1.2,0-2.1,1-2.1,2.1L363.5,123.9z"
		/>
	<path class="st2" d="M467.4,209.5H365.6c-2.5,0-4.6-2.1-4.6-4.6v-79.7c0-0.7,0.6-1.3,1.2-1.3l0,0h108.5c0.7,0,1.2,0.6,1.2,1.3v79.6
		C472,207.4,469.9,209.5,467.4,209.5z M363.5,126.4v78.4c0,1.2,1,2.1,2.1,2.1h101.8c1.2,0,2.1-1,2.1-2.1v-78.4H363.5z"/>
	<path class="st2" d="M431.5,201h-30.1c-0.7,0-1.3-0.6-1.3-1.3v-3.1c0-4.1-1.5-7.9-4.4-10.8c-12-11.4-12.4-30.6-1-42.6
		c11.4-12,30.6-12.4,42.6-1c12,11.4,12.4,30.6,1,42.6c-0.2,0.2-0.4,0.6-0.8,0.8c-3,2.8-4.6,6.6-4.6,10.7v3.5
		C432.8,200.5,432.3,201,431.5,201L431.5,201z M402.7,198.5h27.6v-2.2c0-4.7,2-9.2,5.4-12.4c10.9-10.6,11.1-28.1,0.5-38.9
		c-5.6-5.7-13.3-8.7-21.3-8.2c-15.2,0.8-26.8,13.6-26.1,28.8c0.3,7,3.4,13.6,8.5,18.5c3.4,3.3,5.3,7.8,5.3,12.5L402.7,198.5z"/>
	<path class="st2" d="M425.8,209.5h-18.7c-2.5,0-4.6-2.1-4.6-4.6v-5.1c0-0.7,0.5-1.2,1.2-1.2l0,0h25.4c0.7,0,1.2,0.6,1.3,1.2l0,0
		v5.1C430.4,207.4,428.3,209.4,425.8,209.5z M405,201v3.8c0,1.2,0.9,2.1,2.1,2.1l0,0h18.7c1.2,0,2.1-1,2.1-2.1l0,0V201H405z"/>
	<path class="st2" d="M425.8,217.9h-18.7c-2.5,0-4.6-2.1-4.6-4.6v-1.6c0-2.5,2.1-4.6,4.6-4.6h18.7c2.5,0,4.6,2.1,4.6,4.6v1.6
		C430.4,215.9,428.3,217.9,425.8,217.9z M407.1,209.5c-1.2,0-2.1,1-2.1,2.1v1.7c0,1.2,1,2.1,2.1,2.1h18.7c1.2,0,2.1-1,2.1-2.1v-1.7
		c0-1.2-1-2.1-2.1-2.1H407.1z"/>
	<path class="st2" d="M413.4,183.2c-0.3,0-0.7-0.1-0.9-0.3l-15.2-15.2c-0.6-0.4-0.6-1.3,0-1.8l0,0l7.4-7.4c0.6-0.4,1.3-0.4,1.8,0
		l6.9,6.9l13.2-13.2c0.4-0.5,1.3-0.5,1.8,0l0,0l7.4,7.4c0.2,0.2,0.3,0.6,0.3,0.9s-0.1,0.7-0.3,0.9l-21.5,21.4
		C414,183,413.7,183.2,413.4,183.2z M400,166.7l13.4,13.4l19.7-19.7l-5.6-5.6L414.3,168c-0.6,0.6-1.3,0.6-1.8,0l-6.9-6.9L400,166.7z
		"/>
	<path class="st2" d="M392.7,136.6h-6.8c-0.7,0.1-1.3-0.4-1.4-1.1c-0.1-0.7,0.4-1.3,1.1-1.4c0.1,0,0.1,0,0.2,0h6.8
		c0.7-0.1,1.3,0.4,1.4,1.1c0.1,0.7-0.4,1.3-1.1,1.4C392.9,136.6,392.8,136.6,392.7,136.6z"/>
	<path class="st2" d="M389.4,140c-0.7,0-1.3-0.6-1.3-1.2l0,0v-6.8c-0.1-0.7,0.4-1.3,1.1-1.4s1.3,0.4,1.4,1.1c0,0.1,0,0.1,0,0.2v6.8
		C390.6,139.4,390.1,140,389.4,140z"/>
	<path class="st2" d="M377.5,153.5h-6.8c-0.7,0-1.3-0.5-1.3-1.3c0-0.8,0.5-1.3,1.3-1.3l0,0h6.8c0.7,0,1.3,0.6,1.3,1.3
		C378.8,152.9,378.2,153.5,377.5,153.5z"/>
	<path class="st2" d="M374.1,156.9c-0.7,0-1.3-0.5-1.3-1.2l0,0v-6.8c-0.1-0.7,0.4-1.3,1.1-1.4c0.7-0.1,1.3,0.4,1.4,1.1
		c0,0.1,0,0.1,0,0.2v6.8C375.4,156.4,374.8,156.9,374.1,156.9z"/>
	<path class="st2" d="M386,185.7h-6.8c-0.7,0.1-1.3-0.4-1.4-1.1c-0.1-0.7,0.4-1.3,1.1-1.4c0.1,0,0.1,0,0.2,0h6.8
		c0.7-0.1,1.3,0.4,1.4,1.1s-0.4,1.3-1.1,1.4C386.1,185.7,386.1,185.7,386,185.7z"/>
	<path class="st2" d="M382.6,189.1c-0.7,0-1.3-0.6-1.3-1.2v-6.8c0.1-0.7,0.7-1.2,1.4-1.1c0.7,0.1,1.1,0.6,1.1,1.1v6.7
		C383.9,188.5,383.3,189.1,382.6,189.1L382.6,189.1z"/>
	<path class="st2" d="M450.4,143.4h-6.8c-0.7-0.1-1.2-0.7-1.1-1.4c0.1-0.7,0.6-1.1,1.1-1.1h6.8c0.7,0.1,1.2,0.7,1.1,1.4
		C451.5,142.8,451.1,143.3,450.4,143.4z"/>
	<path class="st2" d="M447,146.7c-0.7,0-1.3-0.6-1.3-1.3v-6.8c-0.1-0.7,0.4-1.3,1.1-1.4c0.7-0.1,1.3,0.4,1.4,1.1c0,0.1,0,0.1,0,0.2
		v6.8C448.2,146.1,447.7,146.7,447,146.7z"/>
	<path class="st2" d="M457.2,177.2h-6.7c-0.7,0.1-1.3-0.4-1.4-1.1c-0.1-0.7,0.4-1.3,1.1-1.4c0.1,0,0.1,0,0.2,0h6.8
		c0.7-0.1,1.3,0.4,1.4,1.1c0.1,0.7-0.4,1.3-1.1,1.4C457.4,177.2,457.3,177.2,457.2,177.2L457.2,177.2z"/>
	<path class="st2" d="M453.7,180.7c-0.7,0-1.3-0.6-1.3-1.3v-6.8c0-0.7,0.6-1.3,1.3-1.3c0.7,0,1.3,0.6,1.3,1.3v6.8
		C455.1,180.1,454.4,180.7,453.7,180.7L453.7,180.7z"/>
	<path class="st2" d="M380.4,217.9h-16.5c-0.7-0.1-1.2-0.7-1.1-1.4c0.1-0.7,0.6-1.1,1.1-1.1h16.5c0.7-0.1,1.3,0.4,1.4,1.1
		c0.1,0.7-0.4,1.3-1.1,1.4C380.5,217.9,380.5,217.9,380.4,217.9z"/>
	<path class="st2" d="M391,217.9h-3.9c-0.7,0.1-1.3-0.4-1.4-1.1c-0.1-0.7,0.4-1.3,1.1-1.4c0.1,0,0.1,0,0.2,0h3.8
		c0.7-0.1,1.3,0.4,1.4,1.1c0.1,0.7-0.4,1.3-1.1,1.4C391.2,217.9,391.2,217.9,391,217.9z"/>
	<path class="st2" d="M458.9,217.9h-13.5c-0.7,0.1-1.3-0.4-1.4-1.1c-0.1-0.7,0.4-1.3,1.1-1.4c0.1,0,0.1,0,0.2,0h13.5
		c0.7,0.1,1.2,0.7,1.1,1.4C460,217.4,459.5,217.8,458.9,217.9L458.9,217.9z"/>
</g>
<g id="_x30_1">
	<circle class="st4" cx="178.4" cy="488.2" r="30.8"/>
	<circle class="st4" cx="107.7" cy="570.8" r="26.4"/>
	<circle class="st4" cx="86" cy="469.6" r="44"/>
	<path class="st2" d="M191.6,581.3h-132c-3.3,0-6.1-2.8-6.1-6l0,0v-11c0-0.9,0.8-1.7,1.7-1.7H196c0.9,0,1.6,0.8,1.6,1.7v11
		C197.7,578.5,195,581.3,191.6,581.3L191.6,581.3z M56.9,565.9v9.4c0,1.5,1.2,2.8,2.8,2.8h132c1.5,0,2.8-1.2,2.8-2.8v-9.4H56.9z"/>
	<path class="st2" d="M196,565.9H55.2c-0.5,0-1.1-0.3-1.4-0.8c-0.3-0.4-0.3-1.1-0.1-1.5L66.9,535c0.2-0.5,0.9-1,1.5-1h114.4
		c0.7,0,1.2,0.3,1.5,1l13.2,28.6c0.3,0.9,0,1.9-0.9,2.2C196.5,565.9,196.2,565.9,196,565.9L196,565.9z M57.9,562.6h135.6l-11.7-25.3
		H69.5L57.9,562.6z"/>
	<path class="st2" d="M181.2,554.7c0-0.9,0.8-1.7,1.7-1.7l0,0l0,0c0.9,0,1.6,0.8,1.6,1.7l0,0c0,0.9-0.8,1.6-1.6,1.6l0,0
		C181.9,556.3,181.2,555.7,181.2,554.7z M172.4,554.7c0-0.9,0.8-1.7,1.7-1.7l0,0l0,0c0.9,0,1.6,0.8,1.6,1.7l0,0
		c0,0.9-0.8,1.6-1.6,1.6l0,0C173.1,556.3,172.4,555.7,172.4,554.7z M163.6,554.7c0-0.9,0.8-1.7,1.6-1.7l0,0l0,0
		c0.9,0,1.6,0.8,1.6,1.7l0,0c0,0.9-0.8,1.6-1.6,1.6l0,0C164.3,556.3,163.6,555.7,163.6,554.7z M154.8,554.7c0-0.9,0.8-1.7,1.6-1.7
		l0,0l0,0c0.9,0,1.7,0.8,1.7,1.7l0,0c0,0.9-0.8,1.6-1.7,1.6l0,0C155.5,556.3,154.8,555.7,154.8,554.7z M146,554.7
		c0-0.9,0.8-1.7,1.6-1.7l0,0l0,0c0.9,0,1.7,0.8,1.7,1.7l0,0c0,0.9-0.8,1.6-1.7,1.6l0,0C146.7,556.3,146,555.7,146,554.7L146,554.7z
		 M137.2,554.7c0-0.9,0.8-1.7,1.7-1.7l0,0l0,0c0.9,0,1.6,0.8,1.6,1.7l0,0c0,0.9-0.8,1.6-1.6,1.6l0,0
		C137.9,556.3,137.2,555.7,137.2,554.7L137.2,554.7z M128.4,554.7c0-0.9,0.8-1.7,1.7-1.7l0,0l0,0c0.9,0,1.6,0.8,1.6,1.7l0,0
		c0,0.9-0.8,1.6-1.6,1.6l0,0C129.1,556.3,128.4,555.7,128.4,554.7L128.4,554.7z M119.6,554.7c0-0.9,0.8-1.7,1.7-1.7l0,0l0,0
		c0.9,0,1.7,0.8,1.7,1.7l0,0c0,0.9-0.8,1.6-1.7,1.6l0,0C120.3,556.3,119.6,555.7,119.6,554.7L119.6,554.7z M110.8,554.7
		c0-0.9,0.7-1.7,1.6-1.7l0,0l0,0c0.9,0,1.7,0.8,1.7,1.7l0,0c0,0.9-0.8,1.6-1.7,1.6l0,0C111.5,556.3,110.8,555.7,110.8,554.7
		L110.8,554.7z M102,554.7c0-0.9,0.8-1.7,1.7-1.7l0,0l0,0c0.9,0,1.7,0.8,1.7,1.7l0,0c0,0.9-0.8,1.6-1.7,1.6l0,0
		C102.7,556.3,102,555.7,102,554.7L102,554.7z M93.2,554.7c0-0.9,0.8-1.7,1.7-1.7l0,0l0,0c0.9,0,1.7,0.8,1.7,1.7l0,0
		c0,0.9-0.8,1.6-1.7,1.6l0,0C93.9,556.3,93.2,555.7,93.2,554.7L93.2,554.7z M84.4,554.7c0-0.9,0.8-1.7,1.7-1.7l0,0l0,0
		c0.9,0,1.6,0.8,1.6,1.7l0,0c0,0.9-0.8,1.6-1.6,1.6l0,0C85.1,556.3,84.4,555.7,84.4,554.7L84.4,554.7z M75.6,554.7
		c0-0.9,0.8-1.7,1.7-1.7l0,0l0,0c0.9,0,1.7,0.8,1.7,1.7l0,0c0,0.9-0.8,1.6-1.7,1.6l0,0C76.3,556.3,75.6,555.7,75.6,554.7L75.6,554.7
		z M66.8,554.7c0-0.9,0.8-1.7,1.6-1.7l0,0l0,0c0.9,0,1.7,0.8,1.7,1.7l0,0c0,0.9-0.8,1.6-1.7,1.6l0,0
		C67.5,556.3,66.9,555.7,66.8,554.7L66.8,554.7z M58,554.7c0-0.9,0.8-1.7,1.7-1.7l0,0l0,0c0.9,0,1.6,0.8,1.6,1.7l0,0
		c0,0.9-0.8,1.6-1.6,1.6l0,0C58.7,556.3,58.1,555.7,58,554.7L58,554.7z"/>
	<path class="st2" d="M176.8,545.2c0-0.9,0.8-1.6,1.6-1.6l0,0c0.9,0,1.7,0.8,1.7,1.6l0,0c0,0.9-0.8,1.7-1.7,1.7l0,0
		C177.5,546.9,176.8,546.1,176.8,545.2L176.8,545.2z M168,545.2c0-0.9,0.8-1.6,1.6-1.6l0,0c0.9,0,1.7,0.8,1.7,1.6l0,0
		c0,0.9-0.8,1.7-1.7,1.7l0,0C168.7,546.9,168,546.1,168,545.2L168,545.2z M159.2,545.2c0-0.9,0.8-1.6,1.7-1.6l0,0
		c0.9,0,1.6,0.8,1.6,1.6l0,0c0,0.9-0.8,1.7-1.6,1.7l0,0C159.9,546.9,159.2,546.1,159.2,545.2L159.2,545.2z M150.4,545.2
		c0-0.9,0.8-1.6,1.7-1.6l0,0l0,0c0.9,0,1.6,0.8,1.6,1.6l0,0c0,0.9-0.8,1.7-1.6,1.7l0,0C151.1,546.9,150.4,546.1,150.4,545.2
		L150.4,545.2L150.4,545.2z M141.6,545.2c0-0.9,0.8-1.6,1.6-1.6l0,0c0.9,0,1.6,0.8,1.6,1.6l0,0c0,0.9-0.8,1.7-1.6,1.7l0,0
		C142.3,546.9,141.6,546.1,141.6,545.2L141.6,545.2L141.6,545.2z M132.8,545.2c0-0.9,0.8-1.6,1.6-1.6l0,0c0.9,0,1.7,0.8,1.7,1.6l0,0
		c0,0.9-0.8,1.7-1.7,1.7l0,0C133.5,546.9,132.8,546.1,132.8,545.2L132.8,545.2L132.8,545.2z M124,545.2c0-0.9,0.8-1.6,1.7-1.6l0,0
		c0.9,0,1.7,0.8,1.7,1.6l0,0c0,0.9-0.8,1.7-1.7,1.7l0,0C124.7,546.9,124,546.1,124,545.2L124,545.2L124,545.2z M115.2,545.2
		c0-0.9,0.8-1.6,1.7-1.6l0,0c0.9,0,1.7,0.8,1.7,1.6l0,0c0,0.9-0.8,1.7-1.7,1.7l0,0C115.9,546.9,115.2,546.1,115.2,545.2L115.2,545.2
		L115.2,545.2z M106.4,545.2c0-0.9,0.8-1.6,1.7-1.6l0,0c0.9,0,1.6,0.8,1.6,1.6l0,0c0,0.9-0.8,1.7-1.6,1.7l0,0
		C107.1,546.9,106.4,546.1,106.4,545.2L106.4,545.2L106.4,545.2z M97.6,545.2c0-0.9,0.8-1.6,1.7-1.6l0,0c0.9,0,1.7,0.8,1.7,1.6l0,0
		c0,0.9-0.8,1.7-1.7,1.7l0,0C98.3,546.9,97.6,546.1,97.6,545.2L97.6,545.2L97.6,545.2z M88.8,545.2c0-0.9,0.8-1.6,1.6-1.6l0,0
		c0.9,0,1.7,0.8,1.7,1.6l0,0c0,0.9-0.8,1.7-1.7,1.7l0,0C89.5,546.9,88.8,546.1,88.8,545.2L88.8,545.2L88.8,545.2z M80,545.2
		c0-0.9,0.8-1.6,1.7-1.6l0,0c0.9,0,1.7,0.8,1.7,1.6l0,0c0,0.9-0.8,1.7-1.7,1.7l0,0C80.7,546.9,80,546.1,80,545.2L80,545.2L80,545.2z
		 M71.2,545.2c0-0.9,0.8-1.6,1.7-1.6l0,0c0.9,0,1.7,0.8,1.7,1.6l0,0c0,0.9-0.8,1.7-1.7,1.7l0,0C71.9,546.9,71.2,546.1,71.2,545.2
		L71.2,545.2L71.2,545.2z M62.4,545.2c0-0.9,0.8-1.6,1.7-1.6l0,0c0.9,0,1.6,0.8,1.6,1.6l0,0c0,0.9-0.8,1.7-1.6,1.7l0,0
		C63.1,546.9,62.5,546.1,62.4,545.2L62.4,545.2z"/>
	<path class="st2" d="M134.4,573.6h-17.6c-0.9,0-1.7-0.8-1.7-1.7c0-0.9,0.8-1.6,1.7-1.6h17.6c0.9,0,1.7,0.8,1.7,1.6
		C136.1,572.8,135.4,573.6,134.4,573.6z"/>
	<path class="st2" d="M182.8,537.3H68.4c-0.9,0-1.6-0.8-1.6-1.7v-66c0-3.3,2.8-6,6-6h105.6c3.3,0,6.1,2.8,6.1,6l0,0v66
		C184.5,536.5,183.7,537.3,182.8,537.3z M70.1,534h111.1v-64.4c0-1.5-1.2-2.8-2.8-2.8H72.8c-1.5,0-2.8,1.2-2.8,2.8V534z"/>
	<path class="st2" d="M138.8,449.3c-0.9,0-1.7-0.8-1.7-1.7c0-0.9,0.7-1.6,1.7-1.6c0.4,0,0.9,0.2,1.2,0.6c0.3,0.3,0.4,0.8,0.4,1.2
		c0,0.4-0.2,0.9-0.4,1.2C139.7,449.2,139.3,449.3,138.8,449.3z"/>
	<path class="st2" d="M148.2,447.6c0-0.9,0.8-1.6,1.7-1.6l0,0c0.9,0,1.6,0.8,1.6,1.6l0,0c0,0.9-0.8,1.7-1.6,1.7l0,0
		C148.9,449.3,148.2,448.6,148.2,447.6L148.2,447.6z"/>
	<path class="st2" d="M160.8,449.3c-0.9,0-1.7-0.8-1.7-1.7c0-0.9,0.8-1.6,1.7-1.6c0.4,0,0.9,0.2,1.2,0.4c0.7,0.7,0.7,1.6,0,2.3
		C161.7,449.2,161.3,449.3,160.8,449.3z"/>
	<path class="st2" d="M171.8,458.1H79.4c-0.9,0-1.6-0.8-1.6-1.6l0,0v-13.2c0-3.3,2.8-6,6-6l0,0h83.6c3.3,0,6.1,2.8,6.1,6l0,0v13.2
		C173.5,457.4,172.8,458.1,171.8,458.1L171.8,458.1z M81.1,454.8h89.1v-11.6c0-1.5-1.2-2.8-2.8-2.8H83.8c-1.5,0-2.8,1.2-2.8,2.8
		V454.8z"/>
	<path class="st2" d="M167.4,526.3H83.8c-3.3,0-6-2.8-6-6v-63.8c0-0.9,0.8-1.6,1.6-1.6l0,0h92.4c0.9,0,1.6,0.8,1.6,1.6v63.8
		C173.5,523.6,170.8,526.3,167.4,526.3z M81.1,458.1v62.2c0,1.5,1.2,2.8,2.8,2.8h83.6c1.5,0,2.8-1.2,2.8-2.8v-62.2H81.1z"/>
	<path class="st2" d="M140.8,517.5c-0.3,0-0.7-0.1-1-0.3l-11.7-8.5h-38c-0.9,0-1.7-0.8-1.7-1.6v-22c0-0.9,0.8-1.7,1.7-1.7h50.6
		c0.9,0,1.6,0.8,1.6,1.7v30.8c0,0.7-0.3,1.2-0.9,1.4C141.3,517.5,141.1,517.5,140.8,517.5z M92,505.4h36.9c0.3,0,0.7,0.1,1,0.3
		l9.5,6.9v-25.9H92V505.4z"/>
	<path class="st2" d="M167.4,526.3H83.8c-3.3,0-6-2.8-6-6v-63.8c0-0.9,0.8-1.6,1.6-1.6l0,0h92.4c0.9,0,1.6,0.8,1.6,1.6v63.8
		C173.5,523.6,170.8,526.3,167.4,526.3z M81.1,458.1v62.2c0,1.5,1.2,2.8,2.8,2.8h83.6c1.5,0,2.8-1.2,2.8-2.8v-62.2H81.1z"/>
	<path class="st2" d="M110.1,499.9c-0.2,0-0.5-0.1-0.8-0.2c-0.6-0.3-0.9-0.9-0.9-1.4v-30.8c0-0.9,0.8-1.6,1.7-1.6h50.6
		c0.9,0,1.7,0.8,1.7,1.6v22c0,0.9-0.8,1.6-1.7,1.6h-38.1l-11.7,8.5C110.8,499.8,110.4,499.9,110.1,499.9z M111.8,469.1v25.9l9.5-6.9
		c0.3-0.2,0.7-0.3,1-0.3h36.7V469L111.8,469.1z"/>
	<path class="st2" d="M196,453.7h-8.8c-0.9,0-1.6-0.8-1.6-1.6c0-0.9,0.8-1.7,1.6-1.7h8.8c0.9,0,1.6,0.8,1.6,1.7
		C197.7,452.9,196.9,453.7,196,453.7z"/>
	<path class="st2" d="M191.6,458.1c-0.9,0-1.6-0.8-1.6-1.6l0,0v-8.8c0-0.9,0.8-1.6,1.6-1.6c0.9,0,1.7,0.8,1.7,1.6v8.8
		C193.3,457.4,192.5,458.1,191.6,458.1L191.6,458.1z"/>
	<circle class="st2" cx="191.6" cy="465.2" r="1.6"/>
	<circle class="st2" cx="191.6" cy="471.8" r="1.6"/>
	<circle class="st2" cx="191.6" cy="480.6" r="1.6"/>
	<circle class="st2" cx="191.6" cy="493.8" r="1.6"/>
	<path class="st2" d="M64.1,514.7h-8.8c-0.9,0-1.7-0.8-1.7-1.7s0.8-1.6,1.7-1.6h8.8c0.9,0,1.7,0.8,1.7,1.6S65,514.7,64.1,514.7z"/>
	<path class="st2" d="M59.7,519.1c-0.9,0-1.6-0.8-1.6-1.6v-8.8c0-0.9,0.8-1.6,1.6-1.6c0.9,0,1.7,0.8,1.7,1.6v8.8
		C61.3,518.4,60.6,519.1,59.7,519.1z"/>
	<circle class="st2" cx="59.7" cy="499.9" r="1.6"/>
	<circle class="st2" cx="59.7" cy="493.3" r="1.6"/>
	<circle class="st2" cx="59.7" cy="484.5" r="1.6"/>
	<circle class="st2" cx="59.7" cy="471.3" r="1.6"/>
	<path class="st2" d="M163,502.1h-8.8c-0.9,0-1.6-0.8-1.6-1.6s0.8-1.6,1.6-1.6h8.8c0.9,0,1.6,0.8,1.6,1.6S164,502.1,163,502.1z"/>
	<path class="st2" d="M158.6,506.5c-0.9,0-1.6-0.8-1.6-1.6V496c0-0.9,0.8-1.7,1.6-1.7c0.9,0,1.7,0.8,1.7,1.7l0,0v8.8
		C160.3,505.7,159.6,506.5,158.6,506.5z"/>
	<path class="st2" d="M70.7,451.5h-8.8c-0.9,0-1.6-0.8-1.6-1.6c0-0.9,0.8-1.6,1.6-1.6h8.8c0.9,0,1.7,0.8,1.7,1.6
		C72.4,450.7,71.6,451.5,70.7,451.5z"/>
	<path class="st2" d="M66.3,455.9c-0.9,0-1.6-0.8-1.6-1.6v-8.8c0-0.9,0.8-1.6,1.6-1.6c0.9,0,1.7,0.8,1.7,1.6l0,0v8.8
		C67.9,455.2,67.2,455.9,66.3,455.9z"/>
</g>
<g id="_x31_0">
	<circle class="st4" cx="1289.3" cy="332.4" r="28.3"/>
	<circle class="st4" cx="1202.7" cy="322.3" r="21.7"/>
	<circle class="st4" cx="1249.4" cy="265.8" r="35"/>
	<path class="st2" d="M1218.9,335.8c-0.3,0-0.7-0.1-0.9-0.3c-0.3-0.3-0.4-0.8-0.3-1.2l12.8-47.2c0.1-0.4,0.4-0.8,0.8-0.9
		c0.2,0,17.6-6.2,32-18.7c0.4-0.4,1.2-0.4,1.8,0l20.9,20.9c0.4,0.4,0.4,1.2,0,1.6c-8,9.6-14.3,20.4-18.7,32
		c-0.1,0.4-0.4,0.7-0.9,0.8l-47.1,12.8C1219.1,335.8,1219,335.8,1218.9,335.8z M1232.8,288.4l-12,44.4l44.4-12
		c4.4-11.3,10.4-22,18.2-31.3l-19.2-19.2C1254.7,277.9,1244.1,284.1,1232.8,288.4z"/>
	<path class="st2" d="M1246.4,315.1c-4.4,0-8-3.6-8-8c0-4.4,3.6-8,8-8c4.4,0,8,3.6,8,8c0,2.1-0.9,4.2-2.3,5.6l0,0
		C1250.6,314.2,1248.5,315.1,1246.4,315.1z M1246.4,301.5c-3.1,0-5.5,2.4-5.5,5.5s2.4,5.5,5.5,5.5c3.1,0,5.5-2.4,5.5-5.5
		c0-1.4-0.6-2.9-1.7-3.8C1249.3,302.1,1247.8,301.5,1246.4,301.5z M1251.1,311.8L1251.1,311.8z"/>
	<path class="st2" d="M1218.9,335.8c-0.3,0-0.7-0.1-0.9-0.3c-0.4-0.4-0.4-1.2,0-1.8l0,0l22.8-22.8c0.4-0.4,1.2-0.4,1.8,0l0,0
		c0.4,0.4,0.4,1.3,0,1.8l0,0l-22.8,22.8C1219.6,335.6,1219.2,335.8,1218.9,335.8z"/>
	<path class="st2" d="M1251,356.9c-30.1,0-54.6-24.4-54.6-54.5s24.4-54.6,54.4-54.6c7,0,14.1,1.3,20.6,4.1c0.3,0.1,0.6,0.3,0.7,0.7
		c0.1,0.3,0.1,0.7,0,1l-6.6,14.6l19.6,19.6l14.6-6.6c0.3-0.1,0.7-0.1,1,0c0.3,0.1,0.6,0.3,0.7,0.7c11.3,27.9-2.1,59.7-29.9,71.1
		C1265.1,355.6,1258.2,357,1251,356.9L1251,356.9z M1251,250.4c-28.7,0-51.9,23.3-51.9,52s23.3,51.9,52,51.9
		c28.7,0,51.9-23.3,51.9-52c0-6.3-1.1-12.4-3.3-18.4l-14.2,6.5c-0.4,0.2-1,0.1-1.4-0.2l-20.9-20.8c-0.3-0.3-0.4-0.9-0.2-1.4
		l6.4-14.2C1263.6,251.5,1257.3,250.4,1251,250.4z"/>
	<path class="st2" d="M1213.7,350.1c-1.2,0-2.4-0.4-3.2-1.3l-5.7-5.7c-1.8-1.8-1.8-4.7,0-6.5l5.7-5.7c1.8-1.8,4.6-1.8,6.5,0l5.7,5.7
		c1.8,1.8,1.8,4.7,0,6.5l-5.7,5.7C1216,349.6,1214.9,350.1,1213.7,350.1z M1213.7,331.9c-0.5,0-1.1,0.2-1.4,0.7l-5.7,5.7
		c-0.8,0.8-0.8,2.1,0,3l5.7,5.7c0.8,0.8,2.1,0.8,3,0l5.7-5.7c0.8-0.8,0.8-2.1,0-3l0,0l-5.7-5.7
		C1214.8,332.1,1214.3,331.9,1213.7,331.9L1213.7,331.9z"/>
	<path class="st2" d="M1235.3,262.6h-6.6c-0.7,0.1-1.3-0.4-1.3-1.1c-0.1-0.7,0.4-1.3,1.1-1.3c0.1,0,0.1,0,0.2,0h6.6
		c0.7,0.1,1.2,0.7,1.1,1.3C1236.4,262.1,1235.8,262.5,1235.3,262.6z"/>
	<path class="st2" d="M1231.9,265.9c-0.7,0-1.2-0.5-1.2-1.2l0,0V258c0.1-0.7,0.7-1.2,1.3-1.1c0.6,0.1,1.1,0.6,1.1,1.1v6.6
		C1233.2,265.4,1232.7,265.9,1231.9,265.9C1232,265.9,1232,265.9,1231.9,265.9z"/>
	<path class="st2" d="M1285,314.8h-6.6c-0.7-0.1-1.2-0.7-1.1-1.3c0.1-0.6,0.6-1.1,1.1-1.1h6.6c0.7-0.1,1.3,0.4,1.3,1.1
		c0.1,0.7-0.4,1.3-1.1,1.3C1285.1,314.8,1285.1,314.8,1285,314.8z"/>
	<path class="st2" d="M1281.7,318c-0.7,0-1.2-0.5-1.2-1.2l0,0v-6.6c-0.1-0.7,0.4-1.3,1.1-1.3c0.7-0.1,1.3,0.4,1.3,1.1
		c0,0.1,0,0.1,0,0.2v6.6C1282.9,317.5,1282.4,318,1281.7,318z"/>
	<path class="st2" d="M1212.3,314.9h-6.7c-0.7-0.1-1.2-0.7-1.1-1.3c0.1-0.6,0.6-1.1,1.1-1.1h6.7c0.7,0.1,1.2,0.7,1.1,1.3
		C1213.4,314.3,1213,314.8,1212.3,314.9z"/>
	<path class="st2" d="M1209,318.2c-0.7,0-1.2-0.5-1.2-1.2l0,0v-6.6c-0.1-0.7,0.4-1.3,1.1-1.3c0.7-0.1,1.3,0.4,1.3,1.1
		c0,0.1,0,0.1,0,0.2v6.6C1210.2,317.6,1209.7,318.2,1209,318.2L1209,318.2z"/>
	<circle class="st2" cx="1209" cy="303.5" r="1.2"/>
	<circle class="st2" cx="1209" cy="298.6" r="1.2"/>
	<circle class="st2" cx="1209" cy="290.2" r="1.2"/>
	<path class="st2" d="M1288.8,350.4c-1.2,0-2.4-0.4-3.2-1.3l-5.7-5.7c-1.8-1.8-1.8-4.7,0-6.5l5.7-5.7c1.8-1.8,4.6-1.8,6.5,0l5.7,5.7
		c1.8,1.8,1.8,4.7,0,6.5l0,0l-5.7,5.7C1291.1,349.8,1290,350.4,1288.8,350.4z M1288.8,332.2c-0.6,0-1.1,0.2-1.4,0.6l-5.7,5.7
		c-0.8,0.8-0.8,2.1,0,3l5.7,5.7l0,0c0.8,0.8,2.1,0.8,3,0l5.7-5.7c0.4-0.4,0.7-0.9,0.7-1.4c0-0.6-0.2-1.1-0.7-1.4l-5.7-5.7
		C1289.9,332.5,1289.3,332.2,1288.8,332.2z"/>
	<path class="st2" d="M1213.4,275c-1.2,0-2.4-0.4-3.2-1.3l-5.7-5.7c-1.8-1.8-1.8-4.7,0-6.5l0,0l5.7-5.7c1.8-1.8,4.7-1.8,6.5,0
		l5.7,5.7c1.8,1.8,1.8,4.7,0,6.5l-5.7,5.7C1215.8,274.6,1214.6,275,1213.4,275z M1213.4,256.9c-0.6,0-1.1,0.2-1.4,0.7l-5.7,5.7
		c-0.8,0.8-0.8,2.1,0,3l5.7,5.7c0.8,0.8,2.1,0.8,3,0l0,0l5.7-5.7c0.8-0.8,0.8-2.1,0-3l0,0l-5.7-5.7
		C1214.5,257.1,1214,256.9,1213.4,256.9z"/>
	<path class="st2" d="M1295,304c-2.5,0-4.6-2.1-4.6-4.6c0-2.5,2.1-4.6,4.6-4.6c2.5,0,4.6,2.1,4.6,4.6S1297.6,304,1295,304L1295,304z
		 M1295,297.4c-1.1,0-2.1,0.9-2.1,2.1c0,1.2,0.9,2.1,2.1,2.1s2.1-0.9,2.1-2.1C1297.1,298.2,1296.2,297.4,1295,297.4
		C1295,297.3,1295,297.3,1295,297.4L1295,297.4z"/>
	<path class="st2" d="M1261.7,345.5c-2.5,0-4.6-2.1-4.6-4.6c0-2.5,2.1-4.6,4.6-4.6s4.6,2.1,4.6,4.6
		C1266.3,343.6,1264.2,345.5,1261.7,345.5z M1261.7,339c-1.1,0-2.1,0.9-2.1,2.1c0,1.2,0.9,2.1,2.1,2.1c1.2,0,2.1-0.9,2.1-2.1
		S1262.9,339,1261.7,339L1261.7,339L1261.7,339z"/>
</g>
<g id="_x30_7">
	<circle class="st4" cx="998.4" cy="96.6" r="22.9"/>
	<circle class="st4" cx="918.3" cy="93.4" r="16.4"/>
	<circle class="st4" cx="923.1" cy="173.5" r="24.5"/>
	<path class="st2" d="M988.6,189.5h-62.1c-0.7,0-1.2-0.6-1.2-1.2V83.6c0-0.7,0.6-1.2,1.2-1.2h62.1c2.5,0,4.5,2,4.5,4.5v98.1
		C993.1,187.4,991,189.5,988.6,189.5z M927.6,186.9h60.9c1.1,0,2.1-0.9,2.1-2.1V86.7c0-1.1-0.9-2.1-2.1-2.1h-60.9V186.9z"/>
	<path class="st2" d="M926.4,189.5h-9.8c-2.5,0-4.5-2-4.5-4.5V86.8c0-2.5,2-4.5,4.5-4.5h9.8c0.7,0,1.2,0.5,1.2,1.2v104.6
		C927.6,188.9,927.1,189.5,926.4,189.5z M916.6,84.9c-1.1,0-2.1,0.9-2.1,2.1v98.1c0,1.1,0.9,2.1,2.1,2.1h8.6V85L916.6,84.9z"/>
	<path class="st2" d="M916.6,182.9h-6.5c-0.7,0.1-1.3-0.4-1.3-1.1c-0.1-0.7,0.4-1.3,1.1-1.3c0.1,0,0.1,0,0.2,0h6.5
		c0.7,0.1,1.2,0.7,1.1,1.3C917.6,182.4,917.2,182.9,916.6,182.9z"/>
	<path class="st2" d="M916.6,171.4h-6.5c-0.7,0.1-1.3-0.4-1.3-1.1c-0.1-0.7,0.4-1.3,1.1-1.3c0.1,0,0.1,0,0.2,0h6.5
		c0.7,0.1,1.2,0.7,1.1,1.3C917.6,171,917.2,171.4,916.6,171.4z"/>
	<path class="st2" d="M916.6,160h-6.5c-0.7,0.1-1.3-0.4-1.3-1.1c-0.1-0.7,0.4-1.3,1.1-1.3c0.1,0,0.1,0,0.2,0h6.5
		c0.7,0.1,1.2,0.7,1.1,1.3C917.6,159.5,917.2,160,916.6,160z"/>
	<path class="st2" d="M916.6,148.5h-6.5c-0.7,0.1-1.3-0.4-1.3-1.1c-0.1-0.7,0.4-1.3,1.1-1.3c0.1,0,0.1,0,0.2,0h6.5
		c0.7,0.1,1.2,0.7,1.1,1.3C917.6,148,917.2,148.5,916.6,148.5z"/>
	<path class="st2" d="M916.6,137.1h-6.5c-0.7,0.1-1.3-0.4-1.3-1.1c-0.1-0.7,0.4-1.3,1.1-1.3c0.1,0,0.1,0,0.2,0h6.5
		c0.7,0.1,1.2,0.7,1.1,1.3C917.6,136.6,917.2,137.1,916.6,137.1z"/>
	<path class="st2" d="M916.6,125.7h-6.5c-0.7,0.1-1.3-0.4-1.3-1.1c-0.1-0.7,0.4-1.3,1.1-1.3c0.1,0,0.1,0,0.2,0h6.5
		c0.7,0.1,1.2,0.7,1.1,1.3C917.6,125.1,917.2,125.7,916.6,125.7z"/>
	<path class="st2" d="M916.6,114.2h-6.5c-0.7,0.1-1.3-0.4-1.3-1.1c-0.1-0.7,0.4-1.3,1.1-1.3c0.1,0,0.1,0,0.2,0h6.5
		c0.7,0.1,1.2,0.7,1.1,1.3C917.6,113.7,917.2,114.2,916.6,114.2z"/>
	<path class="st2" d="M916.6,102.8h-6.5c-0.7,0.1-1.3-0.4-1.3-1.1c-0.1-0.7,0.4-1.3,1.1-1.3c0.1,0,0.1,0,0.2,0h6.5
		c0.7,0.1,1.2,0.7,1.1,1.3C917.6,102.2,917.2,102.7,916.6,102.8z"/>
	<path class="st2" d="M916.6,91.3h-6.5c-0.7,0.1-1.3-0.4-1.3-1.1c0-0.7,0.4-1.3,1.1-1.3c0.1,0,0.1,0,0.2,0h6.5
		c0.7,0.1,1.2,0.7,1.1,1.3C917.6,90.8,917.2,91.2,916.6,91.3z"/>
	<path class="st2" d="M1006.5,169.8H977c-1.5,0-2.9-1.3-2.9-2.9v-6.6c0-1.5,1.3-2.9,2.9-2.9h29.5c1.5,0,2.9,1.3,2.9,2.9v6.6
		C1009.4,168.6,1008.1,169.8,1006.5,169.8z M977.1,160c-0.2,0-0.4,0.2-0.4,0.4v6.6c0,0.2,0.2,0.4,0.4,0.4h29.5
		c0.2,0,0.4-0.2,0.4-0.4v-6.6c0-0.2-0.2-0.4-0.4-0.4H977.1z"/>
	<path class="st2" d="M1011.4,176.4h-65.3c-2.5,0-4.5-2-4.5-4.5v-29.5c0-2.5,2-4.5,4.5-4.5h65.3c2.5,0,4.5,2,4.5,4.5v29.5
		C1016,174.4,1014,176.4,1011.4,176.4z M946.1,140.4c-1.1,0-2.1,0.9-2.1,2l0,0v29.5c0,1.1,0.9,2.1,2,2.1l0,0h65.3
		c1.1,0,2.1-0.9,2.1-2l0,0v-29.5c0-1.1-0.9-2.1-2-2.1l0,0H946.1z"/>
	<path class="st2" d="M1011.4,127.3H969c-2.5,0-4.5-2-4.5-4.5V99.9c0-2.5,2-4.5,4.5-4.5h42.5c2.5,0,4.5,2,4.5,4.5v22.9
		C1016,125.3,1014,127.3,1011.4,127.3z M969,97.8c-1.1,0-2.1,0.9-2.1,2.1v22.9c0,1.1,0.9,2.1,2,2.1l0,0h42.5c1.1,0,2.1-0.9,2.1-2
		l0,0V100c0-1.1-0.9-2.1-2.1-2.1L969,97.8L969,97.8z"/>
	<path class="st2" d="M1000,153.5h-10.6c-0.7-0.1-1.2-0.7-1.1-1.3c0.1-0.6,0.5-1.1,1.1-1.1h10.6c0.7,0.1,1.2,0.7,1.1,1.3
		C1001,152.9,1000.6,153.4,1000,153.5L1000,153.5z"/>
	<path class="st2" d="M982.8,153.5h-7.5c-0.7-0.1-1.2-0.7-1.1-1.3c0.1-0.6,0.5-1.1,1.1-1.1h7.5c0.7-0.1,1.3,0.4,1.3,1.1
		c0.1,0.7-0.4,1.3-1.1,1.3C983,153.5,983,153.5,982.8,153.5z"/>
	<path class="st2" d="M1008.1,146.9h-9.9c-0.7,0.1-1.3-0.4-1.3-1.1c-0.1-0.7,0.4-1.3,1.1-1.3c0.1,0,0.1,0,0.2,0h9.9
		c0.7,0.1,1.2,0.7,1.1,1.3C1009.2,146.4,1008.7,146.9,1008.1,146.9z"/>
	<path class="st2" d="M991.6,146.9h-16.3c-0.7-0.1-1.2-0.7-1.1-1.3c0.1-0.5,0.5-1.1,1.1-1.1h16.3c0.7-0.1,1.3,0.4,1.3,1.1
		c0.1,0.7-0.4,1.3-1.1,1.3C991.8,146.9,991.8,146.9,991.6,146.9z"/>
	<path class="st2" d="M1001.1,115.9h-7.6c-0.7-0.1-1.2-0.7-1.1-1.3c0.1-0.6,0.5-1.1,1.1-1.1h7.6c0.7,0.1,1.2,0.7,1.1,1.3
		C1002.1,115.3,1001.7,115.8,1001.1,115.9z"/>
	<path class="st2" d="M1006.5,109.3h-13.1c-0.7-0.1-1.2-0.7-1.1-1.3c0.1-0.6,0.5-1.1,1.1-1.1h13.1c0.7-0.1,1.3,0.4,1.3,1.1
		c0.1,0.7-0.4,1.3-1.1,1.3C1006.7,109.4,1006.6,109.4,1006.5,109.3z"/>
	<path class="st2" d="M945.4,117.5h-10.9c-0.7,0.1-1.3-0.4-1.3-1.1c-0.1-0.7,0.4-1.3,1.1-1.3c0.1,0,0.1,0,0.2,0h10.9
		c0.7-0.1,1.3,0.4,1.3,1.1c0.1,0.7-0.4,1.3-1.1,1.3C945.6,117.5,945.6,117.5,945.4,117.5z"/>
	<path class="st2" d="M952.6,110.9h-17.9c-0.7,0.1-1.3-0.4-1.3-1.1c-0.1-0.7,0.4-1.3,1.1-1.3c0.1,0,0.1,0,0.2,0h17.9
		c0.7-0.1,1.3,0.4,1.3,1.1c0.1,0.7-0.4,1.3-1.1,1.3C952.7,110.9,952.6,110.9,952.6,110.9z"/>
	<path class="st2" d="M958.2,164.9c-0.2,0-0.4-0.1-0.7-0.1l-5.7-3.3c-0.4-0.2-0.7-0.7-0.7-1.1v-6.5c0-0.4,0.2-0.9,0.7-1.1l5.7-3.3
		c0.3-0.2,0.9-0.2,1.2,0l5.7,3.3c0.4,0.2,0.7,0.7,0.7,1.1v6.5c0,0.4-0.2,0.9-0.7,1.1l-5.7,3.3C958.6,164.8,958.4,164.9,958.2,164.9z
		 M953.8,159.8l4.4,2.5l4.4-2.5v-5.2l-4.4-2.5l-4.4,2.5V159.8z"/>
	<path class="st2" d="M979.5,119.2c-0.2,0-0.4-0.1-0.7-0.1l-5.7-3.3c-0.4-0.2-0.7-0.7-0.7-1.1v-6.5c0-0.4,0.2-0.9,0.7-1.1l5.7-3.3
		c0.3-0.2,0.9-0.2,1.2,0l5.7,3.3c0.4,0.2,0.7,0.7,0.7,1.1v6.5c0,0.4-0.2,0.9-0.7,1.1l-5.7,3.3C980,119.1,979.8,119.2,979.5,119.2z
		 M975.1,113.9l4.4,2.5l4.4-2.5v-5.2l-4.4-2.5l-4.4,2.5V113.9z"/>
	<path class="st2" d="M940.3,104.4c-0.2,0-0.4,0-0.7-0.1l-5.7-3.3c-0.4-0.2-0.7-0.7-0.7-1.1v-6.6c0-0.4,0.2-0.9,0.7-1.1l5.7-3.3
		c0.3-0.2,0.9-0.2,1.2,0l5.7,3.3c0.4,0.2,0.7,0.7,0.7,1.1v6.6c0,0.4-0.2,0.9-0.7,1.1l-5.7,3.3C940.7,104.3,940.5,104.4,940.3,104.4z
		 M935.9,99.3l4.4,2.5l4.4-2.5v-5.1l-4.4-2.5l-4.4,2.5V99.3z"/>
	<path class="st2" d="M1004.8,186.2h-6.6c-0.7-0.1-1.2-0.7-1.1-1.3c0.1-0.6,0.5-1.1,1.1-1.1h6.6c0.7,0.1,1.2,0.7,1.1,1.3
		C1005.9,185.6,1005.4,186.2,1004.8,186.2z"/>
	<path class="st2" d="M1001.7,189.5c-0.7,0-1.2-0.6-1.2-1.2v-6.6c0.1-0.7,0.7-1.2,1.3-1.1c0.5,0.1,1.1,0.6,1.1,1.1v6.6
		C1002.9,188.9,1002.3,189.5,1001.7,189.5z"/>
	<path class="st2" d="M1009.8,88h-6.6c-0.7-0.1-1.2-0.7-1.1-1.3c0.1-0.6,0.5-1.1,1.1-1.1h6.6c0.7,0.1,1.2,0.7,1.1,1.3
		C1010.9,87.6,1010.3,88,1009.8,88z"/>
	<path class="st2" d="M1006.5,91.3c-0.7,0-1.2-0.6-1.2-1.2v-6.5c-0.1-0.7,0.4-1.3,1.1-1.3c0.7-0.1,1.3,0.4,1.3,1.1
		c0,0.1,0,0.1,0,0.2v6.5C1007.7,90.8,1007.2,91.3,1006.5,91.3z"/>
	<path class="st2" d="M967.8,133.8h-14.4c-0.7-0.1-1.2-0.7-1.1-1.3c0.1-0.6,0.5-1.1,1.1-1.1h14.4c0.7,0.1,1.2,0.7,1.1,1.3
		C968.8,133.4,968.3,133.8,967.8,133.8z"/>
	<path class="st2" d="M977.9,133.8h-3.6c-0.7-0.1-1.2-0.7-1.1-1.3c0.1-0.6,0.5-1.1,1.1-1.1h3.6c0.7-0.1,1.3,0.4,1.3,1.1
		c0.1,0.7-0.4,1.3-1.1,1.3C978.1,133.8,978,133.8,977.9,133.8z"/>
	<path class="st2" d="M905.2,142.1h-6.6c-0.7-0.1-1.2-0.7-1.1-1.3c0.1-0.6,0.5-1.1,1.1-1.1h6.6c0.7,0.1,1.2,0.7,1.1,1.3
		C906.2,141.5,905.7,141.9,905.2,142.1z"/>
	<path class="st2" d="M901.9,145.4c-0.7,0-1.2-0.6-1.2-1.2v-6.6c0.1-0.7,0.7-1.2,1.3-1.1c0.6,0.1,1.1,0.6,1.1,1.1v6.6
		C903.1,144.8,902.5,145.4,901.9,145.4L901.9,145.4z"/>
	<circle class="st2" cx="901.9" cy="131.1" r="1.2"/>
	<circle class="st2" cx="901.9" cy="126.1" r="1.2"/>
	<circle class="st2" cx="901.9" cy="119.5" r="1.2"/>
	<circle class="st2" cx="901.9" cy="109.7" r="1.2"/>
</g>
<g id="_x30_2">
	<circle class="st4" cx="165.7" cy="258.1" r="24"/>
	
		<ellipse transform="matrix(0.2898 -0.9571 0.9571 0.2898 -53.75 392.8109)" class="st4" cx="237.8" cy="232.6" rx="19.8" ry="19.8"/>
	<circle class="st4" cx="210.9" cy="303.3" r="22.5"/>
	<path class="st2" d="M233.5,314.2h-62.1c-8.4,0-15.2-6.8-15.2-15.2v-62.2c0-8.4,6.8-15.2,15.2-15.2h62.1c8.4,0,15.2,6.8,15.2,15.2
		V299C248.7,307.4,241.9,314.2,233.5,314.2z M171.4,223.8c-7.3,0-13.1,5.8-13.1,13.1V299c0,7.3,5.8,13.1,13.1,13.1h62.1
		c7.3,0,13.1-5.8,13.1-13.1v-62.2c0-7.3-5.8-13.1-13.1-13.1L171.4,223.8L171.4,223.8z"/>
	<path class="st2" d="M247.6,297.3h-90.4c-0.7,0-1.1-0.4-1.1-1.1v-48c0-0.7,0.4-1.1,1.1-1.1h90.4c0.7,0,1.1,0.4,1.1,1.1v48
		C248.7,296.8,248.2,297.3,247.6,297.3z M158.3,295.2h88.2v-45.9h-88.2L158.3,295.2z"/>
	<path class="st2" d="M237.7,242.1h-14.1c-2.1,0-3.9-1.8-3.9-3.8v-5.6c0-2.1,1.8-3.8,3.9-3.8l0,0h14.1c2.1,0,3.9,1.8,3.9,3.8v5.6
		C241.6,240.4,239.9,242.1,237.7,242.1z M223.6,230.9c-1,0-1.8,0.8-1.8,1.8l0,0v5.6c0,1,0.8,1.8,1.8,1.8h14.1c1,0,1.8-0.8,1.8-1.8
		v-5.6c0-1-0.8-1.8-1.8-1.8L223.6,230.9L223.6,230.9z"/>
	<path class="st2" d="M202.4,302.9c-16.9,0-30.7-13.8-30.7-30.7s13.8-30.7,30.7-30.7s30.7,13.8,30.7,30.7S219.3,302.9,202.4,302.9z
		 M202.4,243.6c-15.8,0-28.6,12.8-28.6,28.6s12.8,28.6,28.6,28.6S231,288,231,272.2S218.2,243.6,202.4,243.6L202.4,243.6
		L202.4,243.6z"/>
	<path class="st2" d="M202.4,294.4c-12.3,0-22.2-10-22.2-22.2c0-12.2,10-22.2,22.2-22.2s22.2,10,22.2,22.2
		C224.6,284.5,214.7,294.4,202.4,294.4z M202.4,252.1c-11.1,0-20.1,9-20.1,20.1c0,11.1,9,20.1,20.1,20.1c11.1,0,20.1-9,20.1-20.1
		l0,0C222.5,261.1,213.5,252.1,202.4,252.1z"/>
	<path class="st2" d="M169.9,240.7c-3,0-5.3-2.3-5.3-5.3c0-3,2.3-5.3,5.3-5.3c3,0,5.3,2.3,5.3,5.3l0,0
		C175.2,238.4,172.9,240.7,169.9,240.7z M169.9,232.2c-1.8,0-3.2,1.4-3.2,3.2c0,1.8,1.4,3.2,3.2,3.2c1.8,0,3.2-1.4,3.2-3.2
		C173.1,233.7,171.7,232.2,169.9,232.2L169.9,232.2L169.9,232.2z"/>
	<circle class="st2" cx="216.6" cy="229.8" r="1.1"/>
	<path class="st2" d="M208,285.9c-4.5,0-8.1-3.6-8.1-8.1s3.6-8.1,8.1-8.1s8.1,3.6,8.1,8.1l0,0C216.1,282.3,212.5,285.9,208,285.9z
		 M208,271.9c-3.3,0-6.1,2.6-6.1,6c0,3.3,2.6,6.1,6.1,6.1c3.3,0,6.1-2.6,6.1-6.1l0,0C214.1,274.5,211.4,271.9,208,271.9z"/>
	<path class="st2" d="M242,287.4h-5.6c-0.6-0.1-0.9-0.8-0.8-1.3c0.1-0.3,0.4-0.7,0.8-0.8h5.6c0.6-0.1,1.2,0.2,1.3,0.8
		c0.1,0.5-0.2,1.2-0.8,1.3C242.3,287.5,242.1,287.5,242,287.4z"/>
	<path class="st2" d="M239.1,290.2c-0.7,0-1.1-0.4-1.1-1.1v-5.6c0.1-0.5,0.8-0.9,1.3-0.8c0.3,0.1,0.7,0.4,0.8,0.8v5.6
		C240.1,289.7,239.7,290.1,239.1,290.2z"/>
	<circle class="st2" cx="239.1" cy="277.8" r="1.1"/>
	<circle class="st2" cx="239.1" cy="273.6" r="1.1"/>
	<circle class="st2" cx="239.1" cy="268" r="1.1"/>
	<circle class="st2" cx="239.1" cy="259.4" r="1.1"/>
	<path class="st2" d="M220.5,310h-12.3c-0.6-0.1-0.9-0.8-0.8-1.3c0.1-0.3,0.4-0.7,0.8-0.8h12.3c0.6,0.1,0.9,0.8,0.8,1.3
		C221.2,309.6,220.9,309.9,220.5,310z"/>
	<path class="st2" d="M229.3,310h-3.1c-0.6-0.1-0.9-0.8-0.8-1.3c0.1-0.3,0.4-0.7,0.8-0.8h3.1c0.6,0.1,0.9,0.8,0.8,1.3
		C230,309.6,229.7,309.9,229.3,310z"/>
	<path class="st2" d="M199.9,260.5h-5.7c-0.6-0.1-0.9-0.8-0.8-1.3c0.1-0.3,0.4-0.7,0.8-0.8h5.6c0.6,0.1,0.9,0.8,0.8,1.3
		C200.4,260.2,200.2,260.4,199.9,260.5L199.9,260.5z"/>
	<path class="st2" d="M197,263.4c-0.7,0-1.1-0.4-1.1-1.1v-5.6c-0.2-0.5,0.1-1.2,0.8-1.3c0.6-0.2,1.2,0.1,1.3,0.8
		c0.1,0.2,0.1,0.4,0,0.7v5.6C198,262.8,197.6,263.3,197,263.4z"/>
</g>
</svg>
