<?xml version="1.0" encoding="utf-8"?>
<!-- Generator: Adobe Illustrator 26.0.3, SVG Export Plug-In . SVG Version: 6.00 Build 0)  -->
<svg version="1.1" id="relaible" xmlns="http://www.w3.org/2000/svg" xmlns:xlink="http://www.w3.org/1999/xlink" x="0px" y="0px"
	 viewBox="0 0 1352 800" style="enable-background:new 0 0 1352 800;" xml:space="preserve">
<style type="text/css">
	.st0{fill:none;stroke:#00CC61;stroke-width:7;stroke-miterlimit:10;}
	.st1{fill:#00CC61;}
	.st2{fill:#FFFFFF;}
	.st3{fill:none;stroke:#FFFFFF;stroke-width:3;stroke-miterlimit:10;}
	.st4{opacity:0.2;fill:#FFFFFF;enable-background:new    ;}
</style>
<rect x="315.7" y="55.3" class="st0" width="196.8" height="196.8"/>
<rect x="856" y="33.3" class="st0" width="196.8" height="196.8"/>
<rect x="1151.4" y="198.9" class="st0" width="196.8" height="196.8"/>
<rect x="595.9" y="465.1" class="st0" width="196.8" height="196.8"/>
<rect x="3.8" y="390.9" class="st0" width="238" height="238"/>
<rect x="122.6" y="193" class="st0" width="153" height="153"/>
<rect x="838.5" y="601.5" class="st0" width="153" height="153"/>
<rect x="647.5" y="4.7" class="st1" width="84.4" height="84.4"/>
<rect x="401.6" y="288.9" class="st1" width="84.4" height="84.4"/>
<rect x="1127.5" y="424.2" class="st1" width="84.4" height="84.4"/>
<rect x="713.2" y="719.8" class="st1" width="84.4" height="84.4"/>
<rect x="1236.3" y="483.9" class="st2" width="56.2" height="56.2"/>
<rect x="1183.8" y="111.4" class="st3" width="56.2" height="56.2"/>
<rect x="626.3" y="698.4" class="st2" width="56.2" height="56.2"/>
<rect x="186.3" y="696.8" class="st3" width="56.2" height="56.2"/>
<rect x="332.1" y="347" class="st2" width="56.2" height="56.2"/>
<rect x="749.6" y="62.5" class="st2" width="56.2" height="56.2"/>
<rect x="543.3" y="161.6" class="st0" width="238" height="238"/>
<rect x="287.8" y="434.2" class="st0" width="275.7" height="275.7"/>
<rect x="821.5" y="289.4" class="st0" width="275.7" height="275.7"/>
<g id="_x31_0">
	<circle class="st4" cx="1272.5" cy="265.8" r="22.7"/>
	<circle class="st4" cx="1299.6" cy="312.2" r="19.4"/>
	<circle class="st4" cx="1220.7" cy="332.1" r="32.3"/>
	<path class="st2" d="M1203.5,297.3c-0.7,0-1.2-0.6-1.2-1.2v-15.6c0-0.7,0.5-1.2,1.2-1.2s1.2,0.5,1.2,1.2V296
		C1204.7,296.7,1204.2,297.3,1203.5,297.3z"/>
	<path class="st2" d="M1203.5,307.5c-0.7,0-1.2-0.5-1.2-1.2v-3.7c0-0.7,0.5-1.2,1.2-1.2s1.2,0.5,1.2,1.2v3.7
		C1204.7,306.9,1204.2,307.5,1203.5,307.5z"/>
	<path class="st2" d="M1298.9,349.5h-78.2c-0.7,0-1.2-0.6-1.2-1.2v-75.6c0-0.7,0.6-1.2,1.2-1.2h81.4c0.7,0,1.2,0.5,1.2,1.2v72.4
		C1303.3,347.5,1301.3,349.5,1298.9,349.5z M1221.9,347.1h77c1.1,0,2-0.9,2-2v-71.2h-79V347.1z"/>
	<path class="st2" d="M1302.1,273.9h-81.4c-0.7,0-1.2-0.6-1.2-1.2v-18.1c0-0.7,0.6-1.2,1.2-1.2h78.2c2.4,0,4.4,2,4.4,4.4v15
		C1303.3,273.3,1302.8,273.9,1302.1,273.9L1302.1,273.9z M1221.9,271.5h79v-13.8c0-1.1-0.9-2-2-2h-77V271.5z"/>
	<path class="st2" d="M1292.4,265.2c-0.9,0-1.7-0.8-1.7-1.6c0-0.4,0.2-0.8,0.4-1.1c0.7-0.7,1.7-0.7,2.3,0c0.3,0.3,0.4,0.7,0.4,1.1
		s-0.2,0.8-0.4,1.1C1293.3,265,1292.8,265.2,1292.4,265.2z"/>
	<path class="st2" d="M1281.1,263.6c0-0.9,0.8-1.7,1.7-1.7l0,0l0,0c0.9,0,1.7,0.7,1.7,1.5l0,0l0,0c0,0.9-0.8,1.6-1.7,1.6l0,0
		C1281.8,265.2,1281.1,264.5,1281.1,263.6z"/>
	<path class="st2" d="M1273,265.2c-0.9,0-1.6-0.7-1.6-1.5l0,0c0-0.4,0.2-0.8,0.4-1.1c0.7-0.7,1.7-0.7,2.3,0c0.3,0.3,0.4,0.7,0.4,1.1
		s-0.2,0.8-0.4,1.1C1273.9,265,1273.5,265.2,1273,265.2z"/>
	<path class="st2" d="M1220.4,354.4c-0.9,0-1.8,0-2.6-0.1c-12.6-1.4-21.7-12.9-20.2-25.4c0.8-7,4.7-13.2,10.8-16.9v-51.7
		c0-0.3,0.1-0.7,0.3-0.9l10.9-10.4c0.2-0.2,0.6-0.3,0.9-0.3s0.7,0.1,0.9,0.3l9.5,9.9c0.4,0.4,0.4,1.2,0,1.6l-5.6,5.6l5.8,5.8
		c0.4,0.4,0.4,1.2,0,1.6l0,0l-5.6,5.6l5.6,5.6c0.2,0.2,0.4,0.7,0.3,1c0,0.3-0.2,0.6-0.4,0.8l-5.6,5.6l6.8,6.8
		c0.2,0.2,0.3,0.5,0.3,0.9v12c10.8,6.7,14.1,20.8,7.5,31.6c-1.2,1.9-2.6,3.6-4.3,5.1C1231.6,352.3,1226.1,354.4,1220.4,354.4z
		 M1210.8,260.6v51.8c0,0.4-0.2,0.9-0.7,1.1c-9.8,5.7-13.2,18.3-7.6,28.1c3.3,5.6,9,9.5,15.5,10.1c11.3,1.3,21.5-6.8,22.8-18
		c0.1-0.8,0.1-1.5,0.1-2.3c0-7.4-4-14.1-10.2-17.8c-0.3-0.2-0.7-0.7-0.7-1.1v-12.2l-7.4-7.4c-0.4-0.4-0.4-1.2,0-1.8l0,0l5.6-5.6
		l-5.6-5.6c-0.4-0.4-0.4-1.2,0-1.8l0,0l5.6-5.6l-5.8-5.8c-0.4-0.4-0.4-1.2,0-1.8l0,0l5.6-5.6l-7.8-8.1L1210.8,260.6z"/>
	<path class="st2" d="M1220.4,343.9c-6.9,0-12.5-5.6-12.5-12.5s5.6-12.5,12.5-12.5s12.5,5.6,12.5,12.5l0,0
		C1233,338.3,1227.4,343.9,1220.4,343.9z M1220.4,321.2c-5.6,0-10.1,4.5-10.1,10.1s4.5,10.1,10.1,10.1s10.1-4.5,10.1-10.1l0,0
		C1230.6,325.8,1226.1,321.2,1220.4,321.2z"/>
	<path class="st2" d="M1255,283.6h-17.2c-0.7,0-1.2-0.5-1.2-1.2s0.5-1.2,1.2-1.2h17.2c0.7,0,1.2,0.6,1.2,1.2
		S1255.6,283.6,1255,283.6z"/>
	<path class="st2" d="M1274.7,283.6h-13.2c-0.7,0-1.2-0.5-1.2-1.2s0.5-1.2,1.2-1.2h13.2c0.7,0,1.2,0.6,1.2,1.2
		S1275.3,283.6,1274.7,283.6z"/>
	<path class="st2" d="M1292.4,283.6h-11.3c-0.7,0-1.2-0.5-1.2-1.2s0.6-1.2,1.2-1.2h11.3c0.7,0,1.2,0.6,1.2,1.2
		S1293,283.6,1292.4,283.6z"/>
	<path class="st2" d="M1251.4,293.3h-13.5c-0.7,0-1.2-0.5-1.2-1.2s0.5-1.2,1.2-1.2h13.5c0.7,0,1.2,0.6,1.2,1.2
		S1252,293.3,1251.4,293.3z"/>
	<path class="st2" d="M1269.7,293.3h-11.9c-0.7,0-1.2-0.5-1.2-1.2s0.6-1.2,1.2-1.2h12c0.7,0,1.2,0.6,1.2,1.2
		S1270.5,293.3,1269.7,293.3L1269.7,293.3z"/>
	<path class="st2" d="M1287.5,293.3h-11.3c-0.7,0-1.2-0.5-1.2-1.2s0.5-1.2,1.2-1.2l0,0h11.3c0.7,0,1.2,0.6,1.2,1.2
		S1288.2,293.3,1287.5,293.3z"/>
	<path class="st2" d="M1249.5,303h-10.1c-0.7-0.1-1.2-0.7-1.1-1.3c0.1-0.6,0.5-1,1.1-1.1h10.1c0.7,0.1,1.2,0.7,1.1,1.3
		C1250.6,302.5,1250.1,303,1249.5,303z"/>
	<path class="st2" d="M1262.1,303h-6.2c-0.7,0.1-1.3-0.4-1.3-1.1c-0.1-0.7,0.4-1.3,1.1-1.3c0.1,0,0.1,0,0.2,0h6.2
		c0.7,0.1,1.2,0.7,1.1,1.3C1263.2,302.5,1262.7,303,1262.1,303z"/>
	<path class="st2" d="M1276.2,303h-7.6c-0.7,0.1-1.3-0.4-1.3-1.1c-0.1-0.7,0.4-1.3,1.1-1.3c0.1,0,0.1,0,0.2,0h7.6
		c0.7,0.1,1.2,0.7,1.1,1.3C1277.3,302.5,1276.9,303,1276.2,303z"/>
	<path class="st2" d="M1292.4,303h-9.7c-0.7-0.1-1.2-0.7-1.1-1.3c0.1-0.6,0.6-1,1.1-1.1h9.7c0.7,0.1,1.2,0.7,1.1,1.3
		C1293.5,302.5,1292.9,303,1292.4,303z"/>
	<path class="st2" d="M1249.5,312.7h-8.5c-0.7,0-1.2-0.6-1.2-1.2s0.5-1.2,1.2-1.2l0,0h8.5c0.7,0,1.2,0.5,1.2,1.2
		S1250.1,312.7,1249.5,312.7z"/>
	<path class="st2" d="M1271.5,312.7H1256c-0.7,0-1.2-0.6-1.2-1.2s0.5-1.2,1.2-1.2l0,0h15.5c0.7,0,1.2,0.5,1.2,1.2
		S1272.3,312.7,1271.5,312.7z"/>
	<path class="st2" d="M1292.4,312.7H1278c-0.7,0-1.2-0.6-1.2-1.2s0.5-1.2,1.2-1.2l0,0h14.4c0.7,0,1.2,0.5,1.2,1.2
		S1293,312.7,1292.4,312.7z"/>
	<path class="st2" d="M1261.5,322.4h-13.6c-0.7,0-1.2-0.5-1.2-1.2s0.5-1.2,1.2-1.2h13.6c0.7,0,1.2,0.6,1.2,1.2
		S1262.1,322.4,1261.5,322.4z"/>
	<path class="st2" d="M1287.5,322.4h-19.7c-0.7,0-1.2-0.5-1.2-1.2s0.6-1.2,1.2-1.2h19.7c0.7,0,1.2,0.6,1.2,1.2
		S1288.2,322.4,1287.5,322.4z"/>
	<path class="st2" d="M1256.6,332.1h-6.3c-0.7,0-1.2-0.5-1.2-1.2s0.5-1.2,1.2-1.2l0,0h6.3c0.7,0,1.2,0.6,1.2,1.2
		S1257.3,332.1,1256.6,332.1z"/>
	<path class="st2" d="M1274.1,332.1H1263c-0.7,0-1.2-0.5-1.2-1.2s0.5-1.2,1.2-1.2l0,0h11.1c0.7,0,1.2,0.6,1.2,1.2
		S1274.8,332.1,1274.1,332.1z"/>
	<path class="st2" d="M1292.4,332.1h-11.8c-0.7,0-1.2-0.5-1.2-1.2s0.5-1.2,1.2-1.2l0,0h11.8c0.7,0,1.2,0.6,1.2,1.2
		S1293,332.1,1292.4,332.1z"/>
	<path class="st2" d="M1313.4,335.5h-6.5c-0.7,0-1.2-0.5-1.2-1.2s0.5-1.2,1.2-1.2l0,0h6.5c0.7,0,1.2,0.6,1.2,1.2
		S1314.1,335.5,1313.4,335.5z"/>
	<path class="st2" d="M1310.2,338.7c-0.7,0-1.2-0.5-1.2-1.2V331c0-0.7,0.6-1.2,1.2-1.2c0.7,0,1.2,0.5,1.2,1.2l0,0v6.5
		C1311.4,338.2,1310.9,338.7,1310.2,338.7z"/>
	<circle class="st2" cx="1310.2" cy="324.6" r="1.2"/>
	<circle class="st2" cx="1310.2" cy="319.8" r="1.2"/>
	<circle class="st2" cx="1310.2" cy="311.7" r="1.2"/>
	<circle class="st2" cx="1310.2" cy="302" r="1.2"/>
</g>
<g id="_x30_2">
	<circle class="st4" cx="93.7" cy="568" r="29.6"/>
	<circle class="st4" cx="66.2" cy="486.2" r="25.4"/>
	<circle class="st4" cx="166.5" cy="473.5" r="42.3"/>
	<path class="st2" d="M179,462.7c-1.2,0-2.2-0.9-2.2-2.1s0.9-2.2,2.1-2.2s2.2,0.9,2.2,2.1c0,0.5-0.2,1.1-0.7,1.5
		C180.1,462.4,179.5,462.6,179,462.7z"/>
	<path class="st2" d="M164.1,460.5c0-1.2,0.9-2.1,2.1-2.1l0,0l0,0c1.2,0,2.1,1,2.1,2.1l0,0l0,0c0,1.2-1,2.1-2.1,2.1l0,0
		C165.1,462.7,164.1,461.7,164.1,460.5L164.1,460.5z"/>
	<path class="st2" d="M153.6,462.7c-1.2,0-2.1-1-2.1-2.2c0-0.6,0.2-1.1,0.7-1.4c0.9-0.8,2.1-0.8,3,0s0.9,2.1,0.1,3c0,0,0,0-0.1,0.1
		C154.7,462.4,154.1,462.6,153.6,462.7z"/>
	<path class="st2" d="M191.6,472.7H56.2c-0.9,0-1.5-0.7-1.5-1.5l0,0v-16.9c0-3.2,2.6-5.8,5.8-5.8h126.9c3.2,0,5.8,2.6,5.8,5.8v16.9
		C193.3,471.9,192.5,472.7,191.6,472.7L191.6,472.7z M57.7,469.5H190v-15.4c0-1.4-1.2-2.6-2.6-2.6h-127c-1.4,0-2.6,1.2-2.6,2.6l0,0
		v15.4H57.7z"/>
	<path class="st2" d="M187.4,570.1h-127c-3.2,0-5.8-2.6-5.8-5.8v-93.1c0-0.9,0.7-1.5,1.5-1.5l0,0h135.4c0.9,0,1.5,0.7,1.5,1.5l0,0
		v93.1C193.2,567.4,190.6,570.1,187.4,570.1z M57.7,472.7v91.5c0,1.4,1.2,2.6,2.6,2.6l0,0h127.1c1.4,0,2.6-1.2,2.6-2.6l0,0v-91.5
		H57.7z"/>
	<path class="st2" d="M64.7,548.8c-0.9,0-1.5-0.7-1.5-1.5l0,0v-20.6c0.1-0.9,0.9-1.5,1.8-1.4c0.8,0.1,1.4,0.7,1.4,1.4v20.6
		C66.2,548.2,65.6,548.8,64.7,548.8L64.7,548.8z"/>
	<path class="st2" d="M64.7,519.9c-0.9,0-1.5-0.8-1.5-1.7v-4.8c0.1-0.9,0.9-1.5,1.8-1.4c0.8,0.1,1.4,0.7,1.4,1.4v4.8
		C66.2,519.1,65.6,519.9,64.7,519.9L64.7,519.9z"/>
	<path class="st2" d="M183.1,523.5c-0.9,0-1.5-0.7-1.5-1.5l0,0v-24.8c0.1-0.9,0.9-1.5,1.8-1.4c0.8,0.1,1.4,0.7,1.4,1.4V522
		C184.7,522.8,184,523.5,183.1,523.5L183.1,523.5z"/>
	<path class="st2" d="M183.1,490.3c-0.9,0-1.5-0.7-1.5-1.5l0,0V484c0.1-0.9,0.9-1.5,1.8-1.4c0.8,0.1,1.4,0.7,1.4,1.4v4.8
		C184.7,489.6,184,490.3,183.1,490.3L183.1,490.3z"/>
	<path class="st2" d="M149.3,587H98.4c-12.5,0-22.8-10.2-22.8-22.8v-50.8c0-12.5,10.2-22.8,22.8-22.8h50.8
		c12.5,0,22.8,10.2,22.8,22.8v50.8C172,576.8,161.8,587,149.3,587z M98.4,493.8c-10.8,0-19.6,8.8-19.6,19.6v50.8
		c0,10.8,8.8,19.6,19.6,19.6h50.8c10.8,0,19.6-8.8,19.6-19.6v-50.8c0-10.8-8.8-19.6-19.6-19.6L98.4,493.8L98.4,493.8z"/>
	<path class="st2" d="M97.6,575.6c-0.9,0-1.5-0.7-1.5-1.5c0-0.3,0.1-0.7,0.2-0.9l4.8-7.5c-15-12.5-16.9-35-4.3-49.9
		c3-3.5,6.6-6.5,10.7-8.6c0.8-0.4,1.8-0.1,2.1,0.7l0,0l5.9,11.2c0.2,0.3,0.2,0.8,0.1,1.2s-0.4,0.8-0.8,0.9
		c-9.6,5-13.3,16.8-8.2,26.4c0.9,1.6,2,3.2,3.3,4.6l5.7-8.8c0.4-0.8,1.4-1,2.2-0.4c0.3,0.2,0.7,0.5,0.7,1l5.3,24.5
		c0.2,0.9-0.3,1.7-1.2,1.9L98,575.6H97.6z M107.6,510.7c-15.4,9-20.6,28.8-11.5,44.2c2.1,3.5,4.8,6.7,8.1,9.2
		c0.7,0.5,0.8,1.4,0.3,2.1l-3.5,5.5l19.2-4.2l-4.2-19.2l-4.6,7.1c-0.2,0.3-0.7,0.7-1.1,0.7c-0.4,0.1-0.9-0.1-1.2-0.3
		c-9.6-8.1-10.7-22.5-2.5-32c1.5-1.8,3.4-3.4,5.4-4.6L107.6,510.7z"/>
	<path class="st2" d="M139.6,570.8c-0.1,0-0.3,0-0.4-0.1c-0.4-0.1-0.8-0.4-1-0.8l-5.9-11.2c-0.4-0.8-0.1-1.8,0.7-2.1l0,0
		c9.6-5,13.3-16.8,8.2-26.4c-0.9-1.7-2-3.2-3.3-4.6l-5.7,8.8c-0.4,0.8-1.4,1-2.2,0.4c-0.3-0.2-0.7-0.5-0.7-1l-5.3-24.5
		c-0.2-0.9,0.3-1.6,1.2-1.9l24.5-5.3c0.9-0.2,1.7,0.3,1.9,1.2c0.1,0.4,0,0.9-0.2,1.2l-4.8,7.5c15,12.5,16.9,35,4.3,49.9
		c-3,3.5-6.6,6.5-10.7,8.6C140.1,570.7,139.8,570.8,139.6,570.8z M135.8,558.5l4.4,8.5c15.4-9,20.5-28.8,11.4-44.2
		c-2.1-3.5-4.8-6.7-8.1-9.2c-0.7-0.5-0.8-1.4-0.3-2.1l3.5-5.5l-19.3,4.2l4.2,19.2l4.6-7.1c0.4-0.8,1.4-1,2.2-0.4l0.1,0.1
		c9.6,8.1,10.7,22.4,2.5,32C139.7,555.8,137.8,557.3,135.8,558.5z"/>
</g>
<g id="_x30_3">
	<circle class="st4" cx="451" cy="148.4" r="20.9"/>
	<circle class="st4" cx="411.1" cy="114.1" r="17.9"/>
	<circle class="st4" cx="380.9" cy="185.4" r="29.8"/>
	<path class="st2" d="M440.9,202.9h-71.6c-0.7,0-1.1-0.4-1.1-1.1v-62.6c0-0.7,0.4-1.1,1.1-1.1h71.6c0.7,0,1.1,0.4,1.1,1.1v62.6
		C442.1,202.3,441.5,202.9,440.9,202.9C441,202.9,441,202.9,440.9,202.9z M370.5,200.7h69.3v-60.4h-69.3V200.7z"/>
	<path class="st2" d="M440.9,128.3h-74.6c-0.4,0-0.9-0.2-1-0.7c-0.2-0.4-0.1-0.9,0.2-1.2l20.9-20.9c0.2-0.2,0.4-0.3,0.8-0.3h74.6
		c0.7,0,1.1,0.4,1.1,1.1c0,0.3-0.1,0.7-0.3,0.9l-20.9,20.9C441.5,128.2,441.2,128.3,440.9,128.3z M369,126.1h71.4l18.7-18.6h-71.4
		L369,126.1z"/>
	<path class="st2" d="M440.9,140.3c-0.1,0-0.3,0-0.4-0.1c-0.4-0.2-0.7-0.5-0.7-1v-11.9c0-0.3,0.1-0.5,0.3-0.8l20.9-20.9
		c0.4-0.4,1.1-0.4,1.5-0.1c0.2,0.2,0.3,0.5,0.3,0.9v11.9c0,0.3-0.1,0.6-0.3,0.8L441.6,140C441.5,140.2,441.2,140.3,440.9,140.3z
		 M442,127.6v8.8l18.7-18.6V109L442,127.6z"/>
	<path class="st2" d="M440.9,202.9c-0.1,0-0.3,0-0.4-0.1c-0.4-0.2-0.7-0.6-0.7-1v-62.6c0-0.3,0.1-0.6,0.3-0.8l19.4-19.4
		c0.4-0.4,1.1-0.4,1.5,0c0.2,0.2,0.3,0.6,0.3,0.9v62.6c0,0.3-0.1,0.6-0.3,0.8l-19.4,19.4C441.5,202.8,441.2,202.9,440.9,202.9z
		 M442,139.6v59.5l17.3-17.2v-59.5L442,139.6z"/>
	<path class="st2" d="M440.9,140.3h-74.6c-0.7,0-1.1-0.4-1.1-1.1v-12c0-0.7,0.4-1.1,1.1-1.1h74.6c0.7,0,1.1,0.4,1.1,1.1v11.9
		C442.1,139.7,441.5,140.2,440.9,140.3C441,140.3,441,140.3,440.9,140.3z M367.5,138.1h72.4v-9.7h-72.3L367.5,138.1z"/>
	<path class="st2" d="M418.5,134.2c-0.3,0-0.5-0.1-0.8-0.3c-0.2-0.2-0.3-0.6-0.3-0.8c0-0.3,0.1-0.6,0.3-0.8c0.4-0.4,1.1-0.4,1.6,0
		c0.2,0.2,0.3,0.6,0.3,0.8c0,0.3-0.1,0.6-0.3,0.8C419.1,134.1,418.9,134.2,418.5,134.2z"/>
	<path class="st2" d="M424.9,133.1c0-0.7,0.4-1.1,1.1-1.1l0,0c0.7,0,1.1,0.4,1.1,1.1l0,0c0,0.7-0.4,1.1-1.1,1.1l0,0
		C425.4,134.2,424.9,133.8,424.9,133.1z"/>
	<path class="st2" d="M433.5,134.2c-0.7,0-1.1-0.4-1.1-1.1c0-0.3,0.1-0.6,0.3-0.8c0.4-0.4,1.1-0.4,1.5,0c0.2,0.2,0.3,0.4,0.3,0.8
		s-0.1,0.6-0.3,0.8C434.1,134.1,433.8,134.2,433.5,134.2z"/>
	<path class="st2" d="M407,195.4h-3.6c-1.3,0-2.3-1-2.3-2.3v-2.3c-0.9-0.2-1.8-0.4-2.5-0.7l-1.1,2c-0.3,0.6-0.8,0.9-1.4,1.1
		c-0.6,0.1-1.2,0.1-1.8-0.2l-3.1-1.8c-0.5-0.3-1-0.8-1.1-1.4c-0.1-0.6-0.1-1.2,0.2-1.8l1.1-2c-0.7-0.6-1.3-1.2-1.9-1.9l-2,1.1
		c-1.1,0.7-2.4,0.2-3.1-0.8l-1.8-3.1c-0.7-1.1-0.2-2.5,0.9-3.2l2-1.1c-0.3-0.9-0.5-1.6-0.7-2.5h-2.3c-1.3,0-2.3-1-2.3-2.3v-3.6
		c0-1.3,1-2.3,2.3-2.3h2.3c0.2-0.9,0.4-1.8,0.7-2.5l-2-1.1c-0.5-0.3-0.9-0.8-1.1-1.4c-0.1-0.6-0.1-1.2,0.2-1.8l1.8-3.1
		c0.7-1.1,2.1-1.5,3.2-0.9l0,0l2,1.1c0.5-0.7,1.2-1.3,1.9-1.9l-1.1-2c-0.7-1.1-0.2-2.5,0.9-3.2l0,0l3.1-1.8c0.5-0.3,1.2-0.4,1.8-0.2
		c0.5,0.2,1.1,0.6,1.4,1.1l1.1,2c0.9-0.3,1.6-0.5,2.5-0.7v-2.3c0-1.3,1-2.3,2.3-2.3h3.6c1.3,0,2.3,1,2.3,2.3v2.3
		c0.9,0.2,1.8,0.4,2.5,0.7l1.1-2c0.3-0.6,0.8-1,1.4-1.1c0.5-0.1,1.2-0.1,1.8,0.2l3.1,1.8c1.1,0.7,1.5,2.1,0.9,3.2l0,0l-1.1,2
		c0.7,0.6,1.3,1.2,1.9,1.9l2-1.1c1.1-0.7,2.5-0.2,3.2,0.9l0,0l1.8,3.1c0.3,0.6,0.4,1.2,0.2,1.8s-0.5,1.1-1.1,1.4l-2,1.1
		c0.3,0.9,0.5,1.7,0.7,2.5h2.3c1.3,0,2.3,1,2.3,2.3v3.6c0,1.3-1,2.3-2.3,2.3h-2.3c-0.2,0.9-0.4,1.8-0.7,2.5l2,1.1
		c1.1,0.7,1.5,2.1,0.9,3.2l0,0l-1.8,3.1c-0.7,1.1-2.1,1.4-3.2,0.9l-2-1.1c-0.6,0.7-1.2,1.3-1.9,1.9l1.1,2c0.7,1.1,0.2,2.5-0.9,3.2
		l0,0l-3.1,1.8c-0.6,0.3-1.2,0.4-1.8,0.2c-0.6-0.2-1.1-0.6-1.4-1.1l-1.1-2c-0.9,0.3-1.6,0.6-2.5,0.7v2.3
		C409.2,194.4,408.2,195.4,407,195.4z M398,187.7c0.1,0,0.3,0,0.4,0.1c1.2,0.6,2.5,0.9,4,1.1c0.5,0.1,1,0.6,1,1.1v3.2l3.6,0.1
		l0.1-3.3c0-0.5,0.4-1,1-1.1c1.3-0.2,2.6-0.6,4-1.1c0.5-0.2,1.1,0,1.3,0.4l1.6,2.8l3.2-1.8l-1.5-2.9c-0.3-0.4-0.2-1.1,0.2-1.4
		c1.1-0.9,2-1.8,2.9-2.9c0.3-0.4,1-0.5,1.4-0.2l2.8,1.6l1.9-3.1l-2.8-1.8c-0.4-0.2-0.7-0.9-0.4-1.3c0.5-1.2,0.9-2.5,1.1-4
		c0.1-0.6,0.5-1,1.1-1h3.2l0.1-3.6l-0.1-0.1h-3.2c-0.6,0-1-0.4-1.1-1c-0.2-1.3-0.6-2.6-1.1-4c-0.2-0.6,0-1.1,0.4-1.3l2.8-1.7
		l-1.8-3.2l-2.9,1.5c-0.4,0.3-1.1,0.2-1.4-0.2c-0.9-1.1-1.9-2-2.9-2.9c-0.4-0.3-0.5-1-0.2-1.4l1.6-2.8l-3.1-1.9l-1.6,2.9
		c-0.2,0.4-0.9,0.7-1.3,0.4c-1.3-0.4-2.5-0.9-4-1c-0.5-0.1-1-0.6-1-1.1V148l-3.6-0.1l-0.1,3.3c0,0.6-0.4,1-1,1.1
		c-1.3,0.2-2.6,0.5-4,1c-0.5,0.2-1.1,0-1.3-0.4l-1.6-2.8l-3.2,1.8l1.5,2.9c0.3,0.4,0.2,1.1-0.2,1.4c-1.1,0.9-2,1.9-2.9,2.9
		c-0.3,0.4-1,0.6-1.4,0.2l-2.8-1.7l-1.9,3.1l2.8,1.8c0.4,0.2,0.7,0.9,0.4,1.3c-0.5,1.2-0.9,2.5-1.1,4c-0.1,0.6-0.5,1-1.1,1h-3.2
		l-0.1,3.6l3.3,0.1c0.6,0,1,0.4,1.1,1c0.2,1.3,0.6,2.6,1.1,4c0.2,0.6,0,1.1-0.4,1.3l-2.9,1.5l1.8,3.2l2.9-1.5
		c0.4-0.3,1.1-0.2,1.4,0.2c0.9,1.1,1.8,2,2.9,2.9c0.4,0.3,0.6,1,0.2,1.4l-1.6,2.8l3.1,1.9l1.8-2.9
		C397.2,187.8,397.6,187.6,398,187.7L398,187.7z"/>
	<path class="st2" d="M405.1,182.8c-6.8,0-12.3-5.5-12.3-12.3s5.5-12.3,12.3-12.3s12.3,5.5,12.3,12.3l0,0
		C417.4,177.2,411.9,182.8,405.1,182.8z M405.1,160.4c-5.6,0-10,4.5-10,10.1s4.5,10,10.1,10s10-4.5,10-10.1
		C415.2,164.9,410.7,160.4,405.1,160.4z"/>
	<path class="st2" d="M450.7,193.2c-0.7,0-1.1-0.4-1.1-1.1v-73.5h-73.5c-0.7,0-1.1-0.4-1.1-1.1s0.4-1.1,1.1-1.1h74.6
		c0.7,0,1.1,0.4,1.1,1.1v74.6C451.8,192.6,451.2,193.2,450.7,193.2L450.7,193.2z"/>
	<path class="st2" d="M364.9,146.2H359c-0.7,0-1.1-0.4-1.1-1.1c0-0.7,0.4-1.1,1.1-1.1h5.9c0.7,0,1.1,0.4,1.1,1.1
		S365.5,146.2,364.9,146.2z"/>
	<path class="st2" d="M361.9,149.3c-0.7,0-1.1-0.4-1.1-1.1v-5.9c0-0.7,0.4-1.1,1.1-1.1s1.1,0.4,1.1,1.1v5.9
		C363,148.9,362.6,149.3,361.9,149.3z"/>
	<circle class="st2" cx="361.9" cy="154.1" r="1.1"/>
	<circle class="st2" cx="361.9" cy="158.5" r="1.1"/>
	<circle class="st2" cx="361.9" cy="166" r="1.1"/>
	<circle class="st2" cx="361.9" cy="174.9" r="1.1"/>
	<path class="st2" d="M467.8,189.1h-5.9c-0.7,0-1.1-0.4-1.1-1.1s0.4-1.1,1.1-1.1h5.9c0.7,0,1.1,0.4,1.1,1.1S468.4,189.1,467.8,189.1
		z"/>
	<path class="st2" d="M464.7,192.1c-0.7,0-1.1-0.4-1.1-1.1v-5.9c0-0.7,0.4-1.1,1.1-1.1s1.1,0.4,1.1,1.1v5.9
		C465.8,191.7,465.4,192.1,464.7,192.1z"/>
	<circle class="st2" cx="464.7" cy="179.1" r="1.1"/>
	<circle class="st2" cx="464.7" cy="174.6" r="1.1"/>
	<circle class="st2" cx="464.7" cy="167.1" r="1.1"/>
	<circle class="st2" cx="464.7" cy="158.2" r="1.1"/>
</g>
<g id="_x30_8">
	
		<ellipse transform="matrix(0.3827 -0.9239 0.9239 0.3827 264.332 1188.2008)" class="st4" cx="1021.3" cy="396.3" rx="36.4" ry="36.4"/>
	<circle class="st4" cx="921.5" cy="363.5" r="31.2"/>
	<circle class="st4" cx="925.1" cy="477" r="52"/>
	<path class="st2" d="M970,469.5c-6.7,0-13.4-1.7-19.4-4.8l-19.2,4.8c-0.7,0.1-1.3,0-1.9-0.6c-0.4-0.4-0.7-1.2-0.5-1.9l4.8-19.2
		c-10.7-19.9-3.2-44.8,16.7-55.4c4.4-2.4,9.2-4,14.2-4.5l0,0c22.4-2.9,42.9,13.1,45.8,35.6c2.8,22-12.5,42.2-34.4,45.5
		C974,469.3,972,469.5,970,469.5z M950.9,460.6c0.3,0,0.7,0.1,1,0.2c17.8,10,40.5,3.6,50.5-14.3c10-17.8,3.6-40.5-14.3-50.5
		c-6.9-3.8-15-5.4-22.8-4.4l0,0c-20.3,2.6-34.6,21.1-32.1,41.5c0.5,4.7,2.1,9.3,4.4,13.4c0.2,0.4,0.3,1,0.2,1.4l-4.2,16.8l16.8-4.2
		C950.6,460.6,950.7,460.6,950.9,460.6z"/>
	<path class="st2" d="M970,441.4c-1.1,0-2-0.9-2-2l0,0v-1.6c0-6.4,3.6-9,6.5-11.1c2.6-1.9,4.5-3.3,4.5-6.9c0.1-4-2.4-7.6-6.3-8.7
		c-2.9-0.9-5.8-0.3-8.2,1.4c-2.3,1.6-3.6,4.4-3.6,7.3c-0.1,1.1-1,1.9-2.1,1.8c-1-0.1-1.8-0.9-1.8-1.8c0-7.2,5.8-13,13-13
		c1.3,0,2.6,0.2,4,0.6c5.5,1.6,9.1,6.7,9,12.4c0,5.6-3.4,8.1-6.2,10.1s-4.8,3.5-4.8,7.9v1.6C972,440.5,971.1,441.4,970,441.4z"/>
	<path class="st2" d="M971.8,448.6c-1-1-2.6-1-3.6,0s-1,2.6,0,3.7c1,1,2.6,1,3.6,0l0,0C972.8,451.4,972.8,449.7,971.8,448.6z"/>
	<path class="st2" d="M970,506.6c-1.1,0.1-2-0.8-2.1-1.8c-0.1-1.1,0.8-2,1.8-2.1c0.1,0,0.2,0,0.3,0c40.6,0,73.5-32.9,73.5-73.5
		s-32.9-73.5-73.5-73.5s-73.5,32.9-73.5,73.5l0,0c0.1,1.1-0.8,2-1.8,2.1c-1.1,0.1-2-0.8-2.1-1.8c0-0.1,0-0.2,0-0.3
		c0-42.8,34.7-77.4,77.4-77.4c42.8,0,77.4,34.6,77.4,77.4S1012.8,506.6,970,506.6L970,506.6z"/>
	<path class="st2" d="M977.8,514.4h-15.6c-6.8-0.2-12.2-5.9-12-12.8c0.2-6.5,5.5-11.8,12-12h15.6c6.8,0.2,12.2,5.9,12,12.8
		C989.6,508.9,984.3,514.2,977.8,514.4z M962.2,493.6c-4.6,0.2-8.4,4.1-8.1,8.8c0.1,4.4,3.7,8,8.1,8.1h15.6c4.6-0.2,8.4-4.1,8.1-8.8
		c-0.1-4.4-3.7-8-8.1-8.1H962.2z"/>
	<path class="st2" d="M907.5,459.7c-12.5,0-22.8-10.2-22.8-22.8v-15.6c0-12.5,10.2-22.8,22.8-22.8c4,0,7.2,3.2,7.2,7.1v46.9
		C914.6,456.5,911.5,459.7,907.5,459.7z M907.5,402.5c-10.4,0-18.8,8.5-18.9,18.8V437c0,10.5,8.5,18.8,18.9,18.8
		c1.9,0,3.3-1.4,3.3-3.3v-46.8C910.8,404,909.4,402.5,907.5,402.5L907.5,402.5z"/>
	<path class="st2" d="M899.7,446.8c-1.1,0-2-0.9-2-2l0,0v-31.2c0.1-1.1,1-1.9,2.1-1.8c1,0.1,1.8,0.9,1.8,1.8v31.2
		C901.7,445.9,900.8,446.8,899.7,446.8z"/>
	<path class="st2" d="M1032.5,459.7c-4,0-7.1-3.2-7.1-7.1v-46.9c0-4,3.2-7.1,7.1-7.1c12.5,0,22.8,10.2,22.8,22.8V437
		C1055.1,449.5,1045,459.7,1032.5,459.7z M1032.5,402.5c-1.9,0-3.3,1.4-3.3,3.3v46.9c0,1.9,1.4,3.3,3.3,3.3l0,0
		c10.5,0,18.8-8.5,18.8-18.8v-15.7C1051.3,410.9,1042.8,402.5,1032.5,402.5L1032.5,402.5z"/>
	<path class="st2" d="M1040.3,446.8c-1.1,0-2-0.9-2-2v-31.2c0.1-1.1,1-1.9,2.1-1.8c1,0.1,1.8,0.9,1.8,1.8v31.2
		C1042.1,445.9,1041.3,446.8,1040.3,446.8L1040.3,446.8z"/>
	<path class="st2" d="M1017.7,381.1c-1.9,0-3.6-0.7-5.1-1.9c-24.5-21-60.8-21-85.4,0c-3,2.6-7.6,2.4-10.3-0.3l-3-3
		c-1.5-1.5-2.3-3.6-2.2-5.7s1-4.1,2.6-5.5c32-27.6,79.4-27.6,111.4,0c3.2,2.8,3.5,7.6,0.7,10.8c-0.1,0.1-0.2,0.2-0.3,0.4l-3,3.1
		C1021.7,380.3,1019.7,381.1,1017.7,381.1z M970,359.5c16.6,0,32.7,5.9,45.2,16.7c1.4,1.3,3.7,1.2,5.1-0.1l3.1-3
		c0.8-0.8,1.1-1.8,1.1-2.8s-0.4-2-1.2-2.6c-30.6-26.4-75.8-26.4-106.4,0c-0.8,0.7-1.2,1.6-1.2,2.6c0,1.1,0.3,2.1,1.1,2.8l3,3
		c1.4,1.4,3.6,1.4,5.1,0.1C937.3,365.5,953.4,359.5,970,359.5z"/>
	<path class="st2" d="M891.9,381.1c-4,0-7.1-3.2-7.1-7.1c0-4,3.2-7.1,7.1-7.1s7.2,3.2,7.2,7.1l0,0
		C899,377.9,895.8,381.1,891.9,381.1z M891.9,370.6c-1.9,0-3.3,1.4-3.3,3.3s1.4,3.3,3.3,3.3s3.3-1.4,3.3-3.3
		C895.2,372.1,893.7,370.6,891.9,370.6z"/>
	<path class="st2" d="M1014.2,401.9c-4,0-7.1-3.2-7.1-7.1c0-4,3.2-7.1,7.1-7.1s7.2,3.2,7.2,7.1
		C1021.3,398.7,1018.2,401.9,1014.2,401.9L1014.2,401.9z M1014.2,391.4c-1.9,0-3.3,1.4-3.3,3.3s1.4,3.3,3.3,3.3s3.3-1.4,3.3-3.3l0,0
		C1017.5,392.9,1016.1,391.4,1014.2,391.4L1014.2,391.4z"/>
	<path class="st2" d="M997.6,483.5c-4,0-7.1-3.2-7.1-7.1c0-4,3.2-7.1,7.1-7.1c4,0,7.2,3.2,7.2,7.1l0,0
		C1004.7,480.3,1001.5,483.5,997.6,483.5z M997.6,473c-1.9,0-3.3,1.4-3.3,3.3s1.4,3.3,3.3,3.3s3.3-1.4,3.3-3.3
		C1000.9,474.5,999.5,473,997.6,473z"/>
	<path class="st2" d="M924,495.5c-4,0-7.1-3.2-7.1-7.1c0-4,3.2-7.1,7.1-7.1s7.2,3.2,7.2,7.1l0,0C931.1,492.3,928,495.5,924,495.5z
		 M924,485.1c-1.9,0-3.3,1.4-3.3,3.3s1.4,3.3,3.3,3.3c1.9,0,3.3-1.4,3.3-3.3C927.3,486.6,925.9,485.1,924,485.1z"/>
	<path class="st2" d="M901.1,509.1c-4,0-7.2-3.2-7.2-7.1c0-4,3.2-7.1,7.2-7.1s7.1,3.2,7.1,7.1l0,0
		C908.3,505.9,905.1,509.1,901.1,509.1z M901.1,498.8c-1.9,0-3.3,1.4-3.3,3.3s1.4,3.3,3.3,3.3c1.9,0,3.3-1.4,3.3-3.3l0,0
		C904.4,500.2,902.9,498.8,901.1,498.8L901.1,498.8z"/>
</g>
<g id="_x30_7">
	<circle class="st4" cx="992" cy="146.9" r="23.1"/>
	<circle class="st4" cx="931.5" cy="184.4" r="19.8"/>
	<circle class="st4" cx="927" cy="109.3" r="33"/>
	<path class="st2" d="M1004,192.6h-98.9c-2.5,0-4.5-2-4.5-4.5v-8.2c0-0.7,0.6-1.2,1.2-1.2h105.5c0.7,0,1.2,0.6,1.2,1.2v8.2
		C1008.5,190.6,1006.5,192.6,1004,192.6z M903,181.1v7c0,1.1,0.9,2.1,2.1,2.1h98.9c1.1,0,2.1-0.9,2.1-2.1v-7H903z"/>
	<path class="st2" d="M1007.3,181.1H901.8c-0.4,0-0.9-0.2-1.1-0.6c-0.2-0.3-0.2-0.8-0.1-1.2l9.9-21.4c0.2-0.4,0.7-0.7,1.1-0.7h85.7
		c0.4,0,0.9,0.3,1.1,0.7l9.9,21.4c0.2,0.3,0.1,0.9-0.1,1.2C1008,180.8,1007.6,181,1007.3,181.1z M903.8,178.6h101.5l-8.8-18.9h-84
		L903.8,178.6z"/>
	<path class="st2" d="M911.7,173.9c-0.3,0-0.7-0.1-0.9-0.3s-0.3-0.6-0.3-0.9s0.1-0.7,0.3-0.9c0.4-0.4,1.3-0.4,1.8,0
		c0.2,0.2,0.3,0.6,0.3,0.9s-0.1,0.7-0.3,0.9C912.3,173.7,912,173.9,911.7,173.9z"/>
	<path class="st2" d="M989.6,172.6c0-0.7,0.5-1.2,1.2-1.2l0,0c0.7,0,1.2,0.6,1.2,1.2l0,0l0,0c0,0.7-0.5,1.2-1.2,1.2l0,0l0,0
		C990.1,173.9,989.6,173.4,989.6,172.6z M983,172.6c0-0.7,0.6-1.2,1.2-1.2l0,0l0,0c0.7,0,1.2,0.6,1.2,1.2l0,0l0,0
		c0,0.7-0.5,1.2-1.2,1.2l0,0l0,0C983.5,173.9,983,173.4,983,172.6C983,172.7,983,172.7,983,172.6L983,172.6z M976.4,172.6
		c0-0.7,0.5-1.2,1.2-1.2l0,0c0.7,0,1.2,0.6,1.2,1.2l0,0l0,0c0,0.7-0.5,1.2-1.2,1.2l0,0l0,0C976.9,173.9,976.4,173.4,976.4,172.6
		L976.4,172.6z M969.8,172.6c0-0.7,0.5-1.2,1.2-1.2l0,0c0.7,0,1.2,0.6,1.2,1.2l0,0l0,0c0,0.7-0.5,1.2-1.2,1.2l0,0l0,0
		C970.3,173.9,969.8,173.4,969.8,172.6L969.8,172.6z M963.2,172.6c0-0.7,0.5-1.2,1.2-1.2l0,0l0,0c0.7,0,1.2,0.6,1.2,1.2l0,0l0,0
		c0,0.7-0.6,1.2-1.2,1.2l0,0l0,0C963.7,173.8,963.2,173.3,963.2,172.6L963.2,172.6z M956.6,172.6c0-0.7,0.5-1.2,1.2-1.2l0,0
		c0.7,0,1.2,0.6,1.2,1.2l0,0c0,0.7-0.5,1.2-1.2,1.2l0,0l0,0C957.1,173.9,956.6,173.4,956.6,172.6L956.6,172.6z M950,172.6
		c0-0.7,0.6-1.2,1.2-1.2l0,0c0.7,0,1.2,0.6,1.2,1.2l0,0l0,0c0,0.7-0.5,1.2-1.2,1.2l0,0l0,0C950.5,173.8,950,173.4,950,172.6
		L950,172.6z M943.4,172.6c0-0.7,0.5-1.2,1.2-1.2l0,0l0,0c0.7,0,1.2,0.6,1.2,1.2l0,0l0,0c0,0.7-0.5,1.2-1.2,1.2l0,0l0,0
		C943.9,173.8,943.4,173.3,943.4,172.6L943.4,172.6z M936.8,172.6c0-0.7,0.5-1.2,1.2-1.2l0,0l0,0c0.7,0,1.2,0.6,1.2,1.2l0,0
		c0,0.7-0.5,1.2-1.2,1.2l0,0C937.3,173.8,936.8,173.3,936.8,172.6L936.8,172.6z M930.2,172.6c0-0.7,0.5-1.2,1.2-1.2l0,0
		c0.7,0,1.2,0.6,1.2,1.2l0,0l0,0c0,0.7-0.6,1.2-1.2,1.2l0,0l0,0C930.7,173.8,930.2,173.3,930.2,172.6L930.2,172.6z M923.6,172.6
		c0-0.7,0.5-1.2,1.2-1.2l0,0l0,0c0.7,0,1.2,0.6,1.2,1.2l0,0l0,0c0,0.7-0.5,1.2-1.2,1.2l0,0l0,0C924.1,173.7,923.7,173.3,923.6,172.6
		L923.6,172.6z M917,172.6c0-0.7,0.6-1.2,1.2-1.2l0,0l0,0c0.7,0,1.2,0.6,1.2,1.2l0,0c0,0.7-0.5,1.2-1.2,1.2l0,0l0,0
		C917.5,173.7,917.1,173.3,917,172.6L917,172.6z"/>
	<path class="st2" d="M997.4,173.9c-0.3,0-0.7-0.1-0.9-0.3s-0.4-0.6-0.3-0.9c0-0.3,0.1-0.7,0.3-0.9c0.5-0.4,1.2-0.4,1.8,0
		c0.2,0.2,0.3,0.6,0.3,0.9s-0.1,0.7-0.3,0.9C998,173.7,997.7,173.9,997.4,173.9z"/>
	<path class="st2" d="M915,166.8c-0.3,0-0.7-0.1-0.9-0.3s-0.3-0.6-0.3-0.9s0.1-0.7,0.3-0.9c0.4-0.4,1.2-0.4,1.8,0
		c0.2,0.2,0.3,0.5,0.3,0.9s-0.1,0.7-0.3,0.9C915.6,166.7,915.3,166.8,915,166.8z"/>
	<path class="st2" d="M986.3,165.6c0-0.7,0.5-1.2,1.2-1.2l0,0l0,0c0.7,0,1.2,0.5,1.2,1.2l0,0l0,0c0,0.7-0.5,1.2-1.2,1.2l0,0l0,0
		C986.8,166.8,986.3,166.2,986.3,165.6z M979.7,165.6c0-0.7,0.5-1.2,1.2-1.2l0,0l0,0c0.7,0,1.2,0.5,1.2,1.2l0,0l0,0
		c0,0.7-0.6,1.2-1.2,1.2l0,0l0,0C980.2,166.8,979.7,166.2,979.7,165.6z M973.1,165.6c0-0.7,0.5-1.2,1.2-1.2l0,0l0,0
		c0.7,0,1.2,0.5,1.2,1.2l0,0l0,0c0,0.7-0.5,1.2-1.2,1.2l0,0l0,0C973.6,166.8,973.1,166.2,973.1,165.6L973.1,165.6z M966.5,165.6
		c0-0.7,0.6-1.2,1.2-1.2l0,0l0,0c0.7,0,1.2,0.5,1.2,1.2l0,0c0,0.7-0.5,1.2-1.2,1.2l0,0C967,166.8,966.5,166.2,966.5,165.6
		L966.5,165.6z M959.9,165.6c0-0.7,0.5-1.2,1.2-1.2l0,0l0,0c0.7,0,1.2,0.5,1.2,1.2l0,0l0,0c0,0.7-0.5,1.2-1.2,1.2l0,0l0,0
		C960.4,166.8,959.9,166.2,959.9,165.6L959.9,165.6z M953.3,165.6c0-0.7,0.5-1.2,1.2-1.2l0,0c0.7,0,1.2,0.5,1.2,1.2l0,0l0,0
		c0,0.7-0.5,1.2-1.2,1.2l0,0l0,0C953.8,166.8,953.3,166.2,953.3,165.6L953.3,165.6z M946.7,165.6c0-0.7,0.5-1.2,1.2-1.2l0,0l0,0
		c0.7,0,1.2,0.5,1.2,1.2l0,0c0,0.7-0.6,1.2-1.2,1.2l0,0C947.2,166.8,946.7,166.2,946.7,165.6L946.7,165.6z M940.1,165.6
		c0-0.7,0.5-1.2,1.2-1.2l0,0l0,0c0.7,0,1.2,0.5,1.2,1.2l0,0l0,0c0,0.7-0.5,1.2-1.2,1.2l0,0C940.6,166.7,940.1,166.2,940.1,165.6
		L940.1,165.6z M933.5,165.6c0-0.7,0.6-1.2,1.2-1.2l0,0l0,0c0.7,0,1.2,0.5,1.2,1.2l0,0l0,0c0,0.7-0.5,1.2-1.2,1.2l0,0l0,0
		C934,166.7,933.6,166.1,933.5,165.6L933.5,165.6z M926.9,165.6c0-0.7,0.5-1.2,1.2-1.2l0,0l0,0c0.7,0,1.2,0.5,1.2,1.2l0,0l0,0
		c0,0.7-0.5,1.2-1.2,1.2l0,0l0,0C927.4,166.7,927,166.2,926.9,165.6L926.9,165.6z M920.3,165.6c0-0.7,0.5-1.2,1.2-1.2l0,0l0,0
		c0.7,0,1.2,0.5,1.2,1.2l0,0c0,0.7-0.5,1.2-1.2,1.2l0,0C920.8,166.8,920.4,166.2,920.3,165.6L920.3,165.6z"/>
	<path class="st2" d="M994.1,166.8c-0.3,0-0.7-0.1-0.9-0.3s-0.3-0.6-0.3-0.9s0.1-0.7,0.3-0.9c0.4-0.4,1.2-0.4,1.8,0
		c0.2,0.2,0.3,0.5,0.3,0.9s-0.1,0.7-0.3,0.9C994.7,166.7,994.4,166.8,994.1,166.8z"/>
	<path class="st2" d="M961.1,186.8h-13.2c-0.7,0.1-1.3-0.4-1.3-1.1c-0.1-0.7,0.4-1.3,1.1-1.3c0.1,0,0.1,0,0.2,0h13.2
		c0.7,0.1,1.2,0.7,1.1,1.3C962.2,186.3,961.7,186.8,961.1,186.8z"/>
	<path class="st2" d="M997.4,159.6h-85.7c-0.7,0-1.2-0.6-1.2-1.2l0,0V109c0-2.5,2-4.5,4.5-4.5h79.1c2.5,0,4.5,2,4.5,4.5v49.4
		C998.6,159.1,998,159.6,997.4,159.6z M912.9,157.1H996v-48.2c0-1.1-0.9-2.1-2.1-2.1h-79.1c-1.1,0-2.1,0.9-2.1,2.1v48.2H912.9z"/>
	<path class="st2" d="M984.2,149.8h-59.3c-2.5,0-4.5-2-4.5-4.5v-56c0-2.5,2-4.5,4.5-4.5h49.4c0.3,0,0.7,0.1,0.9,0.3l13.2,13.2
		c0.2,0.2,0.3,0.6,0.3,0.9v46.1C988.7,147.8,986.7,149.8,984.2,149.8z M924.9,87.2c-1.1,0-2.1,0.9-2.1,2.1v56c0,1.1,0.9,2.1,2.1,2.1
		h59.3c1.1,0,2.1-0.9,2.1-2.1V99.6l-12.4-12.4H924.9z"/>
	<path class="st2" d="M1007.3,90.5h-6.6c-0.7-0.1-1.2-0.7-1.1-1.3c0.1-0.6,0.6-1.1,1.1-1.1h6.6c0.7,0.1,1.2,0.7,1.1,1.3
		C1008.3,89.9,1007.8,90.4,1007.3,90.5z"/>
	<path class="st2" d="M1004,93.8c-0.7,0-1.2-0.6-1.2-1.2l0,0V86c0.1-0.7,0.7-1.2,1.3-1.1c0.5,0.1,1.1,0.5,1.1,1.1v6.6
		C1005.2,93.2,1004.6,93.8,1004,93.8z"/>
	<circle class="st2" cx="1004" cy="99.1" r="1.2"/>
	<circle class="st2" cx="1004" cy="104" r="1.2"/>
	<circle class="st2" cx="1004" cy="110.6" r="1.2"/>
	<circle class="st2" cx="1004" cy="120.5" r="1.2"/>
	<path class="st2" d="M908.4,103.7h-6.6c-0.7,0.1-1.3-0.4-1.3-1.1c-0.1-0.7,0.4-1.3,1.1-1.3c0.1,0,0.1,0,0.2,0h6.6
		c0.7,0.1,1.2,0.7,1.1,1.3C909.5,103.1,909,103.5,908.4,103.7z"/>
	<path class="st2" d="M905.1,107c-0.7,0-1.2-0.5-1.2-1.2v-6.6c-0.1-0.7,0.4-1.3,1.1-1.3s1.3,0.4,1.3,1.1c0,0.1,0,0.1,0,0.2v6.6
		C906.3,106.4,905.7,107,905.1,107z"/>
	<circle class="st2" cx="905.1" cy="112.2" r="1.2"/>
	<circle class="st2" cx="905.1" cy="117.2" r="1.2"/>
	<circle class="st2" cx="905.1" cy="123.8" r="1.2"/>
	<circle class="st2" cx="905.1" cy="133.7" r="1.2"/>
	<path class="st2" d="M987.5,100.4h-13.2c-0.7,0-1.2-0.6-1.2-1.2V85.9c0-0.7,0.5-1.2,1.2-1.2c0.3,0,0.7,0.1,0.9,0.3l13.2,13.2
		c0.3,0.3,0.4,0.9,0.2,1.3C988.5,100,988,100.4,987.5,100.4z M975.5,97.8h8.9l-8.9-8.9V97.8z"/>
	<path class="st2" d="M942.1,131.6c-0.3,0-0.5-0.1-0.8-0.3l-11.5-9.9c-0.5-0.4-0.5-1.2-0.1-1.8l0.1-0.1l11.5-9.9
		c0.5-0.4,1.3-0.4,1.8,0.1c0.4,0.6,0.3,1.3-0.1,1.8l0,0l-10.5,8.9l10.5,8.9c0.5,0.4,0.5,1.2,0.1,1.8
		C942.8,131.5,942.5,131.6,942.1,131.6z"/>
	<path class="st2" d="M966.9,131.6c-0.7,0-1.2-0.6-1.3-1.2c0-0.4,0.1-0.8,0.4-1l10.5-8.9l-10.5-8.9c-0.5-0.4-0.5-1.2-0.1-1.8l0,0
		c0.4-0.6,1.2-0.6,1.8-0.1l11.5,9.9c0.5,0.4,0.5,1.2,0.2,1.6c0,0.1-0.1,0.1-0.2,0.2l-11.5,9.9C967.4,131.5,967.2,131.6,966.9,131.6z
		"/>
	<path class="st2" d="M948,136.5c-0.2,0-0.3,0-0.6-0.1c-0.7-0.3-0.9-1-0.7-1.6l13.2-29.7c0.3-0.7,1-0.9,1.7-0.7
		c0.7,0.3,0.9,1,0.7,1.7l-13.2,29.7C948.9,136.3,948.4,136.5,948,136.5z"/>
</g>
<g id="_x30_9">
	<circle class="st4" cx="909.1" cy="716.9" r="18.4"/>
	<circle class="st4" cx="951.9" cy="666.2" r="15.7"/>
	<circle class="st4" cx="895.1" cy="655.1" r="26.2"/>
	<path class="st2" d="M944.6,725.7H883c-2,0-3.6-1.7-3.6-3.6v-69.4c0-0.5,0.4-1,1-1l0,0h66.8c0.6,0,1,0.4,1,1l0,0v69.4
		C948.1,724.2,946.5,725.7,944.6,725.7z M881.4,653.8v68.4c0,0.9,0.8,1.6,1.7,1.6h61.6c0.9,0,1.7-0.8,1.7-1.6v-68.4H881.4z"/>
	<path class="st2" d="M947.2,653.8h-66.8c-0.6,0-1-0.4-1-1l0,0v-9.1c0-2,1.7-3.6,3.6-3.6l0,0h61.6c2,0,3.6,1.7,3.6,3.6l0,0v9.1
		C948.2,653.3,947.8,653.8,947.2,653.8L947.2,653.8z M881.4,651.8h64.8v-8.1c0-0.9-0.8-1.7-1.7-1.7H883c-0.9,0-1.7,0.8-1.7,1.7
		L881.4,651.8z"/>
	<path class="st2" d="M964.1,694.4h-5.3c-0.6,0-1-0.4-1-1s0.4-1,1-1l0,0h5.3c0.5,0,1,0.4,1,1C965.1,693.9,964.7,694.4,964.1,694.4z"
		/>
	<path class="st2" d="M961.6,697c-0.6,0-1-0.4-1-1l0,0v-5.3c0-0.6,0.4-1,1-1c0.5,0,1,0.4,1,1v5.3C962.5,696.6,962.1,697,961.6,697z"
		/>
	<circle class="st2" cx="961.6" cy="685.6" r="1"/>
	<circle class="st2" cx="961.6" cy="681.6" r="1"/>
	<circle class="st2" cx="961.6" cy="675" r="1"/>
	<circle class="st2" cx="961.6" cy="667.2" r="1"/>
	<path class="st2" d="M928.8,647.8c-0.2,0-0.5-0.1-0.7-0.3s-0.3-0.4-0.3-0.7s0.1-0.5,0.2-0.7c0.3-0.4,1-0.4,1.4,0s0.4,1,0,1.4
		C929.4,647.7,929.1,647.8,928.8,647.8z"/>
	<path class="st2" d="M933.8,646.8c0-0.5,0.4-1,1-1l0,0l0,0c0.5,0,1,0.4,1,1l0,0l0,0c0,0.6-0.4,1-1,1l0,0l0,0
		C934.2,647.8,933.8,647.4,933.8,646.8z"/>
	<path class="st2" d="M940.6,647.8c-0.5,0-1-0.4-1-1l0,0c0-0.2,0.1-0.5,0.3-0.7c0.4-0.3,1-0.3,1.4,0c0.2,0.2,0.3,0.4,0.3,0.7
		c0,0.2-0.1,0.6-0.3,0.7C941.2,647.7,940.8,647.8,940.6,647.8z"/>
	<path class="st2" d="M945.8,713.2c-0.2,0-0.5-0.1-0.7-0.3l-6.1-6c-0.3-0.3-0.3-1,0-1.4l0,0l5.9-5.9c0.3-0.3,1-0.3,1.4,0l0,0l6,6
		c0.3,0.3,0.3,1,0,1.4l0,0l-5.8,5.9C946.2,713.1,946,713.2,945.8,713.2z M941,706.1l4.6,4.6l4.5-4.5l-4.6-4.6L941,706.1z"/>
	<path class="st2" d="M952.8,723L952.8,723c-0.2,0-0.5-0.1-0.7-0.3l-8.4-8.5c-0.3-0.3-0.3-1,0-1.4l0,0l8.7-8.7c0.3-0.3,1-0.3,1.4,0
		l0,0l8.4,8.4c0.4,0.3,0.4,1,0,1.3l0,0l-8.7,8.7C953.3,723,953,723,952.8,723z M945.8,713.6l7,7l7.3-7.3l-7-7L945.8,713.6z"/>
	<path class="st2" d="M957.2,725.7c-1.3,0-2.6-0.6-3.6-1.4l-1.5-1.5c-0.3-0.4-0.3-1,0-1.4l8.7-8.7c0.2-0.2,0.4-0.3,0.7-0.3l0,0
		c0.2,0,0.5,0.1,0.7,0.3l1.5,1.5c2,2,2,5.2,0,7.2l0,0l-2.9,2.9C959.9,725.3,958.5,725.8,957.2,725.7z M954.1,722.1l0.9,0.9
		c1.2,1.2,3.2,1.2,4.4,0l2.9-2.9l0,0c1.2-1.2,1.2-3.2,0-4.4l0,0l-0.9-0.9L954.1,722.1z"/>
	<path class="st2" d="M925.3,713.5c-15.3,0-27.6-12.3-27.6-27.6s12.3-27.6,27.6-27.6s27.6,12.3,27.6,27.6l0,0
		C952.9,701.2,940.5,713.5,925.3,713.5z M925.3,660.3c-14.2,0-25.6,11.4-25.6,25.6s11.4,25.6,25.6,25.6c14.2,0,25.6-11.4,25.6-25.6
		C950.9,671.8,939.5,660.3,925.3,660.3z"/>
	<path class="st2" d="M925.3,704.6c-10.3,0-18.7-8.4-18.7-18.7s8.4-18.7,18.7-18.7s18.7,8.4,18.7,18.7S935.7,704.6,925.3,704.6
		L925.3,704.6z M925.3,669.2c-9.2,0-16.7,7.5-16.7,16.7s7.5,16.7,16.7,16.7s16.7-7.5,16.7-16.7l0,0
		C942,676.7,934.6,669.3,925.3,669.2z"/>
	<path class="st2" d="M923.3,698.4c-0.2,0-0.5-0.1-0.7-0.3l-9.7-9.7c-0.3-0.3-0.3-1,0-1.4l0,0l4.7-4.7c0.2-0.2,0.4-0.3,0.7-0.3l0,0
		c0.2,0,0.6,0.1,0.7,0.3l4.3,4.3l8.2-8.2c0.4-0.3,1-0.3,1.4,0l4.7,4.7c0.3,0.3,0.3,1,0,1.4l0,0L924,698.1
		C923.8,698.4,923.6,698.4,923.3,698.4z M915,687.8l8.2,8.2l12.3-12.2l-3.3-3.3l-8.2,8.2c-0.4,0.3-1,0.3-1.4,0l-4.3-4.3L915,687.8z"
		/>
	<path class="st2" d="M892.2,666.9h-4c-1.3,0-2.3-1-2.3-2.3v-4c0-1.3,1-2.3,2.3-2.3h4c1.3,0,2.3,1,2.3,2.3v4
		C894.4,665.8,893.4,666.9,892.2,666.9z M888.2,660.3c-0.2,0-0.3,0.1-0.3,0.3l0,0v4c0,0.2,0.1,0.3,0.3,0.3l0,0h4
		c0.2,0,0.3-0.1,0.3-0.3v-4c0-0.2-0.1-0.3-0.3-0.3l0,0H888.2z"/>
	<path class="st2" d="M892.2,680h-4c-1.3,0-2.3-1-2.3-2.3v-4c0-1.3,1-2.3,2.3-2.3h4c1.2,0,2.3,1,2.3,2.3v4
		C894.4,679,893.4,680,892.2,680z M888.2,673.4c-0.2,0-0.3,0.1-0.3,0.3l0,0v4c0,0.2,0.1,0.3,0.3,0.3l0,0h4c0.2,0,0.3-0.1,0.3-0.3
		l0,0v-4c0-0.2-0.1-0.3-0.3-0.3H888.2z"/>
	<path class="st2" d="M892.2,693h-4c-1.3,0-2.3-1-2.3-2.3v-4c0-1.3,1-2.3,2.3-2.3h4c1.3,0,2.3,1,2.3,2.3v4
		C894.4,692.1,893.4,693,892.2,693z M888.2,686.4c-0.2,0-0.3,0.1-0.3,0.3l0,0v4c0,0.2,0.1,0.3,0.3,0.3l0,0h4c0.2,0,0.3-0.1,0.3-0.3
		v-4c0-0.2-0.1-0.3-0.3-0.3l0,0H888.2z"/>
	<path class="st2" d="M892.2,706.1h-4c-1.3,0-2.3-1-2.3-2.3v-4c0-1.3,1-2.3,2.3-2.3h4c1.2,0,2.3,1,2.3,2.3v4
		C894.4,705.1,893.4,706.1,892.2,706.1z M888.2,699.5c-0.2,0-0.3,0.1-0.3,0.3l0,0v4c0,0.2,0.1,0.3,0.3,0.3l0,0h4
		c0.2,0,0.3-0.1,0.3-0.3l0,0v-4c0-0.2-0.1-0.3-0.3-0.3H888.2z"/>
	<path class="st2" d="M892.2,719.2h-4c-1.3,0-2.3-1-2.3-2.3v-4c0-1.3,1-2.3,2.3-2.3h4c1.3,0,2.3,1,2.3,2.3v4
		C894.5,718.1,893.4,719.2,892.2,719.2L892.2,719.2z M888.2,712.6c-0.2,0-0.3,0.1-0.3,0.3l0,0v4c0,0.2,0.1,0.3,0.3,0.3l0,0h4
		c0.2,0,0.3-0.1,0.3-0.3v-4c0-0.2-0.1-0.3-0.3-0.3l0,0H888.2z"/>
</g>
<g id="_x30_6">
	<circle class="st4" cx="658.8" cy="576.1" r="23.2"/>
	<circle class="st4" cx="719.4" cy="525.5" r="19.9"/>
	<circle class="st4" cx="732.3" cy="601.3" r="33.2"/>
	<path class="st2" d="M718,622.9h-59.6c-4.4,0-7.9-3.5-7.9-7.9v-93c0-4.4,3.5-7.9,7.9-7.9h59.7c4.4,0,7.9,3.5,7.9,7.9v93
		C725.9,619.3,722.4,622.9,718,622.9C718.1,622.9,718,622.9,718,622.9z M658.3,516.7c-3,0-5.4,2.4-5.4,5.4l0,0v93
		c0,3,2.4,5.4,5.4,5.4H718c3,0,5.4-2.4,5.4-5.4v-92.8c0-3-2.4-5.4-5.4-5.4l0,0L658.3,516.7z"/>
	<path class="st2" d="M721.3,609.7H655c-2.5,0-4.6-2.1-4.6-4.5l0,0v-73c0-2.5,2.1-4.6,4.5-4.6l0,0h66.3c2.5,0,4.6,2.1,4.6,4.5l0,0
		V605C725.9,607.6,723.8,609.7,721.3,609.7z M654.9,530c-1.1,0-2.1,1-2.1,2.1V605c0,1.1,0.9,2.1,2.1,2.1l0,0h66.3
		c1.1,0,2.1-0.9,2.1-2.1v-72.9c0-1.1-0.9-2.1-2.1-2.1l0,0H654.9z"/>
	<path class="st2" d="M736.2,599.7h-43.1c-5.3,0-9.6-4.3-9.6-9.6V547c0-5.3,4.3-9.6,9.6-9.6h43.1c5.3,0,9.6,4.3,9.6,9.6v43.1
		C745.8,595.4,741.5,599.7,736.2,599.7z M693.1,539.9c-3.8,0-7,3.2-7,7V590c0,3.8,3.2,7,7,7h43.1c3.9,0,7-3.2,7-7v-43
		c0-3.9-3.2-7-7-7L693.1,539.9L693.1,539.9z"/>
	<path class="st2" d="M670.8,553.2h-5c-3,0-5.4-2.4-5.4-5.4v-4.9c0-3,2.4-5.4,5.4-5.4h5c3,0,5.4,2.4,5.4,5.4v4.9
		C676.2,550.8,673.7,553.2,670.8,553.2z M665.7,539.9c-1.7,0-2.9,1.3-2.9,2.9l0,0v4.9c0,1.7,1.3,2.9,2.9,2.9l0,0h5
		c1.6,0,2.9-1.3,2.9-2.9l0,0v-4.9c0-1.7-1.3-2.9-2.9-2.9l0,0H665.7z"/>
	<path class="st2" d="M670.8,576.4h-5c-3,0-5.4-2.4-5.4-5.4v-5c0-3,2.4-5.4,5.4-5.4h5c3,0,5.4,2.4,5.4,5.4v5
		C676.2,574,673.7,576.4,670.8,576.4z M665.7,563.1c-1.7,0-2.9,1.3-2.9,2.9l0,0v5c0,1.6,1.3,2.9,2.9,2.9l0,0h5
		c1.6,0,2.9-1.3,2.9-2.9v-5c0-1.7-1.3-2.9-2.9-2.9H665.7z"/>
	<path class="st2" d="M670.8,599.7h-5c-3,0-5.4-2.4-5.4-5.4v-5c0-3,2.4-5.4,5.4-5.4h5c3,0,5.4,2.4,5.4,5.4v5
		C676.2,597.2,673.7,599.7,670.8,599.7z M665.7,586.5c-1.7,0-2.9,1.3-2.9,2.9v5c0,1.6,1.3,2.9,2.9,2.9l0,0h5c1.6,0,2.9-1.3,2.9-2.9
		l0,0v-5c0-1.7-1.3-2.9-2.9-2.9l0,0H665.7z"/>
	<path class="st2" d="M696.4,523.4h-16.6c-0.7,0-1.2-0.5-1.2-1.2s0.5-1.2,1.2-1.2h16.6c0.7,0,1.2,0.6,1.2,1.2
		S697.2,523.4,696.4,523.4L696.4,523.4z"/>
	<path class="st2" d="M691.5,616.3h-6.6c-0.7-0.1-1.2-0.7-1.1-1.3c0.1-0.5,0.5-1.1,1.1-1.1h6.6c0.7,0.1,1.2,0.7,1.1,1.3
		C692.6,615.7,692.1,616.3,691.5,616.3z"/>
	<path class="st2" d="M674.8,616.3h-6.6c-0.7-0.1-1.2-0.7-1.1-1.3c0.1-0.5,0.5-1.1,1.1-1.1h6.6c0.7,0.1,1.2,0.7,1.1,1.3
		C675.9,615.7,675.4,616.3,674.8,616.3z"/>
	<path class="st2" d="M708.1,616.3h-6.6c-0.7-0.1-1.2-0.7-1.1-1.3c0.1-0.5,0.5-1.1,1.1-1.1h6.6c0.7,0.1,1.2,0.7,1.1,1.3
		C709.2,615.7,708.6,616.3,708.1,616.3z"/>
	<circle class="st2" cx="703.1" cy="522.1" r="1.6"/>
	<path class="st2" d="M748.7,589.8h-40.4c-7.3,0-13.1-5.7-13.2-13c0-7.3,5.7-13.1,13-13.2c0.4,0,0.8,0,1.2,0c0-0.3,0-0.8,0-1.1
		c0-8.5,6.8-15.3,15.3-15.3c6.9,0,12.9,4.6,14.7,11.3c1.3-0.8,2.9-1.1,4.4-1.1c5,0,9,4,9,9c0,1.1-0.2,2.1-0.5,3.1
		c5.4,2,8.2,7.9,6.3,13.3C757,587.1,753.1,589.9,748.7,589.8L748.7,589.8z M708.3,566.1c-5.8,0.2-10.5,5.1-10.2,10.9
		c0.2,5.6,4.6,10,10.2,10.2h40.4c4.4,0,7.9-3.6,7.9-8c0-3.7-2.6-7-6.4-7.7c-0.4-0.1-0.8-0.3-0.9-0.7c-0.2-0.3-0.2-0.8,0-1.1
		c0.6-1,0.9-2.1,0.9-3.2c0-3.6-3-6.5-6.5-6.5c-1.7,0-3.2,0.5-4.4,1.6c-0.5,0.4-1.3,0.4-1.8-0.1c-0.2-0.2-0.3-0.4-0.3-0.7
		c-0.9-7-7.4-11.9-14.3-11c-6.4,0.9-11.1,6.3-11.1,12.7c0,0.8,0.1,1.5,0.2,2.3c0.1,0.4-0.1,0.8-0.3,1.1c-0.3,0.3-0.7,0.4-1.1,0.3
		C709.7,566.2,708.9,566.1,708.3,566.1z"/>
	<path class="st2" d="M735.2,617.9h-2.3c-0.7,0-1.2-0.5-1.2-1.2s0.5-1.2,1.2-1.2h2.3c0.7,0,1.2,0.5,1.2,1.2S735.9,617.9,735.2,617.9
		L735.2,617.9z"/>
	<path class="st2" d="M742.9,617.9h-2.3c-0.7,0-1.2-0.5-1.2-1.2s0.5-1.2,1.2-1.2h2.3c0.7,0,1.2,0.5,1.2,1.2S743.6,617.9,742.9,617.9
		z"/>
	<path class="st2" d="M737.9,623c-0.7,0-1.2-0.5-1.2-1.2l0,0v-2.3c0.1-0.7,0.7-1.2,1.3-1.1c0.5,0.1,1.1,0.5,1.1,1.1v2.3
		C739.2,622.3,738.6,623,737.9,623z"/>
	<path class="st2" d="M737.9,615.3c-0.7,0-1.2-0.5-1.2-1.2l0,0v-2.3c0.1-0.7,0.7-1.2,1.3-1.1c0.5,0.1,1.1,0.5,1.1,1.1v2.3
		C739.2,614.7,738.6,615.3,737.9,615.3z"/>
	<path class="st2" d="M750.2,604.7h-2.3c-0.7,0.1-1.3-0.4-1.3-1.1c-0.1-0.7,0.4-1.3,1.1-1.3c0.1,0,0.1,0,0.2,0h2.3
		c0.7,0.1,1.2,0.7,1.1,1.3C751.2,604.2,750.7,604.6,750.2,604.7z"/>
	<path class="st2" d="M757.8,604.7h-2.3c-0.7-0.1-1.2-0.7-1.1-1.3c0.1-0.6,0.5-1.1,1.1-1.1h2.3c0.7,0.1,1.2,0.7,1.1,1.3
		C758.9,604.2,758.4,604.6,757.8,604.7z"/>
	<path class="st2" d="M752.8,609.7c-0.7,0-1.2-0.5-1.2-1.2l0,0v-2.3c0-0.7,0.5-1.2,1.2-1.2s1.2,0.6,1.2,1.2v2.3
		C754,609.1,753.5,609.7,752.8,609.7z"/>
	<path class="st2" d="M752.8,602c-0.7,0-1.2-0.6-1.2-1.2l0,0v-2.3c0-0.7,0.5-1.2,1.2-1.2s1.2,0.5,1.2,1.2v2.3
		C754,601.4,753.5,602,752.8,602z"/>
	<path class="st2" d="M740.2,526.7h-2.3c-0.7,0-1.2-0.5-1.2-1.2s0.5-1.2,1.2-1.2h2.3c0.7,0,1.2,0.5,1.2,1.2S740.8,526.7,740.2,526.7
		z"/>
	<path class="st2" d="M747.9,526.7h-2.3c-0.7,0-1.2-0.5-1.2-1.2s0.5-1.2,1.2-1.2h2.3c0.7,0,1.2,0.5,1.2,1.2S748.5,526.7,747.9,526.7
		z"/>
	<path class="st2" d="M742.9,531.7c-0.7,0-1.2-0.5-1.2-1.2v-2.3c0-0.7,0.5-1.2,1.2-1.2s1.2,0.5,1.2,1.2v2.3
		C744.1,531.1,743.6,531.7,742.9,531.7L742.9,531.7z"/>
	<path class="st2" d="M742.9,524c-0.7,0-1.2-0.5-1.2-1.2l0,0v-2.3c0-0.7,0.5-1.2,1.2-1.2s1.2,0.5,1.2,1.2v2.3
		C744.1,523.4,743.6,524,742.9,524L742.9,524z"/>
</g>
<g id="_x30_1">
	<circle class="st4" cx="234.3" cy="285.9" r="17.8"/>
	<ellipse class="st4" cx="216.5" cy="233.5" rx="15.3" ry="15.3"/>
	<circle class="st4" cx="171.6" cy="295.8" r="25.4"/>
	<path class="st2" d="M221.9,313.6h-40.7c-3.3,0-6.1-2.8-6.1-6v-71.3c0-3.3,2.8-6.1,6.1-6.1h40.7c3.3,0,6.1,2.8,6.1,6.1v71.3
		C227.9,310.9,225.2,313.6,221.9,313.6z M181.2,232.2c-2.3,0-4.2,1.9-4.2,4.2v71.3c0,2.3,1.9,4.2,4.2,4.2l0,0h40.7
		c2.3,0,4.2-1.9,4.2-4.2l0,0v-71.3c0-2.3-1.9-4.2-4.2-4.2l0,0L181.2,232.2L181.2,232.2z"/>
	<path class="st2" d="M224.4,303.4h-45.9c-2,0-3.5-1.5-3.5-3.5v-56c0-2,1.5-3.5,3.5-3.5h45.9c2,0,3.5,1.5,3.5,3.5v56
		C227.9,301.9,226.4,303.4,224.4,303.4L224.4,303.4z M178.6,242.4c-0.9,0-1.7,0.7-1.7,1.5l0,0v56c0,0.9,0.7,1.6,1.5,1.6l0,0h45.8
		c0.9,0,1.5-0.8,1.5-1.6v-56c0-0.9-0.7-1.5-1.5-1.7L178.6,242.4z"/>
	<path class="st2" d="M207.9,237.3h-12.8c-0.6,0-1-0.4-1-1s0.4-1,1-1h12.8c0.5,0,1,0.4,1,1S208.4,237.3,207.9,237.3L207.9,237.3z"/>
	<path class="st2" d="M188.8,308.5c-0.2,0-0.4-0.1-0.7-0.2c-0.2-0.2-0.3-0.4-0.3-0.7c0-0.2,0.1-0.6,0.3-0.7c0.3-0.3,1-0.3,1.3,0
		c0.2,0.2,0.2,0.4,0.2,0.7c0,0.2-0.1,0.4-0.3,0.7C189.3,308.4,189.1,308.5,188.8,308.5z"/>
	<path class="st2" d="M200.5,307.6c0-0.6,0.4-1,0.9-1l0,0l0,0c0.6,0,1,0.4,1,1l0,0c0,0.5-0.4,1-1,1l0,0
		C201,308.5,200.5,308.1,200.5,307.6L200.5,307.6z"/>
	<path class="st2" d="M214.3,308.5c-0.2,0-0.5-0.1-0.7-0.3c-0.2-0.2-0.3-0.4-0.2-0.7c0-0.2,0.1-0.4,0.2-0.7c0.3-0.3,1-0.3,1.3,0
		c0.2,0.2,0.2,0.4,0.2,0.7s-0.1,0.4-0.2,0.7C214.7,308.4,214.5,308.5,214.3,308.5z"/>
	<circle class="st2" cx="213" cy="236.3" r="1.3"/>
	<path class="st2" d="M241,253.8h-5.1c-1.2,0-2.2-1-2.2-2.2v-5.1c0-1.2,1-2.2,2.2-2.2h5.1c1.2,0,2.2,1,2.2,2.2v5.1
		C243.2,252.8,242.2,253.8,241,253.8z M235.8,246.2c-0.2,0-0.3,0.1-0.3,0.3v5.1c0,0.2,0.1,0.3,0.3,0.3h5.1c0.2,0,0.3-0.1,0.3-0.3
		v-5.1c0-0.2-0.1-0.3-0.3-0.3H235.8z"/>
	<path class="st2" d="M241,269.1h-5.1c-1.2,0-2.2-1-2.2-2.2v-5.1c0-1.2,1-2.2,2.2-2.2h5.1c1.2,0,2.2,1,2.2,2.2v5.1
		C243.2,268.1,242.2,269.1,241,269.1z M235.8,261.4c-0.2,0-0.3,0.1-0.3,0.3v5.1c0,0.2,0.1,0.3,0.3,0.3h5.1c0.2,0,0.3-0.1,0.3-0.3
		v-5.1c0-0.2-0.1-0.3-0.3-0.3H235.8z"/>
	<path class="st2" d="M241,284.4h-5.1c-1.2,0-2.2-1-2.2-2.2v-5.1c0-1.2,1-2.2,2.2-2.2h5.1c1.2,0,2.2,1,2.2,2.2v5.1
		C243.2,283.4,242.2,284.4,241,284.4z M235.8,276.7c-0.2,0-0.3,0.1-0.3,0.3v5.1c0,0.2,0.1,0.3,0.3,0.3h5.1c0.2,0,0.3-0.1,0.3-0.3
		V277c0-0.2-0.1-0.3-0.3-0.3H235.8z"/>
	<path class="st2" d="M241,299.6h-5.1c-1.2,0-2.2-1-2.2-2.2v-5.1c0-1.2,1-2.2,2.2-2.2h5.1c1.2,0,2.2,1,2.2,2.2v5.1
		C243.2,298.6,242.2,299.6,241,299.6L241,299.6z M235.8,292c-0.2,0-0.3,0.1-0.3,0.3v5.1c0,0.2,0.1,0.3,0.3,0.3h5.1
		c0.2,0,0.3-0.1,0.3-0.3v-5.1c0-0.2-0.1-0.3-0.3-0.3H235.8z"/>
	<path class="st2" d="M167.2,253.8h-5.1c-1.2,0-2.2-1-2.2-2.2v-5.1c0-1.2,1-2.2,2.2-2.2h5.1c1.2,0,2.2,1,2.2,2.2v5.1
		C169.4,252.8,168.4,253.8,167.2,253.8z M162,246.2c-0.2,0-0.3,0.1-0.3,0.3l0,0v5.1c0,0.2,0.1,0.3,0.3,0.3l0,0h5.1
		c0.2,0,0.3-0.1,0.3-0.3l0,0v-5.1c0-0.2-0.1-0.3-0.3-0.3l0,0H162z"/>
	<path class="st2" d="M167.2,269.1h-5.1c-1.2,0-2.2-1-2.2-2.2v-5.1c0-1.2,1-2.2,2.2-2.2h5.1c1.2,0,2.2,1,2.2,2.2v5.1
		C169.4,268.1,168.4,269.1,167.2,269.1z M162,261.4c-0.2,0-0.3,0.1-0.3,0.3l0,0v5.1c0,0.2,0.1,0.3,0.3,0.3l0,0h5.1
		c0.2,0,0.3-0.1,0.3-0.3l0,0v-5.1c0-0.2-0.1-0.3-0.3-0.3l0,0H162z"/>
	<path class="st2" d="M167.2,284.4h-5.1c-1.2,0-2.2-1-2.2-2.2v-5.1c0-1.2,1-2.2,2.2-2.2h5.1c1.2,0,2.2,1,2.2,2.2v5.1
		C169.4,283.4,168.4,284.4,167.2,284.4z M162,276.7c-0.2,0-0.3,0.1-0.3,0.3l0,0v5.1c0,0.2,0.1,0.3,0.3,0.3l0,0h5.1
		c0.2,0,0.3-0.1,0.3-0.3l0,0V277c0-0.2-0.1-0.3-0.3-0.3l0,0H162z"/>
	<path class="st2" d="M167.2,299.6h-5.1c-1.2,0-2.2-1-2.2-2.2v-5.1c0-1.2,1-2.2,2.2-2.2h5.1c1.2,0,2.2,1,2.2,2.2v5.1
		C169.4,298.6,168.4,299.6,167.2,299.6L167.2,299.6z M162,292c-0.2,0-0.3,0.1-0.3,0.3l0,0v5.1c0,0.2,0.1,0.3,0.3,0.3l0,0h5.1
		c0.2,0,0.3-0.1,0.3-0.3l0,0v-5.1c0-0.2-0.1-0.3-0.3-0.3l0,0H162z"/>
	<path class="st2" d="M211.7,290.7h-20.5c-4.7,0-8.6-3.9-8.6-8.6v-20.4c0-4.7,3.9-8.6,8.6-8.6h20.5c4.7,0,8.6,3.9,8.6,8.6v20.4
		C220.3,286.8,216.5,290.7,211.7,290.7z M191.4,255c-3.7,0-6.7,3-6.7,6.7v20.4c0,3.7,3,6.7,6.7,6.7h20.3c3.7,0,6.7-3,6.7-6.7l0,0
		v-20.4c0-3.7-3-6.7-6.7-6.7L191.4,255L191.4,255z"/>
	<path class="st2" d="M196.5,274.2h-6.4c-0.5,0-1-0.4-1-1s0.4-1,1-1h6.4c0.6,0,1,0.4,1,1C197.3,273.7,196.9,274.2,196.5,274.2
		L196.5,274.2z"/>
	<path class="st2" d="M196.5,281.9c-0.6,0-1-0.4-1-1v-14.6c0-1.2-1-2.2-2.2-2.2s-2.2,1-2.2,2.2v14.6c0,0.6-0.4,1-1,1
		c-0.5,0-1-0.4-1-1l0,0v-14.6c0-2.3,1.9-4.2,4.2-4.2s4.2,1.9,4.2,4.2v14.6C197.3,281.4,196.9,281.9,196.5,281.9L196.5,281.9z"/>
	<path class="st2" d="M204,274.2h-2.5c-0.6,0-1-0.4-1-1l0,0V263c0-0.6,0.4-1,0.9-1l0,0h2.5c2.6,0,4.7,2.1,4.7,4.7v2.5
		C208.8,272.1,206.7,274.2,204,274.2z M202.4,272.3h1.6c1.5,0,2.9-1.3,2.9-2.9v-2.5c0-1.5-1.3-2.9-2.9-2.9h-1.6V272.3z"/>
	<path class="st2" d="M213,281.9c-0.6,0-1-0.4-1-1V263c-0.1-0.5,0.3-1,0.9-1.1c0.6-0.1,1,0.3,1.1,0.9c0,0.1,0,0.1,0,0.2v17.8
		C213.9,281.4,213.5,281.8,213,281.9z"/>
	<path class="st2" d="M201.5,281.9c-0.6,0-1-0.4-1-1l0,0V263c-0.1-0.5,0.3-1,0.9-1.1c0.6-0.1,1,0.3,1.1,0.9c0,0.1,0,0.1,0,0.2v17.8
		C202.5,281.4,202.1,281.9,201.5,281.9L201.5,281.9z"/>
	<path class="st2" d="M234.6,265.2h-15.3c-0.6,0-1-0.4-1-1s0.4-1,1-1l0,0h15.3c0.6,0,1,0.4,1,1C235.5,264.8,235.1,265.2,234.6,265.2
		z"/>
	<path class="st2" d="M209.1,255c-0.6,0-1-0.4-1-1v-5c0-0.5,0.4-1,1-1h25.4c0.6-0.1,1,0.3,1.1,0.9c0.1,0.6-0.3,1-0.9,1.1
		c-0.1,0-0.1,0-0.2,0H210v4.2C210.1,254.7,209.7,255.1,209.1,255z"/>
	<path class="st2" d="M234.6,295.8h-25.4c-0.6,0-1-0.4-1-0.9l0,0v-5.1c-0.1-0.5,0.3-1,0.9-1.1c0.6-0.1,1,0.3,1.1,0.9
		c0,0.1,0,0.1,0,0.2v4.2h24.5c0.6-0.1,1,0.3,1.1,0.9s-0.3,1-0.9,1.1C234.7,295.8,234.6,295.8,234.6,295.8L234.6,295.8z"/>
	<path class="st2" d="M234.6,280.5h-15.3c-0.6,0.1-1-0.3-1.1-0.9s0.3-1,0.9-1.1c0.1,0,0.1,0,0.2,0h15.3c0.6-0.1,1,0.3,1.1,0.9
		c0.1,0.5-0.3,1-0.9,1.1C234.7,280.5,234.6,280.5,234.6,280.5z"/>
	<path class="st2" d="M183.7,265.2h-15.3c-0.5,0-1-0.4-1-1s0.4-1,1-1h15.3c0.6,0,1,0.4,1,1C184.7,264.8,184.2,265.2,183.7,265.2z"/>
	<path class="st2" d="M183.7,280.5h-15.3c-0.5-0.1-0.9-0.5-0.9-1.1c0-0.4,0.4-0.8,0.9-0.9h15.3c0.6,0.1,0.9,0.5,0.9,1.1
		C184.5,280.1,184.1,280.4,183.7,280.5z"/>
	<path class="st2" d="M193.9,295.8h-25.4c-0.6-0.1-0.9-0.5-0.9-1.1c0-0.4,0.4-0.8,0.9-0.9H193v-4.2c-0.1-0.5,0.3-1,0.9-1.1
		s1,0.3,1.1,0.9c0,0.1,0,0.1,0,0.2v5.1C194.8,295.4,194.4,295.8,193.9,295.8L193.9,295.8z"/>
	<path class="st2" d="M193.9,255c-0.6,0-1-0.4-1-1v-4.2h-24.5c-0.5-0.1-0.9-0.5-0.9-1.1c0-0.4,0.4-0.8,0.9-0.9h25.4c0.5,0,1,0.4,1,1
		v5.1C194.8,254.7,194.4,255.1,193.9,255z"/>
	<path class="st2" d="M247.3,229.6h-5.1c-0.6,0.1-1-0.3-1.1-0.9c-0.1-0.6,0.3-1,0.9-1.1c0.1,0,0.1,0,0.2,0h5.1
		c0.6-0.1,1,0.3,1.1,0.9c0.1,0.6-0.3,1-0.9,1.1C247.5,229.6,247.4,229.6,247.3,229.6z"/>
	<path class="st2" d="M244.7,232.1c-0.6,0-1-0.4-1-1V226c0-0.5,0.4-1,1-1s1,0.4,1,1v5.1C245.7,231.7,245.3,232.1,244.7,232.1z"/>
	<path class="st2" d="M170.9,232.1h-5.1c-0.6,0-1-0.4-1-1s0.4-1,1-1h5.1c0.5,0,1,0.4,1,1C171.9,231.7,171.5,232.1,170.9,232.1
		L170.9,232.1z"/>
	<path class="st2" d="M168.4,234.7c-0.5,0-1-0.4-1-1v-5.1c-0.1-0.6,0.3-1,0.9-1.1c0.6-0.1,1,0.3,1.1,0.9c0,0.1,0,0.1,0,0.2v5.1
		C169.4,234.3,169,234.7,168.4,234.7L168.4,234.7z"/>
	<path class="st2" d="M238.4,237.3h-5.1c-0.6,0-1-0.4-1-1s0.4-1,1-1h5.1c0.6,0,1,0.4,1,1C239.4,236.9,238.9,237.3,238.4,237.3z"/>
	<path class="st2" d="M235.8,239.8c-0.6,0-1-0.4-1-1v-5.1c0-0.6,0.4-1,1-1s1,0.4,1,1v5.1C236.8,239.4,236.4,239.8,235.8,239.8z"/>
	<path class="st2" d="M160.8,308.6h-5.1c-0.6,0-1-0.4-1-1s0.4-1,1-1h5.1c0.5,0,1,0.4,1,1C161.7,308.1,161.3,308.5,160.8,308.6z"/>
	<path class="st2" d="M158.3,311.1c-0.6,0-1-0.4-1-1V305c0-0.5,0.4-1,1-1s1,0.4,1,1v5.1C159.2,310.7,158.7,311.1,158.3,311.1z"/>
	<path class="st2" d="M172.3,316.2h-5.1c-0.5,0-1-0.4-1-1s0.4-1,1-1h5.1c0.6,0,1,0.4,1,1C173.2,315.7,172.8,316.2,172.3,316.2z"/>
	<path class="st2" d="M169.7,318.7c-0.6,0-1-0.4-1-0.9l0,0v-5.1c0-0.6,0.4-1,1-1c0.5,0,1,0.4,1,1v5.1
		C170.6,318.3,170.3,318.7,169.7,318.7L169.7,318.7z"/>
	<path class="st2" d="M239.7,311.1h-5.1c-0.5-0.1-0.9-0.5-0.9-1.1c0-0.4,0.4-0.8,0.9-0.9h5.1c0.6-0.1,1,0.3,1.1,0.9
		c0.1,0.5-0.3,1-0.9,1.1C239.8,311.1,239.8,311.1,239.7,311.1z"/>
	<path class="st2" d="M237.2,313.6c-0.6,0-1-0.4-1-1v-5.1c0-0.6,0.4-1,1-1s1,0.4,1,1v5.1C238.1,313.2,237.7,313.6,237.2,313.6z"/>
</g>
<g id="_x30_5">
	<circle class="st4" cx="610.3" cy="264" r="27.7"/>
	<circle class="st4" cx="632.5" cy="342.5" r="23.8"/>
	<circle class="st4" cx="707.3" cy="252.2" r="39.6"/>
	<path class="st2" d="M689.5,355.3H638c-0.8,0-1.4-0.7-1.4-1.5v-11.9c0-0.8,0.7-1.5,1.4-1.5h51.5c0.8,0,1.4,0.7,1.4,1.4l0,0v12.1
		C690.9,354.7,690.2,355.3,689.5,355.3z M639.4,352.4h48.5v-8.9h-48.5V352.4z"/>
	<path class="st2" d="M721.2,343.5H606.3c-4.1,0-7.4-3.3-7.5-7.5v-6c0-0.8,0.7-1.5,1.4-1.5H727c0.8,0,1.4,0.7,1.4,1.4l0,0v5.9
		C728.5,340.2,725.2,343.5,721.2,343.5z M601.8,331.6v4.4c0,2.4,2,4.4,4.4,4.4H721c2.4,0,4.4-2,4.4-4.4v-4.4H601.8z"/>
	<path class="st2" d="M703.3,355.3h-79.2c-0.8,0-1.4-0.7-1.4-1.5c0-0.9,0.7-1.5,1.4-1.5h79.2c0.8,0,1.4,0.7,1.4,1.5
		C704.8,354.7,704.1,355.3,703.3,355.3z"/>
	<circle class="st2" cx="663.7" cy="336.1" r="1.4"/>
	<path class="st2" d="M727.1,331.6H600.4c-0.8,0-1.4-0.7-1.4-1.5v-73.3c0-4.1,3.3-7.4,7.5-7.5h114.8c4.1,0,7.4,3.3,7.5,7.5V330
		C728.5,330.9,727.9,331.6,727.1,331.6L727.1,331.6z M601.8,328.6h123.8v-71.7c0-2.4-2-4.4-4.4-4.4H606.3c-2.4,0-4.4,2-4.4,4.4
		L601.8,328.6z"/>
	<path class="st2" d="M713.2,331.6h-99c-0.8,0-1.4-0.7-1.4-1.5V243c0-0.8,0.7-1.5,1.4-1.5h99c0.8,0,1.4,0.7,1.4,1.4l0,0V330
		C714.7,330.9,714,331.6,713.2,331.6z M615.7,328.6h96v-84.1h-96V328.6z"/>
	<path class="st2" d="M697.4,321.7h-67.3c-3,0-5.4-2.4-5.5-5.5v-7.9c0-3,2.4-5.4,5.5-5.5h67.3c3,0,5.4,2.4,5.5,5.5v7.9
		C702.8,319.3,700.4,321.7,697.4,321.7z M630.1,305.8c-1.3,0-2.4,1.1-2.4,2.4l0,0v7.9c0,1.3,1.1,2.4,2.4,2.4l0,0h67.3
		c1.3,0,2.4-1.1,2.4-2.4l0,0v-7.9c0-1.3-1.1-2.4-2.4-2.4l0,0H630.1z"/>
	<path class="st2" d="M713.2,244.5h-99c-0.8,0-1.4-0.7-1.4-1.5v-12c0-3.1,2.4-5.5,5.5-5.5h91.1c3.1,0,5.5,2.4,5.5,5.5v11.9
		c0,0.8-0.7,1.5-1.4,1.5C713.2,244.5,713.2,244.5,713.2,244.5z M615.7,241.5h96v-10.3c0-1.3-1.1-2.4-2.4-2.4l0,0h-91.1
		c-1.3,0-2.4,1.1-2.4,2.4l0,0L615.7,241.5L615.7,241.5z"/>
	<path class="st2" d="M703.3,236.5c-0.4,0-0.8-0.1-1.1-0.4c-0.5-0.5-0.5-1.5,0-2.1l0,0c0.5-0.5,1.5-0.5,2.1,0
		c0.3,0.3,0.4,0.7,0.4,1.1c0,0.4-0.1,0.8-0.4,1C704,236.4,703.7,236.5,703.3,236.5z"/>
	<path class="st2" d="M691.9,235.1c0-0.8,0.7-1.4,1.4-1.5l0,0l0,0c0.8,0,1.4,0.7,1.4,1.4l0,0l0,0c0,0.8-0.7,1.4-1.4,1.5l0,0
		C692.6,236.5,691.9,235.9,691.9,235.1z"/>
	<path class="st2" d="M683.5,236.5c-0.8,0-1.4-0.7-1.4-1.5c0-0.4,0.1-0.8,0.4-1.1c0.5-0.6,1.5-0.6,2.1,0c0.3,0.3,0.4,0.7,0.4,1.1
		c0,0.4-0.1,0.8-0.4,1C684.3,236.4,683.9,236.5,683.5,236.5z"/>
	<path class="st2" d="M636,314.3c-0.5,0-1-0.2-1.4-0.5c-0.3-0.3-0.5-0.9-0.5-1.4s0.2-1,0.5-1.4c0.8-0.8,2-0.8,2.8,0
		c0.3,0.3,0.6,0.9,0.6,1.4C638,313.4,637.1,314.3,636,314.3z"/>
	<path class="st2" d="M678.4,312.3c0-1.1,0.9-2,2-2l0,0c1.1,0,2,0.9,2,2l0,0c0,1.1-0.9,2-2,2l0,0l0,0
		C679.2,314.3,678.4,313.4,678.4,312.3L678.4,312.3z M667.3,312.3c0-1.1,0.9-2,2-2l0,0c1.1,0,2,0.9,2,2l0,0c0,1.1-0.9,2-2,2l0,0
		C668.1,314.3,667.3,313.4,667.3,312.3z M656.1,312.3c0-1.1,0.9-2,2-2l0,0l0,0c1.1,0,2,0.9,2,2l0,0c0,1.1-0.9,2-2,2l0,0
		C657.1,314.3,656.1,313.4,656.1,312.3L656.1,312.3L656.1,312.3z M645.1,312.3c0-1.1,0.9-2,2-2l0,0c1.1,0,2,0.9,2,2l0,0
		c0,1.1-0.9,2-2,2l0,0C646,314.2,645.1,313.3,645.1,312.3L645.1,312.3z"/>
	<path class="st2" d="M691.5,314.3c-0.5,0-1-0.2-1.4-0.5c-0.8-0.8-0.8-2.1,0-2.9l0,0c0.8-0.8,2-0.8,2.8,0c0.3,0.3,0.5,0.9,0.5,1.4
		s-0.2,1-0.5,1.4C692.4,314.1,692,314.3,691.5,314.3z"/>
	<path class="st2" d="M697.4,295.9h-67.3c-3,0-5.4-2.4-5.5-5.5v-7.9c0-3,2.4-5.5,5.5-5.5h67.3c3,0,5.5,2.5,5.5,5.5v7.9
		C702.8,293.5,700.4,295.9,697.4,295.9z M630.1,280.1c-1.3,0-2.4,1.1-2.4,2.4v7.9c0,1.3,1.1,2.4,2.4,2.4h67.3c1.3,0,2.4-1.1,2.4-2.4
		v-7.9c0-1.3-1.1-2.4-2.4-2.4H630.1z"/>
	<path class="st2" d="M693.4,280.1H634c-0.8,0-1.4-0.7-1.4-1.5v-2c0-14,11.3-25.3,25.3-25.3h11.9c14,0,25.3,11.3,25.3,25.3v2
		c0,0.8-0.7,1.5-1.4,1.5C693.4,280.1,693.4,280.1,693.4,280.1z M635.5,277.1h56.4v-0.5c0-12.3-10-22.2-22.2-22.2h-11.9
		c-12.3,0-22.2,10-22.2,22.2L635.5,277.1L635.5,277.1z"/>
	<path class="st2" d="M685.5,280.1H642c-0.8,0-1.4-0.7-1.4-1.5v-2c0-9.6,7.8-17.3,17.3-17.4h11.9c9.6,0,17.3,7.8,17.3,17.4v2
		C686.9,279.4,686.3,280.1,685.5,280.1z M643.4,277.1H684v-0.5c0-7.9-6.4-14.3-14.3-14.3h-11.9c-7.9,0-14.3,6.4-14.3,14.3
		L643.4,277.1z"/>
	<path class="st2" d="M691.5,288h-17.4c-0.8,0-1.5-0.7-1.5-1.5s0.7-1.5,1.5-1.5h17.4c0.8,0,1.5,0.7,1.5,1.5S692.2,288,691.5,288
		L691.5,288z"/>
	<path class="st2" d="M664.2,288H636c-0.8,0-1.5-0.7-1.5-1.5s0.7-1.5,1.5-1.5h28.2c0.8,0,1.5,0.7,1.5,1.5S665.1,288,664.2,288
		L664.2,288z"/>
	<path class="st2" d="M739,248.2h-7.9c-0.8,0-1.4-0.7-1.4-1.5s0.7-1.5,1.4-1.5h7.9c0.8,0,1.4,0.7,1.4,1.5S739.7,248.2,739,248.2z"/>
	<path class="st2" d="M735,252.2c-0.8,0-1.4-0.7-1.4-1.5v-7.8c0-0.8,0.7-1.5,1.5-1.5s1.4,0.7,1.4,1.5v7.9
		C736.4,251.5,735.8,252.2,735,252.2z"/>
	<circle class="st2" cx="735" cy="258.6" r="1.4"/>
	<circle class="st2" cx="735" cy="264.6" r="1.4"/>
	<circle class="st2" cx="735" cy="272.5" r="1.4"/>
	<circle class="st2" cx="735" cy="284.4" r="1.4"/>
	<path class="st2" d="M596.4,347.4h-7.9c-0.8,0-1.4-0.7-1.4-1.5c0-0.9,0.7-1.5,1.4-1.5h7.9c0.8,0,1.5,0.7,1.5,1.5
		C598,346.8,597.2,347.4,596.4,347.4z"/>
	<path class="st2" d="M592.5,351.4c-0.8,0-1.4-0.7-1.4-1.5V342c0-0.8,0.7-1.5,1.5-1.5s1.4,0.7,1.4,1.5v7.9
		C593.9,350.7,593.2,351.4,592.5,351.4L592.5,351.4z"/>
	<circle class="st2" cx="592.5" cy="334.1" r="1.4"/>
	<circle class="st2" cx="592.5" cy="326.2" r="1.4"/>
	<circle class="st2" cx="592.5" cy="316.3" r="1.4"/>
	<circle class="st2" cx="592.5" cy="302.4" r="1.4"/>
</g>
<g id="_x30_4">
	<circle class="st4" cx="376.4" cy="600.6" r="49.8"/>
	<circle class="st4" cx="418.3" cy="516.7" r="39.4"/>
	<circle class="st4" cx="463" cy="653.1" r="26.2"/>
	<path class="st2" d="M483.9,662.9H360.6c-5.4,0-9.8-4.4-9.8-9.8V521.9c0-5.4,4.4-9.8,9.8-9.9h144.3c1.1,0,2,0.9,2,2v125.9
		C506.9,652.6,496.6,662.9,483.9,662.9L483.9,662.9z M360.6,516c-3.3,0-5.9,2.6-5.9,5.9V653c0,3.3,2.6,5.9,5.9,5.9h123.3
		c10.6,0,19-8.6,19-19l0,0V516H360.6z"/>
	<path class="st2" d="M504.9,641.9c-1.1,0-2-0.9-2-2c0-10.4-8.5-19-19-19c-1.1,0-2-0.9-2-2V493.1c0-1.1,0.9-2,2-2
		c12.6,0,22.9,10.2,23,23v125.8C506.9,641,506,641.9,504.9,641.9L504.9,641.9z M485.9,617.1c6.9,0.5,13.2,4.3,17.1,10v-113
		c0-9.7-7.4-17.9-17.1-18.9V617.1z"/>
	<path class="st2" d="M411.1,505.5c-1.1,0-2-0.9-2-2V493c0-1.1,0.9-2,2-2s2,0.9,2,2v10.5C413.2,504.6,412.3,505.5,411.1,505.5
		C411.2,505.5,411.2,505.5,411.1,505.5z"/>
	<path class="st2" d="M416.3,500.3h-10.4c-1.1,0.1-2-0.8-2.1-1.9s0.8-2,1.9-2.1c0.1,0,0.2,0,0.3,0h10.5c1.1-0.1,2,0.8,2.1,1.9
		s-0.8,2-1.9,2.1C416.6,500.3,416.5,500.3,416.3,500.3z"/>
	<circle class="st2" cx="426.9" cy="498.3" r="2"/>
	<circle class="st2" cx="434.7" cy="498.3" r="2"/>
	<circle class="st2" cx="445.2" cy="498.3" r="2"/>
	<circle class="st2" cx="461" cy="498.3" r="2"/>
	<path class="st2" d="M436.7,652.5c-1.1,0-2-0.9-2-2V640c0-1.1,0.9-2,2-2s2,0.9,2,2v10.5C438.7,651.6,437.8,652.5,436.7,652.5
		L436.7,652.5z"/>
	<path class="st2" d="M442,647.2h-10.5c-1.1,0.1-2-0.8-2.1-1.9c-0.1-1.1,0.8-2,1.9-2.1c0.1,0,0.2,0,0.3,0H442c1.1-0.1,2,0.8,2.1,1.9
		c0.1,1.1-0.8,2-1.9,2.1C442.1,647.2,442.1,647.2,442,647.2z"/>
	<circle class="st2" cx="421" cy="645.2" r="2"/>
	<circle class="st2" cx="413" cy="645.2" r="2"/>
	<circle class="st2" cx="402.6" cy="645.2" r="2"/>
	<circle class="st2" cx="386.9" cy="645.2" r="2"/>
	<path class="st2" d="M389,531.8h-23.1c-1.1,0-2-0.9-2-2s0.9-2,2-2H389c1.1,0,2,0.9,2,2C390.9,530.9,390.1,531.8,389,531.8z"/>
	<path class="st2" d="M405.2,531.8h-5.8c-1.1,0-2-0.9-2-2s0.9-2,2-2h5.8c1.1,0,2,0.9,2,2C407.2,530.9,406.3,531.8,405.2,531.8z"/>
	<path class="st2" d="M405.2,634.1c-38.3,0-68.5-43.6-69.9-45.4c-0.4-0.7-0.4-1.5,0-2.2c1.3-1.9,31.6-45.4,69.9-45.4
		s68.5,43.6,69.9,45.4c0.4,0.7,0.4,1.5,0,2.2C473.8,590.4,443.5,634.1,405.2,634.1z M339.5,587.4c5,6.8,32.9,42.7,65.8,42.7
		s60.7-35.8,65.8-42.7c-4.9-6.8-32.9-42.7-65.8-42.7S344.4,580.7,339.5,587.4z"/>
	<path class="st2" d="M405.2,624.8c-20.7,0-37.4-16.7-37.4-37.4s16.7-37.4,37.4-37.4s37.4,16.7,37.4,37.4S425.9,624.8,405.2,624.8
		L405.2,624.8z M405.2,554.1c-18.5,0-33.4,15-33.4,33.4c0,18.5,15,33.4,33.4,33.4c18.5,0,33.4-15,33.4-33.4l0,0
		C438.6,569.1,423.7,554.1,405.2,554.1L405.2,554.1z"/>
	<path class="st2" d="M405.2,606.5c-10.5,0-19-8.5-19-19c0-10.6,8.5-19,19-19s19,8.5,19,19l0,0C424.3,598,415.7,606.5,405.2,606.5z
		 M405.2,572.4c-8.4,0-15.1,6.7-15.1,15.1s6.7,15.1,15.1,15.1s15.1-6.7,15.1-15.1l0,0C420.3,579.2,413.6,572.5,405.2,572.4z"/>
	<path class="st2" d="M417.4,585.1c-5.4,0-9.8-4.4-9.8-9.8c0-5.4,4.4-9.8,9.8-9.8s9.8,4.4,9.8,9.8
		C427.2,580.7,422.8,585.1,417.4,585.1z M417.4,569.4c-3.3,0-5.9,2.6-5.9,5.9c0,3.3,2.6,5.9,5.9,5.9s5.9-2.6,5.9-5.9l0,0
		C423.4,572,420.7,569.4,417.4,569.4z"/>
	<path class="st2" d="M446.3,545.9c-4,0-7.3-3.2-7.3-7.3s3.2-7.3,7.3-7.3s7.3,3.2,7.3,7.3l0,0C453.4,542.6,450.2,545.9,446.3,545.9z
		 M446.3,535.3c-1.9,0-3.3,1.4-3.3,3.3s1.4,3.3,3.3,3.3s3.3-1.4,3.3-3.3S448,535.3,446.3,535.3z"/>
	<path class="st2" d="M472.4,640.2c-4,0-7.3-3.2-7.3-7.3s3.2-7.3,7.3-7.3s7.3,3.2,7.3,7.3l0,0C479.7,637.1,476.4,640.2,472.4,640.2z
		 M472.4,629.8c-1.9,0-3.3,1.4-3.3,3.3c0,1.9,1.4,3.3,3.3,3.3s3.3-1.4,3.3-3.3C475.7,631.2,474.3,629.8,472.4,629.8z"/>
</g>
</svg>
