<?xml version="1.0" encoding="utf-8"?>
<!-- Generator: Adobe Illustrator 26.0.3, SVG Export Plug-In . SVG Version: 6.00 Build 0)  -->
<svg version="1.1" id="responsive" xmlns="http://www.w3.org/2000/svg" xmlns:xlink="http://www.w3.org/1999/xlink" x="0px" y="0px"
	 viewBox="0 0 1352 800" style="enable-background:new 0 0 1352 800;" xml:space="preserve">
<style type="text/css">
	.st0{fill:none;stroke:#FFFFFF;stroke-width:7;stroke-miterlimit:10;}
	.st1{fill:#00CC61;}
	.st2{fill:#FFFFFF;}
	.st3{fill:none;stroke:#FFFFFF;stroke-width:3;stroke-miterlimit:10;}
	.st4{opacity:0.2;fill:#00CC61;enable-background:new    ;}
	.st5{opacity:0.2;}
</style>
<rect x="839.5" y="50.8" class="st0" width="196.8" height="196.8"/>
<rect x="299.2" y="28.8" class="st0" width="196.8" height="196.8"/>
<rect x="3.8" y="194.6" class="st0" width="196.8" height="196.8"/>
<rect x="559.3" y="460.8" class="st0" width="196.8" height="196.8"/>
<rect x="1110.1" y="386.4" class="st0" width="238" height="238"/>
<rect x="1076.3" y="188.6" class="st0" width="153" height="153"/>
<rect x="360.5" y="597.1" class="st0" width="153" height="153"/>
<rect x="620.1" y="0.2" class="st1" width="84.4" height="84.4"/>
<rect x="865.9" y="284.6" class="st1" width="84.4" height="84.4"/>
<rect x="140" y="419.7" class="st1" width="84.4" height="84.4"/>
<rect x="554.3" y="715.4" class="st1" width="84.4" height="84.4"/>
<rect x="59.5" y="479.5" class="st2" width="56.2" height="56.2"/>
<rect x="112" y="107" class="st3" width="56.2" height="56.2"/>
<rect x="669.3" y="694" class="st2" width="56.2" height="56.2"/>
<rect x="1109.5" y="692.4" class="st3" width="56.2" height="56.2"/>
<rect x="963.7" y="342.6" class="st2" width="56.2" height="56.2"/>
<rect x="546.1" y="58.2" class="st2" width="56.2" height="56.2"/>
<rect x="570.7" y="157.3" class="st0" width="238" height="238"/>
<rect x="788.6" y="429.9" class="st0" width="275.7" height="275.7"/>
<rect x="254.9" y="285" class="st0" width="275.7" height="275.7"/>
<g id="_x31_0_00000027564375609387812120000000262648067999771839_">
	<path class="st1" d="M1315.2,453.7h-9.2c-1,0-1.8-0.8-1.8-1.8s0.8-1.8,1.8-1.8h9.2c1,0,1.8,0.8,1.8,1.8S1316.1,453.7,1315.2,453.7z
		"/>
	<path class="st1" d="M1310.5,458.4c-1,0-1.8-0.8-1.8-1.8v-9.2c0-1,0.8-1.8,1.8-1.8s1.8,0.8,1.8,1.8v9.2
		C1312.3,457.6,1311.4,458.4,1310.5,458.4L1310.5,458.4z"/>
	<circle class="st1" cx="1310.5" cy="465.9" r="1.8"/>
	<circle class="st1" cx="1310.5" cy="472.9" r="1.8"/>
	<circle class="st1" cx="1310.5" cy="484.4" r="1.8"/>
	<circle class="st1" cx="1310.5" cy="498.3" r="1.8"/>
	<circle class="st4" cx="1287.9" cy="512.6" r="32.5"/>
	<circle class="st4" cx="1248.9" cy="445.6" r="27.8"/>
	<path class="st4" d="M1220.8,551c0,25.6-20.7,46.3-46.3,46.3c-25.6,0-46.3-20.7-46.3-46.3c0-25.6,20.7-46.3,46.3-46.3l0,0
		C1200.1,504.7,1220.8,525.5,1220.8,551z"/>
	<path class="st1" d="M1259.6,581.1h-60.2c-1,0-1.8-0.8-1.8-1.8v-13.9c0-1,0.8-1.8,1.8-1.8l0,0h60.2c1,0,1.8,0.8,1.8,1.8l0,0v13.9
		C1261.3,580.3,1260.5,581.1,1259.6,581.1z M1201.1,577.6h56.8v-10.5h-56.8V577.6z"/>
	<path class="st1" d="M1296.6,567.3h-134.3c-4.8,0-8.7-3.9-8.7-8.7v-6.9c0-1,0.8-1.8,1.8-1.8l0,0h148.2c1,0,1.8,0.8,1.8,1.8v6.9
		C1305.3,563.3,1301.4,567.1,1296.6,567.3z M1157.1,553.3v5.2c0,2.9,2.3,5.2,5.2,5.2h134.3c2.9,0,5.2-2.3,5.2-5.2v-5.2H1157.1z"/>
	<path class="st1" d="M1275.8,581.1h-92.6c-1,0.1-1.8-0.7-1.9-1.5c-0.1-1,0.7-1.8,1.5-1.9c0.1,0,0.2,0,0.3,0h92.6
		c1,0.1,1.7,0.9,1.5,1.9C1277.3,580.3,1276.7,581,1275.8,581.1z"/>
	<circle class="st1" cx="1229.5" cy="558.6" r="1.8"/>
	<path class="st1" d="M1303.6,553.3h-148.2c-1,0-1.8-0.8-1.8-1.8v-85.7c0-4.8,3.8-8.7,8.7-8.7h134.3c4.8,0,8.7,3.9,8.7,8.7v85.7
		C1305.3,552.5,1304.5,553.3,1303.6,553.3z M1157.1,549.8h144.8v-83.9c0-2.9-2.3-5.2-5.2-5.2h-134.3c-2.9,0-5.2,2.3-5.2,5.2v83.9
		H1157.1z"/>
	<path class="st1" d="M1289.6,553.3h-120.4c-1,0-1.8-0.8-1.8-1.8V449.7c0-1,0.8-1.8,1.8-1.8h120.4c1,0,1.8,0.8,1.8,1.8v101.9
		C1291.4,552.5,1290.6,553.3,1289.6,553.3z M1171.1,549.8H1288v-98.3h-116.9V549.8z"/>
	<path class="st1" d="M1289.6,451.4h-120.4c-1,0-1.8-0.8-1.8-1.8l0,0v-13.9c0-3.5,2.9-6.4,6.4-6.4h111.1c3.5,0,6.4,2.9,6.4,6.4v13.9
		C1291.4,450.7,1290.6,451.4,1289.6,451.4z M1171.1,447.9H1288v-12.1c0-1.6-1.3-2.9-2.9-2.9l0,0H1174c-1.6,0-2.9,1.3-2.9,2.9l0,0
		L1171.1,447.9z"/>
	<path class="st1" d="M1278.1,442.2c-0.4,0-0.9-0.2-1.2-0.5c-0.3-0.3-0.6-0.8-0.6-1.2c0-0.4,0.2-0.9,0.4-1.2c0.7-0.7,1.8-0.7,2.4,0
		c0.3,0.3,0.5,0.8,0.5,1.2c0,0.4-0.2,0.9-0.5,1.2C1279,442,1278.5,442.2,1278.1,442.2z"/>
	<path class="st1" d="M1264.8,440.4c0-1,0.8-1.8,1.8-1.8l0,0l0,0c1,0,1.8,0.8,1.8,1.8l0,0c0,1-0.8,1.8-1.8,1.8l0,0
		C1265.5,442.2,1264.8,441.4,1264.8,440.4z"/>
	<path class="st1" d="M1255,442.2c-0.4,0-0.9-0.2-1.2-0.5s-0.4-0.8-0.4-1.2c0-1,0.8-1.8,1.8-1.8c0.4,0,0.9,0.2,1.2,0.4
		c0.3,0.3,0.6,0.8,0.6,1.2s-0.2,0.9-0.6,1.2C1255.9,442,1255.4,442.2,1255,442.2z"/>
	<path class="st1" d="M1217.9,493.1h-23.2c-1,0-1.8-0.8-1.8-1.8c0-0.4,0.1-0.8,0.4-1.1l11.7-13.9c0.7-0.8,1.8-0.8,2.5-0.1l0.1,0.1
		l11.5,13.9c0.7,0.8,0.6,1.9-0.2,2.4C1218.8,493,1218.4,493.1,1217.9,493.1L1217.9,493.1z M1198.4,489.6h15.7l-7.9-9.5L1198.4,489.6
		z"/>
	<path class="st1" d="M1241,493.1h-23.2c-1,0-1.8-0.8-1.8-1.8c0-0.4,0.1-0.8,0.4-1.1l11.7-13.9c0.7-0.8,1.8-0.8,2.5-0.1l0.1,0.1
		l11.6,13.9c0.4,0.5,0.5,1.2,0.2,1.9C1242.3,492.8,1241.7,493.1,1241,493.1z M1221.5,489.6h15.7l-7.9-9.5L1221.5,489.6z"/>
	<path class="st1" d="M1264.2,493.1H1241c-1,0-1.8-0.8-1.8-1.8c0-0.4,0.1-0.8,0.4-1.1l11.5-13.9c0.3-0.4,0.8-0.7,1.3-0.7l0,0
		c0.6,0,1,0.2,1.3,0.7l11.7,13.9c0.4,0.5,0.5,1.2,0.2,1.9C1265.5,492.8,1264.9,493.1,1264.2,493.1z M1244.8,489.6h15.7l-7.9-9.5
		L1244.8,489.6z"/>
	<path class="st1" d="M1241,493.1L1241,493.1c-0.6,0-1-0.2-1.3-0.7l-11.6-13.9c-0.4-0.5-0.6-1.2-0.2-1.9s0.9-1,1.5-1h23.2
		c1,0,1.8,0.8,1.8,1.8c0,0.4-0.1,0.8-0.4,1.1l-11.5,13.9C1242.1,492.9,1241.6,493.1,1241,493.1z M1233.1,479.3l7.9,9.5l7.9-9.5
		H1233.1z"/>
	<path class="st1" d="M1217.8,493.1c-0.5,0-1-0.2-1.3-0.7l-11.5-13.9c-0.4-0.5-0.6-1.2-0.2-1.9s0.9-1,1.5-1h23.2
		c1,0,1.8,0.8,1.8,1.8c0,0.4-0.1,0.8-0.4,1.1l-11.6,13.9C1218.8,492.9,1218.4,493.1,1217.8,493.1z M1210,479.3l7.9,9.5l7.9-9.5H1210
		z"/>
	<path class="st1" d="M1229.5,534.8c-0.6,0-1-0.2-1.3-0.7l-34.8-41.7c-0.7-0.8-0.5-1.9,0.2-2.4c0.3-0.2,0.7-0.4,1.1-0.4h23.1
		c0.8,0,1.4,0.5,1.7,1.2l11.7,41.7c0.2,0.9-0.3,1.9-1.2,2.1C1229.8,534.8,1229.6,534.8,1229.5,534.8L1229.5,534.8z M1198.4,493.1
		l27.2,32.7l-9.1-32.6L1198.4,493.1z"/>
	<path class="st1" d="M1229.5,534.8c-0.3,0-0.6-0.1-0.8-0.2c-0.8-0.4-1.1-1.2-0.9-2l11.6-41.7c0.2-0.8,0.9-1.3,1.7-1.3h23.2
		c1,0,1.8,0.8,1.8,1.8c0,0.4-0.1,0.8-0.4,1.1l-34.8,41.7C1230.5,534.6,1230,534.8,1229.5,534.8z M1242.3,493.1l-9,32.7l27.2-32.7
		H1242.3z"/>
	<path class="st1" d="M1229.5,534.8c-0.8,0-1.4-0.5-1.7-1.3l-11.7-41.7c-0.2-0.9,0.2-1.9,1.2-2.1c0.1,0,0.3-0.1,0.4-0.1h23.2
		c0.5,0,1.1,0.2,1.4,0.7c0.3,0.4,0.4,1,0.3,1.5l-11.5,41.6C1230.9,534.3,1230.2,534.8,1229.5,534.8L1229.5,534.8z M1220.1,493.1
		l9.3,33.4l9.2-33.4L1220.1,493.1z"/>
	<path class="st1" d="M1267.5,540.3h-3.4c-1,0-1.8-0.8-1.8-1.8c0-1,0.8-1.8,1.8-1.8h3.4c1.9,0,3.3-1.4,3.3-3.3v-22.8
		c0-4.1,2.2-7.9,5.7-10.1c-3.5-2.2-5.6-5.9-5.7-10.1v-22.8c0-1.9-1.4-3.3-3.3-3.3h-3.4c-1,0-1.8-0.8-1.8-1.8s0.8-1.8,1.8-1.8h3.4
		c3.7,0,6.8,3.1,6.8,6.8l0,0v22.9c0,4.6,3.7,8.4,8.4,8.4c1,0,1.8,0.8,1.8,1.8s-0.8,1.8-1.8,1.8c-4.6,0-8.4,3.7-8.4,8.4v22.7
		C1274.3,537.2,1271.3,540.3,1267.5,540.3z"/>
	<path class="st1" d="M1194.7,540.3h-3.4c-3.7,0-6.8-3.1-6.8-6.8v-22.8c0-4.6-3.7-8.4-8.4-8.4c-1,0-1.8-0.8-1.8-1.8
		c0-1,0.8-1.8,1.8-1.8c4.6,0,8.4-3.7,8.4-8.4v-22.8c0-3.7,3.1-6.8,6.8-6.8h3.4c1,0,1.8,0.8,1.8,1.8s-0.8,1.8-1.8,1.8h-3.4
		c-1.9,0-3.3,1.4-3.3,3.3v22.9c0,4.2-2.2,7.9-5.7,10.1c3.5,2.2,5.7,5.9,5.7,10.1v22.7c0,1.9,1.4,3.3,3.3,3.3h3.4
		c1,0,1.8,0.8,1.8,1.8C1196.5,539.4,1195.7,540.3,1194.7,540.3L1194.7,540.3z"/>
	<path class="st1" d="M1153,574.2h-9.2c-1,0-1.8-0.8-1.8-1.8s0.8-1.8,1.8-1.8l0,0h9.2c1,0,1.8,0.8,1.8,1.8
		C1154.8,573.4,1154,574.2,1153,574.2z"/>
	<path class="st1" d="M1148.4,578.8c-1,0-1.8-0.8-1.8-1.8v-9.2c-0.1-1,0.7-1.8,1.5-1.9c0.9-0.1,1.8,0.7,1.9,1.5c0,0.1,0,0.2,0,0.3
		v9.2C1150.2,578,1149.4,578.8,1148.4,578.8L1148.4,578.8z"/>
	<circle class="st1" cx="1148.4" cy="558.6" r="1.8"/>
	<circle class="st1" cx="1148.4" cy="551.5" r="1.8"/>
	<circle class="st1" cx="1148.4" cy="540" r="1.8"/>
	<circle class="st1" cx="1148.4" cy="526.1" r="1.8"/>
</g>
<g id="_x30_9_00000131343289343187464410000015752281319840897443_">
	<path class="st1" d="M1205.8,236.2h-5.2c-0.6,0.1-1-0.3-1.1-0.9c-0.1-0.6,0.3-1,0.9-1.1c0.1,0,0.1,0,0.2,0h5.2
		c0.6-0.1,1,0.3,1.1,0.9s-0.3,1-0.9,1.1C1206,236.2,1205.9,236.2,1205.8,236.2L1205.8,236.2z"/>
	<path class="st1" d="M1203.2,238.8c-0.5,0-1-0.4-1-1l0,0v-5.3c0-0.6,0.4-1,1-1c0.6,0,1,0.4,1,1l0,0v5.3
		C1204.2,238.4,1203.7,238.8,1203.2,238.8L1203.2,238.8z"/>
	<circle class="st1" cx="1203.2" cy="243.1" r="1"/>
	<circle class="st1" cx="1203.2" cy="246.9" r="1"/>
	<circle class="st1" cx="1203.2" cy="252.2" r="1"/>
	<circle class="st1" cx="1203.2" cy="260" r="1"/>
	<path class="st1" d="M1109.3,290.9h-5.2c-0.5,0-1-0.4-1-1c0-0.5,0.4-1,1-1l0,0h5.2c0.6,0,1,0.4,1,1
		C1110.3,290.5,1109.9,290.9,1109.3,290.9z"/>
	<path class="st1" d="M1106.7,293.6c-0.5,0-1-0.4-1-1l0,0v-5.2c0-0.6,0.4-1,1-1c0.6,0,1,0.4,1,1v5.2
		C1107.7,293.1,1107.3,293.6,1106.7,293.6L1106.7,293.6z"/>
	<circle class="st1" cx="1106.7" cy="282.1" r="1"/>
	<circle class="st1" cx="1106.7" cy="277" r="1"/>
	<circle class="st1" cx="1106.7" cy="270.5" r="1"/>
	<circle class="st1" cx="1106.7" cy="261.3" r="1"/>
	<circle class="st4" cx="1118.1" cy="265.5" r="18.3"/>
	<circle class="st4" cx="1170.8" cy="233" r="15.6"/>
	<g class="st5">
		<circle class="st1" cx="1181.3" cy="295.9" r="26.1"/>
	</g>
	<path class="st1" d="M1188.9,236.6c-0.3,0-0.7-0.1-0.9-0.4c-0.5-0.6-0.5-1.3,0-1.9c0.6-0.4,1.3-0.4,1.9,0c0.4,0.5,0.4,1.4-0.1,1.9
		C1189.4,236.4,1189.2,236.5,1188.9,236.6L1188.9,236.6z"/>
	<path class="st1" d="M1179.7,235.3c0-0.8,0.6-1.3,1.3-1.3l0,0l0,0c0.8,0,1.3,0.6,1.3,1.3l0,0l0,0c0,0.8-0.5,1.3-1.3,1.3l0,0
		C1180.3,236.5,1179.7,235.9,1179.7,235.3z"/>
	<path class="st1" d="M1173.3,236.6c-0.8,0-1.3-0.6-1.3-1.3c0-0.3,0.1-0.7,0.3-0.9c0.5-0.4,1.3-0.4,1.9,0c0.2,0.2,0.3,0.6,0.3,0.9
		C1174.6,235.9,1173.9,236.5,1173.3,236.6L1173.3,236.6z"/>
	<path class="st1" d="M1196.7,242.8h-83.5c-0.6,0-1-0.4-1-1l0,0v-10.4c0-2,1.7-3.6,3.6-3.6l0,0h78.2c2,0,3.6,1.6,3.6,3.6l0,0v10.4
		C1197.7,242.3,1197.2,242.6,1196.7,242.8z M1114.2,240.8h81.5v-9.5c0-0.9-0.8-1.7-1.7-1.7h-78.2c-0.9,0-1.7,0.8-1.7,1.7V240.8z"/>
	<path class="st1" d="M1155,313.2c-16.4,0-29.7-13.3-29.7-29.7c0-16.4,13.3-29.7,29.7-29.7s29.7,13.3,29.7,29.7l0,0
		C1184.7,299.8,1171.4,313.2,1155,313.2z M1155,255.7c-15.3,0-27.7,12.4-27.7,27.7c0,15.3,12.4,27.7,27.7,27.7s27.7-12.4,27.7-27.7
		l0,0C1182.7,268.2,1170.3,255.7,1155,255.7z"/>
	<path class="st1" d="M1143.9,295.6c-0.2,0-0.5-0.1-0.7-0.3c-6.5-6.5-6.5-17,0-23.5c6.5-6.5,17-6.5,23.5,0c0.9,0.9,1.5,1.8,2.2,2.8
		c0.3,0.4,0.2,1.1-0.2,1.3c-0.4,0.2-1.1,0.2-1.3-0.2l0,0c-4.4-6.8-13.4-8.8-20.2-4.5c-6.8,4.3-8.8,13.4-4.5,20.2
		c0.6,0.9,1.2,1.8,2,2.5c0.3,0.3,0.3,1,0,1.4C1144.4,295.4,1144.2,295.6,1143.9,295.6L1143.9,295.6z"/>
	<path class="st1" d="M1155,288.4c-1.7,0-3.2-0.9-4.2-2.2c-0.7-1.1-1-2.4-0.7-3.6c0.2-1.3,1-2.4,2.1-3.1c1.9-1.2,14.1-4.8,15.5-5.3
		c0.5-0.1,1.1,0.1,1.2,0.7c0.1,0.3,0,0.7-0.2,0.9c-1,1.1-9.3,10.7-11.2,11.9l0,0C1156.9,288.1,1155.9,288.4,1155,288.4z
		 M1157.1,286.8L1157.1,286.8z M1165.1,277c-5,1.5-10.8,3.4-11.8,4.1c-0.7,0.4-1.1,1.1-1.3,1.9c-0.2,0.8,0,1.5,0.4,2.2
		c0.9,1.3,2.6,1.8,4.1,0.9C1157.5,285.3,1161.7,280.8,1165.1,277L1165.1,277z"/>
	<path class="st1" d="M1194,313.2h-78.2c-2,0-3.6-1.6-3.6-3.6l0,0v-67.8c0-0.6,0.4-1,1-1l0,0h83.5c0.5,0,1,0.4,1,1l0,0v67.8
		C1197.7,311.5,1196,313.2,1194,313.2L1194,313.2z M1114.2,242.8v66.9c0,0.9,0.8,1.6,1.7,1.6h78.2c0.9,0,1.7-0.8,1.7-1.6v-66.9
		H1114.2z"/>
	<path class="st1" d="M1194,313.2h-78.2c-2,0-3.6-1.6-3.6-3.6l0,0v-5.2c0-0.5,0.4-1,1-1l0,0h83.5c0.5,0,1,0.4,1,1l0,0v5.2
		C1197.7,311.5,1196,313.2,1194,313.2L1194,313.2z M1114.2,305.3v4.3c0,0.9,0.8,1.6,1.7,1.6h78.2c0.9,0,1.7-0.8,1.7-1.6v-4.3H1114.2
		z"/>
	<path class="st1" d="M1134.1,284.4h-3.8c-0.5,0-1-0.4-1-1c0-0.5,0.4-1,1-1l0,0h4c0.6,0,1,0.4,1,1
		C1135.1,284,1134.8,284.4,1134.1,284.4L1134.1,284.4z"/>
	<path class="st1" d="M1179.7,284.4h-4c-0.6,0-1-0.4-1-1c0-0.5,0.4-1,1-1l0,0h4c0.6,0,1,0.4,1,1
		C1180.7,284,1180.3,284.4,1179.7,284.4z"/>
	<path class="st1" d="M1155,263.5c-0.5,0-1-0.4-1-1l0,0v-4c0-0.6,0.4-1,1-1c0.6,0,1,0.4,1,1v4C1156,263.1,1155.5,263.5,1155,263.5
		L1155,263.5z"/>
	<path class="st1" d="M1137.5,301.9c-0.6,0-1-0.4-1-1c0-0.2,0.1-0.5,0.3-0.7l2.8-2.8c0.4-0.3,1-0.3,1.4,0c0.3,0.3,0.3,1,0,1.4l0,0
		l-2.8,2.8C1137.9,301.8,1137.7,301.9,1137.5,301.9z"/>
	<path class="st1" d="M1169.7,269.7c-0.5,0-1-0.4-1-1c0-0.2,0.1-0.5,0.3-0.7l2.8-2.8c0.3-0.3,1-0.3,1.3,0l0,0c0.3,0.3,0.3,1,0,1.4
		l0,0l-2.8,2.8C1170.3,269.6,1170,269.7,1169.7,269.7z"/>
	<path class="st1" d="M1140.3,269.7c-0.2,0-0.6-0.1-0.7-0.3l-2.8-2.8c-0.3-0.3-0.3-1,0-1.4l0,0c0.3-0.3,1-0.3,1.3,0l0,0l2.8,2.8
		c0.3,0.3,0.3,1,0,1.4C1140.7,269.6,1140.5,269.7,1140.3,269.7L1140.3,269.7z"/>
	<path class="st1" d="M1172.5,301.9c-0.2,0-0.5-0.1-0.7-0.3l-2.8-2.8c-0.3-0.3-0.3-1,0-1.4c0.3-0.4,1-0.3,1.4,0l0,0l2.8,2.8
		c0.3,0.3,0.3,1,0,1.4C1172.9,301.8,1172.7,301.9,1172.5,301.9L1172.5,301.9z"/>
	<path class="st1" d="M1162.9,265.2c-0.1,0-0.2,0-0.3-0.1c-0.6-0.2-0.8-0.8-0.6-1.2l0,0l1.5-3.6c0.2-0.6,0.8-0.8,1.2-0.7
		c0.6,0.2,0.8,0.8,0.7,1.2v0.1l-1.5,3.6C1163.7,265,1163.4,265.2,1162.9,265.2z"/>
	<path class="st1" d="M1135.7,276.4c-0.1,0-0.2,0-0.3-0.1l-3.6-1.5c-0.6-0.2-0.8-0.8-0.6-1.3c0.2-0.5,0.8-0.8,1.3-0.5l3.6,1.5
		c0.5,0.2,0.8,0.8,0.5,1.3C1136.5,276.2,1136.2,276.4,1135.7,276.4z"/>
	<path class="st1" d="M1177.9,293.9c-0.1,0-0.2,0-0.3-0.1l-3.6-1.5c-0.4-0.2-0.7-0.9-0.4-1.3c0.2-0.4,0.8-0.7,1.2-0.4l3.6,1.5
		c0.6,0.2,0.8,0.8,0.6,1.3C1178.6,293.7,1178.2,293.9,1177.9,293.9L1177.9,293.9z"/>
	<path class="st1" d="M1147,265.2c-0.4,0-0.8-0.2-0.9-0.5l-1.5-3.6c-0.2-0.6,0-1.1,0.5-1.3c0.6-0.2,1.1,0,1.3,0.6l0,0l1.5,3.6
		c0.2,0.4,0,1.1-0.5,1.3l0,0C1147.3,265.2,1147.1,265.2,1147,265.2z"/>
	<path class="st1" d="M1132.1,293.9c-0.6,0-1-0.4-1-1c0-0.4,0.2-0.8,0.6-0.9l3.6-1.5c0.6-0.2,1.1,0.1,1.2,0.7c0.1,0.4-0.1,1-0.4,1.2
		l-3.6,1.5C1132.3,293.9,1132.2,293.9,1132.1,293.9z"/>
	<path class="st1" d="M1174.2,276.4c-0.4,0-0.8-0.2-0.9-0.6c-0.2-0.5,0-1.1,0.5-1.3l3.6-1.5c0.5-0.2,1.1,0,1.3,0.5
		c0.2,0.4,0,1.1-0.6,1.3l0,0l-3.6,1.5C1174.5,276.4,1174.4,276.4,1174.2,276.4z"/>
	<path class="st1" d="M1187.6,262.3c-2,0-3.6-1.7-3.6-3.6s1.7-3.6,3.6-3.6c2,0,3.6,1.6,3.6,3.6S1189.5,262.2,1187.6,262.3z
		 M1187.6,257.1c-0.9,0-1.6,0.8-1.6,1.6c0,0.9,0.8,1.6,1.6,1.6c0.9,0,1.7-0.8,1.7-1.6l0,0C1189.2,257.8,1188.4,257.1,1187.6,257.1
		L1187.6,257.1z"/>
	<path class="st1" d="M1122.3,271.5c-2,0-3.6-1.6-3.6-3.6c0-2,1.6-3.6,3.6-3.6s3.6,1.6,3.6,3.6
		C1126,269.8,1124.3,271.5,1122.3,271.5L1122.3,271.5z M1122.3,266.2c-0.9,0-1.7,0.8-1.7,1.7c0,0.9,0.8,1.6,1.7,1.6s1.7-0.8,1.7-1.6
		l0,0C1124,267,1123.3,266.2,1122.3,266.2L1122.3,266.2L1122.3,266.2z"/>
	<path class="st1" d="M1132.8,255.7c-2,0-3.6-1.7-3.6-3.6c0-2,1.7-3.6,3.6-3.6c2,0,3.6,1.6,3.6,3.6
		C1136.4,254.2,1134.8,255.7,1132.8,255.7z M1132.8,250.6c-0.9,0-1.6,0.8-1.6,1.6s0.8,1.6,1.6,1.6c0.9,0,1.7-0.8,1.7-1.6l0,0
		C1134.4,251.2,1133.7,250.6,1132.8,250.6z"/>
</g>
<g id="_x30_8">
	<circle class="st4" cx="857.9" cy="561.9" r="28.9"/>
	<circle class="st4" cx="934.3" cy="517.4" r="36.7"/>
	<circle class="st4" cx="976.1" cy="614.7" r="55.2"/>
	<path class="st1" d="M950,650.7h-94.6c-5.5,0-9.9-4.4-9.9-9.9V514.8c0-5.5,4.4-9.9,9.9-9.9H950c5.5,0,9.9,4.4,9.9,9.9V641
		C959.7,646.3,955.3,650.7,950,650.7z M855.4,508.8c-3.3,0-5.9,2.6-5.9,5.9V641c0,3.3,2.6,5.9,5.9,5.9H950c3.3,0,5.9-2.6,5.9-5.9
		V514.8c0-3.3-2.6-5.9-5.9-5.9H855.4z"/>
	<path class="st1" d="M943.4,639H862c-2.5,0-4.6-2.1-4.6-4.6l0,0v-113c0-2.5,2.1-4.6,4.6-4.6l0,0h81.4c2.5,0,4.6,2.1,4.6,4.6l0,0
		v113C948,636.9,945.9,639,943.4,639z M862,520.7c-0.3,0-0.7,0.3-0.7,0.7v113c0,0.3,0.3,0.7,0.7,0.7h81.4c0.3,0,0.7-0.3,0.7-0.7
		v-113c0-0.3-0.3-0.7-0.7-0.7H862z"/>
	<path class="st1" d="M909.1,623.2c-12,0-21.7-9.7-21.7-21.7c0-1.1,0.9-2,2-2c1.1,0,2,0.9,2,2c-0.2,9.8,7.5,17.9,17.3,18.1
		c9.8,0.2,17.9-7.5,18.1-17.3c0-0.3,0-0.6,0-0.9v-88c0-19.2,15.6-34.9,34.9-34.9s34.9,15.6,34.9,34.9v72.3c0,1.1-0.9,2-2,2
		c-1.1,0-2-0.9-2-2v-72.3c0.3-17.1-13.2-31.1-30.2-31.5c-17-0.3-31.1,13.2-31.5,30.2c0,0.4,0,0.8,0,1.2v88
		C930.8,613.5,921.1,623.1,909.1,623.2z"/>
	<path class="st1" d="M885.1,531.4c-2.5,0-4.7,0-5.9,0c-0.3,0-0.7-0.1-1-0.3c-7.9-5.1-10.7-13.8-7.9-24.3
		c3.7-13.9,17.3-27,17.8-27.5c0.8-0.8,2-0.8,2.8,0c0.4,0.4,0.7,1.2,0.6,1.9c-5.5,23.2-2.4,41.3-0.8,47.9c0.2,1.1-0.4,2.1-1.5,2.4
		c-0.1,0-0.2,0-0.4,0L885.1,531.4z M879.7,527.4c1.4,0,3.8,0,6.4,0c-2.5-13.3-2.5-27-0.1-40.3c-4.2,4.9-9.9,12.8-12,20.6
		C872.3,513.8,872.1,522.2,879.7,527.4L879.7,527.4z"/>
	<path class="st1" d="M888.6,531.4c-0.9,0-1.7-0.7-2-1.5c-1.7-6.9-5-25.5,0.8-49.7c0.2-1.1,1.3-1.8,2.3-1.4c0.3,0.1,0.7,0.2,1,0.5
		c4.7,4.7,8.9,9.9,12.4,15.5c9.7,15.8,8.8,29-2.4,36.2c-0.3,0.2-0.7,0.3-1.1,0.3h-5.8L888.6,531.4L888.6,531.4z M890.4,484.6
		c-3,14.1-3.1,28.6-0.3,42.8h3.5h5.3c12-8.1,5.6-22.6,0.8-30.6C897,492.6,894,488.5,890.4,484.6L890.4,484.6z"/>
	<path class="st1" d="M889.3,603.4c-0.4,0-0.9-0.1-1.2-0.3c-15.8-11.6-14.8-43.8-12.8-61.9c0.1-1,1-1.8,2-1.8h24c1,0,1.9,0.8,2,1.8
		c2,18.1,3.1,50.4-12.9,61.9C890.1,603.3,889.8,603.4,889.3,603.4z M879.1,543.4c-1.8,17-2.3,44.8,10.2,55.7
		c12.5-10.8,12-38.6,10.2-55.7H879.1z"/>
	<path class="st1" d="M901.3,543.4h-24c-0.5,0-1.1-0.2-1.4-0.7c-0.3-0.4-0.5-1-0.4-1.5c0.8-7.2,1.8-12,1.8-12.2c0.2-0.9,1-1.7,2-1.7
		h20.6c1,0,1.8,0.7,2,1.7c0,0.2,1,4.9,1.8,12.2c0.1,0.5-0.1,1.1-0.4,1.5C902.4,543.2,901.9,543.4,901.3,543.4z M879.6,539.4h19.6
		c-0.4-3.6-0.9-6.4-1.2-8h-17.3C880.4,533,880,535.9,879.6,539.4L879.6,539.4z"/>
	<path class="st1" d="M994.6,614.2c-8,0-16-2.6-22.2-7.7c-0.4-0.3-0.8-1-0.8-1.5v-0.8c0-11.2,9.1-20.3,20.4-20.3h5.3
		c11.2,0,20.3,9.1,20.3,20.3v0.8c0,0.5-0.2,1.2-0.8,1.5C1010.5,611.5,1002.6,614.2,994.6,614.2z M975.5,604
		c11.3,8.4,26.8,8.4,38.1,0c-0.1-9-7.4-16.3-16.4-16.3h-5.3C983,587.7,975.7,595,975.5,604L975.5,604z M1015.6,604.9L1015.6,604.9z"
		/>
	<path class="st1" d="M997.3,650.7H992c-11.2,0-20.3-9.1-20.3-20.3v-25.5c0-1.1,0.9-2,2-2c0.4,0,0.9,0.1,1.2,0.4
		c11.6,9.1,28.1,9.1,39.6,0c0.5-0.4,1.4-0.5,2.1-0.2c0.7,0.3,1.1,1,1.1,1.8v25.5C1017.6,641.6,1008.5,650.7,997.3,650.7z
		 M975.5,608.7v21.7c0.1,9,7.4,16.4,16.4,16.4h5.3c9,0,16.4-7.4,16.4-16.4v-21.7C1002,616,987.1,616,975.5,608.7L975.5,608.7z"/>
	<path class="st1" d="M994.6,605.9c-1.1,0-2-0.9-2-2l0,0v-10.6c0-1.1,0.9-2,2-2c1.1,0,2,0.9,2,2l0,0v10.6
		C996.5,605,995.6,605.9,994.6,605.9z"/>
	<path class="st1" d="M984.1,573.7h-10.6c-1.1,0-2-0.9-2-2c0-1.1,0.9-2,2-2h10.6c1.1,0,2,0.9,2,2C986,572.9,985.2,573.7,984.1,573.7
		z"/>
	<path class="st1" d="M978.8,579c-1.1,0-2-0.9-2-2l0,0v-10.6c0.1-1.1,1-1.9,2.1-1.9c1,0.1,1.8,0.9,1.9,1.9V577
		C980.8,578.1,979.9,579,978.8,579L978.8,579z"/>
	<circle class="st1" cx="978.8" cy="556" r="2"/>
	<circle class="st1" cx="978.8" cy="548.1" r="2"/>
	<circle class="st1" cx="978.8" cy="537.7" r="2"/>
	<path class="st1" d="M978.8,519.8c1.1,0,2,0.9,2,2c0,1.1-0.9,2-2,2c-1.1,0-2-0.9-2-2S977.7,519.8,978.8,519.8z"/>
	<path class="st1" d="M1013,500.8h-10.6c-1.1,0-2-0.9-2-2c0-1.1,0.9-2,2-2l0,0h10.6c1.1,0,2,0.9,2,2
		C1015,499.9,1014.1,500.8,1013,500.8z"/>
	<path class="st1" d="M1007.7,506.1c-1.1,0-2-0.9-2-2l0,0v-10.4c0-1.1,0.9-2,2-2c1.1,0,2,0.9,2,2l0,0v10.4
		C1009.7,505.2,1008.8,506.1,1007.7,506.1z"/>
	<circle class="st1" cx="1007.7" cy="514.7" r="2"/>
	<path class="st1" d="M1007.7,520.5c1.1,0,2,0.9,2,2s-0.9,2-2,2c-1.1,0-2-0.9-2-2S1006.6,520.5,1007.7,520.5z"/>
	<circle class="st1" cx="1007.7" cy="535.7" r="2"/>
	<circle class="st1" cx="1007.7" cy="554.1" r="2"/>
	<path class="st1" d="M865.8,487.8h-10.6c-1.1-0.1-1.9-1-1.9-2.1c0.1-1,0.9-1.8,1.9-1.9h10.6c1.1-0.1,2.1,0.8,2.1,1.9
		c0.1,1.1-0.8,2.1-1.9,2.1C866,487.8,865.9,487.8,865.8,487.8z"/>
	<path class="st1" d="M860.5,493.1c-1.1,0-2-0.9-2-2l0,0v-10.5c0-1.1,0.9-2,2-2c1.1,0,2,0.9,2,2v10.5
		C862.5,492.2,861.6,493.1,860.5,493.1z"/>
</g>
<g id="_x30_7">
	<circle class="st4" cx="893.7" cy="140.3" r="29.5"/>
	<circle class="st4" cx="971.8" cy="117.8" r="34.7"/>
	<circle class="st4" cx="925" cy="195.8" r="27.7"/>
	<path class="st1" d="M937.1,153.8c-0.3,0-0.7-0.1-0.9-0.3l-16.1-16.1c-0.4,3-1.8,5.8-4,7.9c-5.4,5.5-14.3,5.5-19.8,0
		s-5.5-14.3,0-19.8c2.2-2.2,5-3.5,8-4l-23.8-23.8c-0.6-0.5-0.4-1.3,0-1.9c0.2-0.2,0.5-0.3,0.9-0.3h111c0.8,0,1.3,0.5,1.3,1.3
		c0,0.3-0.1,0.7-0.3,0.9l-25.8,25.9c-0.3,0.4-1,0.6-1.4,0.2c-0.5-0.2-0.8-0.8-0.8-1.3c0.5-6.3-4.1-11.8-10.3-12.3
		c-6.3-0.6-11.8,4.1-12.3,10.3s4.1,11.8,10.3,12.3c0.7,0.1,1.3,0.1,2,0c0.2,0,0.5,0,0.8,0.1c0.3,0.2,0.5,0.6,0.7,1
		c0,0.4-0.1,0.8-0.3,1.1l-18.2,18.1C937.7,153.7,937.4,153.8,937.1,153.8z M918.9,133c0.3,0,0.7,0.1,0.9,0.4l17.3,17.3l15.1-15.1
		c-7.6-1.1-13-8.1-11.9-15.7c1.1-7.6,8.1-13,15.7-11.9c6.2,0.9,11,5.7,11.9,11.9l21.5-21.6H884.6l23.6,23.7c0.5,0.5,0.5,1.3,0,1.9
		c-0.1,0.2-0.3,0.3-0.5,0.3c-0.1,0-0.3,0-0.4,0c-6.3-0.6-11.8,4.1-12.3,10.2c-0.2,2.9,0.7,5.8,2.4,8.1c3.9,4.9,11,5.7,16,1.9
		c3-2.4,4.6-6.2,4.3-9.9c0-0.6,0.2-1.1,0.8-1.3C918.6,133,918.7,133,918.9,133z"/>
	<path class="st1" d="M992.6,209.2h-111c-0.8,0-1.3-0.5-1.3-1.3c0-0.3,0.1-0.7,0.3-0.9l25.8-25.8c0.4-0.4,1.2-0.6,1.8-0.1
		c0.3,0.2,0.5,0.7,0.5,1.1c-0.5,6.3,4.1,11.8,10.3,12.3c6.3,0.6,11.8-4.1,12.3-10.3c0.5-6.3-4.1-11.8-10.3-12.3
		c-0.7-0.1-1.3-0.1-2,0c-0.8,0-1.3-0.6-1.4-1.2c0-0.3,0.1-0.7,0.3-1l18.1-18.2c0.6-0.4,1.3-0.4,1.9,0l16.1,16.1
		c1.1-7.6,8.1-13,15.7-11.9c7.6,1.1,13,8.1,11.9,15.7c-0.9,6.2-5.7,11.1-11.9,11.9l23.8,23.8c0.5,0.6,0.4,1.3,0,1.9
		C993.3,209.1,993,209.2,992.6,209.2L992.6,209.2z M884.7,206.7h104.7L965.8,183c-0.6-0.6-0.6-1.3,0-1.9c0.3-0.3,0.7-0.4,1.1-0.3
		c6.3,0.6,11.8-4.1,12.3-10.3c0.5-6.3-4.1-11.8-10.3-12.3c-6.3-0.5-11.8,4.1-12.3,10.3c-0.1,0.7-0.1,1.3,0,2c0,0.3-0.1,0.7-0.3,1
		c-0.2,0.2-0.5,0.4-0.9,0.4c-0.3,0-0.7-0.1-1-0.3l-17.3-17.2L922,169.5c7.4,1,12.7,7.6,12,15.1c-0.7,7.7-7.4,13.4-15.1,12.8
		c-6.5-0.5-11.8-5.5-12.7-12L884.7,206.7z"/>
	<path class="st1" d="M881.6,209.2c-0.2,0-0.3,0-0.4-0.1c-0.4-0.2-0.8-0.7-0.8-1.2V97c0-0.5,0.3-1,0.8-1.2c0.4-0.2,1-0.1,1.4,0.2
		l25.9,25.8c0.5,0.5,0.5,1.3,0,1.9c-0.1,0.2-0.3,0.3-0.5,0.3c-0.1,0-0.3,0-0.4,0c-6.3-0.5-11.8,4.1-12.3,10.2
		c-0.2,2.9,0.7,5.8,2.4,8.1c3.8,4.9,11,5.7,16,1.9c3-2.4,4.6-6.2,4.3-9.9c0-0.5,0.2-1.1,0.8-1.3s1.1-0.1,1.4,0.2l18.2,18.1
		c0.2,0.2,0.3,0.6,0.3,0.9s-0.1,0.7-0.3,0.9l-16.1,16.1c7.4,1,12.7,7.6,12,15.1c-0.7,7.7-7.4,13.4-15.1,12.8
		c-6.5-0.6-11.8-5.5-12.7-12l-23.8,23.8C882.3,209.1,882,209.2,881.6,209.2z M883,100.1v104.7l23.7-23.6c0.4-0.4,1.2-0.6,1.8-0.1
		c0.3,0.2,0.5,0.7,0.5,1.1c-0.5,6.3,4.1,11.8,10.3,12.3c6.3,0.6,11.8-4.1,12.3-10.3c0.5-6.3-4.1-11.8-10.3-12.3
		c-0.7-0.1-1.3-0.1-2,0c-0.8,0-1.3-0.6-1.4-1.2c0-0.3,0.1-0.7,0.3-1c10.8-10.8,15.3-15.3,17.3-17.2l-15.2-15.1c-0.4,3-1.8,5.8-4,7.9
		c-5.4,5.5-14.3,5.5-19.8,0s-5.5-14.3,0-19.8c2.2-2.2,5-3.5,8-4L883,100.1z"/>
	<path class="st1" d="M985.7,123h-6.9c-0.8-0.1-1.2-0.7-1.2-1.4c0.1-0.7,0.6-1.1,1.2-1.2h6.9c0.8,0.1,1.2,0.7,1.2,1.4
		C986.8,122.4,986.4,122.9,985.7,123z"/>
	<path class="st1" d="M982.2,126.5c-0.8,0-1.3-0.5-1.3-1.3l0,0v-6.9c0.1-0.8,0.7-1.2,1.4-1.2c0.7,0.1,1.1,0.6,1.2,1.2v6.9
		C983.5,125.9,983,126.5,982.2,126.5L982.2,126.5z"/>
	<circle class="st1" cx="982.2" cy="132.1" r="1.3"/>
	<circle class="st1" cx="982.2" cy="137.3" r="1.3"/>
	<circle class="st1" cx="982.2" cy="144.2" r="1.3"/>
	<circle class="st1" cx="982.2" cy="154.6" r="1.3"/>
	<path class="st1" d="M967.9,176.1c-3.6,0-6.5-3-6.5-6.5c0-3.6,3-6.5,6.5-6.5c3.5,0,6.5,3,6.5,6.5l0,0
		C974.4,173.1,971.4,176.1,967.9,176.1z M967.9,165.6c-2.2,0-3.8,1.8-3.8,4s1.8,3.8,4,3.8c2.2,0,3.9-1.8,3.9-4
		C971.7,167.4,970,165.6,967.9,165.6L967.9,165.6z"/>
	<path class="st1" d="M909.8,167.6c-2.6,0-4.7-2.1-4.7-4.7s2.1-4.7,4.7-4.8c2.6,0,4.7,2.1,4.7,4.7l0,0
		C914.5,165.4,912.3,167.5,909.8,167.6z M909.8,160.7c-1.2,0-2.2,1-2.2,2.2s1,2.2,2.2,2.2s2.2-1,2.2-2.2S911,160.7,909.8,160.7z"/>
	<path class="st1" d="M928.8,113.8c-2.6,0-4.7-2.1-4.7-4.7c0-2.6,2.1-4.7,4.7-4.7c2.6,0,4.7,2.1,4.7,4.7l0,0
		C933.6,111.6,931.5,113.8,928.8,113.8z M928.8,106.9c-1.2,0-2.2,1-2.2,2.2s1,2.2,2.2,2.2c1.2,0,2.2-1,2.2-2.2
		S930,106.9,928.8,106.9z"/>
	<path class="st1" d="M953.1,202.3c-2.6,0-4.7-2.1-4.7-4.7c0-2.6,2.1-4.7,4.7-4.7s4.7,2.1,4.7,4.7l0,0
		C957.9,200.2,955.8,202.3,953.1,202.3z M953.1,195.3c-1.2,0-2.2,1-2.2,2.2s1,2.2,2.2,2.2s2.2-1,2.2-2.2S954.4,195.3,953.1,195.3z"
		/>
	<path class="st1" d="M966.2,139h-2.6c-0.8,0.1-1.3-0.4-1.4-1.2c-0.1-0.8,0.4-1.3,1.2-1.4c0.1,0,0.1,0,0.2,0h2.6
		c0.8-0.1,1.3,0.4,1.4,1.2c0.1,0.8-0.4,1.3-1.2,1.4C966.3,139,966.3,139,966.2,139z"/>
	<path class="st1" d="M974.9,139h-2.6c-0.8-0.1-1.2-0.7-1.2-1.4c0.1-0.7,0.5-1.1,1.2-1.2h2.6c0.8,0.1,1.2,0.7,1.2,1.4
		C976,138.5,975.5,138.9,974.9,139z"/>
	<path class="st1" d="M969.2,144.6c-0.8,0-1.3-0.6-1.3-1.3l0,0v-2.5c0.1-0.8,0.7-1.2,1.4-1.2c0.7,0.1,1.1,0.6,1.2,1.2v2.6
		C970.5,144.1,970,144.6,969.2,144.6z"/>
	<path class="st1" d="M969.2,135.9c-0.8,0-1.3-0.6-1.3-1.3l0,0V132c-0.1-0.8,0.4-1.3,1.2-1.4s1.3,0.4,1.4,1.2c0,0.1,0,0.1,0,0.2v2.6
		C970.5,135.4,970,135.9,969.2,135.9z"/>
	<path class="st1" d="M957.1,152.4h-6.9c-0.8-0.1-1.2-0.7-1.2-1.4c0.1-0.7,0.5-1.1,1.2-1.2h6.9c0.8,0.1,1.2,0.7,1.2,1.4
		C958.3,151.9,957.8,152.4,957.1,152.4z"/>
	<path class="st1" d="M953.7,156c-0.8,0-1.3-0.6-1.3-1.3l0,0v-6.9c0.1-0.8,0.7-1.2,1.4-1.2c0.7,0.1,1.1,0.6,1.2,1.2v6.9
		C955,155.3,954.4,156,953.7,156L953.7,156z"/>
	<path class="st1" d="M992.6,198.9c-0.8,0-1.3-0.6-1.3-1.3l0,0v-22.7c-0.1-0.8,0.4-1.3,1.2-1.4c0.8-0.1,1.3,0.4,1.4,1.2
		c0,0.1,0,0.1,0,0.2v22.7C994,198.3,993.4,198.9,992.6,198.9L992.6,198.9z"/>
	<path class="st1" d="M992.6,169.3c-0.8,0-1.3-0.6-1.3-1.3l0,0v-60.6c0.1-0.8,0.7-1.2,1.4-1.2c0.7,0.1,1.1,0.6,1.2,1.2V168
		C994,168.7,993.3,169.3,992.6,169.3L992.6,169.3z"/>
</g>
<g id="_x30_6">
	<circle class="st4" cx="619.1" cy="595" r="24.3"/>
	<circle class="st4" cx="688.2" cy="607.5" r="20.9"/>
	<circle class="st4" cx="692.4" cy="538.4" r="34.8"/>
	<path class="st1" d="M663.7,598.4c-0.1,0-0.3,0-0.4-0.1l-48.7-17.4c-0.5-0.2-0.9-0.7-0.9-1.2s0.3-1,0.9-1.2l48.7-17.4
		c0.3-0.1,0.5-0.1,0.9,0l48.7,17.4c0.5,0.2,0.9,0.7,0.9,1.2s-0.3,1-0.9,1.2l-48.7,17.5C664.1,598.4,664,598.5,663.7,598.4z
		 M619,579.7l44.9,16.1l44.9-16.1l-44.9-16L619,579.7z"/>
	<path class="st1" d="M615.1,581c-0.4,0-0.9-0.2-1.1-0.7l-6.9-12.2c-0.2-0.3-0.2-0.8-0.1-1.1c0.1-0.3,0.4-0.7,0.8-0.8l48.7-17.4
		c0.5-0.2,1.2,0,1.5,0.5l6.9,12.2c0.2,0.3,0.2,0.8,0.1,1.1c-0.1,0.3-0.4,0.7-0.8,0.8l-48.7,17.4C615.4,581,615.2,581,615.1,581z
		 M610.1,568.2l5.6,9.9l46.2-16.5l-5.6-9.9L610.1,568.2z"/>
	<path class="st1" d="M712.5,581c-0.1,0-0.3,0-0.4-0.1l-48.7-17.4c-0.3-0.1-0.7-0.4-0.8-0.8c-0.1-0.3-0.1-0.8,0.1-1.1l6.9-12.2
		c0.3-0.5,1-0.8,1.5-0.5l48.7,17.4c0.3,0.1,0.7,0.4,0.8,0.8c0.1,0.3,0.1,0.8-0.1,1.1l-6.9,12.2C713.3,580.8,712.9,581,712.5,581z
		 M665.7,561.6l46.2,16.5l5.6-9.9l-46.2-16.5L665.7,561.6z"/>
	<path class="st1" d="M678.4,575.5h-29.2c-0.8,0-1.3-0.5-1.3-1.3l0,0v-3.1c0-3.8-1.5-7.6-4.3-10.3c-11.7-11.1-12.1-29.6-1-41.1
		c11.1-11.7,29.6-12.1,41.1-1l0,0c11.7,11,12.2,29.5,1.1,41.1c-0.2,0.3-0.5,0.5-0.8,0.9c-2.9,2.6-4.4,6.4-4.5,10.2v3.4
		C679.6,574.8,679,575.5,678.4,575.5z M650.5,572.9H677v-2.1c0-4.6,2-8.9,5.3-12.1c10.5-10.2,10.7-27.1,0.4-37.5
		c-5.4-5.5-12.8-8.4-20.5-7.9c-14.6,0.8-25.8,13.2-25.1,27.8c0.3,6.7,3.3,13.1,8.1,17.7c3.3,3.2,5.2,7.6,5.1,12.2L650.5,572.9z"/>
	<path class="st1" d="M672.4,582.4H655c-2.6,0-4.7-2.1-4.7-4.7v-3.5c0-0.8,0.6-1.3,1.3-1.3h24.3c0.8,0,1.3,0.5,1.3,1.3l0,0v3.5
		C677.3,580.3,675.1,582.4,672.4,582.4z M652.8,575.5v2.2c0,1.2,1,2.2,2.2,2.2h17.4c1.2,0,2.2-1,2.2-2.2v-2.2H652.8z"/>
	<path class="st1" d="M672.4,589.4H655c-2.6,0-4.7-2.1-4.7-4.8c0-2.6,2.1-4.7,4.7-4.7h17.4c2.6,0,4.7,2.1,4.7,4.7
		C677.3,587.3,675.1,589.4,672.4,589.4L672.4,589.4z M655,582.4c-1.2,0-2.2,1-2.2,2.2c0,1.2,1,2.2,2.2,2.2h17.4c1.2,0,2.2-1,2.2-2.2
		c0-1.2-1-2.2-2.2-2.2H655z"/>
	<path class="st1" d="M668.7,575.5h-9.9c-0.5,0-1.1-0.4-1.3-1l-7.2-29.7c-0.1-0.7,0.3-1.4,1-1.5c0.3-0.1,0.8,0,1.1,0.2l5.7,4.4
		l4.7-4.3c0.5-0.4,1.2-0.4,1.8,0l4.7,4.3l5.7-4.4c0.6-0.4,1.4-0.3,1.9,0.2c0.2,0.3,0.3,0.8,0.2,1.1l-7.3,29.7
		C669.8,575.1,669.2,575.4,668.7,575.5z M659.8,572.9h7.9l6-25.1l-3.7,2.9c-0.5,0.3-1.2,0.3-1.7-0.1l-4.6-4.3l-4.6,4.3
		c-0.4,0.4-1.2,0.4-1.7,0.1l-3.7-2.9L659.8,572.9z"/>
	<path class="st1" d="M682.5,537.2c-0.7,0-1.2-0.4-1.3-1.1c-0.3-1.6-0.9-3.3-1.6-4.7c-0.3-0.7-0.1-1.4,0.5-1.8
		c0.7-0.3,1.4-0.1,1.8,0.5c0.9,1.8,1.5,3.6,2,5.5c0.1,0.7-0.3,1.4-1,1.5L682.5,537.2z"/>
	<path class="st1" d="M676.7,527c-0.3,0-0.7-0.1-0.9-0.3c-6.6-6-16.6-6.4-23.4-0.7c-0.5,0.4-1.3,0.3-1.9-0.2
		c-0.4-0.5-0.3-1.3,0.2-1.9l0,0c7.9-6.5,19.4-6.2,26.8,0.8c0.5,0.4,0.5,1.3,0.1,1.9C677.5,526.9,677.2,527,676.7,527z"/>
	<path class="st1" d="M663.7,624.6c-0.1,0-0.3,0-0.4-0.1l-48.7-17.4c-0.5-0.2-0.9-0.7-0.9-1.2v-26.2c0-0.4,0.2-0.9,0.5-1.1
		c0.3-0.2,0.8-0.3,1.2-0.1l48.7,17.4c0.5,0.2,0.9,0.7,0.9,1.2v26.1C665.1,623.9,664.5,624.5,663.7,624.6L663.7,624.6L663.7,624.6z
		 M616.3,604.9l46.1,16.5v-23.3l-46.1-16.5V604.9z"/>
	<path class="st1" d="M656.8,610.6c-0.1,0-0.3,0-0.4-0.1l-48.7-17.4c-0.3-0.1-0.7-0.4-0.8-0.8c-0.1-0.3-0.1-0.8,0.1-1.1l6.9-12.2
		c0.3-0.5,1-0.8,1.5-0.5l48.7,17.4c0.3,0.1,0.7,0.4,0.8,0.8c0.1,0.3,0.1,0.8-0.1,1.1l-6.9,12.2C657.7,610.4,657.2,610.6,656.8,610.6
		z M610.1,591.2l46.2,16.5l5.6-9.9l-46.2-16.5L610.1,591.2z"/>
	<path class="st1" d="M663.7,624.6c-0.2,0-0.5-0.1-0.8-0.2c-0.3-0.2-0.5-0.7-0.5-1.1v-26.1c0-0.5,0.3-1,0.9-1.2l48.7-17.4
		c0.7-0.2,1.4,0.1,1.6,0.8c0.1,0.1,0.1,0.3,0.1,0.4v26.1c0,0.5-0.3,1-0.9,1.2l-48.7,17.4C664.1,624.5,664,624.6,663.7,624.6z
		 M665.1,598.1v23.3l46.1-16.5v-23.3L665.1,598.1z"/>
	<path class="st1" d="M670.7,610.6c-0.4,0-0.9-0.2-1.1-0.7l-6.9-12.2c-0.2-0.3-0.2-0.8-0.1-1.1c0.1-0.3,0.4-0.7,0.8-0.8l48.7-17.4
		c0.5-0.2,1.2,0,1.5,0.5l6.9,12.2c0.2,0.3,0.2,0.8,0.1,1.1c-0.1,0.3-0.4,0.7-0.8,0.8l-48.7,17.4C671,610.6,670.9,610.6,670.7,610.6z
		 M665.7,597.8l5.6,9.9l46.2-16.5l-5.6-9.9L665.7,597.8z"/>
	<path class="st1" d="M695.7,518.4h-2.4c-0.8-0.1-1.2-0.7-1.2-1.4c0.1-0.7,0.5-1.1,1.2-1.2h2.4c0.8-0.1,1.3,0.4,1.4,1.2
		s-0.4,1.3-1.2,1.4C695.9,518.4,695.9,518.4,695.7,518.4z"/>
	<path class="st1" d="M703.8,518.4h-2.4c-0.8,0.1-1.3-0.4-1.4-1.2s0.4-1.3,1.2-1.4c0.1,0,0.1,0,0.2,0h2.4c0.8-0.1,1.3,0.4,1.4,1.2
		c0.1,0.8-0.4,1.3-1.2,1.4C703.9,518.4,703.9,518.4,703.8,518.4z"/>
	<path class="st1" d="M698.5,523.7c-0.8,0-1.3-0.5-1.3-1.3l0,0V520c0.1-0.8,0.7-1.2,1.4-1.2c0.7,0.1,1.1,0.5,1.2,1.2v2.4
		C699.8,523,699.3,523.7,698.5,523.7C698.6,523.7,698.6,523.7,698.5,523.7z"/>
	<path class="st1" d="M698.5,515.7c-0.8,0-1.3-0.5-1.3-1.3l0,0v-2.4c-0.1-0.8,0.4-1.3,1.2-1.4c0.8-0.1,1.3,0.4,1.4,1.2
		c0,0.1,0,0.1,0,0.2v2.4C699.8,515,699.3,515.7,698.5,515.7C698.6,515.7,698.6,515.7,698.5,515.7z"/>
	<path class="st1" d="M711.4,541.1h-2.4c-0.8-0.1-1.2-0.7-1.2-1.4c0.1-0.7,0.5-1.1,1.2-1.2h2.4c0.8-0.1,1.3,0.4,1.4,1.2
		c0.1,0.8-0.4,1.3-1.2,1.4C711.5,541.1,711.5,541.1,711.4,541.1L711.4,541.1z"/>
	<path class="st1" d="M719.4,541.1H717c-0.8-0.1-1.2-0.7-1.2-1.4c0.1-0.7,0.5-1.1,1.2-1.2h2.4c0.8-0.1,1.3,0.4,1.4,1.2
		c0.1,0.8-0.4,1.3-1.2,1.4C719.6,541.1,719.5,541.1,719.4,541.1z"/>
	<path class="st1" d="M714.2,546.2c-0.8,0-1.3-0.5-1.3-1.3l0,0v-2.4c0.1-0.8,0.7-1.2,1.4-1.2c0.7,0.1,1.1,0.5,1.2,1.2v2.4
		C715.5,545.7,714.9,546.2,714.2,546.2L714.2,546.2z"/>
	<path class="st1" d="M714.2,538.2c-0.8,0-1.3-0.5-1.3-1.3l0,0v-2.4c0.1-0.8,0.7-1.2,1.4-1.2c0.7,0.1,1.1,0.5,1.2,1.2v2.4
		C715.5,537.7,714.9,538.2,714.2,538.2L714.2,538.2z"/>
	<path class="st1" d="M622.7,527.1h-2.4c-0.8-0.1-1.2-0.7-1.2-1.4c0.1-0.7,0.5-1.1,1.2-1.2h2.4c0.8-0.1,1.3,0.4,1.4,1.2
		c0.1,0.8-0.4,1.3-1.2,1.4C622.8,527.1,622.7,527.1,622.7,527.1z"/>
	<path class="st1" d="M630.7,527.1h-2.4c-0.8-0.1-1.2-0.7-1.2-1.4c0.1-0.7,0.5-1.1,1.2-1.2h2.4c0.8-0.1,1.3,0.4,1.4,1.2
		c0.1,0.8-0.4,1.3-1.2,1.4C630.8,527.1,630.7,527.1,630.7,527.1z"/>
	<path class="st1" d="M625.5,532.4c-0.8,0-1.3-0.6-1.3-1.3l0,0v-2.4c0.1-0.8,0.7-1.2,1.4-1.2c0.7,0.1,1.1,0.5,1.2,1.2v2.4
		C626.8,531.8,626.2,532.4,625.5,532.4z"/>
	<path class="st1" d="M625.5,524.4c-0.8,0-1.3-0.5-1.3-1.3l0,0v-2.4c0.1-0.8,0.7-1.2,1.4-1.2c0.7,0.1,1.1,0.5,1.2,1.2v2.4
		C626.8,523.7,626.2,524.4,625.5,524.4L625.5,524.4z"/>
	<path class="st1" d="M610.5,553.2h-2.4c-0.8-0.1-1.2-0.7-1.2-1.4c0.1-0.7,0.5-1.1,1.2-1.2h2.4c0.8-0.1,1.3,0.4,1.4,1.2
		c0.1,0.8-0.4,1.3-1.2,1.4C610.6,553.2,610.6,553.2,610.5,553.2z"/>
	<path class="st1" d="M618.5,553.2h-2.4c-0.8-0.1-1.2-0.7-1.2-1.4c0.1-0.7,0.5-1.1,1.2-1.2h2.4c0.8-0.1,1.3,0.4,1.4,1.2
		c0.1,0.8-0.4,1.3-1.2,1.4C618.6,553.2,618.6,553.2,618.5,553.2z"/>
	<path class="st1" d="M613.4,558.5c-0.8,0-1.3-0.6-1.3-1.3l0,0v-2.4c0.1-0.8,0.7-1.2,1.4-1.2c0.7,0.1,1.1,0.5,1.2,1.2v2.4
		C614.6,557.9,614,558.5,613.4,558.5L613.4,558.5z"/>
	<path class="st1" d="M613.4,550.4c-0.8,0-1.3-0.5-1.3-1.3l0,0v-2.4c0.1-0.8,0.7-1.2,1.4-1.2c0.7,0.1,1.1,0.5,1.2,1.2v2.4
		C614.7,549.8,614,550.4,613.4,550.4L613.4,550.4z"/>
</g>
<g id="_x30_5_00000064314349295019918140000002616381723937241244_">
	<path class="st1" d="M756.6,214.8h-3.2c-1,0-1.8-0.8-1.8-1.8c0-1,0.8-1.8,1.8-1.8l0,0h3.2c1,0,1.8,0.8,1.8,1.8
		C758.3,214,757.6,214.8,756.6,214.8L756.6,214.8z"/>
	<path class="st1" d="M759.8,237.7h-3.2c-1-0.1-1.7-0.9-1.5-1.9c0.1-0.9,0.8-1.5,1.5-1.5h3.2c1-0.1,1.8,0.7,1.9,1.5
		c0.1,1-0.7,1.8-1.5,1.9C759.9,237.7,759.9,237.7,759.8,237.7z"/>
	<path class="st1" d="M770.3,237.7h-3.2c-1,0.1-1.8-0.7-1.9-1.5c-0.1-1,0.7-1.8,1.5-1.9c0.1,0,0.2,0,0.2,0h3.2
		c1-0.1,1.8,0.7,1.9,1.5c0.1,1-0.7,1.8-1.5,1.9C770.4,237.7,770.3,237.7,770.3,237.7z"/>
	<path class="st1" d="M763.4,244.5c-1,0-1.7-0.8-1.8-1.7l0,0v-3.2c-0.1-1,0.7-1.8,1.5-1.9c1-0.1,1.8,0.7,1.9,1.5c0,0.1,0,0.2,0,0.2
		v3.2C765.2,243.7,764.4,244.5,763.4,244.5z"/>
	<path class="st1" d="M763.4,234c-1,0-1.7-0.8-1.8-1.6l0,0v-3.2c-0.1-1,0.7-1.8,1.5-1.9c1-0.1,1.8,0.7,1.9,1.5c0,0.1,0,0.2,0,0.2
		v3.2C765.2,233.2,764.4,234,763.4,234z"/>
	<path class="st1" d="M761.2,347.4H758c-1,0.1-1.8-0.7-1.9-1.5c-0.1-1,0.7-1.8,1.5-1.9c0.1,0,0.2,0,0.2,0h3.2c1,0.1,1.7,0.9,1.5,1.9
		C762.6,346.6,762,347.3,761.2,347.4z"/>
	<path class="st1" d="M754.3,354.2c-1,0-1.8-0.8-1.8-1.8v-3.2c-0.1-1,0.7-1.8,1.5-1.9c1-0.1,1.8,0.7,1.9,1.5c0,0.1,0,0.2,0,0.2v3.2
		C756,353.4,755.3,354.2,754.3,354.2L754.3,354.2z"/>
	<path class="st1" d="M754.3,343.6c-1,0-1.8-0.8-1.8-1.8v-3.1c0.1-1,0.9-1.6,1.9-1.5c0.9,0.1,1.5,0.8,1.5,1.5v3.2
		C756,342.9,755.3,343.6,754.3,343.6z"/>
	<circle class="st1" cx="760" cy="290.8" r="2.3"/>
	<path class="st1" d="M756.9,270.8c0.7,1.1,0.2,2.5-0.9,3.1c-1.1,0.7-2.5,0.2-3.1-0.9c-0.7-1.1-0.2-2.5,0.9-3.1l0,0
		C754.9,269.4,756.2,269.7,756.9,270.8z"/>
	<path class="st1" d="M752.9,308.5c0.7-1.1,2-1.4,3.1-0.9c1.1,0.7,1.4,2,0.9,3.1c-0.7,1.1-2,1.4-3.1,0.9l0,0
		C752.7,311,752.3,309.6,752.9,308.5z"/>
	<circle class="st4" cx="639.2" cy="305.7" r="32"/>
	<circle class="st4" cx="697.4" cy="220" r="27.4"/>
	<circle class="st4" cx="737.5" cy="323.4" r="45.7"/>
	<path class="st1" d="M722.4,220c-0.7,0-1.2-0.2-1.7-0.7c-0.9-0.9-0.9-2.4,0-3.3l0,0c0.9-0.9,2.3-0.9,3.2,0s0.9,2.3,0,3.2
		C723.5,219.7,722.9,219.9,722.4,220L722.4,220z"/>
	<path class="st1" d="M706.3,217.7c0-1.2,1-2.3,2.3-2.3l0,0l0,0c1.2,0,2.3,1,2.3,2.3l0,0c0,1.2-1,2.3-2.3,2.3l0,0
		C707.3,220,706.3,219,706.3,217.7L706.3,217.7z"/>
	<path class="st1" d="M694.9,220c-0.6,0-1.2-0.2-1.7-0.7c-0.4-0.4-0.7-1-0.7-1.6s0.2-1.2,0.7-1.6c0.9-0.9,2.3-0.9,3.2,0
		c0.4,0.4,0.7,1,0.7,1.6C697.2,219,696.2,220,694.9,220L694.9,220z"/>
	<path class="st1" d="M733.7,230.9H624c-1,0-1.8-0.8-1.8-1.8v-18.3c0-3.4,2.9-6.3,6.3-6.3h100.5c3.5,0,6.3,2.9,6.3,6.3l0,0v18.3
		C735.5,230.1,734.7,230.9,733.7,230.9L733.7,230.9z M625.8,227.5H732v-16.6c0-1.5-1.3-2.9-2.9-2.9l0,0H628.6
		c-1.5,0-2.9,1.3-2.9,2.9l0,0V227.5z"/>
	<path class="st1" d="M729.2,354.2H628.6c-3.5,0-6.3-2.9-6.3-6.3l0,0V229.1c0-1,0.8-1.8,1.7-1.8l0,0h109.7c1,0,1.7,0.8,1.7,1.6l0,0
		v118.8C735.5,351.3,732.6,354.2,729.2,354.2z M625.8,230.9v117c0,1.5,1.3,2.9,2.9,2.9h100.5c1.5,0,2.9-1.2,2.9-2.9l0,0v-117H625.8z
		"/>
	<path class="st1" d="M720.1,278.8h-77.7c-3.5,0-6.3-2.9-6.3-6.3l0,0v-13.8c0-3.5,2.9-6.3,6.3-6.3l0,0h77.7c1,0,1.6,0.8,1.6,1.6
		v22.9C721.7,278.1,720.9,278.8,720.1,278.8L720.1,278.8z M642.4,256c-1.5,0-2.9,1.3-2.9,2.9v13.8c0,1.5,1.3,2.9,2.9,2.9h75.9v-19.4
		h-75.9V256z"/>
	<path class="st1" d="M720.1,329h-77.7c-3.5,0-6.3-2.9-6.3-6.3l0,0v-27.4c0-3.5,2.9-6.3,6.3-6.3l0,0h77.7c1,0,1.6,0.8,1.6,1.6l0,0
		v36.5C721.7,328.3,720.9,329,720.1,329C720.1,329.1,720.1,329.1,720.1,329z M642.4,292.5c-1.5,0-2.9,1.3-2.9,2.9v27.4
		c0,1.5,1.3,2.9,2.9,2.9h75.9v-33.1H642.4z"/>
	<path class="st1" d="M746,214.8h-3.2c-1,0-1.8-0.8-1.8-1.8c0-1,0.8-1.8,1.8-1.8h3.2c1,0,1.8,0.8,1.8,1.8S747,214.8,746,214.8z"/>
	<path class="st1" d="M749.8,221.7c-1,0-1.7-0.8-1.8-1.6l0,0v-3.2c0.1-1,0.9-1.7,1.9-1.5c0.9,0.1,1.5,0.8,1.5,1.5v3.2
		C751.4,221,750.6,221.7,749.8,221.7z"/>
	<path class="st1" d="M749.8,211.2c-1,0-1.7-0.8-1.8-1.7l0,0v-3.2c-0.1-1,0.7-1.8,1.5-1.9c1-0.1,1.8,0.7,1.9,1.5c0,0.1,0,0.2,0,0.2
		v3.2C751.4,210.4,750.6,211.2,749.8,211.2z"/>
	<path class="st1" d="M750.6,347.4h-3.2c-1,0.1-1.8-0.7-1.9-1.5c-0.1-1,0.7-1.8,1.5-1.9c0.1,0,0.2,0,0.2,0h3.2
		c1-0.1,1.8,0.7,1.9,1.5c0.1,1-0.7,1.8-1.5,1.9C750.7,347.4,750.7,347.4,750.6,347.4L750.6,347.4z"/>
	<path class="st1" d="M722.3,340.4c-27.4,0-49.7-22.2-49.7-49.7c0-27.4,22.2-49.7,49.7-49.7c27.4,0,49.7,22.2,49.7,49.7l0,0
		C772,318.2,749.8,340.4,722.3,340.4z M722.3,244.5c-25.5,0-46.2,20.8-46.1,46.2c0.1,25.4,20.8,46.2,46.2,46.1
		c25.5,0,46.1-20.7,46.1-46.1C768.6,265.3,747.9,244.5,722.3,244.5z"/>
	<path class="st1" d="M702.9,311.8c-0.4,0-0.9-0.2-1.2-0.6c-11.3-11.3-11.3-29.8,0-41.1c11.3-11.3,29.8-11.3,41.1,0
		c1.5,1.5,2.9,3.1,4,5c0.5,0.8,0.4,1.9-0.3,2.4c-0.8,0.5-1.9,0.4-2.4-0.3c0-0.1-0.1-0.1-0.1-0.2c-7.7-12-23.5-15.4-35.5-7.7
		c-12,7.7-15.4,23.5-7.7,35.5c1,1.5,2.2,3,3.4,4.3c0.7,0.7,0.7,1.8,0,2.4l0,0C703.8,311.7,703.3,311.9,702.9,311.8z"/>
	<path class="st1" d="M722.4,299.3c-4.7,0-8.6-3.9-8.6-8.6c0-3,1.4-5.6,4-7.3c3.3-2.1,24.8-8.6,27.2-9.2c0.9-0.2,1.9,0.2,2.1,1.2
		c0.2,0.5,0,1.2-0.3,1.6c-1.6,1.9-16.4,18.8-19.7,20.9l0,0C725.6,298.9,723.9,299.3,722.4,299.3z M726,296.5L726,296.5z
		 M740.1,279.4c-8.6,2.6-18.8,5.9-20.6,7.1c-2.5,1.3-3.4,4.5-2.1,6.9c1.3,2.5,4.5,3.4,6.9,2.1c0.2-0.1,0.4-0.2,0.7-0.4
		C726.9,294,734.1,286.1,740.1,279.4z"/>
	<circle class="st1" cx="684.6" cy="290.8" r="2.3"/>
	<circle class="st1" cx="722.3" cy="328.4" r="2.3"/>
	<circle class="st1" cx="722.3" cy="253.1" r="2.3"/>
	<path class="st1" d="M691.7,308.5c0.7,1.1,0.2,2.5-0.9,3.1c-1.1,0.7-2.5,0.2-3.1-0.9c-0.7-1.1-0.2-2.5,0.9-3.1l0,0
		C689.6,307,691,307.4,691.7,308.5z"/>
	<path class="st1" d="M740,321.4c1.1-0.7,2.5-0.2,3.1,0.9c0.5,1.1,0.2,2.5-0.9,3.1c-1.1,0.7-2.5,0.2-3.1-0.9l0,0
		C738.5,323.5,738.9,322.1,740,321.4L740,321.4z"/>
	<path class="st1" d="M702.3,256.2c1.1-0.7,2.5-0.2,3.1,0.9s0.2,2.5-0.9,3.1c-1.1,0.7-2.5,0.2-3.1-0.9l0,0
		C700.9,258.2,701.2,256.8,702.3,256.2z"/>
	<path class="st1" d="M704.5,321.4c1.1,0.7,1.4,2,0.9,3.1c-0.7,1.1-2,1.4-3.1,0.9c-1.1-0.7-1.4-2-0.9-3.1l0,0
		C702.1,321.2,703.6,320.9,704.5,321.4z"/>
	<path class="st1" d="M742.3,256.2c1.1,0.7,1.4,2,0.9,3.1c-0.7,1.1-2,1.4-3.1,0.9c-1.1-0.7-1.4-2-0.9-3.1l0,0
		C739.9,256,741.2,255.5,742.3,256.2L742.3,256.2z"/>
	<path class="st1" d="M687.7,270.8c0.7-1.1,2-1.4,3.1-0.9c1.1,0.7,1.4,2,0.9,3.1c-0.7,1.1-2,1.4-3.1,0.9l0,0
		C687.4,273.3,687.1,271.9,687.7,270.8z"/>
	<path class="st1" d="M701.8,240h-29c-1,0-1.8-0.8-1.8-1.8c0-1,0.8-1.8,1.8-1.8h29c1,0,1.8,0.8,1.8,1.8
		C703.4,239.2,702.7,240,701.8,240z"/>
	<path class="st1" d="M663.6,240h-5.3c-1,0-1.8-0.8-1.8-1.8c0-1,0.8-1.8,1.8-1.8l0,0h5.3c1,0,1.8,0.8,1.8,1.8
		C665.3,239.2,664.5,240,663.6,240L663.6,240L663.6,240z"/>
</g>
<g id="_x30_4">
	<circle class="st4" cx="405" cy="690.6" r="18.1"/>
	<circle class="st4" cx="434.3" cy="643.7" r="15.5"/>
	<circle class="st4" cx="467.8" cy="688.6" r="25.9"/>
	<path class="st1" d="M441,712.6c-19.9,0-36-16.1-36-36s16.1-36,36-36s36,16.1,36,36l0,0C477,696.5,460.8,712.6,441,712.6z
		 M441,642.6c-18.8,0-34,15.2-34,34c0,18.8,15.2,34,34,34c18.8,0,34-15.2,34-34l0,0C475,657.9,459.7,642.7,441,642.6z"/>
	<path class="st1" d="M482.5,677.6h-82.9c-0.5,0.1-1-0.3-1.1-0.9c-0.1-0.6,0.3-1,0.9-1.1c0.1,0,0.1,0,0.2,0h82.9
		c0.5-0.1,1,0.3,1.1,0.9c0.1,0.5-0.3,1-0.9,1.1C482.6,677.6,482.5,677.6,482.5,677.6z"/>
	<path class="st1" d="M441,719.1c-0.6,0-1-0.4-1-1v-82.9c-0.1-0.5,0.3-1,0.9-1.1c0.5-0.1,1,0.3,1.1,0.9c0,0.1,0,0.1,0,0.2v82.9
		C442,718.6,441.5,719.1,441,719.1L441,719.1z"/>
	<path class="st1" d="M441,703.5c-14.9,0-26.8-12-26.8-26.8c0-14.9,12-26.8,26.8-26.8s26.8,12,26.8,26.8l0,0
		C467.8,691.4,455.8,703.4,441,703.5z M441,651.7c-13.8,0-25,11.2-25,25s11.2,25,25,25s25-11.2,25-25l0,0
		C466,662.8,454.7,651.7,441,651.7z"/>
	<path class="st1" d="M441,692.7c-0.1,0-0.3,0-0.4-0.1l-9.1-4.8c-0.3-0.2-0.6-0.6-0.6-0.9c0-0.3,0.2-0.7,0.6-0.9
		c1.2-0.5,2.1-1.5,2.4-2.9l0.7-2.5c0.1-0.4,0.4-0.8,0.9-0.8h11.2c0.4,0,0.9,0.3,0.9,0.8l0.7,2.5l0,0c0.3,1.2,1.2,2.3,2.4,2.9
		c0.3,0.1,0.5,0.4,0.5,0.9c0,0.3-0.2,0.8-0.5,0.9l-9.1,4.8C441.3,692.5,441.1,692.7,441,692.7z M433.7,686.7l7.3,3.8l7.3-3.8
		c-1-0.9-1.6-2-2-3.2l-0.4-1.9h-9.7l-0.4,1.9C435.4,684.7,434.7,685.8,433.7,686.7z"/>
	<path class="st1" d="M441,683.5c-6.6,0-12-6.5-12-14.4c0-7.4,4.8-12.3,12-12.3s12.1,4.9,12.1,12.3C453,677,447.6,683.5,441,683.5z
		 M441,658.7c-6.2,0-10.1,4.1-10.1,10.5c0,6.9,4.5,12.5,10.1,12.5s10.1-5.6,10.1-12.5C451.1,662.7,447.1,658.7,441,658.7z"/>
	<path class="st1" d="M441,683.5c-6.6,0-12-6.5-12-14.4c0-1.3,0.1-2.6,0.5-4c0.1-0.3,0.3-0.6,0.7-0.7c3.7-0.9,7.6-0.7,11.2,0.8
		c3.3,1.1,6.8,1.2,10.2,0.3c0.5-0.1,1.1,0.2,1.2,0.7l0,0c0.2,1,0.2,1.9,0.2,2.9C453,677,447.6,683.5,441,683.5z M431.2,666.1
		c-0.2,1-0.3,1.9-0.3,2.9c0,6.9,4.5,12.5,10.1,12.5s10.1-5.6,10.1-12.5c0-0.5,0-1-0.1-1.4c-3.4,0.8-7,0.5-10.3-0.5l0,0
		C437.6,665.8,434.4,665.5,431.2,666.1L431.2,666.1z"/>
	<path class="st1" d="M441,703.5c-0.2,0-0.6-0.1-0.7-0.2c-0.2-0.2-0.2-0.4-0.2-0.7v-10.9c0-0.3,0.2-0.7,0.6-0.9l9.1-4.8
		c0.2-0.1,0.6-0.1,0.9,0s0.7,0.2,1,0.3l6.5,1.1c2.1,0.3,4,1.4,5.3,3.1c0.2,0.3,0.2,0.8,0,1.1C458.4,699,450,703.5,441,703.5z
		 M442,692.2v9.3c7.7-0.3,14.9-4.2,19.4-10.4c-1-1-2.2-1.7-3.6-1.9l-6.5-1.1c-0.3-0.1-0.7-0.1-1-0.2L442,692.2z"/>
	<path class="st1" d="M441,703.5c-9,0-17.4-4.5-22.3-12c-0.2-0.3-0.2-0.8,0-1.1c1.3-1.7,3.2-2.8,5.3-3.1l6.5-1.1
		c0.3-0.1,0.7-0.2,1-0.3c0.2-0.1,0.5-0.1,0.9,0l9.1,4.8c0.3,0.2,0.5,0.5,0.5,0.9v10.9C442,703.1,441.5,703.5,441,703.5z
		 M420.6,691.1c4.5,6.3,11.7,10.2,19.4,10.4v-9.3l-8.2-4.4c-0.3,0.1-0.7,0.2-1,0.2l-6.5,1.1C422.9,689.5,421.6,690.1,420.6,691.1
		L420.6,691.1z"/>
	<path class="st1" d="M412.5,645.2c-2,0-3.5-1.5-3.5-3.5c0-2,1.5-3.5,3.5-3.5c2,0,3.5,1.5,3.5,3.5l0,0
		C416,643.6,414.5,645.2,412.5,645.2z M412.5,640.1c-0.9,0-1.7,0.8-1.7,1.7c0,0.9,0.8,1.6,1.7,1.6c0.9,0,1.6-0.8,1.6-1.6l0,0
		C414.1,640.7,413.4,640.1,412.5,640.1z"/>
	<path class="st1" d="M468.2,645.2c-2,0-3.5-1.5-3.5-3.5c0-2,1.5-3.5,3.5-3.5c2,0,3.5,1.5,3.5,3.5l0,0
		C471.8,643.6,470.1,645.2,468.2,645.2z M468.2,640.1c-0.9,0-1.7,0.8-1.7,1.7c0,0.9,0.8,1.6,1.7,1.6c0.9,0,1.6-0.8,1.6-1.6l0,0
		C469.8,640.7,469,640.1,468.2,640.1z"/>
	<path class="st1" d="M407.3,706.1c-2,0-3.5-1.7-3.5-3.5s1.6-3.5,3.5-3.5c2,0,3.5,1.7,3.5,3.5l0,0
		C410.8,704.5,409.3,706.1,407.3,706.1z M407.3,700.9c-0.9,0-1.7,0.8-1.7,1.7s0.8,1.7,1.7,1.7c0.9,0,1.6-0.8,1.6-1.7
		C408.9,701.7,408.2,700.9,407.3,700.9L407.3,700.9L407.3,700.9z"/>
	<path class="st1" d="M416.3,715.2c-2,0-3.5-1.7-3.5-3.5c0-1.9,1.6-3.5,3.5-3.5c2,0,3.5,1.6,3.5,3.5l0,0
		C419.9,713.6,418.3,715.2,416.3,715.2z M416.3,709.9c-0.9,0-1.6,0.8-1.6,1.7s0.8,1.7,1.6,1.7c0.9,0,1.7-0.8,1.7-1.7l0,0
		C418,710.7,417.2,710,416.3,709.9L416.3,709.9z"/>
	<path class="st1" d="M461.4,681.7h-5.2c-0.5-0.1-0.9-0.5-0.9-1.1c0-0.4,0.4-0.8,0.9-0.9h5.2c0.6,0.1,0.9,0.6,0.9,1.1
		C462.2,681.2,461.9,681.7,461.4,681.7z"/>
	<path class="st1" d="M458.9,684.2c-0.6,0-1-0.4-1-1l0,0V678c-0.1-0.6,0.3-1,0.9-1.1c0.5-0.1,1,0.3,1.1,0.9c0,0.1,0,0.1,0,0.2v5.2
		C459.9,683.9,459.5,684.2,458.9,684.2C458.9,684.3,458.9,684.3,458.9,684.2z"/>
	<path class="st1" d="M425.7,669.8h-5.2c-0.5-0.1-0.9-0.5-0.9-1.1c0-0.4,0.4-0.8,0.9-0.9h5.2c0.6,0.1,0.9,0.5,0.9,1.1
		C426.5,669.3,426.1,669.8,425.7,669.8z"/>
	<path class="st1" d="M423.1,672.3c-0.6,0-1-0.4-1-1l0,0v-5.2c-0.1-0.5,0.3-1,0.9-1.1c0.5-0.1,1,0.3,1.1,0.9c0,0.1,0,0.1,0,0.2v5.2
		C424,672,423.6,672.3,423.1,672.3C423.1,672.4,423.1,672.4,423.1,672.3z"/>
	<path class="st1" d="M399.5,651.7c-0.5,0-1-0.4-1-1l0,0v-15.5c0-0.5,0.4-1,1-1l0,0H415c0.6,0,1,0.4,1,1s-0.4,1-1,1h-14.5v14.5
		C400.5,651.3,400.1,651.6,399.5,651.7L399.5,651.7z"/>
	<path class="st1" d="M415,719.1h-15.5c-0.5,0-1-0.4-1-1l0,0v-15.5c0.1-0.5,0.6-0.9,1.1-0.9c0.4,0,0.8,0.4,0.9,0.9v14.5H415
		c0.6,0.1,0.9,0.5,0.9,1.1C415.9,718.6,415.6,719.1,415,719.1z"/>
	<path class="st1" d="M474.6,710c-2,0-3.5-1.5-3.5-3.5s1.5-3.5,3.5-3.5s3.5,1.5,3.5,3.5l0,0C478.2,708.4,476.6,709.9,474.6,710z
		 M474.6,704.8c-0.9,0-1.6,0.8-1.6,1.6c0,0.9,0.8,1.7,1.6,1.7c0.9,0,1.6-0.8,1.6-1.7l0,0C476.3,705.5,475.5,704.8,474.6,704.8z"/>
	<path class="st1" d="M476,654.3c-2,0-3.5-1.6-3.5-3.5c0-1.9,1.6-3.5,3.5-3.5c2,0,3.5,1.7,3.5,3.5l0,0
		C479.5,652.7,477.9,654.3,476,654.3z M476,649.1c-0.9,0-1.6,0.8-1.6,1.6c0,0.9,0.8,1.7,1.6,1.7s1.6-0.8,1.6-1.7
		C477.6,649.9,476.8,649.1,476,649.1L476,649.1z"/>
	<path class="st1" d="M482.5,719.1h-15.5c-0.5-0.1-0.9-0.5-0.9-1.1c0-0.4,0.4-0.8,0.9-0.9h14.5v-14.5c0.1-0.5,0.5-0.9,1.1-0.9
		c0.4,0,0.8,0.4,0.9,0.9v15.5C483.4,718.6,483,719.1,482.5,719.1L482.5,719.1z"/>
	<path class="st1" d="M482.5,651.7c-0.5,0-1-0.4-1-1l0,0v-14.5h-14.5c-0.5,0-1-0.4-1-1s0.4-1,1-1h15.5c0.5,0,1,0.4,1,1l0,0v15.5
		C483.4,651.3,483,651.7,482.5,651.7L482.5,651.7z"/>
</g>
<g id="_x30_3">
	<circle class="st4" cx="403.5" cy="488.3" r="34"/>
	<circle class="st4" cx="323.7" cy="408.2" r="29.1"/>
	<circle class="st4" cx="437.9" cy="377.3" r="48.5"/>
	<path class="st1" d="M398.3,509.5h-72.8c-6.4,0-11.6-5.2-11.6-11.6V362.1c0-6.4,5.2-11.5,11.6-11.5h72.8c6.4,0,11.4,5.2,11.4,11.5
		V498C409.7,504.3,404.6,509.5,398.3,509.5z M325.5,354.3c-4.4,0-7.9,3.5-7.9,7.9v135.9c0,4.4,3.5,7.9,7.9,7.9h72.8
		c4.4,0,7.9-3.5,7.9-7.9v-136c0-4.4-3.5-7.9-7.9-7.9h-72.8V354.3z"/>
	<path class="st1" d="M403.1,490.1h-82.5c-3.6,0-6.7-3-6.7-6.7V376.7c0-3.6,3-6.7,6.7-6.7h82.5c3.6,0,6.7,3,6.7,6.7v106.7
		C409.9,487.2,406.8,490.1,403.1,490.1z M320.6,373.7c-1.6,0-3.1,1.3-3.1,3.1v106.7c0,1.7,1.3,3.1,3.1,3.1h82.5
		c1.6,0,3.1-1.3,3.1-3.1V376.7c0-1.6-1.3-3.1-3.1-3.1H320.6z"/>
	<path class="st1" d="M371.6,364h-21.8c-1,0.1-1.9-0.7-2-1.6c-0.1-1,0.7-1.9,1.6-2c0.1,0,0.2,0,0.3,0h21.8c1-0.1,1.9,0.7,2,1.6
		c0.1,1-0.7,1.9-1.6,2C371.8,364,371.7,364,371.6,364z"/>
	<path class="st1" d="M340,500.5c-1.3,0-2.4-1.1-2.4-2.4l0,0c0-0.7,0.2-1.2,0.7-1.8c1-1,2.5-1,3.4,0c0.4,0.4,0.7,1.1,0.7,1.8
		C342.4,499.4,341.4,500.5,340,500.5z"/>
	<path class="st1" d="M359.5,498c0-1.3,1.1-2.4,2.4-2.4l0,0c1.3,0,2.4,1.1,2.4,2.4l0,0c0,1.3-1.1,2.4-2.4,2.4l0,0
		C360.6,500.4,359.5,499.4,359.5,498z"/>
	<path class="st1" d="M383.7,500.5c-1.3,0-2.4-1.1-2.4-2.4s1.1-2.4,2.4-2.4c0.7,0,1.3,0.2,1.8,0.7c0.4,0.4,0.7,1.1,0.7,1.8
		s-0.2,1.2-0.7,1.6C385,500.3,384.3,500.5,383.7,500.5z"/>
	<circle class="st1" cx="381.3" cy="362.1" r="2.4"/>
	<path class="st1" d="M446.8,509.5c-14.4,0-26.1-11.7-26.1-26.1c0-8.2,4-16.1,10.6-21v-67.2c-11.6-8.6-14-24.9-5.5-36.4
		c2.5-3.4,5.7-6,9.6-7.9c0.9-0.4,2-0.1,2.4,0.8c0.1,0.2,0.2,0.5,0.2,0.8v23.8l8.8,5.1l8.8-5.1v-23.9c0-1,0.9-1.8,1.9-1.8
		c0.2,0,0.4,0.1,0.7,0.2c13,6.3,18.4,21.9,12.1,34.8c-1.9,3.9-4.6,7.1-8,9.6v67.2c11.5,8.6,14.1,24.9,5.5,36.4
		C462.9,505.7,455.1,509.6,446.8,509.5L446.8,509.5z M434.4,355.6c-10.3,6.8-13.1,20.8-6.3,31c1.6,2.4,3.6,4.5,6.1,6.2
		c0.5,0.3,0.8,0.9,0.8,1.5v69.1c0,0.5-0.3,1.2-0.8,1.5c-10.2,6.9-12.9,20.9-5.9,31.1c6.9,10.2,20.9,12.9,31.1,5.9
		c10.2-6.9,12.9-20.9,5.9-31.1c-1.5-2.3-3.6-4.4-5.9-5.9c-0.5-0.3-0.8-0.9-0.8-1.5v-69.1c0-0.6,0.3-1.2,0.8-1.5
		c10.2-6.9,12.9-20.9,5.9-31.1c-1.6-2.4-3.7-4.5-6.2-6.1v21.7c0,0.7-0.3,1.2-0.9,1.5l-10.7,6.2c-0.6,0.3-1.2,0.3-1.9,0l-10.6-6.2
		c-0.6-0.3-0.9-0.9-0.9-1.5L434.4,355.6L434.4,355.6z M446.8,497.5c-0.3,0-0.7-0.1-0.9-0.2l-10.6-6.2c-0.5-0.3-0.9-0.9-0.9-1.5
		v-12.2c0-0.7,0.3-1.2,0.9-1.5l10.6-6.2c0.6-0.3,1.2-0.3,1.9,0l10.7,6.2c0.5,0.3,0.9,0.9,0.9,1.5v12.2c0,0.7-0.3,1.2-0.9,1.5
		l-10.7,6.2C447.4,497.4,447.1,497.5,446.8,497.5L446.8,497.5z M438,488.5l8.8,5.1l8.8-5.1v-10.1l-8.8-5.1l-8.8,5.1V488.5z"/>
	<path class="st1" d="M360.7,464.6c-1.9,0-3.7-0.1-5.6-0.4c-0.8-0.1-1.4-0.8-1.5-1.5l-1.6-10.1l-1.1-0.4l-8.1,5.9
		c-0.7,0.4-1.5,0.4-2.1,0c-3.1-2.2-5.7-4.8-7.9-7.9c-0.4-0.7-0.4-1.5,0-2.1l6-8.2c-0.1-0.3-0.3-0.7-0.4-1.1l-10.1-1.7
		c-0.8-0.1-1.4-0.8-1.5-1.5c-0.7-3.7-0.7-7.5,0-11.2c0.1-0.8,0.8-1.3,1.5-1.5l10.1-1.6c0.1-0.3,0.3-0.7,0.4-1.1l-6-8.2
		c-0.4-0.7-0.4-1.5,0-2.1c2.2-3.1,4.8-5.7,7.9-7.9c0.7-0.4,1.5-0.4,2.1,0l8.2,6.1l1-0.4l1.6-10.1c0.1-0.8,0.8-1.3,1.5-1.5
		c3.7-0.7,7.5-0.7,11.2,0c0.8,0.1,1.4,0.8,1.5,1.5l1.6,10.1c0.3,0.1,0.7,0.2,1,0.4l8.2-6.1c0.7-0.4,1.5-0.4,2.1,0
		c3.1,2.2,5.7,4.8,7.9,7.9c0.4,0.7,0.4,1.5,0,2.1l-6,8.2c0.1,0.3,0.3,0.7,0.4,1.1l10.1,1.6c0.8,0.1,1.4,0.8,1.5,1.5
		c0.7,3.7,0.7,7.5,0,11.2c-0.1,0.8-0.8,1.3-1.5,1.5l-10.1,1.7c-0.1,0.3-0.2,0.7-0.4,1l6,8.2c0.4,0.7,0.4,1.5,0,2.1
		c-2.2,3.1-4.8,5.7-7.9,7.9c-0.7,0.4-1.5,0.4-2.1,0l-8.2-6.1c-0.3,0.1-0.7,0.3-1,0.4l-1.6,10.1c-0.1,0.8-0.8,1.4-1.5,1.5
		C364.4,464.5,362.6,464.6,360.7,464.6z M356.9,460.8c2.4,0.3,5,0.3,7.5,0l1.5-9.8c0.1-0.7,0.5-1.2,1.2-1.4c0.9-0.3,1.8-0.7,2.6-1.1
		c0.7-0.3,1.3-0.2,1.9,0.1l8,5.8c2-1.5,3.7-3.3,5.3-5.3l-5.8-8c-0.4-0.6-0.4-1.3-0.1-1.9c0.4-0.9,0.8-1.8,1.1-2.6
		c0.2-0.7,0.8-1.1,1.4-1.2l9.8-1.5c0.3-2.5,0.3-5,0-7.5l-9.8-1.5c-0.7-0.1-1.2-0.5-1.4-1.2c-0.3-0.9-0.7-1.8-1.1-2.6
		c-0.3-0.7-0.2-1.3,0.1-1.9l5.8-8c-1.5-2-3.3-3.7-5.3-5.3l-8,5.8c-0.5,0.4-1.3,0.4-1.9,0.1c-0.9-0.4-1.8-0.8-2.6-1.1
		c-0.7-0.2-1.1-0.8-1.2-1.4l-1.5-9.8c-2.4-0.3-4.9-0.3-7.5,0l-1.5,9.8c-0.1,0.7-0.6,1.2-1.2,1.4c-0.9,0.3-1.8,0.7-2.6,1.1
		c-0.6,0.3-1.3,0.2-1.9-0.1l-8.1-5.8c-2,1.5-3.7,3.3-5.3,5.3l5.8,8c0.4,0.5,0.4,1.3,0.1,1.9c-0.4,0.9-0.8,1.8-1.1,2.6
		c-0.2,0.7-0.8,1.1-1.4,1.2l-9.8,1.5c-0.3,2.5-0.3,4.9,0,7.5l9.8,1.5c0.7,0.1,1.2,0.6,1.4,1.2c0.3,0.9,0.7,1.8,1.1,2.6
		c0.3,0.7,0.2,1.3-0.1,1.9l-5.8,8c1.5,2,3.3,3.7,5.3,5.3l8-5.8c0.6-0.4,1.3-0.4,1.9-0.1c0.9,0.4,1.8,0.8,2.6,1.1
		c0.7,0.2,1.1,0.8,1.2,1.4L356.9,460.8z M393,435.4L393,435.4z"/>
	<path class="st1" d="M360.7,442.4c-6.8,0-12.3-5.5-12.3-12.3c0-6.8,5.5-12.3,12.3-12.3c6.8,0,12.3,5.5,12.3,12.3l0,0
		C373,436.9,367.5,442.4,360.7,442.4z M360.7,421.4c-4.8,0-8.7,3.9-8.7,8.7s3.8,8.7,8.7,8.7s8.7-3.8,8.7-8.7l0,0
		C369.4,425.2,365.4,421.4,360.7,421.4L360.7,421.4z"/>
	<path class="st1" d="M356.3,383.3h-26c-1-0.1-1.8-1-1.6-2c0.1-0.9,0.8-1.6,1.6-1.6h26c1,0.1,1.8,1,1.6,2
		C357.9,382.6,357.2,383.3,356.3,383.3z"/>
	<path class="st1" d="M371.6,383.3H366c-1,0.1-1.9-0.7-2-1.7c-0.1-1,0.7-1.9,1.6-2c0.1,0,0.2,0,0.3,0h5.6c1,0.1,1.8,1,1.6,2
		C373.2,382.6,372.5,383.3,371.6,383.3z"/>
	<path class="st1" d="M393.5,480.5h-23.5c-1-0.1-1.8-1-1.6-2c0.1-0.9,0.8-1.6,1.6-1.6h23.5c1,0.1,1.8,1,1.6,2
		C395,479.6,394.3,480.4,393.5,480.5z"/>
	<path class="st1" d="M360.1,480.5h-5.6c-1,0.1-1.9-0.7-2-1.6c-0.1-1,0.7-1.9,1.6-2c0.1,0,0.2,0,0.3,0h5.6c1-0.1,1.9,0.7,2,1.6
		c0.1,1-0.7,1.9-1.6,2C360.4,480.5,360.2,480.5,360.1,480.5z"/>
</g>
<g id="_x30_2">
	<circle class="st4" cx="435.3" cy="136.4" r="21.6"/>
	<circle class="st4" cx="412.2" cy="96.3" r="18.5"/>
	<circle class="st4" cx="369" cy="164.1" r="30.8"/>
	<path class="st1" d="M433.7,176.1h-80.1c-3.2,0-5.8-2.5-5.8-5.7V104c0-0.7,0.4-1.1,1-1.1c0,0,0,0,0.1,0h98.7c0.7,0,1.1,0.4,1.1,1.1
		c0,0,0,0,0,0.1v57.1c0,0.3-0.1,0.6-0.3,0.8l-13.9,13.9C434.3,176,434.1,176.1,433.7,176.1z M350.1,105.1v65.1
		c0,1.9,1.5,3.5,3.5,3.4l0,0h79.8l13.2-13.2V105h-96.5V105.1z"/>
	<path class="st1" d="M447.7,105.1H349c-0.7,0-1.1-0.4-1.1-1.1V93.3c0-3.2,2.6-5.8,5.8-5.8h89.4c3.2,0,5.7,2.6,5.7,5.8V104
		C448.9,104.7,448.5,105.1,447.7,105.1L447.7,105.1z M350.1,102.8h96.4v-9.7c0-1.9-1.5-3.4-3.5-3.5h-89.3c-1.9,0-3.5,1.5-3.5,3.5
		V102.8z"/>
	<path class="st1" d="M421.4,97.9c-0.4,0-0.8-0.2-1.1-0.4c-0.3-0.3-0.4-0.7-0.4-1.1s0.1-0.8,0.4-1.1c0.7-0.6,1.5-0.6,2.2,0
		c0.3,0.3,0.4,0.7,0.4,1.1C422.9,97.1,422.3,97.9,421.4,97.9L421.4,97.9z"/>
	<path class="st1" d="M429.1,96.3c0-0.9,0.7-1.5,1.5-1.5l0,0l0,0c0.9,0,1.5,0.7,1.5,1.5l0,0l0,0c0,0.9-0.7,1.5-1.5,1.5
		c0,0,0,0-0.1,0l0,0C429.8,97.9,429.1,97.1,429.1,96.3z"/>
	<path class="st1" d="M440,97.9c-0.4,0-0.8-0.2-1.1-0.4c-0.3-0.3-0.4-0.7-0.4-1.1s0.1-0.8,0.4-1.1c0.7-0.6,1.5-0.6,2.2,0
		c0.3,0.3,0.4,0.7,0.4,1.1C441.4,97.1,440.8,97.9,440,97.9L440,97.9z"/>
	<path class="st1" d="M402.9,188.4c-1.1,0-2.1-0.3-2.9-1.1l-0.3-0.3c-0.8-0.7-2-0.7-2.6,0l-0.3,0.3c-1.8,1.6-4.4,1.5-6-0.2
		c-0.3-0.3-0.5-0.7-0.8-1.1l-0.2-0.4c-0.4-0.9-1.5-1.4-2.5-1l-0.4,0.1c-2.2,0.9-4.7-0.3-5.5-2.5c-0.1-0.4-0.2-0.9-0.2-1.3v-0.4
		c0-1-0.9-1.9-1.9-1.9h-0.4c-2.4-0.1-4.2-2.1-4.1-4.5c0-0.4,0.1-0.9,0.2-1.3l0.2-0.4c0.3-1-0.1-2.1-1-2.4l-0.4-0.2
		c-2.2-1-3.1-3.5-2.1-5.7c0.2-0.4,0.4-0.8,0.8-1.1l0.3-0.3c0.7-0.8,0.7-1.9,0-2.6l-0.3-0.3c-1.6-1.8-1.5-4.5,0.2-6.1
		c0.3-0.3,0.7-0.6,1.1-0.8l0.4-0.2c1-0.4,1.4-1.5,1-2.4l-0.2-0.4c-0.4-1.3-0.3-2.8,0.4-3.8c0.8-1.1,2-1.9,3.4-1.9h0.4
		c1,0,1.9-0.9,1.9-1.9v-0.4c0.1-2.4,2.1-4.2,4.4-4.1c0.4,0,0.9,0.1,1.3,0.2l0.4,0.1c1,0.3,2.1-0.1,2.4-1l0.2-0.4
		c1-2.2,3.5-3.1,5.7-2.1c0.4,0.2,0.8,0.4,1.1,0.8l0.3,0.3c0.8,0.7,1.9,0.7,2.6,0l0.3-0.3c1.8-1.6,4.4-1.5,6,0.2
		c0.3,0.3,0.5,0.8,0.8,1.1l0.2,0.4c0.4,0.9,1.5,1.4,2.5,1l0.4-0.1c2.2-0.8,4.7,0.3,5.5,2.5c0.1,0.4,0.2,0.9,0.2,1.3v0.4
		c0,1,0.9,1.9,1.9,1.9h0.4c2.3,0.1,4.2,2.1,4.2,4.4c0,0.4-0.1,0.9-0.2,1.3l-0.1,0.4c-0.3,1,0.1,2.1,1,2.5l0.4,0.2
		c1.2,0.6,2.1,1.8,2.4,3.1c0.2,1.3-0.1,2.8-1.1,3.7l-0.3,0.3c-0.7,0.8-0.7,2,0,2.6l0.3,0.3c1.7,1.8,1.5,4.4-0.2,6.1
		c-0.3,0.3-0.7,0.5-1.1,0.8l-0.4,0.2c-0.9,0.4-1.4,1.5-1,2.5l0.2,0.4c0.9,2.2-0.3,4.7-2.5,5.5c-0.4,0.1-0.9,0.2-1.3,0.2h-0.4
		c-1,0.1-1.8,0.9-1.9,1.9v0.4c-0.1,2.3-2.1,4.2-4.4,4.2c-0.4,0-0.9-0.1-1.3-0.2l-0.4-0.1c-1-0.3-2.1,0.1-2.4,1l-0.2,0.4
		c-0.5,1.2-1.8,2.1-3.1,2.4C403.5,188.4,403.1,188.4,402.9,188.4z M398.3,184.1c1.1,0,2.1,0.3,3,1.1l0.3,0.3
		c0.4,0.4,1.1,0.7,1.8,0.4c0.7-0.1,1.1-0.5,1.4-1.1l0.2-0.4c1-2,3.3-3,5.4-2.2l0.4,0.1c0.6,0.2,1.2,0.1,1.8-0.2
		c0.6-0.3,0.9-1,0.9-1.5v-0.4c0.1-2.2,1.9-4.1,4.2-4.2h0.4c0.7,0,1.2-0.3,1.5-0.9c0.3-0.6,0.4-1.2,0.2-1.8l-0.2-0.4
		c-0.8-2.1,0.2-4.4,2.2-5.4l0.4-0.2c0.6-0.2,1-0.8,1.1-1.4c0.1-0.7-0.1-1.2-0.4-1.8l-0.3-0.3c-1.5-1.7-1.5-4.2,0-5.8l0.3-0.3
		c0.8-0.8,0.7-2.1-0.1-2.8c-0.1-0.1-0.3-0.2-0.6-0.3l-0.4-0.2c-2-1-3-3.3-2.2-5.4l0.2-0.4c0.3-1-0.1-2.2-1.2-2.5
		c-0.2-0.1-0.4-0.1-0.7-0.1h-0.6c-2.2-0.1-4.1-1.9-4.1-4.2v-0.4c0-0.7-0.3-1.2-0.9-1.5c-0.6-0.3-1.2-0.4-1.8-0.2l-0.4,0.1
		c-2.1,0.8-4.4-0.2-5.4-2.2l-0.2-0.4c-0.4-1-1.6-1.4-2.6-1c-0.2,0.1-0.3,0.2-0.6,0.3l-0.3,0.3l0,0c-1.6,1.5-4.2,1.5-5.8,0l-0.3-0.3
		c-0.4-0.4-1.1-0.7-1.8-0.4c-0.7,0.1-1.1,0.5-1.4,1.1l-0.2,0.4c-1,2-3.3,3-5.4,2.2l-0.4-0.1c-0.5-0.2-1.2-0.1-1.8,0.2
		c-0.5,0.3-0.9,0.9-0.9,1.5v0.4c-0.1,2.2-1.9,4.1-4.1,4.1h-0.4c-0.7,0-1.2,0.3-1.5,0.9c-0.3,0.5-0.4,1.2-0.2,1.8l0.1,0.4
		c0.8,2.1-0.2,4.4-2.2,5.4l-0.4,0.2c-0.5,0.2-1,0.8-1.1,1.4c-0.1,0.7,0.1,1.3,0.6,1.8l0.3,0.3c1.5,1.6,1.5,4.2,0,5.8l-0.3,0.3
		c-0.8,0.8-0.7,2,0.1,2.8c0.1,0.1,0.3,0.3,0.6,0.3l0.4,0.2c2,1,3,3.3,2.2,5.4l-0.1,0.4c-0.2,0.6-0.1,1.2,0.2,1.8
		c0.3,0.5,0.9,0.9,1.5,0.9h0.4c2.2,0.1,4.1,1.9,4.2,4.2v0.4c0,1.1,1,2,2,1.9c0.2,0,0.4,0,0.7-0.1l0.4-0.1c2.1-0.8,4.4,0.2,5.4,2.2
		l0.2,0.4c0.4,1,1.6,1.4,2.6,1c0.2-0.1,0.3-0.2,0.6-0.3l0.3-0.3C396.2,184.5,397.2,184.1,398.3,184.1L398.3,184.1z M400.4,136.1
		L400.4,136.1z"/>
	<path class="st1" d="M408.2,128.1c-0.2,0-0.4-0.1-0.7-0.2c-0.3-0.2-0.4-0.6-0.4-1v-23c0-0.7,0.4-1.1,1-1.2h0.1h14.7
		c0.7,0,1.1,0.4,1.1,1v0.1v18.3c0,0.6-0.3,1-0.8,1.1l-14.9,4.9C408.4,128.1,408.3,128.1,408.2,128.1z M409.3,105.1v20.2l12.5-4.2
		v-16.1L409.3,105.1L409.3,105.1z"/>
	<path class="st1" d="M398.3,131.4c-0.1,0-0.2,0-0.3-0.1l-9.9-3.3c-0.4-0.1-0.8-0.6-0.8-1.1V104c0-0.7,0.5-1.2,1.2-1.2h19.7
		c0.7,0,1.1,0.4,1.1,1.1c0,0,0,0,0,0.1v23c0,0.5-0.3,1-0.8,1.1l-9.9,3.3C398.5,131.4,398.4,131.4,398.3,131.4z M389.6,126.2l8.7,2.9
		l8.7-2.9v-20.9h-17.4L389.6,126.2L389.6,126.2z"/>
	<path class="st1" d="M388.4,128.1c-0.1,0-0.2,0-0.3-0.1l-14.9-4.8c-0.4-0.1-0.8-0.6-0.8-1.1v-18c0-0.7,0.4-1.1,1-1.1c0,0,0,0,0.1,0
		h14.9c0.7,0,1.1,0.4,1.1,1v0.1v23C389.6,127.6,389.1,128.1,388.4,128.1C388.5,128.1,388.4,128.1,388.4,128.1L388.4,128.1z
		 M374.8,121.2l12.4,4.2v-20.2h-12.5L374.8,121.2z"/>
	<path class="st1" d="M408.2,128.1c-0.2,0-0.4-0.1-0.7-0.2c-0.3-0.2-0.4-0.6-0.4-1v-23c0-0.7,0.4-1.1,1-1.2h0.1h14.7
		c0.7,0,1.1,0.4,1.1,1v0.1v18.3c0,0.6-0.3,1-0.8,1.1l-14.9,4.9C408.4,128.1,408.3,128.1,408.2,128.1z M409.3,105.1v20.2l12.5-4.2
		v-16.1L409.3,105.1L409.3,105.1z"/>
	<path class="st1" d="M398.3,131.4c-0.1,0-0.2,0-0.3-0.1l-9.9-3.3c-0.4-0.1-0.8-0.6-0.8-1.1V104c0-0.7,0.5-1.2,1.2-1.2h19.7
		c0.7,0,1.1,0.4,1.1,1.1c0,0,0,0,0,0.1v23c0,0.5-0.3,1-0.8,1.1l-9.9,3.3C398.5,131.4,398.4,131.4,398.3,131.4z M389.6,126.2l8.7,2.9
		l8.7-2.9v-20.9h-17.4L389.6,126.2L389.6,126.2z"/>
	<path class="st1" d="M407.9,175.7c-0.2,0-0.3,0-0.5-0.1l-9-4.7l-9,4.7c-0.4,0.2-0.9,0.2-1.2-0.1c-0.3-0.2-0.6-0.7-0.4-1.1l1.8-10
		l-7.3-7c-0.4-0.4-0.4-1.2,0-1.6c0.2-0.2,0.4-0.3,0.7-0.3l10-1.4l4.5-9.1c0.3-0.6,1.1-0.8,1.7-0.4c0.2,0.1,0.3,0.2,0.4,0.4l4.5,9.1
		l10,1.4c0.7,0.1,1.1,0.7,1,1.3c0,0.2-0.1,0.6-0.3,0.7l-7.3,7l1.8,10c0.1,0.7-0.3,1.2-1,1.3C408,175.7,407.9,175.7,407.9,175.7
		L407.9,175.7z M398.3,168.3c0.2,0,0.3,0,0.5,0.1l7.5,4l-1.4-8.2c-0.1-0.3,0.1-0.8,0.3-1l6-5.8l-8.4-1.2c-0.3,0-0.7-0.3-0.9-0.7
		l-3.7-7.6l-3.7,7.6c-0.1,0.3-0.4,0.6-0.9,0.7l-8.4,1.2l6,5.8c0.3,0.2,0.4,0.7,0.3,1l-1.4,8.2l7.5-4
		C398,168.3,398.1,168.3,398.3,168.3z"/>
	<path class="st1" d="M433.7,176.1c-0.1,0-0.3,0-0.4-0.1c-0.4-0.2-0.8-0.7-0.8-1.1V161c0-0.7,0.6-1.1,1.2-1.1h13.9
		c0.4,0,0.9,0.2,1.1,0.7s0.1,0.9-0.2,1.2l-13.9,13.9C434.4,176,434.1,176.1,433.7,176.1z M434.8,162.2v9.9l9.9-9.9H434.8z"/>
	<path class="st1" d="M441.4,149.9c-0.7,0-1.1-0.4-1.1-1c0,0,0,0,0-0.1v-15.2c0-0.7,0.5-1.1,1.1-1.1c0.6,0,1.1,0.6,1.1,1.1v15.1
		c0,0.7-0.4,1.1-1,1.1C441.5,149.9,441.5,149.9,441.4,149.9z"/>
	<path class="st1" d="M441.4,128.7c-0.7,0-1.1-0.4-1.1-1v-0.1v-3.4c0-0.7,0.5-1.1,1.1-1.1c0.6,0,1.1,0.5,1.1,1.1v3.4
		c0,0.7-0.4,1.1-1,1.2C441.5,128.7,441.5,128.7,441.4,128.7z"/>
	<path class="st1" d="M359.8,119.3h-6.2c-0.7,0-1.1-0.5-1.1-1.2c0-0.7,0.5-1.2,1.1-1.2h6.2c0.7,0,1.1,0.6,1.1,1.2
		C360.9,118.8,360.5,119.3,359.8,119.3L359.8,119.3z"/>
	<path class="st1" d="M356.7,122.4c-0.7,0-1.1-0.4-1.1-1.1c0,0,0,0,0-0.1V115c0-0.7,0.5-1.1,1.1-1.1c0.5,0,1.1,0.6,1.1,1.1v6.2
		C357.8,121.9,357.4,122.3,356.7,122.4C356.8,122.4,356.7,122.4,356.7,122.4z"/>
	<circle class="st1" cx="356.7" cy="127.5" r="1.1"/>
	<circle class="st1" cx="356.7" cy="132.1" r="1.1"/>
	<circle class="st1" cx="356.7" cy="138.3" r="1.1"/>
	<circle class="st1" cx="356.7" cy="147.5" r="1.1"/>
	<path class="st1" d="M447.7,177.6h-6.2c-0.7-0.1-1.1-0.7-1.1-1.3c0-0.6,0.4-1,1.1-1.1h6.2c0.7,0.1,1.1,0.7,1.1,1.3
		C448.7,177.2,448.2,177.6,447.7,177.6z"/>
	<path class="st1" d="M444.6,180.7c-0.7,0-1.1-0.4-1.1-1.1v-6.2c0-0.7,0.6-1.1,1.1-1.1c0.6,0,1.1,0.6,1.1,1.1v6.2
		C445.7,180.3,445.3,180.7,444.6,180.7L444.6,180.7z"/>
	<path class="st1" d="M424.5,188.4c-0.7,0-1.1-0.4-1.1-1.1c0,0,0,0,0-0.1V181c0-0.7,0.5-1.1,1.1-1.1c0.5,0,1.1,0.5,1.1,1.1v6.2
		C425.6,187.9,425.1,188.3,424.5,188.4C424.6,188.4,424.6,188.4,424.5,188.4z"/>
	<path class="st1" d="M364.4,188.4c-0.7,0-1.1-0.4-1.1-1.1c0,0,0,0,0-0.1V181c0-0.7,0.5-1.1,1.1-1.1c0.6,0,1.1,0.5,1.1,1.1v6.2
		C365.5,187.9,365.1,188.3,364.4,188.4C364.5,188.4,364.4,188.4,364.4,188.4z"/>
	<path class="st1" d="M427.6,185.3h-6.2c-0.7,0-1.1-0.6-1.1-1.2s0.5-1.2,1.1-1.2l0,0h6.2c0.7,0,1.1,0.6,1.1,1.2
		S428.2,185.3,427.6,185.3z"/>
	<path class="st1" d="M367.5,185.3h-6.2c-0.7,0-1.1-0.6-1.1-1.2s0.5-1.2,1.1-1.2h6.2c0.7,0,1.1,0.6,1.1,1.2S368.2,185.3,367.5,185.3
		L367.5,185.3z"/>
</g>
<g id="_x30_1">
	<circle class="st4" cx="112.2" cy="340" r="22.7"/>
	<circle class="st4" cx="56.1" cy="299.7" r="19.5"/>
	<circle class="st4" cx="134.2" cy="266.8" r="32.3"/>
	<path class="st1" d="M146.6,330H56c-4.3,0-7.7-3.4-7.7-7.7v-68c0-4.3,3.4-7.7,7.7-7.7h90.6c4.3,0,7.7,3.4,7.7,7.7v68
		C154.3,326.6,150.9,330,146.6,330z M56,249c-2.9,0-5.3,2.3-5.3,5.3v68c0,2.9,2.3,5.3,5.3,5.3h90.6c2.9,0,5.3-2.3,5.3-5.3v-68
		c0-2.9-2.3-5.3-5.3-5.3L56,249z"/>
	<path class="st1" d="M135.3,330h-68c-3.3,0-6-2.8-6-6.1v-71.2c0-3.3,2.8-6.1,6-6.1h68c3.3,0,6.1,2.8,6.1,6.1v71.2
		C141.3,327.2,138.6,330,135.3,330z M67.3,249c-2,0-3.6,1.6-3.6,3.6v71.2c0,2,1.6,3.6,3.6,3.6h68c2,0,3.6-1.6,3.6-3.6v-71.2
		c0-2-1.7-3.6-3.6-3.6L67.3,249z"/>
	<path class="st1" d="M146.6,296c-0.7,0-1.2-0.6-1.2-1.2v-13c-0.1-0.7,0.4-1.3,1.1-1.3c0.7-0.1,1.3,0.4,1.3,1.1c0,0.1,0,0.1,0,0.2
		v13C147.8,295.4,147.3,296,146.6,296L146.6,296z"/>
	<path class="st1" d="M56,296c-0.7,0-1.2-0.6-1.2-1.2l0,0v-13c-0.1-0.7,0.4-1.3,1.1-1.3c0.7-0.1,1.3,0.4,1.3,1.1c0,0.1,0,0.1,0,0.2
		v13C57.2,295.4,56.6,296,56,296L56,296z"/>
	<path class="st1" d="M111,309H91.6c-6.1,0-10.9-5-10.9-10.9v-19.5c0-6,4.9-10.9,10.9-10.9H111c6,0,10.9,5,10.9,10.9v19.5
		C121.9,304.1,117,309,111,309z M91.6,270.1c-4.7,0-8.5,3.9-8.5,8.5v19.5c0,4.7,3.9,8.5,8.5,8.5H111c4.7,0,8.5-3.9,8.5-8.5v-19.5
		c0-4.7-3.8-8.5-8.5-8.5L91.6,270.1L91.6,270.1z"/>
	<path class="st1" d="M96.7,344.4H72.2c-0.7,0-1.2-0.5-1.2-1.2l0,0v-31.2c0-0.1,0-0.3,0-0.4c0.3-3.2,3.1-5.6,6.3-5.6
		c0.6,0,1.2,0.1,1.8,0.2c1-2.2,3.3-3.6,5.7-3.6c1.2,0,2.3,0.3,3.3,1c2-1.8,4.8-2.1,7.2-0.9v-15.2c0-2.8,2.6-5.1,5.7-5.1
		c3.1,0,5.8,2.2,5.8,5.1v34.2c2.8-0.5,5.6-0.8,8.5-0.5c6.4,0.5,10.7,3.6,10.9,7.6c0.1,3.4-0.7,4.8-0.8,5.1c-0.2,0.4-0.8,0.7-1.3,0.6
		c-2.9-0.6-7.9-1.3-9.6-0.8c-3.5,1.1-6.9,4-10,6.4C101.3,342.3,98.9,344.4,96.7,344.4z M73.4,342h23.3c1.3,0,3.8-2.1,6.3-4
		c3.2-2.6,6.8-5.5,10.8-6.8c2.3-0.8,7.4,0.1,9.7,0.4c0.2-1,0.2-2,0.2-3c-0.1-2.6-3.7-4.8-8.7-5.3c-3.1-0.2-6.2,0-9.1,0.9
		c-0.3,0.1-0.8,0-1.1-0.2s-0.4-0.5-0.4-1v-35.8c0-1.4-1.5-2.6-3.4-2.6c-1.9,0-3.3,1.2-3.3,2.6V305c0,0.6-0.3,1-0.9,1.1
		c-0.4,0.2-1,0-1.3-0.4c-1.3-1.8-3.6-2.1-5.4-0.8c-0.3,0.2-0.6,0.5-0.8,0.8c-0.2,0.3-0.6,0.4-0.9,0.4s-0.7-0.1-1-0.3
		c-0.8-0.7-1.7-1.1-2.6-1.1c-1.9,0-3.5,1.3-3.9,3.2c-0.1,0.3-0.3,0.7-0.7,0.9c-0.3,0.2-0.8,0.2-1.1,0c-1.9-1-4.2-0.3-5.3,1.5
		c-0.2,0.4-0.4,1-0.4,1.5v0.2L73.4,342z"/>
	<path class="st1" d="M96.7,352.6H72.2c-0.7,0-1.2-0.5-1.2-1.2v-8.2c0-0.7,0.5-1.2,1.2-1.2l0,0h24.5c0.7,0,1.2,0.5,1.2,1.2l0,0v8.2
		C97.9,352.1,97.3,352.6,96.7,352.6L96.7,352.6z M73.4,350.2h22.1v-5.8H73.4V350.2z"/>
	<path class="st1" d="M75.3,296c-0.3,0-0.7-0.1-0.9-0.3l-6.5-6.5c-0.4-0.4-0.4-1.2,0-1.8l0,0l6.5-6.5c0.4-0.4,1.2-0.4,1.7,0l0,0
		c0.4,0.4,0.4,1.2,0,1.8l0,0l-5.6,5.6l5.6,5.6c0.4,0.4,0.4,1.2,0,1.8l0,0C76,295.9,75.7,296,75.3,296z"/>
	<path class="st1" d="M107.8,263.7c-0.3,0-0.7-0.1-0.9-0.3l-5.6-5.6l-5.6,5.6c-0.4,0.4-1.2,0.4-1.8,0l0,0c-0.4-0.4-0.4-1.2,0-1.8
		l6.5-6.5c0.4-0.4,1.2-0.4,1.8,0l0,0l6.5,6.5c0.4,0.4,0.4,1.2,0,1.8C108.3,263.5,108.1,263.7,107.8,263.7z"/>
	<path class="st1" d="M127.2,296c-0.3,0-0.7-0.1-0.9-0.3c-0.4-0.4-0.4-1.2,0-1.8l0,0l5.6-5.6l-5.6-5.6c-0.4-0.4-0.4-1.2,0-1.8l0,0
		c0.4-0.4,1.2-0.4,1.7,0l0,0l6.5,6.5c0.4,0.4,0.4,1.2,0,1.8l0,0l-6.5,6.5C127.8,295.9,127.5,296,127.2,296z"/>
	<path class="st1" d="M52.7,352.6c-2.4,0-4.4-2-4.3-4.4c0-2.4,2-4.4,4.4-4.3c2.4,0,4.3,2,4.3,4.3C57.2,350.7,55.2,352.6,52.7,352.6z
		 M52.7,346.3c-1.1,0-2,0.9-2,2c0,1.1,0.9,2,2,2c1.1,0,2-0.9,2-2l0,0C54.8,347.1,53.8,346.3,52.7,346.3z"/>
	<path class="st1" d="M62.5,343c-2.4,0-4.5-2-4.5-4.4s2-4.5,4.4-4.5c2.4,0,4.5,2,4.5,4.4l0,0C66.9,341,64.9,343,62.5,343z
		 M62.5,336.5c-1.1,0-2,0.9-2,2s0.9,2,2,2c1.1,0,2-0.9,2-2l0,0C64.5,337.4,63.6,336.5,62.5,336.5L62.5,336.5z"/>
	<path class="st1" d="M115.8,347.8c-2.4,0-4.4-2-4.3-4.4c0-2.4,2-4.4,4.4-4.3c2.4,0,4.3,2,4.3,4.3
		C120.3,345.8,118.4,347.8,115.8,347.8z M115.8,341.3c-1.1,0-2,0.9-2,2s0.9,2,2,2c1.1,0,2-0.9,2-2l0,0
		C117.9,342.3,116.9,341.3,115.8,341.3L115.8,341.3z"/>
	<path class="st1" d="M133.6,343c-2.4,0-4.5-2-4.5-4.4s2-4.5,4.4-4.5s4.5,2,4.5,4.4l0,0C138,341,136.1,343,133.6,343z M133.6,336.5
		c-1.1,0-2,0.9-2,2s0.9,2,2,2c1.1,0,2-0.9,2-2l0,0C135.6,337.4,134.7,336.5,133.6,336.5L133.6,336.5z"/>
	<path class="st1" d="M149.8,351.1c-2.4,0-4.4-2-4.4-4.4s2-4.4,4.4-4.4s4.4,2,4.4,4.4C154.2,349.1,152.2,351,149.8,351.1z
		 M149.8,344.6c-1.1,0-2,0.9-2,2c0,1.1,0.9,2,2,2c1.1,0,2-0.9,2-2l0,0C151.9,345.5,150.9,344.6,149.8,344.6z"/>
</g>
</svg>
