<?xml version="1.0" encoding="utf-8"?>
<!-- Generator: Adobe Illustrator 26.0.3, SVG Export Plug-In . SVG Version: 6.00 Build 0)  -->
<svg version="1.1" id="seo" xmlns="http://www.w3.org/2000/svg" xmlns:xlink="http://www.w3.org/1999/xlink" x="0px" y="0px"
	 viewBox="0 0 1352 800" style="enable-background:new 0 0 1352 800;" xml:space="preserve">
<style type="text/css">
	.st0{opacity:0.2;fill:#00CC61;enable-background:new    ;}
	.st1{fill:#00CC61;}
	.st2{fill:none;stroke:#FFFFFF;stroke-width:7;stroke-miterlimit:10;}
	.st3{fill:#FFFFFF;}
	.st4{fill:none;stroke:#FFFFFF;stroke-width:3;stroke-miterlimit:10;}
</style>
<g id="_x30_7">
	<circle class="st0" cx="959.8" cy="198.6" r="23.1"/>
	<path class="st0" d="M917.8,148.8c0,10.9-8.9,19.8-19.8,19.8s-19.8-8.9-19.8-19.8c0-10.9,8.9-19.8,19.8-19.8
		S917.8,137.8,917.8,148.8z"/>
	<circle class="st0" cx="979.1" cy="123.6" r="33"/>
	<path class="st1" d="M912.1,210.2H889c-0.7,0-1.2-0.6-1.2-1.2v-23.1c0-0.4,0.3-0.9,0.8-1.1c0.4-0.2,1-0.1,1.3,0.2l6.5,6.6l5.7-5.7
		c0.4-0.4,1.2-0.4,1.8,0l0,0l8.2,8.2c0.4,0.4,0.4,1.2,0,1.8l0,0l-5.7,5.7l6.5,6.5c0.3,0.3,0.4,0.9,0.2,1.3
		C913,210,912.5,210.2,912.1,210.2z M890.3,207.7h18.9l-5.3-5.3c-0.4-0.4-0.4-1.2,0-1.8l0,0l5.7-5.7l-6.5-6.5l-5.7,5.7
		c-0.4,0.4-1.2,0.4-1.8,0l0,0l-5.3-5.3L890.3,207.7z"/>
	<path class="st1" d="M889,127.8c-0.1,0-0.3,0-0.4-0.1c-0.4-0.2-0.8-0.7-0.8-1.1v-23.1c0-0.7,0.6-1.2,1.2-1.2h23.1
		c0.7,0,1.2,0.5,1.2,1.2c0,0.3-0.1,0.7-0.3,0.9l-6.5,6.5l5.7,5.7c0.2,0.2,0.3,0.6,0.3,0.9s-0.1,0.7-0.3,0.9l-8.2,8.2
		c-0.4,0.4-1.2,0.4-1.8,0l0,0l-5.7-5.7l-6.5,6.5C889.6,127.7,889.4,127.8,889,127.8z M896.5,117.9c0.3,0,0.7,0.1,0.9,0.3l5.7,5.7
		l6.5-6.5l-5.7-5.7c-0.2-0.2-0.3-0.6-0.3-0.9s0.1-0.7,0.3-0.9l5.3-5.3h-18.8v18.9l5.3-5.3C895.9,118,896.1,117.9,896.5,117.9
		L896.5,117.9z"/>
	<path class="st1" d="M994.5,127.8c-0.3,0-0.7-0.1-0.9-0.3L987,121l-5.7,5.7c-0.4,0.4-1.2,0.4-1.8,0l-8.2-8.2
		c-0.2-0.2-0.3-0.6-0.3-0.9s0.1-0.7,0.3-0.9l5.7-5.7l-6.6-6.5c-0.3-0.3-0.4-0.9-0.2-1.3s0.7-0.8,1.1-0.8h23.1c0.7,0,1.2,0.5,1.2,1.2
		v23.1c0,0.4-0.3,0.9-0.8,1.1C994.8,127.7,994.6,127.8,994.5,127.8z M974,117.6l6.5,6.5l5.7-5.7c0.4-0.4,1.2-0.4,1.8,0l5.3,5.3
		v-18.8h-18.8l5.3,5.3c0.2,0.2,0.3,0.5,0.3,0.9c0,0.3-0.1,0.7-0.3,0.9L974,117.6z"/>
	<path class="st1" d="M994.5,210.2h-23.1c-0.4,0-0.9-0.3-1.1-0.8c-0.2-0.4-0.1-1,0.2-1.3l6.6-6.5l-5.7-5.7c-0.4-0.4-0.4-1.2,0-1.8
		l8.2-8.2c0.2-0.2,0.6-0.3,0.9-0.3l0,0c0.3,0,0.7,0.1,0.9,0.3l5.7,5.7l6.6-6.6c0.3-0.2,0.8-0.3,1.2-0.1s0.8,0.7,0.8,1.1v23.1
		C995.8,209.6,995.1,210.2,994.5,210.2z M974.4,207.7h18.8v-18.8l-5.3,5.3c-0.2,0.2-0.5,0.3-0.9,0.3l0,0c-0.3,0-0.7-0.1-0.9-0.3
		l-5.7-5.7l-6.5,6.5l5.7,5.7c0.2,0.2,0.3,0.6,0.3,0.9s-0.1,0.7-0.3,0.9L974.4,207.7z"/>
	<path class="st1" d="M941.9,200.3c-24.3,0-44.1-19.7-44.1-44.1s19.7-44.1,44.1-44.1c24.3,0,44.1,19.7,44.1,44
		C985.9,180.5,966.1,200.3,941.9,200.3z M941.9,114.6c-23,0-41.6,18.6-41.6,41.6s18.6,41.6,41.6,41.6s41.6-18.6,41.6-41.6l0,0
		C983.3,133.2,964.6,114.6,941.9,114.6z"/>
	<path class="st1" d="M912.4,188.5c-0.3,0-0.7-0.1-0.9-0.3c-8.8-8.2-13.9-19.9-13.8-32c0-18.7,11.8-35.3,29.4-41.6
		c0.3-0.1,0.8-0.1,1.1,0.1c2,1.1,3.2,3.2,3.1,5.5c0.1,1.4,0.2,2.3,1.3,3.1c0.7,0.2,1.4,0.2,2.2,0.1c1.4-0.2,3.2-0.4,4.6,0.8
		c1.1,0.9,1.8,2.4,2.1,4.7c0.2,1.5-0.3,3.2-1.5,4.2c-3.5,3.1-12.4,1.7-16.8,0.7c1.2,3.7,1.7,7.7,1.2,11.7c-1,7.5-8,8.6-10.3,9
		c-3.8,0.7-5.6,2.9-5.4,4.3c0.2,1.4,2.1,1.8,4.6,1.3c5.4-0.8,6.1,3.1,6.4,5.4c0.2,1.3,0.3,2.4,1.1,2.9c1,0.4,2.2,0.4,3.2,0
		c2-0.7,4.2,0.1,5.3,1.9c2,3.2,1.1,9.7-2,13.3c-1.5,2.2-4.5,3.1-6.9,2.1l0,0c-2.2-0.9-4.4,0-6.8,2.5
		C913.1,188.3,912.8,188.5,912.4,188.5L912.4,188.5z M927.3,117.1c-16.3,6.1-27.2,21.6-27.2,39.1c0,11,4.3,21.6,12.2,29.4
		c2.9-2.6,5.8-3.4,8.7-2.2c1.5,0.7,2.9,0.1,4.2-1.3c2.3-2.8,3.2-8.1,1.8-10.4c-0.3-0.6-1-1.2-2.6-0.8c-2.3,0.6-4,0.4-5.2-0.3
		c-1.5-1.1-1.9-3-2.1-4.6c-0.4-2.5-0.6-3.7-3.6-3.4c-4.9,0.7-7-1.3-7.4-3.4c-0.4-2.8,2.2-6.2,7.4-7c2.4-0.4,7.7-1.3,8.5-6.9
		c0.4-4.3-0.2-8.6-1.9-12.5c-0.2-0.4-0.1-1,0.2-1.3s0.8-0.6,1.3-0.4c5.1,1.3,14.2,2.6,16.8,0.4c0.6-0.6,0.9-1.3,0.7-2.1
		c0-1.1-0.3-2.2-1.1-3.1c-0.9-0.4-1.9-0.4-2.8-0.2c-2.6,0.8-5.4-0.7-6.2-3.3c-0.2-0.7-0.2-1.4-0.1-2.1
		C928.6,119.1,928.6,118.1,927.3,117.1L927.3,117.1z"/>
	<path class="st1" d="M944,183.2c-1.9,0-3.4-1.1-4.8-3.2c-1.5-2.5-2-5.6-1.2-8.5c0.7-2.5,2.4-4.7,4.7-5.9c0.2-0.1,0.6-0.9,0.3-2
		c-0.2-1.5-1.2-3.2-2.9-3.4c-2.3-0.2-4.2-1.9-4.6-4.2c-0.4-3.3,1.2-6.6,4.2-8.1c4.6-2.6,7.5-1,11,1.1c0.6,0.3,1.2,0.7,1.9,1.1
		c1.1,0.6,2.3,0.6,3.3-0.2c0.8-0.4,1.2-1.3,1.1-2.2c-0.2-1-1.3-1.8-3.2-2.2c-1.5-0.2-2.9-1.1-3.5-2.5c-0.9-2,0.4-4.3,1.8-6.5
		c0.4-0.8,0.9-1.5,1.2-2.2c2.8-5.9,6.2-7,8.6-6.8c3.2,0.3,5.8,2.5,6.9,5.5c0.8,2.6,2.3,4.1,3.4,4.1c0.8,0,1.2-0.8,1.5-1.4
		c0.7-2.1,2.8-3.4,4.9-3.1c0.3,0.1,0.7,0.2,0.8,0.5c8,13.1,8.7,29.4,1.8,43c-0.2,0.3-0.5,0.7-1,0.7s-0.9-0.1-1.1-0.4l-0.3-0.4
		c-0.9-1.5-2.5-2.4-4.3-2.3c-2.3,0-3.8-0.4-4.7-1.5c-1.2-1.5-0.8-3.6-0.3-5.7c0.4-1.4,0.5-3,0.3-4.4c-0.8-2.9-4.2-4.6-5.9-4.2
		c-1.3,0.3-1.3,2-1,3.4c0.8,3.5,0.4,6.3-0.8,8.1c-0.7,1-1.7,1.8-2.9,2.1c-2,0.1-5.2,0.8-6.2,2c-1.1,1.3-2,2.8-2.8,4.3
		c-0.4,0.8-0.9,1.5-1.3,2.3C948.5,180.6,946.6,183.1,944,183.2L944,183.2z M944.3,149c-1.2,0-2.3,0.4-3.3,1c-2,1.1-3.2,3.2-3,5.5
		c0.2,1.2,1.2,2.2,2.5,2.2c2.9,0.3,4.6,3,4.9,5.5c0.3,2.2-0.3,4-1.8,4.6c-1.6,0.9-3,2.5-3.4,4.4c-0.7,2.2-0.3,4.5,0.9,6.4
		c0.7,1,1.7,2.1,2.8,2.1l0,0c1.2-0.2,2.3-1,2.9-2.1c0.4-0.8,0.9-1.4,1.2-2.2c0.8-1.6,1.9-3.3,3.1-4.7c2-2.3,6.7-2.9,7.6-2.9
		c0.4-0.1,2.9-1.2,1.6-7.3c-1-5.1,2-6,2.9-6.3c3.1-0.7,7.8,1.9,8.8,6.1c0.3,1.9,0.2,3.7-0.3,5.5c-0.3,1.5-0.7,3.1-0.1,3.6
		c0.3,0.4,1.3,0.7,2.8,0.7c2-0.1,4,0.7,5.3,2.2c2.4-5.4,3.7-11.2,3.6-17.2c0-7.5-2-14.9-5.8-21.2c-0.8,0.2-1.4,0.8-1.7,1.5
		c-0.8,2-2.2,3.1-4,3c-2.4-0.1-4.6-2.4-5.7-5.8c-0.8-2-2.5-3.5-4.7-3.7c-2.3-0.1-4.4,1.8-6.2,5.4c-0.3,0.8-0.9,1.7-1.3,2.4
		c-0.9,1.5-2,3.4-1.5,4.3c0.2,0.6,1.1,0.9,1.9,1.1c3.8,1,4.8,3.1,5.1,4.2c0.2,1.8-0.5,3.6-2.1,4.6c-1.8,1.3-4.1,1.4-5.9,0.3
		c-0.7-0.4-1.3-0.8-2-1.1C947.4,149.9,945.8,149,944.3,149z"/>
	<path class="st1" d="M922.3,148.5c-3,0-5.4-2.4-5.4-5.4s2.4-5.4,5.4-5.4s5.4,2.4,5.4,5.4l0,0C927.6,146.1,925.3,148.5,922.3,148.5z
		 M922.3,140.2c-1.5,0-2.9,1.3-2.9,2.9s1.3,2.9,2.9,2.9s2.9-1.3,2.9-2.9l0,0C925.3,141.6,923.9,140.2,922.3,140.2L922.3,140.2z"/>
	<path class="st1" d="M974.5,153c-3,0-5.4-2.4-5.4-5.4s2.4-5.4,5.4-5.4s5.4,2.4,5.4,5.4l0,0C980,150.7,977.5,153,974.5,153z
		 M974.5,144.7c-1.7,0-2.9,1.3-2.9,2.9s1.3,2.9,2.9,2.9s2.9-1.3,2.9-2.9l0,0C977.5,146.1,976.3,144.7,974.5,144.7L974.5,144.7z"/>
	<path class="st1" d="M953.4,178.2c-3,0-5.4-2.4-5.4-5.4s2.4-5.4,5.4-5.4s5.4,2.4,5.4,5.4l0,0C958.8,175.8,956.4,178.2,953.4,178.2z
		 M953.4,169.9c-1.5,0-2.9,1.3-2.9,2.9s1.3,2.9,2.9,2.9s2.9-1.3,2.9-2.9l0,0C956.3,171.3,955,169.9,953.4,169.9L953.4,169.9
		L953.4,169.9z"/>
	<path class="st1" d="M903,179.6c-3,0-5.4-2.4-5.4-5.4s2.4-5.4,5.4-5.4s5.4,2.4,5.4,5.4l0,0C908.5,177.2,906,179.6,903,179.6z
		 M903,171.4c-1.5,0-2.9,1.3-2.9,2.9s1.3,2.9,2.9,2.9s2.9-1.3,2.9-2.9l0,0C906,172.7,904.8,171.4,903,171.4L903,171.4z"/>
	<path class="st1" d="M959.4,122.7c-3,0-5.4-2.4-5.4-5.4s2.4-5.4,5.4-5.4s5.4,2.4,5.4,5.4l0,0C964.6,120.3,962.3,122.7,959.4,122.7z
		 M959.4,114.5c-1.7,0-2.9,1.3-2.9,2.9s1.3,2.9,2.9,2.9c1.7,0,2.9-1.3,2.9-2.9l0,0C962.3,115.8,961,114.5,959.4,114.5z"/>
	<path class="st1" d="M937,204.1c-3,0-5.4-2.4-5.4-5.4s2.4-5.4,5.4-5.4s5.4,2.4,5.4,5.4l0,0C942.5,201.7,940,204.1,937,204.1z
		 M937,195.9c-1.5,0-2.9,1.3-2.9,2.9s1.3,2.9,2.9,2.9s2.9-1.3,2.9-2.9l0,0C940,197.2,938.8,195.9,937,195.9z"/>
	<path class="st1" d="M895.6,137.9H889c-0.7-0.1-1.2-0.7-1.1-1.3s0.5-1.1,1.1-1.1h6.6c0.7-0.1,1.3,0.4,1.3,1.1
		c0.1,0.7-0.4,1.3-1.1,1.3C895.9,137.9,895.8,137.9,895.6,137.9z"/>
	<path class="st1" d="M892.4,141.2c-0.7,0-1.2-0.6-1.2-1.2v-6.6c-0.1-0.7,0.4-1.3,1.1-1.3s1.3,0.4,1.3,1.1c0,0.1,0,0.1,0,0.2v6.6
		C893.5,140.7,893,141.2,892.4,141.2z"/>
	<circle class="st1" cx="892.4" cy="146.5" r="1.2"/>
	<circle class="st1" cx="892.4" cy="151.5" r="1.2"/>
	<circle class="st1" cx="892.4" cy="159.7" r="1.2"/>
	<circle class="st1" cx="892.4" cy="169.6" r="1.2"/>
	<path class="st1" d="M994.5,175.2H988c-0.7-0.1-1.2-0.7-1.1-1.3s0.6-1.1,1.1-1.1h6.6c0.7-0.1,1.3,0.4,1.3,1.1
		c0.1,0.7-0.4,1.3-1.1,1.3C994.6,175.2,994.6,175.2,994.5,175.2z"/>
	<path class="st1" d="M991.3,178.5c-0.7,0-1.2-0.6-1.2-1.2v-6.6c-0.1-0.7,0.4-1.3,1.1-1.3s1.3,0.4,1.3,1.1c0,0.1,0,0.1,0,0.2v6.6
		C992.5,178,991.9,178.5,991.3,178.5z"/>
	<circle class="st1" cx="991.3" cy="164.1" r="1.2"/>
	<circle class="st1" cx="991.3" cy="159.2" r="1.2"/>
	<circle class="st1" cx="991.3" cy="150.9" r="1.2"/>
	<circle class="st1" cx="991.3" cy="141" r="1.2"/>
</g>
<g id="_x30_5">
	<circle class="st0" cx="672.9" cy="330.2" r="29.9"/>
	<circle class="st0" cx="751.5" cy="251.2" r="25.6"/>
	<circle class="st0" cx="652" cy="235.2" r="42.8"/>
	<path class="st1" d="M723.2,347.5h-92.1c-3.3,0-5.8-2.6-5.8-5.9V230.3c0-0.4,0.2-0.8,0.4-1.1l21.5-21.4c0.3-0.3,0.7-0.4,1.1-0.4
		h74.9c3.3,0,5.8,2.6,5.8,5.9v128.4C729,344.8,726.5,347.5,723.2,347.5z M628.5,231v110.5c0,1.4,1.2,2.6,2.6,2.6h92.1
		c1.4,0,2.6-1.2,2.6-2.6V213.2c0-1.4-1.2-2.6-2.6-2.6H649L628.5,231z"/>
	<path class="st1" d="M676,270.5h-32c-3.3,0-5.8-2.6-5.8-5.9v-38.5c0-3.3,2.6-5.8,5.8-5.9h32.1c3.3,0,5.8,2.6,5.8,5.9v38.4
		C682,267.8,679.4,270.5,676,270.5C676.2,270.5,676.2,270.5,676,270.5z M644,223.4c-1.4,0-2.6,1.2-2.6,2.6v38.5
		c0,1.4,1.2,2.6,2.6,2.6h32.1c1.4,0,2.6-1.2,2.6-2.6V226c0-1.4-1.2-2.6-2.6-2.6H644z"/>
	<path class="st1" d="M710.4,334.6h-66.3c-3.3,0-5.8-2.6-5.8-5.9v-12.9c0-3.3,2.6-5.9,5.8-5.9h66.3c3.3,0,5.8,2.6,5.8,5.9v12.9
		C716.4,332,713.7,334.6,710.4,334.6L710.4,334.6z M644,313.3c-1.4,0-2.6,1.2-2.6,2.6l0,0v12.9c0,1.4,1.2,2.6,2.6,2.6h66.3
		c1.4,0,2.6-1.2,2.6-2.6v-12.9c0-1.4-1.2-2.6-2.6-2.6l0,0H644z"/>
	<path class="st1" d="M741,216.9h-3c-0.9,0-1.7-0.8-1.7-1.7s0.8-1.6,1.7-1.6l0,0h3c0.9,0,1.7,0.8,1.7,1.6S742,216.9,741,216.9
		C741.2,216.9,741.2,216.9,741,216.9z"/>
	<path class="st1" d="M751,216.9h-3c-0.9,0-1.6-0.8-1.6-1.7s0.8-1.6,1.6-1.6l0,0h3c0.9,0,1.7,0.8,1.7,1.6S751.9,216.9,751,216.9
		L751,216.9z"/>
	<path class="st1" d="M744.5,223.4c-0.9,0-1.6-0.8-1.6-1.7l0,0v-3c0-0.9,0.7-1.7,1.6-1.7c0.9,0,1.7,0.7,1.7,1.7l0,0v3
		C746.2,222.6,745.5,223.3,744.5,223.4z"/>
	<path class="st1" d="M744.5,213.5c-0.9,0-1.6-0.7-1.6-1.5l0,0v-3c0-0.9,0.8-1.7,1.6-1.7c0.9,0,1.7,0.8,1.7,1.7v3
		C746.2,212.7,745.5,213.5,744.5,213.5z"/>
	<path class="st1" d="M754,240.4h-3c-0.9,0-1.7-0.8-1.7-1.7s0.8-1.6,1.7-1.6h3c0.9,0,1.6,0.8,1.6,1.6S754.9,240.4,754,240.4
		L754,240.4z"/>
	<path class="st1" d="M763.9,240.4h-3c-0.9,0-1.7-0.8-1.7-1.7s0.8-1.6,1.7-1.6h3c0.9,0,1.7,0.8,1.7,1.6S764.8,240.4,763.9,240.4
		L763.9,240.4z"/>
	<path class="st1" d="M757.5,246.9c-0.9,0-1.7-0.8-1.7-1.7v-3c0-0.9,0.7-1.7,1.7-1.7c0.9,0,1.6,0.7,1.6,1.7l0,0v3
		C759,246.2,758.4,246.9,757.5,246.9z"/>
	<path class="st1" d="M757.5,237c-0.9,0-1.7-0.8-1.7-1.6v-3c0-0.9,0.8-1.6,1.7-1.6s1.6,0.8,1.6,1.6v3C759,236.3,758.4,237,757.5,237
		L757.5,237z"/>
	<path class="st1" d="M747.5,338.9h-3c-0.9,0-1.6-0.8-1.6-1.6c0-0.9,0.8-1.6,1.6-1.6h3c0.9,0,1.7,0.8,1.7,1.6
		C749.2,338.2,748.5,338.9,747.5,338.9z"/>
	<path class="st1" d="M757.5,338.9h-3c-0.9,0-1.7-0.8-1.7-1.6c0-0.9,0.8-1.6,1.7-1.6l0,0h3c0.9,0,1.6,0.8,1.6,1.6
		C759,338.2,758.4,338.9,757.5,338.9z"/>
	<path class="st1" d="M751,345.4c-0.9,0-1.7-0.7-1.7-1.6v-3c0-0.9,0.8-1.6,1.7-1.6s1.7,0.8,1.7,1.6v3
		C752.7,344.7,751.9,345.4,751,345.4L751,345.4z"/>
	<path class="st1" d="M751,335.5c-0.9,0-1.7-0.8-1.7-1.6v-3c0-0.9,0.8-1.6,1.7-1.6s1.7,0.8,1.7,1.6v3
		C752.7,334.7,751.9,335.5,751,335.5z"/>
	<path class="st1" d="M727.5,330.3h-0.3c-0.3-0.1-37.6-9.2-37.6-44.3v-25.7c0-0.7,0.3-1.2,0.9-1.4l36.4-17.2c0.4-0.2,1-0.2,1.3,0
		l36.4,17.2c0.5,0.2,0.9,0.9,0.9,1.4V286c0,35.1-37.3,44.2-37.6,44.3C727.8,330.3,727.5,330.3,727.5,330.3z M692.7,261.2V286
		c0,31.1,30.8,40.1,34.8,41.1c4-1,34.8-10,34.8-41.1v-24.8l-34.8-16.4L692.7,261.2z"/>
	<path class="st1" d="M727.5,318.5c-0.1,0-0.2,0-0.3,0c-0.2-0.1-27-6.8-27-32.6v-18.7c0-0.7,0.3-1.2,0.9-1.4l25.6-12.4
		c0.4-0.2,1-0.2,1.4,0l25.6,12.4c0.5,0.2,0.9,0.9,0.9,1.4v18.7c0,25.7-26.6,32.6-27,32.6C727.8,318.5,727.5,318.5,727.5,318.5z
		 M703.5,268.4V286c0,21.7,21,28.5,24.1,29.4c3.2-0.9,24.1-7.5,24.1-29.4v-17.6l-24.1-11.7L703.5,268.4z"/>
	<path class="st1" d="M735,299.4h-15c-0.4,0-0.9-0.2-1.2-0.6c-0.3-0.3-0.4-0.9-0.3-1.3l2.8-13.8c-1.8-1.6-2.8-4.1-2.8-6.5
		c-0.2-5.1,3.7-9.2,8.8-9.5c5.1-0.2,9.2,3.7,9.5,8.8c0,0.2,0,0.4,0,0.7c0,2.4-1,4.8-2.8,6.5l2.8,13.8c0.1,0.4,0,1-0.3,1.3
		C735.9,299.2,735.5,299.4,735,299.4z M722,296.2h11l-2.5-12.8c-0.1-0.5,0.1-1.2,0.5-1.5c1.4-1.1,2.3-2.9,2.3-4.6
		c0-3.3-2.5-5.9-5.8-5.9s-5.9,2.5-5.9,5.8c0,1.9,0.9,3.6,2.3,4.7c0.4,0.3,0.7,1,0.5,1.5L722,296.2z"/>
	<path class="st1" d="M648.2,231.9h-21.4c-0.7,0-1.2-0.4-1.4-1c-0.2-0.5-0.1-1.3,0.3-1.8l21.5-21.5c0.7-0.7,1.7-0.7,2.3,0
		c0.3,0.3,0.4,0.7,0.4,1.1v21.4C649.9,231.2,649.2,231.9,648.2,231.9C648.4,231.9,648.4,231.9,648.2,231.9z M630.8,228.7h16v-15.9
		L630.8,228.7z"/>
	<path class="st1" d="M682.5,281.1h-23.3c-0.9,0-1.6-0.8-1.6-1.6c0-0.9,0.8-1.6,1.6-1.6l0,0h23.3c0.9,0,1.7,0.8,1.7,1.6
		C684.2,280.4,683.5,281.1,682.5,281.1z"/>
	<path class="st1" d="M650.7,281.1h-10.9c-0.9,0-1.7-0.8-1.7-1.6c0-0.9,0.8-1.6,1.7-1.6l0,0h10.9c0.9,0,1.6,0.8,1.6,1.6
		C652.2,280.4,651.5,281.1,650.7,281.1z"/>
	<path class="st1" d="M682.5,291.8h-10.4c-0.9,0-1.7-0.8-1.7-1.6c0-0.9,0.8-1.7,1.7-1.7l0,0h10.4c0.9,0,1.7,0.8,1.7,1.7
		C684.2,291.2,683.5,291.8,682.5,291.8z"/>
	<path class="st1" d="M663.5,291.8h-23.8c-0.9,0-1.7-0.8-1.7-1.6c0-0.9,0.8-1.7,1.7-1.7l0,0h23.8c0.9,0,1.7,0.8,1.7,1.7
		C665,291.2,664.4,291.8,663.5,291.8z"/>
	<path class="st1" d="M684.7,302.5h-21.1c-0.9,0-1.6-0.8-1.6-1.6c0-0.9,0.8-1.7,1.6-1.7l0,0h21.1c0.9,0,1.6,0.8,1.6,1.7
		C686.2,301.7,685.5,302.5,684.7,302.5z"/>
	<path class="st1" d="M655,302.5h-15.2c-0.9,0-1.7-0.8-1.7-1.6c0-0.9,0.8-1.7,1.7-1.7l0,0H655c0.9,0,1.6,0.8,1.6,1.7
		C656.5,301.7,655.9,302.5,655,302.5z"/>
	<path class="st1" d="M714.7,223.4h-23.5c-0.9,0-1.7-0.8-1.7-1.7s0.8-1.6,1.7-1.6h23.5c0.9,0,1.6,0.8,1.6,1.6
		C716.4,222.6,715.5,223.3,714.7,223.4L714.7,223.4z"/>
	<path class="st1" d="M714.7,234.1h-23.5c-0.9,0-1.7-0.8-1.7-1.7s0.8-1.6,1.7-1.6h23.5c0.9,0,1.6,0.8,1.6,1.6
		S715.5,234.1,714.7,234.1L714.7,234.1z"/>
	<path class="st1" d="M706,244.7h-15c-0.9,0-1.7-0.8-1.7-1.7s0.8-1.6,1.7-1.6l0,0h15c0.9,0,1.7,0.8,1.7,1.6
		C707.7,244.1,707,244.7,706,244.7z"/>
	<path class="st1" d="M665.4,242.6c-3.3,0-5.9-2.6-5.9-5.8c0-3.3,2.6-5.9,5.8-5.9s5.9,2.6,5.9,5.8l0,0
		C671.4,240,668.7,242.6,665.4,242.6z M665.4,234.1c-1.4,0-2.6,1.2-2.6,2.6c0,1.4,1.2,2.6,2.6,2.6c1.4,0,2.6-1.2,2.6-2.6l0,0
		C668,235.3,667,234.1,665.4,234.1z"/>
	<path class="st1" d="M652.5,257.6c-3.3,0-5.9-2.6-5.9-5.8c0-3.3,2.6-5.9,5.8-5.9c3.3,0,5.9,2.6,5.9,5.8l0,0
		C658.5,255,655.9,257.6,652.5,257.6z M652.5,249c-1.4,0-2.6,1.2-2.8,2.6c0,1.4,1.2,2.6,2.6,2.6c1.4,0,2.6-1.2,2.8-2.6l0,0
		C655.2,250.2,654,249,652.5,249L652.5,249z"/>
</g>
<g id="_x30_4">
	<circle class="st0" cx="399.8" cy="679.6" r="19.1"/>
	<circle class="st0" cx="478" cy="642.6" r="16.4"/>
	<circle class="st0" cx="450.7" cy="707.3" r="27.4"/>
	<path class="st1" d="M413.2,690.3c-0.2,0-0.5-0.1-0.8-0.3l-17.5-17.5c-0.3-0.4-0.3-1,0-1.4c0.3-0.3,8.6-9.1,23.4-8.6
		c19,0.8,29-8.9,29.1-9c0.4-0.4,1.1-0.4,1.4,0s0.4,1.1,0,1.4l-35,35C413.8,690.2,413.4,690.3,413.2,690.3z M397,671.8l16.1,16.1
		l27.5-27.5c-7,3.2-14.7,4.6-22.4,4.3C410.5,664.2,403,666.8,397,671.8z"/>
	<path class="st1" d="M446.2,723.3c-0.2,0-0.5-0.1-0.8-0.3L428,705.5c-0.2-0.2-0.3-0.4-0.3-0.8c0-0.2,0.1-0.5,0.3-0.8l35-35
		c0.4-0.4,1-0.4,1.4,0s0.4,1,0,1.4l0,0c-0.1,0.1-9.8,10.1-9,29.1c0.5,14.9-8.1,23.1-8.6,23.4C446.8,723.2,446.5,723.3,446.2,723.3z
		 M430.2,704.9l16.1,16.1c5-5.8,7.6-13.4,7.2-21.1c-0.4-7.7,1.1-15.4,4.3-22.4L430.2,704.9z"/>
	<path class="st1" d="M428.7,705.9c-0.2,0-0.5-0.1-0.8-0.3l-7.8-7.8l0,0c-0.4-0.4-2.1-2-7.8-7.8c-0.4-0.3-0.4-1,0-1.4l0,0l37.7-37.7
		c3.3-3.3,6.9-6.3,10.9-8.9c12.3-8.1,21.9-8.1,22.2-8.1s0.7,0.2,0.9,0.6c0.2,0.4,0.1,10.3-8,22.7l0,0c-2.6,4-5.6,7.6-8.9,10.9
		l-37.7,37.4C429.2,705.7,429,705.9,428.7,705.9z M414.5,689.2l7,7l7,7l37-37c3.2-3.2,6.2-6.7,8.6-10.6l0,0c6.3-9.5,7.5-17.2,7.7-20
		c-2.8,0.2-10.6,1.5-20,7.7c-3.9,2.5-7.4,5.5-10.6,8.7L414.5,689.2z M475.2,656.5L475.2,656.5z"/>
	<path class="st1" d="M475.2,657.5c-0.1,0-0.2,0-0.3-0.1l-9.7-3.9c-0.2-0.1-0.4-0.3-0.5-0.5l-3.9-9.8c-0.2-0.5,0-1.1,0.5-1.3
		c0.6-0.2,1.1,0,1.3,0.6l3.7,9.3l9.3,3.7c0.6,0.2,0.8,0.8,0.6,1.3C476,657.1,475.7,657.5,475.2,657.5L475.2,657.5z"/>
	<path class="st1" d="M467.9,666.7c-0.1,0-0.2,0-0.3-0.1l-11.1-4.4c-0.2-0.1-0.4-0.3-0.6-0.5l-4.4-11.1c-0.2-0.5,0-1.1,0.5-1.3
		s1.1,0,1.3,0.5l4.3,10.7l10.7,4.3c0.6,0.2,0.8,0.8,0.6,1.3C468.5,666.5,468.2,666.8,467.9,666.7L467.9,666.7z"/>
	<path class="st1" d="M459,675.5c-0.1,0-0.2,0-0.3-0.1l-11.1-4.4c-0.2-0.1-0.4-0.3-0.5-0.5l-4.4-11.1c-0.2-0.5,0-1.1,0.5-1.3
		s1.1,0,1.3,0.5l4.3,10.7l10.7,4.3c0.5,0.2,0.8,0.8,0.5,1.3l0,0C459.8,675.3,459.5,675.5,459,675.5z"/>
	<path class="st1" d="M402.4,689.4c-0.2,0-0.5-0.1-0.8-0.3l-5.8-5.8c-0.4-0.4-0.4-1,0-1.4c5.3-5.3,15.2-13.5,18-10.7
		c2.9,2.9-5.4,12.6-10.7,17.9C403,689.2,402.8,689.4,402.4,689.4z M398,682.4l4.4,4.4c7.5-7.7,10.5-13.4,10-14.4
		C411.4,672,405.7,674.9,398,682.4L398,682.4z"/>
	<path class="st1" d="M434.5,721.5c-0.2,0-0.5-0.1-0.8-0.3l-5.8-5.8c-0.4-0.4-0.4-1.1,0-1.4c5.3-5.3,15.1-13.5,17.9-10.7
		s-5.4,12.7-10.7,17.9C435,721.4,434.9,721.5,434.5,721.5z M430,714.5l4.4,4.4c7.5-7.7,10.5-13.4,10-14.4
		C443.5,704.1,437.8,707.1,430,714.5L430,714.5z"/>
	<path class="st1" d="M419,705.9L419,705.9c-0.2,0-0.5-0.1-0.8-0.3l-5.8-5.8c-0.2-0.2-0.3-0.4-0.3-0.8c0-0.2,0.1-0.5,0.3-0.8
		c3.2-3.3,6.8-6.3,10.7-8.9c3.7-2.4,6.2-3,7.4-1.8s0.7,3.6-1.8,7.4c-2.6,3.9-5.6,7.4-8.9,10.7C419.5,705.7,419.2,705.9,419,705.9z
		 M414.5,699l4.4,4.4c7.5-7.6,10.5-13.4,10-14.4C428,688.6,422.2,691.6,414.5,699L414.5,699z"/>
	<path class="st1" d="M446.9,640H445c-0.5,0-1-0.4-1-1c0-0.5,0.4-1,1-1h1.9c0.6,0,1,0.4,1,1C447.9,639.4,447.4,640,446.9,640z"/>
	<path class="st1" d="M453,640h-1.9c-0.5,0-1-0.4-1-1c0-0.5,0.4-1,1-1h1.9c0.6,0,1,0.4,1,1C454,639.4,453.7,640,453,640z"/>
	<path class="st1" d="M449,644c-0.5,0-1-0.4-1-1v-1.9c0-0.5,0.4-1,1-1s1,0.4,1,1l0,0v1.9C450,643.6,449.5,644,449,644z"/>
	<path class="st1" d="M449,637.8c-0.5,0-1-0.4-1-1v-1.9c0-0.5,0.4-1,1-1s1,0.4,1,1l0,0v1.9C450,637.2,449.5,637.8,449,637.8
		L449,637.8z"/>
	<path class="st1" d="M476.9,679.6H475c-0.5,0-1-0.4-1-1s0.4-1,1-1h1.9c0.5,0,1,0.4,1,1C477.9,679.1,477.4,679.6,476.9,679.6z"/>
	<path class="st1" d="M483.2,679.6h-2c-0.5,0-1-0.4-1-1s0.4-1,1-1h1.9c0.5,0,1,0.4,1,1C484.2,679.1,483.7,679.6,483.2,679.6
		L483.2,679.6z"/>
	<path class="st1" d="M479,683.7c-0.5,0-1-0.4-1-1v-1.9c0.1-0.6,0.5-1,1.1-0.9c0.4,0,0.9,0.4,0.9,0.9v1.9
		C480,683.2,479.5,683.7,479,683.7L479,683.7z"/>
	<path class="st1" d="M479,677.4c-0.5,0-1-0.4-1-1v-1.9c0.1-0.5,0.5-1,1.1-0.9c0.4,0,0.9,0.4,0.9,0.9v1.9
		C480,676.9,479.5,677.4,479,677.4z"/>
	<path class="st1" d="M466,702.9h-2c-0.5-0.1-1-0.6-0.9-1.1c0-0.4,0.4-0.9,0.9-0.9h1.9c0.5-0.1,1.1,0.3,1.1,0.9
		c0.1,0.5-0.3,1.1-0.9,1.1C466,702.9,466,702.9,466,702.9z"/>
	<path class="st1" d="M472.2,702.9h-1.9c-0.5-0.1-1-0.6-0.9-1.1c0-0.4,0.4-0.9,0.9-0.9h1.9c0.6-0.1,1.1,0.3,1.1,0.9
		c0.1,0.5-0.3,1.1-0.9,1.1C472.4,702.9,472.4,702.9,472.2,702.9z"/>
	<path class="st1" d="M468.2,707c-0.5,0-1-0.4-1-1v-1.9c-0.1-0.5,0.3-1.1,0.9-1.1c0.6-0.1,1.1,0.3,1.1,0.9c0,0.1,0,0.1,0,0.2v1.9
		C469.2,706.5,468.8,707,468.2,707z"/>
	<path class="st1" d="M468.2,700.7c-0.5,0-1-0.4-1-1v-1.9c0.1-0.5,0.5-1,1.1-0.9c0.4,0,0.9,0.4,0.9,0.9v1.9
		C469.2,700.1,468.9,700.7,468.2,700.7L468.2,700.7z"/>
	<path class="st1" d="M397.5,708.4h-1.9c-0.5-0.1-1-0.6-0.9-1.1c0-0.4,0.4-0.9,0.9-0.9h1.9c0.5,0.1,1,0.6,0.9,1.1
		C398.5,707.9,398,708.4,397.5,708.4z"/>
	<path class="st1" d="M403.9,708.4H402c-0.6-0.1-1-0.6-0.9-1.1c0-0.4,0.4-0.9,0.9-0.9h1.9c0.5,0.1,1,0.6,0.9,1.1
		C404.7,707.9,404.4,708.4,403.9,708.4z"/>
	<path class="st1" d="M399.8,712.5c-0.5,0-1-0.4-1-1v-2c0-0.5,0.4-1,1-1s1,0.4,1,1v1.9C400.8,711.9,400.2,712.5,399.8,712.5
		L399.8,712.5z"/>
	<path class="st1" d="M399.8,706.1c-0.5,0-1-0.4-1-1v-1.9c0-0.5,0.4-1,1-1s1,0.4,1,1v1.9C400.9,705.6,400.4,706.1,399.8,706.1
		L399.8,706.1z"/>
	<path class="st1" d="M416.7,719.3h-1.9c-0.5,0-1-0.4-1-1s0.4-1,1-1h1.9c0.5,0,1,0.4,1,1S417.2,719.3,416.7,719.3L416.7,719.3z"/>
	<path class="st1" d="M423,719.3h-2c-0.5,0-1-0.4-1-1s0.4-1,1-1h1.9c0.5,0,1,0.4,1,1S423.5,719.3,423,719.3z"/>
	<path class="st1" d="M418.9,723.3c-0.5,0-1-0.4-1-1v-1.8c0.1-0.5,0.6-1,1.1-0.9c0.4,0,0.9,0.4,0.9,0.9v1.9
		C419.9,722.9,419.5,723.3,418.9,723.3z"/>
	<path class="st1" d="M418.9,717.1c-0.5,0-1-0.4-1-1v-1.9c0.1-0.5,0.6-1,1.1-0.9c0.4,0,0.9,0.4,0.9,0.9v2
		C419.9,716.6,419.5,717.1,418.9,717.1z"/>
	<path class="st1" d="M397.5,644h-1.9c-0.5,0-1-0.4-1-1s0.4-1,1-1h1.9c0.5,0,1,0.4,1,1S398,644,397.5,644z"/>
	<path class="st1" d="M403.9,644H402c-0.6,0-1-0.4-1-1s0.4-1,1-1h1.9c0.5,0,1,0.4,1,1C404.8,643.6,404.4,644,403.9,644z"/>
	<path class="st1" d="M399.8,648.1c-0.5,0-1-0.4-1-1v-1.9c0-0.5,0.4-1,1-1s1,0.4,1,1v1.9C400.8,647.7,400.2,648.1,399.8,648.1
		L399.8,648.1z"/>
	<path class="st1" d="M399.8,641.8c-0.5,0-1-0.4-1-1v-1.9c0-0.5,0.4-1,1-1s1,0.4,1,1v1.9C400.8,641.4,400.2,641.8,399.8,641.8
		L399.8,641.8z"/>
	<path class="st1" d="M411.2,653.6h-1.9c-0.5-0.1-1-0.5-0.9-1.1c0-0.4,0.4-0.9,0.9-0.9h1.9c0.5,0.1,1,0.5,0.9,1.1
		C412,653.2,411.8,653.6,411.2,653.6z"/>
	<path class="st1" d="M417.5,653.6h-1.9c-0.5-0.1-1-0.5-0.9-1.1c0-0.4,0.4-0.9,0.9-0.9h1.9c0.5,0.1,1,0.5,0.9,1.1
		C418.4,653.2,418,653.6,417.5,653.6z"/>
	<path class="st1" d="M413.4,657.7c-0.5,0-1-0.4-1-1v-1.9c0-0.5,0.4-1,1-1s1,0.4,1,1l0,0v1.9C414.4,657.2,414,657.7,413.4,657.7z"/>
	<path class="st1" d="M413.4,651.4c-0.5,0-1-0.4-1-1v-1.9c0-0.6,0.4-1,1-1s1,0.4,1,1l0,0v1.9C414.4,651,414,651.4,413.4,651.4z"/>
</g>
<g id="_x30_1">
	<circle class="st0" cx="59.2" cy="309.1" r="23.5"/>
	<circle class="st0" cx="142.3" cy="249.7" r="20.2"/>
	<circle class="st0" cx="131.5" cy="327.7" r="33.7"/>
	<path class="st1" d="M73.6,351.1c-7.3,0-13.1-5.8-13.1-13.1c0-1,0.1-1.9,0.3-2.9c-6.8-2.4-10.5-9.8-8-16.6s9.8-10.4,16.6-8
		c1.5,0.5,2.9,1.3,4.1,2.3c5.5-4.6,13.8-4,18.4,1.6c4.6,5.5,4,13.8-1.6,18.4c-1.2,1-2.5,1.8-4,2.3c1.5,7-2.9,14-9.8,15.6
		C75.6,351,74.6,351.1,73.6,351.1L73.6,351.1z M65.2,312.4c-5.8,0-10.6,4.7-10.6,10.6c0,4.8,3.3,9.1,8,10.2c0.3,0.1,0.7,0.3,0.8,0.7
		c0.2,0.3,0.2,0.7,0.1,1c-1.9,5.5,1.1,11.4,6.7,13.3c1.1,0.3,2.2,0.5,3.3,0.5c5.8,0,10.6-4.7,10.6-10.6c0-1.1-0.2-2.2-0.5-3.3
		c-0.1-0.3-0.1-0.7,0.1-1s0.4-0.6,0.8-0.7c5.6-1.3,9.1-7,7.8-12.7c-1.3-5.6-7-9.1-12.7-7.8c-1.9,0.4-3.6,1.4-5.1,2.9
		c-0.5,0.4-1.3,0.4-1.8,0C70.8,313.5,68,312.4,65.2,312.4z"/>
	<path class="st1" d="M65.2,328.8c-3.3,0-5.9-2.6-5.9-5.9s2.6-5.9,5.9-5.9c3.3,0,5.9,2.6,5.9,5.9l0,0
		C71.1,326.1,68.5,328.8,65.2,328.8z M65.2,319.5c-1.9,0-3.4,1.5-3.4,3.4s1.5,3.4,3.4,3.4c1.9,0,3.4-1.5,3.4-3.4l0,0
		C68.6,321,67,319.5,65.2,319.5z"/>
	<path class="st1" d="M82,328.8c-3.3,0-5.9-2.6-5.9-5.9s2.6-5.9,5.9-5.9s5.9,2.6,5.9,5.9l0,0C87.9,326.1,85.3,328.8,82,328.8z
		 M82,319.5c-1.9,0-3.4,1.5-3.4,3.4s1.5,3.4,3.4,3.4s3.4-1.5,3.4-3.4l0,0C85.4,321,83.9,319.5,82,319.5z"/>
	<path class="st1" d="M73.6,344c-3.3,0-5.9-2.6-5.9-5.9s2.6-5.9,5.9-5.9s5.9,2.6,5.9,5.9l0,0C79.5,341.3,76.8,344,73.6,344z
		 M73.6,334.6c-1.9,0-3.4,1.5-3.4,3.4s1.5,3.4,3.4,3.4s3.4-1.5,3.4-3.4l0,0C76.9,336.1,75.5,334.7,73.6,334.6z"/>
	<path class="st1" d="M73.6,315.9c-0.7,0-1.2-0.6-1.2-1.2l0,0v-72.6c0-0.7,0.5-1.2,1.3-1.2c0.7,0,1.2,0.6,1.2,1.2v72.6
		C74.8,315.2,74.3,315.9,73.6,315.9L73.6,315.9z"/>
	<path class="st1" d="M73.6,274.4H53.4c-0.7,0-1.2-0.5-1.2-1.2v-8.5c0-0.7,0.5-1.2,1.2-1.2l0,0H64v-5.9H53.4c-0.7,0-1.2-0.5-1.2-1.2
		v-8.5c0-0.7,0.5-1.2,1.2-1.2l0,0h20.2c0.7,0,1.2,0.6,1.2,1.2v25.3C74.8,273.9,74.3,274.4,73.6,274.4z M54.6,271.9h17.7v-22.8H54.6
		v5.9h10.6c0.7,0,1.2,0.5,1.2,1.2v8.5c0,0.7-0.6,1.2-1.2,1.2H54.6V271.9z"/>
	<path class="st1" d="M143.6,324.2h-38.8c-0.7,0-1.2-0.6-1.2-1.2v-2.1c0-5.3-2.1-10.3-5.8-14.1C82.5,292.2,82,268,96.5,252.7
		s38.8-15.8,54.1-1.3c15.4,14.5,16.1,38.7,1.5,54.1c-0.3,0.3-0.7,0.8-1.1,1.1c-3.9,3.6-6.1,8.7-6.2,14v2.5
		C144.8,323.5,144.3,324.2,143.6,324.2z M106,321.6h36.3v-1.2c0.1-5.9,2.5-11.7,6.8-15.7c14.1-13.9,14.4-36.5,0.5-50.6
		c-7.3-7.4-17.3-11.2-27.5-10.7c-19.7,1.1-34.9,17.9-33.8,37.6c0.4,9,4.4,17.6,11,23.9c4.3,4.2,6.6,9.9,6.6,15.9L106,321.6
		L106,321.6L106,321.6z"/>
	<path class="st1" d="M137.7,337.6h-26.9c-2.5,0-4.6-2.1-4.6-4.6s2.1-4.6,4.6-4.6h26.9c2.5,0,4.6,2.1,4.6,4.6
		S140.2,337.6,137.7,337.6L137.7,337.6z M110.7,330.9c-1.2-0.1-2.2,0.8-2.3,2c-0.1,1.2,0.8,2.2,2,2.3c0.1,0,0.2,0,0.3,0h26.9
		c1.2-0.1,2.1-1.1,2-2.3c-0.1-1.1-0.9-1.9-2-2H110.7z"/>
	<path class="st1" d="M137.7,344.3h-26.9c-2.5,0-4.6-2.1-4.6-4.6s2.1-4.6,4.6-4.6h26.9c2.5,0,4.6,2.1,4.6,4.6
		C142.3,342.3,140.2,344.3,137.7,344.3L137.7,344.3z M110.7,337.6c-1.2-0.1-2.2,0.8-2.3,2c-0.1,1.2,0.8,2.2,2,2.3c0.1,0,0.2,0,0.3,0
		h26.9c1.2-0.1,2.1-1.1,2-2.3c-0.1-1.1-0.9-1.9-2-2H110.7z"/>
	<path class="st1" d="M137.7,330.9h-26.9c-2.5,0-4.6-2.1-4.6-4.6v-3.4c0-0.7,0.6-1.2,1.2-1.2H141c0.7,0,1.2,0.5,1.2,1.2v3.4
		C142.3,328.8,140.2,330.9,137.7,330.9z M108.5,324.2v2.1c0,1.2,1,2.1,2.1,2.1l0,0h27c1.2,0,2.1-1,2.1-2.1v-2.1H108.5z"/>
	<path class="st1" d="M134.2,351.1H114c-0.7,0-1.3-0.5-1.3-1.2s0.5-1.3,1.2-1.3l0,0h20.2c0.7,0,1.3,0.5,1.3,1.2
		C135.6,350.6,135,351.1,134.2,351.1L134.2,351.1z"/>
	<path class="st1" d="M134.4,302.3H114c-0.3,0-0.8-0.2-1-0.4c-0.2-0.3-0.3-0.7-0.2-1.1l3.8-18.1c-2.4-2.2-3.8-5.3-3.8-8.5
		c0-6.3,5.2-11.4,11.4-11.4c6.3,0,11.4,5.2,11.4,11.4c0,3.3-1.4,6.4-3.9,8.5l3.9,18.1c0.1,0.4,0,0.8-0.2,1.1
		C135,302,134.7,302.3,134.4,302.3z M115.5,299.7h17.2l-3.6-17.4c-0.1-0.4,0.1-1,0.4-1.2c2.2-1.6,3.5-4.3,3.5-7
		c-0.2-4.9-4.3-8.8-9.2-8.6c-4.7,0.1-8.5,4-8.6,8.6c0,2.8,1.3,5.4,3.5,7c0.3,0.3,0.6,0.8,0.4,1.2L115.5,299.7z"/>
	<path class="st1" d="M94.2,275.8H94c-0.7-0.1-1.2-0.7-1.1-1.4l0,0c2.1-14.4,13.9-25.4,28.3-26.7c0.7,0,1.3,0.4,1.3,1.2
		c0,0.7-0.4,1.3-1.1,1.3c-13.3,1.2-24.1,11.3-26.1,24.5C95.3,275.3,94.8,275.8,94.2,275.8z"/>
	<path class="st1" d="M134.2,251.8c-0.1,0-0.3,0-0.4-0.1c-1.9-0.7-3.8-1.2-5.9-1.4c-0.7-0.1-1.2-0.8-1.1-1.4
		c0.1-0.7,0.8-1.2,1.4-1.1c2.2,0.3,4.4,0.8,6.5,1.5c0.7,0.2,1,1,0.8,1.7C135.2,251.4,134.8,251.8,134.2,251.8L134.2,251.8z"/>
	<path class="st1" d="M66.8,303.9c-0.7,0-1.2-0.6-1.2-1.2v-21.1c0-0.7,0.5-1.3,1.2-1.3c0.7,0,1.3,0.6,1.3,1.2l0,0v21.1
		C68.1,303.4,67.6,303.9,66.8,303.9L66.8,303.9z"/>
</g>
<g id="_x30_3">
	<circle class="st0" cx="421.5" cy="357.7" r="34.5"/>
	<circle class="st0" cx="329.5" cy="452.2" r="29.6"/>
	<circle class="st0" cx="445.5" cy="466.9" r="49.4"/>
	<path class="st1" d="M459.7,502.8H336.2c-3.7,0-6.8-3.1-6.8-6.8v-9.9c0-1,0.9-1.9,1.9-1.9h133.3c1,0,1.9,0.9,1.9,1.9v9.9
		C466.4,499.7,463.5,502.8,459.7,502.8z M333.2,487.9v8c0,1.6,1.4,3.1,3.1,3.1h123.4c1.6,0,3.1-1.4,3.1-3.1v-8H333.2z"/>
	<path class="st1" d="M464.7,487.9H331.4c-1,0-1.9-0.9-1.9-1.9V367.6c0-1,0.9-1.9,1.9-1.9h133.3c1,0,1.9,0.9,1.9,1.9v118.5
		C466.4,487.2,465.7,487.9,464.7,487.9z M333,484.2h129.6V369.5H333V484.2z"/>
	<path class="st1" d="M452.2,357.7c-0.7,0-1.3-0.2-1.8-0.7c-1-0.9-1-2.4-0.1-3.4c0,0,0,0,0.1-0.1c1-0.9,2.5-0.9,3.5,0
		c1,1,1,2.5,0,3.5C453.5,357.5,452.9,357.7,452.2,357.7z"/>
	<path class="st1" d="M437.5,355.3c0-1.3,1.1-2.4,2.4-2.4l0,0c1.3,0,2.4,1.1,2.4,2.4l0,0c0,1.3-1.1,2.4-2.4,2.4l0,0l0,0
		C438.5,357.8,437.5,356.7,437.5,355.3L437.5,355.3z"/>
	<path class="st1" d="M427.5,357.7c-1.3,0-2.4-1.1-2.4-2.4c0-0.7,0.2-1.3,0.8-1.8c1-0.9,2.5-0.9,3.5,0c0.4,0.4,0.7,1.1,0.8,1.8
		c0,0.7-0.2,1.3-0.8,1.8S428.2,357.7,427.5,357.7z"/>
	<path class="st1" d="M464.7,369.5H331.4c-1,0-1.9-0.9-1.9-1.9v-19.8c0-3.7,3.1-6.8,6.8-6.8h123.4c3.7,0,6.8,3.1,6.8,6.8v19.8
		C466.4,368.6,465.7,369.5,464.7,369.5z M333,365.7h129.6v-17.9c0-1.8-1.4-3.1-3.1-3.1H336.2c-1.8,0-3.1,1.4-3.1,3.1v17.9H333z"/>
	<path class="st1" d="M359,389.2c-1,0-1.9-0.9-1.9-1.9v-9.9c0.1-1,1-1.8,2-1.8c0.9,0.1,1.7,0.8,1.8,1.8v9.9
		C360.8,388.4,360,389.2,359,389.2z"/>
	<path class="st1" d="M363.9,384.3H354c-1-0.1-1.8-1-1.8-2c0.1-0.9,0.8-1.7,1.8-1.8h9.9c1,0.1,1.8,1,1.8,2
		C365.5,383.4,364.8,384.2,363.9,384.3z"/>
	<circle class="st1" cx="373.8" cy="382.5" r="1.9"/>
	<circle class="st1" cx="381.2" cy="382.5" r="1.9"/>
	<circle class="st1" cx="391" cy="382.5" r="1.9"/>
	<circle class="st1" cx="405.9" cy="382.5" r="1.9"/>
	<path class="st1" d="M420.2,478c-1,0-1.9-0.9-1.9-1.9v-9.9c0.1-1,1-1.8,2-1.8c0.9,0.1,1.7,0.8,1.8,1.8v9.9
		C422,477.3,421.2,478,420.2,478z"/>
	<path class="st1" d="M425.2,473.1h-9.9c-1,0-1.9-0.9-1.9-1.9s0.9-1.9,1.9-1.9h9.9c1,0,1.9,0.9,1.9,1.9
		C427,472.3,426.2,473.1,425.2,473.1z"/>
	<circle class="st1" cx="405.4" cy="471.3" r="1.9"/>
	<circle class="st1" cx="395.5" cy="471.3" r="1.9"/>
	<circle class="st1" cx="383.2" cy="471.3" r="1.9"/>
	<circle class="st1" cx="365.9" cy="471.3" r="1.9"/>
	<path class="st1" d="M447.4,458.4c-10.1,0-19.6-4.8-25.5-13H374c-10.2,14.1-29.9,17.2-44,6.9c-14.1-10.2-17.2-29.9-6.9-44
		s29.9-17.2,44-6.9c2.6,2,5.1,4.3,6.9,6.9h47.9c10.2-14.1,29.8-17.2,43.9-6.9c4.2,3.1,7.6,7,9.8,11.7c0.3,0.6,0.2,1.2-0.1,1.8
		c-0.3,0.6-0.9,0.9-1.5,0.9h-29.3l-6.4,11.1l6.4,11.1H474c0.7,0,1.2,0.3,1.5,0.9s0.3,1.2,0.1,1.8
		C470.4,451.5,459.4,458.4,447.4,458.4z M373,441.6h49.7c0.7,0,1.2,0.3,1.5,0.8c8.6,12.6,25.9,15.9,38.5,7.4
		c3.2-2.2,5.8-4.9,7.9-8.1h-27.3c-0.7,0-1.3-0.3-1.6-0.9l-7.5-13c-0.3-0.6-0.3-1.3,0-1.9l7.5-13c0.3-0.6,0.9-1,1.6-1h27.3
		c-8.1-13-25.3-16.8-38.3-8.7c-3.2,2.1-6,4.7-8.1,7.9c-0.3,0.5-0.9,0.8-1.5,0.8H373c-0.7,0-1.2-0.3-1.5-0.8
		c-8.6-12.6-25.9-16-38.6-7.4c-12.6,8.6-16,25.9-7.4,38.6c8.6,12.6,25.8,16,38.6,7.4c2.9-2,5.4-4.5,7.4-7.4
		C372,442,372.5,441.6,373,441.6L373,441.6z M356,441.6h-15c-0.7,0-1.3-0.3-1.6-0.9l-7.5-13c-0.3-0.5-0.3-1.3,0-1.9l7.5-13
		c0.3-0.6,1-0.9,1.6-1h15c0.7,0,1.3,0.3,1.7,1l7.5,13c0.3,0.5,0.3,1.3,0,1.9l-7.5,13C357.2,441.3,356.8,441.6,356,441.6z M342,438
		h13l6.4-11.1l-6.4-11.1h-13l-6.4,11.1L342,438z"/>
	<path class="st1" d="M477,394.1c-1,0-1.9-0.9-1.9-1.9v-33.9c0-1,0.8-1.9,1.9-1.9c1,0,1.9,0.8,1.9,1.9l0,0v33.9
		C478.9,393.3,478,394.1,477,394.1z"/>
	<path class="st1" d="M477,350.4c-1,0-1.9-0.9-1.9-1.9v-5.7c0-1,0.8-1.9,1.9-1.9c1,0,1.9,0.8,1.9,1.9l0,0v5.7
		C478.9,349.6,478,350.4,477,350.4z"/>
	<path class="st1" d="M319,502.8c-1,0-1.9-0.9-1.9-1.9V472c-0.1-1,0.7-1.9,1.8-2c1-0.1,1.9,0.7,2,1.8c0,0.1,0,0.2,0,0.3V501
		C320.8,501.9,320,502.8,319,502.8z"/>
	<path class="st1" d="M319,464.1c-1,0-1.9-0.9-1.9-1.9v-5.7c-0.1-1,0.7-1.9,1.8-2c1-0.1,1.9,0.7,2,1.8c0,0.1,0,0.2,0,0.3v5.7
		C320.8,463.2,320,464,319,464.1L319,464.1z"/>
</g>
<g id="_x30_9">
	<circle class="st0" cx="1117.4" cy="292.7" r="19.5"/>
	<circle class="st0" cx="1176.2" cy="310.4" r="16.6"/>
	<circle class="st0" cx="1182.4" cy="242" r="27.7"/>
	<path class="st1" d="M1174.4,314.1h-36.1c-0.6,0-1-0.4-1-1.1v-8.4c0-0.5,0.4-1,1-1h36.1c0.5,0,1,0.4,1,1v8.4
		C1175.5,313.7,1175,314.1,1174.4,314.1z M1139.4,312.2h34v-6.3h-34V312.2z"/>
	<path class="st1" d="M1196.6,305.9h-80.5c-2.9,0-5.2-2.3-5.2-5.2v-4.2c0-0.5,0.4-1,1-1h88.9c0.5,0,1.1,0.4,1.1,1v4.2
		C1201.9,303.6,1199.6,305.9,1196.6,305.9C1196.7,305.9,1196.6,305.9,1196.6,305.9z M1113,297.5v3.1c0,1.8,1.4,3.1,3.1,3.1h80.5
		c1.8,0,3.1-1.4,3.1-3.1v-3.1H1113z"/>
	<path class="st1" d="M1184.2,314.1h-55.5c-0.6-0.1-1-0.5-0.9-1.1c0-0.4,0.4-0.9,0.9-0.9h55.5c0.6-0.1,1.1,0.3,1.1,0.9
		s-0.3,1.1-0.9,1.1C1184.3,314.1,1184.3,314.1,1184.2,314.1z"/>
	<circle class="st1" cx="1156.4" cy="300.6" r="1"/>
	<path class="st1" d="M1200.8,297.5h-88.9c-0.6,0-1-0.4-1-1l0,0v-51.4c0-2.9,2.3-5.2,5.2-5.2h80.5c2.9,0,5.2,2.3,5.2,5.2v51.4
		C1201.8,297.1,1201.4,297.5,1200.8,297.5z M1113,295.4h86.8v-50.3c0-1.8-1.4-3.1-3.1-3.1h-80.5c-1.8,0-3.1,1.4-3.1,3.1L1113,295.4
		L1113,295.4z"/>
	<path class="st1" d="M1185.5,289.2h-58.3c-2.1,0-3.8-1.8-3.8-3.9v-49.9c0-0.6,0.5-1,1.1-1h63.8c0.6,0,1,0.4,1,1v49.9
		C1189.4,287.4,1187.7,289.2,1185.5,289.2L1185.5,289.2z M1125.6,236.4v49c0,1,0.8,1.8,1.8,1.8l0,0h58.3c1,0,1.8-0.8,1.8-1.8l0,0
		v-48.9L1125.6,236.4z"/>
	<path class="st1" d="M1188.4,236.5h-63.8c-0.6,0-1.1-0.4-1.1-1v-8.4c0-2.1,1.8-3.9,3.8-3.9h58.3c2.1,0,3.9,1.8,3.9,3.9v8.2
		C1189.4,235.9,1188.9,236.5,1188.4,236.5L1188.4,236.5z M1125.6,234.4h61.8v-7.3c0-1-0.8-1.8-1.8-1.8l0,0h-58.3
		c-1,0-1.8,0.8-1.8,1.8l0,0v7.3H1125.6z"/>
	<path class="st1" d="M1181.3,230.9c-0.2,0-0.6-0.1-0.8-0.3s-0.3-0.4-0.3-0.8c0-0.2,0.1-0.6,0.3-0.8c0.4-0.3,1.1-0.3,1.4,0
		c0.2,0.2,0.3,0.4,0.3,0.8s-0.1,0.5-0.3,0.8C1181.9,230.8,1181.7,230.9,1181.3,230.9z"/>
	<path class="st1" d="M1173.4,229.9c0-0.6,0.3-1.1,1-1.1c0,0,0,0,0.1,0l0,0c0.7,0,1.1,0.4,1.1,1.1l0,0c0,0.6-0.6,1-1.1,1l0,0
		C1173.9,230.9,1173.4,230.4,1173.4,229.9L1173.4,229.9z"/>
	<path class="st1" d="M1167.5,230.9c-0.2,0-0.6-0.1-0.8-0.3s-0.3-0.4-0.3-0.8c0-0.6,0.4-1,1-1.1c0.3,0,0.5,0.1,0.8,0.3
		s0.3,0.4,0.3,0.8s-0.1,0.5-0.3,0.8C1168,230.8,1167.8,230.9,1167.5,230.9z"/>
	<path class="st1" d="M1144.6,271.1c-0.2,0-0.4-0.1-0.7-0.2l-9.7-8.4c-0.4-0.3-0.4-1-0.1-1.4l0.1-0.1l9.7-8.4
		c0.4-0.3,1.1-0.3,1.4,0.1c0.3,0.4,0.3,1.1-0.1,1.4l0,0l-8.8,7.6l8.8,7.6c0.4,0.3,0.4,1,0.1,1.4
		C1145.3,271,1144.9,271.1,1144.6,271.1L1144.6,271.1z"/>
	<path class="st1" d="M1168.1,271.1c-0.3,0-0.5-0.1-0.8-0.3c-0.3-0.4-0.3-1.1,0.1-1.4l0,0l8.8-7.6l-8.8-7.6c-0.4-0.3-0.4-1-0.1-1.4
		l0,0c0.4-0.4,1-0.4,1.4-0.1l9.7,8.4c0.4,0.3,0.4,1,0.1,1.4l-0.1,0.1l-9.7,8.4C1168.7,271,1168.5,271.1,1168.1,271.1z"/>
	<path class="st1" d="M1150.9,275.3c-0.1,0-0.3,0-0.4-0.1c-0.6-0.2-0.8-0.9-0.6-1.3l11.1-25c0.2-0.6,0.8-0.9,1.3-0.7
		c0.6,0.2,0.9,0.8,0.7,1.3c0,0,0,0.1-0.1,0.1l-11.1,25C1151.6,275.1,1151.3,275.3,1150.9,275.3z"/>
	<path class="st1" d="M1169.9,242h-10.7c-0.6-0.1-1-0.6-0.9-1.1c0-0.4,0.4-0.9,0.9-0.9h10.7c0.5,0.1,1,0.6,0.9,1.1
		C1170.8,241.5,1170.3,242,1169.9,242z"/>
	<path class="st1" d="M1178.6,242h-3.2c-0.6-0.1-1-0.6-0.9-1.1c0-0.4,0.4-0.9,0.9-0.9h3.2c0.5,0.1,1,0.6,0.9,1.1
		C1179.5,241.5,1179.1,242,1178.6,242L1178.6,242z"/>
	<path class="st1" d="M1147.7,283.7h-14.8c-0.6,0.1-1.1-0.3-1.1-0.9c0-0.5,0.3-1.1,0.9-1.1c0.1,0,0.1,0,0.2,0h14.8
		c0.6,0.1,1,0.6,0.9,1.1C1148.6,283.2,1148.1,283.6,1147.7,283.7z"/>
	<path class="st1" d="M1156.4,283.7h-3.2c-0.6-0.1-1-0.6-0.9-1.1c0-0.4,0.4-0.9,0.9-0.9h3.2c0.5,0.1,1,0.6,0.9,1.1
		C1157.2,283.2,1156.9,283.6,1156.4,283.7z"/>
</g>
<g id="_x31_0">
	<circle class="st0" cx="1173.9" cy="528" r="31.6"/>
	<circle class="st0" cx="1282.4" cy="566.8" r="27.1"/>
	<circle class="st0" cx="1283.1" cy="469.4" r="45"/>
	<path class="st1" d="M1271.3,582h-103.6c-4.6,0-8.5-3.7-8.5-8.5V443c0-4.6,3.7-8.5,8.5-8.5h103.6c4.6,0,8.5,3.7,8.5,8.5v130.5
		C1279.8,578.1,1275.9,582,1271.3,582z M1167.7,437.9c-2.8,0-5.1,2.3-5.1,5.1v130.5c0,2.8,2.3,5.1,5.1,5.1h103.6
		c2.8,0,5.1-2.3,5.1-5.1V443c0-2.8-2.3-5.1-5.1-5.1H1167.7z"/>
	<path class="st1" d="M1244.3,453.6h-49.5c-4.6,0-8.5-3.7-8.5-8.5v-9c0-0.9,0.8-1.6,1.7-1.6h63c0.9,0,1.7,0.8,1.7,1.6v9
		C1252.7,449.9,1249,453.6,1244.3,453.6L1244.3,453.6z M1189.7,437.9v7.3c0,2.8,2.3,5.1,5.1,5.1h49.5c2.8,0,5.1-2.3,5.1-5.1v-7.3
		H1189.7z"/>
	<path class="st1" d="M1261.3,570.7h-7c-2.2,0-4.1-1.8-4.1-4.1v-5c-2-0.3-4-0.9-5.8-1.5l-2.4,4.3c-1.1,1.9-3.5,2.6-5.5,1.4l-6.2-3.5
		c-1.9-1.1-2.5-3.5-1.4-5.5l2.4-4.3c-1.5-1.3-3-2.8-4.3-4.3l-4.3,2.4c-2,1.1-4.4,0.4-5.5-1.4l-3.5-6.2c-1.1-2-0.4-4.4,1.4-5.5
		l4.3-2.4c-0.7-1.9-1.2-3.8-1.5-5.8h-4.9c-2.2,0-4.1-1.9-4.1-4.1v-7.1c0-2.2,1.8-4.1,4.1-4.1l0,0h4.9c0.3-2,0.9-4,1.5-5.8l-4.3-2.4
		c-1.9-1.1-2.5-3.5-1.4-5.5l3.5-6.2c1.1-1.9,3.5-2.5,5.5-1.5l4.3,2.4c1.3-1.5,2.8-3,4.3-4.3l-2.4-4.3c-1.1-2-0.4-4.4,1.4-5.5
		l6.2-3.5c2-1.1,4.4-0.4,5.5,1.4l2.4,4.3c1.9-0.7,3.8-1.2,5.8-1.6v-5c0-2.2,1.9-4.1,4.1-4.1h7c2.2,0,4.1,1.9,4.1,4.1v4.9
		c2,0.3,4,0.9,5.8,1.5l2.4-4.3c0.6-0.9,1.4-1.6,2.4-1.9s2.1-0.1,3.1,0.4l6.2,3.5c1.9,1.1,2.5,3.5,1.4,5.5l-2.4,4.3
		c1.5,1.3,3,2.8,4.3,4.3l4.3-2.4c2-1.1,4.4-0.4,5.5,1.5l3.5,6.2c1.1,2,0.4,4.4-1.4,5.5l-4.3,2.4c0.7,1.9,1.2,3.8,1.5,5.8h4.9
		c2.2,0,4.1,1.8,4.1,4.1v7c0,2.2-1.9,4.1-4.1,4.1h-4.9c-0.3,2-0.9,4-1.5,5.8l4.3,2.4c1.9,1.1,2.5,3.5,1.4,5.5l-3.5,6.2
		c-1.1,1.9-3.5,2.5-5.5,1.4l-4.3-2.4c-1.3,1.5-2.8,3-4.3,4.3l2.4,4.3c1.1,2,0.4,4.4-1.4,5.5l-6.2,3.5c-2,1.1-4.4,0.4-5.5-1.4
		l-2.4-4.3c-1.9,0.7-3.8,1.2-5.8,1.5v5c0,2.2-1.8,4.1-4,4.2C1261.4,570.7,1261.4,570.7,1261.3,570.7z M1243.6,556.4
		c0.2,0,0.4,0,0.7,0.1c2.5,1,5.2,1.8,7.9,2.1c0.8,0.1,1.4,0.9,1.4,1.7v6.4c0,0.3,0.3,0.7,0.7,0.7l0,0h7c0.3,0,0.7-0.3,0.7-0.7v-6.4
		c0-0.9,0.7-1.5,1.4-1.7c2.8-0.4,5.4-1.1,7.9-2.1c0.8-0.3,1.7,0,2.1,0.8l3.2,5.5c0.1,0.1,0.2,0.2,0.4,0.3c0.2,0,0.3,0,0.6-0.1
		l6.2-3.5c0.3-0.2,0.4-0.5,0.2-0.9l-3.2-5.5c-0.4-0.8-0.2-1.6,0.4-2.2c2.1-1.8,4.1-3.6,5.7-5.7c0.5-0.7,1.4-0.9,2.2-0.4l5.5,3.2
		c0.1,0.1,0.3,0.1,0.6,0.1c0.2,0,0.3-0.2,0.4-0.3l3.5-6.2c0.2-0.3,0.1-0.8-0.2-0.9l-5.5-3.2c-0.8-0.4-1-1.3-0.8-2.1
		c1-2.5,1.8-5.2,2.1-7.9c0.1-0.8,0.9-1.4,1.7-1.4h6.4c0.3,0,0.7-0.3,0.7-0.7v-7.2c0-0.3-0.3-0.7-0.7-0.7h-6.4
		c-0.9,0-1.5-0.7-1.7-1.4c-0.4-2.8-1.1-5.4-2.1-7.9c-0.3-0.8,0-1.6,0.8-2.1l5.5-3.2c0.3-0.2,0.4-0.6,0.2-0.9l-3.5-6.2
		c-0.2-0.3-0.5-0.4-0.9-0.2l-5.5,3.2c-0.8,0.4-1.7,0.2-2.2-0.4c-1.8-2.1-3.6-4.1-5.7-5.7c-0.7-0.5-0.9-1.4-0.4-2.2l3.2-5.5
		c0.2-0.3,0.1-0.8-0.2-0.9l0,0l-6.2-3.5c-0.1-0.1-0.3-0.1-0.5-0.1s-0.3,0.2-0.4,0.3l-3.2,5.5c-0.4,0.8-1.3,1-2.1,0.8
		c-2.5-1-5.2-1.8-7.9-2.1c-0.8-0.1-1.4-0.9-1.4-1.6V477c0-0.3-0.3-0.7-0.7-0.7h-7c-0.3,0-0.7,0.3-0.7,0.7v6.4c0,0.9-0.7,1.5-1.4,1.6
		c-2.8,0.4-5.4,1.1-7.9,2.1c-0.8,0.3-1.7,0-2.1-0.8l-3.2-5.5c-0.2-0.3-0.5-0.4-0.9-0.2l-6.2,3.5c-0.1,0.1-0.2,0.2-0.3,0.4
		c0,0.2,0,0.3,0.1,0.5l3.2,5.5c0.4,0.8,0.2,1.7-0.4,2.2c-2.1,1.8-4.1,3.6-5.7,5.7c-0.6,0.7-1.4,0.9-2.2,0.4l-5.5-3.2
		c-0.1-0.1-0.3-0.1-0.5-0.1s-0.3,0.1-0.4,0.3l-3.5,6.2c-0.2,0.3-0.1,0.8,0.2,0.9l5.5,3.2c0.8,0.4,1,1.3,0.8,2.1
		c-1,2.5-1.7,5.2-2.1,7.9c-0.1,0.8-0.9,1.4-1.6,1.4h-6.4c-0.3,0-0.7,0.3-0.7,0.7v7.2c0,0.3,0.3,0.7,0.7,0.7l0,0h6.4
		c0.9,0,1.5,0.7,1.6,1.4c0.4,2.8,1.1,5.4,2.1,7.9c0.3,0.8,0,1.7-0.8,2.1l-5.5,3.2c-0.3,0.2-0.4,0.6-0.2,0.9l3.5,6.2
		c0.2,0.3,0.6,0.4,0.9,0.2l0,0l5.5-3.2c0.8-0.4,1.6-0.2,2.2,0.4c1.8,2.1,3.6,4.1,5.7,5.7c0.7,0.6,0.9,1.4,0.4,2.2l-3.2,5.5
		c-0.2,0.3-0.1,0.8,0.2,0.9l6.2,3.5c0.1,0.1,0.3,0.1,0.6,0.1c0.2,0,0.3-0.1,0.4-0.3l3.2-5.5C1242.5,556.7,1243,556.4,1243.6,556.4
		L1243.6,556.4z"/>
	<path class="st1" d="M1257.8,549.3c-15.3,0-27.6-12.4-27.6-27.6c0-15.3,12.4-27.6,27.6-27.5c15.2,0,27.6,12.3,27.6,27.6
		C1285.4,537,1273,549.3,1257.8,549.3z M1257.8,497.5c-13.4,0-24.2,10.8-24.2,24.2s10.8,24.2,24.2,24.2s24.2-10.8,24.2-24.2
		S1271.1,497.5,1257.8,497.5L1257.8,497.5L1257.8,497.5z"/>
	<path class="st1" d="M1264.5,467.2h-11.9c-0.9,0.1-1.8-0.7-1.9-1.5c-0.1-0.9,0.7-1.8,1.5-1.9c0.1,0,0.2,0,0.2,0h11.9
		c0.9-0.1,1.8,0.7,1.9,1.5c0.1,0.9-0.7,1.8-1.5,1.9C1264.7,467.2,1264.6,467.2,1264.5,467.2z"/>
	<path class="st1" d="M1243.6,467.2h-23.1c-0.9-0.1-1.7-0.9-1.5-1.9c0.1-0.9,0.8-1.5,1.5-1.5h23.1c0.9-0.1,1.8,0.7,1.9,1.5
		c0.1,0.9-0.7,1.8-1.5,1.9C1243.8,467.2,1243.7,467.2,1243.6,467.2z"/>
	<path class="st1" d="M1211.5,467.2h-16.3c-0.9,0.1-1.8-0.7-1.9-1.5c-0.1-0.9,0.7-1.8,1.5-1.9c0.1,0,0.2,0,0.2,0h16.3
		c0.9-0.1,1.8,0.7,1.9,1.5c0.1,0.9-0.7,1.8-1.5,1.9C1211.7,467.2,1211.6,467.2,1211.5,467.2L1211.5,467.2z"/>
	<path class="st1" d="M1186.2,467.2h-14c-0.9,0.1-1.8-0.7-1.9-1.5c-0.1-0.9,0.7-1.8,1.5-1.9c0.1,0,0.2,0,0.2,0h14
		c0.9,0.1,1.7,0.9,1.5,1.9C1187.6,466.4,1186.9,467,1186.2,467.2L1186.2,467.2z"/>
	<path class="st1" d="M1221.7,480.7h-20.6c-0.9-0.1-1.7-0.9-1.5-1.9c0.1-0.9,0.8-1.5,1.5-1.5h20.6c0.9-0.1,1.8,0.7,1.9,1.5
		c0.1,0.9-0.7,1.8-1.5,1.9C1221.9,480.7,1221.8,480.7,1221.7,480.7z"/>
	<path class="st1" d="M1192.1,480.7h-19.9c-0.9,0.1-1.8-0.7-1.9-1.5c-0.1-0.9,0.7-1.8,1.5-1.9c0.1,0,0.2,0,0.2,0h19.9
		c0.9-0.1,1.8,0.7,1.9,1.5c0.1,0.9-0.7,1.8-1.5,1.9C1192.3,480.7,1192.2,480.7,1192.1,480.7z"/>
	<path class="st1" d="M1208.2,494.1h-17.6c-0.9-0.1-1.7-0.9-1.5-1.9c0.1-0.9,0.8-1.5,1.5-1.5h17.6c0.9,0.1,1.7,0.9,1.5,1.9
		C1209.7,493.4,1209.1,494.1,1208.2,494.1z"/>
	<path class="st1" d="M1181.7,494.1h-9.5c-0.9,0.1-1.8-0.7-1.9-1.5c-0.1-0.9,0.7-1.8,1.5-1.9c0.1,0,0.2,0,0.2,0h9.5
		c0.9-0.1,1.8,0.7,1.9,1.5c0.1,0.9-0.7,1.8-1.5,1.9C1181.9,494.1,1181.8,494.1,1181.7,494.1z"/>
	<path class="st1" d="M1203.8,507.6h-8.6c-0.9,0.1-1.8-0.7-1.9-1.5c-0.1-0.9,0.7-1.8,1.5-1.9c0.1,0,0.2,0,0.2,0h8.6
		c0.9-0.1,1.8,0.7,1.9,1.5c0.1,0.9-0.7,1.8-1.5,1.9C1203.9,507.6,1203.9,507.6,1203.8,507.6L1203.8,507.6z"/>
	<path class="st1" d="M1186.2,507.6h-14c-0.9,0.1-1.8-0.7-1.9-1.5c-0.1-0.9,0.7-1.8,1.5-1.9c0.1,0,0.2,0,0.2,0h14
		c0.9,0.1,1.7,0.9,1.5,1.9C1187.6,507,1186.9,507.6,1186.2,507.6L1186.2,507.6z"/>
	<path class="st1" d="M1201.5,521.2h-29.3c-0.9,0.1-1.8-0.7-1.9-1.5c-0.1-0.9,0.7-1.8,1.5-1.9c0.1,0,0.2,0,0.2,0h29.3
		c0.9,0.1,1.7,0.9,1.5,1.9C1203,520.5,1202.3,521.1,1201.5,521.2z"/>
	<path class="st1" d="M1203.8,534.7h-16.1c-0.9,0.1-1.8-0.7-1.9-1.5c-0.1-0.9,0.7-1.8,1.5-1.9c0.1,0,0.2,0,0.2,0h16.1
		c0.9-0.1,1.8,0.7,1.9,1.5c0.1,0.9-0.7,1.8-1.5,1.9C1203.9,534.7,1203.8,534.7,1203.8,534.7z"/>
	<path class="st1" d="M1178.6,534.7h-6.4c-0.9,0.1-1.8-0.7-1.9-1.5c-0.1-0.9,0.7-1.8,1.5-1.9c0.1,0,0.2,0,0.2,0h6.4
		c0.9-0.1,1.8,0.7,1.9,1.5c0.1,0.9-0.7,1.8-1.5,1.9C1178.8,534.7,1178.7,534.7,1178.6,534.7z"/>
	<path class="st1" d="M1208.2,548.2h-11.9c-0.9,0.1-1.8-0.7-1.9-1.5c-0.1-0.9,0.7-1.8,1.5-1.9c0.1,0,0.2,0,0.2,0h11.9
		c0.9,0.1,1.7,0.9,1.5,1.9C1209.7,547.5,1209.1,548.1,1208.2,548.2z"/>
	<path class="st1" d="M1187.3,548.2h-15.1c-0.9,0.1-1.8-0.7-1.9-1.5c-0.1-0.9,0.7-1.8,1.5-1.9c0.1,0,0.2,0,0.2,0h15.1
		c0.9,0.1,1.7,0.9,1.5,1.9C1188.8,547.5,1188.2,548.1,1187.3,548.2L1187.3,548.2z"/>
	<path class="st1" d="M1219.5,561.8h-27.7c-0.9-0.1-1.7-0.9-1.5-1.9c0.1-0.9,0.8-1.5,1.5-1.5h27.7c0.9,0.1,1.7,0.9,1.5,1.9
		C1220.9,561,1220.3,561.6,1219.5,561.8z"/>
	<path class="st1" d="M1182.8,561.8h-10.6c-0.9,0.1-1.8-0.7-1.9-1.5c-0.1-0.9,0.7-1.8,1.5-1.9c0.1,0,0.2,0,0.2,0h10.6
		c0.9-0.1,1.8,0.7,1.9,1.5c0.1,0.9-0.7,1.8-1.5,1.9C1183,561.8,1182.9,561.8,1182.8,561.8z"/>
	<path class="st1" d="M1305.1,446.8h-9c-0.9-0.1-1.7-0.9-1.5-1.9c0.1-0.9,0.8-1.5,1.5-1.5h9c0.9-0.1,1.8,0.7,1.9,1.5
		c0.1,0.9-0.7,1.8-1.5,1.9C1305.2,446.9,1305.2,446.9,1305.1,446.8z"/>
	<path class="st1" d="M1300.6,451.3c-0.9,0-1.7-0.8-1.7-1.6l0,0v-9c-0.1-0.9,0.7-1.8,1.5-1.9c0.9-0.1,1.8,0.7,1.9,1.5
		c0,0.1,0,0.2,0,0.2v9C1302.2,450.5,1301.5,451.3,1300.6,451.3L1300.6,451.3z"/>
	<path class="st1" d="M1293.9,467.2h-9c-0.9,0.1-1.8-0.7-1.9-1.5c-0.1-0.9,0.7-1.8,1.5-1.9c0.1,0,0.2,0,0.2,0h9
		c0.9,0.1,1.7,0.9,1.5,1.9C1295.3,466.4,1294.6,467,1293.9,467.2z"/>
	<path class="st1" d="M1289.4,471.7c-0.9,0-1.7-0.8-1.7-1.7l0,0v-9.1c-0.1-0.9,0.7-1.8,1.5-1.9c0.9-0.1,1.8,0.7,1.9,1.5
		c0,0.1,0,0.2,0,0.2v9C1291,470.9,1290.2,471.7,1289.4,471.7z"/>
	<path class="st1" d="M1305.1,482.9h-9c-0.9-0.1-1.7-0.9-1.5-1.9c0.1-0.9,0.8-1.5,1.5-1.5h9c0.9-0.1,1.8,0.7,1.9,1.5
		c0.1,0.9-0.7,1.8-1.5,1.9C1305.2,482.9,1305.2,482.9,1305.1,482.9z"/>
	<path class="st1" d="M1300.6,487.4c-0.9,0-1.7-0.8-1.7-1.6v-9c-0.1-0.9,0.7-1.8,1.5-1.9c0.9-0.1,1.8,0.7,1.9,1.5c0,0.1,0,0.2,0,0.2
		v9C1302.2,486.6,1301.5,487.4,1300.6,487.4z"/>
	<path class="st1" d="M1300.6,566.3h-9c-0.9,0.1-1.8-0.7-1.9-1.5c-0.1-0.9,0.7-1.8,1.5-1.9c0.1,0,0.2,0,0.2,0h9
		c0.9,0.1,1.7,0.9,1.5,1.9C1302,565.5,1301.3,566.2,1300.6,566.3z"/>
	<path class="st1" d="M1296.1,570.8c-0.9,0-1.7-0.8-1.7-1.7v-9c0.1-0.9,0.9-1.6,1.9-1.5c0.9,0.1,1.4,0.8,1.5,1.5v9
		C1297.7,570,1296.9,570.8,1296.1,570.8z"/>
</g>
<g id="_x30_6">
	<circle class="st0" cx="614.2" cy="556.7" r="23.3"/>
	<circle class="st0" cx="667.9" cy="608.8" r="20"/>
	<circle class="st0" cx="691" cy="531.7" r="33.4"/>
	<path class="st1" d="M688.2,520.1c-0.4,0-0.9-0.2-1.2-0.4c-0.3-0.3-0.4-0.8-0.4-1.2s0.2-0.9,0.4-1.2c0.7-0.7,1.7-0.7,2.3,0
		c0.3,0.3,0.4,0.8,0.4,1.2s-0.2,0.9-0.4,1.2C689,519.8,688.5,520.1,688.2,520.1z"/>
	<path class="st1" d="M676.5,518.4c0-0.9,0.8-1.7,1.7-1.7l0,0l0,0c0.9,0,1.6,0.8,1.6,1.7l0,0l0,0c0,0.9-0.8,1.6-1.6,1.6l0,0l0,0
		C677.2,520.1,676.5,519.3,676.5,518.4L676.5,518.4z"/>
	<path class="st1" d="M668.2,520.1c-0.9,0-1.7-0.8-1.7-1.6c0-0.4,0.2-0.9,0.5-1.2c0.7-0.7,1.7-0.7,2.3,0c0.3,0.3,0.4,0.8,0.5,1.2
		c0,0.4-0.2,0.9-0.5,1.2C669,519.8,668.5,520.1,668.2,520.1z"/>
	<path class="st1" d="M698.2,528h-93.5c-0.7,0-1.2-0.5-1.2-1.2l0,0v-13.3c0-2.5,2.1-4.6,4.6-4.6h86.8c2.5,0,4.6,2.1,4.6,4.6v13.3
		C699.5,527.4,698.9,528,698.2,528L698.2,528z M606,525.5h91v-12.1c0-1.1-1-2.1-2.1-2.1l0,0h-86.8c-1.1,0-2.1,1-2.1,2.1l0,0
		L606,525.5L606,525.5z"/>
	<path class="st1" d="M694.9,618.2h-86.8c-2.5,0-4.6-2.1-4.6-4.6v-86.9c0-0.7,0.5-1.2,1.2-1.2l0,0h93.5c0.7,0,1.2,0.5,1.2,1.2l0,0
		v86.8C699.5,616.1,697.4,618.2,694.9,618.2L694.9,618.2z M606,528v85.6c0,1.1,1,2.1,2.1,2.1h86.8c1.1,0,2.1-0.9,2.1-2.1V528H606z"
		/>
	<path class="st1" d="M633,618.2c-0.2,0-0.4-0.1-0.7-0.2c-0.3-0.2-0.6-0.7-0.6-1.1v-12.1h-10.4c-2.5,0-4.6-2.1-4.6-4.6v-56.8
		c0-2.5,2.1-4.6,4.6-4.6h86.8c2.5,0,4.6,2.1,4.6,4.6v56.8c0,2.5-2.1,4.6-4.6,4.6H660L633.5,618C633.5,618.1,633.2,618.2,633,618.2z
		 M621.4,541.3c-1.1,0-2.1,1-2.1,2.1l0,0v56.8c0,1.1,1,2.1,2.1,2.1l0,0h11.7c0.7,0,1.2,0.5,1.2,1.2l0,0v11.4l24.9-12.4
		c0.2-0.1,0.3-0.1,0.6-0.1h48.4c1.1,0,2.1-1,2.1-2.1v-56.9c0-1.1-0.9-2.1-2.1-2.1H621.4z"/>
	<path class="st1" d="M685.7,594.8h-35c-0.7,0-1.2-0.5-1.2-1.2l0,0v-30c0-2.4,2.2-4.7,5-7.7s6-6.4,7.3-10.5c0.5-1.9-0.2-7.7-0.9-11
		c-0.1-0.5,0.1-1,0.5-1.3c0.2-0.2,1.9-1,5.6-0.9c4.4,0.2,7.8,5.2,8.5,12.3c0.3,3.3,0.1,6.6-0.7,9.8h16c3.2,0,5.8,3,5.8,6.5
		c0.1,1.9-0.5,3.6-1.6,5.1c1.4,1.2,2.2,3,2.1,4.8c0,1.8-0.7,3.5-1.9,4.8c2.1,3.3,1.1,7.7-2.2,9.8c-0.2,0.2-0.6,0.3-0.8,0.4
		c0.2,0.7,0.3,1.3,0.3,2.1c0,3.6-2.6,6.7-6.3,7C686,594.8,685.9,594.8,685.7,594.8z M651.9,592.2h34c2.3-0.2,4.1-2.2,4.1-4.5
		c0-0.8-0.2-1.5-0.5-2.2c-0.3-0.5-0.1-1.3,0.4-1.6c0.1-0.1,0.2-0.1,0.3-0.1c2.1-0.4,3.5-2.3,3.5-4.4c0-1.2-0.4-2.3-1.2-3.1
		c-0.2-0.2-0.3-0.7-0.3-1s0.2-0.7,0.5-0.9c1.1-0.9,1.9-2.2,1.9-3.6c0-2.2-1.4-3.4-2.4-3.4c-0.7,0-1.2-0.5-1.2-1.2s0.6-1.2,1.2-1.2
		c0.4,0,2-1.1,2-4c0-2.3-1.8-4-3.3-4h-17.6c-0.4,0-0.8-0.2-1-0.5s-0.3-0.8-0.2-1.1c0.9-3.4,1.2-6.9,0.9-10.4
		c-0.6-5.7-3.1-9.9-6.1-10c-1.1-0.1-2.3,0-3.4,0.2c0.4,2.5,1.4,8.6,0.6,11.1c-1.4,4.6-5.1,8.5-7.9,11.4c-2.2,2.3-4.3,4.5-4.3,5.9
		V592.2z"/>
	<path class="st1" d="M650.7,594.8h-11.8c-0.7,0-1.2-0.5-1.2-1.2l0,0v-30c0-0.7,0.5-1.2,1.2-1.2l0,0h11.8c0.7,0,1.2,0.5,1.2,1.2l0,0
		v30C651.9,594.2,651.4,594.8,650.7,594.8L650.7,594.8z M640.2,592.2h9.1v-27.5h-9.1V592.2z"/>
	<circle class="st1" cx="644.9" cy="587.6" r="1.6"/>
	<path class="st1" d="M624.7,569.2c-0.7,0-1.2-0.5-1.2-1.2l0,0v-16.2c0-0.7,0.6-1.2,1.2-1.2s1.2,0.5,1.2,1.2V568
		C626,568.7,625.5,569.2,624.7,569.2L624.7,569.2z"/>
	<path class="st1" d="M624.7,579.7c-0.7,0-1.2-0.5-1.2-1.2l0,0v-3.9c0-0.7,0.6-1.2,1.2-1.2s1.2,0.5,1.2,1.2v3.9
		C626,579.1,625.5,579.7,624.7,579.7L624.7,579.7z"/>
</g>
<g id="_x30_8">
	<circle class="st0" cx="987.5" cy="601.4" r="34.9"/>
	<circle class="st0" cx="938.5" cy="499.6" r="29.9"/>
	<circle class="st0" cx="886.8" cy="620.6" r="49.7"/>
	<path class="st1" d="M965.8,504.2c-0.7,0-1.3-0.2-1.8-0.7c-1-1-1-2.5,0-3.5l0,0c1-0.9,2.5-0.9,3.5,0c1,1,1,2.5,0,3.5
		C967.1,504,966.5,504.2,965.8,504.2z"/>
	<path class="st1" d="M948.5,501.8c0-1.3,1.1-2.5,2.5-2.5l0,0l0,0c1.3,0,2.5,1.1,2.5,2.4l0,0l0,0c0,1.3-1.1,2.5-2.4,2.5l0,0l0,0
		C949.5,504.2,948.5,503.1,948.5,501.8z"/>
	<path class="st1" d="M935.9,504.2c-0.7,0-1.3-0.2-1.8-0.7c-1-1-1-2.5,0-3.5l0,0c1-0.9,2.5-0.9,3.5,0c1,1,1,2.5,0,3.5
		C937.1,504,936.5,504.2,935.9,504.2z"/>
	<path class="st1" d="M978.3,516.1H858.8c-1,0-1.9-0.9-1.9-1.9v-19.9c0-3.7,3.1-6.8,6.8-6.8h109.4c3.7,0,6.8,3.1,6.8,6.8v19.9
		C980,515.2,979.4,516.1,978.3,516.1z M860.6,512.4h115.7v-18c0-1.8-1.4-3.1-3.1-3.1H863.7c-1.8,0-3.1,1.4-3.1,3.1L860.6,512.4
		L860.6,512.4z"/>
	<path class="st1" d="M973.3,650.4H863.8c-3.7,0-6.8-3.1-6.8-6.8V514.2c0-1,0.9-1.9,1.9-1.9h119.5c1,0,1.9,0.9,1.9,1.9v129.4
		C980,647.4,977,650.4,973.3,650.4z M860.6,516.1v127.5c0,1.8,1.4,3.1,3.1,3.1h109.4c1.8,0,3.1-1.4,3.1-3.1V516.1H860.6z"/>
	<path class="st1" d="M917.1,593.2h-19.7c-1,0-1.9-0.9-1.9-1.9s0.9-1.9,1.9-1.9h19.7c1,0,1.9,0.9,1.9,1.9S918.1,593.2,917.1,593.2z"
		/>
	<path class="st1" d="M887.5,593.2h-16.3c-1,0-1.9-0.9-1.9-1.9s0.9-1.9,1.9-1.9h16.3c1,0,1.9,0.9,1.9,1.9S888.5,593.2,887.5,593.2
		L887.5,593.2z"/>
	<path class="st1" d="M908.4,580.8h-20.9c-1-0.1-1.8-1-1.8-2c0.1-0.9,0.8-1.7,1.8-1.8h20.9c1-0.1,2,0.7,2,1.8c0.1,1-0.7,2-1.8,2
		C908.5,580.8,908.5,580.8,908.4,580.8z"/>
	<path class="st1" d="M877.5,580.8h-6.3c-1,0.1-2-0.7-2-1.8c-0.1-1,0.7-2,1.8-2c0.1,0,0.2,0,0.3,0h6.3c1-0.1,2,0.7,2,1.8
		c0.1,1-0.7,2-1.8,2C877.8,580.8,877.6,580.8,877.5,580.8z"/>
	<path class="st1" d="M925.9,605.6h-11.1c-1,0.1-2-0.7-2-1.8c-0.1-1,0.7-2,1.8-2c0.1,0,0.2,0,0.3,0H926c1-0.1,2,0.7,2,1.8
		c0.1,1-0.7,2-1.8,2C926,605.6,926,605.6,925.9,605.6z"/>
	<path class="st1" d="M904.8,605.6h-17.3c-1-0.1-1.8-1-1.8-2c0.1-0.9,0.8-1.7,1.8-1.8h17.3c1-0.1,2,0.7,2,1.8c0.1,1-0.7,2-1.8,2
		C905,605.6,904.9,605.6,904.8,605.6z"/>
	<path class="st1" d="M877.5,605.6h-6.3c-1,0.1-2-0.7-2-1.8c-0.1-1,0.7-2,1.8-2c0.1,0,0.2,0,0.3,0h6.3c1-0.1,2,0.7,2,1.8
		c0.1,1-0.7,2-1.8,2C877.8,605.6,877.6,605.6,877.5,605.6z"/>
	<path class="st1" d="M919.9,618.1h-17.3c-1,0.1-2-0.7-2-1.8c-0.1-1,0.7-2,1.8-2c0.1,0,0.2,0,0.3,0H920c1-0.1,2,0.7,2,1.8
		c0.1,1-0.7,2-1.8,2C920,618.1,919.9,618.1,919.9,618.1z"/>
	<path class="st1" d="M892.5,618.1h-21.2c-1,0.1-2-0.7-2-1.8c-0.1-1,0.7-2,1.8-2c0.1,0,0.2,0,0.3,0h21.2c1-0.1,2,0.7,2,1.8
		c0.1,1-0.7,2-1.8,2C892.6,618.1,892.5,618.1,892.5,618.1z"/>
	<path class="st1" d="M897.1,568.4h-26c-1,0.1-2-0.7-2-1.8c-0.1-1,0.7-2,1.8-2c0.1,0,0.2,0,0.3,0h26c1-0.1,2,0.7,2,1.8
		c0.1,1-0.7,2-1.8,2C897.4,568.4,897.3,568.4,897.1,568.4z"/>
	<path class="st1" d="M903.9,555.9h-16.3c-1,0-1.9-0.9-1.9-1.9s0.9-1.9,1.9-1.9h16.3c1,0,1.9,0.9,1.9,1.9S904.9,555.9,903.9,555.9z"
		/>
	<path class="st1" d="M877.5,555.9h-6.3c-1,0-1.9-0.9-1.9-1.9s0.9-1.9,1.9-1.9h6.3c1,0,1.9,0.9,1.9,1.9S878.5,555.9,877.5,555.9z"/>
	<path class="st1" d="M912.1,543.5h-24.5c-1,0-1.9-0.9-1.9-1.9s0.9-1.9,1.9-1.9h24.5c1,0,1.9,0.9,1.9,1.9S913.1,543.5,912.1,543.5z"
		/>
	<path class="st1" d="M877.5,543.5h-6.3c-1,0-1.9-0.9-1.9-1.9s0.9-1.9,1.9-1.9h6.3c1,0,1.9,0.9,1.9,1.9S878.5,543.5,877.5,543.5z"/>
	<path class="st1" d="M956.9,531h-16c-1,0.1-2-0.7-2-1.8c-0.1-1,0.7-2,1.8-2c0.1,0,0.2,0,0.3,0h16c1-0.1,2,0.7,2,1.8
		c0.1,1-0.7,2-1.8,2C957.1,531,957,531,956.9,531z"/>
	<path class="st1" d="M931,531h-16.2c-1,0.1-2-0.7-2-1.8c-0.1-1,0.7-2,1.8-2c0.1,0,0.2,0,0.3,0h16.2c1-0.1,2,0.7,2,1.8
		c0.1,1-0.7,2-1.8,2C931.1,531,931,531,931,531z"/>
	<path class="st1" d="M904.9,531h-17.4c-1-0.1-1.8-1-1.8-2c0.1-0.9,0.8-1.7,1.8-1.8h17.4c1,0.1,1.8,1,1.8,2
		C906.5,530.2,905.8,531,904.9,531z"/>
	<path class="st1" d="M877.5,531h-6.3c-1,0.1-2-0.7-2-1.8c-0.1-1,0.7-2,1.8-2c0.1,0,0.2,0,0.3,0h6.3c1-0.1,2,0.7,2,1.8
		c0.1,1-0.7,2-1.8,2C877.8,531,877.6,531,877.5,531z"/>
	<path class="st1" d="M945.1,565.8h-36.5c-1,0-1.9-0.9-1.9-1.9c0-0.4,0.1-0.9,0.4-1.2l18.3-22.4c0.7-0.8,2-0.9,2.8-0.1
		c0.1,0,0.1,0.1,0.1,0.1l18.3,22.4c0.7,0.8,0.6,2-0.3,2.6C945.9,565.7,945.5,565.8,945.1,565.8L945.1,565.8z M912.5,562.1h28.7
		l-14.3-17.6L912.5,562.1z"/>
	<path class="st1" d="M981.5,565.8H945c-1,0-1.9-0.9-1.9-1.9c0-0.4,0.1-0.9,0.4-1.2l18.3-22.4c0.7-0.8,2-0.9,2.8-0.1
		c0.1,0,0.1,0.1,0.1,0.1l18.3,22.4c0.7,0.8,0.5,2-0.3,2.6C982.5,565.7,982,565.8,981.5,565.8L981.5,565.8z M949,562.1h28.7
		l-14.3-17.6L949,562.1z"/>
	<path class="st1" d="M1018,565.8h-36.5c-1,0-1.9-0.9-1.9-1.9c0-0.4,0.1-0.9,0.4-1.2l18.3-22.4c0.8-0.8,2-0.9,2.8-0.1l0.1,0.1
		l18.3,22.4c0.7,0.8,0.6,2-0.3,2.6C1019,565.7,1018.5,565.8,1018,565.8L1018,565.8z M985.4,562.1h28.7l-14.3-17.6L985.4,562.1z"/>
	<path class="st1" d="M981.5,565.8c-0.6,0-1.1-0.2-1.4-0.7l-18.3-22.4c-0.7-0.8-0.5-2,0.3-2.6c0.3-0.2,0.8-0.4,1.2-0.4h36.5
		c1,0,1.9,0.9,1.9,1.9c0,0.4-0.1,0.9-0.4,1.2L983,565.2C982.6,565.6,982,565.8,981.5,565.8z M967.3,543.5l14.3,17.6l14.3-17.6H967.3
		z"/>
	<path class="st1" d="M945,565.8c-0.5,0-1.1-0.2-1.4-0.7l-18.3-22.4c-0.7-0.8-0.6-2,0.3-2.6c0.3-0.2,0.8-0.4,1.2-0.4h36.5
		c1,0,1.9,0.9,1.9,1.9c0,0.4-0.1,0.9-0.4,1.2l-18.3,22.4C946.1,565.6,945.5,565.8,945,565.8z M930.8,543.5l14.3,17.6l14.3-17.6
		H930.8z"/>
	<path class="st1" d="M963.3,633c-0.6,0-1.1-0.2-1.4-0.7L907,565.1c-0.7-0.8-0.6-2,0.3-2.6c0.3-0.2,0.8-0.4,1.2-0.4H945
		c0.9,0,1.5,0.6,1.8,1.3l18.4,67.2c0.2,0.9-0.1,1.8-1,2.2C964,633,963.5,633,963.3,633z M912.5,565.8l46.6,57.3l-15.6-57.3H912.5z"
		/>
	<path class="st1" d="M963.3,633c-0.3,0-0.6-0.1-0.9-0.2c-0.8-0.4-1.2-1.3-1-2.2l18.3-67.2c0.2-0.8,1-1.3,1.8-1.3h36.5
		c1,0,1.9,0.9,1.9,1.9c0,0.4-0.1,0.9-0.4,1.2l-54.8,67.2C964.4,632.7,964,633,963.3,633z M983,565.8l-15.5,57.3l46.8-57.3H983z"/>
	<path class="st1" d="M963.3,633c-0.9,0-1.5-0.5-1.8-1.3l-18.3-67.2c-0.2-1,0.3-2,1.3-2.3c0.1,0,0.3-0.1,0.4-0.1h36.5
		c1,0,1.9,0.8,1.9,1.9c0,0.2,0,0.3-0.1,0.5l-18.3,67.2C965,632.5,964.3,633,963.3,633L963.3,633z M947.5,565.8l15.8,58.2l15.7-58.2
		H947.5z"/>
	<path class="st1" d="M991.6,506.1h-3.4c-1,0.1-2-0.7-2-1.8c0-1.1,0.7-2,1.8-2c0.1,0,0.2,0,0.3,0h3.4c1-0.1,2,0.7,2,1.8
		c0,1.1-0.7,2-1.8,2C991.9,506.1,991.8,506.1,991.6,506.1z"/>
	<path class="st1" d="M1003,506.1h-3.4c-1,0.1-2-0.7-2-1.8c0-1.1,0.7-2,1.8-2c0.1,0,0.2,0,0.3,0h3.4c1-0.1,2,0.7,2,1.8
		c0,1.1-0.7,2-1.8,2C1003.4,506.1,1003.1,506.1,1003,506.1z"/>
	<path class="st1" d="M995.8,513.6c-1,0-1.9-0.9-1.9-1.9v-3.4c-0.1-1,0.7-2,1.8-2s2,0.7,2,1.8c0,0.1,0,0.2,0,0.3v3.4
		C997.5,512.8,996.8,513.6,995.8,513.6L995.8,513.6z"/>
	<path class="st1" d="M995.8,502.1c-1,0-1.9-0.9-1.9-1.9v-3.4c-0.1-1,0.7-2,1.8-2s2,0.7,2,1.8c0,0.1,0,0.2,0,0.3v3.4
		C997.5,501.3,996.8,502.1,995.8,502.1L995.8,502.1z"/>
	<path class="st1" d="M1006.6,531.1h-3.4c-1-0.1-1.8-1-1.8-2c0.1-0.9,0.8-1.6,1.8-1.8h3.4c1,0.1,1.8,1,1.8,2
		C1008.3,530.2,1007.5,531,1006.6,531.1z"/>
	<path class="st1" d="M1018,531.1h-3.4c-1-0.1-1.8-1-1.8-2c0.1-0.9,0.8-1.6,1.8-1.8h3.4c1,0.1,1.8,1,1.8,2
		C1019.6,530.2,1019,531,1018,531.1z"/>
	<path class="st1" d="M1010.5,538.4c-1,0-1.9-0.9-1.9-1.9v-3.4c0-1,0.9-1.9,1.9-1.9s1.9,0.9,1.9,1.9v3.4
		C1012.5,537.7,1011.6,538.4,1010.5,538.4L1010.5,538.4z"/>
	<path class="st1" d="M1010.5,527c-1,0-1.9-0.9-1.9-1.9v-3.4c0-1,0.9-1.9,1.9-1.9s1.9,0.9,1.9,1.9v3.4
		C1012.5,526.1,1011.6,527,1010.5,527z"/>
	<path class="st1" d="M996.5,620.6h-3.4c-1,0-1.9-0.9-1.9-1.9s0.9-1.9,1.9-1.9h3.4c1,0,1.9,0.9,1.9,1.9S997.6,620.6,996.5,620.6
		L996.5,620.6z"/>
	<path class="st1" d="M1008.1,620.6h-3.4c-1,0-1.9-0.9-1.9-1.9s0.9-1.9,1.9-1.9h3.4c1,0,1.9,0.9,1.9,1.9S1009.1,620.6,1008.1,620.6z
		"/>
	<path class="st1" d="M1000.6,628.1c-1,0-1.9-0.9-1.9-1.9v-3.4c0-1,0.9-1.9,1.9-1.9s1.9,0.9,1.9,1.9v3.4
		C1002.5,627.2,1001.6,628.1,1000.6,628.1z"/>
	<path class="st1" d="M1000.6,616.5c-1,0-1.9-0.9-1.9-1.9v-3.4c0-1,0.9-1.9,1.9-1.9s1.9,0.9,1.9,1.9v3.4
		C1002.5,615.8,1001.6,616.6,1000.6,616.5z"/>
</g>
<g id="_x30_2">
	<circle class="st0" cx="354" cy="132.4" r="24.2"/>
	<circle class="st0" cx="438.2" cy="161.8" r="20.7"/>
	<circle class="st0" cx="426.5" cy="99.6" r="34.5"/>
	<path class="st1" d="M401.2,185.6H393c-2.2,0-4.1-1.9-4.1-4.1v-6.4c-2.6-0.4-5.3-1.2-7.8-2.1l-3.2,5.5c-1.1,1.9-3.5,2.5-5.5,1.5
		l-7.3-4.1c-1.9-1.1-2.5-3.5-1.4-5.5l3.2-5.5c-2.1-1.8-4-3.6-5.7-5.7l-5.5,3.2c-2,1.1-4.4,0.4-5.5-1.5l-4.2-7.1
		c-1.1-2-0.4-4.4,1.4-5.5l5.5-3.2c-0.9-2.5-1.7-5.2-2.1-7.8h-6.4c-2.2,0-4.1-1.9-4.1-4.1V125c0-2.2,1.9-4.1,4.1-4.1l0,0h6.4
		c0.4-2.6,1.2-5.3,2.1-7.8l-5.5-3.2c-1.9-1.1-2.5-3.5-1.4-5.5l4.2-7.2c1.1-1.9,3.5-2.5,5.5-1.4l5.5,3.2c1.8-2.1,3.6-4,5.7-5.7
		l-3.2-5.5c-0.5-0.9-0.7-2.1-0.4-3.1s1-2,1.9-2.4l7.2-4.2c2-1.1,4.4-0.4,5.5,1.4l3.2,5.5c2.5-0.9,5.2-1.7,7.8-2.1v-6.4
		c0-2.2,1.9-4.1,4.1-4.1h8.2c2.2,0,4.1,1.9,4.1,4.1l0,0v6.4c2.6,0.4,5.3,1.2,7.8,2.1l3.2-5.5c1.1-1.9,3.5-2.5,5.5-1.4l7.2,4.2
		c1.9,1.1,2.5,3.5,1.4,5.5l-3.2,5.5c2.1,1.8,4,3.6,5.7,5.7l5.5-3.2c2-1.1,4.4-0.4,5.5,1.4l4.2,7.1c1.1,2,0.4,4.4-1.4,5.5l-5.5,3.2
		c0.9,2.5,1.6,5.2,2.1,7.8h6.4c2.2,0,4.1,1.9,4.1,4.1l0,0v8.2c0,2.2-1.9,4.1-4.1,4.1h-6.4c-0.4,2.6-1.2,5.3-2.1,7.8l5.5,3.2
		c2,1.1,2.6,3.6,1.5,5.5l0,0l-4.2,7.1c-1.1,1.9-3.5,2.5-5.5,1.5l-5.5-3.2c-1.8,2.1-3.6,4-5.7,5.7l3.2,5.5c1.1,2,0.4,4.4-1.4,5.5
		l-7.1,4.1c-2,1.1-4.4,0.4-5.5-1.5l-3.2-5.5c-2.5,0.9-5.2,1.6-7.8,2.1v6.3C405.5,183.7,403.5,185.6,401.2,185.6
		C401.4,185.6,401.4,185.6,401.2,185.6z M380.5,170.2c0.1,0,0.3,0,0.4,0.1c3,1.2,6.2,2,9.4,2.5c0.7,0.1,1.1,0.7,1.1,1.3v7.4
		c0,0.8,0.7,1.4,1.4,1.4h8.2c0.8,0,1.4-0.7,1.4-1.4V174c0-0.7,0.4-1.2,1.1-1.3c3.2-0.4,6.4-1.3,9.3-2.5c0.6-0.2,1.3,0,1.7,0.5
		l3.7,6.5c0.2,0.3,0.5,0.5,0.9,0.7c0.3,0.1,0.8,0,1.1-0.1l7.1-4.2c0.7-0.4,1-1.3,0.6-2l0,0l-3.7-6.5c-0.3-0.6-0.2-1.2,0.3-1.6
		c2.5-2,4.8-4.3,6.8-6.8c0.4-0.6,1.1-0.7,1.6-0.3l6.5,3.7c0.7,0.4,1.5,0.2,2-0.5l4.2-7.2c0.2-0.3,0.2-0.8,0.1-1.1s-0.3-0.7-0.7-0.9
		l-6.4-3.7c-0.5-0.3-0.8-1-0.5-1.5c1.2-3,2-6.2,2.5-9.3c0.1-0.7,0.7-1.1,1.3-1.1h7.5c0.8,0,1.4-0.7,1.4-1.4v-8.2
		c0-0.8-0.7-1.4-1.4-1.4h-7.5c-0.7,0-1.2-0.4-1.3-1.1c-0.5-3.2-1.3-6.4-2.5-9.3c-0.2-0.5,0-1.3,0.5-1.5l6.4-3.7
		c0.3-0.2,0.5-0.6,0.7-0.9c0.1-0.3,0-0.8-0.1-1.1l-4.2-7.2c-0.2-0.3-0.5-0.6-0.9-0.7c-0.3-0.1-0.8,0-1.1,0.1l-6.5,3.7
		c-0.5,0.3-1.2,0.2-1.6-0.3c-2.1-2.5-4.3-4.8-6.8-6.8c-0.4-0.4-0.7-1.1-0.3-1.7l3.7-6.5c0.4-0.7,0.2-1.7-0.6-2l-7.1-4.2
		c-0.7-0.4-1.5-0.2-2,0.6l0,0l-3.7,6.5c-0.3,0.6-1,0.8-1.7,0.6c-3-1.2-6.2-2-9.3-2.5c-0.7-0.1-1.1-0.7-1.1-1.3V77
		c0-0.8-0.7-1.4-1.4-1.4l0,0h-8c-0.8,0-1.4,0.7-1.4,1.4v7.5c0,0.7-0.4,1.2-1.1,1.3c-3.2,0.4-6.4,1.3-9.4,2.5c-0.5,0.2-1.3,0-1.6-0.6
		l-3.7-6.5c-0.4-0.7-1.3-1-2-0.6l0,0l-7.2,4.2c-0.3,0.2-0.5,0.5-0.7,0.9c-0.1,0.3,0,0.8,0.1,1.1l3.7,6.5c0.3,0.6,0.2,1.2-0.3,1.7
		c-2.5,2-4.8,4.3-6.8,6.8c-0.4,0.5-1.1,0.7-1.7,0.3l-6.5-3.6c-0.7-0.4-1.7-0.1-2,0.6l-4.2,7.1c-0.4,0.7-0.2,1.5,0.5,2l0,0l6.5,3.7
		c0.5,0.3,0.8,1,0.5,1.5c-1.2,3-2,6.2-2.5,9.3c-0.1,0.7-0.7,1.1-1.3,1.1h-7.5c-0.8,0-1.4,0.7-1.4,1.4v8.2c0,0.8,0.7,1.4,1.4,1.4h7.5
		c0.7,0,1.2,0.4,1.3,1.1c0.4,3.2,1.3,6.4,2.5,9.4c0.2,0.6,0,1.3-0.5,1.5l-6.5,3.7c-0.7,0.4-1,1.3-0.5,2l4.2,7.2c0.4,0.7,1.3,1,2,0.6
		l0,0l6.5-3.7c0.6-0.3,1.2-0.2,1.7,0.3c2.1,2.5,4.3,4.8,6.8,6.8c0.5,0.4,0.7,1.1,0.3,1.6l-3.7,6.5c-0.4,0.7-0.2,1.5,0.5,2l0,0
		l7.2,4.2c0.3,0.2,0.8,0.2,1.1,0.1c0.3-0.1,0.7-0.3,0.9-0.7l3.7-6.5C379.8,170.5,380.2,170.3,380.5,170.2L380.5,170.2z"/>
	<path class="st1" d="M397.2,135.5c-3.6,0-6.5-2.9-6.5-6.5c0-2.2,1.1-4.2,2.9-5.4c2.4-1.7,17.4-5.9,19-6.4c0.5-0.1,1.1,0.1,1.4,0.5
		s0.3,1.1,0,1.5c-1.1,1.3-10.8,13.4-13.2,15.2C399.8,135.1,398.5,135.5,397.2,135.5z M409.5,120.9c-5.9,1.8-13.1,4.1-14.4,4.9
		c-1.8,1.2-2.3,3.6-1.1,5.4c1.2,1.8,3.6,2.3,5.4,1.1C400.7,131.3,405.5,125.7,409.5,120.9L409.5,120.9z"/>
	<path class="st1" d="M373,130.3h-5.2c-0.8,0-1.3-0.6-1.3-1.3c0-0.8,0.5-1.3,1.3-1.3h5.2c0.8,0,1.3,0.5,1.3,1.3
		C374.4,129.7,373.7,130.3,373,130.3z"/>
	<path class="st1" d="M426.5,130.3h-5.2c-0.8,0-1.3-0.6-1.3-1.3c0-0.8,0.5-1.3,1.3-1.3h5.2c0.8,0,1.3,0.5,1.3,1.3
		C427.9,129.7,427.2,130.3,426.5,130.3z"/>
	<path class="st1" d="M397.2,106.1c-0.8,0-1.3-0.6-1.3-1.3v-5.2c0-0.8,0.6-1.3,1.3-1.3c0.8,0,1.3,0.6,1.3,1.3l0,0v5.2
		C398.5,105.5,397.9,106.1,397.2,106.1z"/>
	<path class="st1" d="M414.2,113.2c-0.3,0-0.7-0.1-0.9-0.3c-0.5-0.6-0.5-1.3,0-1.9l0,0l3.6-3.6c0.5-0.6,1.3-0.6,1.9,0l0,0
		c0.5,0.5,0.5,1.3,0,1.9l0,0l-3.6,3.6C415,113.1,414.7,113.2,414.2,113.2z"/>
	<path class="st1" d="M380,113.2c-0.3,0-0.7-0.1-0.9-0.3l-3.6-3.6c-0.5-0.6-0.5-1.3,0-1.9s1.3-0.6,1.9,0l0,0l3.6,3.6
		c0.5,0.5,0.5,1.3,0,1.9l0,0C380.8,113.1,380.4,113.2,380,113.2z"/>
	<path class="st1" d="M424.4,141.6c-0.2,0-0.3,0-0.5-0.1l-4.7-2c-0.7-0.2-1-1-0.7-1.6l0,0c0.3-0.7,1-1,1.6-0.7l4.7,2
		c0.7,0.2,1,1,0.7,1.6C425.4,141.2,424.9,141.6,424.4,141.6L424.4,141.6z"/>
	<path class="st1" d="M374.9,121.1c-0.2,0-0.3,0-0.5-0.1l-4.8-2c-0.7-0.2-1-1-0.7-1.7l0,0c0.2-0.7,1-1,1.6-0.7l4.7,2
		c0.7,0.2,1,1,0.7,1.7C375.9,120.8,375.4,121,374.9,121.1L374.9,121.1z"/>
	<path class="st1" d="M419.5,121.1c-0.8,0-1.3-0.6-1.3-1.3c0-0.5,0.3-1,0.8-1.2l4.7-2c0.7-0.2,1.4,0,1.7,0.7c0.2,0.7,0,1.4-0.7,1.7
		l0,0l-4.7,2.1C419.9,121,419.8,121.1,419.5,121.1z"/>
	<path class="st1" d="M370,141.6c-0.8,0-1.3-0.6-1.3-1.3c0-0.6,0.3-1,0.8-1.2l4.8-2c0.7-0.3,1.4,0,1.8,0.7c0.3,0.7,0,1.4-0.7,1.8
		h-0.1l-4.7,2C370.4,141.6,370.2,141.6,370,141.6z"/>
	<path class="st1" d="M406.5,107.9c-0.2,0-0.3,0-0.5-0.1c-0.7-0.3-1-1-0.7-1.7l2-4.8c0.3-0.7,1.1-1,1.8-0.7s0.9,1,0.7,1.7l-2,4.8
		C407.5,107.7,407,107.9,406.5,107.9z"/>
	<path class="st1" d="M388,107.9c-0.5,0-1-0.3-1.2-0.8l-2-4.8c-0.2-0.7,0.1-1.4,0.8-1.7c0.7-0.2,1.3,0.1,1.6,0.7l2,4.8
		c0.2,0.7,0,1.4-0.7,1.7C388.2,107.9,388,107.9,388,107.9z"/>
	<path class="st1" d="M416.7,164.9h-38.1c-1.7,0-3.1-1.3-3.1-3.1l0,0v-5.2c0-1.6,1.3-3,3.1-3.1h38.1c1.7,0,3,1.3,3.1,3.1v5.2
		C419.8,163.4,418.4,164.9,416.7,164.9L416.7,164.9z M378.8,156.2c-0.2,0-0.4,0.2-0.4,0.4v5.2c0,0.2,0.2,0.4,0.4,0.4h38.1
		c0.2,0,0.4-0.2,0.4-0.4l0,0v-5.2c0-0.2-0.2-0.4-0.4-0.4l0,0H378.8z"/>
	<path class="st1" d="M404.5,164.9h-13.9c-0.8,0-1.3-0.6-1.3-1.3v-8.7c0-0.8,0.5-1.3,1.3-1.3h13.9c0.8,0,1.3,0.6,1.3,1.3v8.7
		C405.9,164.3,405.4,164.9,404.5,164.9z M392,162.2h11.2v-6.1H392V162.2z"/>
	<path class="st1" d="M426,149.4h-57.6c-0.4,0-0.9-0.2-1.1-0.6c-11-16.5-6.5-38.7,10-49.7s38.7-6.5,49.7,10c7.9,12,7.9,27.6,0,39.6
		C426.8,149,426.5,149.3,426,149.4z M369,146.7h56.2c9.8-15.5,5.3-36.1-10.2-45.9s-36-5.3-46,10.2C362.2,122,362.2,135.8,369,146.7z
		"/>
	<path class="st1" d="M449,92.8c-2.6,0-4.7-2.1-4.7-4.7s2.1-4.7,4.7-4.7s4.7,2.1,4.7,4.7C453.8,90.6,451.7,92.8,449,92.8z M449,85.9
		c-1.2,0-2.2,1-2.2,2.2s1,2.2,2.2,2.2s2.2-1,2.2-2.2S450.2,85.9,449,85.9z"/>
	<path class="st1" d="M440.4,175.8c-2.6,0-4.7-2.1-4.7-4.7c0-2.6,2.1-4.7,4.7-4.7s4.7,2.1,4.7,4.7
		C445.2,173.6,443,175.8,440.4,175.8z M440.4,168.8c-1.2,0-2.2,1-2.2,2.2s1,2.2,2.2,2.2s2.2-1,2.2-2.2S441.7,168.8,440.4,168.8z"/>
	<path class="st1" d="M357.5,185.6c-2.6,0-4.7-2.1-4.7-4.7c0-2.6,2.1-4.7,4.7-4.7s4.7,2.1,4.7,4.7S360,185.6,357.5,185.6z
		 M357.5,178.6c-1.2,0-2.2,1-2.2,2.2s1,2.2,2.2,2.2s2.2-1,2.2-2.2S358.8,178.6,357.5,178.6z"/>
	<path class="st1" d="M348.9,175.2c-2.6,0-4.7-2.1-4.7-4.7c0-2.6,2.1-4.7,4.7-4.7s4.7,2.1,4.7,4.7
		C353.5,173.1,351.5,175.2,348.9,175.2L348.9,175.2z M348.9,168.3c-1.2,0-2.2,1-2.2,2.2s1,2.2,2.2,2.2s2.2-1,2.2-2.2
		S350,168.3,348.9,168.3L348.9,168.3L348.9,168.3z"/>
	<path class="st1" d="M438.7,82.4c-2.6,0-4.7-2.1-4.7-4.7s2.1-4.7,4.7-4.7s4.7,2.1,4.7,4.7C443.5,80.3,441.4,82.4,438.7,82.4z
		 M438.7,75.6c-1.2,0-2.2,1-2.2,2.2s1,2.2,2.2,2.2s2.2-1,2.2-2.2S439.9,75.6,438.7,75.6z"/>
	<path class="st1" d="M345.4,94.5c-2.6,0-4.7-2.1-4.7-4.7s2.1-4.7,4.7-4.7s4.7,2.1,4.7,4.7C350.2,92.4,348,94.5,345.4,94.5z
		 M345.4,87.7c-1.2,0-2.2,1-2.2,2.2s1,2.2,2.2,2.2s2.2-1,2.2-2.2C347.5,88.6,346.7,87.7,345.4,87.7z"/>
	<path class="st1" d="M399.8,144.1h-13.4c-0.7,0.1-1.3-0.4-1.4-1.2c-0.1-0.7,0.4-1.3,1.2-1.4c0.1,0,0.1,0,0.2,0h13.4
		c0.7-0.1,1.3,0.4,1.4,1.2c0.1,0.7-0.4,1.3-1.2,1.4C400,144.1,399.9,144.1,399.8,144.1z"/>
	<path class="st1" d="M410.5,144.1h-3.8c-0.7,0.1-1.3-0.4-1.4-1.2c-0.1-0.7,0.4-1.3,1.2-1.4c0.1,0,0.1,0,0.2,0h3.8
		c0.7-0.1,1.3,0.4,1.4,1.2c0.1,0.7-0.4,1.3-1.2,1.4H410.5z"/>
</g>
<rect x="839.5" y="50.8" class="st2" width="196.8" height="196.8"/>
<rect x="299.2" y="28.8" class="st2" width="196.8" height="196.8"/>
<rect x="3.9" y="194.6" class="st2" width="196.8" height="196.8"/>
<rect x="559.4" y="460.8" class="st2" width="196.8" height="196.8"/>
<rect x="1110.2" y="386.4" class="st2" width="238" height="238"/>
<rect x="1076.4" y="188.6" class="st2" width="153" height="153"/>
<rect x="360.5" y="597.1" class="st2" width="153" height="153"/>
<rect x="620" y="0.2" class="st1" width="84.4" height="84.4"/>
<rect x="866" y="284.6" class="st1" width="84.4" height="84.4"/>
<rect x="140.1" y="419.7" class="st1" width="84.4" height="84.4"/>
<rect x="554.2" y="715.4" class="st1" width="84.4" height="84.4"/>
<rect x="59.6" y="479.5" class="st3" width="56.2" height="56.2"/>
<rect x="112" y="107" class="st4" width="56.2" height="56.2"/>
<rect x="669.4" y="694" class="st3" width="56.2" height="56.2"/>
<rect x="1109.5" y="692.4" class="st4" width="56.2" height="56.2"/>
<rect x="963.8" y="342.6" class="st3" width="56.2" height="56.2"/>
<rect x="546.2" y="58.2" class="st3" width="56.2" height="56.2"/>
<rect x="570.7" y="157.3" class="st2" width="238" height="238"/>
<rect x="788.5" y="429.9" class="st2" width="275.7" height="275.7"/>
<rect x="254.9" y="285" class="st2" width="275.7" height="275.7"/>
</svg>
