<?xml version="1.0" encoding="utf-8"?>
<!-- Generator: Adobe Illustrator 26.0.3, SVG Export Plug-In . SVG Version: 6.00 Build 0)  -->
<svg version="1.1" id="solutions" xmlns="http://www.w3.org/2000/svg" xmlns:xlink="http://www.w3.org/1999/xlink" x="0px" y="0px"
	 viewBox="0 0 1352 800" style="enable-background:new 0 0 1352 800;" xml:space="preserve">
<style type="text/css">
	.st0{fill:none;stroke:#FFFFFF;stroke-width:7;stroke-miterlimit:10;}
	.st1{fill:#00CC61;}
	.st2{fill:#FFFFFF;}
	.st3{fill:none;stroke:#FFFFFF;stroke-width:3;stroke-miterlimit:10;}
	.st4{opacity:0.2;fill:#00CC61;enable-background:new    ;}
</style>
<rect x="839.5" y="50.9" class="st0" width="196.8" height="196.8"/>
<rect x="299.2" y="28.9" class="st0" width="196.8" height="196.8"/>
<rect x="3.8" y="194.5" class="st0" width="196.8" height="196.8"/>
<rect x="559.3" y="460.7" class="st0" width="196.8" height="196.8"/>
<rect x="1110.1" y="386.5" class="st0" width="238" height="238"/>
<rect x="1076.3" y="188.6" class="st0" width="153" height="153"/>
<rect x="360.5" y="597.1" class="st0" width="153" height="153"/>
<rect x="620.1" y="0.3" class="st1" width="84.4" height="84.4"/>
<rect x="865.9" y="284.5" class="st1" width="84.4" height="84.4"/>
<rect x="140" y="419.8" class="st1" width="84.4" height="84.4"/>
<rect x="554.3" y="715.4" class="st1" width="84.4" height="84.4"/>
<rect x="59.5" y="479.4" class="st2" width="56.2" height="56.2"/>
<rect x="112" y="107" class="st3" width="56.2" height="56.2"/>
<rect x="669.3" y="694" class="st2" width="56.2" height="56.2"/>
<rect x="1109.5" y="692.4" class="st3" width="56.2" height="56.2"/>
<rect x="963.7" y="342.6" class="st2" width="56.2" height="56.2"/>
<rect x="546.1" y="58.1" class="st2" width="56.2" height="56.2"/>
<rect x="570.7" y="157.2" class="st0" width="238" height="238"/>
<rect x="788.6" y="429.8" class="st0" width="275.7" height="275.7"/>
<rect x="254.8" y="285" class="st0" width="275.7" height="275.7"/>
<g id="_x30_7">
	<circle class="st4" cx="979.7" cy="137.3" r="25.9"/>
	<circle class="st4" cx="922.8" cy="199.4" r="22.2"/>
	<circle class="st4" cx="901.8" cy="112.9" r="31.5"/>
	<path class="st1" d="M953.8,204.5c-0.5,0-1.1-0.3-1.3-0.9l-12.4-29.9c-4.4,1.5-9.2,1.5-13.6,0L914,203.6c-0.3,0.7-1.1,1-1.9,0.8
		c-0.7-0.3-1-1.1-0.8-1.9l13-31.1c0.3-0.7,1.1-1,1.8-0.8l0,0c4.5,1.9,9.6,1.9,14.1,0c0.3-0.1,0.8-0.1,1.1,0s0.7,0.4,0.8,0.8
		l12.9,31.1c0.3,0.7,0,1.5-0.8,1.8l0,0C954.1,204.4,953.9,204.5,953.8,204.5z"/>
	<path class="st1" d="M951.6,147.3c-0.2,0-0.3,0-0.5-0.1c-0.3-0.1-0.7-0.4-0.8-0.8c-1.9-4.5-5.5-8.1-10-10c-0.3-0.1-0.7-0.4-0.8-0.8
		s-0.1-0.8,0-1.1l12.9-31.2c0.3-0.7,1.1-1,1.9-0.8c13.5,5.5,24.2,16.3,29.8,29.7c0.1,0.3,0.1,0.8,0,1.1s-0.4,0.7-0.8,0.8L952.2,147
		C951.9,147.3,951.8,147.3,951.6,147.3z M942.6,134.6c4.2,2.1,7.6,5.5,9.7,9.7l28.6-11.9c-5.2-11.8-14.6-21.2-26.4-26.4L942.6,134.6
		z"/>
	<path class="st1" d="M912.8,204.5c-0.2,0-0.3,0-0.5-0.1c-13.5-5.5-24.2-16.3-29.8-29.8c-0.3-0.7,0-1.5,0.8-1.8l31.1-12.9
		c0.7-0.3,1.5,0,1.9,0.8c1.9,4.5,5.5,8.1,10,10c0.3,0.1,0.7,0.4,0.8,0.8s0.1,0.8,0,1.1l-12.9,31.2c-0.1,0.3-0.4,0.7-0.8,0.8
		C913.1,204.5,912.9,204.5,912.8,204.5z M885.6,174.8c5.2,11.8,14.6,21.2,26.4,26.4l11.9-28.6c-4.2-2.1-7.6-5.5-9.7-9.7L885.6,174.8
		z"/>
	<path class="st1" d="M883.7,175.5c-0.2,0-0.3,0-0.5-0.1c-0.3-0.1-0.6-0.4-0.8-0.8c-5.6-13.4-5.6-28.6,0-42.1c0.3-0.7,1.1-1,1.9-0.8
		l31.1,12.9c0.3,0.1,0.5,0.4,0.8,0.8c0.1,0.3,0.1,0.8,0,1.1c-1.9,4.5-1.9,9.6,0,14.2c0.1,0.3,0.1,0.8,0,1.1s-0.4,0.7-0.8,0.8
		l-31.1,12.9C884.1,175.5,883.8,175.5,883.7,175.5z M884.5,134.9c-4.6,12-4.6,25.4,0,37.4l28.6-11.9c-1.5-4.4-1.5-9.2,0-13.6
		L884.5,134.9z"/>
	<path class="st1" d="M982.7,175.5c-0.2,0-0.3,0-0.5-0.1L951,162.5c-0.7-0.3-1-1.1-0.8-1.8l0,0c1.9-4.5,1.9-9.6,0-14.2
		c-0.3-0.7,0-1.5,0.8-1.8l0,0l31.1-12.9c0.7-0.3,1.5,0,1.9,0.8c5.6,13.4,5.6,28.6,0,42.1c-0.1,0.3-0.4,0.7-0.8,0.8
		C983.2,175.5,983,175.5,982.7,175.5z M953.4,160.4l28.6,11.9c4.6-12,4.6-25.4,0-37.4l-28.6,11.9C954.9,151.2,954.9,156,953.4,160.4
		L953.4,160.4z"/>
	<path class="st1" d="M940.8,136.7c-0.2,0-0.3,0-0.5-0.1c-4.5-1.9-9.6-1.9-14.1,0c-0.3,0.1-0.8,0.1-1.1,0s-0.7-0.4-0.8-0.8l-13-31.1
		c-0.1-0.3-0.1-0.8,0-1.1c0.1-0.3,0.4-0.7,0.8-0.8c13.4-5.6,28.6-5.6,42.1,0c0.7,0.3,1,1.1,0.8,1.8l0,0l-12.9,31.2
		c-0.1,0.3-0.4,0.7-0.8,0.8C941.3,136.7,941,136.7,940.8,136.7z M914.5,104.9l11.9,28.6c4.4-1.5,9.2-1.5,13.6,0l11.9-28.6
		C939.9,100.1,926.5,100.1,914.5,104.9L914.5,104.9z"/>
	<path class="st1" d="M953.8,204.5c-0.2,0-0.3,0-0.5-0.1c-0.3-0.1-0.6-0.4-0.8-0.8l-12.9-31.2c-0.1-0.3-0.1-0.8,0-1.1
		s0.4-0.7,0.8-0.8c4.5-1.9,8.1-5.5,10-10c0.1-0.3,0.4-0.7,0.8-0.8c0.3-0.1,0.8-0.1,1.1,0l31.1,12.9c0.3,0.1,0.7,0.4,0.8,0.8
		c0.1,0.3,0.1,0.8,0,1.1c-5.6,13.5-16.3,24.2-29.8,29.8C954.1,204.4,953.9,204.5,953.8,204.5z M942.7,172.6l11.9,28.6
		c11.8-5.2,21.2-14.6,26.4-26.4l-28.6-11.9C950.3,167.1,946.9,170.5,942.7,172.6L942.7,172.6z"/>
	<path class="st1" d="M914.9,147.3c-0.2,0-0.3,0-0.6-0.1l-31.1-12.9c-0.3-0.1-0.6-0.4-0.8-0.8c-0.1-0.3-0.1-0.8,0-1.1
		c5.6-13.4,16.3-24.2,29.8-29.7c0.7-0.3,1.5,0,1.9,0.8l12.9,31.2c0.3,0.7,0,1.5-0.8,1.8c-4.5,1.9-8.1,5.5-10,10
		C916,147.1,915.4,147.4,914.9,147.3z M885.5,132.4l28.6,11.9c2.1-4.2,5.5-7.6,9.7-9.7L911.9,106
		C900.1,111.1,890.8,120.6,885.5,132.4L885.5,132.4z"/>
	<path class="st1" d="M982.3,119.6c-0.3,0-0.8-0.1-1-0.4l-13.6-13.6c-0.5-0.6-0.5-1.4,0-2l13.4-13.4c3.4-3.4,9-3.4,12.4,0l3.2,3.2
		c3.4,3.4,3.4,9,0,12.4l-13.4,13.4C983.1,119.5,982.7,119.6,982.3,119.6z M970.6,104.5l11.7,11.7l12.5-12.5c2.3-2.3,2.3-6.2,0-8.5
		l0,0l-3.2-3.2c-2.3-2.3-6.2-2.3-8.5,0l0,0L970.6,104.5z"/>
	<path class="st1" d="M961.4,134.7c-2.1,0-4.1-0.9-5.5-2.3l-1.4-1.4c-3.1-3.1-3.1-8,0-11.1l0,0l14.7-14.7c0.6-0.6,1.4-0.6,2,0
		l10.6,10.6c0.6,0.5,0.6,1.4,0,2L967,132.4C965.6,133.9,963.5,134.8,961.4,134.7z M970.2,107.9l-13.9,13.9c-2,2-2,5.2,0,7.2l0,0
		l1.4,1.4c2,2,5.2,2,7.2,0l0,0l13.9-13.9L970.2,107.9z"/>
	<path class="st1" d="M984.6,121.8c-0.3,0-0.8-0.1-1-0.4l-18.2-18.1c-0.5-0.6-0.5-1.4,0-2s1.4-0.6,2,0l0,0l18.2,18.1
		c0.5,0.6,0.5,1.4,0,2C985.3,121.7,984.9,121.8,984.6,121.8z"/>
	<path class="st1" d="M953.1,135.1c-0.8,0-1.4-0.7-1.4-1.4c0-0.3,0.1-0.8,0.4-1l3.1-3.1c0.5-0.6,1.4-0.7,2-0.1s0.7,1.4,0.1,2
		l-0.1,0.1l-3.1,3.1C953.9,135,953.5,135.1,953.1,135.1z"/>
	<path class="st1" d="M950.1,208.6h-20.5c-0.8,0-1.4-0.7-1.4-1.4c0-0.8,0.7-1.4,1.4-1.4h20.5c0.8,0,1.4,0.7,1.4,1.4
		C951.4,207.9,950.8,208.6,950.1,208.6z"/>
	<path class="st1" d="M939,201.2h-16.8c-0.8,0-1.4-0.7-1.4-1.4c0-0.8,0.7-1.4,1.4-1.4H939c0.8,0,1.4,0.7,1.4,1.4
		S939.7,201.2,939,201.2z"/>
	<path class="st1" d="M940.8,193.8h-11.2c-0.8,0-1.4-0.7-1.4-1.4c0-0.8,0.7-1.4,1.4-1.4h11.2c0.8,0,1.4,0.7,1.4,1.4
		C942.3,193.2,941.6,193.8,940.8,193.8z"/>
	<path class="st1" d="M962.8,208.6h-5.4c-0.8,0-1.4-0.7-1.4-1.4c0-0.8,0.7-1.4,1.4-1.4h5.4c0.8,0,1.4,0.7,1.4,1.4
		C964.3,207.9,963.6,208.6,962.8,208.6z"/>
	<path class="st1" d="M996.8,180.8h-7.4c-0.8,0-1.4-0.7-1.4-1.4c0-0.8,0.7-1.4,1.4-1.4h7.4c0.8,0,1.4,0.7,1.4,1.4
		C998.1,180.1,997.6,180.8,996.8,180.8z"/>
	<path class="st1" d="M993.1,184.5c-0.8,0-1.4-0.7-1.4-1.4v-7.4c0-0.8,0.7-1.4,1.4-1.4s1.4,0.7,1.4,1.4l0,0v7.4
		C994.5,183.9,993.8,184.5,993.1,184.5L993.1,184.5z"/>
	<circle class="st1" cx="993.1" cy="168.3" r="1.4"/>
	<circle class="st1" cx="993.1" cy="162.7" r="1.4"/>
	<circle class="st1" cx="993.1" cy="155.4" r="1.4"/>
	<circle class="st1" cx="993.1" cy="144.2" r="1.4"/>
	<path class="st1" d="M984.8,197.4h-7.4c-0.8,0-1.4-0.7-1.4-1.4c0-0.8,0.7-1.4,1.4-1.4h7.4c0.8,0,1.4,0.7,1.4,1.4
		C986.3,196.8,985.6,197.4,984.8,197.4z"/>
	<path class="st1" d="M981.2,201.1c-0.8,0-1.4-0.7-1.4-1.4l0,0v-7.4c0-0.8,0.7-1.4,1.4-1.4s1.4,0.7,1.4,1.4l0,0v7.4
		C982.5,200.5,982,201.1,981.2,201.1z"/>
	<path class="st1" d="M884.5,114.2c-2.9,0-5.1-2.3-5.1-5.1s2.3-5.1,5.1-5.1c2.9,0,5.1,2.3,5.1,5.1l0,0
		C889.6,111.9,887.3,114.2,884.5,114.2z M884.5,106.8c-1.3,0-2.3,1-2.3,2.3s1,2.3,2.3,2.3s2.3-1,2.3-2.3l0,0
		C886.8,107.8,885.7,106.8,884.5,106.8z"/>
	<path class="st1" d="M904.9,99.2c-2.9,0-5.1-2.3-5.1-5.1c0-2.9,2.3-5.1,5.1-5.1c2.9,0,5.1,2.3,5.1,5.1l0,0
		C909.9,96.8,907.6,99.2,904.9,99.2z M904.9,91.8c-1.3,0-2.3,1-2.3,2.3s1,2.3,2.3,2.3s2.3-1,2.3-2.3l0,0
		C907.2,92.8,906.1,91.8,904.9,91.8z"/>
</g>
<g id="_x30_9">
	<circle class="st4" cx="1151.3" cy="229.9" r="20.5"/>
	<circle class="st4" cx="1119.5" cy="283.1" r="17.6"/>
	<circle class="st4" cx="1179.4" cy="294.4" r="26.4"/>
	<path class="st1" d="M1167.8,314.5h-51.3c-3.1,0-5.5-2.4-5.5-5.5v-82c0-3.1,2.4-5.5,5.5-5.5h61.5c3.1,0,5.5,2.4,5.5,5.5v71.7
		c0,0.3-0.1,0.5-0.3,0.8l-14.6,14.6C1168.3,314.4,1168,314.5,1167.8,314.5z M1116.5,223.8c-1.9,0-3.3,1.4-3.3,3.3v82
		c0,1.9,1.4,3.3,3.3,3.3h50.8l14-14v-71.3c0-1.9-1.4-3.3-3.3-3.3L1116.5,223.8L1116.5,223.8z"/>
	<path class="st1" d="M1120.9,226.6c-0.7,0-1.1-0.4-1.1-1.1v-5.8c0-0.7,0.4-1.1,1.1-1.1s1.1,0.4,1.1,1.1v5.8
		C1122,226.2,1121.6,226.6,1120.9,226.6L1120.9,226.6z"/>
	<path class="st1" d="M1129.7,226.6c-0.7,0-1.1-0.4-1.1-1.1v-5.8c0-0.7,0.4-1.1,1.1-1.1s1.1,0.4,1.1,1.1v5.8
		C1130.8,226.2,1130.2,226.6,1129.7,226.6L1129.7,226.6z"/>
	<path class="st1" d="M1138.5,226.6c-0.7,0-1.1-0.4-1.1-1.1v-5.8c0-0.7,0.4-1.1,1.1-1.1s1.1,0.4,1.1,1.1v5.8
		C1139.6,226.2,1139,226.6,1138.5,226.6L1138.5,226.6z"/>
	<path class="st1" d="M1147.2,226.6c-0.7,0-1.1-0.4-1.1-1.1v-5.8c0-0.7,0.4-1.1,1.1-1.1s1.1,0.4,1.1,1.1v5.8
		C1148.4,226.2,1147.8,226.6,1147.2,226.6C1147.3,226.6,1147.2,226.6,1147.2,226.6z"/>
	<path class="st1" d="M1156,226.6c-0.7,0-1.1-0.4-1.1-1.1v-5.8c0-0.7,0.4-1.1,1.1-1.1s1.1,0.4,1.1,1.1v5.8
		C1157.1,226.2,1156.6,226.6,1156,226.6L1156,226.6z"/>
	<path class="st1" d="M1164.8,226.6c-0.7,0-1.1-0.4-1.1-1.1v-5.8c0-0.7,0.4-1.1,1.1-1.1s1.1,0.4,1.1,1.1v5.8
		C1165.9,226.2,1165.4,226.6,1164.8,226.6L1164.8,226.6z"/>
	<path class="st1" d="M1173.6,226.6c-0.7,0-1.1-0.4-1.1-1.1v-5.8c0-0.7,0.4-1.1,1.1-1.1s1.1,0.4,1.1,1.1v5.8
		C1174.7,226.2,1174.2,226.6,1173.6,226.6L1173.6,226.6z"/>
	<path class="st1" d="M1161.4,294.6h-0.2c-0.3-0.1-0.7-0.3-0.8-0.7l-3-6.8l-6.8-3c-0.3-0.1-0.6-0.4-0.7-0.8c-0.1-0.3,0-0.8,0.3-1
		l40.4-40.4c0.4-0.4,1.1-0.4,1.5,0l10.3,10.3c0.4,0.4,0.4,1.1,0,1.5l-40.4,40.4C1161.9,294.5,1161.6,294.6,1161.4,294.6z
		 M1152.9,282.9l5.7,2.4c0.2,0.1,0.4,0.3,0.6,0.5l2.4,5.7l38.5-38.5l-8.8-8.8L1152.9,282.9z"/>
	<path class="st1" d="M1201.7,254.2c-0.3,0-0.5-0.1-0.8-0.3l-10.3-10.3c-0.4-0.4-0.4-1.1,0-1.5l3.1-3.1c1.4-1.5,3.7-1.8,5.4-0.3
		l6.9,6.9c0.7,0.7,1.1,1.8,0.9,2.8c-0.1,1-0.6,2-1.3,2.6l-3.1,3.1C1202.3,254.1,1202.1,254.2,1201.7,254.2z M1192.9,242.8l8.8,8.8
		l2.3-2.3c0.3-0.3,0.6-0.8,0.7-1.3c0-0.3-0.1-0.7-0.3-1l0,0l-6.9-6.9c-0.8-0.4-1.7-0.3-2.2,0.3L1192.9,242.8z"/>
	<path class="st1" d="M1158.2,287.4c-0.3,0-0.6-0.1-0.8-0.3c-0.4-0.4-0.4-1.1,0-1.5l38.3-38.3c0.4-0.4,1.2-0.3,1.5,0.1
		c0.3,0.4,0.3,1,0,1.4L1159,287C1158.8,287.2,1158.5,287.4,1158.2,287.4z"/>
	<path class="st1" d="M1202.7,255.4c-0.3,0-0.5-0.1-0.8-0.3l-12.4-12.4c-0.4-0.4-0.4-1.1,0-1.5s1.1-0.4,1.5,0l0,0l12.4,12.4
		c0.4,0.4,0.4,1.1,0,1.5C1203.3,255.2,1203.1,255.4,1202.7,255.4L1202.7,255.4z"/>
	<path class="st1" d="M1148.9,296.7c-0.3,0-0.6-0.1-0.8-0.3s-0.3-0.7-0.3-1l2.1-12.4c0-0.3,0.2-0.7,0.5-0.8c0.3-0.1,0.7-0.1,1,0
		l7.3,3.1c0.2,0.1,0.4,0.3,0.6,0.5l3.1,7.3c0.1,0.3,0.1,0.7,0,1s-0.4,0.6-0.8,0.6l-12.4,2.1h-0.3V296.7z M1151.9,284.7l-1.5,9.6
		l9.6-1.7l-2.4-5.5L1151.9,284.7z"/>
	<path class="st1" d="M1167.8,314.5c-0.7,0-1.1-0.4-1.1-1.1v-14.6c0-0.7,0.4-1.1,1.1-1.1h14.6c0.7,0,1.1,0.5,1.1,1.1
		c0,0.3-0.1,0.5-0.3,0.8l-14.6,14.6C1168.3,314.4,1168,314.5,1167.8,314.5z M1168.9,299.9v10.9l10.9-10.9H1168.9z"/>
	<path class="st1" d="M1140.6,238.2h-5.1c-0.7,0-1.1-0.4-1.1-1.1s0.4-1.1,1.1-1.1h5.1c0.7,0,1.1,0.4,1.1,1.1
		S1141.2,238.2,1140.6,238.2z"/>
	<path class="st1" d="M1157.5,252.8c-0.7,0-1.1-0.4-1.1-1.1s0.4-1.1,1.1-1.1h4.4c3.4,0.1,6.4-2.5,6.5-5.9s-2.5-6.4-5.9-6.5
		c-0.2,0-0.3,0-0.6,0h-15.4c-0.7,0-1.1-0.4-1.1-1.1s0.4-1.1,1.1-1.1h15.4c4.6-0.2,8.6,3.5,8.7,8.1c0.2,4.6-3.5,8.6-8.1,8.7
		c-0.2,0-0.4,0-0.7,0L1157.5,252.8L1157.5,252.8z"/>
	<path class="st1" d="M1143.3,296.7H1126c-3.8,0-6.9-3.1-6.9-6.9c0-3.9,3.1-6.9,6.9-6.9l0,0h11c3.4,0,6.3-2.8,6.3-6.3
		s-2.8-6.3-6.3-6.3l0,0h-3.6c-5.5,0-9.9-4.4-9.9-9.9s4.4-9.9,9.9-9.9h18.3c0.7,0,1.1,0.4,1.1,1.1c0,0.7-0.4,1.1-1.1,1.1h-18.4
		c-4.3,0-7.7,3.4-7.7,7.7c0,4.3,3.4,7.7,7.7,7.7h3.6c4.6,0,8.5,3.7,8.5,8.4c0,4.6-3.7,8.5-8.4,8.5l0,0h-11c-2.6,0.1-4.6,2.3-4.5,4.9
		c0.1,2.4,2.1,4.4,4.5,4.5h17.4c0.7,0,1.1,0.4,1.1,1.1S1143.9,296.7,1143.3,296.7L1143.3,296.7z"/>
	<path class="st1" d="M1149.2,269.6c-2.2,0-4.1-1.8-4.1-4.1c0-2.2,1.8-4.1,4.1-4.1c2.2,0,4.1,1.8,4.1,4.1S1151.5,269.6,1149.2,269.6
		L1149.2,269.6z M1149.2,263.7c-1,0-1.9,0.8-1.9,1.9s0.8,1.9,1.9,1.9c1,0,1.9-0.8,1.9-1.9l0,0C1151,264.6,1150.3,263.7,1149.2,263.7
		L1149.2,263.7L1149.2,263.7z"/>
	<path class="st1" d="M1127.6,248.3c-2.2,0-4.1-1.8-4.1-4.1c0-2.2,1.8-4.1,4.1-4.1c2.2,0,4.1,1.8,4.1,4.1
		C1131.7,246.6,1129.9,248.3,1127.6,248.3L1127.6,248.3z M1127.6,242.5c-1,0-1.9,0.8-1.9,1.9c0,1.1,0.8,1.9,1.9,1.9
		c1,0,1.9-0.8,1.9-1.9l0,0C1129.5,243.2,1128.6,242.5,1127.6,242.5L1127.6,242.5z"/>
	<path class="st1" d="M1120.1,281.4c-2.2,0-4.1-1.8-4.1-4.1c0-2.2,1.8-4.1,4.1-4.1c2.2,0,4.1,1.8,4.1,4.1
		C1124.2,279.7,1122.3,281.4,1120.1,281.4L1120.1,281.4z M1120.1,275.6c-1,0-1.9,0.8-1.9,1.9s0.8,1.9,1.9,1.9c1,0,1.9-0.8,1.9-1.9
		l0,0C1122,276.5,1121.1,275.6,1120.1,275.6z"/>
	<path class="st1" d="M1191.4,308.7h-5.8c-0.7,0-1.1-0.4-1.1-1.1s0.4-1.1,1.1-1.1h5.8c0.7,0,1.1,0.4,1.1,1.1
		S1192,308.7,1191.4,308.7z"/>
	<path class="st1" d="M1188.4,311.6c-0.7,0-1.1-0.4-1.1-1.1v-5.8c0-0.7,0.4-1.1,1.1-1.1s1.1,0.4,1.1,1.1v5.8
		C1189.5,311.1,1189.1,311.6,1188.4,311.6z"/>
	<circle class="st1" cx="1188.4" cy="298.8" r="1.1"/>
	<circle class="st1" cx="1188.4" cy="294.4" r="1.1"/>
	<circle class="st1" cx="1188.4" cy="288.6" r="1.1"/>
	<circle class="st1" cx="1188.4" cy="279.8" r="1.1"/>
	<path class="st1" d="M1200.2,271h-5.8c-0.7,0-1.1-0.4-1.1-1.1s0.4-1.1,1.1-1.1h5.8c0.7,0,1.1,0.4,1.1,1.1S1200.8,271,1200.2,271z"
		/>
	<path class="st1" d="M1197.2,273.9c-0.7,0-1.1-0.4-1.1-1.1V267c0-0.7,0.4-1.1,1.1-1.1s1.1,0.4,1.1,1.1v5.8
		C1198.3,273.4,1197.8,273.9,1197.2,273.9z"/>
	<circle class="st1" cx="1197.2" cy="278.7" r="1.1"/>
	<circle class="st1" cx="1197.2" cy="283.1" r="1.1"/>
	<circle class="st1" cx="1197.2" cy="290.3" r="1.1"/>
	<path class="st1" d="M1194.3,232h-5.8c-0.7,0-1.1-0.4-1.1-1.1c0-0.7,0.4-1.1,1.1-1.1h5.8c0.7,0,1.1,0.4,1.1,1.1
		S1194.9,232,1194.3,232z"/>
	<path class="st1" d="M1191.4,235c-0.7,0-1.1-0.4-1.1-1.1v-5.8c0-0.7,0.4-1.1,1.1-1.1s1.1,0.4,1.1,1.1v5.8
		C1192.5,234.4,1192,235,1191.4,235z"/>
</g>
<g id="_x30_2">
	<circle class="st4" cx="379.8" cy="171.9" r="23.1"/>
	<circle class="st4" cx="446.3" cy="118.3" r="19.8"/>
	<circle class="st4" cx="367.8" cy="96.9" r="33"/>
	<path class="st1" d="M399.6,181c-29.9,0-54.1-24.2-54.1-54.1s24.2-54.1,54.1-54.1s54.1,24.2,54.1,54.1l0,0
		C453.6,156.7,429.4,180.9,399.6,181z M399.6,75.3c-28.5,0-51.6,23.1-51.6,51.6s23.1,51.6,51.6,51.6s51.6-23.1,51.6-51.6l0,0
		C451.1,98.4,428.1,75.3,399.6,75.3z"/>
	<path class="st1" d="M374.8,89c-0.7,0-1.2-0.6-1.2-1.2c0-0.4,0.2-0.9,0.5-1.1c1.5-1,3.2-1.9,4.8-2.8c0.6-0.3,1.3-0.1,1.7,0.6l0,0
		c0.3,0.7,0,1.3-0.6,1.7c-1.5,0.8-3.2,1.7-4.6,2.5C375.3,89,375.1,89,374.8,89z"/>
	<path class="st1" d="M354.1,119.9h-0.2c-0.7-0.1-1.1-0.8-1-1.4l0,0c1.9-10.5,7.1-20,15.1-27.1c0.6-0.4,1.3-0.3,1.8,0.2
		c0.3,0.4,0.3,1.2-0.1,1.7c-7.5,6.7-12.5,15.7-14.3,25.6C355.2,119.5,354.6,119.9,354.1,119.9z"/>
	<path class="st1" d="M399.6,128.1c-0.1,0-0.2,0-0.3,0c-0.5-0.1-0.9-0.7-0.9-1.2V74.1c-0.1-0.7,0.4-1.3,1.1-1.3
		c0.7-0.1,1.3,0.4,1.3,1.1c0,0.1,0,0.1,0,0.2v48.2l23.6-41.9c0.3-0.6,1.1-0.8,1.6-0.4c0.5,0.3,0.8,1.1,0.4,1.7l0,0l-26,46
		C400.4,127.9,400.1,128.1,399.6,128.1z"/>
	<path class="st1" d="M370,172c-0.2,0-0.4-0.1-0.7-0.2c-0.5-0.4-0.8-1.1-0.3-1.8l29.6-43.8c0.1-0.2,0.3-0.4,0.7-0.4l50.2-16.7
		c0.7-0.2,1.3,0.2,1.5,0.9c0.1,0.5-0.1,1.2-0.8,1.4L400.5,128l-29.4,43.4C370.8,171.8,370.5,172,370,172z"/>
	<path class="st1" d="M443.7,157.2c-0.2,0-0.4-0.1-0.7-0.2l-44-29.1c-0.5-0.3-0.8-1.1-0.5-1.7s1.1-0.8,1.6-0.6
		c0.1,0,0.1,0.1,0.2,0.1l44.1,29.2c0.5,0.3,0.8,1.1,0.3,1.6C444.5,157,444.1,157.2,443.7,157.2z"/>
	<path class="st1" d="M399.6,164.5c-20.8,0-37.6-16.8-37.6-37.6s16.8-37.6,37.6-37.6s37.6,16.8,37.6,37.6l0,0
		C437.1,147.6,420.3,164.4,399.6,164.5z M399.6,91.8c-19.4,0-35.1,15.7-35.1,35.1s15.7,35.1,35.1,35.1s35.1-15.7,35.1-35.1l0,0
		C434.6,107.5,419,91.8,399.6,91.8z"/>
	<path class="st1" d="M399.6,164.5c-1.8,0-3.4-0.1-5.2-0.3c-0.7-0.1-1.1-0.6-1.1-1.2v-57.4c0-0.7,0.6-1.2,1.2-1.2h9.9
		c0.7,0,1.2,0.5,1.2,1.2V163c0,0.7-0.4,1.1-1.1,1.2C402.9,164.3,401.3,164.4,399.6,164.5z M395.9,161.7c2.4,0.2,5,0.2,7.5,0v-55.1
		h-7.5V161.7z"/>
	<path class="st1" d="M404.6,164.1c-0.7,0-1.2-0.6-1.2-1.2l0,0v-42.6c0-0.7,0.6-1.2,1.2-1.2h9.9c0.7,0,1.2,0.6,1.2,1.2V160
		c0,0.4-0.3,0.9-0.8,1.1C411.6,162.5,408.2,163.5,404.6,164.1L404.6,164.1z M405.8,121.5v39.9c2.5-0.4,5.1-1.2,7.5-2.2v-37.7H405.8z
		"/>
	<path class="st1" d="M414.5,161.3c-0.2,0-0.4-0.1-0.7-0.2c-0.3-0.2-0.6-0.7-0.6-1.1v-46.3c0-0.7,0.6-1.2,1.2-1.2h9.9
		c0.7,0,1.2,0.6,1.2,1.2v39.8c0,0.3-0.1,0.7-0.3,0.9c-3,2.9-6.5,5.2-10.2,6.8C414.8,161.2,414.6,161.3,414.5,161.3z M415.7,114.9
		V158c2.6-1.4,5.2-3.1,7.5-5.2v-37.9H415.7z"/>
	<path class="st1" d="M394.7,164.1h-0.2c-3.5-0.4-7-1.4-10.2-3c-0.4-0.2-0.8-0.7-0.8-1.1v-34.9c0-0.7,0.5-1.2,1.2-1.2h9.9
		c0.7,0,1.2,0.5,1.2,1.2v37.6c0,0.3-0.1,0.7-0.4,1C395.2,163.9,394.9,164.1,394.7,164.1z M386,159.2c2.4,1,4.8,1.8,7.5,2.2v-35H386
		V159.2z"/>
	<path class="st1" d="M384.8,161.3c-0.2,0-0.3,0-0.5-0.1c-3.7-1.6-7.3-4-10.2-6.8c-0.2-0.2-0.4-0.6-0.4-0.9v-21.6
		c0-0.7,0.5-1.2,1.2-1.2h9.9c0.7,0,1.2,0.5,1.2,1.2v28.2c0,0.4-0.2,0.9-0.6,1.1C385.2,161.2,385,161.3,384.8,161.3z M376.1,152.8
		c2.2,2,4.7,3.7,7.5,5.2v-25h-7.5V152.8z"/>
	<path class="st1" d="M355,86.8c-2.5,0-4.5-2-4.5-4.5s2-4.5,4.5-4.5s4.5,2,4.5,4.5C359.6,84.7,357.5,86.8,355,86.8z M355,80.2
		c-1.1,0-2.1,0.9-2.1,2.1c0,1.1,0.9,2.1,2.1,2.1c1.1,0,2.1-0.9,2.1-2.1l0,0C357.1,81.1,356.2,80.2,355,80.2L355,80.2z"/>
	<path class="st1" d="M439.2,81.9c-2.5,0-4.5-2-4.5-4.5s2-4.5,4.5-4.5s4.5,2,4.5,4.5S441.8,81.9,439.2,81.9L439.2,81.9z M439.2,75.3
		c-1.1,0-2.1,0.9-2.1,2.1c0,1.1,0.9,2.1,2.1,2.1c1.1,0,2.1-0.9,2.1-2.1l0,0C441.3,76.2,440.3,75.3,439.2,75.3L439.2,75.3L439.2,75.3
		z"/>
	<path class="st1" d="M449.1,93.4c-2.5,0-4.5-2-4.5-4.5s2-4.5,4.5-4.5s4.5,2,4.5,4.5l0,0C453.6,91.3,451.7,93.4,449.1,93.4z
		 M449.1,86.8c-1.1,0-2.1,0.9-2.1,2.1c0,1.1,0.9,2.1,2.1,2.1c1.1,0,2.1-0.9,2.1-2.1l0,0C451.2,87.7,450.3,86.8,449.1,86.8
		L449.1,86.8L449.1,86.8z"/>
	<path class="st1" d="M350,171.1c-2.5,0-4.5-2-4.5-4.5s2-4.5,4.5-4.5s4.5,2,4.5,4.5l0,0C354.6,169,352.5,171.1,350,171.1z
		 M350,164.5c-1.1,0-2.1,0.9-2.1,2.1s0.9,2.1,2.1,2.1c1.1,0,2.1-0.9,2.1-2.1S351.2,164.5,350,164.5L350,164.5z"/>
	<path class="st1" d="M363.3,181c-2.5,0-4.5-2-4.5-4.5s2-4.5,4.5-4.5s4.5,2,4.5,4.5l0,0C367.8,178.9,365.7,181,363.3,181z
		 M363.3,174.4c-1.1,0-2.1,0.9-2.1,2.1c0,1.2,0.9,2.1,2.1,2.1c1.1,0,2.1-0.9,2.1-2.1C365.3,175.3,364.4,174.4,363.3,174.4
		L363.3,174.4z"/>
	<path class="st1" d="M447.5,172.7c-2.5,0-4.5-2-4.5-4.5s2-4.5,4.5-4.5s4.5,2,4.5,4.5C452,170.6,450,172.7,447.5,172.7z
		 M447.5,166.1c-1.1,0-2.1,0.9-2.1,2.1c0,1.2,0.9,2.1,2.1,2.1c1.1,0,2.1-0.9,2.1-2.1S448.7,166.1,447.5,166.1
		C447.5,166.1,447.5,166,447.5,166.1L447.5,166.1z"/>
</g>
<g id="_x30_5">
	<circle class="st4" cx="681" cy="336.1" r="31.1"/>
	<circle class="st4" cx="621.1" cy="269.5" r="26.6"/>
	<circle class="st4" cx="725.2" cy="238.9" r="44.4"/>
	<path class="st1" d="M754.4,331H612.1c-0.9,0-1.7-0.8-1.7-1.7l0,0v-97.8c0-0.9,0.8-1.6,1.7-1.6h142.2c0.9,0,1.7,0.8,1.7,1.6v97.8
		C756,330.4,755.3,331,754.4,331L754.4,331z M613.9,327.7h138.8v-94.4H613.9V327.7z"/>
	<path class="st1" d="M667.7,233.4h-44.4c-0.9,0-1.7-0.8-1.7-1.7l0,0c0-13.2,10.7-23.9,23.9-23.9s23.9,10.7,23.9,23.9
		C669.3,232.6,668.7,233.4,667.7,233.4z M625,230.1h41c-0.9-11.3-10.8-19.8-22.1-18.8C633.8,212,625.9,220,625,230.1L625,230.1z"/>
	<path class="st1" d="M738.8,353.2c-0.2,0-0.6-0.1-0.8-0.2l-34.8-17.4L668.5,353c-0.9,0.4-1.9,0.1-2.2-0.8c-0.1-0.2-0.2-0.4-0.2-0.8
		V231.6c0-11.3-9.2-20.6-20.6-20.6c-0.9-0.1-1.5-1-1.4-1.9c0.1-0.7,0.7-1.2,1.4-1.4h71.2c13.2,0,23.9,10.7,23.9,23.9v119.9
		C740.5,352.6,739.7,353.2,738.8,353.2L738.8,353.2z M703.2,332.1c0.2,0,0.6,0.1,0.8,0.2l33.1,16.6V231.7c0-11.3-9.1-20.5-20.5-20.6
		h-59c7.3,4.3,11.7,12.1,11.7,20.6V349l33.1-16.6C702.7,332.2,703,332.1,703.2,332.1z"/>
	<path class="st1" d="M718.4,302.4c-0.2,0-0.5-0.1-0.8-0.2l-14.3-7.6l-14.3,7.6c-0.5,0.3-1.2,0.2-1.8-0.1c-0.6-0.3-0.8-1-0.7-1.6
		l2.6-16l-11.5-11.3c-0.4-0.4-0.7-1.1-0.4-1.8c0.2-0.5,0.8-1,1.3-1.1l16.1-2.2l7.2-14.5c0.4-0.9,1.5-1.1,2.4-0.7
		c0.2,0.1,0.4,0.3,0.7,0.7l7.2,14.5l16.1,2.3c0.9,0.1,1.5,1,1.4,1.9c0,0.3-0.2,0.7-0.4,1l-11.8,11.3l2.8,15.9
		c0.1,0.7-0.1,1.2-0.7,1.7C719.1,302.4,718.7,302.5,718.4,302.4z M703.2,291.2c0.2,0,0.6,0.1,0.8,0.2l12.1,6.4l-2.3-13.5
		c-0.1-0.6,0.1-1.1,0.4-1.4l9.8-9.6l-13.5-2c-0.5-0.1-1-0.4-1.2-0.9l-6-12.2l-6.1,12.2c-0.2,0.5-0.7,0.9-1.2,0.9l-13.5,2l9.8,9.6
		c0.4,0.3,0.5,0.9,0.4,1.4l-2.3,13.5l12.1-6.4C702.7,291.3,703,291.2,703.2,291.2z"/>
	<path class="st1" d="M626.3,251.1h-3.1c-0.9,0.1-1.8-0.4-1.9-1.4c-0.1-0.9,0.4-1.8,1.4-1.9c0.2,0,0.3,0,0.6,0h3.1
		c0.9-0.1,1.8,0.4,1.9,1.4c0.1,0.9-0.4,1.8-1.4,1.9C626.8,251.2,626.6,251.2,626.3,251.1z"/>
	<path class="st1" d="M636.6,251.1h-3.1c-0.9,0.1-1.8-0.4-1.9-1.4c-0.1-0.9,0.4-1.8,1.4-1.9c0.2,0,0.3,0,0.5,0h3.1
		c0.9-0.1,1.8,0.4,1.9,1.4c0.1,0.9-0.4,1.8-1.4,1.9C637,251.2,636.8,251.2,636.6,251.1z"/>
	<path class="st1" d="M630,257.8c-0.9,0-1.7-0.8-1.7-1.6V253c0.1-0.9,1-1.5,1.9-1.4c0.7,0.1,1.2,0.7,1.4,1.4v3.1
		C631.6,257,630.8,257.8,630,257.8z"/>
	<path class="st1" d="M630,247.5c-0.9,0-1.7-0.8-1.7-1.6v-3.1c0.1-0.9,1-1.5,1.9-1.4c0.7,0.1,1.2,0.7,1.4,1.4v3.1
		C631.6,246.8,630.8,247.5,630,247.5z"/>
	<path class="st1" d="M653.1,266.7H650c-0.9-0.1-1.5-1-1.4-1.9c0.1-0.7,0.7-1.2,1.4-1.4h3.1c0.9,0.1,1.5,1,1.4,1.9
		C654.3,266,653.7,266.6,653.1,266.7z"/>
	<path class="st1" d="M663.3,266.7h-3.1c-0.9-0.1-1.5-1-1.4-1.9c0.1-0.7,0.7-1.2,1.4-1.4h3.1c0.9,0.1,1.5,1,1.4,1.9
		C664.5,266,664,266.6,663.3,266.7z"/>
	<path class="st1" d="M656.6,273.3c-0.9,0-1.6-0.8-1.6-1.7l0,0v-3.1c-0.1-0.9,0.4-1.8,1.4-1.9c0.9-0.1,1.8,0.4,1.9,1.4
		c0,0.2,0,0.3,0,0.5v3.1C658.2,272.5,657.6,273.3,656.6,273.3z"/>
	<path class="st1" d="M656.6,263c-0.9,0-1.6-0.8-1.6-1.6l0,0v-3.1c-0.1-0.9,0.4-1.8,1.4-1.9c0.9-0.1,1.8,0.4,1.9,1.4
		c0,0.2,0,0.3,0,0.6v3.1C658.2,262.3,657.6,263,656.6,263z"/>
	<path class="st1" d="M639.6,300h-3.1c-0.9,0.1-1.8-0.4-1.9-1.4c-0.1-0.9,0.4-1.8,1.4-1.9c0.2,0,0.3,0,0.5,0h3.1
		c0.9,0.1,1.5,1,1.4,1.9C641,299.4,640.4,299.9,639.6,300z"/>
	<path class="st1" d="M650,300h-3.1c-0.9-0.1-1.5-1-1.4-1.9c0.1-0.7,0.7-1.2,1.4-1.4h3.1c0.9-0.1,1.8,0.4,1.9,1.4
		c0.1,0.9-0.4,1.8-1.4,1.9C650.3,300,650.1,300,650,300z"/>
	<path class="st1" d="M643.3,306.6c-0.9,0-1.7-0.8-1.7-1.6v-3.1c0.1-0.9,1-1.5,1.9-1.4c0.7,0.1,1.2,0.7,1.4,1.4v3.1
		C644.9,305.8,644.2,306.6,643.3,306.6z"/>
	<path class="st1" d="M643.3,296.4c-0.9,0-1.7-0.8-1.7-1.6v-3.1c0.1-0.9,1-1.5,1.9-1.4c0.7,0.1,1.2,0.7,1.4,1.4v3.1
		C644.9,295.6,644.2,296.4,643.3,296.4z"/>
	<path class="st1" d="M621.1,322.2c-0.9,0-1.7-0.8-1.7-1.6l0,0v-26.1c0.1-0.9,1-1.5,1.9-1.4c0.7,0.1,1.2,0.7,1.4,1.4v26
		C622.7,321.5,622,322.1,621.1,322.2z"/>
	<path class="st1" d="M621.1,287.4c-0.9,0-1.7-0.8-1.7-1.6l0,0v-5.1c-0.1-0.9,0.4-1.8,1.4-1.9c0.9-0.1,1.8,0.4,1.9,1.4
		c0,0.2,0,0.3,0,0.6v5.1C622.7,286.6,621.9,287.2,621.1,287.4z"/>
</g>
<g id="_x30_8">
	<circle class="st4" cx="859" cy="555.8" r="35.8"/>
	<circle class="st4" cx="963.8" cy="632.3" r="30.7"/>
	<circle class="st4" cx="973.4" cy="518.3" r="51.2"/>
	<path class="st1" d="M959.3,647.6h-66.4c-1.1,0-1.9-0.9-2-1.9l0,0v-15.3c0-1.1,0.9-2,2-2h66.4c1.1,0,1.9,0.9,1.9,2v15.3
		C961.2,646.7,960.4,647.6,959.3,647.6z M894.7,643.8h62.6v-11.4h-62.6V643.8z"/>
	<path class="st1" d="M1007.9,617H844.2c-1.1,0-1.9-0.9-1.9-1.9v-94.6c0-5.3,4.3-9.6,9.6-9.6h148.3c5.3,0,9.6,4.3,9.6,9.6v94.6
		C1009.8,616.2,1008.9,617,1007.9,617z M846.2,613.2h159.7v-92.6c0-3.2-2.5-5.7-5.7-5.7H851.9c-3.2,0-5.7,2.5-5.7,5.7V613.2z"/>
	<path class="st1" d="M1000.2,632.3H851.9c-5.3,0-9.6-4.3-9.6-9.6V615c0-1.1,0.9-1.9,1.9-1.9h163.6c1.1,0,1.9,0.9,1.9,1.9v7.7
		C1009.8,628,1005.5,632.3,1000.2,632.3z M846.2,617v5.7c0,3.2,2.5,5.7,5.7,5.7h148.3c3.2,0,5.7-2.5,5.7-5.7V617H846.2z"/>
	<path class="st1" d="M977.2,647.6H874.9c-1.1,0-1.9-0.9-1.9-1.9c0-1.1,0.9-1.9,1.9-1.9h102.3c1.1,0,1.9,0.9,1.9,1.9
		S978.3,647.6,977.2,647.6L977.2,647.6z"/>
	<circle class="st1" cx="926.1" cy="622.8" r="1.9"/>
	<path class="st1" d="M887.7,617c-0.3,0-0.7-0.1-1-0.3c-0.5-0.3-0.9-1-0.9-1.6v-18.5h-13.4c-3.8,0-7-3.2-7-7v-86.9
		c0-1.1,0.9-1.9,1.9-1.9l0,0h117.6c1.1,0,1.9,0.9,2,1.9l0,0v86.9c0,3.8-3.2,7-7,7h-50.7l-40.5,20.2C888.4,616.9,888,617,887.7,617z
		 M869.2,504.5v85c0,1.8,1.4,3.2,3.2,3.2l0,0h15.3c1.1,0,1.9,0.9,2,1.9V612l38.2-19c0.2-0.1,0.5-0.2,0.9-0.2h51.1
		c1.8,0,3.2-1.4,3.2-3.2l0,0v-85L869.2,504.5L869.2,504.5z"/>
	<path class="st1" d="M984.8,504.5H867.3c-1.1,0-2-0.9-2-2v-15.3c0-3.9,3.2-7,7-7h107.4c3.9,0,7,3.2,7,7v15.3
		C986.8,503.6,986,504.5,984.8,504.5C984.9,504.5,984.9,504.5,984.8,504.5z M869.2,500.6H983v-13.4c0-1.8-1.4-3.2-3.2-3.2l0,0H872.4
		c-1.8,0-3.2,1.4-3.2,3.2l0,0V500.6z"/>
	<path class="st1" d="M949.1,494.3c-1.1,0-1.9-0.9-1.9-1.9c0-0.5,0.2-1,0.5-1.3c0.8-0.8,2-0.8,2.8,0c0.3,0.3,0.5,0.9,0.5,1.3
		c0,0.6-0.2,1-0.5,1.3C950.1,494,949.6,494.3,949.1,494.3z"/>
	<path class="st1" d="M958.6,492.4c0-1.1,0.9-2,2-2l0,0c1.1,0,1.9,0.9,1.9,2l0,0c0,1.1-0.9,1.9-1.9,1.9l0,0
		C959.5,494.3,958.6,493.5,958.6,492.4L958.6,492.4z"/>
	<path class="st1" d="M972.1,494.3c-0.5,0-1-0.2-1.3-0.6c-0.8-0.8-0.8-2,0-2.8c0.8-0.7,2-0.7,2.8,0s0.8,1.9,0.1,2.6l-0.1,0.1
		C973.1,494,972.6,494.3,972.1,494.3z"/>
	<path class="st1" d="M854.5,583.8c-1.1,0-1.9-0.9-2-1.9v-30c0.1-1.1,1-1.9,2.1-1.8c1,0.1,1.7,0.9,1.8,1.8v29.9
		C856.5,582.9,855.7,583.8,854.5,583.8C854.6,583.8,854.6,583.8,854.5,583.8z"/>
	<path class="st1" d="M854.5,543.7c-1.1,0-2-0.9-2-2v-5.8c0.1-1.1,1-1.9,2.1-1.8c1,0.1,1.7,0.9,1.8,1.8v5.8
		C856.5,542.8,855.6,543.7,854.5,543.7L854.5,543.7z"/>
	<path class="st1" d="M880.1,553.1c-1.1,0-1.9-0.9-1.9-1.9v-19.7c0-1.1,0.9-1.9,1.9-1.9c1.1,0,1.9,0.9,1.9,1.9l0,0v19.7
		C882,552.2,881.1,553.1,880.1,553.1z"/>
	<path class="st1" d="M880.1,523.2c-1.1,0-1.9-0.9-1.9-1.9v-5.8c0-1.1,0.9-1.9,1.9-1.9c1.1,0,1.9,0.9,1.9,1.9l0,0v5.8
		C882,522.3,881.1,523.2,880.1,523.2z"/>
	<path class="st1" d="M926.1,581.2c-18,0-32.6-14.5-32.7-32.6c0-18,14.5-32.6,32.6-32.7c18,0,32.6,14.5,32.7,32.6l0,0
		C958.6,566.5,944,581.2,926.1,581.2z M926.1,519.8c-15.8,0-28.8,12.9-28.8,28.7s12.9,28.8,28.7,28.8s28.8-12.9,28.8-28.7l0,0
		C954.8,532.8,941.9,519.9,926.1,519.8z"/>
	<path class="st1" d="M917.2,565.9c-1.1,0-1.9-0.9-1.9-1.9v-30.8c0-1.1,0.9-1.9,1.9-1.9c0.3,0,0.8,0.1,1.1,0.3l23,15.3
		c0.5,0.3,0.9,1,0.9,1.6s-0.3,1.2-0.9,1.7l-23,15.4C917.9,565.8,917.5,565.9,917.2,565.9z M919,536.8v23.5l17.6-11.8L919,536.8z"/>
</g>
<g id="_x30_3">
	<path class="st1" d="M430.2,507.7h-85c-6.9,0-12.6-5.6-12.6-12.7V346.2c0-6.9,5.6-12.7,12.6-12.7h85c6.9,0,12.5,5.7,12.5,12.7
		v148.9C442.7,502.1,437.1,507.7,430.2,507.7z M345.1,337.5c-4.7,0-8.6,3.9-8.7,8.7v148.9c0,4.7,3.9,8.6,8.7,8.7h85
		c4.7,0,8.6-3.9,8.7-8.7V346.2c0-4.7-3.9-8.6-8.7-8.7H345.1z"/>
	<path class="st1" d="M435.5,486.5h-95.7c-4.1,0-7.4-3.3-7.4-7.3l0,0v-117c0-4.1,3.3-7.3,7.4-7.3l0,0h95.7c4.1,0,7.3,3.3,7.3,7.3
		v117C442.7,483.2,439.4,486.5,435.5,486.5z M339.8,358.9c-1.9,0-3.3,1.4-3.3,3.3v117c0,1.9,1.4,3.3,3.3,3.3h95.7
		c1.9,0,3.3-1.4,3.3-3.3v-117c0-1.9-1.4-3.3-3.3-3.3H339.8z"/>
	<path class="st1" d="M400.9,348.2h-26.6c-1.1-0.1-2-1-1.9-2.1c0.1-1,0.9-1.8,1.9-1.9h26.6c1.1,0.1,2,1,1.9,2.1
		C402.7,347.3,401.9,348.1,400.9,348.2z"/>
	<path class="st1" d="M361,497.8c-1.4,0-2.6-1.1-2.6-2.6c0,0,0,0,0-0.1c0-0.7,0.3-1.4,0.8-1.9c1.1-1,2.8-1,3.7,0
		c0.4,0.5,0.8,1.2,0.8,1.9C363.7,496.6,362.6,497.8,361,497.8C361.1,497.8,361,497.8,361,497.8L361,497.8z"/>
	<path class="st1" d="M385,495.1c0-1.4,1.2-2.6,2.6-2.6l0,0c1.4,0,2.6,1.2,2.6,2.6l0,0c0,1.4-1.2,2.6-2.6,2.6l0,0
		C386.1,497.8,385,496.6,385,495.1z"/>
	<path class="st1" d="M414.3,497.8c-1.4,0-2.6-1.2-2.6-2.6c0-0.7,0.3-1.3,0.8-1.9c1.1-1,2.8-1,3.7,0c0.4,0.5,0.8,1.2,0.8,1.9
		s-0.3,1.3-0.8,1.9C415.6,497.5,414.9,497.8,414.3,497.8z"/>
	<circle class="st1" cx="411.5" cy="346.2" r="2.6"/>
	<path class="st1" d="M470,470.5h-69.1c-2.5,0-4.6-2.1-4.6-4.6v-90.4c0-2.5,2.1-4.6,4.6-4.6H470c2.5,0,4.6,2.1,4.6,4.6v90.4
		C474.8,468.4,472.7,470.5,470,470.5L470,470.5z M400.9,374.8c-0.3,0-0.7,0.3-0.7,0.7l0,0v90.4c0,0.3,0.3,0.7,0.7,0.7l0,0H470
		c0.3,0,0.7-0.3,0.7-0.7l0,0v-90.4c0-0.3-0.3-0.7-0.7-0.7l0,0H400.9z"/>
	<path class="st1" d="M426.1,401.3h-10.7c-2.5,0-4.6-2.1-4.6-4.6V386c0-2.5,2.1-4.6,4.6-4.6h10.7c2.5,0,4.6,2.1,4.6,4.6v10.7
		C430.9,399.3,428.8,401.3,426.1,401.3z M415.6,385.4c-0.3,0-0.7,0.3-0.7,0.7l0,0v10.7c0,0.3,0.3,0.7,0.7,0.7h10.7
		c0.3,0,0.7-0.3,0.7-0.7V386c0-0.3-0.3-0.7-0.7-0.7l0,0h-10.7V385.4z"/>
	<path class="st1" d="M455.4,401.3h-10.7c-2.5,0-4.6-2.1-4.6-4.6V386c0-2.5,2.1-4.6,4.6-4.6h10.7c2.5,0,4.6,2.1,4.6,4.6v10.7
		C460.1,399.3,458,401.3,455.4,401.3z M444.8,385.4c-0.3,0-0.7,0.3-0.7,0.7l0,0v10.7c0,0.3,0.3,0.7,0.7,0.7h10.7
		c0.3,0,0.7-0.3,0.7-0.7V386c0-0.3-0.3-0.7-0.7-0.7l0,0h-10.7V385.4z"/>
	<path class="st1" d="M426.1,430.6h-10.7c-2.5,0-4.6-2.1-4.6-4.6v-10.7c0-2.5,2.1-4.6,4.6-4.6h10.7c2.5,0,4.6,2.1,4.6,4.6V426
		C430.9,428.5,428.8,430.6,426.1,430.6z M415.6,414.6c-0.3,0-0.7,0.3-0.7,0.7V426c0,0.3,0.3,0.7,0.7,0.7h10.7c0.3,0,0.7-0.3,0.7-0.7
		v-10.7c0-0.3-0.3-0.7-0.7-0.7L415.6,414.6L415.6,414.6z"/>
	<path class="st1" d="M455.4,430.6h-10.7c-2.5,0-4.6-2.1-4.6-4.6v-10.7c0-2.5,2.1-4.6,4.6-4.6h10.7c2.5,0,4.6,2.1,4.6,4.6V426
		C460.1,428.5,458,430.6,455.4,430.6z M444.8,414.6c-0.3,0-0.7,0.3-0.7,0.7V426c0,0.3,0.3,0.7,0.7,0.7h10.7c0.3,0,0.7-0.3,0.7-0.7
		v-10.7c0-0.3-0.3-0.7-0.7-0.7L444.8,414.6L444.8,414.6z"/>
	<path class="st1" d="M426.1,459.8h-10.7c-2.5,0-4.7-2.1-4.7-4.6l0,0v-10.7c0-2.5,2.1-4.6,4.6-4.6H426c2.5,0,4.6,2.1,4.6,4.6v10.7
		C430.8,457.8,428.8,459.8,426.1,459.8z M415.6,443.9c-0.3,0-0.7,0.3-0.7,0.7v10.7c0,0.3,0.3,0.7,0.7,0.7h10.7
		c0.3,0,0.7-0.3,0.7-0.7v-10.7c0-0.3-0.3-0.7-0.7-0.7H415.6z"/>
	<path class="st1" d="M455.4,459.8h-10.7c-2.5,0-4.6-2.1-4.6-4.6v-10.7c0-2.5,2.1-4.6,4.6-4.6h10.7c2.5,0,4.6,2.1,4.6,4.6v10.7
		C460.1,457.8,458,459.8,455.4,459.8z M444.8,443.9c-0.3,0-0.7,0.3-0.7,0.7v10.7c0,0.3,0.3,0.7,0.7,0.7h10.7c0.3,0,0.7-0.3,0.7-0.7
		v-10.7c0-0.3-0.3-0.7-0.7-0.7H444.8z"/>
	<path class="st1" d="M374.3,470.5h-69.1c-2.5,0-4.6-2.1-4.6-4.6v-90.4c0-2.5,2.1-4.6,4.6-4.6h69.1c2.5,0,4.6,2.1,4.6,4.6v90.4
		C379.1,468.4,377,470.5,374.3,470.5L374.3,470.5z M305.2,374.8c-0.3,0-0.7,0.3-0.7,0.7l0,0v90.4c0,0.3,0.3,0.7,0.7,0.7l0,0h69.1
		c0.3,0,0.7-0.3,0.7-0.7l0,0v-90.4c0-0.3-0.3-0.7-0.7-0.7l0,0H305.2z"/>
	<path class="st1" d="M339.8,414.6c-8.5,0-15.3-6.8-15.3-15.3s6.8-15.3,15.3-15.3s15.3,6.8,15.3,15.3
		C355.1,407.8,348.1,414.6,339.8,414.6z M339.8,388.1c-6.3,0-11.3,5.1-11.3,11.3c0,6.3,5.1,11.3,11.3,11.3s11.3-5.1,11.3-11.3
		C351,393.2,345.9,388.1,339.8,388.1z"/>
	<path class="st1" d="M363.7,427.9h-31.9c-1.1,0-2-0.9-2-2s0.9-2,2-2h31.9c1.1,0,2,0.9,2,2C365.6,427.1,364.8,427.9,363.7,427.9
		L363.7,427.9z"/>
	<path class="st1" d="M321.2,427.9h-5.3c-1.1,0-2-0.9-2-2s0.9-2,2-2h5.3c1.1,0,2,0.9,2,2C323.2,427.1,322.2,427.9,321.2,427.9z"/>
	<path class="st1" d="M363.7,441.2h-31.9c-1.1,0-2-0.9-2-2s0.9-2,2-2h31.9c1.1,0,2,0.9,2,2C365.6,440.4,364.8,441.2,363.7,441.2
		L363.7,441.2z"/>
	<path class="st1" d="M321.2,441.2h-5.3c-1.1,0-2-0.9-2-2s0.9-2,2-2h5.3c1.1,0,2,0.9,2,2S322.2,441.2,321.2,441.2z"/>
	<path class="st1" d="M363.7,454.6h-31.9c-1.1-0.1-2-1-1.9-2.1c0.1-1,0.9-1.8,1.9-1.9h31.9c1.1,0.1,2,1,1.9,2.1
		C365.4,453.7,364.6,454.5,363.7,454.6z"/>
	<path class="st1" d="M321.2,454.6h-5.3c-1.1-0.1-2-1-1.9-2.1c0.1-1,0.9-1.8,1.9-1.9h5.3c1.1,0.1,2,1,1.9,2.1
		C323,453.7,322.1,454.5,321.2,454.6z"/>
	<path class="st1" d="M318.4,350.8h-10.7c-1.1,0-2-0.9-2-2s0.9-2,2-2h10.7c1.1,0,2,0.9,2,2C320.4,350,319.5,350.8,318.4,350.8
		L318.4,350.8z"/>
	<path class="st1" d="M313.2,356.2c-1.1,0-2-0.9-2-2v-10.7c0-1.1,0.9-2,2-2s2,0.9,2,2l0,0v10.7C315.1,355.2,314.3,356.2,313.2,356.2
		z"/>
	<path class="st1" d="M326.5,494.5h-10.7c-1.1,0-2-0.9-2-2s0.9-2,2-2h10.7c1.1,0,2,0.9,2,2C328.5,493.5,327.6,494.4,326.5,494.5
		L326.5,494.5z"/>
	<path class="st1" d="M321.2,499.8c-1.1,0-2-0.9-2-2l0,0v-10.7c-0.1-1.1,0.8-2.1,1.9-2.1c1.1-0.1,2.1,0.8,2.1,1.9c0,0.1,0,0.2,0,0.3
		v10.7C323.2,498.9,322.3,499.8,321.2,499.8L321.2,499.8z"/>
	<path class="st1" d="M459.5,483.8h-10.7c-1.1,0-2-0.9-2-2s0.9-2,2-2h10.7c1.1,0,2,0.9,2,2C461.4,482.9,460.6,483.8,459.5,483.8
		L459.5,483.8z"/>
	<path class="st1" d="M454.1,489.1c-1.1,0-2-0.9-2-2v-10.7c-0.1-1.1,0.8-2.1,1.9-2.1c1.1-0.1,2.1,0.8,2.1,1.9c0,0.1,0,0.2,0,0.3
		v10.7C456.1,488.2,455.2,489.1,454.1,489.1L454.1,489.1z"/>
	<path class="st1" d="M472.7,342.9H462c-1.1,0-2-0.9-2-2s0.9-2,2-2h10.7c1.1,0,2,0.9,2,2S473.8,342.9,472.7,342.9z"/>
	<path class="st1" d="M467.4,348.2c-1.1,0-2-0.9-2-2l0,0v-10.7c0.1-1.1,1-2,2.1-1.9c1,0.1,1.8,0.9,1.9,1.9v10.7
		C469.4,347.3,468.5,348.2,467.4,348.2z"/>
	<path class="st1" d="M459.5,358.9h-10.7c-1.1,0.1-2.1-0.8-2.1-1.9c-0.1-1.1,0.8-2.1,1.9-2.1c0.1,0,0.2,0,0.3,0h10.7
		c1.1-0.1,2.1,0.8,2.1,1.9c0.1,1.1-0.8,2.1-1.9,2.1C459.6,358.9,459.5,358.9,459.5,358.9z"/>
	<path class="st1" d="M454.1,364.1c-1.1,0-2-0.9-2-2v-10.7c0-1.1,0.9-2,2-2s2,0.9,2,2l0,0v10.7C456.1,363.3,455.2,364.1,454.1,364.1
		z"/>
	<circle class="st4" cx="310.7" cy="408.4" r="37.3"/>
	<circle class="st4" cx="414.7" cy="357.1" r="32"/>
	<circle class="st4" cx="434.1" cy="471" r="53.4"/>
</g>
<g id="_x31_0">
	<path class="st1" d="M1209.2,537.7H1190c-0.9,0-1.7-0.8-1.7-1.6v-15.3c0-0.9,0.8-1.7,1.7-1.7h19.2c0.9,0,1.7,0.8,1.7,1.7v15.3
		C1210.9,537,1210.2,537.7,1209.2,537.7z M1191.6,534.4h15.9v-12h-15.9V534.4z"/>
	<path class="st1" d="M1212.9,567.6h-26.3c-0.9,0-1.7-0.8-1.7-1.7V536c0-0.9,0.8-1.7,1.7-1.7h26.3c0.9,0,1.7,0.8,1.7,1.7v30
		C1214.4,566.9,1213.7,567.6,1212.9,567.6z M1188.2,564.3h23v-26.6h-23V564.3z"/>
	<path class="st1" d="M1205.5,578.9h-11.7c-4.9,0-8.9-4-8.9-8.9v-4c0-0.9,0.8-1.6,1.7-1.6h26.3c0.9,0,1.7,0.8,1.7,1.6v4
		C1214.4,574.9,1210.4,578.9,1205.5,578.9z M1188.2,567.6v2.3c0,3.1,2.5,5.7,5.7,5.7h11.7c3.1,0,5.7-2.5,5.7-5.7v-2.3H1188.2z"/>
	<path class="st1" d="M1199.8,526.7c-24.9,0-45.1-20.1-45.2-45c0-24.9,20.1-45.1,45-45.2s45.1,20.1,45.2,45
		c0,18.6-11.4,35.3-28.8,42.1C1210.8,525.7,1205.3,526.7,1199.8,526.7z M1199.7,439.8c-5.2,0-10.2,1-15.1,2.9l0,0
		c-21.6,8.4-32.2,32.6-23.9,54.1c8.4,21.6,32.6,32.2,54.1,23.9c21.6-8.4,32.2-32.6,23.9-54.1
		C1232.3,450.4,1216.9,439.8,1199.7,439.8z M1183.9,441.1L1183.9,441.1z"/>
	<path class="st1" d="M1199.7,513.7c-17.7,0-32-14.3-32-32s14.3-32,32-32s32,14.3,32,32l0,0C1231.7,499.3,1217.4,513.7,1199.7,513.7
		z M1199.7,452.9c-15.8,0-28.8,12.9-28.8,28.8c0,15.8,12.9,28.8,28.8,28.8c15.8,0,28.8-12.9,28.8-28.8S1215.6,452.9,1199.7,452.9z"
		/>
	<path class="st1" d="M1264.8,498.6h-91.5c-0.6,0-1.1-0.3-1.4-0.8c-5.7-9.9-5.7-22.1,0-32c0.3-0.6,0.9-0.8,1.4-0.8h91.5
		c0.9,0,1.7,0.8,1.7,1.6v30.3C1266.4,497.8,1265.8,498.6,1264.8,498.6z M1174.4,495.3h88.9v-27.1h-88.9
		C1169.7,476.6,1169.7,486.8,1174.4,495.3L1174.4,495.3z"/>
	<path class="st1" d="M1290.8,498.6h-26.1c-0.9,0-1.6-0.8-1.6-1.6v-30.4c0-0.9,0.8-1.6,1.6-1.6h26.1c3.3,0,5.9,2.6,5.9,5.9v21.7
		C1296.8,495.8,1294.1,498.5,1290.8,498.6L1290.8,498.6z M1266.4,495.3h24.4c1.5,0,2.8-1.2,2.8-2.8v-21.7c0-1.5-1.2-2.8-2.8-2.8
		h-24.4V495.3z"/>
	<path class="st1" d="M1277.9,486.6c-3.8,0-7-3.2-7-7c0-3.9,3.2-7,7-7s7,3.2,7,7S1281.7,486.6,1277.9,486.6z M1277.9,475.7
		c-2.1,0-3.8,1.6-3.8,3.9c0,2.1,1.6,3.8,3.8,3.8c2.1,0,3.8-1.6,3.8-3.8l0,0C1281.6,477.4,1280,475.7,1277.9,475.7z"/>
	<path class="st1" d="M1288.8,492c-0.4,0-0.8-0.2-1.1-0.4l-7-7c-0.7-0.5-0.8-1.6-0.1-2.3c0.5-0.7,1.7-0.8,2.3-0.1l0.1,0.1l7,7
		c0.7,0.7,0.7,1.6,0,2.3C1289.6,491.9,1289.2,492,1288.8,492L1288.8,492z"/>
	<path class="st1" d="M1238.8,483.3h-32.3c-0.9,0-1.7-0.8-1.7-1.6c0-0.9,0.8-1.7,1.7-1.7h32.3c0.9,0,1.7,0.8,1.7,1.7
		C1240.5,482.5,1239.7,483.3,1238.8,483.3z"/>
	<path class="st1" d="M1197.8,483.3h-17.9c-0.9,0-1.7-0.8-1.7-1.6c0-0.9,0.8-1.7,1.7-1.7l0,0h17.9c0.9,0,1.7,0.8,1.7,1.7
		C1199.4,482.5,1198.7,483.3,1197.8,483.3z"/>
	<path class="st1" d="M1288.8,578.9h-14.1c-0.9,0-1.7-0.8-1.7-1.6c0-0.9,0.8-1.7,1.7-1.7h14.1c0.9,0,1.7,0.8,1.7,1.7
		C1290.4,578.1,1289.6,578.9,1288.8,578.9z"/>
	<path class="st1" d="M1265.9,578.9h-13.6c-0.9,0-1.6-0.8-1.6-1.6c0-0.9,0.8-1.7,1.6-1.7h13.6c0.9,0,1.6,0.8,1.6,1.7
		C1267.5,578.1,1266.9,578.9,1265.9,578.9z"/>
	<path class="st1" d="M1243.5,578.9h-20.7c-0.9,0-1.7-0.8-1.7-1.6c0-0.9,0.8-1.7,1.7-1.7l0,0h20.7c0.9,0,1.7,0.8,1.7,1.7
		C1245.2,578.1,1244.4,578.9,1243.5,578.9z"/>
	<path class="st1" d="M1295.2,565.9h-22.8c-0.9,0-1.7-0.8-1.7-1.6c0-0.9,0.8-1.7,1.7-1.7l0,0h22.8c0.9,0,1.7,0.8,1.7,1.7
		C1296.9,565.1,1296.1,565.9,1295.2,565.9z"/>
	<path class="st1" d="M1263.8,565.9h-20.2c-0.9,0-1.7-0.8-1.7-1.6c0-0.9,0.8-1.7,1.7-1.7h20.2c0.9,0,1.7,0.8,1.7,1.7
		C1265.4,565.1,1264.7,565.9,1263.8,565.9L1263.8,565.9z"/>
	<path class="st1" d="M1234.9,565.9h-12c-0.9,0-1.7-0.8-1.7-1.6c0-0.9,0.8-1.7,1.7-1.7l0,0h12c0.9,0,1.7,0.8,1.7,1.7
		C1236.5,565.1,1235.7,565.9,1234.9,565.9z"/>
	<path class="st1" d="M1281.2,552.8h-31c-0.9,0-1.7-0.8-1.7-1.6c0-0.9,0.8-1.7,1.7-1.7h31c0.9,0,1.7,0.8,1.7,1.7
		C1282.8,552,1282,552.8,1281.2,552.8z"/>
	<path class="st1" d="M1241.3,552.8h-18.5c-0.9,0-1.7-0.8-1.7-1.6c0-0.9,0.8-1.7,1.7-1.7h18.5c0.9,0,1.7,0.8,1.7,1.7
		C1243,552,1242.2,552.8,1241.3,552.8z"/>
	<path class="st1" d="M1288.8,539.8H1266c-0.9,0-1.6-0.8-1.6-1.6c0-0.9,0.8-1.7,1.6-1.7l0,0h22.8c0.9,0,1.7,0.8,1.7,1.7
		C1290.4,539,1289.6,539.8,1288.8,539.8z"/>
	<path class="st1" d="M1257.2,539.8h-9.3c-0.9,0-1.7-0.8-1.7-1.6c0-0.9,0.8-1.7,1.7-1.7h9.3c0.9,0,1.7,0.8,1.7,1.7
		C1258.8,539,1258.2,539.8,1257.2,539.8z"/>
	<path class="st1" d="M1239.1,539.8h-16.3c-0.9,0-1.7-0.8-1.7-1.6c0-0.9,0.8-1.7,1.7-1.7l0,0h16.3c0.9,0,1.7,0.8,1.7,1.7
		C1240.8,539,1240,539.8,1239.1,539.8z"/>
	<path class="st1" d="M1295.2,526.7h-9.8c-0.9,0-1.7-0.8-1.7-1.6c0-0.9,0.8-1.7,1.7-1.7h9.8c0.9,0,1.7,0.8,1.7,1.7
		C1296.9,525.9,1296.1,526.7,1295.2,526.7z"/>
	<path class="st1" d="M1276.8,526.7h-18c-0.9,0-1.7-0.8-1.7-1.6c0-0.9,0.8-1.7,1.7-1.7h18c0.9,0,1.6,0.8,1.6,1.7
		C1278.4,525.9,1277.6,526.7,1276.8,526.7z"/>
	<path class="st1" d="M1250,526.7h-18.5c-0.9,0-1.6-0.8-1.6-1.6c0-0.9,0.8-1.7,1.6-1.7l0,0h18.5c0.9,0,1.7,0.8,1.7,1.7
		C1251.7,525.9,1250.9,526.7,1250,526.7z"/>
	<path class="st1" d="M1249.5,444.2h-8.7c-0.9,0-1.7-0.8-1.7-1.6c0-0.9,0.8-1.6,1.7-1.6l0,0h8.7c0.9,0,1.7,0.8,1.7,1.6
		C1251.1,443.5,1250.4,444.2,1249.5,444.2z"/>
	<path class="st1" d="M1245.1,448.5c-0.9,0-1.7-0.8-1.7-1.6v-8.7c0-0.9,0.8-1.6,1.7-1.6c0.9,0,1.6,0.8,1.6,1.6v8.7
		C1246.8,447.9,1246.1,448.6,1245.1,448.5C1245.2,448.6,1245.2,448.6,1245.1,448.5z"/>
	<path class="st1" d="M1277.8,455.1h-8.7c-0.9,0-1.7-0.8-1.7-1.6c0-0.9,0.8-1.7,1.7-1.7h8.7c0.9,0,1.7,0.8,1.7,1.7
		C1279.4,454.3,1278.6,455.1,1277.8,455.1z"/>
	<path class="st1" d="M1273.4,459.4c-0.9,0-1.7-0.8-1.7-1.6v-8.7c0-0.9,0.8-1.6,1.7-1.6s1.7,0.8,1.7,1.6l0,0v8.7
		C1275,458.7,1274.3,459.4,1273.4,459.4L1273.4,459.4z"/>
	<path class="st1" d="M1295.2,444.2h-8.7c-0.9,0-1.6-0.8-1.6-1.6c0-0.9,0.8-1.6,1.6-1.6h8.7c0.9,0,1.7,0.8,1.7,1.6
		C1296.9,443.5,1296.1,444.2,1295.2,444.2z"/>
	<path class="st1" d="M1290.8,448.5c-0.9,0-1.6-0.8-1.6-1.6v-8.7c0-0.9,0.8-1.6,1.6-1.6c0.9,0,1.7,0.8,1.7,1.6v8.7
		C1292.5,447.9,1291.8,448.6,1290.8,448.5C1290.8,448.6,1290.8,448.6,1290.8,448.5z"/>
	<circle class="st4" cx="1166" cy="493.7" r="32"/>
	<circle class="st4" cx="1255.2" cy="449.7" r="27.4"/>
	<circle class="st4" cx="1271.7" cy="547.4" r="45.8"/>
</g>
<g id="_x30_6">
	<path class="st1" d="M629.4,635.6c-0.3,0-0.5-0.1-0.8-0.2c-0.4-0.2-0.8-0.8-0.8-1.3v-10.7h-6.6c-3.1,0-5.6-2.5-5.6-5.6v-81
		c0-3.1,2.5-5.6,5.6-5.6h103.2c3.1,0,5.5,2.5,5.5,5.6v81.1c0,3.1-2.4,5.5-5.5,5.6h-71.7l-22.7,12
		C629.9,635.6,629.6,635.6,629.4,635.6z M621.3,534.4c-1.4,0-2.5,1.1-2.5,2.5v81c0,1.4,1.1,2.5,2.5,2.5h8.1c0.9,0,1.5,0.7,1.5,1.5
		l0,0v9.7l20.8-11c0.2-0.1,0.4-0.2,0.7-0.2h72.1c1.4,0,2.5-1.1,2.5-2.5V537c0-1.4-1.1-2.5-2.5-2.5L621.3,534.4z"/>
	<path class="st1" d="M704.2,603.3H603c-3.1,0-5.6-2.5-5.6-5.6v-76.9c0-0.9,0.7-1.5,1.5-1.5l0,0h109.2c0.9,0,1.5,0.7,1.5,1.5l0,0
		v76.9C709.7,600.8,707.3,603.3,704.2,603.3z M600.5,522.3v75.3c0,1.4,1.1,2.5,2.5,2.5h101.2c1.4,0,2.5-1.1,2.5-2.5v-75.3H600.5z"/>
	<path class="st1" d="M708.3,522.3H599.1c-0.9,0-1.5-0.7-1.5-1.5l0,0v-12.1c0-3.1,2.5-5.6,5.6-5.6h101.2c3.1,0,5.6,2.5,5.6,5.6v12.1
		C709.8,521.7,709.2,522.3,708.3,522.3L708.3,522.3z M600.5,519.2h106.3v-10.7c0-1.4-1.1-2.5-2.5-2.5H603c-1.4,0-2.5,1.1-2.5,2.5
		V519.2z"/>
	<path class="st1" d="M677.9,514.3c-0.4,0-0.8-0.1-1.1-0.4c-0.3-0.3-0.4-0.7-0.4-1.1s0.1-0.8,0.4-1.1c0.5-0.5,1.5-0.5,2.2,0
		c0.7,0.6,0.7,1.5,0,2.2l0,0C678.7,514.1,678.4,514.2,677.9,514.3z"/>
	<path class="st1" d="M686.5,512.8c0-0.9,0.7-1.5,1.5-1.5l0,0l0,0c0.9,0,1.5,0.7,1.5,1.5l0,0l0,0c0,0.9-0.7,1.5-1.5,1.5l0,0
		C687.2,514.3,686.5,513.5,686.5,512.8L686.5,512.8z"/>
	<path class="st1" d="M698.2,514.3c-0.4,0-0.8-0.1-1.1-0.4c-0.3-0.3-0.4-0.7-0.4-1.1s0.1-0.8,0.4-1.1c0.6-0.5,1.5-0.5,2.2,0
		c0.3,0.3,0.4,0.7,0.4,1.1s-0.2,0.8-0.4,1.1C698.9,514.1,698.6,514.2,698.2,514.3z"/>
	<path class="st1" d="M722.5,613.4h-8.1c-0.9,0-1.5-0.7-1.5-1.5c0-0.9,0.7-1.5,1.5-1.5h8.1c0.9,0,1.5,0.7,1.5,1.5
		S723.2,613.4,722.5,613.4z"/>
	<path class="st1" d="M718.4,617.5c-0.9,0-1.5-0.7-1.5-1.5l0,0v-8c0-0.9,0.7-1.5,1.5-1.5s1.5,0.7,1.5,1.5v8
		C719.9,616.7,719.3,617.5,718.4,617.5L718.4,617.5z"/>
	<circle class="st1" cx="718.4" cy="599.8" r="1.5"/>
	<circle class="st1" cx="718.4" cy="591.6" r="1.5"/>
	<circle class="st1" cx="718.4" cy="581.5" r="1.5"/>
	<circle class="st1" cx="718.4" cy="567.3" r="1.5"/>
	<path class="st1" d="M666.7,613.4h-21.8c-0.9,0.1-1.5-0.5-1.6-1.4s0.5-1.5,1.4-1.6c0.1,0,0.2,0,0.2,0h21.8c0.9-0.1,1.5,0.5,1.7,1.4
		c0.1,0.9-0.5,1.5-1.4,1.6C666.9,613.4,666.8,613.4,666.7,613.4z"/>
	<path class="st1" d="M696.1,613.4h-19.2c-0.9-0.1-1.4-0.8-1.4-1.6c0.1-0.8,0.7-1.3,1.4-1.4h19.2c0.9-0.1,1.5,0.5,1.6,1.4
		s-0.5,1.5-1.4,1.6C696.3,613.4,696.2,613.4,696.1,613.4L696.1,613.4z"/>
	<path class="st1" d="M646.1,554.4c-0.3,0-0.7-0.1-0.9-0.3c-0.4-0.3-0.7-0.9-0.5-1.4l1.3-7.6l-5.5-5.4c-0.5-0.5-0.7-1.5,0-2.2
		c0.2-0.2,0.5-0.4,0.9-0.4l7.6-1.1l3.4-6.9c0.4-0.8,1.4-1,2.2-0.5c0.2,0.1,0.4,0.3,0.5,0.5l3.4,6.9l7.6,1.1c0.6,0.1,1,0.4,1.2,1
		c0.2,0.5,0,1.1-0.3,1.5l-5.5,5.4l1.3,7.6c0.1,0.5-0.1,1.1-0.5,1.4c-0.4,0.3-1.1,0.3-1.7,0.1l-6.8-3.5l-6.8,3.5
		C646.6,554.4,646.4,554.4,646.1,554.4z M644.8,539.7l3.9,3.7c0.3,0.3,0.5,0.9,0.4,1.3l-0.9,5.3l4.7-2.5c0.4-0.2,1-0.2,1.4,0
		l4.7,2.5l-0.9-5.3c-0.1-0.4,0.1-1,0.4-1.3l3.9-3.7l-5.4-0.8c-0.4-0.1-0.9-0.4-1.1-0.9l-2.4-4.8l-2.4,4.8c-0.2,0.4-0.7,0.8-1.1,0.9
		L644.8,539.7z"/>
	<path class="st1" d="M628.8,554.4c-0.2,0-0.4-0.1-0.7-0.2l-6.8-3.5l-6.8,3.5c-0.5,0.2-1.1,0.2-1.6-0.1c-0.4-0.3-0.7-0.9-0.5-1.4
		l1.3-7.6l-5.5-5.4c-0.4-0.4-0.5-1-0.3-1.5s0.7-1,1.2-1l7.6-1.1l3.4-6.9c0.4-0.8,1.4-1,2.2-0.6c0.2,0.1,0.4,0.3,0.5,0.6l3.4,6.9
		l7.6,1.1c0.9,0.1,1.4,0.9,1.3,1.8c0,0.3-0.2,0.7-0.4,0.9l-5.5,5.4l1.3,7.6c0.1,0.5-0.1,1.1-0.5,1.4
		C629.4,554.3,629.1,554.4,628.8,554.4z M621.3,547.5c0.2,0,0.4,0.1,0.8,0.2l4.7,2.5l-0.9-5.3c-0.1-0.4,0.1-1,0.4-1.3l3.9-3.7
		l-5.4-0.8c-0.4-0.1-0.9-0.4-1.1-0.9l-2.4-4.8l-2.4,4.8c-0.2,0.4-0.7,0.8-1.1,0.9l-5.4,0.8l3.8,3.7c0.3,0.3,0.5,0.9,0.4,1.3
		l-0.9,5.3l4.7-2.5C620.8,547.6,621.1,547.5,621.3,547.5z"/>
	<path class="st1" d="M693.5,554.4c-0.2,0-0.4-0.1-0.7-0.2l-6.8-3.5l-6.8,3.5c-0.5,0.2-1.1,0.2-1.6-0.1c-0.4-0.3-0.7-0.9-0.5-1.4
		l1.3-7.6l-5.5-5.4c-0.6-0.5-0.7-1.5,0-2.2c0.2-0.2,0.5-0.4,0.9-0.4l7.6-1.1l3.4-6.9c0.2-0.5,0.8-0.9,1.3-0.9l0,0
		c0.6,0,1.1,0.3,1.3,0.9l3.4,6.9l7.6,1.1c0.6,0.1,1.1,0.4,1.2,1c0.2,0.5,0,1.1-0.3,1.5l-5.5,5.4l1.3,7.6c0.1,0.5-0.1,1.1-0.5,1.4
		C694.2,554.3,693.9,554.4,693.5,554.4z M686.1,547.5c0.2,0,0.4,0.1,0.7,0.2l4.7,2.5l-0.9-5.3c-0.1-0.4,0.1-1,0.4-1.3l3.9-3.7
		l-5.4-0.8c-0.4-0.1-0.9-0.4-1.1-0.9l-2.4-4.8l-2.4,4.8c-0.2,0.4-0.7,0.8-1.1,0.9l-5.4,0.8l3.9,3.7c0.3,0.3,0.5,0.9,0.4,1.3
		l-0.9,5.3l4.7-2.5C685.6,547.6,685.8,547.5,686.1,547.5z"/>
	<path class="st1" d="M696.1,566.7h-15.3c-0.9,0-1.5-0.7-1.5-1.5c0-0.9,0.7-1.5,1.5-1.5l0,0h15.3c0.9,0,1.5,0.7,1.5,1.5
		S697,566.7,696.1,566.7z"/>
	<path class="st1" d="M670.7,566.7h-25.4c-0.9,0-1.5-0.7-1.5-1.5c0-0.9,0.7-1.5,1.5-1.5h25.4c0.9,0,1.5,0.7,1.5,1.5
		S671.5,566.7,670.7,566.7L670.7,566.7L670.7,566.7z"/>
	<path class="st1" d="M635.1,566.7h-24c-0.9,0-1.5-0.7-1.5-1.5c0-0.9,0.7-1.5,1.5-1.5l0,0h24c0.9,0,1.5,0.7,1.5,1.5
		C636.7,566,635.9,566.7,635.1,566.7z"/>
	<path class="st1" d="M696.1,578.8h-35.4c-0.9,0.1-1.5-0.6-1.6-1.4c-0.1-0.9,0.5-1.5,1.4-1.7c0.1,0,0.2,0,0.2,0h35.4
		c0.9-0.1,1.5,0.5,1.6,1.4s-0.5,1.5-1.4,1.7C696.3,578.8,696.2,578.8,696.1,578.8z"/>
	<path class="st1" d="M650.5,578.8h-39.4c-0.9,0.1-1.5-0.6-1.6-1.4c-0.1-0.9,0.5-1.5,1.4-1.7c0.1,0,0.2,0,0.2,0h39.4
		c0.9-0.1,1.5,0.5,1.7,1.4s-0.6,1.5-1.4,1.7C650.8,578.8,650.6,578.8,650.5,578.8z"/>
	<path class="st1" d="M667.8,590.9h-33c-0.9,0-1.5-0.7-1.5-1.5s0.7-1.5,1.5-1.5h33c0.9,0,1.5,0.7,1.5,1.5S668.7,590.9,667.8,590.9z"
		/>
	<path class="st1" d="M624.8,590.9h-13.6c-0.9,0-1.5-0.7-1.5-1.5s0.7-1.5,1.5-1.5l0,0h13.6c0.9,0,1.5,0.7,1.5,1.5
		S625.6,590.9,624.8,590.9L624.8,590.9z"/>
	<circle class="st4" cx="718.7" cy="582.3" r="29.5"/>
	<circle class="st4" cx="636.7" cy="622.8" r="25.3"/>
	<circle class="st4" cx="621.4" cy="532.8" r="42"/>
</g>
<g id="_x30_4">
	<path class="st1" d="M456.3,719.7h-44.4c-3.4,0-6.2-2.8-6.3-6.3v-73.3c0-3.4,2.8-6.2,6.3-6.3h44.4c3.4,0,6.2,2.8,6.3,6.3v73.3
		C462.5,716.8,459.7,719.6,456.3,719.7z M411.8,635.8c-2.3,0-4.3,1.9-4.3,4.3v73.3c0,2.3,1.9,4.3,4.3,4.3h44.4
		c2.3,0,4.3-1.9,4.3-4.3v-73.3c0-2.3-1.9-4.3-4.3-4.3H411.8z"/>
	<path class="st1" d="M458.9,709.1h-49.7c-2,0-3.6-1.7-3.6-3.6l0,0V648c0-2,1.6-3.6,3.6-3.6h49.7c2,0,3.6,1.7,3.6,3.6l0,0v57.5
		C462.5,707.6,460.9,709.1,458.9,709.1L458.9,709.1z M409.2,646.3c-0.9,0-1.6,0.8-1.6,1.7v57.5c0,0.9,0.8,1.7,1.6,1.7h49.7
		c0.9,0,1.6-0.8,1.6-1.7V648c0-0.9-0.8-1.7-1.6-1.7H409.2z"/>
	<path class="st1" d="M440.5,641.1h-13.1c-0.5-0.1-1-0.5-0.9-1.1c0-0.4,0.4-0.9,0.9-0.9h13.1c0.5-0.1,1,0.3,1.1,0.9
		c0.1,0.6-0.3,1-0.9,1.1C440.7,641.1,440.7,641.1,440.5,641.1z"/>
	<path class="st1" d="M421,714.7c-0.3,0-0.7-0.1-0.9-0.3c-0.2-0.2-0.3-0.5-0.3-0.9c0-0.3,0.1-0.7,0.3-0.9c0.5-0.4,1.4-0.4,1.9,0.1
		c0.2,0.2,0.3,0.5,0.3,0.9C422.3,714.2,421.6,714.7,421,714.7L421,714.7z"/>
	<path class="st1" d="M432.7,713.4c0-0.8,0.5-1.3,1.3-1.3l0,0l0,0c0.8,0,1.3,0.5,1.3,1.3l0,0l0,0c0,0.8-0.5,1.3-1.3,1.3l0,0l0,0
		C433.4,714.7,432.7,714.2,432.7,713.4z"/>
	<path class="st1" d="M447.1,714.7c-0.3,0-0.7-0.1-0.9-0.3c-0.2-0.2-0.3-0.5-0.3-0.9c0-0.3,0.1-0.7,0.3-0.9c0.6-0.4,1.3-0.4,1.9,0
		c0.2,0.2,0.3,0.5,0.3,0.9c0,0.3-0.1,0.7-0.3,0.9C447.8,714.6,447.5,714.7,447.1,714.7z"/>
	<circle class="st1" cx="445.8" cy="640.1" r="1.3"/>
	<path class="st1" d="M449.8,701.3h-49.7c-1.3,0-2.3-1-2.3-2.3v-44.4c0-1.2,1-2.3,2.3-2.3l0,0h49.7c1.3,0,2.3,1,2.3,2.3V699
		C452.1,700.3,451,701.3,449.8,701.3z M400.1,654.2c-0.2,0-0.3,0.1-0.3,0.3V699c0,0.2,0.1,0.3,0.3,0.3h49.7c0.2,0,0.3-0.1,0.3-0.3
		l0,0v-44.4c0-0.2-0.1-0.3-0.3-0.3l0,0L400.1,654.2L400.1,654.2z"/>
	<path class="st1" d="M398.7,643.8h-5.3c-0.5,0-1-0.4-1-1c0-0.5,0.4-1,1-1h5.3c0.5,0,1,0.4,1,1C399.7,643.3,399.3,643.8,398.7,643.8
		z"/>
	<path class="st1" d="M396.1,646.3c-0.5,0-1-0.4-1-1l0,0V640c0-0.5,0.4-1,1-1s1,0.4,1,1v5.3C397.1,646,396.7,646.3,396.1,646.3z"/>
	<path class="st1" d="M402.7,713.1h-5.3c-0.5,0-1-0.4-1-1s0.4-1,1-1h5.3c0.5,0,1,0.4,1,1C403.7,712.6,403.3,713.1,402.7,713.1z"/>
	<path class="st1" d="M400.1,715.7c-0.6,0-1-0.4-1-1l0,0v-5.3c0-0.5,0.4-1,1-1c0.5,0,1,0.4,1,1v5.3
		C401.1,715.3,400.6,715.7,400.1,715.7z"/>
	<path class="st1" d="M470.7,702.6h-5.3c-0.6-0.1-1-0.5-0.9-1.1c0-0.4,0.4-0.9,0.9-0.9h5.3c0.6,0.1,1,0.5,0.9,1.1
		C471.6,702.2,471.1,702.6,470.7,702.6z"/>
	<path class="st1" d="M468,705.3c-0.5,0-1-0.4-1-1l0,0V699c0-0.6,0.4-1,1-1s1,0.4,1,1v5.3C469,704.8,468.6,705.3,468,705.3
		L468,705.3z"/>
	<path class="st1" d="M474.6,638.5h-5.3c-0.5-0.1-1-0.6-0.9-1.1c0-0.4,0.4-0.9,0.9-0.9h5.3c0.5,0.1,1,0.5,0.9,1.1
		C475.5,638,475.1,638.5,474.6,638.5z"/>
	<path class="st1" d="M472,641.1c-0.5,0-1-0.4-1-1l0,0v-5.3c-0.1-0.5,0.3-1,0.9-1.1c0.5-0.1,1,0.3,1.1,0.9c0,0.1,0,0.1,0,0.2v5.3
		C473,640.7,472.6,641.1,472,641.1L472,641.1z"/>
	<path class="st1" d="M470.7,652.9h-5.3c-0.6,0-1-0.4-1-1s0.4-1,1-1h5.3c0.6,0,1,0.4,1,1S471.2,652.9,470.7,652.9z"/>
	<path class="st1" d="M468,655.5c-0.5,0-1-0.4-1-1l0,0v-5.3c0-0.5,0.4-1,1-1s1,0.4,1,1v5.3C469,655.1,468.6,655.5,468,655.5
		L468,655.5z"/>
	<path class="st1" d="M458.9,693.5c-5.3,0-10.3-2.5-13.5-6.8H420c-5.4,7.5-15.8,9.1-23.3,3.7c-7.5-5.4-9.1-15.8-3.7-23.3
		s15.8-9.1,23.3-3.7c1.4,1,2.6,2.3,3.7,3.7h25.4c5.4-7.5,15.8-9.1,23.2-3.7c2.2,1.7,4,3.7,5.2,6.3c0.1,0.3,0.1,0.7,0,1
		c-0.2,0.3-0.4,0.4-0.9,0.4h-15.5L454,677l3.4,5.8h15.5c0.5,0,1,0.4,1,1c0,0.1,0,0.3-0.1,0.4C471.1,689.9,465.3,693.5,458.9,693.5z
		 M419.5,684.7h26.4c0.3,0,0.7,0.1,0.8,0.4c4.5,6.7,13.6,8.5,20.4,4c1.6-1.1,3.1-2.6,4.2-4.4h-14.4c-0.3,0-0.7-0.2-0.9-0.4l-4-6.8
		c-0.2-0.3-0.2-0.7,0-1l4-6.8c0.2-0.3,0.6-0.5,0.9-0.5h14.5c-4.3-6.8-13.4-8.9-20.2-4.6c-1.8,1.1-3.2,2.5-4.3,4.2
		c-0.2,0.2-0.4,0.4-0.8,0.4h-26.4c-0.3,0-0.7-0.1-0.8-0.4c-4.5-6.7-13.8-8.5-20.5-4s-8.5,13.8-4,20.5s13.8,8.5,20.5,4
		c1.5-1.1,2.9-2.4,4-4C418.9,684.8,419.2,684.6,419.5,684.7L419.5,684.7z M410.5,684.7h-7.9c-0.3,0-0.7-0.2-0.9-0.4l-4-6.8
		c-0.2-0.3-0.2-0.7,0-1l4-6.8c0.2-0.3,0.5-0.5,0.9-0.5h7.9c0.3,0,0.7,0.2,0.9,0.5l4,6.8c0.2,0.3,0.2,0.7,0,1l-4,6.8
		C411.2,684.5,411,684.6,410.5,684.7L410.5,684.7z M403.3,682.7h6.8l3.4-5.8l-3.4-5.9h-6.8l-3.4,5.8L403.3,682.7z"/>
	<circle class="st4" cx="397.1" cy="665.4" r="20.4"/>
	<circle class="st4" cx="454" cy="637.4" r="17.5"/>
	<circle class="st4" cx="464.5" cy="699.6" r="29.1"/>
</g>
<g id="_x30_1">
	<path class="st1" d="M147.6,347.4H54.9c-3.6,0-6.6-3-6.6-6.6v-87.4c0-3.6,3-6.6,6.6-6.6h106.7c0.8,0,1.3,0.5,1.3,1.3l0,0V332
		C163,340.6,156.1,347.4,147.6,347.4L147.6,347.4z M55,249.5c-2.2,0-4,1.8-4,4v87.4c0,2.2,1.8,4,4,4h92.7c7,0,12.6-5.7,12.6-12.6
		v-82.7L55,249.5z"/>
	<path class="st1" d="M161.7,333.5c-0.8,0-1.3-0.6-1.3-1.3l0,0c0-7-5.7-12.6-12.6-12.6c-0.8,0-1.3-0.5-1.3-1.3l0,0v-83.9
		c0-0.8,0.6-1.3,1.3-1.3l0,0c8.5,0,15.3,6.8,15.3,15.3v83.9C162.9,332.8,162.4,333.5,161.7,333.5L161.7,333.5z M148.9,316.8
		c4.6,0.4,8.8,2.9,11.3,6.7v-75.3c0-6.5-5-12-11.3-12.6V316.8z"/>
	<path class="st1" d="M98.7,307.2c-5.5,0-10-4.5-10-10s4.5-10,10-10s10,4.5,10,10C108.7,302.6,104.3,307.2,98.7,307.2z M98.7,289.7
		c-4.1,0-7.4,3.4-7.4,7.5s3.4,7.4,7.5,7.4s7.4-3.3,7.4-7.5C106.1,293.1,102.8,289.7,98.7,289.7L98.7,289.7z"/>
	<path class="st1" d="M98.7,324.6c-1.5,0-3-0.1-4.5-0.3c-0.6-0.1-1-0.5-1.1-1.1l-1.2-8.1c-0.3-0.1-0.7-0.2-1-0.4l-6.7,4.8
		c-0.4,0.3-1.1,0.3-1.5,0c-2.4-1.8-4.6-3.9-6.4-6.4c-0.3-0.4-0.3-1.1,0-1.5l4.8-6.7c-0.1-0.3-0.3-0.7-0.4-1l-8.1-1.3
		c-0.5-0.1-1-0.6-1.1-1.1c-0.6-3-0.6-5.9,0-8.9c0.1-0.6,0.6-1,1.1-1.1l8.1-1.3c0.1-0.3,0.2-0.7,0.4-1l-4.8-6.7
		c-0.3-0.4-0.3-1.1,0-1.5c1.8-2.4,3.8-4.6,6.4-6.4c0.4-0.3,1.1-0.3,1.5,0l6.7,4.8l1-0.4l1.3-8.1c0.1-0.5,0.6-1,1.1-1.1
		c3-0.4,5.9-0.4,8.9,0c0.6,0.1,1,0.6,1.1,1.1l1.3,8.1c0.3,0.1,0.7,0.2,1,0.4l6.7-4.8c0.4-0.3,1.1-0.3,1.5,0c2.4,1.8,4.6,3.9,6.4,6.4
		c0.3,0.4,0.3,1.1,0,1.5l-4.8,6.7c0.1,0.3,0.3,0.7,0.4,1l8.1,1.3c0.6,0.1,1,0.5,1.1,1.1c0.5,3,0.5,5.9,0,8.9c-0.1,0.5-0.6,1-1.1,1.1
		l-8.1,1.3c-0.1,0.3-0.2,0.7-0.4,1l4.8,6.7c0.3,0.4,0.3,1.1,0,1.5c-1.8,2.4-3.8,4.6-6.4,6.4c-0.4,0.3-1.1,0.3-1.5,0l-6.7-4.8l-1,0.4
		l-1.3,8.1c-0.1,0.6-0.5,1-1.1,1.1C101.6,324.5,100.2,324.6,98.7,324.6z M95.6,321.9c2.1,0.2,4.2,0.2,6.3,0l1.2-7.9
		c0.1-0.4,0.4-0.9,0.9-1c0.8-0.2,1.4-0.5,2.1-0.9c0.4-0.2,1-0.2,1.3,0.1l6.5,4.7c1.6-1.3,3.1-2.8,4.4-4.4l-4.7-6.5
		c-0.3-0.4-0.3-0.9-0.1-1.3c0.3-0.7,0.7-1.4,0.9-2.1c0.1-0.4,0.6-0.8,1-0.9l7.9-1.3c0.3-2.1,0.3-4.2,0-6.3l-7.9-1.2
		c-0.4-0.1-0.9-0.4-1-0.9c-0.2-0.8-0.5-1.4-0.9-2.1c-0.2-0.4-0.2-1,0.1-1.3l4.7-6.5c-1.3-1.7-2.8-3.1-4.4-4.4l-6.5,4.7
		c-0.4,0.3-0.9,0.3-1.3,0.1c-0.7-0.3-1.4-0.7-2.1-0.9c-0.4-0.1-0.8-0.5-0.9-1.1l-1.3-8c-2.1-0.2-4.2-0.2-6.3,0l-1.3,7.9
		c-0.1,0.4-0.4,0.9-0.9,1.1c-0.8,0.2-1.4,0.6-2.1,0.9c-0.4,0.2-1,0.2-1.3-0.1l-6.6-4.7c-1.7,1.3-3.1,2.8-4.4,4.4l4.7,6.5
		c0.3,0.4,0.3,0.9,0.1,1.3c-0.3,0.7-0.7,1.4-0.9,2.1c-0.1,0.4-0.5,0.8-1.1,0.9l-7.9,1.2c-0.1,1-0.2,2.1-0.2,3.1s0.1,2.1,0.2,3.1
		l7.9,1.3c0.4,0.1,0.9,0.4,1.1,0.9c0.2,0.8,0.6,1.4,0.9,2.1c0.2,0.4,0.2,1-0.1,1.3l-4.7,6.5c1.3,1.6,2.8,3.1,4.4,4.4l6.6-4.7
		c0.4-0.3,0.9-0.3,1.3-0.1c0.7,0.3,1.4,0.7,2.1,0.9c0.4,0.1,0.8,0.5,0.9,1L95.6,321.9z M124.5,301.4L124.5,301.4z"/>
	<path class="st1" d="M69,272.2h-7c-0.8,0-1.3-0.6-1.3-1.3c0-0.8,0.6-1.3,1.3-1.3h7c0.8,0,1.3,0.6,1.3,1.3S69.6,272.2,69,272.2z"/>
	<path class="st1" d="M72.5,268.8c-0.8,0-1.3-0.6-1.3-1.3l0,0v-7c0-0.8,0.6-1.3,1.3-1.3s1.3,0.5,1.3,1.3v7
		C73.8,268.1,73.1,268.8,72.5,268.8L72.5,268.8z"/>
	<path class="st1" d="M125,268.8c-0.8,0-1.3-0.6-1.3-1.3l0,0v-7c0.1-0.8,0.7-1.2,1.4-1.2c0.7,0.1,1.1,0.5,1.2,1.2v7
		C126.3,268.1,125.6,268.8,125,268.8L125,268.8z"/>
	<path class="st1" d="M135.4,272.2h-7c-0.8,0-1.3-0.6-1.3-1.3c0-0.8,0.6-1.3,1.3-1.3h7c0.8,0,1.3,0.6,1.3,1.3
		S136.2,272.2,135.4,272.2z"/>
	<path class="st1" d="M135.4,324.6h-7c-0.8,0-1.3-0.5-1.3-1.3s0.6-1.3,1.3-1.3h7c0.8,0,1.3,0.5,1.3,1.3S136.2,324.6,135.4,324.6z"/>
	<path class="st1" d="M125,335.2c-0.8,0-1.3-0.6-1.3-1.3v-7c0.1-0.8,0.7-1.2,1.4-1.2c0.7,0.1,1.1,0.6,1.2,1.2v7
		C126.3,334.7,125.6,335.2,125,335.2L125,335.2z"/>
	<path class="st1" d="M72.5,335.2c-0.8,0-1.3-0.6-1.3-1.3l0,0v-7c0-0.8,0.6-1.3,1.3-1.3s1.3,0.5,1.3,1.3v7
		C73.8,334.7,73.1,335.2,72.5,335.2L72.5,335.2z"/>
	<path class="st1" d="M69,324.6h-7c-0.8,0-1.3-0.5-1.3-1.3s0.6-1.3,1.3-1.3h7c0.8,0,1.3,0.5,1.3,1.3S69.6,324.6,69,324.6z"/>
	<path class="st1" d="M125,331.7H72.5c-0.8,0-1.3-0.6-1.3-1.3c0-0.8,0.6-1.3,1.3-1.3H125c0.8,0,1.3,0.6,1.3,1.3
		S125.6,331.7,125,331.7z"/>
	<path class="st1" d="M65.4,324.6c-0.8,0-1.3-0.5-1.3-1.3l0,0v-52.5c0-0.8,0.5-1.3,1.3-1.3s1.3,0.6,1.3,1.3v52.5
		C66.8,324.1,66.2,324.6,65.4,324.6L65.4,324.6z"/>
	<path class="st1" d="M128.4,242.5c-0.8,0-1.3-0.6-1.3-1.3v-7c-0.1-0.8,0.4-1.3,1.2-1.4c0.8-0.1,1.3,0.4,1.4,1.2c0,0.1,0,0.1,0,0.2
		v7C129.7,241.9,129.1,242.5,128.4,242.5L128.4,242.5z"/>
	<path class="st1" d="M131.9,239h-7c-0.8,0.1-1.3-0.4-1.4-1.2s0.4-1.3,1.2-1.4c0.1,0,0.1,0,0.2,0h7c0.8,0.1,1.2,0.7,1.2,1.4
		C133.1,238.4,132.5,239,131.9,239z"/>
	<circle class="st1" cx="117.9" cy="237.6" r="1.3"/>
	<circle class="st1" cx="112.6" cy="237.6" r="1.3"/>
	<circle class="st1" cx="105.7" cy="237.6" r="1.3"/>
	<circle class="st1" cx="95.1" cy="237.6" r="1.3"/>
	<path class="st1" d="M96.6,261.7H81.2c-0.8-0.1-1.2-0.7-1.2-1.4c0.1-0.7,0.5-1.1,1.2-1.2h15.4c0.8,0.1,1.2,0.7,1.2,1.4
		C97.7,261.2,97.2,261.6,96.6,261.7z"/>
	<path class="st1" d="M107.5,261.7h-3.8c-0.8,0.1-1.3-0.4-1.4-1.2c-0.1-0.8,0.4-1.3,1.2-1.4c0.1,0,0.1,0,0.2,0h3.8
		c0.8,0.1,1.2,0.7,1.2,1.4C108.6,261.2,108,261.6,107.5,261.7z"/>
	<path class="st1" d="M149.4,337h-6.9c-0.8,0.1-1.3-0.4-1.4-1.2c-0.1-0.8,0.4-1.3,1.2-1.4c0.1,0,0.1,0,0.2,0h7
		c0.8,0.1,1.2,0.7,1.2,1.4C150.6,336.4,150,336.9,149.4,337L149.4,337z"/>
	<path class="st1" d="M145.9,340.5c-0.8,0-1.3-0.5-1.3-1.3l0,0v-7c0.1-0.8,0.7-1.2,1.4-1.2c0.7,0.1,1.1,0.5,1.2,1.2v7
		C147.2,339.8,146.6,340.4,145.9,340.5z"/>
	<circle class="st4" cx="150.4" cy="309.6" r="24.8"/>
	<circle class="st4" cx="81.5" cy="343.6" r="21.1"/>
	
		<ellipse transform="matrix(4.531441e-02 -0.999 0.999 4.531441e-02 -202.2377 324.5806)" class="st4" cx="68.7" cy="268.1" rx="35.3" ry="35.3"/>
</g>
</svg>
