<?xml version="1.0" encoding="utf-8"?>
<!-- Generator: Adobe Illustrator 26.0.3, SVG Export Plug-In . SVG Version: 6.00 Build 0)  -->
<svg version="1.1" id="ucer_centric" xmlns="http://www.w3.org/2000/svg" xmlns:xlink="http://www.w3.org/1999/xlink" x="0px"
	 y="0px" viewBox="0 0 1352 800" style="enable-background:new 0 0 1352 800;" xml:space="preserve">
<style type="text/css">
	.st0{fill:none;stroke:#00CC61;stroke-width:7;stroke-miterlimit:10;}
	.st1{fill:#00CC61;}
	.st2{fill:#FFFFFF;}
	.st3{fill:none;stroke:#FFFFFF;stroke-width:3;stroke-miterlimit:10;}
	.st4{opacity:0.2;fill:#FFFFFF;enable-background:new    ;}
</style>
<rect x="315.7" y="50.9" class="st0" width="196.8" height="196.8"/>
<rect x="856" y="28.9" class="st0" width="196.8" height="196.8"/>
<rect x="1151.4" y="194.5" class="st0" width="196.8" height="196.8"/>
<rect x="595.9" y="460.7" class="st0" width="196.8" height="196.8"/>
<rect x="3.8" y="386.5" class="st0" width="238" height="238"/>
<rect x="122.6" y="188.6" class="st0" width="153" height="153"/>
<rect x="838.5" y="597.1" class="st0" width="153" height="153"/>
<rect x="647.5" y="0.3" class="st1" width="84.4" height="84.4"/>
<rect x="401.6" y="284.5" class="st1" width="84.4" height="84.4"/>
<rect x="1127.5" y="419.8" class="st1" width="84.4" height="84.4"/>
<rect x="713.2" y="715.4" class="st1" width="84.4" height="84.4"/>
<rect x="1236.3" y="479.5" class="st2" width="56.2" height="56.2"/>
<rect x="1183.8" y="107" class="st3" width="56.2" height="56.2"/>
<rect x="626.3" y="694" class="st2" width="56.2" height="56.2"/>
<rect x="186.3" y="692.4" class="st3" width="56.2" height="56.2"/>
<rect x="332.1" y="342.6" class="st2" width="56.2" height="56.2"/>
<rect x="749.6" y="58.1" class="st2" width="56.2" height="56.2"/>
<rect x="543.3" y="157.2" class="st0" width="238" height="238"/>
<rect x="287.8" y="429.8" class="st0" width="275.7" height="275.7"/>
<rect x="821.5" y="285" class="st0" width="275.7" height="275.7"/>
<g id="_x30_4">
	<circle class="st4" cx="362.7" cy="572.3" r="35.9"/>
	<circle class="st4" cx="487.5" cy="615.8" r="30.7"/>
	<circle class="st4" cx="470.2" cy="523.6" r="51.3"/>
	<path class="st2" d="M432.8,651.1h-12.3c-3.3,0-6-2.8-6-6v-9.3c-4-0.7-7.8-1.8-11.6-3.1l-4.7,8.1c-0.8,1.4-2.1,2.4-3.6,2.8
		c-1.5,0.4-3.2,0.2-4.6-0.5l-10.7-6.2c-2.9-1.6-3.9-5.4-2.2-8.2l4.7-8.1c-3.1-2.5-5.8-5.4-8.5-8.5l-8.1,4.7
		c-2.9,1.7-6.6,0.7-8.2-2.2l-6.2-10.7c-1.6-2.9-0.7-6.6,2.2-8.2l8.1-4.7c-1.3-3.7-2.4-7.6-3.1-11.4h-9.4c-3.3,0-6-2.8-6-6.1V561
		c0-3.3,2.8-6,6-6h9.4c0.7-4,1.8-7.8,3.1-11.5l-8.1-4.7c-2.9-1.7-3.9-5.4-2.2-8.2l6.2-10.7c1.6-2.9,5.4-3.8,8.2-2.2l8.1,4.7
		c2.5-3.1,5.4-5.8,8.5-8.5l-4.7-8.1c-1.7-2.9-0.7-6.6,2.2-8.2l0,0l10.7-6.2c2.9-1.6,6.6-0.7,8.2,2.2l4.7,8.1
		c3.7-1.3,7.6-2.4,11.6-3.1v-9.3c0-3.3,2.6-6.1,6-6.1h12.3c3.3,0,6.1,2.6,6.1,6.1v9.3c4,0.7,7.8,1.8,11.5,3.1l4.7-8.1
		c1.7-2.9,5.4-3.9,8.2-2.2l10.7,6.2c2.9,1.6,3.9,5.4,2.2,8.2l-4.7,8.1c3.1,2.5,5.8,5.4,8.5,8.5l8.1-4.7c2.9-1.6,6.5-0.7,8.2,2.2l0,0
		l6.2,10.7c1.6,2.9,0.7,6.6-2.2,8.2l-8.1,4.7c1.3,3.7,2.4,7.6,3.1,11.5h9.3c3.3,0,6.1,2.8,6.1,6v12.3c0,3.3-2.6,6.1-6.1,6.1h-9.3
		c-0.7,4-1.8,7.8-3.1,11.5l8.1,4.7c2.9,1.6,3.9,5.4,2.2,8.2l-6.2,10.7c-1.7,2.9-5.4,3.9-8.2,2.2L480,612c-2.5,3.1-5.4,5.8-8.5,8.5
		l4.7,8.1c1.6,2.9,0.7,6.6-2.2,8.2l-10.7,6.2c-2.9,1.7-6.6,0.7-8.2-2.2l-4.7-8.1c-3.7,1.3-7.6,2.4-11.5,3.1v9.4
		C438.9,648.4,436.1,651.1,432.8,651.1z M402.2,628.3c0.2,0,0.4,0,0.7,0.1c4.5,1.8,9.1,3,13.9,3.7c1,0.1,1.6,1,1.6,1.9v11
		c0,1.2,1,2.2,2.2,2.2h12.3c1.2,0,2.2-1,2.2-2.2v-11c0-1,0.7-1.8,1.6-1.9c4.7-0.8,9.5-2,13.9-3.7c0.9-0.3,1.9,0,2.4,0.9l5.5,9.6
		c0.3,0.5,0.8,0.9,1.3,1s1.1,0.1,1.6-0.2l10.7-6.2c1-0.7,1.4-2,0.8-3l-5.5-9.6c-0.4-0.8-0.2-1.9,0.4-2.4c3.7-3,7.1-6.4,10.1-10.1
		c0.6-0.8,1.7-1,2.4-0.4l9.6,5.5c1.1,0.5,2.4,0.2,3-0.8l6.2-10.7c0.5-1,0.2-2.3-0.8-3l-9.6-5.5c-0.8-0.4-1.2-1.4-0.9-2.3
		c1.8-4.5,3-9.1,3.7-13.9c0.1-1,1-1.7,1.9-1.7h11c1.2,0,2.2-1,2.2-2.2v-12.3c0-1.2-1-2.2-2.2-2.2h-11c-1,0-1.8-0.7-1.9-1.6
		c-0.8-4.7-2-9.5-3.7-13.9c-0.3-0.9,0-1.9,0.9-2.4l9.6-5.5c1-0.7,1.4-2,0.8-3l-6.2-10.7c-0.7-1-2-1.4-3-0.8l-9.6,5.5
		c-0.8,0.4-1.9,0.2-2.4-0.4c-3-3.7-6.4-7.2-10.1-10.1c-0.8-0.6-0.9-1.7-0.4-2.4l5.5-9.6c0.5-1,0.2-2.3-0.8-3l-10.7-6.4
		c-1-0.6-2.3-0.2-3,0.8l-5.5,9.6c-0.4,0.8-1.4,1.2-2.4,0.9c-4.5-1.8-9.1-3-13.9-3.7c-1-0.1-1.6-1-1.6-1.9v-11c0-1.2-1-2.2-2.2-2.2
		h-12.3c-1.2,0-2.2,1-2.2,2.2v11c0,1-0.7,1.8-1.7,1.9c-4.7,0.8-9.5,2-13.9,3.7c-0.9,0.3-1.9,0-2.4-0.9l-5.5-9.6c-0.7-1-2-1.4-3-0.8
		l-10.7,6.2c-1,0.7-1.4,2-0.8,3l5.5,9.6c0.4,0.8,0.2,1.9-0.4,2.4c-3.7,3-7.1,6.4-10.1,10.1c-0.5,0.8-1.6,0.9-2.4,0.4l-9.6-5.5
		c-1-0.5-2.3-0.2-3,0.8l-6.2,10.7c-0.6,1-0.2,2.3,0.8,3l9.6,5.5c0.8,0.4,1.2,1.4,0.9,2.4c-1.8,4.5-3,9.1-3.7,13.9
		c-0.1,1-1,1.7-1.9,1.7h-11c-1.2,0-2.2,1-2.2,2.2v12.3c0,1.2,1,2.2,2.2,2.2h11c1,0,1.8,0.7,1.9,1.7c0.8,4.7,2,9.5,3.7,13.9
		c0.3,0.9,0,1.9-0.9,2.3l-9.6,5.5c-1,0.7-1.4,2-0.8,3l6.2,10.7c0.7,1,2,1.4,3,0.8l9.6-5.5c0.8-0.4,1.9-0.3,2.4,0.4
		c3,3.7,6.4,7.2,10.1,10.1c0.8,0.5,0.9,1.7,0.4,2.4l-5.5,9.6c-0.6,1-0.2,2.3,0.8,3l10.7,6.2c1,0.5,2.3,0.2,3-0.8l5.5-9.6
		C400.7,628.7,401.4,628.3,402.2,628.3L402.2,628.3z"/>
	<path class="st2" d="M426.7,576.8c-5.3,0-9.6-4.3-9.7-9.6c0-3.2,1.6-6.3,4.3-8c3.6-2.4,25.7-8.8,28.3-9.5c1-0.3,2.1,0.3,2.4,1.3
		c0.2,0.5,0,1.2-0.3,1.8c-1.6,2.1-16,20-19.6,22.4C430.4,576.2,428.6,576.8,426.7,576.8z M444.8,555.1c-8.8,2.6-19.4,5.9-21.3,7.3
		c-2.6,1.8-3.3,5.4-1.4,8c1.8,2.5,5.3,3.2,7.8,1.5C431.7,570.7,438.9,562.3,444.8,555.1L444.8,555.1z"/>
	<path class="st2" d="M390.8,569.1h-7.7c-1.1,0.1-2-0.7-2.1-1.8s0.7-2,1.8-2.1c0.1,0,0.2,0,0.3,0h7.7c1.1-0.1,2,0.7,2.1,1.8
		s-0.7,2-1.8,2.1C390.9,569.1,390.9,569.1,390.8,569.1z"/>
	<path class="st2" d="M470.2,569.1h-7.7c-1.1,0.1-2-0.7-2.1-1.8s0.7-2,1.8-2.1c0.1,0,0.2,0,0.3,0h7.7c1.1-0.1,2,0.7,2.1,1.8
		s-0.7,2-1.8,2.1C470.5,569.1,470.4,569.1,470.2,569.1z"/>
	<path class="st2" d="M426.7,533.2c-1.1,0-1.9-0.9-1.9-1.9v-7.7c-0.1-1.1,0.7-2,1.8-2.1c1.1-0.1,2,0.7,2.1,1.8c0,0.1,0,0.2,0,0.3
		v7.7C428.6,532.3,427.8,533.2,426.7,533.2L426.7,533.2z"/>
	<path class="st2" d="M452,543.8c-1.1,0-2-0.9-2-1.9c0-0.5,0.2-1,0.5-1.4l5.4-5.4c0.8-0.7,2-0.7,2.8,0.2c0.7,0.8,0.7,1.9,0,2.5
		l-5.4,5.4C453,543.6,452.5,543.8,452,543.8z"/>
	<path class="st2" d="M401.3,543.8c-0.5,0-1-0.2-1.3-0.5l-5.4-5.4c-0.7-0.8-0.7-2,0.2-2.8c0.8-0.7,1.9-0.7,2.5,0l5.4,5.4
		c0.8,0.8,0.8,2,0,2.8C402.4,543.6,401.8,543.8,401.3,543.8L401.3,543.8z"/>
	<path class="st2" d="M466.9,585.8c-0.2,0-0.5,0-0.8-0.1l-7.1-3c-1-0.4-1.4-1.5-1-2.5s1.5-1.4,2.5-1l7.1,3c1,0.4,1.4,1.5,1,2.5
		C468.4,585.4,467.7,585.8,466.9,585.8L466.9,585.8z"/>
	<path class="st2" d="M393.6,555.4c-0.2,0-0.6,0-0.8-0.1l-7.1-3c-1-0.4-1.4-1.5-1-2.5s1.5-1.4,2.5-1l7.1,3c1,0.4,1.4,1.5,1,2.5
		C395,554.9,394.3,555.3,393.6,555.4L393.6,555.4z"/>
	<path class="st2" d="M459.8,555.4c-1.1,0-1.9-0.9-1.9-2c0-0.8,0.4-1.4,1.2-1.8l7.1-3c1-0.4,2.1,0.1,2.5,1c0.4,1-0.1,2.1-1,2.5
		l-7.1,3C460.3,555.3,460,555.4,459.8,555.4z"/>
	<path class="st2" d="M386.4,585.8c-1.1,0-1.9-0.9-1.9-2c0-0.8,0.4-1.4,1.2-1.8l7.1-3c1-0.4,2.1,0.1,2.5,1c0.4,1-0.1,2.1-1,2.5
		l-7.1,3C387,585.7,386.6,585.8,386.4,585.8z"/>
	<path class="st2" d="M440.4,536c-0.2,0-0.5,0-0.8-0.1c-1-0.3-1.5-1.5-1.1-2.5l0,0l3-7.2c0.4-1,1.6-1.3,2.5-0.9
		c0.9,0.4,1.3,1.4,1,2.3l-3,7.2C441.9,535.5,441.1,536,440.4,536z"/>
	<path class="st2" d="M412.9,536c-0.8,0-1.4-0.4-1.8-1.2l-3-7c-0.4-1,0.1-2.1,1.1-2.5s2.1,0.1,2.5,1l0,0l3,7.2c0.4,1,0,2.1-1,2.5
		C413.5,536,413.2,536,412.9,536L412.9,536z"/>
	<path class="st2" d="M455.6,620.3h-56.3c-2.5,0-4.5-2-4.5-4.5l0,0v-7.7c0-2.5,2-4.5,4.5-4.5l0,0h56.3c2.4,0,4.5,2,4.5,4.5v7.7
		C460,618.4,458,620.3,455.6,620.3z M399.2,607.6c-0.3,0-0.7,0.3-0.7,0.7v7.7c0,0.3,0.3,0.7,0.7,0.7h56.3c0.3,0,0.7-0.3,0.7-0.7l0,0
		v-7.7c0-0.3-0.3-0.7-0.7-0.7H399.2z"/>
	<path class="st2" d="M437.7,620.3h-20.5c-1.1,0-2-0.9-2-2v-12.8c0-1.1,0.9-2,2-2h20.5c1.1,0,1.9,0.9,1.9,1.9l0,0v12.8
		C439.6,619.5,438.7,620.3,437.7,620.3L437.7,620.3z M419.1,616.5h16.6v-9h-16.6V616.5z"/>
	<path class="st2" d="M469.4,597.3H384c-0.7,0-1.2-0.3-1.7-0.9c-16.3-24.4-9.6-57.4,14.9-73.7c24.4-16.3,57.4-9.6,73.7,14.8
		c11.9,17.8,11.9,41,0,58.9C470.6,597,470,597.3,469.4,597.3z M385,593.5h83.3c14.6-23,7.7-53.5-15.3-68.1
		c-23-14.6-53.5-7.7-68.1,15.3C374.8,556.8,374.8,577.3,385,593.5z"/>
	<path class="st2" d="M503.5,513.5c-3.9,0-7-3.2-7-7s3.2-7,7-7s7,3.2,7,7l0,0C510.5,510.3,507.4,513.5,503.5,513.5z M503.5,503.3
		c-1.8,0-3.2,1.4-3.2,3.2s1.4,3.2,3.2,3.2c1.8,0,3.2-1.4,3.2-3.2l0,0C506.7,504.7,505.2,503.3,503.5,503.3z"/>
	<path class="st2" d="M490.7,636.5c-3.9,0-7-3.2-7-7c0-3.9,3.2-7,7-7s7,3.2,7,7l0,0C497.7,633.3,494.6,636.5,490.7,636.5z
		 M490.7,626.3c-1.8,0-3.2,1.4-3.2,3.2s1.4,3.2,3.2,3.2c1.8,0,3.2-1.4,3.2-3.2l0,0C493.9,627.7,492.5,626.3,490.7,626.3z"/>
	<path class="st2" d="M367.7,651.1c-3.9,0-7-3.2-7-7s3.2-7,7-7s7,3.2,7,7l0,0C374.8,647.9,371.6,651.1,367.7,651.1z M367.7,640.8
		c-1.8,0-3.2,1.4-3.2,3.2s1.4,3.2,3.2,3.2s3.2-1.4,3.2-3.2l0,0C370.9,642.2,369.5,640.8,367.7,640.8L367.7,640.8z"/>
	<path class="st2" d="M355,635.7c-3.9,0-7-3.2-7-7c0-3.9,3.2-7,7-7s7,3.2,7,7l0,0C362,632.5,358.8,635.7,355,635.7z M355,625.5
		c-1.8,0-3.2,1.4-3.2,3.2s1.4,3.2,3.2,3.2c1.8,0,3.2-1.4,3.2-3.2l0,0C358.2,626.9,356.7,625.5,355,625.5z"/>
	<path class="st2" d="M488.2,498.1c-3.8,0-7-3.2-7-7s3.2-7,7-7c3.9,0,7,3.2,7,7S492,498.1,488.2,498.1z M488.2,487.9
		c-1.8,0-3.2,1.4-3.2,3.2s1.4,3.2,3.2,3.2c1.8,0,3.2-1.4,3.2-3.2C491.4,489.3,489.9,487.9,488.2,487.9L488.2,487.9z"/>
	<path class="st2" d="M349.8,516.1c-3.9,0-7-3.2-7-7s3.2-7,7-7s7,3.2,7,7C356.8,512.9,353.6,516.1,349.8,516.1z M349.8,505.8
		c-1.8,0-3.2,1.4-3.2,3.2s1.4,3.2,3.2,3.2c1.8,0,3.2-1.4,3.2-3.2l0,0C353,507.2,351.6,505.8,349.8,505.8L349.8,505.8z"/>
	<path class="st2" d="M430.4,589.6h-19.9c-1.1,0.1-2-0.7-2.1-1.8s0.7-2,1.8-2.1c0.1,0,0.2,0,0.3,0h19.9c1.1,0.1,1.9,1,1.8,2.1
		C432.2,588.8,431.4,589.5,430.4,589.6z"/>
	<path class="st2" d="M446.4,589.6h-5.7c-1.1-0.1-1.9-1-1.8-2.1c0.1-1,0.9-1.7,1.8-1.8h5.7c1.1-0.1,2,0.7,2.1,1.8s-0.7,2-1.8,2.1
		C446.6,589.6,446.5,589.6,446.4,589.6z"/>
</g>
<g id="_x30_8">
	<circle class="st4" cx="968.3" cy="366" r="36.5"/>
	
		<ellipse transform="matrix(0.1602 -0.9871 0.9871 0.1602 410.9764 1381.0449)" class="st4" cx="1017.1" cy="449" rx="29.3" ry="29.3"/>
	<circle class="st4" cx="922" cy="468.4" r="53.7"/>
	<path class="st2" d="M878,475.1c-0.3,0-0.5-0.1-0.8-0.2c-0.7-0.3-1-1-1-1.6v-70.7c0-29.3,23.8-53,53-53c29.3,0,53,23.8,53,53
		s-23.8,53-53,53c-6.6,0-13.2-1.2-19.4-3.6l-30.7,22.9C878.9,475,878.5,475.1,878,475.1z M929.3,353.2c-27.3,0-49.4,22.1-49.4,49.4
		v67.1l28.6-21.2c0.5-0.4,1.2-0.4,1.8-0.2c25.2,10.5,54.1-1.4,64.6-26.6s-1.4-54.1-26.6-64.6C942.3,354.5,935.8,353.2,929.3,353.2
		L929.3,353.2z"/>
	<path class="st2" d="M956.1,470.1c-0.4,0-0.9-0.2-1.3-0.5c-0.3-0.3-0.6-0.8-0.6-1.3v-8c0-7.3-2.9-14.3-8-19.4
		c-21.2-20.2-22-53.8-1.8-74.9c20.2-21.2,53.8-22,74.9-1.8c21.2,20.1,22.2,53.6,2.1,74.8c-0.4,0.5-1,1-1.5,1.5
		c-5.3,5-8.4,11.9-8.5,19.2v6.5c0,1-0.8,1.8-1.8,1.9L956.1,470.1L956.1,470.1z M983,353.2c-0.9,0-1.9,0-2.8,0.1
		c-27.2,1.4-48.1,24.8-46.6,51.9c0.7,12.5,6.1,24.3,15.1,32.9c5.9,5.8,9.2,13.8,9.1,22v6.2l49.9-1.9v-4.7c0.1-8.2,3.5-16.2,9.6-21.8
		c19.5-19,19.8-50.3,0.8-69.9C1008.9,358.5,996.3,353.2,983,353.2L983,353.2z M1009.8,466.2L1009.8,466.2z"/>
	<path class="st2" d="M995.6,509.2h-25.3c-6.2,0-11.1-4.9-11.1-11.1v-0.9c0-1,0.8-1.8,1.8-1.9l43.9-1.7c0.5,0,1,0.1,1.3,0.6
		c0.3,0.3,0.5,0.8,0.5,1.3v2.5C1006.7,504.3,1001.8,509.2,995.6,509.2z M962.8,499.1c0.4,3.7,3.6,6.5,7.4,6.6h25.3
		c4.1,0,7.5-3.3,7.5-7.5v-0.7L962.8,499.1z"/>
	<path class="st2" d="M951.2,470.3c-1-0.1-1.8-0.9-1.8-2c0-0.9,0.8-1.6,1.7-1.8l63.4-2.4h0.1c1,0.1,1.8,0.9,1.8,2
		c0,0.9-0.8,1.6-1.7,1.8L951.2,470.3L951.2,470.3z"/>
	<path class="st2" d="M951.2,480c-1,0-1.9-0.8-1.9-1.8s0.8-1.9,1.8-1.9l63.4-2.4h0.1c1,0.1,1.8,0.9,1.8,2c0,0.9-0.8,1.6-1.7,1.8
		L951.2,480L951.2,480z"/>
	<path class="st2" d="M951.2,489.8c-1,0-1.9-0.8-1.9-1.8s0.8-1.9,1.8-1.9l63.4-2.4h0.1c1,0,1.9,0.8,1.9,1.8s-0.8,1.9-1.8,1.9
		L951.2,489.8L951.2,489.8z"/>
	<path class="st2" d="M951.2,499.5c-1,0-1.9-0.8-1.9-1.8s0.8-1.9,1.8-1.9l63.4-2.4h0.1c1,0,1.9,0.8,1.9,1.8s-0.8,1.9-1.8,1.9
		L951.2,499.5L951.2,499.5z"/>
	<path class="st2" d="M954.9,499.3c-1,0-1.9-0.8-1.9-1.9l0,0v-9.8c0-1,0.8-1.8,1.8-1.9l56.1-2.2c0.5,0,1,0.1,1.3,0.5
		c0.3,0.3,0.5,0.8,0.5,1.3v9.8c0,1-0.8,1.8-1.8,1.9L954.9,499.3L954.9,499.3z M956.7,489.5v6.1l52.5-2v-6.1L956.7,489.5z"/>
	<path class="st2" d="M954.9,489.6c-1,0-1.9-0.8-1.9-1.9l0,0V478c0-1,0.8-1.8,1.8-1.9l56.1-2.2c0.5,0,1,0.1,1.3,0.5
		c0.3,0.3,0.5,0.8,0.5,1.3v9.8c0,1-0.8,1.8-1.8,1.9L954.9,489.6L954.9,489.6z M956.7,479.9v6l52.5-2v-6.1L956.7,479.9z"/>
	<path class="st2" d="M954.9,479.9c-0.4,0-0.9-0.2-1.3-0.6c-0.3-0.3-0.5-0.8-0.5-1.3v-9.7c0-1,0.8-1.8,1.8-1.9l56.1-2.2
		c0.5,0,1,0.1,1.3,0.5c0.3,0.3,0.5,0.8,0.5,1.3v9.8c0,1-0.8,1.8-1.8,1.9L954.9,479.9L954.9,479.9z M956.7,470.1v6.1l52.5-2v-6
		L956.7,470.1z"/>
	<path class="st2" d="M965.9,469.7c-1,0-1.8-0.8-1.9-1.8l0,0v-58c0-1,0.8-1.9,1.9-1.9l0,0h34.1c1,0,1.9,0.8,1.9,1.9v56.6
		c0,1-0.8,1.8-1.8,1.9L965.9,469.7L965.9,469.7z M1000,466.5L1000,466.5z M967.7,411.8V466l30.5-1.2v-53H967.7L967.7,411.8z"/>
	<path class="st2" d="M1000,411.8h-34.1c-1,0-1.9-0.8-1.9-1.9c0-0.3,0.1-0.8,0.3-1.1l17-24.4c0.7-0.9,1.9-1,2.6-0.3
		c0.1,0.1,0.2,0.2,0.3,0.3l17.2,24.5c0.5,0.9,0.3,2-0.4,2.5C1000.8,411.7,1000.4,411.8,1000,411.8L1000,411.8z M969.4,408h27.2
		l-13.5-19.4L969.4,408z"/>
	<path class="st2" d="M983,469.1c-1,0-1.9-0.8-1.9-1.9v-57.3c0.1-1,1-1.8,2-1.6c0.9,0.1,1.7,0.8,1.7,1.6v57.3
		C984.7,468.2,983.9,469.1,983,469.1L983,469.1z"/>
	<path class="st2" d="M921.9,404.4h-31.8c-1-0.1-1.8-1-1.7-2c0.1-0.9,0.8-1.6,1.7-1.6h31.8c1-0.1,1.9,0.7,2,1.6c0.1,1-0.7,1.9-1.6,2
		C922.1,404.4,922,404.4,921.9,404.4z"/>
	<path class="st2" d="M923,392.2h-15.5c-1,0-1.9-0.8-1.9-1.9s0.8-1.9,1.9-1.9H923c1,0,1.9,0.8,1.9,1.9S924.1,392.2,923,392.2z"/>
	<path class="st2" d="M900.1,392.2h-8c-1,0-1.9-0.8-1.9-1.9s0.8-1.9,1.9-1.9h8c1,0,1.9,0.8,1.9,1.9S901.2,392.2,900.1,392.2z"/>
	<path class="st2" d="M926.9,380.1h-29.3c-1-0.1-1.8-1-1.7-2c0.1-0.9,0.8-1.6,1.7-1.6h29.3c1,0.1,1.8,1,1.7,2
		C928.5,379.2,927.7,380,926.9,380.1z"/>
	<path class="st2" d="M923,416.6h-10.7c-1,0-1.9-0.8-1.9-1.9s0.8-1.9,1.9-1.9H923c1,0,1.9,0.8,1.9,1.9S924.1,416.6,923,416.6z"/>
	<path class="st2" d="M905.1,416.6h-15c-1,0-1.9-0.8-1.9-1.9s0.8-1.9,1.9-1.9h15c1,0,1.9,0.8,1.9,1.9S906.1,416.6,905.1,416.6z"/>
	<path class="st2" d="M926.9,428.8h-19.4c-1,0.1-1.9-0.7-2-1.6c-0.1-1,0.7-1.9,1.7-2c0.1,0,0.2,0,0.3,0h19.4c1,0.1,1.8,1,1.7,2
		C928.5,428,927.7,428.7,926.9,428.8z"/>
	<path class="st2" d="M900.1,428.8h-10c-1-0.1-1.8-1-1.7-2c0.1-0.9,0.8-1.6,1.7-1.6h10c1-0.1,1.9,0.7,2,1.6c0.1,1-0.7,1.9-1.6,2
		C900.3,428.8,900.2,428.8,900.1,428.8z"/>
	<path class="st2" d="M1005.7,372.8c-0.4,0-0.8-0.1-1.1-0.3c-2.6-1.9-5.5-3.5-8.6-4.6c-1-0.3-1.4-1.3-1.2-2.3c0.3-1,1.3-1.4,2.3-1.2
		c0,0,0.1,0,0.1,0.1c3.4,1.3,6.6,3,9.5,5.1c0.8,0.5,1,1.8,0.4,2.5C1006.8,372.5,1006.3,372.8,1005.7,372.8L1005.7,372.8z"/>
	<path class="st2" d="M1016.8,423.6c-0.3,0-0.7-0.1-0.9-0.2c-0.9-0.6-1.2-1.6-0.7-2.5c7.6-13.4,6.2-30-3.6-41.9
		c-0.5-0.9-0.4-2,0.4-2.5c0.8-0.6,1.8-0.4,2.4,0.2c10.7,13.1,12.3,31.4,4,46.1C1018.2,423.3,1017.5,423.6,1016.8,423.6z"/>
	<path class="st2" d="M906.1,475.6h-3.6c-1,0-1.9-0.8-1.9-1.9s0.8-1.9,1.9-1.9h3.6c1,0,1.9,0.8,1.9,1.9
		C907.9,474.8,907.1,475.6,906.1,475.6L906.1,475.6z"/>
	<path class="st2" d="M918.2,475.6h-3.6c-1,0-1.9-0.8-1.9-1.9s0.8-1.9,1.9-1.9h3.6c1,0,1.9,0.8,1.9,1.9
		C920,474.8,919.3,475.6,918.2,475.6z"/>
	<path class="st2" d="M910.2,483.5c-1,0-1.9-0.8-1.9-1.9V478c0.1-1,1-1.8,2-1.6c0.9,0.1,1.7,0.8,1.7,1.6v3.6
		C912.1,482.6,911.2,483.5,910.2,483.5z"/>
	<path class="st2" d="M910.2,471.3c-1,0-1.9-0.8-1.9-1.9l0,0v-3.6c0.1-1,1-1.8,2-1.7c0.9,0.1,1.7,0.8,1.7,1.7v3.6
		C912.1,470.4,911.3,471.3,910.2,471.3L910.2,471.3z"/>
	<path class="st2" d="M927.6,496.5H924c-1-0.1-1.8-1-1.6-2c0.1-0.9,0.8-1.6,1.6-1.6h3.6c1,0.1,1.8,1,1.7,2
		C929.3,495.7,928.5,496.4,927.6,496.5z"/>
	<path class="st2" d="M939.8,496.5h-3.6c-1-0.1-1.8-1-1.6-2c0.1-0.9,0.8-1.6,1.6-1.6h3.6c1-0.1,1.9,0.7,2,1.6c0.1,1-0.7,1.9-1.6,2
		C940.1,496.5,939.9,496.5,939.8,496.5z"/>
	<path class="st2" d="M931.9,504.4c-1,0-1.9-0.8-1.9-1.8l0,0V499c0.1-1,1-1.8,2-1.6c0.9,0.1,1.6,0.8,1.6,1.6v3.6
		C933.7,503.6,932.9,504.4,931.9,504.4z"/>
	<path class="st2" d="M931.9,492.2c-1,0-1.9-0.8-1.9-1.9l0,0v-3.6c0.1-1,1-1.8,2-1.6c0.9,0.1,1.6,0.8,1.6,1.6v3.6
		C933.7,491.4,932.9,492.2,931.9,492.2z"/>
	<path class="st2" d="M1034.1,504.4h-9.8c-1,0-1.9-0.8-1.9-1.9s0.8-1.9,1.9-1.9h9.8c1,0,1.9,0.8,1.9,1.9S1035.1,504.4,1034.1,504.4z
		"/>
	<path class="st2" d="M1029.3,509.2c-1,0-1.9-0.8-1.9-1.9l0,0v-9.8c0-1,0.8-1.9,1.9-1.9c1,0,1.9,0.8,1.9,1.9l0,0v9.8
		C1031.1,508.5,1030.3,509.2,1029.3,509.2L1029.3,509.2z"/>
	<circle class="st2" cx="1029.3" cy="488" r="1.9"/>
	<circle class="st2" cx="1029.3" cy="480.6" r="1.9"/>
	<circle class="st2" cx="1029.3" cy="470.8" r="1.9"/>
	<circle class="st2" cx="1029.3" cy="456.2" r="1.9"/>
</g>
<g id="_x30_1">
	<circle class="st4" cx="106.6" cy="453.5" r="30.6"/>
	<circle class="st4" cx="185.1" cy="512.4" r="26.2"/>
	
		<ellipse transform="matrix(3.327794e-02 -0.9994 0.9994 3.327794e-02 -460.7459 605.2576)" class="st4" cx="82.5" cy="540.8" rx="43.7" ry="43.7"/>
	<path class="st2" d="M193.9,544.5H54.2c-0.9,0-1.6-0.8-1.6-1.6v-89.5c0-4.5,3.6-8.1,8.1-8.2h126.6c4.5,0,8.1,3.6,8.2,8.2v89.5
		C195.6,543.9,194.8,544.5,193.9,544.5L193.9,544.5z M55.8,541.2h136.5v-87.9c0-2.8-2.2-5-5-5l0,0H60.7c-2.8,0-5,2.2-5,5L55.8,541.2
		L55.8,541.2z"/>
	<path class="st2" d="M152.3,570.8H95.6c-0.9,0-1.7-0.8-1.7-1.7c0-0.3,0.1-0.7,0.2-0.9l8.7-13.1c0.3-0.4,0.8-0.8,1.3-0.8h39.5
		c0.6,0,1.1,0.3,1.3,0.8l8.7,13.1c0.3,0.5,0.3,1.1,0.1,1.6C153.6,570.5,153,570.8,152.3,570.8z M98.7,567.5h50.7l-6.5-9.8h-37.7
		L98.7,567.5z"/>
	<path class="st2" d="M167.7,570.8H80.4c-0.9,0-1.7-0.8-1.7-1.7s0.8-1.6,1.7-1.6h87.3c0.9,0,1.7,0.8,1.7,1.6
		C169.4,570.1,168.6,570.8,167.7,570.8L167.7,570.8z"/>
	<circle class="st2" cx="124" cy="549.5" r="1.6"/>
	<path class="st2" d="M187.3,557.6H60.7c-4.5,0-8.1-3.6-8.1-8.2v-6.6c0-0.9,0.8-1.7,1.6-1.7h139.7c0.9,0,1.6,0.8,1.6,1.7v6.6
		C195.5,554,191.8,557.6,187.3,557.6z M55.8,544.5v5c0,2.8,2.2,5,5,5h126.6c2.8,0,5-2.2,5-5v-5H55.8z"/>
	<path class="st2" d="M108.8,505.3c-0.9,0-1.6-0.8-1.6-1.6c0-0.6,0.3-1.1,0.8-1.3c15.6-10,24-21.4,26.7-26c0.2-0.4,0.7-0.7,1.2-0.8
		c0.4-0.1,1,0.1,1.3,0.4c2,2,4,4,4.9,4.9c0.2,0.2,0.3,0.6,0.4,0.8c1.3,6.9-2.1,13.2-9.4,17.5C123.6,505,109.3,505.3,108.8,505.3
		L108.8,505.3z M136.3,479.8c-5.9,8.5-13.2,15.8-21.4,21.8c4.8-0.7,11.6-2,16.7-5.1c4.2-2.5,8.9-6.9,7.9-13.6
		C138.6,482.1,137.5,481,136.3,479.8L136.3,479.8z"/>
	<path class="st2" d="M108.8,505.3c-0.3,0-0.5-0.1-0.8-0.2c-0.5-0.3-0.9-0.9-0.9-1.4c0.2-5.1,0.9-10.1,2.2-15
		c3.7-13.8,11.4-20.6,21.3-18.7c0.3,0,0.7,0.2,0.9,0.4l3.1,3l2.6,2.6c0.6,0.5,0.7,1.4,0.2,2.1c-3,4.6-11.6,16.6-27.7,26.9
		C109.3,505.2,109,505.3,108.8,505.3z M127.5,472.9c-9.1,0-13.3,10.1-15.1,16.6l0,0c-1,3.6-1.5,7.3-1.9,11c9.1-6.2,17-14,23.3-23.1
		l-1.8-1.6l-2.6-2.6C128.8,472.9,128.1,472.9,127.5,472.9L127.5,472.9z M110.9,489.1L110.9,489.1z"/>
	<path class="st2" d="M149.7,476.7c-0.4,0-0.9-0.2-1.1-0.4L136.2,464c-0.6-0.5-0.7-1.5-0.1-2.2c10.8-12.9,31.5-34.4,47-33.9
		c0.9,0,1.5,0.8,1.5,1.5c0.6,15.6-21,36.2-33.9,47C150.5,476.7,150,476.8,149.7,476.7z M139.5,462.6l10.2,10.2
		c19.4-16.5,30.8-31.6,31.6-41.8C171,431.9,156,443.2,139.5,462.6L139.5,462.6z"/>
	<path class="st2" d="M140.9,483.7c-0.4,0-0.9-0.2-1.1-0.4l-10.6-10.6c-0.6-0.6-0.7-1.4-0.1-2.1c0,0,2.8-3.7,7-8.9
		c0.3-0.3,0.8-0.6,1.2-0.6s0.9,0.1,1.2,0.4L151,474c0.3,0.3,0.6,0.8,0.4,1.2c0,0.4-0.2,0.9-0.6,1.2c-5.2,4.3-8.8,7-8.9,7
		C141.6,483.6,141.2,483.7,140.9,483.7z M132.4,471.3l8.6,8.6c1.2-1,3.4-2.6,6.2-5l-9.9-9.9C135.2,467.9,133.4,470.1,132.4,471.3
		L132.4,471.3z"/>
	<path class="st2" d="M174.2,531.5H100c-8.1,0-14.7-6.6-14.7-14.7S91.8,502,100,502h8.7c0.9,0,1.6,0.8,1.6,1.7
		c0,0.9-0.8,1.6-1.6,1.6H100c-6.4,0-11.4,5.2-11.4,11.4c0,6.4,5.2,11.4,11.4,11.4l0,0h74.2c4,0,7.2-3.2,7.2-7c0-4-3.2-7.1-7-7.1l0,0
		h-17.6c-5.7,0-10.3-4.7-10.3-10.5c0-5.7,4.7-10.3,10.5-10.3l0,0h17.5c4,0,7-3.2,7.1-7.1c0-4-3.2-7.1-7-7.1l0,0h-11.1
		c-0.9,0-1.7-0.8-1.7-1.7c0-0.9,0.8-1.6,1.7-1.6l0,0h10.9c5.7,0,10.3,4.6,10.3,10.3c0,5.7-4.6,10.3-10.3,10.3h-17.5
		c-4,0-7.1,3.2-7.1,7c0,4,3.2,7.2,7,7.2l0,0h17.5c5.7,0,10.3,4.6,10.3,10.3C184.6,526.8,180,531.5,174.2,531.5z"/>
	<path class="st2" d="M73.8,470.4h-8.7c-2.1,0-3.9-1.8-3.9-3.9v-8.7c0-2.1,1.8-3.9,3.9-3.9h8.7c2.1,0,3.8,1.8,3.8,3.9l0,0v8.7
		C77.7,468.6,75.9,470.4,73.8,470.4z M65,457.2c-0.3,0-0.6,0.2-0.6,0.5l0,0v8.7c0,0.3,0.2,0.5,0.6,0.5h8.7c0.3,0,0.5-0.2,0.5-0.5
		l0,0v-8.7c0-0.3-0.2-0.5-0.5-0.5H65z"/>
	<path class="st2" d="M73.8,492.2h-8.7c-2.1,0-3.9-1.8-3.9-3.9v-8.7c0-2.1,1.8-3.8,3.9-3.8h8.7c2.1,0,3.8,1.8,3.8,3.8l0,0v8.7
		C77.7,490.4,75.9,492.2,73.8,492.2z M65,479.1c-0.3,0-0.6,0.2-0.6,0.5l0,0v8.7c0,0.3,0.2,0.5,0.6,0.5h8.7c0.3,0,0.5-0.2,0.5-0.5
		l0,0v-8.7c0-0.3-0.2-0.5-0.5-0.5H65z"/>
	<path class="st2" d="M73.8,514h-8.7c-2.1,0-3.9-1.8-3.9-3.9l0,0v-8.7c0-2.1,1.8-3.9,3.9-3.9h8.7c2.1,0,3.8,1.8,3.8,3.9v8.7
		C77.7,512.3,75.9,514,73.8,514L73.8,514z M65,500.9c-0.3,0-0.6,0.2-0.6,0.5v8.7c0,0.3,0.2,0.5,0.6,0.5h8.7c0.3,0,0.5-0.2,0.5-0.5
		v-8.7c0-0.3-0.2-0.5-0.5-0.5H65z"/>
	<path class="st2" d="M73.8,535.9h-8.7c-2.1,0-3.9-1.8-3.9-3.8v-8.7c0-2.1,1.8-3.8,3.9-3.8h8.7c2.1,0,3.8,1.8,3.8,3.8v8.7
		C77.7,534.2,75.9,535.9,73.8,535.9z M65,522.8c-0.3,0-0.6,0.2-0.6,0.5v8.7c0,0.3,0.2,0.5,0.6,0.5l0,0h8.7c0.3,0,0.5-0.2,0.5-0.5
		v-8.7c0-0.3-0.2-0.5-0.5-0.5l0,0H65z"/>
	<path class="st2" d="M137.9,439.8c-0.9,0-1.7-0.8-1.7-1.6v-8.7c0-0.9,0.8-1.6,1.7-1.6s1.6,0.8,1.6,1.6v8.7
		C139.6,439,138.9,439.8,137.9,439.8L137.9,439.8z"/>
	<path class="st2" d="M142.3,435.4h-8.7c-0.9,0-1.7-0.8-1.7-1.6c0-0.9,0.8-1.6,1.7-1.6h8.7c0.9,0,1.6,0.8,1.6,1.6
		C144,434.6,143.2,435.4,142.3,435.4z"/>
	<circle class="st2" cx="124.8" cy="433.8" r="1.6"/>
	<circle class="st2" cx="118.2" cy="433.8" r="1.6"/>
	<circle class="st2" cx="109.6" cy="433.8" r="1.6"/>
	<circle class="st2" cx="96.5" cy="433.8" r="1.6"/>
	<path class="st2" d="M90.2,488.3h-3.3c-0.9,0-1.7-0.8-1.7-1.6s0.8-1.6,1.7-1.6h3.3c0.9,0,1.7,0.8,1.7,1.6S91.1,488.3,90.2,488.3z"
		/>
	<path class="st2" d="M101.1,488.3h-3.3c-0.9,0-1.6-0.8-1.6-1.6s0.8-1.6,1.6-1.6h3.3c0.9,0,1.7,0.8,1.7,1.6S102,488.3,101.1,488.3z"
		/>
	<path class="st2" d="M94,495.5c-0.9,0-1.7-0.8-1.7-1.6v-3.3c0-0.9,0.8-1.7,1.7-1.7s1.7,0.8,1.7,1.7l0,0v3.3
		C95.7,494.7,94.9,495.5,94,495.5L94,495.5z"/>
	<path class="st2" d="M94,484.6c-0.9,0-1.7-0.8-1.7-1.6v-3.3c0-0.9,0.8-1.6,1.7-1.6s1.7,0.8,1.7,1.6v3.3
		C95.7,483.8,94.9,484.6,94,484.6L94,484.6z"/>
	<path class="st2" d="M103.3,464.4H100c-0.9,0-1.7-0.8-1.7-1.6c0-0.9,0.8-1.7,1.7-1.7h3.3c0.9,0,1.7,0.8,1.7,1.7
		C104.9,463.6,104.2,464.4,103.3,464.4z"/>
	<path class="st2" d="M114.2,464.4h-3.3c-0.9,0-1.7-0.8-1.7-1.6c0-0.9,0.8-1.7,1.7-1.7h3.3c0.9,0,1.6,0.8,1.6,1.7
		C115.8,463.6,115.1,464.4,114.2,464.4z"/>
	<path class="st2" d="M107.1,471.4c-0.9,0-1.7-0.8-1.7-1.6v-3.3c0-0.9,0.8-1.7,1.7-1.7c0.9,0,1.6,0.8,1.6,1.7l0,0v3.3
		C108.8,470.7,108,471.4,107.1,471.4L107.1,471.4z"/>
	<path class="st2" d="M107.1,460.5c-0.9,0-1.7-0.8-1.7-1.6v-3.3c0-0.9,0.8-1.6,1.7-1.6c0.9,0,1.6,0.8,1.6,1.6v3.3
		C108.8,459.8,108,460.5,107.1,460.5L107.1,460.5z"/>
</g>
<g id="_x30_5">
	<circle class="st4" cx="713.3" cy="269.3" r="27.7"/>
	<circle class="st4" cx="631.8" cy="334.1" r="23.8"/>
	<circle class="st4" cx="622.3" cy="243" r="39.6"/>
	<path class="st2" d="M725.2,323.8H598.5c-0.8,0-1.4-0.7-1.4-1.5v-97c0-4.1,3.3-7.4,7.5-7.5h114.8c4.1,0,7.4,3.3,7.5,7.5v97
		C726.8,323,726.1,323.8,725.2,323.8L725.2,323.8z M600,320.8h123.8v-95.6c0-2.4-2-4.4-4.4-4.5h-115c-2.4,0-4.4,2-4.4,4.5L600,320.8
		L600,320.8z"/>
	<path class="st2" d="M687.6,347.5h-51.5c-0.8,0-1.4-0.7-1.4-1.4l-0.1-11.9c0-0.4,0.1-0.8,0.4-1.1c0.3-0.3,0.7-0.4,1.1-0.4h51.7
		c0.4,0,0.8,0.1,1.1,0.4s0.4,0.7,0.4,1.1l-0.1,11.9C689.1,346.9,688.5,347.5,687.6,347.5L687.6,347.5z M637.6,344.6h48.5l0.1-8.9
		h-48.7L637.6,344.6z"/>
	<path class="st2" d="M701.5,347.5h-79.2c-0.8,0-1.4-0.7-1.4-1.5c0-0.9,0.7-1.5,1.4-1.5h79.2c0.8,0,1.5,0.7,1.5,1.5
		C703,346.9,702.3,347.5,701.5,347.5L701.5,347.5z"/>
	<circle class="st2" cx="661.9" cy="328.2" r="1.4"/>
	<path class="st2" d="M719.3,335.6H604.4c-4.1,0-7.4-3.3-7.5-7.5v-5.9c0-0.8,0.7-1.4,1.4-1.5l0,0H725c0.8,0,1.4,0.7,1.4,1.4l0,0v5.9
		C726.7,332.2,723.4,335.6,719.3,335.6z M600,323.8v4.4c0,2.4,2,4.4,4.4,4.4h114.8c2.4,0,4.4-2,4.4-4.4v-4.4H600z"/>
	<path class="st2" d="M687.6,309.9h-2c-0.8,0-1.5-0.7-1.5-1.5c0-0.9,0.7-1.5,1.5-1.5h0.5v-0.5c0-0.8,0.7-1.5,1.4-1.5
		s1.5,0.7,1.5,1.5v2C689.1,309.2,688.5,309.9,687.6,309.9z"/>
	<path class="st2" d="M674.8,309.9h-4.3c-0.8,0-1.5-0.7-1.5-1.5c0-0.9,0.7-1.5,1.5-1.5h4.3c0.8,0,1.4,0.7,1.4,1.5
		C676.3,309.2,675.6,309.9,674.8,309.9z M659.8,309.9h-4.3c-0.8,0-1.5-0.7-1.5-1.5c0-0.9,0.7-1.5,1.5-1.5l0,0h4.3
		c0.8,0,1.5,0.7,1.5,1.5C661.3,309.2,660.5,309.9,659.8,309.9L659.8,309.9z M644.6,309.9h-4.3c-0.8,0-1.4-0.7-1.4-1.5
		c0-0.9,0.7-1.5,1.4-1.5h4.3c0.8,0,1.5,0.7,1.5,1.5C646.1,309.2,645.5,309.9,644.6,309.9L644.6,309.9z M629.5,309.9h-4.3
		c-0.8,0-1.5-0.7-1.5-1.5c0-0.9,0.7-1.5,1.5-1.5h4.3c0.8,0,1.5,0.7,1.5,1.5C631.1,309.2,630.3,309.9,629.5,309.9L629.5,309.9z"/>
	<path class="st2" d="M614.3,309.9h-2c-0.8,0-1.4-0.7-1.4-1.5v-2c0-0.8,0.7-1.5,1.5-1.5s1.4,0.7,1.4,1.5l0,0v0.6h0.4
		c0.8,0,1.4,0.7,1.4,1.5C615.8,309.4,615.1,309.9,614.3,309.9L614.3,309.9z"/>
	<path class="st2" d="M612.4,297.1c-0.8,0-1.4-0.7-1.4-1.4l0,0v-4.3c0-0.8,0.7-1.5,1.5-1.5s1.4,0.7,1.4,1.5v4.3
		C613.9,296.4,613.2,297.1,612.4,297.1L612.4,297.1z M612.4,282c-0.8,0-1.4-0.7-1.4-1.4l0,0v-4.3c0-0.8,0.7-1.5,1.5-1.5
		s1.4,0.7,1.4,1.5v4.3C613.9,281.3,613.2,282,612.4,282L612.4,282z M612.4,266.9c-0.8,0-1.4-0.7-1.4-1.4l0,0v-4.3
		c0-0.8,0.7-1.5,1.5-1.5s1.4,0.7,1.4,1.5v4.3C613.9,266.2,613.2,266.9,612.4,266.9L612.4,266.9L612.4,266.9z M612.4,251.7
		c-0.8,0-1.4-0.7-1.4-1.4l0,0V246c0-0.8,0.7-1.5,1.5-1.5s1.4,0.7,1.4,1.5v4.3C613.9,251.1,613.2,251.7,612.4,251.7L612.4,251.7
		L612.4,251.7z"/>
	<path class="st2" d="M612.4,236.6c-0.8,0-1.4-0.7-1.4-1.5v-2c0-0.8,0.7-1.4,1.4-1.5l0,0h2c0.8,0,1.4,0.7,1.4,1.5s-0.7,1.5-1.4,1.5
		h-0.5v0.4C613.9,235.9,613.2,236.6,612.4,236.6z"/>
	<path class="st2" d="M674.8,234.7h-4.3c-0.8,0-1.5-0.7-1.5-1.4s0.7-1.5,1.4-1.5l0,0h4.3c0.8,0,1.5,0.7,1.5,1.4
		C676.4,234,675.6,234.7,674.8,234.7L674.8,234.7z M659.8,234.7h-4.3c-0.8,0-1.4-0.7-1.4-1.5s0.7-1.4,1.4-1.4h4.3
		c0.8,0,1.5,0.7,1.5,1.4C661.2,234,660.5,234.7,659.8,234.7L659.8,234.7z M644.6,234.7h-4.3c-0.8,0-1.4-0.7-1.4-1.5s0.7-1.4,1.4-1.4
		h4.3c0.8,0,1.5,0.7,1.5,1.4C646.1,234,645.5,234.7,644.6,234.7L644.6,234.7z M629.5,234.7h-4.3c-0.8,0-1.4-0.7-1.4-1.5
		s0.7-1.4,1.4-1.4h4.3c0.8,0,1.5,0.7,1.5,1.4C631,234,630.3,234.7,629.5,234.7L629.5,234.7z"/>
	<path class="st2" d="M687.6,236.6c-0.8,0-1.4-0.7-1.4-1.5v-0.5h-0.5c-0.8,0-1.5-0.7-1.5-1.4c0-0.8,0.7-1.5,1.4-1.5l0,0h2
		c0.8,0,1.4,0.7,1.4,1.4v2C689.1,236,688.5,236.6,687.6,236.6L687.6,236.6z"/>
	<path class="st2" d="M687.6,297.1c-0.8,0-1.4-0.7-1.4-1.4l0,0v-4.3c0-0.8,0.7-1.5,1.4-1.5s1.5,0.7,1.5,1.5v4.3
		C689.1,296.4,688.5,297.1,687.6,297.1L687.6,297.1z M687.6,282c-0.8,0-1.4-0.7-1.4-1.4l0,0v-4.3c0-0.8,0.7-1.5,1.4-1.5
		s1.5,0.7,1.5,1.5v4.3C689.1,281.3,688.5,282,687.6,282L687.6,282z M687.6,266.9c-0.8,0-1.4-0.7-1.4-1.4l0,0v-4.3
		c0-0.8,0.7-1.5,1.4-1.5s1.5,0.7,1.5,1.5v4.3C689.1,266.2,688.5,266.9,687.6,266.9L687.6,266.9L687.6,266.9z M687.6,251.7
		c-0.8,0-1.4-0.7-1.4-1.4l0,0V246c0-0.8,0.7-1.5,1.4-1.5s1.5,0.7,1.5,1.5v4.3C689.1,251.1,688.5,251.7,687.6,251.7L687.6,251.7
		L687.6,251.7z"/>
	<path class="st2" d="M616.3,240.6h-7.9c-1.9,0-3.4-1.5-3.5-3.4v-7.9c0-1.9,1.5-3.4,3.5-3.4l0,0h7.9c1.9,0,3.4,1.5,3.5,3.4v7.9
		C619.8,239.1,618.2,240.6,616.3,240.6z M608.4,228.7c-0.2,0-0.5,0.2-0.5,0.4l0,0v7.9c0,0.2,0.2,0.6,0.5,0.6l0,0h7.9
		c0.2,0,0.4-0.2,0.5-0.6v-7.9c0-0.2-0.2-0.4-0.5-0.4l0,0H608.4z"/>
	<path class="st2" d="M691.6,240.6h-7.9c-1.9,0-3.4-1.5-3.5-3.4v-7.9c0-1.9,1.5-3.4,3.5-3.4h7.9c1.9,0,3.5,1.5,3.5,3.4l0,0v7.9
		C695,239.1,693.4,240.6,691.6,240.6z M683.6,228.7c-0.2,0-0.5,0.2-0.5,0.4l0,0v7.9c0,0.2,0.2,0.6,0.5,0.6l0,0h7.9
		c0.2,0,0.6-0.2,0.6-0.4l0,0v-7.9c0-0.2-0.2-0.4-0.6-0.4l0,0L683.6,228.7z"/>
	<path class="st2" d="M616.3,315.9h-7.9c-1.9,0-3.5-1.5-3.5-3.4l0,0v-8c0-1.9,1.5-3.4,3.5-3.4h7.9c1.9,0,3.5,1.5,3.5,3.4l0,0v7.9
		C619.8,314.2,618.3,315.9,616.3,315.9L616.3,315.9z M608.4,304c-0.2,0-0.5,0.2-0.5,0.4l0,0v7.9c0,0.2,0.2,0.5,0.5,0.5l0,0h7.9
		c0.2,0,0.5-0.2,0.5-0.4l0,0v-8c0-0.2-0.2-0.4-0.5-0.5L608.4,304z"/>
	<path class="st2" d="M691.6,315.9h-7.9c-1.9,0-3.4-1.5-3.5-3.4v-8c0-1.9,1.5-3.4,3.5-3.4h7.9c1.9,0,3.4,1.5,3.5,3.4v7.9
		C695.1,314.2,693.5,315.9,691.6,315.9L691.6,315.9z M683.6,304c-0.2,0-0.5,0.2-0.5,0.4l0,0v7.9c0,0.2,0.2,0.5,0.5,0.5l0,0h7.9
		c0.2,0,0.6-0.2,0.6-0.4l0,0v-8c0-0.2-0.2-0.5-0.6-0.5l0,0L683.6,304z"/>
	<path class="st2" d="M673.7,300h-9.9c-0.7,0-1.2-0.4-1.4-1l-3.5-10.9H641l-3.5,10.8c-0.2,0.7-0.8,1-1.4,1h-9.9
		c-0.4,0-0.9-0.2-1.2-0.7c-0.3-0.3-0.3-0.9-0.2-1.3l17.8-55.4c0.2-0.7,0.8-1,1.4-1h11.9c0.7,0,1.2,0.4,1.4,1l17.8,55.4
		c0.1,0.4,0.1,1-0.2,1.3C674.7,299.8,674.2,300,673.7,300z M664.9,297h6.8l-16.8-52.5h-9.8L628.3,297h6.8l3.5-10.9
		c0.2-0.7,0.8-1,1.4-1h20.1c0.7,0,1.2,0.4,1.4,1L664.9,297z M657.1,279h-14.2c-0.4,0-0.9-0.2-1.2-0.5c-0.3-0.4-0.3-0.9-0.2-1.3
		l7-22.1c0.2-0.8,1.1-1.2,1.9-1c0.4,0.1,0.8,0.6,1,1l7.2,22.1c0.1,0.4,0.1,1-0.2,1.3C658,278.7,657.6,278.9,657.1,279L657.1,279z
		 M644.9,276H655l-5.1-15.7L644.9,276z"/>
	<path class="st2" d="M701.7,296L701.7,296c-0.7,0-1.2-0.4-1.4-1l-8.1-23.8c-0.2-0.8,0.1-1.6,0.9-1.9c0.3-0.1,0.7-0.1,1,0l23.8,8.1
		c0.6,0.2,1,0.8,1,1.3c0,0.7-0.3,1.2-0.9,1.4l-10.2,4.6l-4.6,10.3C702.8,295.7,702.3,296,701.7,296z M696,273.2l5.9,17.3l3.3-7.4
		c0.1-0.3,0.4-0.5,0.8-0.8l7.4-3.3L696,273.2z"/>
	<path class="st2" d="M624.8,273.8c-0.1,0-0.3,0-0.4-0.1c-0.8-0.2-1.2-1.1-1-1.9l0,0l5.7-17.8c0.2-0.8,1.1-1.2,1.9-1
		c0.8,0.2,1.2,1.1,1,1.9l-5.7,17.8C626,273.4,625.5,273.8,624.8,273.8z"/>
	<path class="st2" d="M632.8,248.9c-0.1,0-0.3,0-0.4-0.1c-0.8-0.2-1.2-1.1-1-1.9l0,0l1.3-4.3c0.2-0.8,1.1-1.2,1.9-1
		c0.8,0.2,1.2,1.1,1,1.9l0,0l-1.4,4.3C633.9,248.4,633.4,248.9,632.8,248.9z"/>
	<path class="st2" d="M717.3,234.7h-7.9c-0.8,0-1.4-0.7-1.4-1.5s0.7-1.4,1.4-1.4h7.9c0.8,0,1.5,0.7,1.5,1.4
		C718.8,234,718.2,234.7,717.3,234.7L717.3,234.7z"/>
	<path class="st2" d="M713.3,238.6c-0.8,0-1.4-0.7-1.4-1.5v-7.9c0-0.8,0.7-1.5,1.4-1.5s1.5,0.7,1.5,1.5l0,0v7.9
		C714.8,238,714.1,238.6,713.3,238.6z"/>
	<circle class="st2" cx="713.3" cy="245" r="1.4"/>
	<circle class="st2" cx="713.3" cy="250.9" r="1.4"/>
	<circle class="st2" cx="713.3" cy="258.9" r="1.4"/>
	<circle class="st2" cx="713.3" cy="266.8" r="1.4"/>
</g>
<g id="_x30_9">
	<circle class="st4" cx="889.7" cy="642.7" r="17.4"/>
	<circle class="st4" cx="950.5" cy="686.1" r="20.2"/>
	<circle class="st4" cx="882.4" cy="694.8" r="23.2"/>
	<path class="st2" d="M935.8,707.3c-0.3,0-0.5-0.1-0.8-0.3l-7.5-7.5c-0.4-0.4-0.4-1.1,0-1.5l7.5-7.5c0.4-0.4,1.1-0.4,1.5,0l7.5,7.5
		c0.4,0.4,0.4,1.1,0,1.5l-7.5,7.5C936.3,707.2,936.1,707.3,935.8,707.3z M929.8,698.9l5.8,5.9l5.9-5.9l-5.9-5.9L929.8,698.9z"/>
	<path class="st2" d="M945.9,722.4c-0.3,0-0.5-0.1-0.8-0.3l-12.5-12.7c-0.4-0.4-0.4-1.1,0-1.5l12.3-12.3c0.4-0.4,1.1-0.4,1.5,0
		l12.5,12.5c0.4,0.4,0.4,1.1,0,1.5L946.7,722C946.4,722.3,946.2,722.4,945.9,722.4z M934.9,708.8l11,11l10.8-10.8l-11-11
		L934.9,708.8z"/>
	<path class="st2" d="M952.3,726.3c-1.9,0-3.6-0.8-4.8-2l-2.2-2.2c-0.4-0.4-0.4-1.1,0-1.5l12.3-12.3c0.2-0.2,0.4-0.3,0.8-0.3l0,0
		c0.3,0,0.5,0.1,0.8,0.3l2.2,2.2c2.6,2.6,2.8,7,0,9.7l0,0l-4.1,4.1C955.8,725.5,954,726.3,952.3,726.3z M947.4,721.3l1.4,1.4
		c1.9,1.9,4.8,1.9,6.7,0l4.1-4.1l0,0c1.8-1.9,1.8-4.7,0-6.6l-1.4-1.4L947.4,721.3z"/>
	<path class="st2" d="M907.1,698.8c-15.8,0-28.6-12.8-28.6-28.6s12.8-28.6,28.6-28.6s28.6,12.8,28.6,28.6S922.9,698.8,907.1,698.8
		L907.1,698.8z M907.1,643.8c-14.6,0-26.4,11.8-26.4,26.4c0,14.6,11.8,26.4,26.4,26.4s26.4-11.8,26.4-26.4
		C933.5,655.5,921.7,643.8,907.1,643.8L907.1,643.8z"/>
	<path class="st2" d="M907.1,708.9c-21.5,0-38.7-17.4-38.7-38.7c0-21.5,17.4-38.7,38.7-38.7c21.5,0,38.7,17.4,38.7,38.7l0,0
		C945.8,691.5,928.5,708.9,907.1,708.9z M907.1,633.5c-20.2,0-36.5,16.4-36.5,36.5s16.4,36.5,36.5,36.5s36.5-16.4,36.5-36.5l0,0
		C943.6,649.9,927.3,633.6,907.1,633.5z"/>
	<path class="st2" d="M904.4,685.9L904.4,685.9c-0.4,0-0.9-0.3-1-0.8l-8.9-26.1c-0.1-0.4,0-0.8,0.2-1.1c0.3-0.3,0.7-0.4,1.1-0.2
		l26.1,8.9c0.5,0.2,0.9,0.9,0.7,1.4c-0.1,0.2-0.3,0.4-0.5,0.7l-11.4,5.1l-5.1,11.4C905.3,685.6,904.9,685.9,904.4,685.9z
		 M897.3,660.5l7.4,21.3l4.2-9.4c0.1-0.2,0.3-0.4,0.6-0.5l9.3-4.2L897.3,660.5z"/>
	<path class="st2" d="M907.1,648.1c-0.7,0-1.1-0.4-1.1-1.1v-4.4c0-0.7,0.4-1.1,1.1-1.1s1.1,0.4,1.1,1.1v4.4
		C908.2,647.6,907.7,648.1,907.1,648.1z"/>
	<path class="st2" d="M907.1,698.8c-0.7,0-1.1-0.4-1.1-1.1v-4.4c0-0.7,0.4-1.1,1.1-1.1s1.1,0.4,1.1,1.1v4.4
		C908.2,698.2,907.7,698.8,907.1,698.8z"/>
	<path class="st2" d="M884,671.3h-4.4c-0.7,0-1.1-0.4-1.1-1.1s0.4-1.1,1.1-1.1h4.4c0.7,0,1.1,0.4,1.1,1.1S884.5,671.3,884,671.3z"/>
	<path class="st2" d="M934.6,671.3h-4.4c-0.7,0-1.1-0.4-1.1-1.1s0.4-1.1,1.1-1.1h4.4c0.7,0,1.1,0.4,1.1,1.1S935.2,671.3,934.6,671.3
		z"/>
	<path class="st2" d="M871.5,706.1h-2.2c-0.7,0-1.1-0.4-1.1-1.1s0.4-1.1,1.1-1.1h2.2c0.7,0,1.1,0.4,1.1,1.1S872.2,706.1,871.5,706.1
		z"/>
	<path class="st2" d="M878.8,706.1h-2.2c-0.7,0-1.1-0.4-1.1-1.1s0.4-1.1,1.1-1.1h2.2c0.7,0,1.1,0.4,1.1,1.1S879.4,706.1,878.8,706.1
		z"/>
	<path class="st2" d="M874.2,710.9c-0.7,0-1.1-0.4-1.1-1.1v-2.2c0-0.7,0.4-1.1,1.1-1.1s1.1,0.4,1.1,1.1v2.2
		C875.3,710.3,874.7,710.9,874.2,710.9z"/>
	<path class="st2" d="M874.2,703.6c-0.7,0-1.1-0.4-1.1-1.1v-2.2c0-0.7,0.4-1.1,1.1-1.1s1.1,0.4,1.1,1.1v2.2
		C875.3,703.1,874.7,703.6,874.2,703.6z"/>
	<path class="st2" d="M890.4,721.5h-2.2c-0.7,0-1.1-0.4-1.1-1.1s0.4-1.1,1.1-1.1h2.2c0.7,0,1.1,0.4,1.1,1.1S891.1,721.5,890.4,721.5
		z"/>
	<path class="st2" d="M897.7,721.5h-2.2c-0.7,0-1.1-0.4-1.1-1.1s0.4-1.1,1.1-1.1h2.2c0.7,0,1.1,0.4,1.1,1.1S898.3,721.5,897.7,721.5
		z"/>
	<path class="st2" d="M893,726.3c-0.7,0-1.1-0.4-1.1-1.1V723c0-0.7,0.4-1.1,1.1-1.1c0.7,0,1.1,0.4,1.1,1.1v2.2
		C894.1,725.8,893.5,726.3,893,726.3z"/>
	<path class="st2" d="M893,719c-0.7,0-1.1-0.4-1.1-1.1v-2.2c0-0.7,0.4-1.1,1.1-1.1c0.7,0,1.1,0.4,1.1,1.1v2.2
		C894.1,718.6,893.5,719,893,719z"/>
	<path class="st2" d="M954.9,689.7h-5.8c-0.7,0-1.1-0.4-1.1-1.1s0.4-1.1,1.1-1.1h5.8c0.7,0,1.1,0.4,1.1,1.1S955.5,689.7,954.9,689.7
		z"/>
	<path class="st2" d="M951.9,692.6c-0.7,0-1.1-0.4-1.1-1.1v-5.8c0-0.7,0.4-1.1,1.1-1.1s1.1,0.4,1.1,1.1v5.8
		C953,692.2,952.6,692.6,951.9,692.6z"/>
	<circle class="st2" cx="951.9" cy="680" r="1.1"/>
	<circle class="st2" cx="951.9" cy="675.6" r="1.1"/>
	<circle class="st2" cx="951.9" cy="668.3" r="1.1"/>
	<path class="st2" d="M962.2,646.6h-5.8c-0.7,0-1.1-0.4-1.1-1.1s0.4-1.1,1.1-1.1h5.8c0.7,0,1.1,0.4,1.1,1.1S962.7,646.6,962.2,646.6
		z"/>
	<path class="st2" d="M959.2,649.5c-0.7,0-1.1-0.4-1.1-1.1v-5.8c0-0.7,0.4-1.1,1.1-1.1s1.1,0.4,1.1,1.1v5.8
		C960.3,649,959.9,649.5,959.2,649.5z"/>
	<circle class="st2" cx="959.2" cy="654.2" r="1.1"/>
	<circle class="st2" cx="959.2" cy="658.6" r="1.1"/>
	<circle class="st2" cx="959.2" cy="664.3" r="1.1"/>
	<circle class="st2" cx="959.2" cy="673" r="1.1"/>
	<path class="st2" d="M920.4,720.1c-2.2,0-4-1.8-4-4s1.8-4,4-4s4,1.8,4,4l0,0C924.3,718.2,922.6,720.1,920.4,720.1z M920.4,714.3
		c-1,0-1.9,0.8-1.9,1.8s0.8,1.9,1.8,1.9s1.9-0.8,1.9-1.8l0,0C922.1,715,921.4,714.3,920.4,714.3z"/>
	<path class="st2" d="M943.6,643.3c-2.2,0-4-1.8-4-4s1.8-4,4-4s4,1.8,4,4l0,0C947.5,641.6,945.8,643.3,943.6,643.3z M943.6,637.5
		c-1,0-1.9,0.8-1.8,1.9c0,1,0.8,1.9,1.9,1.8c1,0,1.8-0.8,1.8-1.9l0,0C945.3,638.4,944.6,637.5,943.6,637.5z"/>
</g>
<g id="_x30_2">
	<circle class="st4" cx="180.4" cy="238.4" r="17"/>
	<circle class="st4" cx="160.4" cy="269.9" r="14.6"/>
	<circle class="st4" cx="214.2" cy="292.2" r="24.4"/>
	<path class="st2" d="M172.6,307.8c-0.2,0-0.3,0-0.4-0.1c-0.3-0.2-0.4-0.4-0.4-0.8v-6.4h-6.4c-1.2,0-2.1-1-2.2-2.1v-56.2
		c0-1.2,1-2.1,2.2-2.1h56.2c1.2,0,2.2,1,2.2,2.1v56.2c0,1.2-1,2.1-2.2,2.1h-34.8l-13.8,7.2C172.9,307.8,172.8,307.8,172.6,307.8z
		 M165.3,241.8c-0.1,0-0.3,0.1-0.3,0.3l0,0v56.2c0,0.2,0.1,0.3,0.3,0.3h7.4c0.6,0,0.9,0.4,0.9,0.9v5.8l12.5-6.6
		c0.1-0.1,0.3-0.1,0.4-0.1h35c0.2,0,0.3-0.1,0.3-0.3l0,0v-56.2c0-0.1-0.1-0.3-0.3-0.3l0,0L165.3,241.8z"/>
	<path class="st2" d="M211.7,291.9h-56.2c-1.2,0-2.1-1-2.1-2.2V231c0-1.2,1-2.1,2.1-2.1l0,0h56.2c1.2,0,2.1,1,2.1,2.1l0,0v58.6
		C213.8,291,213,291.9,211.7,291.9z M155.5,230.8c-0.2,0-0.3,0.1-0.3,0.3v58.6c0,0.2,0.1,0.3,0.3,0.3h56.2c0.2,0,0.3-0.1,0.3-0.3
		v-58.6c0-0.1-0.1-0.3-0.3-0.3l0,0H155.5z"/>
	<path class="st2" d="M195.4,275.4h-0.1c-0.3-0.1-0.6-0.2-0.7-0.6l-2.4-5.7l-5.7-2.4c-0.3-0.1-0.4-0.3-0.6-0.7c0-0.3,0-0.6,0.2-0.8
		l33.7-33.7c0.3-0.3,0.9-0.3,1.3,0l0,0l8.7,8.7c0.3,0.3,0.3,1,0,1.3l-33.7,33.7C195.9,275.3,195.7,275.4,195.4,275.4z M188.4,265.5
		l4.8,2.1c0.2,0.1,0.4,0.2,0.4,0.4l2.1,4.8l32.1-32l-7.4-7.4L188.4,265.5z"/>
	<path class="st2" d="M229.1,241.6c-0.2,0-0.4-0.1-0.7-0.2l-8.7-8.7c-0.3-0.3-0.3-0.9,0-1.3l2.6-2.6c1.2-1.3,3.2-1.4,4.5-0.3
		l5.7,5.7c1.1,1.3,1,3.3-0.3,4.5l-2.5,2.6C229.6,241.5,229.3,241.6,229.1,241.6z M221.8,232l7.4,7.4l2-2c0.6-0.4,0.7-1.3,0.3-1.9
		l0,0l-5.7-5.7c-0.6-0.4-1.4-0.3-1.9,0.3L221.8,232z"/>
	<path class="st2" d="M192.8,269.3c-0.6,0-0.9-0.4-0.9-0.9c0-0.2,0.1-0.4,0.2-0.7l32-32c0.3-0.3,1-0.3,1.3,0s0.3,1,0,1.3l0,0l-32,32
		C193.3,269.2,193,269.3,192.8,269.3z"/>
	<path class="st2" d="M230,242.5c-0.2,0-0.4-0.1-0.7-0.2L219,231.9c-0.3-0.3-0.3-0.9,0-1.3l0,0c0.3-0.3,1-0.3,1.3,0l10.3,10.3
		c0.3,0.3,0.3,0.9,0,1.3C230.4,242.4,230.2,242.5,230,242.5L230,242.5z"/>
	<path class="st2" d="M185,277c-0.2,0-0.4-0.1-0.7-0.2c-0.2-0.2-0.3-0.5-0.2-0.8l1.8-10.3c0-0.3,0.2-0.6,0.4-0.7s0.6-0.1,0.8,0
		l6,2.6c0.2,0.1,0.4,0.2,0.4,0.4l2.6,6c0.1,0.2,0.1,0.5,0,0.8c-0.1,0.2-0.3,0.4-0.7,0.4l-10.3,1.8L185,277z M187.4,267.1l-1.3,7.9
		l7.9-1.3l-2-4.6L187.4,267.1z"/>
	<path class="st2" d="M227.6,276c-0.6,0-0.9-0.4-0.9-0.9v-12c0-0.5,0.4-0.9,0.9-0.9c0.6,0,0.9,0.4,0.9,0.9l0,0v12
		C228.6,275.6,228.1,276,227.6,276z"/>
	<path class="st2" d="M227.6,259.2c-0.6,0-0.9-0.4-0.9-0.9v-2.8c0-0.5,0.4-0.9,0.9-0.9c0.6,0,0.9,0.4,0.9,0.9l0,0v2.8
		C228.6,258.8,228.1,259.2,227.6,259.2L227.6,259.2z"/>
	<path class="st2" d="M227.4,307.8c-0.5,0-0.9-0.4-0.9-0.9v-4.8c0-0.5,0.4-0.9,0.9-0.9c0.6,0,0.9,0.4,0.9,0.9v4.8
		C228.2,307.4,227.9,307.8,227.4,307.8z"/>
	<path class="st2" d="M229.8,305.4H225c-0.5,0-0.9-0.4-0.9-0.9c0-0.6,0.4-0.9,0.9-0.9h4.8c0.6,0,0.9,0.4,0.9,0.9
		C230.8,305,230.3,305.4,229.8,305.4z"/>
	<circle class="st2" cx="220" cy="304.4" r="0.9"/>
	<circle class="st2" cx="216.4" cy="304.4" r="0.9"/>
	<circle class="st2" cx="211.5" cy="304.4" r="0.9"/>
	<circle class="st2" cx="204.2" cy="304.4" r="0.9"/>
	<path class="st2" d="M178.9,299.2c-0.6,0-0.9-0.4-0.9-0.9v-5c0-0.5,0.4-0.9,0.9-0.9s0.9,0.4,0.9,0.9v5
		C179.7,298.8,179.3,299.2,178.9,299.2L178.9,299.2z"/>
	<path class="st2" d="M181.3,296.8h-4.8c-0.6,0-0.9-0.4-0.9-0.9c0-0.6,0.4-0.9,0.9-0.9h4.8c0.6,0,0.9,0.4,0.9,0.9
		S181.7,296.8,181.3,296.8z"/>
	<circle class="st2" cx="186.1" cy="295.8" r="0.9"/>
	<circle class="st2" cx="189.9" cy="295.8" r="0.9"/>
	<circle class="st2" cx="195.9" cy="295.8" r="0.9"/>
	<circle class="st2" cx="200.9" cy="295.8" r="0.9"/>
	<path class="st2" d="M160.4,302.9h-4.8c-0.6,0-0.9-0.4-0.9-0.9s0.4-0.9,0.9-0.9h4.8c0.6,0,0.9,0.4,0.9,0.9
		C161.4,302.5,160.9,302.9,160.4,302.9z"/>
	<path class="st2" d="M158,305.4c-0.6,0-0.9-0.4-0.9-0.9v-4.8c0-0.6,0.4-0.9,0.9-0.9c0.6,0,0.9,0.4,0.9,0.9v4.8
		C158.9,305,158.5,305.3,158,305.4C158,305.3,158,305.4,158,305.4z"/>
	<path class="st2" d="M194.6,239.4h-22c-0.6,0-0.9-0.4-0.9-0.9c0-0.6,0.4-0.9,0.9-0.9l0,0h22c0.6,0,0.9,0.4,0.9,0.9
		C195.6,239,195.1,239.4,194.6,239.4L194.6,239.4z"/>
	<path class="st2" d="M200.7,246.7H191c-0.6,0-0.9-0.4-0.9-0.9s0.4-0.9,0.9-0.9h9.7c0.6,0,0.9,0.4,0.9,0.9
		C201.6,246.3,201.3,246.7,200.7,246.7z"/>
	<path class="st2" d="M186.1,246.7h-23.3c-0.6,0-0.9-0.4-0.9-0.9s0.4-0.9,0.9-0.9h23.3c0.6,0,0.9,0.4,0.9,0.9
		C187.1,246.3,186.7,246.7,186.1,246.7z"/>
	<path class="st2" d="M193.4,254h-17.6c-0.5,0-0.9-0.4-0.9-0.9c0-0.6,0.4-0.9,0.9-0.9h17.6c0.6,0,0.9,0.4,0.9,0.9
		C194.4,253.6,193.9,254,193.4,254z"/>
	<path class="st2" d="M170.9,254h-8.1c-0.6,0-0.9-0.4-0.9-0.9c0-0.6,0.4-0.9,0.9-0.9h8.1c0.5,0,0.9,0.4,0.9,0.9
		C171.9,253.6,171.5,254,170.9,254z"/>
	<path class="st2" d="M186.1,261.4h-6c-0.6,0-0.9-0.4-0.9-0.9c0-0.6,0.4-0.9,0.9-0.9h6c0.6,0,0.9,0.4,0.9,0.9
		S186.6,261.4,186.1,261.4z"/>
	<path class="st2" d="M175.1,261.4h-12.2c-0.5,0-0.9-0.4-0.9-0.9c0-0.6,0.4-0.9,0.9-0.9h12.2c0.6,0,0.9,0.4,0.9,0.9
		S175.6,261.4,175.1,261.4z"/>
	<path class="st2" d="M181.7,268.7h-10.3c-0.6,0-0.9-0.4-0.9-0.9c0-0.6,0.4-0.9,0.9-0.9h10.3c0.6,0,0.9,0.4,0.9,0.9
		C182.6,268.3,182.2,268.7,181.7,268.7z"/>
	<path class="st2" d="M166.5,268.7h-3.6c-0.5,0-0.9-0.4-0.9-0.9c0-0.6,0.4-0.9,0.9-0.9h3.6c0.6,0,0.9,0.4,0.9,0.9
		C167.4,268.3,167,268.7,166.5,268.7z"/>
	<path class="st2" d="M204.4,276h-3.9c-0.5,0-0.9-0.4-0.9-0.9s0.4-0.9,0.9-0.9h3.9c0.6,0,0.9,0.4,0.9,0.9
		C205.4,275.6,204.9,276,204.4,276z"/>
	<path class="st2" d="M180.9,276h-18.1c-0.6,0-0.9-0.4-0.9-0.9s0.4-0.9,0.9-0.9h18.1c0.6,0,0.9,0.4,0.9,0.9S181.5,276,180.9,276z"/>
	<path class="st2" d="M193.4,283.4H177c-0.5,0-0.9-0.4-0.9-0.9c0-0.6,0.4-0.9,0.9-0.9h16.4c0.6,0,0.9,0.4,0.9,0.9
		C194.4,283,193.9,283.4,193.4,283.4z"/>
	<path class="st2" d="M172.1,283.4h-9.4c-0.6,0-0.9-0.4-0.9-0.9c0-0.6,0.4-0.9,0.9-0.9h9.4c0.5,0,0.9,0.4,0.9,0.9
		S172.7,283.4,172.1,283.4z"/>
</g>
<g id="_x30_6">
	<circle class="st4" cx="706.9" cy="519.2" r="22.2"/>
	<circle class="st4" cx="649.9" cy="541.5" r="19"/>
	<circle class="st4" cx="730.6" cy="590.5" r="31.7"/>
	<path class="st2" d="M746.5,593.3H645.1c-0.7,0-1.2-0.5-1.2-1.2l0,0v-77.5c0-3.3,2.6-5.9,5.9-5.9l0,0h91.9c3.3,0,5.9,2.6,5.9,5.9
		l0,0v77.7C747.7,592.8,747.1,593.3,746.5,593.3L746.5,593.3z M646.2,591h99v-76.5c0-2-1.6-3.5-3.5-3.5h-91.8c-2,0-3.6,1.5-3.6,3.5
		l0,0V591H646.2z"/>
	<path class="st2" d="M716.4,612.3h-41.1c-0.7,0-1.2-0.5-1.2-1.2l0,0l-0.1-9.5c0-0.7,0.5-1.2,1.2-1.2l0,0h41.4
		c0.3,0,0.7,0.1,0.9,0.3s0.3,0.5,0.3,0.9l-0.1,9.5C717.5,611.8,717,612.3,716.4,612.3z M676.4,610h38.8v-7.2h-38.9L676.4,610z"/>
	<path class="st2" d="M727.4,612.3H664c-0.7,0-1.2-0.5-1.2-1.2s0.5-1.2,1.2-1.2h63.4c0.7,0,1.2,0.6,1.2,1.2
		C728.6,611.8,728.1,612.3,727.4,612.3z"/>
	<circle class="st2" cx="695.7" cy="596.9" r="1.2"/>
	<path class="st2" d="M741.7,602.8h-91.8c-3.3,0-5.9-2.6-5.9-5.9l0,0v-4.7c0-0.7,0.5-1.2,1.2-1.2l0,0h101.4c0.7,0,1.2,0.5,1.2,1.2
		l0,0v4.7C747.7,600.2,745,602.8,741.7,602.8L741.7,602.8z M646.2,593.3v3.5c0,2,1.7,3.5,3.5,3.5h91.9c2,0,3.5-1.6,3.5-3.5v-3.5
		H646.2z"/>
	<path class="st2" d="M659.3,539.5H653c-1.5,0-2.8-1.2-2.8-2.8l0,0v-6.4c0-1.5,1.2-2.8,2.8-2.8l0,0h6.4c1.5,0,2.8,1.2,2.8,2.8l0,0
		v6.4C662.1,538.2,660.9,539.5,659.3,539.5L659.3,539.5z M653.1,529.9c-0.2,0-0.4,0.2-0.4,0.4v6.4c0,0.2,0.2,0.4,0.4,0.4h6.4
		c0.2,0,0.4-0.2,0.4-0.4v-6.4c0-0.2-0.2-0.4-0.4-0.4H653.1z"/>
	<path class="st2" d="M738.5,523.6H653c-1.5,0-2.8-1.2-2.8-2.8l0,0v-3.2c0-1.5,1.2-2.8,2.8-2.8l0,0h85.6c1.5,0,2.8,1.2,2.8,2.8l0,0
		v3.2C741.3,522.3,740.1,523.6,738.5,523.6L738.5,523.6z M653,517.3c-0.2,0-0.4,0.2-0.4,0.4v3.2c0,0.2,0.2,0.4,0.4,0.4h85.6
		c0.2,0,0.4-0.2,0.4-0.4v-3.2c0-0.2-0.2-0.4-0.4-0.4H653z"/>
	<path class="st2" d="M659.3,555.3H653c-1.5,0-2.8-1.2-2.8-2.8l0,0v-6.4c0-1.5,1.2-2.8,2.8-2.8l0,0h6.4c1.5,0,2.8,1.2,2.8,2.8l0,0
		v6.4C662.1,554,660.9,555.3,659.3,555.3L659.3,555.3z M653,545.8c-0.2,0-0.4,0.2-0.4,0.4v6.4c0,0.2,0.2,0.4,0.4,0.4h6.4
		c0.2,0,0.4-0.2,0.4-0.4v-6.4c0-0.2-0.2-0.4-0.4-0.4H653z"/>
	<path class="st2" d="M659.3,571.2H653c-1.5,0-2.8-1.2-2.8-2.8l0,0V562c0-1.5,1.2-2.8,2.8-2.8l0,0h6.4c1.5,0,2.8,1.2,2.8,2.8l0,0
		v6.4C662.1,570,660.9,571.2,659.3,571.2z M653,561.6c-0.2,0-0.4,0.2-0.4,0.4v6.4c0,0.2,0.2,0.4,0.4,0.4h6.4c0.2,0,0.4-0.2,0.4-0.4
		V562c0-0.2-0.2-0.4-0.4-0.4H653z"/>
	<path class="st2" d="M659.3,587H653c-1.5,0-2.8-1.2-2.8-2.8l0,0v-6.4c0-1.5,1.2-2.8,2.8-2.8l0,0h6.4c1.5,0,2.8,1.2,2.8,2.8l0,0v6.4
		C662.1,585.8,660.9,587,659.3,587L659.3,587z M653,577.4c-0.2,0-0.4,0.2-0.4,0.4v6.4c0,0.2,0.2,0.4,0.4,0.4h6.4
		c0.2,0,0.4-0.2,0.4-0.4v-6.4c0-0.2-0.2-0.4-0.4-0.4H653z"/>
	<path class="st2" d="M667.3,523.6c-0.7,0-1.2-0.6-1.2-1.2l0,0V516c0-0.7,0.5-1.2,1.2-1.2s1.2,0.5,1.2,1.2v6.4
		C668.5,523.1,667.9,523.6,667.3,523.6z"/>
	<path class="st2" d="M689.5,523.6c-0.7,0-1.2-0.6-1.2-1.2l0,0V516c0-0.7,0.5-1.2,1.2-1.2s1.2,0.5,1.2,1.2v6.4
		C690.6,523.1,690.1,523.6,689.5,523.6z"/>
	<path class="st2" d="M702.1,523.6c-0.7,0-1.2-0.6-1.2-1.2l0,0V516c0-0.7,0.5-1.2,1.2-1.2s1.2,0.5,1.2,1.2v6.4
		C703.3,523.1,702.8,523.6,702.1,523.6z"/>
	<path class="st2" d="M718,523.6c-0.7,0-1.2-0.6-1.2-1.2l0,0V516c0-0.7,0.5-1.2,1.2-1.2s1.2,0.5,1.2,1.2v6.4
		C719.2,523.1,718.6,523.6,718,523.6z"/>
	<path class="st2" d="M713.2,566.4h-25.3c-2.4,0-4.4-2-4.4-4.4v-25.3c0-2.4,2-4.4,4.4-4.4h25.3c2.4,0,4.4,2,4.4,4.4V562
		C717.6,564.5,715.7,566.4,713.2,566.4z M687.9,534.8c-1.1,0-2,0.9-2,2V562c0,1.1,0.9,2,2,2h25.3c1.1,0,2-0.9,2-2v-25.3
		c0-1.1-0.9-2-2-2L687.9,534.8L687.9,534.8z"/>
	<path class="st2" d="M694.2,585.4c-0.3,0-0.7-0.2-0.9-0.4L668,553.2c-0.3-0.3-0.3-0.9-0.1-1.2c0.2-0.4,0.7-0.7,1.1-0.7h25.3
		c0.7,0,1.2,0.6,1.2,1.2l0,0v31.7c0,0.5-0.3,1-0.8,1.1C694.5,585.4,694.3,585.4,694.2,585.4z M671.3,553.7l21.7,27.1v-27.1H671.3z"
		/>
	<path class="st2" d="M721.2,580.6c-10.2,0-18.6-8.4-18.6-18.6c0-10.2,8.4-18.6,18.6-18.6c10.2,0,18.6,8.4,18.6,18.6
		S731.4,580.6,721.2,580.6z M721.2,545.8c-9,0-16.3,7.3-16.3,16.3s7.3,16.3,16.3,16.3s16.3-7.3,16.3-16.3
		C737.3,553.1,730.1,545.9,721.2,545.8z"/>
	<path class="st2" d="M727.4,561.6c-2.4,0-4.4-2-4.4-4.4s2-4.4,4.4-4.4s4.4,2,4.4,4.4C731.8,559.6,729.8,561.6,727.4,561.6z
		 M727.4,555.3c-1.1,0-2,0.9-2,2s0.9,2,2,2s2-0.9,2-2l0,0C729.4,556.2,728.5,555.3,727.4,555.3z"/>
	<path class="st2" d="M757.6,588.5h-6.4c-0.7,0-1.2-0.5-1.2-1.2s0.5-1.2,1.2-1.2h6.4c0.7,0,1.2,0.5,1.2,1.2S758.2,588.5,757.6,588.5
		z"/>
	<path class="st2" d="M754.4,591.7c-0.7,0-1.2-0.6-1.2-1.2l0,0v-6.4c0-0.7,0.5-1.2,1.2-1.2s1.2,0.5,1.2,1.2l0,0v6.4
		C755.6,591.2,755,591.7,754.4,591.7z"/>
	<circle class="st2" cx="754.4" cy="577.9" r="1.2"/>
	<circle class="st2" cx="754.4" cy="573.1" r="1.2"/>
	<circle class="st2" cx="754.4" cy="566.8" r="1.2"/>
	<circle class="st2" cx="754.4" cy="557.3" r="1.2"/>
	<path class="st2" d="M638.8,564.8c-0.7,0-1.2-0.5-1.2-1.2l0,0v-13.9c0-0.7,0.5-1.2,1.2-1.2s1.2,0.5,1.2,1.2l0,0v14
		C640,564.2,639.4,564.8,638.8,564.8z"/>
	<path class="st2" d="M638.8,544.5c-0.7,0-1.2-0.5-1.2-1.2l0,0v-3.5c0-0.7,0.5-1.2,1.2-1.2s1.2,0.5,1.2,1.2v3.5
		C640,544,639.4,544.5,638.8,544.5z"/>
	<path class="st2" d="M676.8,536.3h-6.4c-0.7,0-1.2-0.5-1.2-1.2s0.5-1.2,1.2-1.2h6.4c0.7,0,1.2,0.5,1.2,1.2
		C677.9,535.7,677.5,536.3,676.8,536.3L676.8,536.3z"/>
	<path class="st2" d="M673.6,539.5c-0.7,0-1.2-0.6-1.2-1.2l0,0v-6.4c0-0.7,0.6-1.2,1.2-1.2s1.2,0.5,1.2,1.2v6.4
		C674.7,538.9,674.3,539.5,673.6,539.5z"/>
</g>
<g id="_x30_7">
	<circle class="st4" cx="999.1" cy="126.8" r="24.9"/>
	<circle class="st4" cx="972.5" cy="80.7" r="21.2"/>
	<circle class="st4" cx="923" cy="158.7" r="35.4"/>
	<path class="st2" d="M997.4,172.4h-92.1c-3.6,0-6.6-3-6.6-6.6V89.6c0-0.8,0.5-1.3,1.3-1.3h113.4c0.8,0,1.3,0.5,1.3,1.3v65.6
		c0,0.3-0.1,0.7-0.3,1l-15.9,15.9C998.1,172.2,997.7,172.4,997.4,172.4z M901.2,90.9v74.8c0,2.2,1.8,4,4,4h91.5l15.2-15.2V90.8
		L901.2,90.9z"/>
	<path class="st2" d="M1013.3,90.9H899.9c-0.8,0-1.3-0.6-1.3-1.3V77.2c0-3.6,3-6.6,6.6-6.6h102.7c3.6,0,6.6,3,6.6,6.6v12.4
		C1014.5,90.2,1014,90.8,1013.3,90.9z M901.2,88.2H1012V77c0-2.2-1.8-4-4-4H905.3c-2.2,0-4,1.8-4,4L901.2,88.2L901.2,88.2z"/>
	<path class="st2" d="M983.2,82.4c-0.4,0-0.9-0.2-1.2-0.5s-0.5-0.8-0.5-1.2s0.2-0.9,0.5-1.2c0.7-0.7,1.8-0.7,2.5,0
		c0.3,0.3,0.6,0.8,0.6,1.2s-0.2,0.9-0.6,1.2C984.1,82.2,983.6,82.4,983.2,82.4z"/>
	<path class="st2" d="M992.1,80.7c0-1,0.8-1.8,1.8-1.8c0,0,0,0,0.1,0l0,0c1,0,1.8,0.8,1.8,1.8l0,0l0,0c0,1-0.8,1.8-1.8,1.8l0,0
		C992.9,82.4,992.1,81.7,992.1,80.7L992.1,80.7z"/>
	<path class="st2" d="M1004.4,82.4c-0.4,0-0.9-0.2-1.3-0.5c-0.3-0.3-0.5-0.8-0.5-1.2s0.2-0.9,0.5-1.2c0.7-0.7,1.8-0.7,2.5,0
		c0.3,0.3,0.5,0.8,0.5,1.2s-0.2,0.9-0.5,1.2C1005.4,82.2,1005,82.4,1004.4,82.4z"/>
	<path class="st2" d="M961.8,186.5c-1.2,0-2.4-0.4-3.3-1.3l-0.3-0.3c-0.9-0.8-2.2-0.8-3.1,0l-0.3,0.3c-2,1.9-5.1,1.8-6.9-0.2
		c-0.3-0.4-0.7-0.9-0.9-1.3l-0.2-0.4c-0.5-1.1-1.8-1.5-2.9-1.2l-0.4,0.2c-2.5,0.9-5.4-0.4-6.3-3c-0.2-0.4-0.2-1-0.3-1.4v-0.6
		c0-1.2-1-2.2-2.2-2.2h-0.5c-2.8-0.1-4.8-2.4-4.7-5.2c0-0.6,0.1-1,0.3-1.4l0.2-0.4c0.4-1.1-0.1-2.3-1.2-2.9l-0.4-0.2
		c-2.4-1.1-3.5-4.1-2.4-6.5c0.2-0.4,0.5-0.9,0.9-1.3l0.3-0.4c0.8-0.9,0.8-2.2,0-3.1l-0.3-0.4c-1.9-2-1.8-5.1,0.2-6.9
		c0.4-0.3,0.9-0.7,1.3-0.9l0.4-0.2c1.1-0.6,1.5-1.8,1.2-2.9l-0.2-0.4c-0.9-2.5,0.3-5.4,3-6.3c0.4-0.2,1-0.2,1.4-0.3h0.5
		c1.2,0,2.2-1,2.2-2.2v-0.5c0.1-2.8,2.4-4.8,5.2-4.7c0.4,0,1,0.1,1.4,0.3l0.4,0.2c1.1,0.4,2.3-0.1,2.9-1.2l0.2-0.4
		c1.1-2.4,4.1-3.5,6.5-2.4c0.4,0.2,0.9,0.6,1.3,0.9l0.3,0.3c0.9,0.8,2.2,0.8,3.1,0l0.3-0.3c2-1.9,5.1-1.8,6.9,0.2
		c0.3,0.3,0.7,0.8,0.9,1.3l0.2,0.4c0.6,1.1,1.8,1.5,2.9,1.2l0.4-0.2c2.5-0.9,5.4,0.4,6.3,3c0.2,0.4,0.2,1,0.3,1.4v0.5
		c0,1.2,1,2.2,2.2,2.2h0.5c2.8,0.1,4.8,2.4,4.7,5.2c0,0.4-0.1,1-0.3,1.4l-0.2,0.4c-0.4,1.1,0.1,2.3,1.2,2.9l0.4,0.2
		c2.4,1.1,3.5,4.1,2.4,6.5c-0.2,0.4-0.5,0.9-0.9,1.3l-0.3,0.4c-0.8,0.9-0.8,2.2,0,3.1l0.3,0.4c1.9,2,1.8,5.1-0.2,6.9
		c-0.3,0.3-0.8,0.7-1.3,0.9l-0.4,0.2c-1.1,0.5-1.5,1.8-1.2,2.9l0.2,0.4c0.9,2.5-0.4,5.4-3,6.3c-0.4,0.1-0.9,0.2-1.4,0.3h-0.5
		c-1.2,0-2.2,1-2.2,2.2v0.6c-0.1,2.8-2.4,4.8-5.2,4.7c-0.6,0-1-0.1-1.4-0.3l-0.4-0.2c-1.1-0.4-2.3,0.1-2.9,1.2l-0.2,0.4
		c-0.7,1.4-2,2.5-3.5,2.8C962.5,186.5,962.2,186.5,961.8,186.5z M956.7,181.6c1.2,0,2.4,0.4,3.3,1.3l0.3,0.3
		c0.9,0.9,2.3,0.8,3.2-0.1c0.1-0.2,0.3-0.3,0.4-0.5l0.2-0.4c1.1-2.3,3.7-3.4,6.2-2.5l0.4,0.2c1.2,0.4,2.5-0.2,3-1.3
		c0.1-0.2,0.1-0.4,0.1-0.7v-0.6c0.1-2.5,2.2-4.6,4.7-4.7h0.5c0.8,0,1.4-0.4,1.8-1c0.4-0.6,0.5-1.3,0.2-2.1l-0.2-0.4
		c-0.9-2.4,0.2-5.1,2.5-6.2l0.4-0.2c1.1-0.6,1.7-1.9,1.1-3c-0.1-0.2-0.2-0.4-0.4-0.6l-0.3-0.4c-1.8-1.9-1.8-4.8,0-6.7l0.3-0.4
		c0.9-0.9,0.8-2.3-0.1-3.2c-0.2-0.1-0.3-0.3-0.5-0.4l-0.4-0.2c-2.3-1.1-3.4-3.7-2.5-6.2l0.2-0.4c0.2-0.7,0.2-1.4-0.2-2.1
		c-0.4-0.7-1.1-1-1.8-1h-0.5c-2.5-0.1-4.6-2.2-4.7-4.7v-0.6c-0.1-1.2-1.1-2.2-2.4-2.2c-0.2,0-0.4,0.1-0.7,0.1l-0.4,0.2
		c-2.4,0.9-5.1-0.2-6.2-2.5L964,128c-0.3-0.7-0.9-1.1-1.6-1.3c-0.7-0.1-1.4,0.1-2,0.6l-0.3,0.3l0,0c-1.9,1.8-4.8,1.8-6.7,0l-0.3-0.3
		c-0.5-0.6-1.3-0.7-2-0.6c-0.8,0.1-1.3,0.7-1.7,1.3l-0.2,0.4c-1.1,2.3-3.7,3.4-6.2,2.5l-0.4-0.2c-0.7-0.2-1.4-0.2-2.1,0.2
		c-0.7,0.4-1,1.1-1,1.8v0.6c-0.1,2.5-2.2,4.6-4.7,4.7h-0.5c-1.2,0-2.2,1.1-2.2,2.4c0,0.2,0.1,0.4,0.1,0.7l0.2,0.4
		c0.9,2.4-0.2,5.1-2.5,6.2l-0.4,0.2c-1.1,0.6-1.7,1.9-1.1,3c0.1,0.2,0.2,0.4,0.4,0.7l0.3,0.4c1.8,1.9,1.8,4.8,0,6.7l-0.3,0.4
		c-0.5,0.6-0.8,1.3-0.5,2c0.1,0.8,0.7,1.3,1.3,1.7l0.4,0.2c2.3,1.1,3.4,3.7,2.5,6.2l-0.2,0.4c-0.4,1.2,0.2,2.5,1.3,2.9
		c0.2,0.1,0.4,0.1,0.7,0.1h0.5c2.5,0.1,4.6,2.2,4.7,4.7v0.6c0,1.2,1.1,2.2,2.3,2.2c0.2,0,0.4-0.1,0.7-0.1l0.4-0.2
		c2.4-0.9,5.1,0.2,6.2,2.5l0.2,0.4c0.5,1.1,1.9,1.6,3,1.1c0.2-0.1,0.4-0.2,0.7-0.4l0.3-0.3C954.1,182.1,955.3,181.5,956.7,181.6z
		 M959.1,126.3L959.1,126.3z"/>
	<path class="st2" d="M968,117.2c-0.3,0-0.5-0.1-0.8-0.2c-0.3-0.2-0.6-0.7-0.6-1.1V89.5c0-0.8,0.6-1.3,1.3-1.3H985
		c0.8,0,1.3,0.6,1.3,1.3v20.8c0,0.5-0.3,1.1-0.9,1.2l-17,5.6C968.2,117.2,968.1,117.2,968,117.2z M969.3,90.8v23.3l14.3-4.7V90.9
		L969.3,90.8z"/>
	<path class="st2" d="M956.7,120.9c-0.1,0-0.3,0-0.4-0.1l-11.3-3.7c-0.6-0.2-0.9-0.7-0.9-1.2V89.5c0-0.8,0.5-1.3,1.3-1.3H968
		c0.8,0,1.3,0.5,1.3,1.3v26.4c0,0.6-0.3,1.1-0.9,1.2l-11.3,3.7C956.9,120.9,956.8,121,956.7,120.9z M946.7,115l10,3.3l10-3.3V90.9
		h-20V115z"/>
	<path class="st2" d="M945.2,117.2c-0.1,0-0.3,0-0.4-0.1l-17-5.6c-0.5-0.2-0.9-0.7-0.9-1.2V89.6c0-0.8,0.5-1.3,1.3-1.3h17
		c0.8,0,1.3,0.6,1.3,1.3V116c0,0.4-0.2,0.9-0.5,1.1C945.8,117.2,945.6,117.2,945.2,117.2z M929.6,109.3L944,114V90.8h-14.4V109.3z"
		/>
	<path class="st2" d="M968,117.2c-0.3,0-0.5-0.1-0.8-0.2c-0.3-0.2-0.6-0.7-0.6-1.1V89.5c0-0.8,0.6-1.3,1.3-1.3H985
		c0.8,0,1.3,0.6,1.3,1.3v20.8c0,0.5-0.3,1.1-0.9,1.2l-17,5.6C968.2,117.2,968.1,117.2,968,117.2z M969.3,90.8v23.3l14.3-4.7V90.9
		L969.3,90.8z"/>
	<path class="st2" d="M956.7,120.9c-0.1,0-0.3,0-0.4-0.1l-11.3-3.7c-0.6-0.2-0.9-0.7-0.9-1.2V89.5c0-0.8,0.5-1.3,1.3-1.3H968
		c0.8,0,1.3,0.5,1.3,1.3v26.4c0,0.6-0.3,1.1-0.9,1.2l-11.3,3.7C956.9,120.9,956.8,121,956.7,120.9z M946.7,115l10,3.3l10-3.3V90.9
		h-20V115z"/>
	<path class="st2" d="M967.6,171.8c-0.2,0-0.4,0-0.7-0.1l-10.3-5.4l-10.3,5.4c-0.4,0.2-1,0.2-1.4-0.1s-0.7-0.8-0.5-1.3l2-11.4
		l-8.4-8.1c-0.3-0.3-0.4-0.9-0.3-1.3c0.1-0.4,0.6-0.9,1.1-0.9l11.5-1.7l5.2-10.4c0.4-0.7,1.2-0.9,1.9-0.4c0.2,0.1,0.3,0.3,0.4,0.4
		l5.2,10.4l11.5,1.7c0.5,0.1,1,0.4,1.1,0.9c0.1,0.4,0,1-0.3,1.3l-8.4,8.1l2,11.4c0.1,0.6-0.1,1-0.5,1.3
		C968.1,171.6,967.9,171.8,967.6,171.8z M956.7,163.4c0.2,0,0.4,0,0.7,0.1l8.6,4.5l-1.6-9.6c-0.1-0.4,0.1-0.9,0.3-1.2l6.9-6.7
		l-9.6-1.4c-0.4-0.1-0.8-0.3-1-0.8l-4.3-8.7l-4.3,8.7c-0.2,0.4-0.5,0.7-1,0.8l-9.6,1.4l6.9,6.7c0.3,0.3,0.4,0.8,0.3,1.2l-1.7,9.6
		l8.6-4.5C956.2,163.4,956.4,163.4,956.7,163.4z"/>
	<path class="st2" d="M997.4,172.4c-0.2,0-0.3,0-0.6-0.1c-0.5-0.2-0.8-0.7-0.9-1.2v-15.9c0-0.8,0.5-1.3,1.3-1.3h15.9
		c0.8,0,1.3,0.7,1.3,1.3c0,0.3-0.1,0.7-0.3,0.9l-16,16C998,172.2,997.7,172.4,997.4,172.4z M998.7,156.5v11.4l11.4-11.4H998.7z"/>
	<path class="st2" d="M1006.2,142.3c-0.8,0-1.3-0.6-1.3-1.3v-17.4c-0.1-0.8,0.4-1.4,1.2-1.4c0.8-0.1,1.4,0.4,1.4,1.2
		c0,0.1,0,0.1,0,0.2V141C1007.5,141.6,1006.9,142.3,1006.2,142.3z"/>
	<path class="st2" d="M1006.2,117.8c-0.8,0-1.3-0.5-1.3-1.3v-4c-0.1-0.8,0.4-1.4,1.2-1.4c0.8-0.1,1.4,0.4,1.4,1.2c0,0.1,0,0.1,0,0.2
		v4C1007.6,117.2,1006.9,117.8,1006.2,117.8L1006.2,117.8z"/>
	<path class="st2" d="M912.3,107.2h-7c-0.8,0-1.3-0.5-1.3-1.3s0.5-1.3,1.3-1.3h7c0.8,0,1.3,0.6,1.3,1.3
		C913.7,106.5,913.1,107.2,912.3,107.2L912.3,107.2z"/>
	<path class="st2" d="M908.8,110.7c-0.8,0-1.3-0.5-1.3-1.3v-7c0-0.8,0.6-1.3,1.3-1.3c0.8,0,1.3,0.6,1.3,1.3l0,0v7
		C910.1,110.2,909.5,110.7,908.8,110.7L908.8,110.7z"/>
	<circle class="st2" cx="908.8" cy="116.4" r="1.3"/>
	<circle class="st2" cx="908.8" cy="121.8" r="1.3"/>
	<circle class="st2" cx="908.8" cy="128.9" r="1.3"/>
	<circle class="st2" cx="908.8" cy="139.5" r="1.3"/>
	<path class="st2" d="M1013.3,174.2h-7c-0.8,0-1.3-0.6-1.3-1.3c0-0.8,0.6-1.3,1.3-1.3h7c0.8,0,1.3,0.6,1.3,1.3
		C1014.6,173.5,1014.1,174.2,1013.3,174.2z"/>
	<path class="st2" d="M1009.8,177.7c-0.8,0-1.3-0.5-1.3-1.3v-7c-0.1-0.8,0.4-1.4,1.2-1.4c0.8-0.1,1.4,0.4,1.4,1.2c0,0.1,0,0.1,0,0.2
		v7C1011.1,177,1010.5,177.7,1009.8,177.7z"/>
	<path class="st2" d="M990.3,183h-7c-0.8,0.1-1.4-0.4-1.4-1.2c-0.1-0.8,0.4-1.4,1.2-1.4c0.1,0,0.1,0,0.2,0h7
		c0.8-0.1,1.4,0.4,1.4,1.2c0.1,0.8-0.4,1.4-1.2,1.4C990.4,183,990.3,183,990.3,183z"/>
	<path class="st2" d="M986.7,186.5c-0.8,0-1.3-0.6-1.3-1.3v-7c0-0.8,0.5-1.3,1.3-1.3s1.3,0.5,1.3,1.3l0,0v7
		C988,185.9,987.5,186.5,986.7,186.5L986.7,186.5z"/>
	<path class="st2" d="M921.1,183h-7c-0.8-0.1-1.3-0.7-1.2-1.4s0.6-1.1,1.2-1.2h7c0.8,0.1,1.3,0.7,1.2,1.4
		C922.3,182.4,921.8,183,921.1,183z"/>
	<path class="st2" d="M917.6,186.5c-0.8,0-1.3-0.6-1.3-1.3v-7c-0.1-0.8,0.4-1.4,1.2-1.4c0.8-0.1,1.4,0.4,1.4,1.2c0,0.1,0,0.1,0,0.2
		v7C918.9,185.9,918.4,186.5,917.6,186.5L917.6,186.5z"/>
</g>
<g id="_x30_3">
	<circle class="st4" cx="384.9" cy="168" r="34.4"/>
	<circle class="st4" cx="413.8" cy="110" r="27.2"/>
	<circle class="st4" cx="444.6" cy="204.2" r="18.1"/>
	<path class="st2" d="M459.1,211H374c-3.7,0-6.8-3.1-6.8-6.8v-90.5c0-3.7,3.1-6.8,6.8-6.8h99.7c0.8,0,1.3,0.7,1.3,1.3v86.9
		C475,203.9,467.9,211,459.1,211L459.1,211z M374,109.6c-2.2,0-4.1,1.9-4.1,4.1l0,0v90.5c0,2.2,1.9,4.1,4.1,4.1h85.1
		c7.3,0,13.1-5.8,13.1-13.1v-85.6H374z"/>
	<path class="st2" d="M473.7,196.5c-0.8,0-1.3-0.7-1.3-1.3c0-7.3-5.8-13.1-13.1-13.1c-0.8,0-1.3-0.7-1.3-1.3V93.9
		c0-0.8,0.6-1.3,1.3-1.3l0,0c8.8,0,15.8,7.2,15.8,15.8v86.9C475,195.9,474.4,196.5,473.7,196.5L473.7,196.5z M460.5,179.3
		c4.7,0.4,9.1,3,11.8,6.9v-78.1c0-6.7-5.1-12.3-11.8-13.1V179.3z"/>
	<path class="st2" d="M408.9,102.3c-0.8,0-1.3-0.7-1.3-1.3v-7.3c-0.1-0.8,0.4-1.4,1.2-1.4c0.8,0,1.4,0.4,1.4,1.2c0,0.1,0,0.1,0,0.2
		v7.3C410.2,101.7,409.6,102.3,408.9,102.3z"/>
	<path class="st2" d="M412.5,98.7h-7.3c-0.8-0.1-1.3-0.8-1.2-1.4c0.1-0.7,0.6-1.2,1.2-1.2h7.3c0.8-0.1,1.4,0.4,1.4,1.2
		c0.1,0.8-0.4,1.4-1.2,1.4C412.6,98.7,412.6,98.7,412.5,98.7z"/>
	<circle class="st2" cx="419.8" cy="97.4" r="1.3"/>
	<circle class="st2" cx="425.1" cy="97.4" r="1.3"/>
	<circle class="st2" cx="432.4" cy="97.4" r="1.3"/>
	<circle class="st2" cx="443.3" cy="97.4" r="1.3"/>
	<path class="st2" d="M426.6,203.8c-0.8,0-1.3-0.7-1.3-1.3v-7.3c0.1-0.8,0.8-1.3,1.4-1.2s1.2,0.5,1.2,1.2v7.3
		C427.9,203.2,427.2,203.8,426.6,203.8L426.6,203.8z"/>
	<path class="st2" d="M430.2,200.1h-7.3c-0.8-0.1-1.3-0.8-1.2-1.4c0.1-0.7,0.5-1.2,1.2-1.2h7.3c0.8,0.1,1.3,0.8,1.2,1.4
		C431.4,199.6,430.9,200.1,430.2,200.1L430.2,200.1z"/>
	<circle class="st2" cx="415.7" cy="198.8" r="1.3"/>
	<circle class="st2" cx="410.2" cy="198.8" r="1.3"/>
	<circle class="st2" cx="403" cy="198.8" r="1.3"/>
	<circle class="st2" cx="392.1" cy="198.8" r="1.3"/>
	<path class="st2" d="M393.6,120.5h-16c-0.8,0.1-1.4-0.4-1.4-1.2c-0.1-0.8,0.4-1.4,1.2-1.4c0.1,0,0.1,0,0.2,0h16
		c0.8-0.1,1.4,0.4,1.4,1.2c0.1,0.8-0.4,1.4-1.2,1.4C393.7,120.5,393.6,120.5,393.6,120.5z"/>
	<path class="st2" d="M404.8,120.5h-4.1c-0.8-0.1-1.3-0.8-1.2-1.4c0.1-0.7,0.6-1.2,1.2-1.2h4.1c0.8,0.1,1.3,0.8,1.2,1.4
		C406,119.8,405.5,120.4,404.8,120.5z"/>
	<path class="st2" d="M404.8,191.1c-26.4,0-47.3-30.1-48.2-31.3c-0.3-0.4-0.3-1.1,0-1.5c0.9-1.3,21.8-31.4,48.2-31.4
		s47.3,30.1,48.2,31.4c0.3,0.4,0.3,1.1,0,1.5C452.1,161,431.2,191.1,404.8,191.1z M359.4,159c3.4,4.7,22.7,29.5,45.4,29.5
		s41.9-24.8,45.4-29.5c-3.4-4.7-22.7-29.5-45.4-29.5S362.9,154.3,359.4,159L359.4,159z"/>
	<path class="st2" d="M404.8,184.7c-14.3,0-25.9-11.6-25.9-25.9s11.6-25.9,25.9-25.9s25.9,11.6,25.9,25.9S419.1,184.7,404.8,184.7z
		 M404.8,135.9c-12.8,0-23.1,10.3-23.1,23.1s10.3,23.1,23.1,23.1s23.1-10.3,23.1-23.1S417.6,135.9,404.8,135.9L404.8,135.9
		L404.8,135.9z"/>
	<path class="st2" d="M404.8,172.1c-7.3,0-13.1-5.8-13.1-13.1s5.8-13.1,13.1-13.1c7.3,0,13.1,5.8,13.1,13.1
		C417.9,166.1,412.1,172.1,404.8,172.1z M404.8,148.5c-5.7,0-10.5,4.6-10.5,10.4c0,5.7,4.6,10.4,10.5,10.4c5.7,0,10.5-4.6,10.5-10.4
		l0,0C415.2,153.2,410.5,148.5,404.8,148.5L404.8,148.5z"/>
	<path class="st2" d="M413.2,157.3c-3.7,0-6.8-3.1-6.8-6.8s3.1-6.8,6.8-6.8c3.7,0,6.8,3.1,6.8,6.8l0,0
		C420,154.3,417,157.3,413.2,157.3L413.2,157.3z M413.2,146.4c-2.2,0-4.1,1.9-4.1,4.1c0,2.2,1.9,4.1,4.1,4.1s4.1-1.9,4.1-4.1
		C417.3,148.3,415.5,146.4,413.2,146.4L413.2,146.4L413.2,146.4z"/>
	<path class="st2" d="M433.2,130.2c-2.8,0-4.9-2.2-4.9-4.9s2.2-5,4.9-5s5,2.2,5,5l0,0C438.1,128,435.9,130.2,433.2,130.2z
		 M433.2,122.9c-1.2,0-2.3,1-2.3,2.2s1,2.3,2.2,2.3s2.3-1,2.3-2.2c0,0,0,0,0-0.1C435.4,123.9,434.4,122.9,433.2,122.9L433.2,122.9z"
		/>
	<path class="st2" d="M451.2,195.4c-2.8,0-5-2.2-5-4.9s2.2-4.9,5-4.9s5,2.2,5,4.9C456.2,193.1,454,195.4,451.2,195.4z M451.2,188.1
		c-1.2,0-2.3,1-2.3,2.3s1,2.3,2.3,2.3s2.3-1,2.3-2.3l0,0C453.5,189.1,452.5,188.1,451.2,188.1L451.2,188.1L451.2,188.1z"/>
</g>
<g id="_x31_0">
	<circle class="st4" cx="1206.3" cy="249.4" r="23"/>
	<circle class="st4" cx="1288.4" cy="277.4" r="23"/>
	<circle class="st4" cx="1232.5" cy="328.4" r="27.9"/>
	<path class="st2" d="M1273.6,344.3h-72.4c-4.3,0-7.8-3.5-7.8-7.8v-92.1c0-4.3,3.5-7.8,7.8-7.8h72.4c4.3,0,7.8,3.5,7.8,7.8v92.1
		C1281.4,340.8,1278,344.3,1273.6,344.3z M1201.3,239.2c-3,0-5.4,2.4-5.4,5.4v92.1c0,3,2.4,5.4,5.4,5.4h72.4c3,0,5.4-2.4,5.4-5.4
		v-92.1c0-3-2.4-5.4-5.4-5.4L1201.3,239.2L1201.3,239.2z"/>
	<path class="st2" d="M1267.1,334.5h-59.2c-2.5,0-4.5-2-4.5-4.5v-65.8c0-2.5,2-4.5,4.5-4.5h59.2c2.5,0,4.5,2,4.5,4.5V330
		C1271.6,332.5,1269.5,334.4,1267.1,334.5z M1207.9,262.2c-1.1,0-2.1,0.9-2.1,2.1V330c0,1.1,0.9,2.1,2.1,2.1h59.2
		c1.1,0,2.1-0.9,2.1-2.1v-65.8c0-1.1-0.9-2.1-2.1-2.1h-59.2V262.2z"/>
	<path class="st2" d="M1290.1,291.8h-59.2c-0.7,0-1.2-0.5-1.2-1.2v-16.4c0-0.7,0.5-1.2,1.2-1.2h59.2c0.7,0,1.2,0.5,1.2,1.2v16.4
		C1291.3,291.2,1290.7,291.8,1290.1,291.8z M1232.1,289.2h56.8v-14h-56.8V289.2z"/>
	<path class="st2" d="M1296.7,291.8h-6.6c-0.7,0-1.2-0.5-1.2-1.2v-16.4c0-0.7,0.5-1.2,1.2-1.2h6.6c2.5,0,4.5,2,4.5,4.5v9.9
		C1301.2,289.8,1299.1,291.8,1296.7,291.8z M1291.3,289.2h5.4c1.1,0,2.1-0.9,2.1-2.1v-9.9c0-1.1-0.9-2.1-2.1-2.1h-5.4V289.2z"/>
	<path class="st2" d="M1296.7,321.4h-78.9c-2.5,0-4.5-2-4.5-4.5V307c0-2.5,2-4.5,4.5-4.5h78.9c2.5,0,4.5,2,4.5,4.5v9.9
		C1301.2,319.4,1299.1,321.4,1296.7,321.4z M1217.8,304.9c-1.1,0-2.1,0.9-2.1,2.1v9.9c0,1.1,0.9,2.1,2.1,2.1h78.9
		c1.1,0,2.1-0.9,2.1-2.1V307c0-1.1-0.9-2.1-2.1-2.1H1217.8z"/>
	<path class="st2" d="M1230.9,291.8c-0.2,0-0.3,0-0.6-0.1l-16.4-8.2c-0.4-0.2-0.7-0.7-0.7-1.1s0.2-0.9,0.7-1.1l16.4-8.2
		c0.3-0.2,0.9-0.2,1.2,0c0.3,0.2,0.6,0.7,0.6,1.1v16.4c0,0.4-0.2,0.9-0.6,1.1C1231.3,291.8,1231.1,291.8,1230.9,291.8z
		 M1217.3,282.3l12.4,6.3v-12.4L1217.3,282.3z"/>
	<path class="st2" d="M1267.1,253.9h-13.2c-2.5,0-4.5-2-4.5-4.5s2-4.5,4.5-4.5h13.2c2.5,0,4.5,2,4.5,4.5S1269.5,253.9,1267.1,253.9z
		 M1253.9,247.3c-1.1,0-2.1,0.9-2.1,2.1c0,1.1,0.9,2.1,2.1,2.1h13.2c1.1,0,2.1-0.9,2.1-2.1c0-1.1-0.9-2.1-2.1-2.1H1253.9z"/>
	<path class="st2" d="M1221,253.9h-13.2c-2.5,0-4.5-2-4.5-4.5s2-4.5,4.5-4.5h13.2c2.5,0,4.5,2,4.5,4.5S1223.5,253.9,1221,253.9
		L1221,253.9z M1207.8,247.3c-1.1,0-2.1,0.9-2.1,2.1c0,1.1,0.9,2.1,2.1,2.1h13.2c1.1,0,2.1-0.9,2.1-2.1c0-1.1-0.9-2.1-2.1-2.1l0,0
		H1207.8z"/>
	<path class="st2" d="M1237.5,256.5c-3.8,0-7-3.1-7-6.9c0-3.9,3.1-7,6.9-7s7,3.1,7,6.9l0,0C1244.4,253.3,1241.3,256.5,1237.5,256.5z
		 M1237.5,244.9c-2.5,0-4.5,2-4.5,4.5s2,4.5,4.5,4.5s4.5-2,4.5-4.5l0,0C1242,246.9,1239.9,244.9,1237.5,244.9z"/>
	<path class="st2" d="M1214.5,253.9c-0.7,0-1.2-0.6-1.2-1.2v-6.6c0-0.7,0.5-1.2,1.2-1.2s1.2,0.6,1.2,1.2v6.6
		C1215.7,253.4,1215.2,253.9,1214.5,253.9z"/>
	<path class="st2" d="M1260.5,253.9c-0.7,0-1.2-0.6-1.2-1.2v-6.6c0-0.7,0.6-1.2,1.2-1.2c0.7,0,1.2,0.6,1.2,1.2l0,0v6.6
		C1261.7,253.4,1261.1,253.9,1260.5,253.9z"/>
	<path class="st2" d="M1290.1,283.5h-59.2c-0.7,0-1.2-0.5-1.2-1.2s0.5-1.2,1.2-1.2l0,0h59.2c0.7,0,1.2,0.5,1.2,1.2
		C1291.3,283,1290.7,283.5,1290.1,283.5L1290.1,283.5z"/>
	<path class="st2" d="M1290.1,293.4c-0.7,0-1.2-0.5-1.2-1.2v-19.7c0-0.7,0.5-1.2,1.2-1.2s1.2,0.6,1.2,1.2v19.7
		C1291.3,292.9,1290.7,293.4,1290.1,293.4L1290.1,293.4z"/>
	<path class="st2" d="M1289.3,321.4c-0.7,0-1.2-0.6-1.2-1.2v-6.6c0-0.7,0.6-1.2,1.2-1.2c0.7,0,1.2,0.5,1.2,1.2v6.6
		C1290.5,320.8,1290,321.4,1289.3,321.4z"/>
	<path class="st2" d="M1278.5,321.4c-0.7,0-1.2-0.6-1.2-1.2v-6.6c0-0.7,0.6-1.2,1.2-1.2c0.7,0,1.2,0.5,1.2,1.2v6.6
		C1279.8,320.8,1279.3,321.4,1278.5,321.4z"/>
	<path class="st2" d="M1267.9,321.4c-0.7,0-1.2-0.6-1.2-1.2v-6.6c0.1-0.7,0.7-1.2,1.3-1.1c0.6,0.1,1.1,0.5,1.1,1.1v6.6
		C1269.1,320.8,1268.5,321.4,1267.9,321.4z"/>
	<path class="st2" d="M1257.2,321.4c-0.7,0-1.2-0.6-1.2-1.2v-6.6c0-0.7,0.5-1.2,1.2-1.2s1.2,0.5,1.2,1.2l0,0v6.6
		C1258.4,320.8,1257.8,321.4,1257.2,321.4z"/>
	<path class="st2" d="M1246.5,321.4c-0.7,0-1.2-0.6-1.2-1.2v-6.6c0-0.7,0.6-1.2,1.2-1.2c0.7,0,1.2,0.5,1.2,1.2l0,0v6.6
		C1247.7,320.8,1247.2,321.4,1246.5,321.4z"/>
	<path class="st2" d="M1235.8,321.4c-0.7,0-1.2-0.6-1.2-1.2v-6.6c0-0.7,0.6-1.2,1.2-1.2c0.7,0,1.2,0.5,1.2,1.2l0,0v6.6
		C1237.1,320.8,1236.5,321.4,1235.8,321.4z"/>
	<path class="st2" d="M1225.2,321.4c-0.7,0-1.2-0.6-1.2-1.2v-6.6c0-0.7,0.6-1.2,1.2-1.2c0.7,0,1.2,0.5,1.2,1.2v6.6
		C1226.4,320.8,1225.8,321.4,1225.2,321.4z"/>
	<path class="st2" d="M1293.4,262.2h-6.6c-0.7,0-1.2-0.5-1.2-1.2s0.6-1.2,1.2-1.2l0,0h6.6c0.7,0,1.2,0.5,1.2,1.2
		C1294.6,261.6,1294,262.2,1293.4,262.2L1293.4,262.2z"/>
	<path class="st2" d="M1290.1,265.5c-0.7,0-1.2-0.5-1.2-1.2v-6.6c0-0.7,0.5-1.2,1.2-1.2s1.2,0.5,1.2,1.2v6.6
		C1291.3,264.9,1290.7,265.5,1290.1,265.5z"/>
	<circle class="st2" cx="1290.1" cy="251.1" r="1.2"/>
	<circle class="st2" cx="1290.1" cy="246.1" r="1.2"/>
	<circle class="st2" cx="1290.1" cy="237.9" r="1.2"/>
	<path class="st2" d="M1291.7,337.7c-2.5,0-4.5-2-4.5-4.5s2-4.5,4.5-4.5s4.5,2,4.5,4.5l0,0C1296.2,335.8,1294.3,337.7,1291.7,337.7z
		 M1291.7,331.1c-1.1,0-2.1,0.9-2.1,2.1s0.9,2.1,2.1,2.1c1.1,0,2.1-0.9,2.1-2.1l0,0C1293.7,332.1,1292.8,331.2,1291.7,331.1
		L1291.7,331.1z"/>
</g>
</svg>
