<svg width="1232" height="400" viewBox="0 0 1232 400" fill="none" xmlns="http://www.w3.org/2000/svg">
<path d="M191.149 193.022C209.157 179.992 234.479 165.815 255.001 160.256L218.985 151.359L196.985 121.475C199.705 142.571 196.309 171.396 191.149 193.022Z" fill="#fff"/>
<path d="M357.669 207.905C357.67 190.883 352.744 174.226 343.487 159.945C334.23 145.664 321.037 134.369 305.503 127.426C289.969 120.482 272.757 118.187 255.947 120.818C239.137 123.448 223.448 130.891 210.775 142.248L207.32 145.344L213.759 170.278L222.851 163.513C223.079 163.344 245.703 146.807 267.989 146.807C268.724 146.807 269.54 146.807 270.312 146.866C297.471 148.336 315.148 159.771 327.533 183.985C338.742 205.838 334.082 235.531 332.45 243.899L344.909 253.686L345.968 251.84C353.644 238.472 357.679 223.322 357.669 207.905Z" fill="#fff"/>
<path d="M283.52 94.1578C275.656 77.0321 276.832 56.9064 282.785 39.6631C284.991 33.8835 287.644 28.1627 292.275 22.6919C295.435 29.126 296.641 35.3174 297.368 41.4499C299 59.6344 295.281 79.4366 283.498 94.1578H283.52Z" fill="#fff"/>
<path d="M178.074 138.976C159.353 137.248 142.447 126.122 130.54 112.342C126.637 107.555 123.021 102.386 120.588 95.6357C127.74 96.1137 133.701 98.1726 139.382 100.607C155.876 108.195 171.26 121.438 178.074 138.976Z" fill="#fff"/>
<path d="M375.008 163.131C385.886 147.8 403.946 138.682 421.829 135.299C427.929 134.314 434.207 133.762 441.263 135.027C437.279 140.99 432.516 145.123 427.569 148.829C412.685 159.315 393.597 166.013 375.008 163.168V163.131Z" fill="#fff"/>
<path d="M228.379 110.857C214.215 100.798 205.939 84.2826 202.756 67.76C201.852 62.1495 201.337 56.3698 202.506 49.877C207.989 53.5536 211.789 57.9655 215.2 62.4804C224.88 76.2897 230.981 93.6286 228.379 110.857Z" fill="#fff"/>
<path d="M374.163 220.75C390.04 213.5 408.305 214.589 424.284 220.096C429.598 222.118 434.854 224.566 439.889 228.824C433.972 231.765 428.275 232.846 422.638 233.522C405.835 234.993 387.783 231.618 374.163 220.75Z" fill="#fff"/>
<path d="M332.965 123.703C334.589 106.401 344.725 90.9736 357.456 79.9511C361.866 76.3628 366.614 73.0318 372.818 70.7964C372.377 77.4143 370.488 82.863 368.253 88.0911C361.16 103.356 349.143 117.372 332.972 123.703H332.965Z" fill="#fff"/>
<path d="M140.029 299.378L188.364 336.924H303.991L255.736 299.378H140.029Z" fill="#fff"/>
<path d="M386.93 299.378H268.15L316.405 336.924H435.008L386.93 299.378Z" fill="#fff"/>
<path d="M257.912 291.415H376.566L328.4 253.642H209.363L257.912 291.415Z" fill="#fff"/>
<path d="M196.949 253.642H81.9697L129.915 291.415H245.497L196.949 253.642Z" fill="#fff"/>
<path d="M138.162 207.905H22.918L71.4441 245.45H186.416L138.162 207.905Z" fill="#fff"/>
<path d="M317.647 245.45L269.562 207.905H150.576L198.83 245.45H317.647Z" fill="#fff"/>
<path d="M555.492 335.961V189.095H650.972V211.397H582.085V251.274H646.032V273.576H582.085V313.659H651.545V335.961H555.492Z" fill="#fff"/>
<path d="M745.062 228.596C739.402 225.346 732.772 223.721 725.172 223.721C716.955 223.721 710.063 225.537 704.496 229.17C699.019 232.693 694.773 237.832 692.346 243.876H691.053V225.155H666.253V335.306H692.199V270.767C692.199 265.458 693.179 260.938 695.139 257.208C697.003 253.605 699.88 250.627 703.416 248.641C707.112 246.61 711.276 245.583 715.492 245.663C722.191 245.663 727.436 247.744 731.229 251.906C735.022 256.068 736.923 261.828 736.933 269.186V335.306H762.879V265.171C762.923 256.377 761.382 248.896 758.256 242.729C755.359 236.812 750.766 231.891 745.062 228.596Z" fill="#fff"/>
<path d="M838.432 337.461C827.392 337.461 817.869 335.154 809.862 330.541C801.898 325.966 795.473 319.124 791.406 310.886C787.103 302.401 784.952 292.398 784.952 280.878C784.952 269.544 787.116 259.588 791.442 251.009C795.486 242.736 801.785 235.775 809.612 230.927C817.403 226.123 826.554 223.721 837.065 223.721C843.623 223.681 850.137 224.786 856.315 226.986C862.332 229.147 867.811 232.583 872.376 237.06C877.271 241.957 881.035 247.868 883.401 254.377C886.076 261.387 887.414 269.721 887.414 279.378V287.341H797.139V269.863H862.556C862.589 265.231 861.481 260.662 859.329 256.561C857.293 252.736 854.241 249.547 850.509 247.347C846.541 245.04 842.014 243.872 837.425 243.972C832.497 243.872 827.645 245.205 823.46 247.81C819.524 250.286 816.302 253.746 814.11 257.848C811.875 262.031 810.703 266.7 810.7 271.444V286.716C810.7 293.118 811.871 298.604 814.213 303.173C816.384 307.557 819.803 311.201 824.041 313.644C828.556 316.137 833.651 317.388 838.807 317.269C842.289 317.313 845.754 316.766 849.053 315.651C852.011 314.638 854.723 313.014 857.014 310.886C859.299 308.714 861.042 306.033 862.1 303.062L886.356 305.79C884.899 312.01 881.892 317.76 877.616 322.504C873.101 327.422 867.487 331.201 861.233 333.534C854.583 336.157 846.983 337.466 838.432 337.461Z" fill="#fff"/>
<path d="M909.325 335.306V225.155H934.485V243.538H935.632C937.641 237.165 941.095 232.263 945.995 228.832C950.905 225.358 956.793 223.537 962.805 223.633C964.236 223.633 965.848 223.692 967.642 223.809C969.144 223.894 970.639 224.073 972.118 224.346V248.229C970.422 247.723 968.682 247.373 966.922 247.185C964.653 246.883 962.367 246.728 960.078 246.722C955.648 246.647 951.27 247.697 947.355 249.774C943.692 251.721 940.629 254.632 938.498 258.193C936.303 261.953 935.187 266.245 935.271 270.598V335.306H909.325Z" fill="#fff"/>
<path d="M1032.71 378.904C1023.4 378.904 1015.39 377.651 1008.69 375.146C1001.99 372.641 996.619 369.283 992.566 365.072C988.68 361.152 985.78 356.363 984.106 351.101L1007.47 345.432C1008.67 347.79 1010.22 349.954 1012.06 351.851C1014.37 354.171 1017.15 355.975 1020.21 357.146C1023.64 358.552 1027.96 359.256 1033.15 359.256C1040.5 359.256 1046.6 357.476 1051.43 353.918C1056.27 350.359 1058.68 344.513 1058.67 336.38V315.512H1057.38C1055.81 318.518 1053.83 321.294 1051.5 323.762C1048.65 326.794 1045.21 329.211 1041.39 330.865C1037.21 332.777 1031.97 333.73 1025.66 333.726C1017.6 333.831 1009.67 331.763 1002.69 327.74C995.827 323.745 990.378 317.769 986.341 309.813C982.303 301.857 980.284 291.876 980.284 279.871C980.284 267.782 982.303 257.563 986.341 249.215C990.378 240.867 995.84 234.533 1002.72 230.214C1009.61 225.882 1017.6 223.628 1025.73 223.722C1032.18 223.722 1037.5 224.81 1041.68 226.986C1045.51 228.882 1048.91 231.542 1051.68 234.803C1053.89 237.428 1055.79 240.303 1057.34 243.369H1058.81V225.155H1084.41V337.101C1084.41 346.518 1082.16 354.31 1077.67 360.477C1073.17 366.643 1067.03 371.256 1059.25 374.315C1051.44 377.384 1042.59 378.914 1032.71 378.904ZM1032.93 313.365C1038.42 313.365 1043.1 312.026 1046.97 309.35C1050.84 306.673 1053.78 302.822 1055.79 297.798C1057.79 292.783 1058.79 286.761 1058.8 279.731C1058.8 272.794 1057.82 266.723 1055.86 261.517C1053.9 256.311 1050.99 252.259 1047.12 249.362C1043.27 246.475 1038.55 245.029 1032.96 245.024C1027.18 245.024 1022.35 246.529 1018.48 249.539C1014.46 252.754 1011.43 257.042 1009.74 261.907C1007.69 267.623 1006.7 273.661 1006.8 279.731C1006.8 286.467 1007.78 292.349 1009.74 297.379C1011.46 302.081 1014.53 306.172 1018.56 309.144C1022.44 311.963 1027.22 313.369 1032.91 313.365H1032.93Z" fill="#fff"/>
<path d="M1127.17 376.609C1123.89 376.631 1120.62 376.358 1117.39 375.793C1114.95 375.387 1112.56 374.749 1110.25 373.889L1116.28 353.667C1119.55 354.691 1122.96 355.221 1126.38 355.241C1129.24 355.232 1132 354.26 1134.23 352.483C1136.5 350.689 1138.43 347.714 1140 343.557L1142.21 337.601L1102.3 225.155H1129.82L1155.2 308.342H1156.34L1181.8 225.155H1209.39L1165.29 348.645C1163.45 354.085 1160.69 359.166 1157.12 363.668C1153.79 367.806 1149.53 371.099 1144.68 373.278C1139.79 375.499 1133.96 376.609 1127.17 376.609Z" fill="#fff"/>
<path d="M487.319 176.587V29.7144H542.373C553.643 29.7144 563.117 31.6752 570.796 35.5969C578.128 39.2 584.2 44.9364 588.216 52.0534C592.136 59.1125 594.096 67.3236 594.096 76.6867C594.096 86.0498 592.102 94.2143 588.113 101.18C584.124 108.087 578.259 113.418 570.516 117.173C562.774 120.928 553.275 122.804 542.02 122.799H502.814V100.739H538.433C545.033 100.739 550.436 99.8199 554.64 97.9816C558.562 96.3892 561.849 93.5459 563.989 89.893C566.018 86.3341 567.035 81.9467 567.04 76.7308C567.045 71.5149 566.018 67.0417 563.96 63.3112C561.834 59.5438 558.535 56.5745 554.566 54.855C550.362 52.8941 544.938 51.926 538.293 51.9505H513.92V176.587H487.319ZM563.159 110.033L599.506 176.587H569.833L534.133 110.033H563.159Z" fill="#fff"/>
<path d="M649.185 178.808C642.717 178.91 636.301 177.627 630.369 175.043C624.982 172.688 620.399 168.811 617.183 163.888C613.958 158.986 612.344 152.915 612.339 145.674C612.339 139.458 613.485 134.311 615.779 130.233C618.02 126.228 621.255 122.87 625.172 120.482C629.348 117.962 633.88 116.087 638.616 114.923C643.729 113.645 648.926 112.731 654.169 112.188C660.622 111.516 665.856 110.906 669.869 110.357C673.882 109.808 676.808 108.948 678.645 107.776C680.488 106.609 681.409 104.781 681.409 102.29V101.857C681.409 96.4642 679.807 92.2827 676.602 89.312C673.397 86.3413 668.786 84.8707 662.769 84.9001C656.399 84.9001 651.369 86.2874 647.679 89.062C644.236 91.4923 641.621 94.9214 640.189 98.8859L615.933 95.4446C617.627 89.1343 620.88 83.3514 625.393 78.6278C629.901 74.012 635.419 70.5057 641.512 68.3848C648.29 66.0445 655.422 64.8928 662.592 64.9802C667.925 64.9901 673.238 65.6219 678.425 66.8626C683.548 68.0481 688.424 70.1237 692.831 72.9952C697.248 75.9085 700.863 79.8859 703.342 84.5618C705.998 89.4394 707.323 95.5353 707.318 102.849V176.587H682.372V161.454H681.519C677.831 168.439 671.648 173.776 664.202 176.403C659.38 178.097 654.294 178.911 649.185 178.808ZM655.926 159.734C660.631 159.852 665.289 158.782 669.472 156.623C673.105 154.707 676.153 151.843 678.292 148.336C680.361 144.948 681.443 141.049 681.416 137.078V124.093C680.169 124.963 678.771 125.594 677.293 125.953C675.159 126.575 672.992 127.079 670.803 127.46C668.416 127.897 666.052 128.279 663.71 128.608C661.367 128.936 659.336 129.223 657.616 129.468C654.063 129.917 650.574 130.784 647.223 132.049C644.423 133.064 641.93 134.78 639.983 137.034C638.209 139.167 637.325 141.905 637.33 145.248C637.33 150.027 639.074 153.635 642.563 156.072C646.052 158.508 650.506 159.729 655.926 159.734Z" fill="#fff"/>
<path d="M774.345 178.521C766.115 178.643 758.032 176.323 751.119 171.852C744.283 167.401 738.893 160.947 734.948 152.491C731.004 144.035 729.022 133.755 729.002 121.652C729.002 109.396 731.021 99.0576 735.059 90.6357C739.096 82.2138 744.555 75.8411 751.435 71.5174C758.325 67.1908 766.314 64.9393 774.448 65.0318C780.892 65.0318 786.197 66.1177 790.362 68.2893C794.162 70.1863 797.53 72.8472 800.255 76.1058C802.436 78.7578 804.333 81.6315 805.915 84.6796H806.988V29.7144H833.015V176.587H807.495V159.234H805.915C804.324 162.286 802.374 165.137 800.108 167.727C797.309 170.921 793.897 173.519 790.075 175.367C785.895 177.47 780.652 178.521 774.345 178.521ZM781.585 157.197C787.083 157.197 791.768 155.704 795.639 152.719C799.51 149.733 802.45 145.567 804.459 140.218C806.468 134.865 807.473 128.627 807.473 121.505C807.473 114.382 806.493 108.19 804.533 102.93C802.573 97.6703 799.657 93.5819 795.786 90.6651C791.915 87.7484 787.196 86.2777 781.63 86.2532C775.847 86.2532 771.021 87.7606 767.15 90.7754C763.278 93.7902 760.363 97.9571 758.403 103.276C756.351 109.125 755.355 115.292 755.463 121.49C755.348 127.743 756.344 133.967 758.403 139.873C760.1 144.845 763.156 149.241 767.223 152.564C771.104 155.672 775.891 157.224 781.585 157.219V157.197Z" fill="#fff"/>
<path d="M873.772 50.8032C869.824 50.8679 866.01 49.3724 863.158 46.6413C861.76 45.3882 860.643 43.8545 859.877 42.1403C859.112 40.4261 858.717 38.5697 858.717 36.6924C858.717 34.815 859.112 32.9587 859.877 31.2444C860.643 29.5302 861.76 27.9966 863.158 26.7435C866.061 24.0836 869.857 22.6114 873.793 22.6182C877.73 22.625 881.521 24.1104 884.415 26.7802C885.803 28.0389 886.912 29.5744 887.672 31.2878C888.431 33.0013 888.823 34.8548 888.823 36.7291C888.823 38.6034 888.431 40.4569 887.672 42.1704C886.912 43.8839 885.803 45.4194 884.415 46.678C881.547 49.3995 877.723 50.8815 873.772 50.8032ZM860.71 176.587V66.4361H886.657V176.587H860.71Z" fill="#fff"/>
<path d="M945.025 178.808C938.554 178.91 932.136 177.627 926.201 175.043C920.816 172.686 916.234 168.809 913.015 163.888C909.786 158.986 908.174 152.915 908.179 145.674C908.179 139.458 909.325 134.311 911.619 130.233C913.854 126.24 917.079 122.89 920.983 120.504C925.156 117.984 929.686 116.109 934.419 114.945C939.52 113.661 944.705 112.74 949.935 112.188C956.389 111.516 961.622 110.906 965.635 110.357C969.649 109.808 972.589 108.948 974.456 107.776C976.293 106.609 977.212 104.781 977.212 102.29V101.857C977.212 96.4642 975.612 92.2827 972.412 89.312C969.213 86.3413 964.602 84.8707 958.579 84.9001C952.209 84.9001 947.179 86.2874 943.489 89.062C940.043 91.4892 937.428 94.9193 935.999 98.8859L911.744 95.4446C913.44 89.1336 916.696 83.3506 921.211 78.6278C925.724 74.0075 931.25 70.5007 937.352 68.3848C944.128 66.0445 951.257 64.8927 958.425 64.9802C963.761 64.9828 969.08 65.6071 974.272 66.8406C979.395 68.0275 984.271 70.103 988.678 72.9732C993.096 75.8935 996.708 79.8787 999.182 84.5618C1001.83 89.4395 1003.15 95.5353 1003.16 102.849V176.587H978.212V161.454H977.352C973.67 168.44 967.488 173.779 960.042 176.403C955.22 178.097 950.134 178.911 945.025 178.808ZM951.758 159.734C956.466 159.849 961.127 158.777 965.312 156.616C968.944 154.697 971.991 151.834 974.132 148.329C976.198 144.94 977.278 141.041 977.249 137.071V124.093C976.005 124.965 974.609 125.596 973.133 125.953C970.999 126.575 968.832 127.078 966.642 127.46C964.256 127.897 961.889 128.279 959.542 128.608C957.195 128.936 955.164 129.223 953.449 129.468C949.895 129.918 946.407 130.784 943.056 132.049C940.258 133.068 937.766 134.783 935.816 137.034C933.981 139.368 933.04 142.281 933.162 145.248C933.162 150.027 934.907 153.635 938.395 156.072C941.884 158.508 946.339 159.729 951.758 159.734Z" fill="#fff"/>
<path d="M1207.38 66.4361V86.5104H1144.08V66.4361H1207.38ZM1159.72 40.0454H1185.66V143.454C1185.66 146.949 1186.2 149.613 1187.27 151.447C1188.21 153.166 1189.72 154.499 1191.54 155.211C1193.43 155.906 1195.42 156.248 1197.42 156.219C1198.93 156.23 1200.43 156.11 1201.91 155.858C1203.27 155.623 1204.31 155.403 1205.02 155.211L1209.43 175.506C1207.49 176.136 1205.52 176.664 1203.52 177.087C1200.44 177.717 1197.3 178.055 1194.16 178.095C1188.17 178.376 1182.18 177.373 1176.6 175.153C1171.55 173.102 1167.24 169.563 1164.24 165.006C1161.2 160.417 1159.71 154.68 1159.76 147.792L1159.72 40.0454Z" fill="#fff"/>
<path d="M1121.33 84.0031C1118.42 78.0805 1113.82 73.1615 1108.1 69.8776C1102.44 66.6275 1095.81 65.0024 1088.21 65.0024C1079.99 65.0024 1073.1 66.8187 1067.53 70.4512C1062.05 73.9713 1057.8 79.1116 1055.38 85.1576H1054.09V66.4363H1029.32V176.587H1055.27V112.041C1055.27 106.742 1056.25 102.224 1058.21 98.489C1060.08 94.8807 1062.97 91.9017 1066.52 89.9225C1070.21 87.8902 1074.38 86.8634 1078.6 86.9444C1085.29 86.9444 1090.53 89.0229 1094.33 93.18C1098.13 97.337 1100.03 103.099 1100.03 110.467V176.587H1125.98V106.452C1126.03 97.6581 1124.48 90.1749 1121.33 84.0031Z" fill="#fff"/>
</svg>
