<svg width="1455" height="240" viewBox="0 0 1455 240" fill="none" xmlns="http://www.w3.org/2000/svg">
<path d="M55.3137 2.85315C60.0821 2.85315 66.599 2.53526 74.8642 1.89947C82.8116 1.26367 88.6926 0.94578 92.5074 0.94578C113.965 0.94578 129.542 4.99894 139.238 13.1053C148.934 21.2116 153.782 33.53 153.782 50.0605C153.782 64.5247 150.444 76.9226 143.768 87.2542C137.092 97.5858 127.714 105.454 115.634 110.858C103.713 116.262 89.8847 118.964 74.149 118.964C67.6321 118.964 61.9895 118.805 57.2211 118.487L51.7374 165.695L80.3479 169.033L79.6326 180H0L1.19211 169.033L17.6432 165.695L36.9553 17.3968L20.2658 14.5358L21.6963 2.85315H55.3137ZM59.1284 103.705C63.579 104.659 68.9832 105.136 75.3411 105.136C89.3284 104.977 100.057 99.8905 107.528 89.8768C115.157 79.8632 119.052 66.1142 119.211 48.63C119.211 25.9005 108.482 14.5358 87.0237 14.5358C81.7784 14.5358 76.3742 15.0126 70.8111 15.9663L59.1284 103.705ZM205.457 78.9095C208.477 69.8495 213.643 61.9021 220.955 55.0674C228.425 48.0737 236.77 44.5768 245.989 44.5768C249.168 44.5768 251.87 45.2921 254.095 46.7226L247.181 81.0553C246.227 80.2605 244.638 79.5453 242.413 78.9095C240.346 78.1147 237.803 77.7174 234.783 77.7174C229.061 77.7174 223.577 78.9889 218.332 81.5321C213.087 83.9163 209.034 87.4132 206.173 92.0226L194.49 180H163.495L178.516 66.75L166.356 60.0742L168.025 50.5374L202.12 44.8153L207.603 48.1532L206.411 69.8495L205.457 78.9095ZM360.213 156.158C356.081 162.675 349.325 168.794 339.947 174.516C330.729 180.238 320 183.099 307.761 183.099C296.316 183.099 286.859 180.636 279.389 175.708C272.077 170.781 266.752 164.344 263.414 156.396C260.076 148.449 258.407 139.786 258.407 130.408C258.407 114.514 261.586 100.049 267.944 87.0158C274.461 73.8232 283.283 63.4121 294.409 55.7826C305.535 48.1532 317.933 44.3384 331.603 44.3384C343.842 44.3384 352.902 47.1995 358.783 52.9216C364.823 58.4847 367.843 65.7963 367.843 74.8563C367.843 86.3005 363.71 95.8374 355.445 103.467C347.18 111.096 337.245 116.818 325.642 120.633C314.039 124.289 303.072 126.276 292.74 126.594C292.422 138.038 294.25 147.257 298.224 154.251C302.356 161.244 308.555 164.741 316.821 164.741C330.49 164.741 342.888 158.383 354.014 145.667L360.213 156.158ZM324.45 59.1205C315.072 59.1205 307.681 64.7632 302.277 76.0484C296.873 87.3337 293.694 99.8905 292.74 113.719C298.939 113.401 305.456 111.732 312.291 108.712C319.284 105.692 325.086 101.48 329.695 96.0758C334.464 90.5126 336.848 84.1547 336.848 77.0021C336.848 71.28 335.735 66.9089 333.51 63.8889C331.444 60.71 328.424 59.1205 324.45 59.1205ZM422.551 136.369C421.438 145.588 420.882 151.151 420.882 153.058C420.882 156.714 421.597 159.337 423.028 160.926C424.458 162.357 426.922 163.072 430.419 163.072C433.598 163.072 437.174 162.357 441.148 160.926C445.28 159.337 448.698 157.429 451.4 155.204L454.023 164.026C449.89 168.635 444.009 172.847 436.379 176.662C428.75 180.477 420.167 182.384 410.63 182.384C403.954 182.384 398.629 180.715 394.656 177.377C390.841 173.881 388.934 168.397 388.934 160.926C388.934 157.747 389.728 150.277 391.318 138.515L401.332 64.6042H387.026L389.649 53.16L403.954 48.1532C408.723 43.7026 414.365 32.7353 420.882 15.251H438.764L434.71 47.6763H463.321L460.937 64.6042H432.326L422.551 136.369ZM507.302 136.369C506.19 145.588 505.633 151.151 505.633 153.058C505.633 156.714 506.349 159.337 507.779 160.926C509.21 162.357 511.673 163.072 515.17 163.072C518.349 163.072 521.925 162.357 525.899 160.926C530.032 159.337 533.449 157.429 536.151 155.204L538.774 164.026C534.641 168.635 528.76 172.847 521.131 176.662C513.501 180.477 504.918 182.384 495.381 182.384C488.705 182.384 483.381 180.715 479.407 177.377C475.592 173.881 473.685 168.397 473.685 160.926C473.685 157.747 474.48 150.277 476.069 138.515L486.083 64.6042H471.778L474.4 53.16L488.705 48.1532C493.474 43.7026 499.116 32.7353 505.633 15.251H523.515L519.462 47.6763H548.072L545.688 64.6042H517.078L507.302 136.369ZM561.059 70.3263C560.423 67.6242 559.708 65.7963 558.913 64.8426C558.118 63.73 557.085 63.1737 555.813 63.1737C553.747 63.1737 551.363 64.2863 548.661 66.5116L545.323 58.4053C547.23 55.8621 550.807 53.001 556.052 49.8221C561.456 46.4842 567.178 44.8153 573.218 44.8153C579.417 44.8153 584.027 46.1663 587.047 48.8684C590.067 51.4116 591.974 55.3853 592.769 60.7895L606.597 151.389L609.935 177.616L621.141 154.966C627.976 140.661 633.141 128.104 636.638 117.295C640.294 106.487 642.122 96.1553 642.122 86.3005C642.122 83.2805 641.883 80.7374 641.407 78.6711C640.93 76.6047 640.215 74.2205 639.261 71.5184C637.512 67.0679 636.638 62.8558 636.638 58.8821C636.638 54.5905 637.91 51.1732 640.453 48.63C643.155 46.0868 646.97 44.8153 651.897 44.8153C657.619 44.8153 662.07 47.0405 665.249 51.491C668.587 55.9416 670.256 61.3458 670.256 67.7037C670.256 78.9889 668.428 89.7179 664.772 99.8905C661.116 109.904 655.553 122.382 648.082 137.323C642.837 148.767 636.002 161.483 627.578 175.47C619.313 189.298 612.001 200.981 605.643 210.518C599.127 220.849 592.133 228.32 584.662 232.929C577.351 237.539 568.609 239.844 558.436 239.844C554.303 239.844 549.773 239.287 544.846 238.175C540.078 237.221 536.819 236.188 535.071 235.075L542.462 214.333C544.21 215.922 547.151 217.353 551.283 218.624C555.416 219.896 559.469 220.532 563.443 220.532C570.596 220.532 577.43 217.988 583.947 212.902C590.623 207.975 597.219 199.868 603.736 188.583H586.57L561.059 70.3263ZM829.398 20.0195C824.471 16.0458 817.556 14.0589 808.655 14.0589C799.913 14.0589 792.761 16.2047 787.197 20.4963C781.793 24.6289 779.091 30.2716 779.091 37.4242C779.091 45.8484 781.634 53.001 786.721 58.8821C791.966 64.6042 800.549 71.2005 812.47 78.6711C823.914 85.8237 832.895 93.2942 839.412 101.083C846.087 108.871 849.425 118.249 849.425 129.216C849.584 139.23 847.121 148.29 842.034 156.396C836.948 164.503 829.398 170.94 819.384 175.708C809.529 180.318 797.688 182.623 783.859 182.623C772.574 182.623 761.766 181.431 751.434 179.046C741.103 176.503 734.347 174.039 731.168 171.655L737.367 136.131H757.156L758.348 161.642C761.209 163.867 764.786 165.615 769.077 166.887C773.528 168.158 778.296 168.794 783.383 168.794C794.191 168.794 802.615 166.41 808.655 161.642C814.854 156.714 817.954 150.118 817.954 141.853C817.954 134.223 815.569 127.706 810.801 122.302C806.033 116.739 798.244 110.54 787.436 103.705C775.515 96.2347 766.057 88.3668 759.064 80.1016C752.229 71.8363 748.732 62.1405 748.573 51.0142C748.573 40.6826 751.275 31.7021 756.679 24.0726C762.084 16.4432 769.475 10.6416 778.853 6.66788C788.389 2.6942 799.118 0.707362 811.04 0.707362C831.226 0.707362 846.326 3.72736 856.34 9.76736L850.379 43.1463H832.259L829.398 20.0195ZM907.775 136.369C906.662 145.588 906.106 151.151 906.106 153.058C906.106 156.714 906.821 159.337 908.252 160.926C909.682 162.357 912.146 163.072 915.643 163.072C918.822 163.072 922.398 162.357 926.372 160.926C930.505 159.337 933.922 157.429 936.624 155.204L939.247 164.026C935.114 168.635 929.233 172.847 921.604 176.662C913.974 180.477 905.391 182.384 895.854 182.384C889.178 182.384 883.854 180.715 879.88 177.377C876.065 173.881 874.158 168.397 874.158 160.926C874.158 157.747 874.952 150.277 876.542 138.515L886.556 64.6042H872.25L874.873 53.16L889.178 48.1532C893.947 43.7026 899.589 32.7353 906.106 15.251H923.988L919.935 47.6763H948.545L946.161 64.6042H917.55L907.775 136.369ZM1025.43 44.3384C1041.96 44.3384 1054.6 49.1863 1063.34 58.8821C1072.08 68.4189 1076.45 82.1679 1076.45 100.129C1076.45 114.911 1073.43 128.66 1067.39 141.376C1061.35 154.092 1052.85 164.264 1041.88 171.894C1030.91 179.364 1018.36 183.099 1004.21 183.099C987.678 183.099 975.042 178.252 966.3 168.556C957.717 158.701 953.425 144.714 953.425 126.594C953.425 111.653 956.366 97.9037 962.247 85.3468C968.287 72.79 976.791 62.8558 987.758 55.5442C998.725 48.0737 1011.28 44.3384 1025.43 44.3384ZM1021.38 59.3589C1014.06 59.3589 1007.86 62.6968 1002.78 69.3726C997.692 75.8895 993.877 84.2342 991.334 94.4068C988.95 104.579 987.758 114.991 987.758 125.64C987.758 140.74 989.427 151.787 992.765 158.781C996.262 165.774 1001.67 169.271 1008.98 169.271C1016.13 169.271 1022.17 165.933 1027.1 159.257C1032.02 152.582 1035.68 144.078 1038.06 133.746C1040.45 123.415 1041.64 112.845 1041.64 102.036C1041.64 86.9363 1039.97 76.0484 1036.63 69.3726C1033.46 62.6968 1028.37 59.3589 1021.38 59.3589ZM1141.98 73.4258C1147.87 64.6837 1154.86 57.69 1162.97 52.4447C1171.07 47.1995 1179.58 44.5768 1188.48 44.5768C1208.19 44.5768 1218.04 56.2595 1218.04 79.6247C1218.04 85.8237 1216.05 99.6521 1212.08 121.11C1211.44 125.243 1210.89 128.422 1210.41 130.647C1208.19 143.204 1206.99 152.264 1206.84 157.827V158.781C1206.84 162.754 1208.11 164.741 1210.65 164.741C1212.08 164.741 1213.59 164.344 1215.18 163.549C1216.77 162.754 1218.84 161.324 1221.38 159.257L1224.72 166.648C1222.33 169.986 1218.44 173.483 1213.03 177.139C1207.63 180.636 1201.03 182.384 1193.25 182.384C1185.77 182.384 1180.61 180.795 1177.75 177.616C1174.89 174.278 1173.46 169.907 1173.46 164.503C1173.62 159.734 1175.13 150.277 1177.99 136.131L1179.42 128.024C1179.73 126.594 1180.37 122.779 1181.32 116.58C1182.44 110.381 1183.31 104.5 1183.95 98.9368C1184.58 93.2147 1184.9 88.2874 1184.9 84.1547C1184.9 76.8432 1184.03 71.8363 1182.28 69.1342C1180.69 66.4321 1177.75 65.081 1173.46 65.081C1168.21 65.081 1162.33 68.0216 1155.81 73.9026C1149.46 79.7837 1143.97 86.8568 1139.36 95.1221L1127.92 180H1096.68L1111.94 66.5116L1099.78 60.0742L1101.69 50.2989L1138.89 44.5768L1144.37 47.1995L1141.98 73.4258ZM1345.33 156.158C1341.2 162.675 1334.44 168.794 1325.06 174.516C1315.85 180.238 1305.12 183.099 1292.88 183.099C1281.43 183.099 1271.98 180.636 1264.51 175.708C1257.19 170.781 1251.87 164.344 1248.53 156.396C1245.19 148.449 1243.52 139.786 1243.52 130.408C1243.52 114.514 1246.7 100.049 1253.06 87.0158C1259.58 73.8232 1268.4 63.4121 1279.53 55.7826C1290.65 48.1532 1303.05 44.3384 1316.72 44.3384C1328.96 44.3384 1338.02 47.1995 1343.9 52.9216C1349.94 58.4847 1352.96 65.7963 1352.96 74.8563C1352.96 86.3005 1348.83 95.8374 1340.56 103.467C1332.3 111.096 1322.36 116.818 1310.76 120.633C1299.16 124.289 1288.19 126.276 1277.86 126.594C1277.54 138.038 1279.37 147.257 1283.34 154.251C1287.47 161.244 1293.67 164.741 1301.94 164.741C1315.61 164.741 1328 158.383 1339.13 145.667L1345.33 156.158ZM1309.57 59.1205C1300.19 59.1205 1292.8 64.7632 1287.39 76.0484C1281.99 87.3337 1278.81 99.8905 1277.86 113.719C1284.06 113.401 1290.57 111.732 1297.41 108.712C1304.4 105.692 1310.2 101.48 1314.81 96.0758C1319.58 90.5126 1321.96 84.1547 1321.96 77.0021C1321.96 71.28 1320.85 66.9089 1318.63 63.8889C1316.56 60.71 1313.54 59.1205 1309.57 59.1205ZM1450.35 70.3263C1448.44 68.101 1445.26 65.7963 1440.81 63.4121C1436.52 61.0279 1431.51 59.8358 1425.79 59.8358C1419.43 59.8358 1414.26 61.2663 1410.29 64.1274C1406.48 66.8295 1404.57 70.8826 1404.57 76.2868C1404.57 81.0553 1406.16 85.3468 1409.34 89.1616C1412.67 92.8174 1418 97.2679 1425.31 102.513C1433.42 108.553 1439.62 114.434 1443.91 120.156C1448.2 125.719 1450.35 132.872 1450.35 141.614C1450.35 150.356 1447.96 157.827 1443.19 164.026C1438.42 170.066 1432.07 174.675 1424.12 177.854C1416.17 180.874 1407.43 182.384 1397.89 182.384C1390.74 182.384 1383.43 181.589 1375.96 180C1368.49 178.252 1363.64 176.424 1361.41 174.516L1366.18 154.251C1369.52 157.112 1374.05 159.814 1379.77 162.357C1385.49 164.9 1391.46 166.172 1397.65 166.172C1403.54 166.172 1408.54 164.821 1412.67 162.118C1416.97 159.416 1419.11 155.204 1419.11 149.482C1419.11 144.555 1417.28 140.104 1413.63 136.131C1409.97 132.157 1404.49 127.627 1397.18 122.541C1390.5 117.931 1384.86 112.527 1380.25 106.328C1375.8 99.97 1373.57 92.3405 1373.57 83.4395C1373.57 75.81 1375.72 69.0547 1380.01 63.1737C1384.46 57.2926 1390.5 52.7626 1398.13 49.5837C1405.92 46.2458 1414.82 44.5768 1424.83 44.5768C1430.72 44.5768 1436.68 45.0537 1442.72 46.0074C1448.76 46.961 1452.81 47.9942 1454.88 49.1068L1450.35 70.3263Z" fill="white"/>
</svg>
