<svg width="1140" height="234" viewBox="0 0 1140 234" fill="none" xmlns="http://www.w3.org/2000/svg">
<path d="M0.223906 234V12.5498H44.8215L125.097 108.204L205.065 12.5498H249.971V234H209.064V71.6032L125.097 171.563L40.8231 71.9107V234H0.223906ZM326.474 234C318.682 234 311.608 232.052 305.251 228.156C298.895 224.26 293.769 219.134 289.873 212.778C285.977 206.421 284.029 199.347 284.029 191.555V98.0542C284.029 90.2624 285.977 83.1883 289.873 76.8319C293.769 70.4754 298.895 65.3492 305.251 61.4534C311.608 57.5575 318.682 55.6095 326.474 55.6095H422.743C430.535 55.6095 437.609 57.5575 443.965 61.4534C450.527 65.3492 455.653 70.4754 459.344 76.8319C463.24 83.1883 465.188 90.2624 465.188 98.0542V165.104H324.321V190.018C324.321 191.043 324.628 191.965 325.243 192.786C326.064 193.401 326.986 193.708 328.012 193.708H465.188V234H326.474ZM324.321 128.811H424.896V99.592C424.896 98.5668 424.486 97.7466 423.666 97.1315C423.051 96.3113 422.23 95.9012 421.205 95.9012H328.012C326.986 95.9012 326.064 96.3113 325.243 97.1315C324.628 97.7466 324.321 98.5668 324.321 99.592V128.811ZM540.045 234C532.253 234 525.179 232.052 518.823 228.156C512.466 224.26 507.34 219.134 503.444 212.778C499.548 206.421 497.6 199.347 497.6 191.555V0.862138H537.892V55.6095H607.403V95.9012H537.892V190.018C537.892 191.043 538.199 191.965 538.815 192.786C539.635 193.401 540.557 193.708 541.583 193.708H607.403V234H540.045ZM681.207 234C673.416 234 666.239 232.052 659.677 228.156C653.321 224.26 648.195 219.134 644.299 212.778C640.608 206.421 638.763 199.347 638.763 191.555V124.505H779.63V99.592C779.63 98.5668 779.22 97.7466 778.399 97.1315C777.784 96.3113 776.964 95.9012 775.939 95.9012H638.763V55.6095H777.477C785.268 55.6095 792.342 57.5575 798.699 61.4534C805.26 65.3492 810.387 70.4754 814.077 76.8319C817.973 83.1883 819.921 90.2624 819.921 98.0542V234H681.207ZM682.745 193.708H779.63V160.798H679.054V190.018C679.054 191.043 679.362 191.965 679.977 192.786C680.797 193.401 681.72 193.708 682.745 193.708ZM975.347 234L847.091 12.5498H894.456L993.494 184.789L1092.84 12.5498H1139.9L1011.64 234H975.347Z" fill="white"/>
</svg>
