<?xml version="1.0" encoding="utf-8"?>
<!-- Generator: Adobe Illustrator 26.0.3, SVG Export Plug-In . SVG Version: 6.00 Build 0)  -->
<svg version="1.1" id="Layer_1" xmlns="http://www.w3.org/2000/svg" xmlns:xlink="http://www.w3.org/1999/xlink" x="0px" y="0px"
	 viewBox="0 0 1193.3 203.5" style="enable-background:new 0 0 1193.3 203.5;" xml:space="preserve">
<style type="text/css">
	.st0{fill:#D8EBF2;}
	.st1{fill:#FDEF00;}
</style>
<g id="Layer_2_00000178171837645622181240000002906466913882409642_">
	<g id="Layer_1-2">
		<path class="st0" d="M1063,45.4v22.7h-18.4v87.1h-24.5V68.1h-13.5V45.4h12.3v-3.1c0-11.6,3.1-20.2,9.8-25.8
			c6.1-6.1,15.9-8.6,28.8-8.6h5.5v22.7h-1.8c-6.1,0-9.8,1.2-12.3,3.1s-3.7,4.9-3.7,9.2v2.5H1063z"/>
		<path class="st0" d="M950.3,155.2V49.7h25.1v105.5H950.3z M963.2,8c8.4-0.1,15.2,6.6,15.3,15c0,0.1,0,0.2,0,0.3
			c0,9.2-6.8,15.9-15.3,15.9c-8.5,0.3-15.7-6.4-15.9-15c0-0.3,0-0.6,0-1C947.2,14.8,954,8,963.2,8z"/>
		<polygon class="st0" points="894,155.2 894,9.9 919.2,9.9 919.2,155.2 		"/>
		<path class="st0" d="M1165.7,85.8c-1.8-7.3-5.5-12.8-11-16.6c-4.9-3.7-11.7-5.5-19.6-5.5c-6.8,0-12.9,1.8-17.8,6.1
			c-5.5,4.3-9.2,9.2-11,15.9H1165.7z M1105,106c1.2,8,4.3,14.7,9.8,19s12.3,6.7,20.8,6.7c5.3,0.1,10.6-1.2,15.3-3.7
			c4.5-2.2,8.3-5.6,11-9.8h27.6c-4.9,11.7-11.7,20.9-20.8,27.6s-20.2,9.8-32.5,9.8c-7.8,0.1-15.5-1.3-22.7-4.3
			c-7.1-2.7-13.4-7.1-18.4-12.9c-5.1-5.4-9.3-11.6-12.3-18.4c-2.4-7.4-4.3-14.1-4.3-22.1c0-7.4,1.8-14.7,4.3-21.5
			c2.6-6.7,6.5-12.8,11.7-17.8c5.5-6.1,11.7-11,19-14.1c6.7-3.1,14-4.8,21.5-4.9c9.4,0,18.7,2.4,27,6.7c8.3,4.4,15.4,10.7,20.8,18.4
			c3.7,4.3,6.1,9.8,8,15.9c1.8,5.5,2.5,12.3,2.5,19.6v5.5H1105z"/>
		<path class="st1" d="M702.4,155.2V49.7h25.1v105.5H702.4z M715.3,8c8.4-0.1,15.2,6.6,15.3,15c0,0.1,0,0.2,0,0.3
			c0,9.2-6.7,16-15.3,16c-8.5,0.3-15.7-6.4-16-15c0-0.3,0-0.6,0-1C699.3,14.8,706.1,8,715.3,8z"/>
		<path class="st1" d="M430.5,41.6c-31.3,0-56.9,25.8-56.9,57s25.8,57,57.1,57c11.6,0,23.8-3.7,32-9.8v9.3h24.5V98.7
			C487.2,67.4,461.8,41.6,430.5,41.6z M430.8,130.6c-17.6,0-31.9-14.3-31.9-31.9s14.3-31.9,31.9-31.9c17.6,0,31.9,14.3,31.9,31.9
			c0,0,0,0,0,0c0.1,17.5-14,31.8-31.4,31.9C431.1,130.6,431,130.6,430.8,130.6L430.8,130.6z"/>
		<path class="st1" d="M89.2,0v51.5c-10.2-6.1-20.4-9.8-32.1-9.8C25.6,41.6,0,67,0,98.5s25.4,57.1,56.9,57.1
			c31.3,0,56.9-25.8,56.9-57V0H89.2z M56.9,130.6c-17.8,0-32.5-14.1-32.5-31.9s14.7-31.9,32.5-31.9c17.6,0.3,31.6,14.8,31.3,32.4
			C87.9,116.4,74.1,130.2,56.9,130.6z"/>
		<path class="st1" d="M809.7,41.6c26.1-0.1,48.9,17.6,55.2,42.9h-26.4c-7.8-15.8-26.9-22.3-42.7-14.5
			c-15.8,7.8-22.3,26.9-14.5,42.7s26.9,22.3,42.7,14.5c6.3-3.1,11.4-8.2,14.5-14.5h26.4c-6.3,25.3-29.1,43-55.2,42.9
			c-31.5,0-57-25.5-57-57S778.2,41.7,809.7,41.6L809.7,41.6z"/>
		<path class="st1" d="M280.5,155.2V90.8c0.2-12.5,10.2-22.5,22.7-22.7l0,0c12.9,0,23.3,10.4,23.3,22.7v64.4h25.1V91.4
			c-0.1-26.7-21.7-48.4-48.4-48.4l0,0c-26.4,0-48.4,22.1-48.4,48.4v63.8L280.5,155.2z"/>
		<path class="st1" d="M606.2,155.2V90.8c0.2-12.5,10.2-22.5,22.7-22.7l0,0c12.9,0,23.3,10.4,23.3,22.7v64.4h25.1V91.4
			c-0.1-26.7-21.7-48.4-48.4-48.4l0,0c-13.6,0-26.5,5.8-35.6,15.9c-9-10.2-22-16-35.6-15.9l0,0c-26.7,0.1-48.4,21.7-48.5,48.4v63.8
			H535V90.8c0-12.5,10.1-22.7,22.6-22.7c0,0,0.1,0,0.1,0l0,0c12.5,0.2,22.5,10.2,22.7,22.7v0.6l0,0v63.8L606.2,155.2L606.2,155.2z"
			/>
		<path class="st1" d="M232.6,166.1c-2,7.7-5.8,14.8-11,20.8c-9.2,11-21.5,16.6-38,16.6c-11.7,0-22.1-3.1-30.1-9.2
			c-8-6.7-14.1-15.9-17.8-28.2h22.7c1.9,4.9,5.3,9,9.8,11.6c4.6,2.9,9.9,4.4,15.3,4.3c9.2,0,16.6-3.1,22.7-9.8c1.3-2,2.6-4,3.7-6.1
			L232.6,166.1z M161.5,44.1v63.8c0,12.9,9.8,23.3,22.7,23.3l0,0c12.3,0,22.7-10.4,22.7-23.3V44.1h25.8v63.2
			c-0.1,26.7-21.7,48.4-48.4,48.4l0,0c-26.6,0.2-48.3-21.3-48.5-47.9c0-0.2,0-0.4,0-0.6V44.1L161.5,44.1z"/>
	</g>
</g>
</svg>
