<svg width="803" height="812" viewBox="0 0 803 812" fill="none" xmlns="http://www.w3.org/2000/svg">
<path d="M227.567 222.221C227.567 201.663 219.658 150.92 294.914 150.92C367.415 150.92 349.679 242.542 349.679 242.542H534.585C534.585 242.542 574.49 0 277.299 0C103.897 0 0 76.4109 0 193.345C0 420.319 350.398 374.687 350.398 487.342C350.398 542.363 322.956 572.072 259.084 572.072C131.22 572.072 158.662 466.665 158.662 466.665H1.67769V639.689C44.4589 699.106 127.864 751.988 289.282 751.988C318.954 752.105 348.57 749.399 377.721 743.907V571.359H591.267C596.687 554.767 599.555 537.461 599.775 520.022C599.655 267.26 227.567 349.256 227.567 222.221Z" fill="black"/>
<path d="M617.272 621.864H425.535V812H617.272V621.864Z" fill="black"/>
<path d="M802.657 556.386H682.822V675.221H802.657V556.386Z" fill="#00CC61"/>
</svg>
