<svg width="1104" height="300" viewBox="0 0 1104 300" fill="none" xmlns="http://www.w3.org/2000/svg">
<path d="M416.991 118.947C414.395 114.158 410.635 110.532 405.715 108.068C400.93 105.469 395.258 104.168 388.697 104.168C377.352 104.168 368.263 107.932 361.429 115.458C354.594 122.847 351.177 132.769 351.177 145.221C351.177 158.494 354.731 168.895 361.839 176.421C369.083 183.811 378.992 187.505 391.568 187.505C400.179 187.505 407.424 185.316 413.301 180.937C419.315 176.558 423.689 170.263 426.423 162.053H381.931V136.189H458.202V168.826C455.605 177.584 451.162 185.727 444.875 193.253C438.724 200.779 430.865 206.869 421.297 211.521C411.729 216.173 400.93 218.5 388.902 218.5C374.687 218.5 361.975 215.421 350.767 209.263C339.696 202.969 331.016 194.279 324.728 183.195C318.578 172.111 315.502 159.453 315.502 145.221C315.502 130.989 318.578 118.332 324.728 107.247C331.016 96.0266 339.696 87.3368 350.767 81.1789C361.839 74.8845 374.482 71.7368 388.697 71.7368C405.92 71.7368 420.408 75.9108 432.163 84.2579C444.055 92.605 451.915 104.168 455.742 118.947H416.991ZM512.682 122.026C516.783 115.732 521.908 110.806 528.059 107.247C534.21 103.553 541.045 101.705 548.562 101.705V138.858H538.926C530.178 138.858 523.617 140.774 519.243 144.605C514.869 148.3 512.682 154.868 512.682 164.311V217.474H477.622V102.937H512.682V122.026ZM617.397 219.116C606.189 219.116 596.074 216.721 587.053 211.932C578.168 207.142 571.129 200.3 565.935 191.405C560.877 182.51 558.349 172.111 558.349 160.205C558.349 148.437 560.946 138.106 566.14 129.211C571.334 120.179 578.442 113.269 587.463 108.479C596.484 103.689 606.599 101.295 617.807 101.295C629.015 101.295 639.13 103.689 648.152 108.479C657.173 113.269 664.28 120.179 669.475 129.211C674.668 138.106 677.266 148.437 677.266 160.205C677.266 171.974 674.6 182.374 669.27 191.405C664.075 200.3 656.899 207.142 647.742 211.932C638.72 216.721 628.605 219.116 617.397 219.116ZM617.397 188.737C624.095 188.737 629.767 186.274 634.415 181.347C639.198 176.421 641.591 169.373 641.591 160.205C641.591 151.037 639.267 143.989 634.62 139.063C630.109 134.137 624.505 131.674 617.807 131.674C610.973 131.674 605.301 134.137 600.79 139.063C596.279 143.853 594.024 150.9 594.024 160.205C594.024 169.373 596.211 176.421 600.585 181.347C605.096 186.274 610.699 188.737 617.397 188.737ZM860.09 102.937L829.13 217.474H790.38L772.341 143.168L753.684 217.474H715.138L683.974 102.937H719.034L735.231 184.837L754.504 102.937H791.61L811.088 184.426L827.08 102.937H860.09ZM930.872 132.084H912.009V217.474H876.949V132.084H864.237V102.937H876.949V99.6526C876.949 85.5582 880.979 74.8845 889.046 67.6316C897.113 60.2421 908.934 56.5474 924.516 56.5474C927.11 56.5474 929.027 56.6158 930.257 56.7526V86.5158C923.562 86.1053 918.846 87.0629 916.11 89.3895C913.373 91.716 912.009 95.8892 912.009 101.911V102.937H930.872V132.084ZM1064.21 102.937L992.451 271.868H954.726L980.97 213.574L934.428 102.937H973.589L1000.04 174.574L1026.28 102.937H1064.21Z" fill="white"/>
<path d="M158.908 83.2632C158.908 52.742 183.622 28 214.108 28H269.308V83.2632C269.308 113.784 244.594 138.526 214.108 138.526C183.622 138.526 158.908 113.784 158.908 83.2632Z" fill="#FF6D35"/>
<path d="M214.107 271.113C183.621 271.113 158.907 246.371 158.907 215.85V160.587H214.107C244.593 160.587 269.307 185.329 269.307 215.85C269.307 246.371 244.593 271.113 214.107 271.113Z" fill="#5CC97B"/>
<path d="M141.514 143.418C141.514 82.0884 95.617 32.3719 39 32.3719V213.691C39 244.355 61.9485 269.214 90.2579 269.214C118.566 269.214 141.514 244.355 141.514 213.691V143.418Z" fill="#3D96F4"/>
</svg>
