<svg width="566" height="133" viewBox="0 0 566 133" fill="none" xmlns="http://www.w3.org/2000/svg">
<g clip-path="url(#clip0_65_1084)">
<path d="M467.457 6.22327V6.22332L467.467 6.22322C468.651 6.21145 469.825 6.436 470.921 6.88374C472.017 7.33148 473.013 7.99342 473.85 8.83081C474.688 9.66821 475.349 10.6642 475.797 11.7606C476.245 12.857 476.469 14.0317 476.458 15.2159L476.458 15.2159V15.2259C476.458 20.7077 472.479 24.6398 467.457 24.6398H467.442L467.426 24.6402C466.184 24.6786 464.947 24.4621 463.791 24.0041C462.636 23.5461 461.586 22.8564 460.708 21.9773C459.829 21.0982 459.139 20.0484 458.681 18.8926C458.223 17.7367 458.007 16.4994 458.045 15.2567L458.046 15.2413V15.2259C458.046 10.221 461.978 6.22327 467.457 6.22327ZM460.05 100.319V33.4627H474.46V100.319H460.05Z" stroke="#FDEF00" stroke-width="2"/>
<path d="M303.608 95.2205V93.2256L302.009 94.4192C296.85 98.2727 289.144 100.619 281.719 100.619C261.858 100.619 245.44 84.2522 245.44 64.4031C245.44 44.5485 261.706 28.1872 281.563 28.1872C301.415 28.1872 317.575 44.5444 317.601 64.4174V100.293H303.608V95.2205ZM269.649 82.5632C273.237 84.9595 277.454 86.2382 281.768 86.2375C284.638 86.2561 287.483 85.7045 290.138 84.6146C292.794 83.5243 295.207 81.9171 297.237 79.8862C299.267 77.8553 300.873 75.4414 301.962 72.7845C303.051 70.1286 303.601 67.2829 303.582 64.4125C303.581 60.0977 302.301 55.8799 299.905 52.2923C297.507 48.7036 294.099 45.9067 290.112 44.2553C286.125 42.6038 281.738 42.1721 277.506 43.0146C273.274 43.8572 269.387 45.9362 266.336 48.9886C263.285 52.0411 261.208 55.9299 260.367 60.1633C259.526 64.3966 259.959 68.7843 261.611 72.7715C263.263 76.7587 266.061 80.1662 269.649 82.5632Z" stroke="#FDEF00" stroke-width="2"/>
<path d="M59.7608 33.5922V1H73.7536V64.4031C73.7536 84.2573 57.501 100.618 37.6462 100.619C28.0435 100.596 18.843 96.7589 12.0688 89.951C5.29461 83.1431 1.50165 73.9224 1.52439 64.3173C1.54714 54.7122 5.38372 45.5095 12.1901 38.7338C15.5602 35.3789 19.558 32.7207 23.9552 30.9111C28.3525 29.1015 33.0629 28.1759 37.8178 28.1872H37.8201C45.1944 28.1872 51.7014 30.5116 58.2453 34.4491L59.7608 35.361V33.5922ZM37.7026 86.2374H37.7115L37.7203 86.2373C43.4387 86.136 48.8887 83.7927 52.8968 79.7121C56.9049 75.6314 59.1507 70.1398 59.1507 64.4194C59.1507 58.699 56.9049 53.2073 52.8968 49.1267C48.8887 45.0461 43.4387 42.7028 37.7203 42.6015L37.7115 42.6013H37.7026C25.5627 42.6013 15.4878 52.2239 15.4878 64.4161C15.4878 76.608 25.5623 86.2374 37.7026 86.2374Z" stroke="#FDEF00" stroke-width="2"/>
<path d="M563.799 74.6287H564.839C562.705 82.2449 558.184 88.9867 551.927 93.8533C545.398 98.9318 537.356 101.675 529.085 101.645C519.217 101.645 509.753 97.7242 502.775 90.7448C495.797 83.7655 491.877 74.2995 491.877 64.4292C491.877 54.5589 495.797 45.0929 502.775 38.1136C509.753 31.1343 519.217 27.2133 529.085 27.2133V27.1872M563.799 74.6287C563.895 74.2971 563.986 73.9637 564.072 73.6287H547.897M563.799 74.6287C561.693 81.9285 557.327 88.3865 551.313 93.0639C544.961 98.0052 537.136 100.674 529.088 100.645H529.085C519.482 100.645 510.272 96.8296 503.482 90.0378C496.692 83.246 492.877 74.0343 492.877 64.4292C492.877 54.8241 496.692 45.6124 503.482 38.8206C510.272 32.0288 519.482 28.2133 529.085 28.2133H530.085V28.1974M563.799 74.6287H548.509M547.897 73.6287C545.819 77.8442 542.376 81.2322 538.128 83.2417C533.88 85.2513 529.077 85.7641 524.5 84.6968C519.924 83.6294 515.843 81.0447 512.922 77.3631C510.001 73.6815 508.411 69.1196 508.411 64.4194C508.411 59.7192 510.001 55.1573 512.922 51.4757C515.843 47.7941 519.924 45.2094 524.5 44.142C529.077 43.0747 533.88 43.5875 538.128 45.5971C542.376 47.6066 545.819 50.9947 547.897 55.2101M547.897 73.6287L548.794 74.0709C548.702 74.2584 548.607 74.4444 548.509 74.6287M547.897 73.6287V74.6287H548.509M547.897 55.2101H564.073C563.986 54.8751 563.895 54.5417 563.8 54.2101M547.897 55.2101V54.2101H548.509M547.897 55.2101L548.794 54.7679C548.702 54.5804 548.607 54.3944 548.509 54.2101M563.8 54.2101H564.839C562.707 46.5927 558.186 39.8494 551.929 34.9816C545.663 30.1067 538.003 27.3827 530.085 27.1971V27.2133V28.1974M563.8 54.2101H548.509M563.8 54.2101C561.694 46.9091 557.329 40.4496 551.315 35.7709C545.225 31.0326 537.781 28.3828 530.085 28.1974M530.085 28.1974C529.753 28.1894 529.421 28.186 529.088 28.1872L529.085 27.2133L529.085 27.1872M529.085 27.1872H529.35C529.262 27.1869 529.173 27.1869 529.085 27.1872ZM548.509 74.6287C546.308 78.7876 542.818 82.129 538.555 84.1457C534.103 86.2518 529.07 86.7893 524.273 85.6706C519.477 84.552 515.2 81.8431 512.139 77.9847C509.077 74.1263 507.411 69.3453 507.411 64.4194C507.411 59.4935 509.077 54.7125 512.139 50.8541C515.2 46.9957 519.477 44.2868 524.273 43.1682C529.07 42.0496 534.103 42.587 538.555 44.6931C542.818 46.7098 546.308 50.0512 548.509 54.2101" stroke="#FDEF00" stroke-width="2"/>
<path d="M182.609 59.2704L182.609 59.2704V59.2843V100.319L167.807 100.331V59.7021C167.807 43.0371 181.765 29.0757 198.419 29.0751C206.533 29.0921 214.309 32.3226 220.048 38.0601C225.786 43.7974 229.02 51.5745 229.04 59.69C229.04 59.6905 229.04 59.691 229.04 59.6915L229.04 100.319H214.636V59.2843C214.636 50.7095 207.362 43.4762 198.42 43.4762V43.4762L198.407 43.4763C194.235 43.5322 190.25 45.214 187.3 48.1637C184.35 51.1135 182.667 55.0984 182.609 59.2704Z" stroke="#FDEF00" stroke-width="2"/>
<path d="M441.646 59.6918V100.319H427.235V59.2843C427.235 50.7101 419.968 43.4763 411.026 43.4762L411.012 43.4764C406.841 43.5322 402.856 45.214 399.906 48.1638C396.955 51.1135 395.272 55.0984 395.214 59.2705L395.214 59.2705V59.2843V100.319H380.406V59.6891V59.2843H380.406L380.406 59.2704C380.348 55.096 378.663 51.1091 375.709 48.1589C372.756 45.2088 368.768 43.5286 364.594 43.4763V43.4763L364.584 43.4763C362.506 43.4708 360.448 43.8759 358.527 44.6684C356.607 45.4609 354.861 46.6252 353.392 48.0943C351.923 49.5635 350.758 51.3085 349.965 53.2292C349.172 55.1495 348.766 57.2075 348.77 59.2852V100.332H333.974V59.7033C333.993 51.5848 337.226 43.8043 342.966 38.0642C348.706 32.324 356.486 29.0919 364.603 29.0752L364.604 29.0752C368.848 29.0605 373.046 29.9504 376.919 31.6858C380.792 33.4211 384.251 35.9619 387.065 39.1391L387.813 39.9844L388.562 39.1389C391.376 35.9612 394.834 33.42 398.707 31.6846C402.58 29.9492 406.778 29.0597 411.022 29.0752L411.023 29.0752C419.137 29.0935 426.913 32.3246 432.652 38.062C438.39 43.7994 441.624 51.5761 441.646 59.6918Z" stroke="#FDEF00" stroke-width="2"/>
<path d="M151.076 109.455C149.73 113.852 147.479 117.924 144.464 121.407L144.458 121.414L144.453 121.42C138.658 128.35 130.949 131.874 120.415 131.874C112.984 131.874 106.423 129.92 101.419 126.088C96.6498 122.063 92.9397 116.639 90.5521 109.455H103.325C104.667 112.564 106.958 115.178 109.879 116.914C113.031 118.904 116.697 119.929 120.424 119.862C126.69 119.86 131.759 117.756 135.966 113.13L136.012 113.08L136.05 113.023C136.839 111.874 137.565 110.683 138.225 109.455H151.076ZM120.785 100.645L120.78 100.645C116.753 100.67 112.761 99.8957 109.035 98.3663C105.309 96.837 101.924 94.5832 99.0748 91.7355C96.226 88.8879 93.9706 85.5031 92.4393 81.7773C90.9079 78.0514 90.131 74.0586 90.1537 70.0303V70.0246V29.7876L104.975 29.7991V70.436C104.975 79.3619 111.779 86.6488 120.787 86.6488C129.36 86.6488 136.585 79.3794 136.585 70.436V29.7868H151.4L151.4 70.0226C151.4 70.0232 151.4 70.0238 151.4 70.0244C151.383 78.1403 148.152 85.9188 142.415 91.6576C136.677 97.3968 128.899 100.628 120.785 100.645Z" stroke="#FDEF00" stroke-width="2"/>
</g>
<defs>
<clipPath id="clip0_65_1084">
<rect width="566" height="133" fill="white"/>
</clipPath>
</defs>
</svg>
