<svg width="196" height="97" viewBox="0 0 196 97" fill="none" xmlns="http://www.w3.org/2000/svg">
<path d="M106.735 1.76294H109.34V14.5479H109.138C105.001 14.5479 102.366 15.3753 100.528 16.748C98.5752 18.2058 97.7293 20.5659 97.7293 23.5467V25.1439V26.1439H98.7293H109.34V38.9354H98.3244H97.3244V39.9354V95.6895H83.3125V39.9354V38.9354H82.3125H74.5034V26.1439H81.5093H82.5093V25.1439V23.1425C82.5093 15.7138 84.4599 10.4682 88.5478 7.13085L88.5865 7.09924L88.6219 7.06392C92.3368 3.35537 98.4015 1.76294 106.735 1.76294Z" stroke="#D8EBF2" stroke-width="2"/>
<path d="M45.1494 1.74329V1.74334L45.1594 1.74324C46.3459 1.73146 47.5228 1.95627 48.6211 2.40445C49.7193 2.85262 50.7168 3.51512 51.555 4.35302L52.262 3.64577L51.555 4.35302C52.3933 5.19091 53.0554 6.18734 53.5027 7.28383C53.95 8.38032 54.1736 9.55487 54.1602 10.7386L54.1602 10.7386V10.7499C54.1602 16.2197 50.1757 20.1476 45.1494 20.1476H45.134L45.1186 20.1481C43.8759 20.1864 42.6384 19.9702 41.4827 19.5128C40.3269 19.0555 39.2774 18.3666 38.3987 17.4889C37.5201 16.6112 36.8309 15.5633 36.3737 14.4097C35.9164 13.2561 35.7008 12.0213 35.7399 10.7815L35.7404 10.7657V10.7499C35.7404 5.73515 39.687 1.74329 45.1494 1.74329ZM37.7452 95.6894V28.9404H52.1554V95.6894H37.7452Z" stroke="#D8EBF2" stroke-width="2"/>
<path d="M1 95.6895V2.95593H15.4102V95.6895H1Z" stroke="#D8EBF2" stroke-width="2"/>
<path d="M177.385 52.4477H178.667L178.355 51.2039C177.104 46.2291 174.59 42.4124 170.781 39.8433C167.358 37.2861 162.724 36.0603 157.39 36.0603C152.806 36.0603 148.56 37.3086 145.143 40.2846C141.412 43.1916 138.869 46.5566 137.63 51.1893L137.293 52.4477H138.596H177.385ZM137.767 63.629H136.601L136.778 64.7813C137.604 70.1463 139.69 74.8049 143.567 77.8058C147.354 80.7369 151.97 82.4072 157.779 82.4088C161.429 82.4703 165.034 81.6065 168.258 79.8984C171.163 78.4361 173.655 76.2756 175.512 73.6148H191.469C188.381 80.4204 184.261 85.7942 178.793 89.7934C172.987 94.0393 166.002 95.9957 158.16 95.9957H158.153L158.145 95.9958C153.205 96.0703 148.3 95.1442 143.729 93.2735L143.716 93.2685L143.704 93.2638C139.22 91.5659 135.231 88.7789 132.097 85.1551L132.081 85.1366L132.065 85.119C128.811 81.7071 126.171 77.7605 124.262 73.453C122.68 68.7028 121.527 64.443 121.527 59.4269C121.527 54.7915 122.689 50.1186 124.265 45.7872C125.886 41.5602 128.4 37.7312 131.636 34.5608L131.658 34.5389L131.679 34.5157C135.212 30.5927 139.1 27.5266 143.731 25.5764L143.748 25.5692L143.765 25.5615C148.025 23.5795 152.66 22.5268 157.36 22.4735C163.342 22.5048 169.228 23.9722 174.522 26.7517C179.803 29.548 184.346 33.5523 187.779 38.4372L187.807 38.477L187.839 38.5139C190.113 41.1612 191.669 44.6108 192.865 48.5442L192.869 48.558L192.873 48.5717C194.03 52.0171 194.428 56.2833 194.428 61.0436V63.629H137.767Z" stroke="#D8EBF2" stroke-width="2"/>
</svg>
