<?xml version="1.0" encoding="utf-8"?>
<!-- Generator: Adobe Illustrator 26.0.3, SVG Export Plug-In . SVG Version: 6.00 Build 0)  -->
<svg version="1.1" id="Layer_1" xmlns="http://www.w3.org/2000/svg" xmlns:xlink="http://www.w3.org/1999/xlink" x="0px" y="0px"
	 viewBox="0 0 60 60" style="enable-background:new 0 0 60 60;" xml:space="preserve">
<style type="text/css">
	.st0{fill:#D8EBF2;}
	.st1{fill:#0D0D0D;}
</style>
<path class="st0" d="M30,0L30,0c16.6,0,30,13.4,30,30l0,0c0,16.6-13.4,30-30,30l0,0C13.4,60,0,46.6,0,30l0,0C0,13.4,13.4,0,30,0z"/>
<path class="st1" d="M30.9,29.7l10-10c0.4-0.4,0.4-1,0-1.4s-1-0.4-1.4,0l-10,10l-9.8-9.8c-0.4-0.4-1-0.4-1.4,0s-0.4,1,0,1.4l9.8,9.8
	l-9.8,9.8c-0.4,0.4-0.4,1,0,1.4s1,0.4,1.4,0l9.8-9.8l10,10c0.2,0.2,0.5,0.3,0.7,0.3s0.5-0.1,0.7-0.3c0.4-0.4,0.4-1,0-1.4L30.9,29.7z
	"/>
</svg>
