<?xml version="1.0" encoding="utf-8"?>
<!-- Generator: Adobe Illustrator 26.0.3, SVG Export Plug-In . SVG Version: 6.00 Build 0)  -->
<svg version="1.1" id="Layer_1" xmlns="http://www.w3.org/2000/svg" xmlns:xlink="http://www.w3.org/1999/xlink" x="0px" y="0px"
	 viewBox="0 0 48 48" style="enable-background:new 0 0 48 48;" xml:space="preserve">
<style type="text/css">
	.st0{fill:#FDEF00;}
</style>
<path class="st0" d="M24,48C10.8,48,0,37.2,0,24S10.8,0,24,0s24,10.8,24,24S37.2,48,24,48z M24,1C11.3,1,1,11.3,1,24
	c0,12.7,10.3,23,23,23c12.7,0,23-10.3,23-23C47,11.3,36.7,1,24,1z"/>
<path class="st0" d="M31,23H19.8l4.9-4.9c0.4-0.4,0.4-1,0-1.4h0c-0.4-0.4-1-0.4-1.4,0l-6.6,6.6c-0.4,0.4-0.4,1,0,1.4l6.6,6.6
	c0.4,0.4,1,0.4,1.4,0l0,0c0.4-0.4,0.4-1,0-1.4L19.8,25H31c0.6,0,1-0.4,1-1v0C32,23.4,31.6,23,31,23z"/>
</svg>
