<?xml version="1.0" encoding="utf-8"?>
<!-- Generator: Adobe Illustrator 26.0.3, SVG Export Plug-In . SVG Version: 6.00 Build 0)  -->
<svg version="1.1" id="Layer_1" xmlns="http://www.w3.org/2000/svg" xmlns:xlink="http://www.w3.org/1999/xlink" x="0px" y="0px"
	 viewBox="0 0 60 60" style="enable-background:new 0 0 60 60;" xml:space="preserve">
<style type="text/css">
	.st0{fill:#222222;}
	.st1{fill:#FDEF00;}
</style>
<circle class="st0" cx="30" cy="30" r="30"/>
<path class="st1" d="M45,21H15c-0.6,0-1-0.4-1-1s0.4-1,1-1h30c0.6,0,1,0.4,1,1S45.6,21,45,21z"/>
<path class="st1" d="M45,31H15c-0.6,0-1-0.4-1-1s0.4-1,1-1h30c0.6,0,1,0.4,1,1S45.6,31,45,31z"/>
<path class="st1" d="M45,41H15c-0.6,0-1-0.4-1-1s0.4-1,1-1h30c0.6,0,1,0.4,1,1S45.6,41,45,41z"/>
</svg>
