<?xml version="1.0" encoding="utf-8"?>
<!-- Generator: Adobe Illustrator 26.0.3, SVG Export Plug-In . SVG Version: 6.00 Build 0)  -->
<svg version="1.1" id="Layer_1" xmlns="http://www.w3.org/2000/svg" xmlns:xlink="http://www.w3.org/1999/xlink" x="0px" y="0px"
	 viewBox="0 0 48 48" style="enable-background:new 0 0 48 48;" xml:space="preserve">
<style type="text/css">
	.st0{fill:#FDEF00;}
</style>
<path class="st0" d="M24,48C10.8,48,0,37.2,0,24S10.8,0,24,0s24,10.8,24,24S37.2,48,24,48z M24,1C11.3,1,1,11.3,1,24
	c0,12.7,10.3,23,23,23c12.7,0,23-10.3,23-23C47,11.3,36.7,1,24,1z"/>
<path class="st0" d="M23.3,16.7L23.3,16.7c-0.4,0.4-0.4,1,0,1.4l4.9,4.9H17c-0.6,0-1,0.4-1,1v0c0,0.6,0.4,1,1,1h11.2l-4.9,4.9
	c-0.4,0.4-0.4,1,0,1.4l0,0c0.4,0.4,1,0.4,1.4,0l6.6-6.6c0.4-0.4,0.4-1,0-1.4l-6.6-6.6C24.3,16.3,23.7,16.3,23.3,16.7z"/>
</svg>
