<?xml version="1.0" encoding="utf-8"?>
<!-- Generator: Adobe Illustrator 26.0.3, SVG Export Plug-In . SVG Version: 6.00 Build 0)  -->
<svg version="1.1" id="Layer_1" xmlns="http://www.w3.org/2000/svg" xmlns:xlink="http://www.w3.org/1999/xlink" x="0px" y="0px"
	 viewBox="0 0 24 24" style="enable-background:new 0 0 24 24;" xml:space="preserve">
<style type="text/css">
	.st0{fill:#D8EBF2;}
</style>
<g>
	<circle class="st0" cx="16.8" cy="7.5" r="1"/>
	<path class="st0" d="M16,3.2H8c-2.8,0-5,2.2-5,5v8c0,2.8,2.2,5,5,5h8c2.8,0,5-2.2,5-5v-8C21,5.5,18.8,3.2,16,3.2z M19.2,16.2
		c0,1.8-1.5,3.2-3.2,3.2H8c-1.8,0-3.2-1.5-3.2-3.2v-8C4.8,6.4,6.2,5,8,5h8c1.8,0,3.2,1.5,3.2,3.2V16.2z"/>
	<path class="st0" d="M12,7.7c-2.5,0-4.5,2-4.5,4.5s2,4.5,4.5,4.5s4.5-2,4.5-4.5c0-1.2-0.5-2.3-1.3-3.2C14.3,8.2,13.2,7.7,12,7.7z
		 M12,15c-1.5,0-2.8-1.2-2.8-2.8s1.2-2.8,2.8-2.8s2.8,1.2,2.8,2.8S13.5,15,12,15z"/>
</g>
</svg>
