<?xml version="1.0" encoding="utf-8"?>
<!-- Generator: Adobe Illustrator 26.0.3, SVG Export Plug-In . SVG Version: 6.00 Build 0)  -->
<svg version="1.1" id="Layer_1" xmlns="http://www.w3.org/2000/svg" xmlns:xlink="http://www.w3.org/1999/xlink" x="0px" y="0px"
	 viewBox="0 0 24 24" style="enable-background:new 0 0 24 24;" xml:space="preserve">
<style type="text/css">
	.st0{fill-rule:evenodd;clip-rule:evenodd;fill:#D8EBF2;}
</style>
<path class="st0" d="M19.5,3.2h-15C3.7,3.2,3,3.9,3,4.7v15c0,0.8,0.7,1.5,1.5,1.5h15c0.8,0,1.5-0.7,1.5-1.5v-15
	C21,3.9,20.3,3.2,19.5,3.2z M8.3,18.6H5.7V10h2.7V18.6z M7,8.8c-0.8,0-1.5-0.6-1.5-1.5c0-0.8,0.7-1.5,1.5-1.5c0.9,0,1.5,0.7,1.5,1.5
	C8.5,8.2,7.8,8.8,7,8.8z M18.3,18.4v0.2h-2.7v-0.2c0-0.4,0-0.7,0-1.1c0-1,0-2.1,0-3.1c0-0.3,0-0.7-0.1-1c-0.2-0.5-0.5-0.9-1.1-0.9
	c-0.9-0.1-1.7,0.4-1.9,1.3c-0.1,0.2-0.1,0.5-0.1,0.7c0,1,0,2,0,3c0,0.4,0,0.8,0,1.1v0.2H9.8V10h0h2.5v1.2l0,0
	c0.1-0.1,0.1-0.2,0.2-0.2c0.5-0.6,1.2-1,1.9-1.1c0.3-0.1,0.6,0,0.8,0c0.1,0,0.1,0,0.2,0c0.5,0,1,0.2,1.5,0.5c0.6,0.4,1,1,1.2,1.8
	c0.1,0.5,0.2,1,0.2,1.5c0,1.1,0,2.3,0,3.4C18.3,17.5,18.3,17.9,18.3,18.4z"/>
</svg>
