<svg width="20" height="20" viewBox="0 0 20 20" fill="none" xmlns="http://www.w3.org/2000/svg">
<path d="M9.07063 1.16801C9.41438 0.351549 10.5851 0.35155 10.9289 1.16801L12.9576 5.9869C13.1026 6.3311 13.4303 6.56628 13.8064 6.59606L19.0724 7.01314C19.9646 7.08381 20.3264 8.1838 19.6466 8.75906L15.6345 12.1543C15.348 12.3969 15.2228 12.7774 15.3103 13.14L16.5361 18.2167C16.7438 19.0768 15.7966 19.7567 15.0328 19.2958L10.5243 16.5752C10.2023 16.3809 9.79726 16.3809 9.47523 16.5752L4.96674 19.2958C4.20287 19.7567 3.25571 19.0768 3.46339 18.2167L4.68918 13.14C4.77673 12.7774 4.65158 12.3969 4.36501 12.1543L0.352818 8.75906C-0.326962 8.1838 0.0348237 7.08381 0.927047 7.01314L6.19311 6.59606C6.56926 6.56628 6.89691 6.3311 7.04182 5.9869L9.07063 1.16801Z" fill="#AAB7BF"/>
</svg>
