<svg width="222" height="25" viewBox="0 0 222 25" fill="none" xmlns="http://www.w3.org/2000/svg">
<path d="M0.375 12.6094C0.375 10.7552 0.6875 9.11458 1.3125 7.6875C1.9375 6.25 2.80208 5.04167 3.90625 4.0625C5.02083 3.08333 6.30729 2.34375 7.76562 1.84375C9.23438 1.34375 10.8073 1.09375 12.4844 1.09375C14.224 1.09375 15.6875 1.23958 16.875 1.53125C18.0625 1.8125 18.9583 2.16146 19.5625 2.57812L19.75 8.32812H19.1094C18.849 7.06771 18.4323 5.96875 17.8594 5.03125C17.2865 4.08333 16.5677 3.34896 15.7031 2.82812C14.8385 2.30729 13.8385 2.04688 12.7031 2.04688C11.599 2.04688 10.6042 2.29167 9.71875 2.78125C8.84375 3.27083 8.09896 3.97396 7.48438 4.89062C6.86979 5.79688 6.40104 6.88542 6.07812 8.15625C5.75521 9.42708 5.59375 10.8438 5.59375 12.4062C5.59375 13.5729 5.69271 14.6979 5.89062 15.7812C6.09896 16.8646 6.39583 17.8698 6.78125 18.7969C7.17708 19.7135 7.66146 20.5156 8.23438 21.2031C8.81771 21.8906 9.48438 22.4271 10.2344 22.8125C10.9948 23.1979 11.8385 23.3906 12.7656 23.3906C14.349 23.3906 15.6979 22.8438 16.8125 21.75C17.9375 20.6458 18.724 19.0573 19.1719 16.9844H19.8125L19.625 22.7344C19.2396 23.0052 18.6927 23.2656 17.9844 23.5156C17.276 23.7656 16.4583 23.9635 15.5312 24.1094C14.6042 24.2656 13.6146 24.3438 12.5625 24.3438C10.8333 24.3438 9.22917 24.0781 7.75 23.5469C6.27083 23.0052 4.97917 22.2292 3.875 21.2188C2.77083 20.1979 1.91146 18.9635 1.29688 17.5156C0.682292 16.0677 0.375 14.4323 0.375 12.6094Z" fill="white"/>
<path d="M26.6887 8.4375V12.4375C27.4908 11.0417 28.2356 10.0208 28.9231 9.375C29.6106 8.72917 30.319 8.40625 31.0481 8.40625C31.694 8.40625 32.1679 8.61458 32.47 9.03125C32.7825 9.44792 32.9388 9.95312 32.9388 10.5469C32.9388 10.8385 32.9023 11.1198 32.8294 11.3906C32.7565 11.651 32.6783 11.8542 32.595 12C32.3971 11.9375 32.1158 11.8854 31.7512 11.8438C31.3971 11.7917 31.0221 11.7656 30.6262 11.7656C30.1054 11.7656 29.5898 11.8125 29.0794 11.9062C28.5794 12 28.121 12.1354 27.7044 12.3125C27.2981 12.4792 26.97 12.6823 26.72 12.9219L26.7356 21.5312C26.7356 21.9375 26.7773 22.2552 26.8606 22.4844C26.9544 22.7031 27.1471 22.875 27.4387 23C27.7304 23.125 28.1679 23.2344 28.7512 23.3281V24H20.5481V23.3281C21.0794 23.2448 21.4752 23.1458 21.7356 23.0312C22.0065 22.9167 22.1835 22.7552 22.2669 22.5469C22.3502 22.3385 22.3919 22.0573 22.3919 21.7031V11.5C22.3919 11.1771 22.3658 10.9323 22.3137 10.7656C22.2721 10.5885 22.1835 10.4531 22.0481 10.3594C21.9127 10.2552 21.6992 10.1562 21.4075 10.0625L20.5481 9.79688V9.17188L26.6887 8.4375Z" fill="white"/>
<path d="M32.7369 16.3438C32.7369 15.1771 32.9192 14.1094 33.2837 13.1406C33.6483 12.1615 34.1692 11.3125 34.8462 10.5938C35.5233 9.875 36.3358 9.32292 37.2837 8.9375C38.2317 8.54167 39.289 8.34375 40.4556 8.34375C41.841 8.34375 43.0285 8.61458 44.0181 9.15625C45.0077 9.69792 45.7681 10.4531 46.2994 11.4219C46.8306 12.3802 47.0962 13.4948 47.0962 14.7656C47.0962 15.1406 47.0702 15.4688 47.0181 15.75H37.1431C37.2473 17.125 37.5546 18.3125 38.065 19.3125C38.5858 20.3125 39.2733 21.0833 40.1275 21.625C40.9817 22.1562 41.9556 22.4219 43.0494 22.4219C43.8619 22.4219 44.5858 22.2865 45.2212 22.0156C45.8671 21.7344 46.3983 21.3854 46.815 20.9688V21.6562C46.2733 22.4583 45.466 23.099 44.3931 23.5781C43.3306 24.0573 42.1067 24.2969 40.7212 24.2969C39.5962 24.2969 38.5494 24.1146 37.5806 23.75C36.6119 23.375 35.7629 22.8385 35.0337 22.1406C34.315 21.4427 33.7525 20.6094 33.3462 19.6406C32.94 18.6615 32.7369 17.5625 32.7369 16.3438ZM37.0962 14.7969C37.0962 14.8698 37.1015 14.9219 37.1119 14.9531L43.1587 14.8906C43.1692 14.7656 43.1744 14.6302 43.1744 14.4844C43.1848 14.3281 43.19 14.1562 43.19 13.9688C43.19 13.0312 43.091 12.2135 42.8931 11.5156C42.6952 10.8073 42.3931 10.2552 41.9869 9.85938C41.591 9.46354 41.0806 9.26562 40.4556 9.26562C39.3931 9.26562 38.565 9.74479 37.9712 10.7031C37.3879 11.6615 37.0962 13.026 37.0962 14.7969Z" fill="white"/>
<path d="M52.5662 24.2969C51.7017 24.2969 50.9308 24.1406 50.2537 23.8281C49.5767 23.5156 49.0454 23.0781 48.66 22.5156C48.285 21.9427 48.0975 21.2812 48.0975 20.5312C48.0975 19.75 48.3058 19.0625 48.7225 18.4688C49.1392 17.8646 49.811 17.3385 50.7381 16.8906C51.6756 16.4323 52.9048 16.0469 54.4256 15.7344L57.535 15.0938V13.4531C57.535 11.9948 57.1965 10.9635 56.5194 10.3594C55.8423 9.74479 54.9048 9.4375 53.7069 9.4375C53.2069 9.4375 52.7277 9.49479 52.2694 9.60938C51.8215 9.71354 51.41 9.86979 51.035 10.0781C51.5142 10.1302 51.9204 10.3385 52.2537 10.7031C52.5871 11.0677 52.7537 11.5104 52.7537 12.0312C52.7537 12.3958 52.66 12.7292 52.4725 13.0312C52.2954 13.3333 52.0506 13.5729 51.7381 13.75C51.436 13.9167 51.0923 14 50.7069 14C50.3319 14 49.9881 13.9167 49.6756 13.75C49.3735 13.5729 49.1287 13.3385 48.9412 13.0469C48.7537 12.7552 48.66 12.4219 48.66 12.0469C48.66 11.349 48.9308 10.724 49.4725 10.1719C50.0246 9.60938 50.7954 9.16667 51.785 8.84375C52.7746 8.51042 53.9256 8.34375 55.2381 8.34375C56.5819 8.34375 57.7381 8.52083 58.7069 8.875C59.686 9.22917 60.4412 9.77604 60.9725 10.5156C61.5037 11.2552 61.7694 12.2083 61.7694 13.375V21.0469C61.7694 21.7135 61.9152 22.1979 62.2069 22.5C62.509 22.7917 62.884 22.9375 63.3319 22.9375C63.5923 22.9375 63.8058 22.9062 63.9725 22.8438V23.4844C63.6808 23.6823 63.2798 23.8542 62.7694 24C62.2694 24.1458 61.7121 24.2188 61.0975 24.2188C60.5246 24.2188 59.9881 24.125 59.4881 23.9375C58.9985 23.75 58.5871 23.4792 58.2537 23.125C57.9308 22.7604 57.7173 22.3125 57.6131 21.7812C57.4048 22.2708 57.0558 22.7083 56.5662 23.0938C56.0871 23.4688 55.5037 23.7656 54.8162 23.9844C54.1392 24.1927 53.3892 24.2969 52.5662 24.2969ZM52.3944 19.8438C52.3944 20.7292 52.6392 21.4115 53.1287 21.8906C53.6183 22.3594 54.2173 22.5938 54.9256 22.5938C56.1444 22.5938 57.0142 22.125 57.535 21.1875V15.8906L56.2225 16.1719C55.2642 16.3906 54.5037 16.6719 53.9412 17.0156C53.3892 17.349 52.9933 17.75 52.7537 18.2188C52.5142 18.6875 52.3944 19.2292 52.3944 19.8438Z" fill="white"/>
<path d="M65.3019 19.6562V9.90625H63.4738V9.35938L69.1613 5.10938H69.63V8.84375L73.505 8.625V9.90625L69.63 9.70312V19.6562C69.63 20.7188 69.8383 21.474 70.255 21.9219C70.6717 22.3594 71.2081 22.5781 71.8644 22.5781C72.229 22.5781 72.5727 22.5156 72.8956 22.3906C73.229 22.2656 73.505 22.1042 73.7238 21.9062V22.5938C73.5154 22.875 73.2081 23.1458 72.8019 23.4062C72.3956 23.6667 71.9217 23.8802 71.38 24.0469C70.8383 24.2135 70.2602 24.2969 69.6456 24.2969C68.8435 24.2969 68.1092 24.1406 67.4425 23.8281C66.7863 23.5156 66.2654 23.0208 65.88 22.3438C65.4946 21.6562 65.3019 20.7604 65.3019 19.6562Z" fill="white"/>
<path d="M77.0531 6.10938C76.626 6.10938 76.2354 6.01562 75.8812 5.82812C75.5271 5.63021 75.2458 5.36458 75.0375 5.03125C74.8292 4.69792 74.725 4.32292 74.725 3.90625C74.725 3.48958 74.8292 3.11458 75.0375 2.78125C75.2458 2.44792 75.5271 2.1875 75.8812 2C76.2354 1.80208 76.626 1.70312 77.0531 1.70312C77.4802 1.70312 77.8656 1.80208 78.2094 2C78.5635 2.1875 78.8448 2.44792 79.0531 2.78125C79.2615 3.11458 79.3656 3.48958 79.3656 3.90625C79.3656 4.32292 79.2615 4.69792 79.0531 5.03125C78.8448 5.36458 78.5635 5.63021 78.2094 5.82812C77.8656 6.01562 77.4802 6.10938 77.0531 6.10938ZM79.5219 8.4375V21.6562C79.5219 22.0208 79.5635 22.3125 79.6469 22.5312C79.7406 22.7396 79.9177 22.901 80.1781 23.0156C80.4385 23.1302 80.8292 23.2344 81.35 23.3281V24H73.3344V23.3281C73.8552 23.2344 74.2458 23.1302 74.5062 23.0156C74.7771 22.901 74.9542 22.7396 75.0375 22.5312C75.1312 22.3125 75.1781 22.0208 75.1781 21.6562V11.5C75.1781 11.1771 75.1521 10.9323 75.1 10.7656C75.0583 10.5885 74.9698 10.4531 74.8344 10.3594C74.699 10.2552 74.4854 10.1562 74.1937 10.0625L73.3344 9.79688V9.17188L79.5219 8.4375Z" fill="white"/>
<path d="M90.2262 24.2969C89.0492 24.2969 87.9554 24.1146 86.945 23.75C85.9346 23.375 85.0492 22.8438 84.2887 22.1562C83.5387 21.4583 82.9502 20.6198 82.5231 19.6406C82.1065 18.6615 81.8981 17.5677 81.8981 16.3594C81.8981 15.1719 82.1117 14.0885 82.5387 13.1094C82.9658 12.1302 83.5596 11.2865 84.32 10.5781C85.0804 9.85938 85.971 9.30729 86.9919 8.92188C88.0127 8.53646 89.1169 8.34375 90.3044 8.34375C91.4815 8.34375 92.5752 8.53125 93.5856 8.90625C94.596 9.27083 95.4762 9.80208 96.2262 10.5C96.9867 11.1875 97.5752 12.0208 97.9919 13C98.419 13.9688 98.6325 15.0573 98.6325 16.2656C98.6325 17.4531 98.419 18.5365 97.9919 19.5156C97.5648 20.4948 96.971 21.3438 96.2106 22.0625C95.4502 22.7708 94.5596 23.3229 93.5387 23.7188C92.5179 24.1042 91.4137 24.2969 90.2262 24.2969ZM90.3356 23.375C91.1169 23.375 91.7783 23.0938 92.32 22.5312C92.8617 21.9688 93.2731 21.1667 93.5544 20.125C93.8356 19.0833 93.9762 17.8542 93.9762 16.4375C93.9762 14.9688 93.82 13.6979 93.5075 12.625C93.195 11.5521 92.7575 10.724 92.195 10.1406C91.6325 9.55729 90.971 9.26562 90.2106 9.26562C89.4294 9.26562 88.7627 9.54688 88.2106 10.1094C87.669 10.6719 87.2523 11.474 86.9606 12.5156C86.6794 13.5469 86.5387 14.7708 86.5387 16.1875C86.5387 17.6562 86.695 18.9323 87.0075 20.0156C87.32 21.0885 87.7575 21.9167 88.32 22.5C88.8929 23.0833 89.5648 23.375 90.3356 23.375Z" fill="white"/>
<path d="M105.415 8.4375V11.25C105.832 10.3854 106.493 9.6875 107.399 9.15625C108.306 8.61458 109.389 8.34375 110.649 8.34375C111.691 8.34375 112.603 8.52083 113.384 8.875C114.175 9.22917 114.79 9.76562 115.228 10.4844C115.675 11.2031 115.899 12.1146 115.899 13.2188V21.6562C115.899 22.0208 115.941 22.3125 116.024 22.5312C116.108 22.7396 116.28 22.901 116.54 23.0156C116.811 23.1302 117.212 23.2344 117.743 23.3281V24H109.915V23.3281C110.394 23.2448 110.748 23.151 110.978 23.0469C111.217 22.9427 111.373 22.7917 111.446 22.5938C111.53 22.3854 111.571 22.1042 111.571 21.75V13.6562C111.571 12.5104 111.3 11.651 110.759 11.0781C110.217 10.5052 109.462 10.2188 108.493 10.2188C107.785 10.2188 107.17 10.3646 106.649 10.6562C106.129 10.9479 105.733 11.3385 105.462 11.8281V21.75C105.462 22.1042 105.498 22.3802 105.571 22.5781C105.644 22.776 105.795 22.9323 106.024 23.0469C106.264 23.151 106.623 23.2448 107.103 23.3281V24H99.2744V23.3281C99.7952 23.2344 100.186 23.1302 100.446 23.0156C100.717 22.901 100.894 22.7396 100.978 22.5312C101.071 22.3125 101.118 22.0208 101.118 21.6562V11.5C101.118 11.1771 101.092 10.9323 101.04 10.7656C100.998 10.5885 100.91 10.4531 100.774 10.3594C100.639 10.2552 100.425 10.1562 100.134 10.0625L99.2744 9.79688V9.17188L105.415 8.4375Z" fill="white"/>
<path d="M118.323 13.1094C118.323 12.099 118.599 11.2396 119.151 10.5312C119.703 9.82292 120.474 9.28125 121.463 8.90625C122.453 8.53125 123.609 8.34375 124.932 8.34375C126.046 8.34375 127.015 8.44271 127.838 8.64062C128.661 8.82812 129.27 9.04167 129.666 9.28125L129.744 13.2812H129.104C128.833 11.9896 128.333 11 127.604 10.3125C126.875 9.61458 126 9.26562 124.979 9.26562C124.031 9.26562 123.302 9.47396 122.791 9.89062C122.281 10.3073 122.026 10.849 122.026 11.5156C122.026 12.1719 122.265 12.6875 122.744 13.0625C123.234 13.4375 123.932 13.776 124.838 14.0781L126.104 14.4844C127.552 14.9427 128.656 15.5677 129.416 16.3594C130.177 17.151 130.557 18.1823 130.557 19.4531C130.557 20.2135 130.38 20.8958 130.026 21.5C129.682 22.0938 129.203 22.599 128.588 23.0156C127.974 23.4323 127.265 23.75 126.463 23.9688C125.661 24.1771 124.802 24.2812 123.885 24.2812C123.135 24.2812 122.411 24.224 121.713 24.1094C121.015 24.0052 120.38 23.8594 119.807 23.6719C119.244 23.4844 118.776 23.276 118.401 23.0469L118.244 18.7188H118.885C119.093 19.6875 119.442 20.5208 119.932 21.2188C120.432 21.9062 121.02 22.4375 121.698 22.8125C122.375 23.1771 123.083 23.3594 123.823 23.3594C124.75 23.3594 125.484 23.1354 126.026 22.6875C126.567 22.2396 126.838 21.6719 126.838 20.9844C126.838 20.3177 126.619 19.776 126.182 19.3594C125.744 18.9323 125.052 18.5677 124.104 18.2656L122.854 17.8594C121.448 17.401 120.338 16.8021 119.526 16.0625C118.724 15.3125 118.323 14.3281 118.323 13.1094Z" fill="white"/>
<path d="M141.031 24.3438C139.427 24.3438 137.99 24.1875 136.719 23.875C135.448 23.5625 134.443 23.1823 133.703 22.7344L133.484 17.0156H134.125C134.427 18.3906 134.911 19.5521 135.578 20.5C136.255 21.4479 137.057 22.1667 137.984 22.6562C138.922 23.1458 139.922 23.3906 140.984 23.3906C141.87 23.3906 142.641 23.2292 143.297 22.9062C143.964 22.5729 144.479 22.1094 144.844 21.5156C145.219 20.9115 145.406 20.2135 145.406 19.4219C145.406 18.3698 145.073 17.4844 144.406 16.7656C143.75 16.0469 142.698 15.4323 141.25 14.9219L139.359 14.2656C137.464 13.6198 136.01 12.7396 135 11.625C134 10.5104 133.5 9.15104 133.5 7.54688C133.5 6.52604 133.703 5.61458 134.109 4.8125C134.526 4.01042 135.109 3.33333 135.859 2.78125C136.62 2.22917 137.51 1.8125 138.531 1.53125C139.562 1.23958 140.693 1.09375 141.922 1.09375C143.38 1.09375 144.641 1.23438 145.703 1.51562C146.776 1.78646 147.583 2.11458 148.125 2.5L148.281 7.70312H147.641C147.245 5.92188 146.547 4.53646 145.547 3.54688C144.557 2.54688 143.349 2.04688 141.922 2.04688C140.995 2.04688 140.208 2.20312 139.562 2.51562C138.927 2.81771 138.443 3.23958 138.109 3.78125C137.786 4.3125 137.625 4.93229 137.625 5.64062C137.625 6.68229 137.979 7.53646 138.688 8.20312C139.396 8.85938 140.422 9.42708 141.766 9.90625L143.641 10.5625C145.63 11.25 147.109 12.1667 148.078 13.3125C149.047 14.4583 149.531 15.849 149.531 17.4844C149.531 18.5469 149.312 19.5052 148.875 20.3594C148.438 21.2031 147.828 21.9219 147.047 22.5156C146.276 23.1094 145.375 23.5625 144.344 23.875C143.312 24.1875 142.208 24.3438 141.031 24.3438Z" fill="#00855B"/>
<path d="M151.986 19.6562V9.90625H150.158V9.35938L155.845 5.10938H156.314V8.84375L160.189 8.625V9.90625L156.314 9.70312V19.6562C156.314 20.7188 156.522 21.474 156.939 21.9219C157.355 22.3594 157.892 22.5781 158.548 22.5781C158.913 22.5781 159.256 22.5156 159.579 22.3906C159.913 22.2656 160.189 22.1042 160.408 21.9062V22.5938C160.199 22.875 159.892 23.1458 159.486 23.4062C159.079 23.6667 158.605 23.8802 158.064 24.0469C157.522 24.2135 156.944 24.2969 156.329 24.2969C155.527 24.2969 154.793 24.1406 154.126 23.8281C153.47 23.5156 152.949 23.0208 152.564 22.3438C152.178 21.6562 151.986 20.7604 151.986 19.6562Z" fill="#00855B"/>
<path d="M165.878 8.4375V18.9375C165.878 20.1042 166.138 20.9792 166.659 21.5625C167.18 22.1354 167.924 22.4219 168.893 22.4219C169.57 22.4219 170.159 22.276 170.659 21.9844C171.159 21.6823 171.544 21.2917 171.815 20.8125V11.5C171.815 11.1771 171.789 10.9323 171.737 10.7656C171.695 10.5885 171.607 10.4531 171.471 10.3594C171.336 10.2552 171.122 10.1562 170.831 10.0625L169.971 9.79688V9.17188L176.159 8.4375V21.1562C176.159 21.4688 176.18 21.7135 176.221 21.8906C176.263 22.0677 176.351 22.2083 176.487 22.3125C176.633 22.4062 176.851 22.5052 177.143 22.6094L177.971 22.8594V23.4844L171.831 24.1719V21.3906C171.424 22.2448 170.768 22.9427 169.862 23.4844C168.966 24.026 167.898 24.2969 166.659 24.2969C165.648 24.2969 164.758 24.1198 163.987 23.7656C163.216 23.401 162.612 22.8542 162.174 22.125C161.737 21.3958 161.518 20.4792 161.518 19.375V11.5C161.518 11.1771 161.497 10.9323 161.456 10.7656C161.414 10.5885 161.325 10.4531 161.19 10.3594C161.055 10.2552 160.841 10.1562 160.549 10.0625L159.706 9.79688V9.17188L165.878 8.4375Z" fill="#00855B"/>
<path d="M178.519 16.4531C178.519 15.1823 178.707 14.0469 179.082 13.0469C179.467 12.0469 179.993 11.1979 180.66 10.5C181.327 9.80208 182.092 9.27083 182.957 8.90625C183.832 8.53125 184.764 8.34375 185.754 8.34375C186.712 8.34375 187.551 8.52083 188.269 8.875C188.988 9.22917 189.519 9.69792 189.863 10.2812V3.76562C189.863 3.44271 189.837 3.19792 189.785 3.03125C189.743 2.86458 189.65 2.72917 189.504 2.625C189.368 2.52083 189.155 2.42188 188.863 2.32812L188.019 2.0625V1.4375L194.207 0.734375V21.1562C194.207 21.4688 194.228 21.7135 194.269 21.8906C194.311 22.0677 194.405 22.2083 194.551 22.3125C194.696 22.4062 194.915 22.5 195.207 22.5938L196.051 22.8594V23.4844L189.894 24.1719V21.3438C189.634 21.9479 189.254 22.4688 188.754 22.9062C188.254 23.3438 187.67 23.6875 187.004 23.9375C186.337 24.1771 185.618 24.2969 184.848 24.2969C183.993 24.2969 183.181 24.125 182.41 23.7812C181.65 23.4271 180.978 22.9167 180.394 22.25C179.811 21.5729 179.353 20.75 179.019 19.7812C178.686 18.8125 178.519 17.7031 178.519 16.4531ZM183.019 16.0312C183.019 17.3646 183.186 18.5104 183.519 19.4688C183.853 20.4167 184.311 21.1458 184.894 21.6562C185.488 22.1667 186.165 22.4219 186.926 22.4219C187.613 22.4219 188.202 22.276 188.691 21.9844C189.191 21.6823 189.582 21.276 189.863 20.7656V11.1406C189.665 10.7135 189.311 10.3542 188.801 10.0625C188.301 9.76042 187.738 9.60938 187.113 9.60938C186.301 9.60938 185.587 9.86458 184.973 10.375C184.358 10.8854 183.879 11.6198 183.535 12.5781C183.191 13.5365 183.019 14.6875 183.019 16.0312Z" fill="#00855B"/>
<path d="M199.864 6.10938C199.437 6.10938 199.047 6.01562 198.693 5.82812C198.338 5.63021 198.057 5.36458 197.849 5.03125C197.64 4.69792 197.536 4.32292 197.536 3.90625C197.536 3.48958 197.64 3.11458 197.849 2.78125C198.057 2.44792 198.338 2.1875 198.693 2C199.047 1.80208 199.437 1.70312 199.864 1.70312C200.291 1.70312 200.677 1.80208 201.021 2C201.375 2.1875 201.656 2.44792 201.864 2.78125C202.073 3.11458 202.177 3.48958 202.177 3.90625C202.177 4.32292 202.073 4.69792 201.864 5.03125C201.656 5.36458 201.375 5.63021 201.021 5.82812C200.677 6.01562 200.291 6.10938 199.864 6.10938ZM202.333 8.4375V21.6562C202.333 22.0208 202.375 22.3125 202.458 22.5312C202.552 22.7396 202.729 22.901 202.989 23.0156C203.25 23.1302 203.64 23.2344 204.161 23.3281V24H196.146V23.3281C196.666 23.2344 197.057 23.1302 197.318 23.0156C197.588 22.901 197.765 22.7396 197.849 22.5312C197.943 22.3125 197.989 22.0208 197.989 21.6562V11.5C197.989 11.1771 197.963 10.9323 197.911 10.7656C197.87 10.5885 197.781 10.4531 197.646 10.3594C197.51 10.2552 197.297 10.1562 197.005 10.0625L196.146 9.79688V9.17188L202.333 8.4375Z" fill="#00855B"/>
<path d="M213.038 24.2969C211.86 24.2969 210.767 24.1146 209.756 23.75C208.746 23.375 207.86 22.8438 207.1 22.1562C206.35 21.4583 205.761 20.6198 205.334 19.6406C204.918 18.6615 204.709 17.5677 204.709 16.3594C204.709 15.1719 204.923 14.0885 205.35 13.1094C205.777 12.1302 206.371 11.2865 207.131 10.5781C207.892 9.85938 208.782 9.30729 209.803 8.92188C210.824 8.53646 211.928 8.34375 213.116 8.34375C214.293 8.34375 215.386 8.53125 216.397 8.90625C217.407 9.27083 218.288 9.80208 219.038 10.5C219.798 11.1875 220.386 12.0208 220.803 13C221.23 13.9688 221.444 15.0573 221.444 16.2656C221.444 17.4531 221.23 18.5365 220.803 19.5156C220.376 20.4948 219.782 21.3438 219.022 22.0625C218.261 22.7708 217.371 23.3229 216.35 23.7188C215.329 24.1042 214.225 24.2969 213.038 24.2969ZM213.147 23.375C213.928 23.375 214.59 23.0938 215.131 22.5312C215.673 21.9688 216.084 21.1667 216.366 20.125C216.647 19.0833 216.788 17.8542 216.788 16.4375C216.788 14.9688 216.631 13.6979 216.319 12.625C216.006 11.5521 215.569 10.724 215.006 10.1406C214.444 9.55729 213.782 9.26562 213.022 9.26562C212.241 9.26562 211.574 9.54688 211.022 10.1094C210.48 10.6719 210.064 11.474 209.772 12.5156C209.491 13.5469 209.35 14.7708 209.35 16.1875C209.35 17.6562 209.506 18.9323 209.819 20.0156C210.131 21.0885 210.569 21.9167 211.131 22.5C211.704 23.0833 212.376 23.375 213.147 23.375Z" fill="#00855B"/>
</svg>
