<svg width="1149" height="197" viewBox="0 0 1149 197" fill="none" xmlns="http://www.w3.org/2000/svg">
<g clip-path="url(#clip0_261_749)">
<path d="M1023.57 43.9767V65.9409H1005.85V150.216H982.244V65.9409H969.254V43.9767H981.059V41.0049C981.059 29.7276 984.006 21.4221 990.505 16.0786C996.408 10.1447 1005.85 7.7731 1018.26 7.7731H1023.57V29.7276H1021.8C1015.89 29.7276 1012.35 30.9183 1009.98 32.6994C1007.62 34.4805 1006.45 37.4427 1006.45 41.6051V43.9767H1023.57Z" fill="#D8EBF2"/>
<path d="M915.052 150.216V48.1295H939.25V150.216H915.052ZM927.445 7.74407C929.39 7.72462 931.32 8.09582 933.121 8.83591C934.922 9.576 936.558 10.6701 937.932 12.054C939.307 13.438 940.393 15.0839 941.127 16.8953C941.861 18.7068 942.228 20.6473 942.206 22.603C942.206 31.5088 935.706 38.0428 927.445 38.0428C925.411 38.106 923.386 37.7497 921.495 36.996C919.604 36.2423 917.886 35.1072 916.448 33.6605C915.01 32.2139 913.882 30.4865 913.133 28.5847C912.385 26.683 912.032 24.6472 912.096 22.603C912.096 14.2975 918.615 7.74407 927.445 7.74407Z" fill="#D8EBF2"/>
<path d="M860.869 150.216V9.54459H885.067V150.216H860.869Z" fill="#D8EBF2"/>
<path d="M1122.43 83.036C1120.66 75.9373 1117.13 70.5971 1111.84 67.0154C1107.12 63.4532 1100.62 61.672 1092.95 61.672C1086.45 61.672 1080.55 63.4531 1075.83 67.6059C1070.51 71.7684 1066.97 76.5116 1065.24 83.036H1122.43ZM1064.01 102.609C1065.2 110.353 1068.15 116.858 1073.47 121.001C1078.78 125.145 1085.27 127.526 1093.54 127.526C1098.68 127.615 1103.76 126.389 1108.3 123.964C1112.6 121.788 1116.25 118.513 1118.89 114.467H1145.46C1140.73 125.754 1134.24 134.65 1125.38 141.175C1116.52 147.699 1105.9 150.671 1094.09 150.671C1086.6 150.785 1079.17 149.372 1072.25 146.518C1065.41 143.91 1059.32 139.628 1054.54 134.06C1049.61 128.853 1045.61 122.827 1042.72 116.248C1040.36 109.124 1038.59 102.6 1038.59 94.8845C1038.59 87.7599 1040.36 80.6354 1042.72 74.111C1045.19 67.6301 1049.02 61.7597 1053.94 56.8997C1059.26 50.9561 1065.16 46.2516 1072.24 43.2508C1078.71 40.2172 1085.76 38.6067 1092.9 38.5269C1101.96 38.5726 1110.88 40.8104 1118.9 45.0513C1126.89 49.313 1133.77 55.4166 1138.97 62.8627C1142.51 67.0154 1144.88 72.3589 1146.67 78.2928C1148.45 83.6362 1149.04 90.1606 1149.04 97.2852V102.609H1064.01Z" fill="#D8EBF2"/>
<path d="M676.357 150.216V48.1295H700.564V150.216H676.357ZM688.759 7.74407C690.702 7.72466 692.628 8.095 694.427 8.8334C696.225 9.5718 697.859 10.6634 699.233 12.0444C700.607 13.4254 701.693 15.0679 702.427 16.876C703.162 18.684 703.53 20.6211 703.511 22.574C703.511 31.4797 697.021 38.0138 688.759 38.0138C686.725 38.0769 684.7 37.7206 682.808 36.967C680.916 36.2135 679.198 35.0784 677.759 33.632C676.32 32.1855 675.191 30.4581 674.442 28.5564C673.692 26.6546 673.338 24.6187 673.401 22.574C673.401 14.2975 679.9 7.74407 688.759 7.74407Z" fill="#FDEF00"/>
<path d="M414.542 40.308C384.432 40.308 359.781 65.2343 359.781 95.4847C359.781 125.735 384.663 150.661 414.773 150.661C425.991 150.661 437.681 147.109 445.586 141.175V150.177H469.177V95.504C469.139 65.2343 444.652 40.308 414.542 40.308ZM414.85 126.374C408.776 126.376 402.838 124.567 397.787 121.176C392.736 117.785 388.799 112.965 386.473 107.324C384.148 101.684 383.538 95.4764 384.722 89.4876C385.906 83.4987 388.83 77.9973 393.124 73.6791C397.418 69.3609 402.889 66.4199 408.846 65.228C414.803 64.0361 420.978 64.6469 426.589 66.983C432.201 69.3192 436.997 73.2759 440.372 78.3526C443.746 83.4294 445.547 89.3981 445.547 95.504C445.576 99.565 444.801 103.591 443.268 107.349C441.736 111.106 439.476 114.52 436.62 117.392C433.764 120.264 430.369 122.537 426.631 124.079C422.894 125.621 418.89 126.401 414.85 126.374Z" fill="#FDEF00"/>
<path d="M85.8816 0V49.8042C76.0696 43.8703 66.2094 40.308 54.9915 40.308C47.7838 40.2908 40.6433 41.701 33.9777 44.4581C27.3122 47.2151 21.252 51.265 16.1433 56.3764C5.82587 66.6996 0.0102163 80.7202 -0.0242599 95.354C-0.0587361 109.988 5.69079 124.036 15.9595 134.408C26.2282 144.78 40.1749 150.627 54.7315 150.661C84.8417 150.661 109.473 125.735 109.473 95.4846V0H85.8816ZM54.8182 126.374C37.688 126.374 23.5237 112.725 23.5237 95.504C23.5237 78.2831 37.688 64.6438 54.8182 64.6438C62.8668 64.7871 70.5376 68.1019 76.1791 73.8747C81.8206 79.6474 84.9816 87.4163 84.9816 95.5088C84.9816 103.601 81.8206 111.37 76.1791 117.143C70.5376 122.916 62.8668 126.231 54.8182 126.374Z" fill="#FDEF00"/>
<path d="M779.667 40.308C791.869 40.264 803.734 44.3327 813.365 51.864C822.997 59.3954 829.84 69.9548 832.8 81.8551H807.418C804.352 75.6052 799.273 70.582 793.007 67.6027C786.74 64.6233 779.655 63.863 772.905 65.4454C766.154 67.0279 760.134 70.86 755.825 76.3184C751.516 81.7767 749.171 88.5403 749.171 95.5089C749.171 102.477 751.516 109.241 755.825 114.699C760.134 120.158 766.154 123.99 772.905 125.572C779.655 127.155 786.74 126.394 793.007 123.415C799.273 120.436 804.352 115.413 807.418 109.163H832.8C829.838 121.061 822.994 131.618 813.363 139.148C803.731 146.677 791.868 150.745 779.667 150.7C765.11 150.7 751.15 144.887 740.857 134.539C730.564 124.192 724.781 110.157 724.781 95.5234C724.781 80.8896 730.564 66.8552 740.857 56.5076C751.15 46.16 765.11 40.3467 779.667 40.3467V40.308Z" fill="#FDEF00"/>
<path d="M270.047 150.216V87.8954C270.127 82.096 272.455 76.5568 276.535 72.4565C280.616 68.3562 286.127 66.0186 291.896 65.9409C304.298 65.9409 314.341 76.0276 314.341 87.8954V150.216H338.539V88.4956C338.509 76.0707 333.584 64.1637 324.843 55.3798C316.101 46.5958 304.255 41.65 291.896 41.6245C266.514 41.6245 245.262 62.9885 245.262 88.515V150.235L270.047 150.216Z" fill="#FDEF00"/>
<path d="M583.667 150.216V87.8954C583.747 82.096 586.074 76.5568 590.155 72.4565C594.235 68.3562 599.746 66.0186 605.515 65.9409C617.918 65.9409 627.951 76.0276 627.951 87.8954V150.216H652.159V88.4956C652.126 76.0715 647.2 64.166 638.459 55.3826C629.719 46.5992 617.874 41.6526 605.515 41.6245C599.046 41.6007 592.645 42.9638 586.741 45.6229C580.836 48.2819 575.564 52.1758 571.274 57.0449C566.984 52.1768 561.711 48.2836 555.807 45.6246C549.903 42.9656 543.503 41.602 537.033 41.6245C524.67 41.65 512.82 46.5982 504.076 55.386C495.333 64.1739 490.408 76.0858 490.38 88.515V150.235H515.156V87.8954C515.15 85.0097 515.711 82.1512 516.806 79.484C517.902 76.8169 519.511 74.3937 521.542 72.3536C523.572 70.3135 525.983 68.6968 528.637 67.5963C531.29 66.4958 534.134 65.9333 537.004 65.9409C542.777 66.0135 548.293 68.349 552.377 72.4498C556.462 76.5507 558.792 82.0927 558.872 87.8954V88.4956V150.216H583.667Z" fill="#FDEF00"/>
<path d="M224.011 160.796C222.058 168.245 218.435 175.146 213.419 180.97C204.56 191.618 192.755 197 176.828 197C165.601 197 155.577 194.028 147.883 188.094C140.18 181.57 134.326 172.664 130.763 160.796H152.611C154.403 165.52 157.732 169.494 162.057 172.074C166.472 174.879 171.607 176.323 176.828 176.226C185.687 176.226 192.764 173.264 198.677 166.73C199.976 164.828 201.156 162.846 202.211 160.796H224.011ZM155.529 42.699V104.429C155.529 116.897 164.956 126.984 177.377 126.984C189.182 126.984 199.206 116.897 199.206 104.429V42.6796H224.011V103.819C223.985 116.245 219.064 128.154 210.324 136.941C201.584 145.727 189.737 150.674 177.377 150.7C171.241 150.739 165.158 149.552 159.482 147.21C153.805 144.869 148.647 141.417 144.307 137.057C139.966 132.696 136.53 127.513 134.197 121.807C131.864 116.102 130.68 109.988 130.715 103.819V42.6796L155.529 42.699Z" fill="#FDEF00"/>
</g>
<defs>
<clipPath id="clip0_261_749">
<rect width="1149" height="197" fill="white"/>
</clipPath>
</defs>
</svg>
