<?xml version="1.0" encoding="utf-8"?>
<!-- Generator: Adobe Illustrator 26.0.3, SVG Export Plug-In . SVG Version: 6.00 Build 0)  -->
<svg version="1.1" id="Layer_1" xmlns="http://www.w3.org/2000/svg" xmlns:xlink="http://www.w3.org/1999/xlink" x="0px" y="0px"
	 viewBox="0 0 107 42" style="enable-background:new 0 0 107 42;" xml:space="preserve">
<style type="text/css">
	.st0{fill:#000;}
	.st1{fill:#00CC61;}
</style>
<path class="st0" d="M69.2,6.2h-10v32.2h10V6.2z"/>
<path class="st0" d="M47.2,23L41.5,8.3h-5.6L29.2,23L23.6,7.7h-4.4v5.2v1.2h-1.5H16l10.1,24.3h6.6l5.7-12.9L42,38.4h7.3l7.3-15.6
	V8.7L47.2,23z"/>
<path class="st0" d="M81.4,15.8c0-0.9-0.3-3.1,2.9-3.1c3.1,0,2.3,3.9,2.3,3.9h7.9c0,0,1.7-10.4-11-10.4c-7.4,0-11.9,3.3-11.9,8.3
	c0,9.7,15,7.8,15,12.6c0,2.4-1.2,3.6-3.9,3.6c-5.5,0-4.3-4.5-4.3-4.5h-6.7v7.4c1.8,2.5,5.4,4.8,12.3,4.8c1.3,0,2.5-0.1,3.8-0.3v-7.4
	H97c0.2-0.7,0.4-1.5,0.4-2.2C97.3,17.7,81.4,21.2,81.4,15.8z"/>
<path class="st0" d="M98.1,32.9h-8.2V41h8.2V32.9z"/>
<path class="st1" d="M106,30.1h-5.1v5.1h5.1V30.1z"/>
<path class="st0" d="M6.1,1H1v5.1h5.1V1z"/>
<path class="st1" d="M17.1,3.8H8.9v8.1h8.2V3.8z"/>
</svg>
