<svg width="151" height="40" viewBox="0 0 151 40" fill="none" xmlns="http://www.w3.org/2000/svg">
<g id="Logo_Text 1">
<path id="Vector" d="M16.73 26.0783C16.716 25.8072 16.6434 25.5422 16.5171 25.3006C16.3907 25.0591 16.2134 24.8466 15.997 24.6771C15.449 24.313 14.7931 24.1373 14.1322 24.1775C13.6791 24.1641 13.2276 24.2343 12.801 24.3842C12.4823 24.496 12.2034 24.6954 11.9976 24.9585C11.8226 25.1937 11.7282 25.4772 11.7278 25.7682C11.7107 26.0001 11.7637 26.2318 11.8803 26.4343C12.0068 26.6363 12.177 26.8088 12.3787 26.9397C12.6283 27.0965 12.896 27.2237 13.1763 27.3187C13.5192 27.436 13.8699 27.53 14.226 27.6L15.692 27.9274C16.4623 28.0823 17.212 28.3232 17.9263 28.6452C18.5261 28.914 19.0783 29.2746 19.5624 29.7133C19.9948 30.1163 20.3364 30.6033 20.5652 31.1432C20.7979 31.711 20.9174 32.3173 20.9171 32.9291C20.9336 33.8883 20.6468 34.829 20.0961 35.6224C19.5054 36.4112 18.6891 37.0107 17.7504 37.3451C16.5855 37.7742 15.347 37.979 14.1028 37.9481C12.8415 37.9792 11.5856 37.7746 10.4025 37.3451C9.39824 36.9777 8.53409 36.3159 7.92779 35.4501C7.30715 34.4811 6.99106 33.3548 7.01884 32.2113H10.9479C10.9628 32.6934 11.1174 33.1614 11.3936 33.5608C11.6663 33.9279 12.0408 34.2109 12.4726 34.3762C12.9807 34.5695 13.5227 34.6631 14.0676 34.6519C14.5501 34.6614 15.0305 34.5875 15.4868 34.4337C15.8384 34.3113 16.1501 34.0992 16.3899 33.8192C16.5977 33.5649 16.7114 33.2491 16.7124 32.9234C16.713 32.6257 16.6072 32.3372 16.4133 32.1079C16.1652 31.852 15.8602 31.6555 15.522 31.5337C15.0213 31.3404 14.5055 31.1867 13.9797 31.0743L12.2204 30.6666C10.937 30.4255 9.73665 29.8704 8.73119 29.0529C8.30528 28.6736 7.97072 28.2063 7.75167 27.685C7.53261 27.1636 7.43454 26.6011 7.46452 26.0381C7.43817 25.0634 7.73439 24.1066 8.30897 23.3104C8.91846 22.5063 9.73928 21.8791 10.684 21.4957C11.7778 21.043 12.9565 20.82 14.1439 20.8411C15.3261 20.814 16.5003 21.0373 17.5862 21.4957C18.5041 21.8898 19.2905 22.5285 19.8556 23.3391C20.403 24.1514 20.6909 25.105 20.6825 26.0783H16.73Z" fill="white"/>
<path id="Vector_2" d="M39.0962 29.4203C39.1471 31.0435 38.7736 32.6525 38.0113 34.0947C37.3412 35.3219 36.3229 36.333 35.0792 37.0062C33.8038 37.6645 32.3837 38.0086 30.942 38.0086C29.5002 38.0086 28.0802 37.6645 26.8048 37.0062C25.5616 36.3297 24.5437 35.3169 23.8726 34.089C23.1123 32.6504 22.7409 31.0451 22.7936 29.4261C22.7417 27.8034 23.1131 26.1946 23.8726 24.7516C24.5422 23.5241 25.5606 22.5128 26.8048 21.8402C28.082 21.1875 29.5013 20.8467 30.942 20.8467C32.3826 20.8467 33.802 21.1875 35.0792 21.8402C36.3203 22.5167 37.3377 23.527 38.0113 24.7516C38.7719 26.1924 39.1453 27.7991 39.0962 29.4203ZM34.8798 29.4203C34.9046 28.4806 34.7453 27.5449 34.4107 26.6639C34.1447 25.9718 33.6754 25.3724 33.0619 24.9411C32.4241 24.5666 31.6944 24.3688 30.9508 24.3688C30.2071 24.3688 29.4774 24.5666 28.8397 24.9411C28.2228 25.3703 27.751 25.9702 27.485 26.6639C27.1504 27.5449 26.9911 28.4806 27.0159 29.4203C26.9899 30.3601 27.1492 31.296 27.485 32.1767C27.7478 32.8722 28.2202 33.473 28.8397 33.8995C29.4757 34.2789 30.206 34.4796 30.9508 34.4796C31.6955 34.4796 32.4259 34.2789 33.0619 33.8995C33.6757 33.47 34.1436 32.8698 34.4048 32.1767C34.7466 31.2971 34.9119 30.3612 34.8915 29.4203H34.8798Z" fill="white"/>
<path id="Vector_3" d="M41.5064 37.7763V21.0713H45.6114V34.4744H52.7071V37.7534L41.5064 37.7763Z" fill="white"/>
<path id="Vector_4" d="M65.1803 21.0713H69.2853V31.8443C69.3265 32.9754 69.0213 34.0927 68.4089 35.0525C67.7965 36.0124 66.905 36.771 65.8489 37.2308C64.6512 37.7309 63.3626 37.9887 62.0606 37.9887C60.7585 37.9887 59.4699 37.7309 58.2723 37.2308C57.2383 36.7727 56.3624 36.0306 55.7506 35.0946C55.1366 34.119 54.825 32.9899 54.8534 31.8443V21.0713H58.9584V31.494C58.9486 32.0331 59.082 32.5654 59.3454 33.0387C59.599 33.4834 59.9748 33.8495 60.4303 34.0954C60.9328 34.3483 61.4897 34.4802 62.0547 34.4802C62.6197 34.4802 63.1766 34.3483 63.6791 34.0954C64.1332 33.8478 64.5087 33.4821 64.764 33.0387C65.0295 32.5659 65.1649 32.0336 65.1569 31.494L65.1803 21.0713Z" fill="white"/>
<path id="Vector_5" d="M71.3495 24.3503V21.0713H85.7638V24.3503H80.5915V37.7763H76.5276V24.3503H71.3495Z" fill="white"/>
<path id="Vector_6" d="M91.8744 21.0713V37.7763H87.7694V21.0713H91.8744Z" fill="white"/>
<path id="Vector_7" d="M110.569 29.421C110.615 31.0457 110.235 32.6548 109.467 34.0954C108.797 35.3226 107.779 36.3337 106.535 37.0069C105.258 37.6652 103.837 38.0093 102.395 38.0093C100.952 38.0093 99.5311 37.6652 98.2546 37.0069C97.0123 36.3293 95.9946 35.3168 95.3225 34.0897C94.5622 32.651 94.1907 31.0458 94.2435 29.4267C94.2122 27.7961 94.6079 26.1849 95.3928 24.7465C96.0635 23.5198 97.0817 22.5088 98.325 21.8351C99.5947 21.1948 101.002 20.8613 102.431 20.8623C103.859 20.8633 105.266 21.1988 106.535 21.8408C107.776 22.5174 108.793 23.5277 109.467 24.7523C110.234 26.1915 110.613 27.7983 110.569 29.421ZM106.353 29.421C106.378 28.4813 106.219 27.5456 105.884 26.6646C105.618 25.9709 105.146 25.3709 104.529 24.9418C103.892 24.5684 103.164 24.3712 102.421 24.3712C101.679 24.3712 100.95 24.5684 100.313 24.9418C99.6961 25.3709 99.2243 25.9709 98.9583 26.6646C98.6237 27.5456 98.4644 28.4813 98.4892 29.421C98.4632 30.3608 98.6225 31.2966 98.9583 32.1774C99.2211 32.8728 99.6935 33.4736 100.313 33.9002C100.948 34.2797 101.677 34.4805 102.421 34.4805C103.165 34.4805 103.894 34.2797 104.529 33.9002C105.149 33.4736 105.621 32.8728 105.884 32.1774C106.22 31.2966 106.379 30.3608 106.353 29.421Z" fill="white"/>
<path id="Vector_8" d="M127.488 21.0713V37.7763H123.969L117.196 28.1576H117.091V37.7763H112.986V21.0713H116.504L123.219 30.6958H123.359V21.0713H127.488Z" fill="white"/>
<path id="Vector_9" d="M139.287 26.0784C139.273 25.8074 139.2 25.5423 139.074 25.3008C138.947 25.0592 138.77 24.8467 138.554 24.6772C138.006 24.3131 137.35 24.1374 136.689 24.1776C136.236 24.1643 135.784 24.2344 135.358 24.3843C135.039 24.4961 134.76 24.6955 134.554 24.9586C134.379 25.1938 134.285 25.4773 134.285 25.7683C134.266 25.9984 134.32 26.2286 134.437 26.4287C134.564 26.6307 134.734 26.8032 134.935 26.934C135.184 27.092 135.452 27.2193 135.733 27.313C136.076 27.4304 136.427 27.5244 136.783 27.5944L138.249 27.9218C139.019 28.0767 139.769 28.3175 140.483 28.6396C141.082 28.9071 141.632 29.2678 142.113 29.7077C142.549 30.1088 142.893 30.5963 143.122 31.1376C143.356 31.713 143.473 32.3273 143.468 32.9465C143.483 33.8992 143.198 34.8333 142.653 35.6225C142.061 36.4101 141.245 37.0093 140.307 37.3453C139.142 37.7738 137.904 37.9785 136.66 37.9482C135.386 37.9738 134.12 37.7594 132.93 37.3166C131.924 36.946 131.06 36.2801 130.455 35.41C129.832 34.4421 129.516 33.3151 129.546 32.1712H133.51C133.525 32.6533 133.68 33.1214 133.956 33.5207C134.229 33.8879 134.603 34.1708 135.035 34.3362C135.543 34.5294 136.085 34.6231 136.63 34.6118C137.113 34.6213 137.593 34.5475 138.049 34.3936C138.4 34.2698 138.712 34.0579 138.952 33.7791C139.16 33.5248 139.274 33.209 139.275 32.8833C139.276 32.5856 139.17 32.2972 138.976 32.0679C138.726 31.8112 138.419 31.6147 138.079 31.4936C137.58 31.2994 137.066 31.1457 136.542 31.0342L134.783 30.6265C133.489 30.3912 132.278 29.8358 131.264 29.0128C130.841 28.6372 130.508 28.1748 130.288 27.6587C130.068 27.1426 129.967 26.5854 129.992 26.0267C129.97 25.0553 130.268 24.1029 130.842 23.3105C131.444 22.5105 132.254 21.8837 133.188 21.4958C134.28 21.0436 135.457 20.8206 136.642 20.8412C137.826 20.8133 139.002 21.0366 140.09 21.4958C141.008 21.8899 141.794 22.5287 142.36 23.3392C142.907 24.1516 143.195 25.1052 143.186 26.0784H139.287Z" fill="white"/>
<path id="Vector_10" d="M57.1874 2V18.7108H53.0824V2H57.1874Z" fill="#00CC61"/>
<path id="Vector_11" d="M69.5433 7.01367V18.7112H67.098L62.3421 11.958H62.2717V18.7112H59.3806V7.01367H61.8671L66.5584 13.7497H66.6581V7.01367H69.5433Z" fill="#00CC61"/>
<path id="Vector_12" d="M70.9625 9.31069V7.01367H81.0548V9.31069H77.4366V18.7112H74.5866V9.31069H70.9625Z" fill="#00CC61"/>
<path id="Vector_13" d="M82.4916 18.7112V7.01367H90.8188V9.31069H85.3768V11.7053H90.3907V14.0023H85.3768V16.4085H90.8188V18.7055L82.4916 18.7112Z" fill="#00CC61"/>
<path id="Vector_14" d="M92.6074 18.7104V7.01286H97.5392C98.3477 6.9901 99.1507 7.15129 99.8849 7.48374C100.512 7.77778 101.037 8.2474 101.392 8.83324C101.761 9.46322 101.945 10.1804 101.926 10.9063C101.949 11.6322 101.76 12.3496 101.38 12.9736C101.012 13.5442 100.477 13.9926 99.8438 14.2599C99.1037 14.5721 98.3038 14.7248 97.4981 14.7079H94.3784V12.4798H96.9645C97.3359 12.4905 97.7061 12.4321 98.0552 12.3075C98.3288 12.2127 98.5635 12.0333 98.7238 11.7964C98.8677 11.5302 98.9327 11.2298 98.9114 10.9293C98.9242 10.6154 98.8449 10.3045 98.6827 10.0334C98.5243 9.78834 98.2901 9.59921 98.0142 9.49363C97.6658 9.36556 97.2954 9.3051 96.9234 9.31562H95.4984V18.7334L92.6074 18.7104ZM99.3278 13.3641L102.301 18.7104H99.1577L96.2256 13.3641H99.3278Z" fill="#00CC61"/>
<path id="Vector_15" d="M103.474 18.7112V7.01367H111.625V9.31069H106.347V11.7053H111.097V14.0023H106.347V18.7055L103.474 18.7112Z" fill="#00CC61"/>
<path id="Vector_16" d="M114.158 18.7112H111.056L115.085 7.01367H118.926L122.955 18.7112H119.853L117.05 9.9596H116.956L114.158 18.7112ZM113.742 14.1172H120.228V16.2649H113.748L113.742 14.1172Z" fill="#00CC61"/>
<path id="Vector_17" d="M134.531 11.2509H131.599C131.565 10.9753 131.484 10.7073 131.358 10.4584C131.241 10.2277 131.08 10.0211 130.883 9.84968C130.675 9.6794 130.437 9.54889 130.18 9.46493C129.89 9.37474 129.587 9.33016 129.282 9.33285C128.753 9.31841 128.231 9.46266 127.787 9.74631C127.353 10.0478 127.019 10.467 126.825 10.9522C126.587 11.5602 126.474 12.208 126.491 12.8588C126.469 13.5254 126.585 14.1894 126.831 14.8112C127.022 15.2915 127.358 15.7039 127.793 15.9942C128.233 16.2654 128.745 16.4032 129.265 16.3904C129.561 16.3936 129.855 16.353 130.139 16.2698C130.635 16.1223 131.055 15.7933 131.311 15.351C131.445 15.1173 131.536 14.8628 131.581 14.5988H134.513C134.456 15.1308 134.301 15.6483 134.056 16.1263C133.791 16.6408 133.436 17.1054 133.006 17.4987C132.539 17.9275 131.991 18.2629 131.393 18.4865C130.693 18.7381 129.952 18.8608 129.206 18.8482C128.195 18.865 127.198 18.6256 126.309 18.1534C125.447 17.6782 124.744 16.968 124.286 16.109C123.766 15.1029 123.51 13.9859 123.541 12.8588C123.503 11.7248 123.761 10.6 124.292 9.59126C124.754 8.73322 125.461 8.02505 126.327 7.55266C127.207 7.08032 128.197 6.83897 129.2 6.85207C129.881 6.84493 130.558 6.94577 131.206 7.15068C131.798 7.33203 132.349 7.62245 132.83 8.00632C133.3 8.38628 133.687 8.855 133.968 9.38453C134.276 9.9657 134.467 10.5992 134.531 11.2509Z" fill="#00CC61"/>
<path id="Vector_18" d="M136.173 18.7112V7.01367H144.5V9.31069H139.064V11.7053H144.066V14.0023H139.052V16.4085H144.488V18.7055L136.173 18.7112Z" fill="#00CC61"/>
<path id="Vector_19" d="M10.467 18.7108L5.5 2H10.0565L12.6309 12.951H12.7717L15.7038 2H19.4217L22.3538 12.974H22.5004L25.0807 2H29.6313L24.6702 18.7108H20.7118L17.639 8.57521H17.5041L14.4312 18.7108H10.467Z" fill="#00CC61"/>
<path id="Vector_20" d="M30.9625 18.7112V7.01367H39.2897V9.31069H33.8477V11.7053H38.8616V14.0023H33.8477V16.4085H39.2897V18.7055L30.9625 18.7112Z" fill="#00CC61"/>
<path id="Vector_21" d="M41.0959 18.7105V7.01289H46.0747C46.841 6.99235 47.6041 7.11916 48.3207 7.38616C48.8725 7.59015 49.3487 7.95239 49.687 8.42556C49.9963 8.88299 50.1558 9.42183 50.1444 9.9703C50.1542 10.374 50.0606 10.7736 49.8721 11.1327C49.6836 11.4918 49.4063 11.7989 49.0654 12.0261C48.7122 12.2637 48.3131 12.4278 47.8926 12.5085V12.6521C48.3629 12.6715 48.8215 12.8015 49.2296 13.0311C49.6424 13.2556 49.9896 13.5798 50.2383 13.9729C50.4925 14.42 50.62 14.9256 50.6077 15.4372C50.6188 16.0328 50.4494 16.6183 50.121 17.1198C49.768 17.626 49.276 18.0241 48.7018 18.2683C47.9951 18.5733 47.2279 18.7205 46.4558 18.699L41.0959 18.7105ZM43.9811 11.8194H45.5762C45.8649 11.8235 46.1517 11.7728 46.4206 11.6701C46.6564 11.5798 46.8602 11.4241 47.0071 11.2222C47.1508 11.0161 47.2246 10.771 47.2182 10.5216C47.2272 10.3452 47.193 10.1693 47.1186 10.0085C47.0441 9.84768 46.9315 9.70661 46.7901 9.59704C46.4531 9.3504 46.037 9.2302 45.6172 9.25823H43.9753L43.9811 11.8194ZM43.9811 16.4134H45.7404C46.2326 16.4681 46.7291 16.3567 47.1478 16.0976C47.2965 15.983 47.4147 15.8349 47.4924 15.6659C47.57 15.497 47.6047 15.3121 47.5935 15.1271C47.5999 14.8525 47.5267 14.5817 47.3824 14.3461C47.2381 14.1281 47.0352 13.9532 46.796 13.8408C46.4964 13.7142 46.1721 13.6535 45.8459 13.6628H43.9811V16.4134Z" fill="#00CC61"/>
</g>
</svg>
