<svg width="974" height="383" viewBox="0 0 974 383" fill="none" xmlns="http://www.w3.org/2000/svg">
<g clip-path="url(#clip0_684_3094)">
<path d="M625.213 56.64H534.273V349.671H625.213V56.64Z" fill="white"/>
<path d="M424.742 209.315L373.437 75.0241H322.085L261.397 209.315L210.045 69.5136H170.131V116.978V128.046H156.126H141.094L233.387 349.069H293.141L345.427 231.357L378.105 349.069H444.909L511.059 207.138V78.6824L424.742 209.315Z" fill="white"/>
<path d="M736.32 143.234C736.32 135.223 733.239 115.45 762.556 115.45C790.799 115.45 783.89 151.153 783.89 151.153H855.922C855.922 151.153 871.468 56.64 755.693 56.64C688.142 56.64 647.668 86.4154 647.668 131.982C647.668 220.428 784.17 202.646 784.17 246.545C784.17 267.985 773.48 279.562 748.597 279.562C698.786 279.562 709.477 238.488 709.477 238.488H648.322V305.911C664.987 329.064 697.479 349.671 760.362 349.671C771.921 349.717 783.458 348.662 794.814 346.522V279.284H878.004C880.115 272.819 881.233 266.075 881.318 259.28C881.272 160.785 736.32 192.736 736.32 143.234Z" fill="white"/>
<path d="M888.133 298.965H813.439V373.056H888.133V298.965Z" fill="white"/>
<path d="M960.342 273.45H913.658V319.757H960.342V273.45Z" fill="#00CC61"/>
<path d="M51.2342 8.94391H4.55078V55.2509H51.2342V8.94391Z" fill="white"/>
<path d="M151.463 34.5052H76.7695V108.597H151.463V34.5052Z" fill="#00CC61"/>
</g>
<defs>
<clipPath id="clip0_684_3094">
<rect width="955.794" height="364.112" fill="white" transform="translate(4.55078 8.94391)"/>
</clipPath>
</defs>
</svg>
