<svg width="36" height="36" viewBox="0 0 36 36" fill="none" xmlns="http://www.w3.org/2000/svg">
<g clip-path="url(#clip0_792_1198)">
<path d="M18 0.000305176C8.05899 0.000305176 0 8.05929 0 18.0003C0 27.9413 8.05899 36.0044 18 36.0044C18.0521 36.0044 18.1025 36.0044 18.1546 36.0044V23.4397H13.82V18.4204H18.1546V14.7192C18.1546 10.4234 20.7776 8.08492 24.6045 8.08492C25.8982 8.08027 27.1912 8.14625 28.4777 8.28255V12.7685H25.82C23.7362 12.7685 23.3335 13.7608 23.3335 15.212V18.4162H28.3032L27.6557 23.4355H23.3335V35.1957C30.6681 32.9217 35.9959 26.0833 35.9959 17.9962C36 8.05929 27.941 0.000305176 18 0.000305176Z" fill="#016546"/>
</g>
<defs>
<clipPath id="clip0_792_1198">
<rect width="36.0008" height="36" fill="white"/>
</clipPath>
</defs>
</svg>
