<svg width="36" height="36" viewBox="0 0 36 36" fill="none" xmlns="http://www.w3.org/2000/svg">
<g clip-path="url(#clip0_792_1199)">
<path d="M28.1744 -0.000488281H7.82818C5.75456 0.00553163 3.7676 0.831941 2.30133 2.29821C0.835054 3.76449 0.00864442 5.75145 0.00262451 7.82507V28.1731C0.00262451 32.4777 3.52443 35.9995 7.82818 35.9995H28.1744C32.4747 35.9995 36 32.4777 36 28.1731V7.82507C35.994 5.75145 35.1676 3.76449 33.7013 2.29821C32.235 0.831941 30.2481 0.00553163 28.1744 -0.000488281ZM31.4654 23.6271C31.4654 27.9379 27.9384 31.4641 23.6285 31.4641H12.3724C8.06162 31.4641 4.53455 27.9379 4.53455 23.6271V12.371C4.53455 8.06114 8.06162 4.53407 12.3724 4.53407H23.625C27.9349 4.53407 31.4619 8.06114 31.4619 12.371L31.4654 23.6271Z" fill="#016546"/>
<path d="M23.5978 6.98792H12.4022C10.9677 6.99208 9.5932 7.56384 8.57893 8.57827C7.56467 9.5927 6.99313 10.9673 6.9892 12.4018V23.5974C6.99336 25.0317 7.565 26.4061 8.57924 27.4203C9.59348 28.4346 10.9679 29.0062 12.4022 29.0104H23.5978C25.0321 29.0062 26.4065 28.4346 27.4208 27.4203C28.435 26.4061 29.0066 25.0317 29.0108 23.5974V12.4018C29.0069 10.9673 28.4353 9.5927 27.4211 8.57827C26.4068 7.56384 25.0323 6.99208 23.5978 6.98792ZM18.0004 24.9129C16.633 24.9131 15.2962 24.5077 14.1591 23.7481C13.0221 22.9886 12.1358 21.9088 11.6124 20.6455C11.0889 19.3822 10.9519 17.9921 11.2186 16.6509C11.4852 15.3097 12.1436 14.0777 13.1105 13.1107C14.0774 12.1437 15.3093 11.4852 16.6504 11.2183C17.9916 10.9515 19.3818 11.0884 20.6451 11.6116C21.9085 12.1349 22.9883 13.021 23.7481 14.158C24.5078 15.295 24.9133 16.6317 24.9133 17.9992C24.9133 19.8326 24.185 21.591 22.8886 22.8876C21.5922 24.1841 19.8339 24.9126 18.0004 24.9129ZM25.1546 12.4659C24.8347 12.4659 24.522 12.371 24.256 12.1933C23.9901 12.0156 23.7827 11.763 23.6603 11.4674C23.5379 11.1719 23.5059 10.8467 23.5683 10.5329C23.6307 10.2192 23.7847 9.93099 24.0109 9.70479C24.2371 9.47859 24.5253 9.32455 24.8391 9.26214C25.1528 9.19973 25.478 9.23176 25.7736 9.35418C26.0691 9.4766 26.3217 9.6839 26.4995 9.94989C26.6772 10.2159 26.772 10.5286 26.772 10.8485C26.772 11.0609 26.7302 11.2712 26.6489 11.4674C26.5676 11.6637 26.4485 11.842 26.2983 11.9922C26.1481 12.1424 25.9698 12.2615 25.7736 12.3428C25.5773 12.4241 25.367 12.4659 25.1546 12.4659Z" fill="#016546"/>
<path d="M17.9996 22.5003C20.4855 22.5003 22.5008 20.4851 22.5008 17.9991C22.5008 15.5132 20.4855 13.4979 17.9996 13.4979C15.5136 13.4979 13.4984 15.5132 13.4984 17.9991C13.4984 20.4851 15.5136 22.5003 17.9996 22.5003Z" fill="#016546"/>
</g>
<defs>
<clipPath id="clip0_792_1199">
<rect width="36" height="36" fill="white"/>
</clipPath>
</defs>
</svg>
