<svg width="36" height="36" viewBox="0 0 36 36" fill="none" xmlns="http://www.w3.org/2000/svg">
<g clip-path="url(#clip0_792_1197)">
<path d="M18.0021 6.10352e-05C8.0616 6.10352e-05 0.00170898 8.06077 0.00170898 18.0005C0.00170898 25.3713 4.43382 31.7031 10.7764 34.4868C10.7258 33.2297 10.7673 31.7213 11.089 30.3532C11.4356 28.8921 13.4058 20.5453 13.4058 20.5453C13.4058 20.5453 12.8304 19.396 12.8304 17.6978C12.8304 15.0303 14.3768 13.0377 16.3014 13.0377C17.9391 13.0377 18.7302 14.2674 18.7302 15.7401C18.7302 17.386 17.6804 19.8479 17.1406 22.1249C16.6895 24.0321 18.0975 25.591 19.9814 25.591C23.392 25.591 25.6889 21.2112 25.6889 16.0212C25.6889 12.0766 23.0313 9.12381 18.1986 9.12381C12.7392 9.12381 9.33692 13.1952 9.33692 17.7476C9.33692 19.3164 9.79961 20.4218 10.5243 21.2783C10.856 21.6714 10.9033 21.8297 10.7822 22.2817C10.6993 22.6133 10.4978 23.4102 10.4157 23.7261C10.2963 24.1822 9.92648 24.3447 9.51436 24.1764C7.00021 23.1498 5.82854 20.3961 5.82854 17.2998C5.82854 12.1869 10.1404 6.05575 18.6929 6.05575C25.5653 6.05575 30.0878 11.031 30.0878 16.3669C30.0878 23.4276 26.1623 28.703 20.3761 28.703C18.4325 28.703 16.6049 27.6524 15.9813 26.4592C15.9813 26.4592 14.9357 30.6052 14.7151 31.4071C14.3329 32.7952 13.5858 34.1824 12.9033 35.2637C14.5595 35.7533 16.2776 36.0019 18.0046 36.0017C27.9443 36.0017 36.0034 27.9427 36.0034 18.0013C36.0034 8.05995 27.9418 6.10352e-05 18.0021 6.10352e-05Z" fill="#016546"/>
</g>
<defs>
<clipPath id="clip0_792_1197">
<rect width="35.9992" height="36" fill="white" transform="translate(0.00170898)"/>
</clipPath>
</defs>
</svg>
