<svg width="36" height="36" viewBox="0 0 36 36" fill="none" xmlns="http://www.w3.org/2000/svg">
<g clip-path="url(#clip0_792_1195)">
<path d="M30.4331 3.11789C29.6075 2.35125 26.0443 0.0649166 18.6099 0.0313762C18.6099 0.0313762 9.80994 -0.560372 5.53474 3.3958C3.15474 5.79154 2.35394 9.36439 2.26594 13.7198C2.17794 18.0753 1.91555 26.375 9.71395 28.5886L9.75954 28.6006L9.76594 36.0002L15.5707 29.5781C20.9251 29.9366 25.1851 28.8537 25.6435 28.6996C26.7195 28.3466 32.5603 27.8308 33.5515 19.6701C34.5731 11.2618 33.1755 5.51922 30.4331 3.11789ZM17.7691 5.55996C20.3371 5.57912 22.5147 6.46075 24.2443 8.18249C25.1172 9.0553 25.789 10.1075 26.2131 11.2658C26.6483 12.4405 26.8747 13.7909 26.8867 15.2771C26.8868 15.3393 26.8626 15.399 26.8193 15.4437C26.776 15.4884 26.717 15.5146 26.6547 15.5167C26.5919 15.5154 26.5321 15.4896 26.4881 15.4448C26.4442 15.4 26.4195 15.3398 26.4195 15.2771C26.4091 13.8468 26.1939 12.5539 25.7795 11.4319C25.3788 10.3388 24.745 9.34567 23.9219 8.52109C23.1323 7.72521 22.1905 7.09596 21.1523 6.67077C20.076 6.24529 18.9284 6.02847 17.7707 6.03191C17.7071 6.03191 17.646 6.00667 17.601 5.96174C17.556 5.91681 17.5307 5.85588 17.5307 5.79234C17.5307 5.7288 17.556 5.66787 17.601 5.62294C17.646 5.57801 17.7071 5.55276 17.7707 5.55276L17.7691 5.55996ZM22.6347 10.2572C22.1496 9.7162 21.5549 9.28422 20.8899 8.98985C20.1473 8.6723 19.3555 8.48482 18.5491 8.43565C18.4855 8.4312 18.4262 8.40169 18.3844 8.35361C18.3425 8.30554 18.3215 8.24283 18.3259 8.17929C18.3304 8.11576 18.36 8.05659 18.4081 8.0148C18.4563 7.97302 18.5191 7.95205 18.5827 7.9565C20.4531 8.09705 21.9323 8.76146 22.9827 9.93377C24.0331 11.1061 24.5515 12.5891 24.5131 14.334C24.5117 14.3957 24.4865 14.4545 24.4426 14.4981C24.3988 14.5417 24.3398 14.5667 24.2779 14.5679H24.2723C24.2097 14.565 24.1506 14.5378 24.1079 14.4919C24.0651 14.4461 24.042 14.3854 24.0435 14.3228C24.0819 12.7065 23.6019 11.3393 22.6347 10.2572ZM22.1899 13.5226C22.1932 13.5852 22.1718 13.6467 22.1302 13.6937C22.0886 13.7408 22.0302 13.7696 21.9675 13.7742H21.9555C21.895 13.7726 21.8373 13.7483 21.794 13.7061C21.7507 13.6639 21.725 13.6069 21.7219 13.5466C21.6811 12.7041 21.4539 12.0588 21.0451 11.63C20.6363 11.2011 20.0315 10.9632 19.2395 10.92C19.208 10.9183 19.1771 10.9105 19.1487 10.8969C19.1202 10.8833 19.0947 10.8643 19.0736 10.8408C19.0525 10.8174 19.0362 10.79 19.0257 10.7603C19.0152 10.7306 19.0107 10.6991 19.0123 10.6677C19.014 10.6362 19.0219 10.6054 19.0355 10.577C19.0491 10.5485 19.0682 10.5231 19.0917 10.502C19.1152 10.481 19.1426 10.4647 19.1723 10.4542C19.2021 10.4437 19.2336 10.4392 19.2651 10.4409C20.1803 10.4912 20.8915 10.7795 21.3827 11.297C21.8739 11.8144 22.1435 12.5603 22.1899 13.5226ZM27.1499 22.838V22.8524C26.7314 23.5973 26.197 24.2712 25.5667 24.8489L25.5523 24.8592C24.6851 25.5987 23.8403 25.8319 23.0251 25.5612C19.8883 24.297 16.7051 22.4723 13.7635 19.4249C10.7891 16.3384 8.79475 12.8765 7.76355 9.62233L7.65875 9.14797C7.45715 7.96767 8.19554 7.17707 10.2323 5.80112L10.2683 5.77477C10.9771 5.34034 11.6803 5.55516 12.1339 5.93449C12.5539 6.23315 13.7339 7.79518 13.7339 7.79518C13.9659 8.14815 15.5915 10.1502 15.2171 11.1101C15.0891 11.6627 14.1371 12.2433 13.6235 12.7208L13.5819 12.7544C13.3643 13.1169 13.2755 13.3637 13.3475 13.8955L13.3667 13.981C13.6334 15.2763 14.3846 16.5213 15.6203 17.7159C16.8435 18.8978 18.0387 19.5998 19.1627 19.8809C19.3227 19.9136 19.9211 19.9967 20.3115 19.5016L21.0723 18.5241C21.4379 18.0386 22.3251 17.7255 23.1931 18.223C23.8443 18.6025 24.4761 19.0142 25.0859 19.4568C25.6611 19.8897 26.8395 20.8943 26.8459 20.8943C27.4011 21.3758 27.5299 22.0874 27.1483 22.838H27.1499Z" fill="#016546"/>
</g>
<defs>
<clipPath id="clip0_792_1195">
<rect width="36" height="36" fill="white" transform="translate(0.000854492)"/>
</clipPath>
</defs>
</svg>
