<svg width="36" height="36" viewBox="0 0 36 36" fill="none" xmlns="http://www.w3.org/2000/svg">
<g clip-path="url(#clip0_792_1196)">
<path d="M18.0013 7.98975C15.3474 7.99282 12.8032 9.04841 10.9266 10.9249C9.05011 12.8015 7.99452 15.3457 7.99145 17.9996C7.98683 20.2315 8.73603 22.3996 10.1176 24.1526L10.3664 24.4668L9.85144 27.1204L12.35 26.2605L12.704 26.4819C14.0182 27.3027 15.505 27.807 17.0474 27.9552C18.5897 28.1034 20.1453 27.8914 21.5917 27.3358C23.0382 26.7803 24.3358 25.8965 25.3824 24.7539C26.429 23.6114 27.1959 22.2414 27.6228 20.752C28.0496 19.2625 28.1248 17.6943 27.8422 16.1708C27.5597 14.6474 26.9272 13.2104 25.9946 11.9731C25.062 10.7357 23.8548 9.73189 22.4681 9.04065C21.0814 8.34941 19.5532 7.98966 18.0037 7.98975H18.0013ZM23.8549 22.6259C23.5597 22.9203 22.6989 23.8283 21.4036 23.8283C20.1084 23.8283 17.0269 22.7752 15.3842 21.1324C13.7414 19.4897 12.2836 17.8238 11.9387 16.3079C11.5937 14.792 11.6401 14.1063 12.0647 13.4818C12.0647 13.4818 12.7546 12.2761 13.3169 12.2073C13.8791 12.1385 14.6038 12.1376 14.7987 12.5058C14.9936 12.874 15.8668 15.0076 15.8668 15.0076C15.9083 15.1268 15.9224 15.2537 15.9081 15.3791C15.8937 15.5044 15.8513 15.6249 15.7839 15.7316C15.5542 16.0873 15.0375 16.6039 15.0375 16.6039C14.9563 16.7136 14.9125 16.8465 14.9125 16.9829C14.9125 17.1194 14.9563 17.2522 15.0375 17.3619C15.3245 17.7524 15.7698 18.4706 16.6919 19.391C17.614 20.3115 19.3795 20.9666 19.3795 20.9666C19.4535 20.9755 19.5287 20.9689 19.6 20.9472C19.6714 20.9255 19.7375 20.8892 19.7941 20.8405C19.9541 20.6797 20.8282 19.5884 20.8282 19.5884C20.9175 19.483 21.0399 19.4109 21.1753 19.3839C21.3108 19.3568 21.4515 19.3762 21.5745 19.4391C22.0389 19.6514 24.0547 20.6565 24.0547 20.6565C24.0547 20.6565 24.2911 20.7394 24.2911 21.0984C24.2911 21.4575 24.1485 22.3307 23.8549 22.6259Z" fill="#016546"/>
<path d="M18.0013 -0.00164795C8.07603 -0.00164795 0.000845305 8.07271 0.000845305 17.9988C-0.00833161 21.8015 1.20092 25.5071 3.45133 28.5725L2.00762 36L9.02303 33.5828C11.7512 35.1636 14.8482 35.9968 18.0013 35.9984C27.9273 35.9984 36.0017 27.924 36.0017 17.9988C36.0017 8.07354 27.9273 -0.00164795 18.0013 -0.00164795ZM18.0013 29.7583C15.9416 29.7582 13.9185 29.2147 12.136 28.1827L7.55444 29.7583L8.49563 24.9064C7.02583 22.9034 6.23597 20.4824 6.24174 17.9979C6.24174 11.5141 11.5166 6.23842 18.0013 6.23842C24.486 6.23842 29.7608 11.5141 29.7608 17.9979C29.7608 24.4818 24.486 29.7599 18.0013 29.7599V29.7583Z" fill="#016546"/>
</g>
<defs>
<clipPath id="clip0_792_1196">
<rect width="36.0008" height="36" fill="white" transform="translate(0.000854492)"/>
</clipPath>
</defs>
</svg>
