<svg width="41" height="40" viewBox="0 0 41 40" fill="none" xmlns="http://www.w3.org/2000/svg">
<path d="M21.6443 36C19.0518 36 16.7521 35.6446 14.745 34.9338C12.7463 34.2313 11.0612 33.1943 9.68973 31.8228C8.31824 30.4597 7.27708 28.7871 6.56625 26.8052C5.85542 24.8232 5.5 22.5611 5.5 20.0188C5.5 17.5434 5.8596 15.319 6.57879 13.3454C7.29799 11.3718 8.34333 9.69084 9.71482 8.30263C11.0947 6.90605 12.7714 5.8398 14.745 5.10388C16.7186 4.36796 18.9598 4 21.4686 4C23.8687 4 25.9845 4.37632 27.816 5.12897C29.6474 5.88161 31.1861 6.91441 32.4322 8.22736C33.6866 9.54031 34.6316 11.0456 35.2671 12.7432C35.9027 14.4409 36.2205 16.2347 36.2205 18.1247C36.2205 19.446 36.1369 20.738 35.9696 22.0008C35.8024 23.2552 35.4929 24.3925 35.0414 25.4128C34.5981 26.4247 33.9542 27.2359 33.1096 27.8463C32.2733 28.4485 31.1861 28.7621 29.8481 28.7871C29.1373 28.8122 28.4473 28.7286 27.7783 28.5363C27.1093 28.3439 26.5406 28.0345 26.0723 27.608C25.604 27.1731 25.3197 26.6212 25.2193 25.9522H25.0688C24.8681 26.4456 24.5336 26.9055 24.0653 27.332C23.597 27.7502 22.999 28.0847 22.2715 28.3356C21.5523 28.5781 20.716 28.6784 19.7626 28.6366C18.7089 28.5948 17.7598 28.3565 16.9151 27.9216C16.0705 27.4867 15.3471 26.8846 14.745 26.1152C14.1512 25.3459 13.6955 24.4343 13.3777 23.3806C13.0599 22.3269 12.901 21.1561 12.901 19.8683C12.901 18.6306 13.0808 17.5225 13.4404 16.5441C13.8 15.5573 14.2892 14.7085 14.9081 13.9976C15.5353 13.2785 16.2545 12.7098 17.0657 12.2916C17.8768 11.8735 18.734 11.6101 19.6372 11.5014C20.5153 11.401 21.3223 11.4261 22.0582 11.5766C22.7941 11.7272 23.4046 11.9571 23.8897 12.2666C24.3831 12.576 24.6925 12.9147 24.8179 13.2826H24.981V11.8777H28.0668V23.5186C28.0668 24.1793 28.2383 24.7396 28.5811 25.1995C28.9324 25.6595 29.43 25.8895 30.0739 25.8895C30.8349 25.8895 31.4287 25.6093 31.8552 25.049C32.29 24.4887 32.5953 23.6273 32.7709 22.4649C32.9549 21.3025 33.0468 19.8139 33.0468 17.9992C33.0468 16.7281 32.8754 15.5322 32.5325 14.4116C32.198 13.2826 31.7004 12.2624 31.0398 11.3508C30.3875 10.4309 29.5847 9.64066 28.6313 8.98001C27.678 8.31935 26.5908 7.80922 25.3699 7.44963C24.1573 7.09003 22.815 6.91023 21.3432 6.91023C19.3445 6.91023 17.5674 7.21965 16.012 7.8385C14.4565 8.44897 13.1435 9.33124 12.0731 10.4853C11.011 11.6394 10.204 13.0234 9.6521 14.6374C9.10852 16.243 8.83673 18.0452 8.83673 20.0439C8.83673 22.1262 9.11688 23.9744 9.67719 25.5884C10.2375 27.194 11.0654 28.5488 12.1609 29.6527C13.2564 30.7566 14.6112 31.5928 16.2252 32.1615C17.8392 32.7385 19.6999 33.027 21.8073 33.027C22.744 33.027 23.6639 32.9434 24.567 32.7762C25.4702 32.6173 26.273 32.4333 26.9755 32.2242C27.6863 32.0235 28.2174 31.8604 28.5686 31.735L29.4467 34.4822C28.9282 34.7247 28.2383 34.963 27.3769 35.1972C26.5239 35.4313 25.5956 35.6237 24.5921 35.7742C23.597 35.9247 22.6143 36 21.6443 36ZM20.4902 25.5633C21.5774 25.5633 22.4513 25.3459 23.1119 24.911C23.7809 24.4762 24.2618 23.828 24.5545 22.9667C24.8555 22.097 25.0061 21.0098 25.0061 19.7052C24.9977 18.4341 24.8346 17.4222 24.5169 16.6695C24.2074 15.9085 23.7224 15.365 23.0617 15.0388C22.4094 14.7043 21.569 14.537 20.5404 14.537C19.5954 14.537 18.7884 14.767 18.1194 15.227C17.4587 15.6869 16.9528 16.3099 16.6015 17.096C16.2587 17.8821 16.083 18.756 16.0747 19.7178C16.083 20.7296 16.2252 21.683 16.5012 22.5778C16.7855 23.4643 17.2455 24.1835 17.881 24.7354C18.525 25.2873 19.3947 25.5633 20.4902 25.5633Z" fill="black"/>
</svg>
