<svg width="37" height="36" viewBox="0 0 37 36" fill="none" xmlns="http://www.w3.org/2000/svg">
<path d="M10.8321 6.12437C11.1332 6.14202 11.4255 6.22875 11.6847 6.37733C11.944 6.52591 12.1626 6.73203 12.3225 6.97855C12.6891 7.55706 13.2812 8.45395 14.0546 9.61873C14.3931 10.1391 14.5823 10.7368 14.6028 11.3507C14.6233 11.9646 14.4745 12.5728 14.1714 13.1131L12.7656 15.0544C12.5793 15.3097 12.4632 15.6063 12.4279 15.9166C12.3927 16.2269 12.4396 16.5407 12.5642 16.8288C13.7655 19.5734 16.0363 21.7539 18.8884 22.9012C19.1877 23.0224 19.5141 23.0681 19.8369 23.0342C20.1596 23.0002 20.4681 22.8876 20.7333 22.7071L22.7473 21.3559C23.3112 21.06 23.9469 20.9148 24.5885 20.9352C25.2302 20.9557 25.8545 21.1412 26.3968 21.4724L29.1078 23.1458C29.3637 23.2997 29.5778 23.5104 29.732 23.7603C29.8861 24.0102 29.976 24.2921 29.994 24.5824C30.143 27.8787 27.4925 29.2105 26.7231 29.2105C26.1914 29.2105 19.7786 29.9132 12.5481 22.9439C5.31759 15.9746 6.01848 9.79733 6.01848 9.28094C6.01848 8.53936 7.40416 5.98848 10.8321 6.12437Z" fill="white"/>
</svg>
