<svg width="37" height="36" viewBox="0 0 37 36" fill="none" xmlns="http://www.w3.org/2000/svg">
<path d="M28.6366 6.85139C27.955 6.20662 25.1438 4.1618 18.8804 4.1397C18.8804 4.1397 11.4896 3.6902 7.86051 6.99508C5.85253 9.00305 5.14882 11.9358 5.07513 15.5723C5.00144 19.2087 4.90565 26.0211 11.4712 27.867V30.6892C11.4712 30.6892 11.4712 31.835 12.1823 32.0635C13.0923 32.3509 13.6265 31.4777 14.496 30.5455C14.9713 30.0297 15.6345 29.2744 16.1245 28.7033C18.9197 28.9632 21.7386 28.7565 24.4659 28.0917C25.3723 27.797 30.5083 27.1412 31.3446 20.3214C32.2362 13.2917 30.9541 8.84831 28.6366 6.85139ZM29.3993 19.8167C28.7029 25.4869 24.5396 25.8553 23.7769 26.1059C21.4311 26.683 19.0098 26.8918 16.5998 26.7248C16.5998 26.7248 13.7518 30.1144 12.8602 31.0466C12.8107 31.1047 12.7482 31.1503 12.6778 31.1797C12.6074 31.2091 12.531 31.2216 12.4549 31.2161C12.3038 31.1719 12.2596 30.995 12.2596 30.7334V26.0469C6.69993 24.4958 7.02416 18.6782 7.10153 15.6644C7.1789 12.6506 7.73892 10.1378 9.43373 8.46145C12.4733 5.70555 18.7552 6.11451 18.7552 6.11451C24.0496 6.11451 26.5955 7.73195 27.1776 8.26618C29.1524 9.94257 30.1435 13.9438 29.4251 19.8167H29.3993Z" fill="white"/>
<path d="M21.4557 15.7654C21.3629 15.7657 21.2734 15.731 21.2051 15.6682C21.1368 15.6053 21.0947 15.519 21.0873 15.4265C21.1283 14.979 20.9898 14.5335 20.7024 14.188C20.415 13.8426 20.0021 13.6254 19.5546 13.5843C19.4724 13.5788 19.39 13.5788 19.3078 13.5843C19.2524 13.5953 19.1953 13.5934 19.1409 13.5789C19.0864 13.5643 19.0359 13.5374 18.9935 13.5003C18.951 13.4632 18.9177 13.4168 18.8959 13.3648C18.8742 13.3127 18.8648 13.2564 18.8683 13.2001C18.8718 13.1438 18.8881 13.089 18.9161 13.0401C18.9441 12.9911 18.983 12.9492 19.0297 12.9176C19.0764 12.8861 19.1298 12.8656 19.1857 12.8579C19.2415 12.8502 19.2984 12.8555 19.352 12.8732C19.6649 12.8619 19.9769 12.9124 20.2703 13.0219C20.5636 13.1314 20.8325 13.2977 21.0615 13.5113C21.2904 13.7248 21.475 13.9815 21.6046 14.2665C21.7343 14.5515 21.8064 14.8593 21.8168 15.1723C21.8168 15.2496 21.8168 15.3307 21.8168 15.4081C21.8171 15.5009 21.7824 15.5904 21.7195 15.6587C21.6567 15.727 21.5704 15.7691 21.4779 15.7765L21.4557 15.7654Z" fill="white"/>
<path d="M23.2758 16.3747C23.182 16.369 23.0938 16.3277 23.0295 16.2592C22.9651 16.1907 22.9293 16.1002 22.9295 16.0062C22.9616 15.4622 22.8846 14.9173 22.703 14.4035C22.5214 13.8897 22.2389 13.4175 21.8721 13.0145C21.0612 12.1751 19.9514 11.6904 18.7846 11.666C18.7308 11.685 18.6734 11.6913 18.6169 11.6843C18.5603 11.6773 18.5061 11.6574 18.4586 11.6259C18.4111 11.5945 18.3715 11.5524 18.343 11.5031C18.3144 11.4538 18.2977 11.3985 18.2942 11.3416C18.2906 11.2847 18.3003 11.2278 18.3225 11.1753C18.3446 11.1228 18.3787 11.0762 18.4219 11.0391C18.4652 11.0019 18.5164 10.9754 18.5717 10.9614C18.6269 10.9475 18.6847 10.9465 18.7404 10.9586C18.772 10.953 18.8045 10.953 18.8362 10.9586C20.1814 10.9963 21.4586 11.5583 22.3952 12.5245C23.2466 13.4697 23.6891 14.7136 23.6258 15.9841C23.6268 16.073 23.5957 16.1592 23.5381 16.2269C23.4806 16.2946 23.4005 16.3392 23.3126 16.3526L23.2758 16.3747Z" fill="white"/>
<path d="M25.1327 17.1051C25.035 17.1051 24.9413 17.0663 24.8722 16.9972C24.8031 16.9281 24.7643 16.8344 24.7643 16.7366C24.8131 15.8034 24.6689 14.8702 24.3405 13.9953C24.0121 13.1205 23.5066 12.3228 22.8558 11.6522C22.2342 11.0498 21.4993 10.5768 20.6935 10.2605C19.8878 9.94432 19.0273 9.79119 18.1619 9.81004C18.0642 9.81004 17.9705 9.77123 17.9014 9.70213C17.8323 9.63304 17.7935 9.53932 17.7935 9.44161C17.7935 9.34389 17.8323 9.25018 17.9014 9.18108C17.9705 9.11199 18.0642 9.07317 18.1619 9.07317C19.1232 9.05798 20.0779 9.23421 20.9704 9.59159C21.8629 9.94898 22.6754 10.4804 23.3605 11.1548C24.073 11.889 24.6286 12.7606 24.9935 13.7164C25.3583 14.6722 25.5248 15.6923 25.4827 16.7145C25.4827 16.8123 25.4439 16.906 25.3748 16.9751C25.3057 17.0442 25.212 17.083 25.1143 17.083L25.1327 17.1051Z" fill="white"/>
<path d="M19.4257 20.1566C19.5618 20.1635 19.6979 20.1414 19.8249 20.0919C19.9519 20.0423 20.067 19.9665 20.1625 19.8692L20.7005 19.2245C20.8808 19.0263 21.1252 18.8981 21.3907 18.8624C21.6562 18.8267 21.9258 18.8857 22.1521 19.0292C22.6016 19.2908 23.0363 19.5745 23.4564 19.8766C23.8764 20.1787 24.6575 20.8456 24.6575 20.853C24.848 21.0055 24.9752 21.2232 25.0147 21.4641C25.0542 21.7049 25.003 21.9519 24.8712 22.1572C24.5769 22.6605 24.2037 23.1133 23.7659 23.4983C23.4569 23.7796 23.0729 23.9652 22.6605 24.0326C22.6068 24.0399 22.5522 24.0399 22.4984 24.0326C22.341 24.033 22.1845 24.0094 22.0342 23.9626C20.9815 23.5922 19.9692 23.1157 19.013 22.5404C18.119 22.0488 17.2685 21.4818 16.4708 20.8456C16.0713 20.5284 15.69 20.1889 15.3287 19.8287H15.2845C14.9261 19.4606 14.5867 19.0744 14.2676 18.6718C13.6322 17.8735 13.0653 17.0231 12.5728 16.1296C12.0015 15.171 11.5335 14.1546 11.1764 13.0974C11.125 12.9442 11.0989 12.7837 11.099 12.6221C11.0953 12.5681 11.0953 12.514 11.099 12.46C11.1652 12.0472 11.3509 11.6629 11.6332 11.3547C11.9595 10.8615 12.3625 10.4237 12.827 10.0578C13.0343 9.92599 13.2828 9.87494 13.5253 9.91434C13.7678 9.95374 13.9874 10.0808 14.1423 10.2715L15.1076 11.4873C15.4146 11.9056 15.6975 12.3411 15.955 12.7916C16.0911 13.0208 16.1441 13.2898 16.1052 13.5535C16.0663 13.8172 15.9378 14.0594 15.7413 14.2395L15.0781 14.759C14.978 14.8613 14.9014 14.9842 14.8537 15.1191C14.806 15.254 14.7883 15.3977 14.8018 15.5401C15.1276 16.6336 15.7211 17.6284 16.5285 18.4346C17.3359 19.2407 18.3317 19.8326 19.4257 20.1566Z" fill="white"/>
</svg>
