<svg width="37" height="36" viewBox="0 0 37 36" fill="none" xmlns="http://www.w3.org/2000/svg">
<path d="M25.716 20.5281C25.6603 20.5038 23.63 19.4802 23.2677 19.3502C23.1168 19.288 22.9566 19.2523 22.794 19.2446C22.6551 19.2455 22.5188 19.2834 22.3986 19.3547C22.2785 19.4259 22.1788 19.528 22.1093 19.6508C21.9063 19.9595 21.2932 20.6906 21.1021 20.9099C21.0782 20.9384 21.0464 20.9749 21.0225 20.9749C20.9986 20.9749 20.6921 20.8409 20.5965 20.8003C18.419 19.8336 16.7629 17.5102 16.536 17.1203C16.5196 17.096 16.5088 17.0682 16.5042 17.039C16.5361 16.9865 16.575 16.9387 16.6196 16.8969C16.7311 16.7832 16.8505 16.6369 16.966 16.4907C17.0217 16.4217 17.0774 16.3526 17.1332 16.2917C17.2669 16.1293 17.3781 15.9489 17.4636 15.7555L17.5074 15.6621C17.5763 15.5198 17.6098 15.3623 17.605 15.2036C17.6001 15.0449 17.557 14.8899 17.4795 14.7523C17.4317 14.6548 16.5758 12.5426 16.4843 12.3152C16.2653 11.7831 15.9747 11.5312 15.5726 11.5312H15.4134C14.8291 11.5731 14.2571 11.7231 13.7255 11.974C13.2359 12.2867 12.4118 13.2859 12.4118 15.0447C12.4118 16.6247 13.3951 18.1154 13.821 18.7003C13.8382 18.7297 13.8568 18.7582 13.8768 18.7856C15.493 21.1943 17.5113 22.9815 19.5536 23.8141C21.5201 24.6265 22.4517 24.7077 22.9811 24.7077C23.1673 24.707 23.3534 24.6962 23.5384 24.6752H23.638C24.3187 24.6143 25.8115 23.8222 26.1539 22.8596C26.4206 22.1 26.4923 21.2714 26.3131 20.9709C26.1596 20.7681 25.9524 20.6144 25.716 20.5281Z" fill="white"/>
<path d="M19.1818 4.12114C15.5663 4.11156 12.0945 5.54276 9.52822 8.10077C6.96192 10.6588 5.51063 14.1347 5.49272 17.766C5.49739 20.1958 6.15197 22.5797 7.38802 24.6685L5.0189 31.6349C4.99768 31.6986 4.99426 31.767 5.009 31.8326C5.02374 31.8981 5.05608 31.9584 5.10251 32.0068C5.17137 32.0755 5.2643 32.1142 5.36133 32.1148C5.39693 32.1206 5.43323 32.1206 5.46883 32.1148L12.7036 29.8073C14.7004 30.8643 16.9247 31.4135 19.1818 31.4069C20.9852 31.4379 22.7767 31.108 24.4518 30.4363C26.1269 29.7646 27.652 28.7646 28.9383 27.4947C30.2245 26.2247 31.2461 24.7103 31.9435 23.0396C32.6408 21.369 33 19.5756 33 17.764C33 15.9525 32.6408 14.1591 31.9435 12.4885C31.2461 10.8178 30.2245 9.30334 28.9383 8.0334C27.652 6.76347 26.1269 5.76349 24.4518 5.09179C22.7767 4.42009 20.9852 4.09013 19.1818 4.12114ZM19.1818 28.5676C17.0601 28.573 14.9834 27.9529 13.2093 26.784C13.1502 26.7449 13.081 26.724 13.0102 26.724C12.9733 26.7179 12.9356 26.7179 12.8987 26.724L9.27535 27.8797L10.446 24.4165C10.4656 24.3612 10.4711 24.3019 10.4621 24.244C10.453 24.186 10.4297 24.1312 10.3942 24.0846C9.0567 22.252 8.33688 20.0383 8.33964 17.766C8.3215 15.6085 8.94193 13.4941 10.1222 11.6913C11.3025 9.88846 12.9894 8.47841 14.9689 7.64009C16.9483 6.80176 19.1312 6.57295 21.2403 6.98268C23.3495 7.39241 25.29 8.42221 26.8155 9.94141C28.3409 11.4606 29.3827 13.4007 29.8085 15.5156C30.2343 17.6304 30.025 19.8246 29.2072 21.8198C28.3893 23.8149 26.9998 25.5211 25.2148 26.7218C23.4299 27.9225 21.3301 28.5635 19.1818 28.5636V28.5676Z" fill="white"/>
</svg>
