<svg width="1143" height="462" viewBox="0 0 1143 462" fill="none" xmlns="http://www.w3.org/2000/svg">
<g clip-path="url(#clip0_2029_5672)">
<path d="M135.589 369.761H95.7593C95.5205 366.675 94.7691 363.65 93.5361 360.809C92.3704 358.186 90.6874 355.823 88.5876 353.863C86.3889 351.869 83.8049 350.346 80.9947 349.387C77.7458 348.285 74.3313 347.749 70.9006 347.803C64.3266 347.803 58.7596 349.402 54.1996 352.601C49.6396 355.799 46.2032 360.356 43.8903 366.27C41.5595 372.238 40.3942 379.399 40.3942 387.754C40.3942 396.593 41.5894 403.984 43.98 409.928C46.3705 415.872 49.8219 420.348 54.334 423.355C58.8522 426.339 64.2877 427.831 70.6406 427.831C73.9408 427.88 77.2284 427.415 80.3851 426.453C83.1143 425.62 85.6562 424.267 87.8705 422.469C89.9997 420.727 91.7636 418.582 93.061 416.158C94.4372 413.552 95.3473 410.725 95.7503 407.806L135.58 408.084C135.014 414.573 133.274 420.906 130.443 426.775C123.797 440.698 112.072 451.558 97.6688 457.13C89.6724 460.377 80.3761 462 69.78 462C56.5065 462 44.6075 459.156 34.0831 453.469C23.5004 447.724 14.8338 439.011 9.15265 428.404C3.05674 417.358 0.00878906 403.843 0.00878906 387.862C0.00878906 371.748 3.11651 358.196 9.33194 347.203C15.1 336.603 23.8178 327.898 34.4327 322.138C44.975 316.474 56.7455 313.64 69.7441 313.634C78.2918 313.548 86.7993 314.811 94.9525 317.376C102.333 319.688 109.206 323.382 115.203 328.261C121.04 333.089 125.803 339.08 129.188 345.851C132.852 353.332 135.026 361.452 135.589 369.761Z" fill="white"/>
<path d="M293.491 387.817C293.491 403.894 290.359 417.444 284.096 428.467C278.255 439.097 269.447 447.804 258.744 453.532C248.1 459.189 236.237 462.021 223.155 462.027C209.965 462.027 198.066 459.171 187.458 453.46C176.79 447.711 168.012 439.007 162.178 428.395C155.963 417.325 152.855 403.799 152.855 387.817C152.855 371.704 155.975 358.151 162.214 347.158C168.028 336.531 176.811 327.823 187.494 322.093C198.108 316.43 210.007 313.595 223.191 313.589C236.279 313.589 248.142 316.424 258.78 322.093C269.481 327.823 278.288 336.53 284.132 347.158C290.377 358.187 293.497 371.739 293.491 387.817ZM253.097 387.817C253.097 379.157 251.955 371.859 249.672 365.921C247.389 359.983 244.022 355.468 239.569 352.377C235.123 349.297 229.651 347.758 223.155 347.758C216.659 347.758 211.184 349.297 206.732 352.377C202.286 355.456 198.921 359.971 196.638 365.921C194.355 371.871 193.207 379.169 193.196 387.817C193.196 396.464 194.337 403.763 196.62 409.713C198.903 415.663 202.268 420.174 206.714 423.248C211.166 426.327 216.641 427.867 223.137 427.867C229.633 427.867 235.105 426.327 239.551 423.248C244.004 420.168 247.371 415.657 249.654 409.713C251.937 403.769 253.085 396.47 253.097 387.817Z" fill="white"/>
<path d="M607.717 315.603H646.982V408.119C646.982 419.124 644.358 428.634 639.111 436.649C633.724 444.78 626.131 451.214 617.219 455.197C607.842 459.535 596.965 461.708 584.588 461.714C572.11 461.714 561.188 459.541 551.823 455.197C542.909 451.233 535.322 444.795 529.967 436.649C524.768 428.628 522.165 419.118 522.159 408.119V315.603H561.424V404.763C561.339 408.922 562.34 413.031 564.328 416.686C566.252 420.137 569.102 422.983 572.558 424.904C576.253 426.85 580.367 427.867 584.544 427.867C588.721 427.867 592.835 426.85 596.529 424.904C599.973 422.98 602.811 420.134 604.723 416.686C606.747 413.041 607.779 408.93 607.717 404.763V315.603Z" fill="#20ACF5"/>
<path d="M790.755 315.603V460.022H757.963L705.735 384.173H704.839V460.049H665.628V315.603H698.967L750.37 391.201H751.499V315.603H790.755Z" fill="#20ACF5"/>
<path d="M848.666 315.603V460.022H809.401V315.603H848.666Z" fill="#20ACF5"/>
<path d="M863.351 347.194V315.603H989.052V347.194H945.556V459.986H906.856V347.194H863.351Z" fill="#20ACF5"/>
<path d="M997.81 315.603H1041.59L1069.84 374.273H1070.97L1099.22 315.603H1143L1089.89 414.609V460.022H1050.92V414.609L997.81 315.603Z" fill="#20ACF5"/>
<path d="M455.185 315.603L421.568 397.404H419.873L386.256 315.603H376.942H353.733L412.621 453.988H432.307L464.508 376.538H465.638V460.031H504.051V315.603H455.185Z" fill="#20ACF5"/>
<path d="M311.572 315.603V460.031H349.985V375.974H351.115L383.316 453.988H394.898H404.293L345.351 315.603H311.572Z" fill="white"/>
<path d="M684.23 76.2958H607.134L687.546 156.593C695.577 130.224 694.404 101.913 684.221 76.2958H684.23Z" fill="#20ACF5"/>
<path d="M619.452 9.83798L564.938 64.2646H678.662C665.675 39.9605 644.817 20.7733 619.496 9.83798H619.452Z" fill="#20ACF5"/>
<path d="M526.579 8.57577V85.5609L606.991 5.26362C580.584 -2.75312 552.235 -1.58542 526.579 8.57577Z" fill="#20ACF5"/>
<path d="M485.709 35.4848C474.808 46.3246 466.089 59.1513 460.026 73.2701L514.53 127.697V14.1438C503.915 19.7888 494.202 26.9814 485.709 35.4848Z" fill="#20ACF5"/>
<path d="M458.761 166.001H535.857L455.444 85.7041C447.416 112.073 448.586 140.382 458.761 166.001Z" fill="#20ACF5"/>
<path d="M523.548 232.468L578.053 178.032H464.337C477.319 202.343 498.179 221.535 523.504 232.468H523.548Z" fill="#20ACF5"/>
<path d="M571.5 242.306C586.883 242.338 602.129 239.423 616.413 233.721V156.736L536 237.034C547.506 240.539 559.471 242.316 571.5 242.306Z" fill="#20ACF5"/>
<path d="M657.291 206.821C668.189 195.979 676.908 183.153 682.974 169.036L628.461 114.6V228.162C639.08 222.52 648.797 215.327 657.291 206.821Z" fill="#20ACF5"/>
<path d="M590.102 76.2958H552.899L526.579 102.569V139.728L552.899 166.001H590.102L616.413 139.728V102.569L590.102 76.2958ZM579.568 121.216C579.056 121.397 578.635 121.77 578.394 122.257C578.153 122.743 578.111 123.304 578.277 123.821C579.828 133.372 581.271 142.933 582.858 152.466C583.091 153.89 582.58 153.952 581.504 153.943C578.152 153.943 574.79 153.943 571.437 153.943C568.022 153.943 564.615 153.899 561.2 153.943C560.034 153.943 559.9 153.576 560.07 152.556C561.666 143.067 563.181 133.569 564.795 124.089C565.037 122.639 564.875 121.887 563.378 121.135C559.875 119.356 557.092 116.427 555.496 112.841C553.899 109.255 553.587 105.23 554.611 101.441C555.584 97.5475 557.882 94.1123 561.112 91.7234C564.342 89.3345 568.302 88.1403 572.316 88.3449C576.269 88.5666 580.031 90.1151 582.992 92.7391C585.954 95.3632 587.941 98.909 588.631 102.802C590.003 110.599 586.74 117.411 579.568 121.216Z" fill="white"/>
</g>
<defs>
<clipPath id="clip0_2029_5672">
<rect width="1143" height="462" fill="white"/>
</clipPath>
</defs>
</svg>
