<svg width="1000" height="313" viewBox="0 0 1000 313" fill="none" xmlns="http://www.w3.org/2000/svg">
<g clip-path="url(#clip0_243_295)">
<path d="M281.191 82.9629C220.918 50.686 174.045 98.1833 174.045 135.002C174.045 173.657 214.05 201.779 214.05 201.779L117.182 196.947V43.4865C117.47 39.1861 117.902 35.0307 118.574 31.0203C119.333 26.8175 121.565 23.0282 124.866 20.3418C129.744 17.0628 135.591 15.5623 141.435 16.0898C143.557 16.1163 145.673 15.8563 147.726 15.3167C149.455 14.8335 150.464 12.4659 150.704 8.21384C150.592 6.21725 149.963 4.28483 148.879 2.60887C148.372 1.79267 147.662 1.12307 146.82 0.665675C145.978 0.208278 145.033 -0.0212227 144.076 -0.000340883L134.951 0.386209H64.7852L53.2109 -0.000340883C52.2476 -0.06316 51.2862 0.148271 50.4368 0.609734C49.5874 1.0712 48.8844 1.76403 48.4083 2.60887C47.4041 4.30408 46.8732 6.24044 46.8714 8.21384C47.1115 12.4659 48.1201 14.8335 49.849 15.3167C51.9186 15.8572 54.0505 16.1172 56.1885 16.0898C62.0815 15.5082 67.9917 17.0118 72.9016 20.3418C76.0649 23.1746 78.2091 26.9797 79.0009 31.1652C79.5167 33.8486 79.8855 36.5586 80.1055 39.2828V196.657C54.4916 196.657 34.7048 201.199 20.7452 210.283C14.0589 214.512 8.61273 220.456 4.96638 227.504C1.32004 234.553 -0.39488 242.451 -0.00208397 250.387C-0.121826 254.518 0.624568 258.628 2.18849 262.449C3.75242 266.27 6.0988 269.717 9.07485 272.565C12.2365 275.518 15.9482 277.811 19.9956 279.312C24.043 280.813 28.3458 281.492 32.6557 281.311C35.1123 281.458 37.573 281.105 39.8915 280.275C42.2099 279.445 44.3387 278.154 46.151 276.479C48.1032 274.696 49.4616 272.351 50.0411 269.763C50.0411 269.28 48.9365 268.458 46.7273 267.347C44.0863 265.875 41.8056 263.828 40.0517 261.355C37.4117 257.594 35.8954 253.151 35.6813 248.551C35.9154 243.433 37.1963 238.418 39.4439 233.821C41.6916 229.223 44.8577 225.141 48.7444 221.831C58.1095 214.583 87.5015 208.157 125.586 216.999C166.024 226.663 181.729 231.06 216.836 231.495C254.44 231.978 278.646 217.82 292.381 204.243C309.526 187.476 345.786 117.317 281.191 82.9629ZM282.872 198.348C282.872 198.348 223.656 168.294 209.44 148.048C195.224 127.803 196.233 84.5091 243.346 81.0301C281.767 78.2276 310.247 108.04 313.176 130.363C318.507 171.579 282.872 198.348 282.872 198.348Z" fill="white"/>
<path d="M313.803 243.913C311.034 231.207 305.045 219.439 296.417 209.751L294.928 208.157C290.97 215.592 285.583 222.161 279.08 227.484C273.069 232.487 266.267 236.44 258.957 239.178C263.278 242.84 266.656 247.498 268.805 252.756C270.954 258.014 271.81 263.715 271.3 269.377C269.09 287.061 263.231 297.015 252.617 301.944C245.99 305.084 239.458 308.418 220.392 306.437C213.83 305.524 207.519 303.291 201.833 299.871C196.148 296.451 191.206 291.914 187.302 286.53C179.906 277.156 169.052 264.207 158.486 252.997C155.172 249.421 151.907 246.087 148.881 243.333C144.944 239.372 140.67 235.766 136.106 232.558C128.416 227.55 119.865 224.027 110.892 222.169C83.5175 217.337 72.4715 226.518 65.2675 236.665C60.2162 244.61 57.5637 253.858 57.6314 263.289C57.6314 264.207 57.6314 265.076 57.9676 265.946C59.4205 273.648 63.5172 280.592 69.5419 285.563C71.2961 287.309 73.3832 288.68 75.6777 289.594C77.9721 290.507 80.4265 290.944 82.8931 290.879C85.5237 290.851 88.0786 289.989 90.1931 288.414C90.5293 288.076 90.1931 286.723 89.2806 284.404C88.1934 281.541 87.7505 278.472 87.9839 275.417C88.4554 270.855 90.2227 266.527 93.0747 262.95C99.2379 256.619 107.376 252.61 116.127 251.595C117.565 251.475 119.011 251.475 120.45 251.595C129.046 252.224 134.089 252.32 151.282 268.169C157.718 274.112 170.493 287.786 177.216 293.149C188.208 303.064 201.916 309.412 216.55 311.366C223.109 312.254 229.719 312.706 236.337 312.719C243.89 312.936 251.449 312.613 258.957 311.752C271.857 310.088 284.044 304.853 294.16 296.628L294.496 296.339C297.43 293.54 300.129 290.502 302.565 287.255L304.005 285.274C308.43 279.456 311.589 272.767 313.277 265.642C314.964 258.516 315.144 251.113 313.803 243.913Z" fill="white"/>
<path d="M326.578 198.976C326.011 199.027 325.442 198.918 324.933 198.662C324.424 198.406 323.996 198.013 323.696 197.527C323.163 196.584 322.882 195.519 322.88 194.434C322.88 192.115 323.552 190.762 324.513 190.521C325.654 190.206 326.835 190.059 328.018 190.086C330.912 190.23 333.774 189.434 336.183 187.815C338.225 186.221 339.87 184.169 340.985 181.823C342.138 179.359 343.243 176.991 344.347 174.189L380.319 88.6165C380.953 87.4803 381.352 86.2269 381.493 84.9315C381.633 83.6362 381.511 82.3256 381.135 81.0787C380.727 80.2134 380.152 79.4386 379.443 78.7997C378.734 78.1609 377.905 77.6708 377.005 77.3582C374.955 76.555 372.832 75.9562 370.666 75.5704C369.252 75.3557 367.867 74.983 366.535 74.4591C365.863 74.1047 365.527 72.8968 365.527 70.8352C365.527 68.4676 366.343 67.2113 367.976 67.018C369.887 66.7674 371.813 66.6544 373.739 66.6798C378.596 66.5864 383.442 67.1553 388.147 68.3709C392.099 69.4344 395.665 71.6141 398.425 74.6524C401.926 78.7736 404.644 83.5068 406.445 88.6165L440.976 174.189C441.936 176.508 442.945 179.021 444.05 181.388C445.033 183.749 446.545 185.849 448.468 187.525C450.49 189.147 452.99 190.048 455.576 190.086C456.776 190.047 457.974 190.193 459.13 190.521C460.042 190.521 460.571 192.115 460.667 194.434C460.676 195.534 460.358 196.611 459.754 197.527C459.462 197.998 459.049 198.381 458.559 198.636C458.069 198.891 457.519 199.009 456.969 198.976C452.598 198.686 448.756 198.541 445.49 198.445H434.396C426.328 198.445 417.827 198.686 408.894 199.073C408.334 199.125 407.771 199.017 407.269 198.76C406.768 198.504 406.349 198.11 406.061 197.623C405.491 196.694 405.192 195.623 405.196 194.531C405.196 192.212 405.917 190.859 406.877 190.617C408.003 190.306 409.168 190.159 410.335 190.182C417.059 190.182 420.709 188.926 421.333 186.462C421.75 182.304 421.088 178.109 419.412 174.285L412.256 157.036H361.541C359.476 162.254 357.987 166.023 357.122 168.391C356.258 170.758 355.681 172.256 355.441 172.933C355.333 173.37 355.172 173.791 354.961 174.189C353.715 177.546 352.924 181.056 352.608 184.626C352.516 185.641 352.797 186.654 353.399 187.474C354.002 188.294 354.882 188.862 355.874 189.071C359.609 189.898 363.434 190.239 367.256 190.086C368.471 190.044 369.686 190.191 370.858 190.521C371.77 190.521 372.25 192.115 372.395 194.434C372.404 195.534 372.086 196.611 371.482 197.527C371.19 197.998 370.777 198.381 370.287 198.636C369.797 198.891 369.247 199.009 368.697 198.976C364.326 198.686 360.532 198.541 357.314 198.445H346.316H339.449H333.782L326.578 198.976ZM365.623 148.145H408.846L388.099 94.9945H387.475L365.623 148.145Z" fill="white"/>
<path d="M525.886 202.504C516.384 202.82 506.945 200.831 498.367 196.705C491.553 193.387 485.785 188.236 481.702 181.823C478.078 176.037 476.163 169.335 476.179 162.496V92.0954C476.186 89.5651 475.945 87.0402 475.459 84.5577C475.006 82.2383 473.808 80.133 472.049 78.5662C469.33 76.749 466.079 75.9143 462.828 76.1986C461.648 76.2147 460.47 76.0848 459.322 75.812C458.361 75.5221 457.785 74.2175 457.689 71.8499C457.667 70.7625 457.95 69.6909 458.505 68.7575C458.797 68.2633 459.223 67.8638 459.734 67.6068C460.245 67.3498 460.819 67.246 461.387 67.3079L473.682 67.7428C477.524 67.7428 481.51 67.7428 485.592 67.7428C493.949 67.7428 502.497 67.7428 511.286 67.1147C511.854 67.0527 512.428 67.1565 512.939 67.4135C513.449 67.6705 513.876 68.07 514.168 68.5642C514.701 69.5068 514.982 70.5722 514.984 71.6566C514.984 73.7343 514.456 74.9906 513.735 75.3772C512.853 75.8549 511.854 76.0726 510.854 76.0053C507.399 75.7195 503.938 76.4766 500.912 78.1797C499.961 78.8591 499.153 79.7213 498.535 80.7165C497.917 81.7116 497.501 82.8201 497.31 83.9779C496.897 86.6027 496.625 89.2479 496.494 91.9022V156.601C496.514 160.382 496.9 164.153 497.647 167.859C498.365 171.779 499.868 175.511 502.065 178.827C504.454 182.415 507.777 185.273 511.67 187.09C517.14 189.444 523.064 190.534 529.008 190.279C536.467 190.655 543.887 188.985 550.475 185.447C555.118 182.85 558.806 178.817 560.993 173.947C562.906 169.358 563.886 164.429 563.875 159.452V105.141C564.018 98.5381 563.681 91.933 562.866 85.3791C562.786 83.8449 562.343 82.352 561.575 81.0243C560.806 79.6966 559.734 78.5723 558.448 77.7448C555.125 76.5458 551.599 76.0203 548.074 76.1986C546.894 76.2147 545.717 76.0848 544.568 75.812C543.608 75.5221 543.079 74.2175 542.935 71.8499C542.914 70.7625 543.197 69.6909 543.752 68.7575C544.043 68.2633 544.47 67.8638 544.981 67.6068C545.492 67.3498 546.065 67.246 546.633 67.3079L558.352 67.7428C561.762 67.7428 565.508 67.7428 569.638 67.7428C573.768 67.7428 577.514 67.7428 580.924 67.7428L592.642 67.3079C593.209 67.2577 593.778 67.3665 594.287 67.6225C594.796 67.8784 595.224 68.2713 595.524 68.7575C596.057 69.7001 596.338 70.7655 596.34 71.8499C596.34 73.9276 595.812 75.1839 595.092 75.5704C594.209 76.0482 593.21 76.2659 592.21 76.1986C589.22 76.1369 586.23 76.3471 583.277 76.8267C582.25 76.9789 581.265 77.3403 580.381 77.8886C579.498 78.4369 578.735 79.1607 578.138 80.0158C576.744 82.5502 575.97 85.3827 575.881 88.2783C575.545 92.0954 575.401 97.2655 575.401 103.885V161.578C575.551 168.168 573.889 174.673 570.598 180.374C567.678 185.562 563.581 189.983 558.64 193.275C553.714 196.409 548.335 198.756 542.695 200.233C537.212 201.71 531.563 202.473 525.886 202.504Z" fill="white"/>
<path d="M608.251 198.976C607.684 199.027 607.115 198.918 606.606 198.662C606.098 198.406 605.669 198.013 605.369 197.527C604.837 196.584 604.555 195.519 604.553 194.434C604.553 192.115 605.225 190.762 606.186 190.521C607.328 190.209 608.509 190.063 609.692 190.086C612.946 190.41 616.211 189.572 618.913 187.718C620.698 186.173 621.902 184.058 622.323 181.727C622.809 179.244 623.051 176.719 623.043 174.189V92.337C623.046 89.7589 622.805 87.1864 622.323 84.6543C621.915 82.291 620.711 80.1411 618.913 78.5662C616.194 76.749 612.943 75.9142 609.692 76.1986C608.512 76.2113 607.335 76.0815 606.186 75.812C605.225 75.5221 604.697 74.2175 604.553 71.8499C604.555 70.7655 604.837 69.7001 605.369 68.7575C605.669 68.2713 606.098 67.8784 606.606 67.6224C607.115 67.3665 607.684 67.2576 608.251 67.3079L620.69 67.7428C624.58 67.7428 628.614 67.7428 632.696 67.7428H668.044C677.304 67.5034 686.509 69.2665 695.034 72.9129C701.186 75.5518 706.442 79.9334 710.162 85.5241C713.228 90.2581 714.894 95.7712 714.965 101.421C714.78 109.288 711.559 116.774 705.984 122.295C699.349 129.261 690.808 134.087 681.443 136.162C686.63 144.441 691.913 152.735 697.291 161.046C702.666 169.471 708.86 177.337 715.781 184.529C717.536 185.941 719.417 187.187 721.401 188.25C723.497 189.263 725.759 189.885 728.076 190.086L731.39 190.617C732.447 190.617 733.071 192.115 733.215 194.434C733.213 195.519 732.931 196.584 732.399 197.527C732.107 198.021 731.68 198.421 731.169 198.678C730.659 198.935 730.085 199.038 729.517 198.976L722.649 198.686H717.606H711.027C705.837 197.807 700.911 195.759 696.619 192.695C692.226 189.308 688.372 185.267 685.189 180.712C681.395 175.493 677.793 170.178 674.527 164.815C671.261 159.452 668.044 154.185 664.922 149.111C663.541 146.665 661.697 144.515 659.495 142.782C656.284 141.174 652.694 140.489 649.121 140.801H643.55V174.624C643.646 177.153 643.918 179.671 644.367 182.161C644.719 184.506 645.915 186.638 647.728 188.153C650.424 189.981 653.664 190.817 656.901 190.521C658.069 190.498 659.233 190.644 660.359 190.955C661.32 190.955 661.896 192.55 662.04 194.869C662.045 195.961 661.745 197.032 661.176 197.962C660.884 198.456 660.458 198.855 659.947 199.112C659.436 199.369 658.862 199.473 658.294 199.411C649.554 199.025 641.005 198.783 632.648 198.783H620.738C616.752 198.542 612.621 198.686 608.251 198.976ZM643.55 132.442H661.608C667.259 132.689 672.895 131.7 678.129 129.542C681.782 127.913 684.945 125.347 687.302 122.101C689.27 119.186 690.627 115.898 691.288 112.438C691.875 109.445 692.18 106.404 692.201 103.354C692.211 98.7713 691.193 94.2457 689.223 90.1143C686.956 85.5572 683.283 81.8615 678.753 79.5809C672.25 76.4955 665.092 75.0683 657.91 75.4255C655.842 75.1459 653.739 75.3069 651.736 75.8979C649.734 76.4889 647.878 77.4968 646.288 78.8561C644.013 83.045 643.058 87.831 643.55 92.5786V132.442Z" fill="white"/>
<path d="M745.894 198.976C745.355 199.012 744.818 198.895 744.342 198.639C743.867 198.383 743.473 197.997 743.204 197.527C742.671 196.584 742.39 195.519 742.388 194.434C742.388 192.115 743.108 190.762 744.069 190.521C745.194 190.206 746.359 190.059 747.526 190.086C750.797 190.418 754.079 189.579 756.796 187.718C758.551 186.156 759.735 184.046 760.157 181.727C760.644 179.244 760.885 176.719 760.878 174.189V92.0471C760.885 89.5168 760.644 86.9919 760.157 84.5094C759.724 82.1937 758.542 80.0872 756.796 78.5179C754.064 76.69 750.794 75.8547 747.526 76.1502C746.362 76.1663 745.201 76.0364 744.069 75.7637C743.108 75.4738 742.532 74.1692 742.388 71.8016C742.39 70.7171 742.671 69.6518 743.204 68.7092C743.473 68.2385 743.867 67.8531 744.342 67.5969C744.818 67.3406 745.355 67.2238 745.894 67.2596L758.428 67.6945C762.27 67.6945 766.209 67.6945 770.339 67.6945H834.838C836.175 67.6425 837.497 67.996 838.632 68.7092C839.206 69.1826 839.651 69.7937 839.928 70.4862C840.205 71.1786 840.305 71.9301 840.217 72.6713L840.793 101.663C840.806 102.31 840.631 102.947 840.29 103.496C839.949 104.046 839.456 104.483 838.872 104.755C837.77 105.379 836.534 105.727 835.27 105.77C833.84 105.799 832.424 105.484 831.14 104.852C830.577 104.588 830.08 104.199 829.689 103.713C829.298 103.227 829.022 102.658 828.883 102.049C828.187 96.9691 827.063 91.958 825.521 87.0703C824.55 83.7562 822.525 80.8539 819.758 78.8078C816.424 76.8589 812.614 75.8881 808.76 76.0053H781.241V128.721H818.413C818.915 128.76 819.398 128.932 819.811 129.221C820.225 129.51 820.554 129.904 820.766 130.364C821.247 131.322 821.494 132.383 821.487 133.456C821.482 134.436 821.234 135.399 820.766 136.259C820.545 136.688 820.205 137.044 819.788 137.284C819.371 137.524 818.893 137.638 818.413 137.612H781.241V176.653C781.394 178.633 781.667 180.601 782.057 182.548C782.5 184.773 783.793 186.734 785.659 188.008C788.652 189.792 792.149 190.523 795.601 190.086H814.523C818.324 190.184 822.093 189.372 825.521 187.718C828.259 185.975 830.378 183.404 831.572 180.374C833.447 175.72 835.051 170.961 836.375 166.12C836.604 165.485 836.975 164.912 837.457 164.443C837.94 163.975 838.522 163.622 839.16 163.414C840.549 163.072 841.998 163.072 843.387 163.414C844.609 163.612 845.763 164.11 846.748 164.863C847.293 165.205 847.731 165.695 848.012 166.276C848.292 166.858 848.404 167.507 848.333 168.149L844.203 194.193C843.771 196.126 843.146 197.334 842.234 197.817C840.982 198.376 839.615 198.625 838.248 198.541H770.531H758.524C754.634 198.541 750.408 198.686 745.894 198.976Z" fill="white"/>
<path d="M868.36 198.976C867.793 199.038 867.219 198.935 866.708 198.678C866.197 198.421 865.77 198.021 865.479 197.527C864.924 196.593 864.641 195.522 864.662 194.434C864.662 192.115 865.335 190.762 866.295 190.521C867.421 190.209 868.586 190.063 869.753 190.086C872.994 190.428 876.25 189.588 878.926 187.718C880.626 186.139 881.743 184.027 882.096 181.727C882.526 179.238 882.735 176.715 882.72 174.189L883.105 92.0471C883.105 85.6207 882.048 81.4653 879.839 79.6775C876.716 77.4951 873.132 76.0726 869.369 75.5221C867.955 75.3075 866.57 74.9347 865.239 74.4108C864.566 74.0565 864.23 72.8485 864.23 70.7869C864.23 68.4193 865.047 67.163 866.68 66.9697C868.59 66.7206 870.516 66.6076 872.443 66.6315C878.692 66.476 884.936 67.1091 891.029 68.5159C895.676 69.6748 899.976 71.9457 903.564 75.1356C907.988 79.1549 911.951 83.6606 915.378 88.5682L971.665 162.979H972.289L971.857 92.0471C971.863 89.5232 971.671 87.0026 971.281 84.5094C970.9 82.2077 969.768 80.0992 968.063 78.5179C965.396 76.6669 962.162 75.828 958.938 76.1503C957.758 76.1664 956.58 76.0365 955.432 75.7637C954.471 75.4738 953.847 74.1692 953.607 71.8016C953.597 70.7023 953.915 69.6253 954.519 68.7092C954.812 68.2383 955.224 67.8552 955.715 67.6001C956.205 67.345 956.754 67.2274 957.305 67.2596L964.605 67.5979L970.128 67.6462H976.996H983.815H989.338L996.446 67.3079C997.006 67.2556 997.57 67.3639 998.071 67.6205C998.573 67.877 998.992 68.2713 999.28 68.7575C999.835 69.6909 1000.12 70.7625 1000.1 71.8499C1000.1 74.2175 999.472 75.5221 998.559 75.812C997.396 76.0955 996.202 76.2255 995.005 76.1986C991.799 75.9085 988.591 76.7452 985.928 78.5662C984.187 80.1121 983.061 82.2407 982.759 84.5577C982.407 86.9737 982.166 89.4862 982.038 92.0954L981.606 196.271C981.564 196.794 981.354 197.289 981.007 197.681C980.661 198.074 980.197 198.342 979.685 198.445C978.658 198.767 977.591 198.946 976.515 198.976C975.377 199.059 974.237 198.854 973.197 198.382C972.158 197.909 971.251 197.184 970.56 196.271L892.998 92.0954H892.374L892.806 174.237C892.902 176.76 893.126 179.276 893.478 181.775C893.793 184.099 894.936 186.228 896.696 187.766C899.334 189.603 902.532 190.442 905.725 190.134C906.972 190.103 908.217 190.25 909.423 190.569C910.383 190.569 910.912 192.163 911.056 194.483C911.065 195.582 910.747 196.659 910.143 197.575C909.851 198.046 909.438 198.429 908.948 198.684C908.458 198.939 907.909 199.057 907.358 199.025L900.058 198.735H894.343H887.427H880.751H875.516L868.36 198.976Z" fill="white"/>
<path d="M364.999 270.585C364.783 270.609 364.566 270.573 364.37 270.479C364.175 270.385 364.01 270.237 363.894 270.053C363.699 269.699 363.599 269.299 363.606 268.894C363.606 268.024 363.846 267.541 364.23 267.444C364.658 267.359 365.099 267.359 365.527 267.444C366.744 267.562 367.965 267.255 368.985 266.574C369.657 265.985 370.114 265.185 370.281 264.303C370.437 263.377 370.517 262.44 370.522 261.501V230.625C370.517 229.686 370.437 228.749 370.281 227.823C370.114 226.941 369.657 226.141 368.985 225.552C367.965 224.871 366.744 224.564 365.527 224.682C365.097 224.741 364.66 224.741 364.23 224.682C363.846 224.682 363.654 224.054 363.606 223.184C363.599 222.779 363.699 222.379 363.894 222.024C364.017 221.848 364.184 221.706 364.377 221.613C364.57 221.52 364.785 221.479 364.999 221.493H369.801H374.268H385.121C387.491 221.426 389.86 221.637 392.181 222.121C393.785 222.501 395.312 223.155 396.696 224.054C398.05 224.941 399.144 226.175 399.865 227.629C400.612 229.13 401.006 230.783 401.018 232.461C401.071 234.531 400.502 236.569 399.385 238.308C398.321 239.825 396.945 241.093 395.351 242.028C393.832 242.851 392.22 243.484 390.548 243.913V244.154C393.045 244.059 395.529 244.556 397.8 245.604C399.708 246.561 401.356 247.971 402.603 249.711C403.811 251.331 404.483 253.291 404.524 255.316C404.717 257.867 404.076 260.412 402.699 262.564C401.382 264.589 399.583 266.25 397.464 267.396C395.289 268.537 392.959 269.351 390.548 269.812C388.171 270.243 385.761 270.47 383.344 270.488H369.801L364.999 270.585ZM378.158 242.801H381.423C382.575 242.866 383.73 242.866 384.881 242.801C386.163 242.715 387.418 242.387 388.579 241.835C389.787 241.243 390.791 240.301 391.461 239.129C392.28 237.466 392.66 235.619 392.565 233.766C392.671 231.384 391.977 229.035 390.596 227.098C389.695 226.153 388.589 225.43 387.364 224.986C386.14 224.542 384.83 224.388 383.537 224.537H378.158V242.801ZM383.729 267.347C385.877 267.329 388.005 266.937 390.02 266.188C391.985 265.54 393.676 264.247 394.823 262.515C396.049 260.394 396.633 257.959 396.504 255.509C396.371 253.786 395.81 252.125 394.871 250.677C393.661 249.041 391.986 247.811 390.068 247.15C387.314 246.088 384.37 245.611 381.423 245.749H378.254V261.404C378.06 263.101 378.468 264.812 379.406 266.236C380.675 267.107 382.195 267.532 383.729 267.444V267.347Z" fill="white"/>
<path d="M419.748 270.585C419.548 270.597 419.348 270.553 419.171 270.46C418.993 270.366 418.844 270.226 418.74 270.053C418.545 269.699 418.445 269.299 418.451 268.894C418.451 268.024 418.692 267.541 419.076 267.444C419.504 267.359 419.944 267.359 420.373 267.444C421.59 267.562 422.811 267.255 423.83 266.574C424.503 265.985 424.96 265.185 425.127 264.303C425.202 263.371 425.202 262.433 425.127 261.501V230.625C425.202 229.693 425.202 228.755 425.127 227.823C424.96 226.941 424.503 226.141 423.83 225.552C422.811 224.871 421.59 224.564 420.373 224.682C419.942 224.741 419.506 224.741 419.076 224.682C418.692 224.682 418.499 224.054 418.451 223.184C418.445 222.779 418.545 222.379 418.74 222.024C418.851 221.859 419.001 221.723 419.177 221.631C419.353 221.538 419.549 221.491 419.748 221.493H424.551H429.017H453.03C453.524 221.465 454.013 221.601 454.423 221.879C454.635 222.051 454.799 222.275 454.9 222.528C455.001 222.782 455.035 223.058 454.999 223.329V234.201C454.998 234.442 454.929 234.678 454.802 234.883C454.675 235.088 454.494 235.253 454.279 235.36C453.864 235.587 453.405 235.719 452.934 235.747C452.398 235.751 451.869 235.618 451.397 235.36C451.181 235.277 450.988 235.141 450.837 234.963C450.686 234.786 450.582 234.574 450.533 234.346C450.279 232.429 449.862 230.537 449.284 228.692C448.878 227.472 448.127 226.398 447.123 225.6C445.862 224.894 444.435 224.544 442.993 224.585H433.003V244.251H446.931C447.126 244.261 447.314 244.325 447.475 244.435C447.636 244.546 447.764 244.7 447.843 244.879C447.921 245.262 447.921 245.656 447.843 246.039C447.91 246.39 447.91 246.751 447.843 247.102C447.753 247.261 447.619 247.391 447.457 247.477C447.295 247.563 447.113 247.6 446.931 247.585H433.003V262.081C433.061 262.826 433.157 263.568 433.292 264.303C433.486 265.119 433.962 265.839 434.636 266.333C435.769 266.991 437.083 267.262 438.382 267.106H445.49C446.915 267.139 448.328 266.842 449.62 266.236C450.644 265.582 451.435 264.618 451.878 263.482C452.591 261.732 453.201 259.941 453.703 258.118C453.8 257.891 453.945 257.687 454.127 257.52C454.309 257.354 454.525 257.228 454.759 257.152C455.277 257.006 455.826 257.006 456.344 257.152C456.795 257.232 457.222 257.414 457.593 257.684C457.796 257.818 457.958 258.006 458.06 258.229C458.162 258.451 458.2 258.697 458.169 258.94L456.632 268.604C456.613 268.867 456.539 269.124 456.415 269.357C456.291 269.59 456.12 269.794 455.912 269.957C455.448 270.179 454.936 270.279 454.423 270.246H424.503L419.748 270.585Z" fill="white"/>
<path d="M469.071 270.585C468.856 270.616 468.636 270.582 468.439 270.487C468.243 270.392 468.078 270.241 467.967 270.053C467.772 269.699 467.672 269.299 467.679 268.893C467.679 268.024 467.871 267.541 468.255 267.444C468.7 267.363 469.155 267.363 469.6 267.444C470.701 267.521 471.798 267.233 472.721 266.622C473.463 265.997 474.068 265.224 474.498 264.352C474.93 263.433 475.315 262.467 475.747 261.501L489.242 229.417C489.478 228.986 489.625 228.511 489.674 228.021C489.724 227.531 489.675 227.037 489.53 226.566C489.381 226.246 489.167 225.961 488.903 225.728C488.638 225.495 488.329 225.32 487.994 225.213C487.219 224.903 486.414 224.676 485.592 224.537C485.064 224.459 484.547 224.313 484.055 224.102C483.815 224.102 483.671 223.522 483.671 222.749C483.671 221.976 484.007 221.396 484.584 221.3H486.745C488.574 221.256 490.4 221.468 492.172 221.928C493.65 222.334 494.983 223.155 496.014 224.295C497.306 225.844 498.314 227.61 498.992 229.514L511.959 261.597C512.295 262.467 512.679 263.385 513.111 264.303C513.474 265.177 514.033 265.954 514.744 266.574C515.5 267.204 516.452 267.546 517.434 267.541C517.878 267.456 518.334 267.456 518.778 267.541C519.131 267.541 519.323 268.024 519.355 268.99C519.351 269.408 519.217 269.814 518.97 270.15C518.87 270.326 518.722 270.47 518.543 270.564C518.365 270.658 518.163 270.699 517.962 270.681H513.64H509.461C506.436 270.681 503.266 270.681 499.856 270.681C499.64 270.712 499.42 270.678 499.224 270.584C499.027 270.489 498.863 270.338 498.751 270.15C498.556 269.795 498.457 269.395 498.463 268.99C498.463 268.12 498.463 267.637 499.088 267.541C499.516 267.456 499.956 267.456 500.384 267.541C502.882 267.541 504.274 267.106 504.515 266.188C504.634 264.617 504.37 263.042 503.746 261.597L501.153 255.171H481.942L480.261 259.423L479.637 261.114C479.68 261.272 479.68 261.439 479.637 261.597C479.184 262.86 478.894 264.175 478.773 265.511C478.731 265.894 478.837 266.278 479.07 266.584C479.302 266.89 479.643 267.094 480.021 267.154C481.42 267.489 482.86 267.619 484.296 267.541C484.74 267.456 485.196 267.456 485.64 267.541C485.96 267.541 486.153 268.024 486.217 268.99C486.213 269.408 486.079 269.814 485.832 270.15C485.743 270.274 485.628 270.377 485.495 270.452C485.363 270.527 485.216 270.572 485.064 270.585H480.79H474.066H471.953H469.071ZM483.479 251.547H499.664L492.076 231.93L483.479 251.547Z" fill="white"/>
<path d="M551.532 272.034C547.967 272.15 544.426 271.404 541.206 269.86C538.653 268.604 536.493 266.665 534.963 264.255C533.675 262.082 533.025 259.585 533.09 257.055V230.625C533.094 229.683 532.997 228.744 532.802 227.823C532.674 226.938 532.23 226.131 531.553 225.552C530.534 224.871 529.313 224.564 528.095 224.682C527.665 224.741 527.229 224.741 526.798 224.682C526.414 224.682 526.222 224.054 526.174 223.184C526.168 222.779 526.267 222.379 526.462 222.024C526.582 221.844 526.748 221.7 526.942 221.606C527.137 221.513 527.352 221.474 527.567 221.493H532.369H536.836C539.958 221.493 543.175 221.493 546.441 221.493C546.655 221.479 546.869 221.52 547.063 221.613C547.256 221.706 547.422 221.848 547.546 222.024C547.741 222.379 547.84 222.779 547.834 223.184C547.834 223.957 547.834 224.44 547.354 224.585C547.008 224.68 546.643 224.68 546.297 224.585C544.994 224.467 543.687 224.753 542.551 225.407C542.199 225.655 541.899 225.97 541.668 226.335C541.437 226.7 541.28 227.107 541.206 227.533C541.056 228.525 540.96 229.525 540.918 230.529V254.688C540.926 256.1 541.071 257.508 541.35 258.892C541.608 260.359 542.164 261.757 542.983 262.999C543.912 264.331 545.17 265.397 546.633 266.091C548.69 266.99 550.925 267.403 553.165 267.299C555.945 267.459 558.717 266.858 561.185 265.56C562.924 264.56 564.29 263.016 565.075 261.163C565.799 259.451 566.175 257.611 566.18 255.751V235.505C566.225 233.035 566.097 230.565 565.796 228.113C565.765 227.536 565.596 226.976 565.303 226.479C565.011 225.983 564.603 225.565 564.115 225.262C562.872 224.801 561.547 224.603 560.225 224.682C559.794 224.738 559.358 224.738 558.928 224.682C558.592 224.682 558.352 224.054 558.304 223.184C558.29 222.771 558.407 222.365 558.64 222.024C558.748 221.844 558.904 221.699 559.092 221.605C559.279 221.511 559.488 221.472 559.696 221.493H564.067H568.341H572.567H576.938C577.152 221.479 577.366 221.52 577.559 221.613C577.753 221.706 577.919 221.848 578.042 222.024C578.237 222.379 578.337 222.779 578.33 223.184C578.33 223.957 578.33 224.44 577.898 224.585C577.535 224.673 577.157 224.673 576.794 224.585C575.676 224.469 574.549 224.469 573.432 224.585C573.05 224.637 572.683 224.767 572.353 224.966C572.022 225.165 571.736 225.43 571.511 225.745C570.991 226.693 570.711 227.755 570.694 228.837C570.694 230.287 570.694 232.22 570.694 234.732V256.331C570.771 258.803 570.155 261.248 568.917 263.385C567.804 265.325 566.259 266.979 564.403 268.217C562.536 269.414 560.494 270.311 558.352 270.875C556.146 271.59 553.849 271.981 551.532 272.034Z" fill="white"/>
<path d="M600.807 270.585C600.598 270.612 600.386 270.576 600.198 270.481C600.01 270.387 599.854 270.237 599.75 270.053C599.555 269.699 599.456 269.299 599.462 268.893C599.462 268.024 599.654 267.541 600.038 267.444C600.483 267.363 600.938 267.363 601.383 267.444C602.601 267.562 603.822 267.255 604.841 266.574C605.518 265.995 605.962 265.188 606.09 264.303C606.285 263.382 606.382 262.443 606.378 261.501V224.44H601.047C599.609 224.417 598.194 224.802 596.965 225.552C595.928 226.379 595.173 227.511 594.803 228.789C594.274 230.659 593.873 232.565 593.603 234.491C593.603 234.974 593.219 235.312 592.642 235.554C592.092 235.773 591.506 235.887 590.913 235.892C590.483 235.892 590.063 235.757 589.713 235.505C589.503 235.396 589.329 235.229 589.21 235.023C589.091 234.818 589.032 234.583 589.04 234.346V223.426C589 223.149 589.037 222.867 589.147 222.611C589.257 222.355 589.437 222.135 589.665 221.976C590.089 221.69 590.596 221.554 591.106 221.589H629.142C629.652 221.554 630.159 221.69 630.583 221.976C630.795 222.148 630.959 222.371 631.06 222.625C631.16 222.879 631.195 223.155 631.159 223.426L631.495 234.346C631.504 234.583 631.445 234.818 631.326 235.023C631.207 235.229 631.033 235.396 630.823 235.505C630.44 235.764 629.988 235.899 629.526 235.892C628.981 235.891 628.441 235.776 627.942 235.554C627.697 235.478 627.475 235.341 627.299 235.155C627.122 234.969 626.996 234.74 626.933 234.491C626.66 232.557 626.227 230.65 625.636 228.789C625.267 227.511 624.511 226.379 623.475 225.552C622.254 224.781 620.833 224.394 619.393 224.44H614.158V261.404C614.201 262.343 614.298 263.279 614.446 264.207C614.573 265.103 615.037 265.916 615.743 266.478C616.747 267.151 617.951 267.458 619.153 267.347C619.581 267.263 620.021 267.263 620.449 267.347C620.834 267.347 621.026 267.927 621.074 268.797C621.08 269.202 620.981 269.602 620.786 269.956C620.674 270.184 620.492 270.369 620.267 270.482C620.041 270.596 619.785 270.632 619.537 270.585H614.734H610.316C607.386 270.585 604.169 270.585 600.807 270.585Z" fill="white"/>
<path d="M655.605 270.585C655.389 270.616 655.169 270.582 654.972 270.487C654.776 270.392 654.612 270.241 654.5 270.053C654.305 269.699 654.206 269.299 654.212 268.894C654.212 268.024 654.452 267.541 654.836 267.444C655.264 267.359 655.705 267.359 656.133 267.444C657.351 267.562 658.572 267.255 659.591 266.574C660.268 265.995 660.712 265.188 660.84 264.303C661.035 263.382 661.132 262.443 661.128 261.501V251.837C660.956 250.97 660.682 250.126 660.311 249.324C659.783 248.02 659.111 246.474 658.246 244.493L655.605 239.081L653.011 234.249L651.138 230.722C650.301 229.044 649.084 227.587 647.584 226.47C646.234 225.603 644.736 224.997 643.166 224.682L641.677 224.295C641.389 224.295 641.245 223.716 641.245 222.894C641.245 222.073 641.581 221.541 642.205 221.445C642.925 221.39 643.647 221.39 644.367 221.445C647.388 221.304 650.399 221.884 653.155 223.136C655.739 224.581 657.818 226.791 659.111 229.465C660.599 232.268 661.944 234.974 663.193 237.631C664.441 240.289 665.738 242.946 667.227 245.701L675.776 228.692C676.64 226.953 676.736 225.89 676.064 225.503C674.891 225.028 673.626 224.83 672.366 224.924C671.936 224.982 671.499 224.982 671.069 224.924C670.685 224.924 670.493 224.295 670.445 223.426C670.438 223.02 670.538 222.621 670.733 222.266C670.844 222.1 670.995 221.965 671.171 221.872C671.347 221.78 671.543 221.732 671.741 221.734H676.016H680.146H683.94H687.926C688.134 221.713 688.344 221.752 688.531 221.846C688.718 221.94 688.875 222.086 688.983 222.266C689.215 222.606 689.333 223.013 689.319 223.426C689.319 224.295 689.079 224.779 688.743 224.924C688.296 224.982 687.844 224.982 687.398 224.924C685.709 224.858 684.039 225.295 682.595 226.18C681.209 227.253 680.077 228.623 679.282 230.19L670.829 246.425L669.676 248.938C669.381 249.605 669.155 250.301 669.004 251.016C668.809 251.953 668.729 252.91 668.764 253.866V261.404C668.807 262.343 668.903 263.279 669.052 264.207C669.179 265.103 669.643 265.916 670.349 266.478C671.353 267.151 672.557 267.458 673.759 267.347C674.202 267.259 674.659 267.259 675.103 267.347C675.423 267.347 675.616 267.831 675.68 268.797C675.686 269.202 675.587 269.602 675.391 269.957C675.291 270.133 675.143 270.276 674.964 270.371C674.786 270.465 674.584 270.506 674.383 270.488H669.58H665.066C662.088 270.585 658.918 270.585 655.605 270.585Z" fill="white"/>
<path d="M741.764 272.034C737.478 272.29 733.211 271.3 729.469 269.183C728.096 268.308 726.977 267.082 726.226 265.631C725.476 264.18 725.12 262.555 725.195 260.921C725.137 260.027 725.275 259.131 725.599 258.296C725.922 257.461 726.424 256.708 727.068 256.089C728.374 254.884 730.098 254.242 731.87 254.301C732.375 254.27 732.881 254.339 733.359 254.505C733.837 254.671 734.277 254.93 734.656 255.268C735.072 255.633 735.358 256.125 735.472 256.669C735.472 256.669 735.232 256.959 734.8 257.2C734.09 257.564 733.51 258.14 733.14 258.85C732.77 259.56 732.628 260.368 732.735 261.163C732.676 262.186 732.834 263.211 733.198 264.169C733.563 265.127 734.125 265.996 734.848 266.719C736.803 268.239 739.254 268.963 741.716 268.749C743.68 268.819 745.63 268.386 747.383 267.492C748.858 266.726 750.102 265.574 750.985 264.158C751.89 262.682 752.317 260.958 752.205 259.226C752.093 257.495 751.448 255.841 750.36 254.495C748.996 252.998 747.367 251.77 745.558 250.871C743.541 249.904 741.475 248.89 739.266 247.971C737.1 247.071 734.998 246.021 732.975 244.831C731.096 243.665 729.464 242.138 728.172 240.337C726.859 238.367 726.172 236.041 726.203 233.669C726.021 230.857 726.745 228.061 728.268 225.697C729.774 223.625 731.867 222.059 734.271 221.203C737.012 220.21 739.907 219.719 742.82 219.753C745.13 219.755 747.428 220.097 749.64 220.768C751.703 221.359 753.596 222.435 755.163 223.909C755.906 224.642 756.486 225.524 756.867 226.498C757.248 227.472 757.42 228.516 757.372 229.562C757.395 230.416 757.24 231.266 756.917 232.056C756.595 232.847 756.112 233.561 755.499 234.152C754.2 235.375 752.475 236.035 750.696 235.988C749.655 235.989 748.649 235.611 747.863 234.925C747.468 234.57 747.198 234.095 747.094 233.573C747.094 233.573 747.383 233.234 748.007 232.993C748.704 232.722 749.329 232.292 749.832 231.736C750.171 231.388 750.431 230.97 750.597 230.512C750.763 230.054 750.829 229.565 750.792 229.079C750.832 228.191 750.645 227.308 750.25 226.513C749.855 225.718 749.265 225.038 748.535 224.537C746.909 223.43 744.975 222.872 743.012 222.942C741.7 222.831 740.379 222.983 739.126 223.389C737.873 223.796 736.713 224.449 735.712 225.31C734.292 226.713 733.481 228.623 733.455 230.625C733.38 231.493 733.477 232.367 733.741 233.196C734.005 234.026 734.43 234.794 734.992 235.457C736.357 236.915 737.987 238.096 739.794 238.936C742.1 240.192 744.597 241.352 746.806 242.415C749.083 243.425 751.283 244.604 753.386 245.942C755.32 247.179 756.96 248.828 758.188 250.774C759.503 253.041 760.137 255.642 760.013 258.263C760.048 260.824 759.2 263.317 757.612 265.318C755.854 267.435 753.613 269.093 751.081 270.15C748.141 271.429 744.966 272.071 741.764 272.034Z" fill="white"/>
<path d="M771.492 270.585C771.283 270.612 771.071 270.576 770.883 270.481C770.694 270.387 770.539 270.238 770.435 270.053C770.203 269.713 770.085 269.306 770.099 268.894C770.099 268.024 770.387 267.541 770.723 267.444C771.152 267.367 771.591 267.367 772.02 267.444C773.136 267.511 774.245 267.224 775.19 266.623C775.931 266.008 776.522 265.231 776.919 264.352L778.215 261.501L791.663 229.417C791.904 228.988 792.057 228.515 792.115 228.026C792.173 227.536 792.133 227.04 791.999 226.566C791.845 226.25 791.63 225.967 791.366 225.734C791.102 225.502 790.795 225.325 790.462 225.213C789.688 224.903 788.883 224.676 788.061 224.537C787.531 224.466 787.013 224.32 786.524 224.102C786.284 224.102 786.14 223.522 786.14 222.749C786.14 221.976 786.428 221.396 787.052 221.3H789.213C791.027 221.256 792.837 221.467 794.592 221.928C796.076 222.321 797.412 223.144 798.434 224.295C799.76 225.828 800.787 227.598 801.46 229.514L814.379 261.597C814.763 262.467 815.148 263.385 815.58 264.303C815.943 265.177 816.502 265.954 817.213 266.574C817.95 267.205 818.887 267.547 819.854 267.541C820.298 267.452 820.755 267.452 821.199 267.541C821.519 267.541 821.711 268.024 821.775 268.99C821.789 269.403 821.671 269.809 821.439 270.15C821.335 270.322 821.186 270.463 821.008 270.556C820.83 270.65 820.631 270.693 820.43 270.681H816.108H811.93C808.904 270.681 805.734 270.681 802.325 270.681C802.116 270.709 801.904 270.673 801.716 270.578C801.527 270.483 801.371 270.334 801.268 270.15C801.056 269.8 800.94 269.4 800.932 268.99C800.932 268.12 801.22 267.637 801.556 267.541C801.985 267.464 802.424 267.464 802.853 267.541C805.398 267.541 806.791 267.106 806.983 266.188C807.145 264.621 806.897 263.038 806.263 261.597L803.669 255.171H784.459C783.69 257.104 783.162 258.553 782.826 259.423L782.202 261.114C782.244 261.272 782.244 261.439 782.202 261.597C781.726 262.853 781.435 264.171 781.337 265.511C781.294 265.887 781.394 266.265 781.617 266.57C781.839 266.875 782.168 267.083 782.538 267.154C783.938 267.483 785.376 267.613 786.812 267.541C787.256 267.452 787.713 267.452 788.157 267.541C788.477 267.541 788.669 268.024 788.733 268.99C788.747 269.403 788.629 269.809 788.397 270.15C788.305 270.272 788.19 270.373 788.058 270.448C787.926 270.523 787.779 270.569 787.629 270.585H783.354H776.631H774.517H771.492ZM786.14 251.547H802.325L794.544 231.93H794.304L786.14 251.547Z" fill="white"/>
<path d="M830.564 270.585C830.363 270.597 830.164 270.553 829.986 270.46C829.808 270.366 829.659 270.225 829.555 270.053C829.36 269.699 829.261 269.299 829.267 268.893C829.267 268.024 829.507 267.541 829.891 267.444C830.319 267.359 830.76 267.359 831.188 267.444C832.406 267.562 833.626 267.255 834.646 266.574C835.318 265.985 835.775 265.185 835.943 264.303C836.098 263.377 836.178 262.44 836.183 261.501V230.625C836.178 229.686 836.098 228.749 835.943 227.823C835.775 226.941 835.318 226.141 834.646 225.552C833.626 224.871 832.406 224.564 831.188 224.682C830.758 224.741 830.321 224.741 829.891 224.682C829.507 224.682 829.315 224.054 829.267 223.184C829.261 222.779 829.36 222.379 829.555 222.024C829.666 221.859 829.817 221.723 829.993 221.631C830.169 221.538 830.365 221.491 830.564 221.493H835.366H839.833C842.954 221.493 846.172 221.493 849.438 221.493C849.645 221.477 849.853 221.518 850.039 221.612C850.225 221.706 850.382 221.848 850.494 222.024C850.69 222.379 850.789 222.779 850.783 223.184C850.783 224.054 850.783 224.537 850.206 224.682C849.76 224.737 849.308 224.737 848.862 224.682C847.66 224.571 846.456 224.878 845.452 225.552C844.763 226.128 844.304 226.934 844.155 227.823C844.007 228.751 843.91 229.686 843.867 230.625V262.564C843.922 263.293 844.018 264.019 844.155 264.738C844.358 265.537 844.856 266.229 845.548 266.671C846.682 267.273 847.973 267.509 849.246 267.347H856.21C857.619 267.386 859.018 267.088 860.292 266.478C861.343 265.842 862.154 264.873 862.597 263.723C863.125 262.419 863.75 260.631 864.422 258.36C864.52 258.133 864.664 257.929 864.846 257.762C865.029 257.595 865.244 257.47 865.479 257.394C865.997 257.247 866.545 257.247 867.063 257.394C867.514 257.473 867.941 257.655 868.312 257.925C868.516 258.059 868.678 258.248 868.779 258.47C868.881 258.692 868.919 258.939 868.888 259.181L867.352 268.845C867.333 269.109 867.259 269.366 867.134 269.599C867.01 269.832 866.839 270.036 866.631 270.198C866.167 270.42 865.655 270.52 865.142 270.488H835.366L830.564 270.585Z" fill="white"/>
<path d="M905.821 272.034C900.837 272.092 895.958 270.588 891.862 267.731C887.766 264.874 884.655 260.805 882.96 256.089C881.803 253.002 881.233 249.724 881.279 246.425C881.206 242.515 881.942 238.631 883.441 235.022C886.081 228.87 891.038 224.023 897.224 221.541C899.951 220.404 902.869 219.797 905.821 219.753C909.39 219.705 912.928 220.43 916.194 221.879C919.152 223.22 921.814 225.142 924.023 227.533C926.113 229.895 927.742 232.632 928.825 235.602C929.956 238.612 930.526 241.806 930.506 245.024C930.591 248.941 929.838 252.83 928.297 256.427C926.917 259.603 924.888 262.451 922.342 264.786C919.993 266.986 917.279 268.753 914.321 270.005C911.64 271.214 908.756 271.902 905.821 272.034ZM905.821 268.604C909.118 268.737 912.338 267.576 914.802 265.366C917.22 262.999 918.976 260.032 919.892 256.765C921.035 253.042 921.602 249.163 921.573 245.266C921.613 241.597 921.012 237.95 919.796 234.491C918.8 231.39 917.011 228.608 914.609 226.421C912.166 224.323 909.031 223.22 905.821 223.329C902.584 223.216 899.431 224.377 897.032 226.566C894.713 228.906 893.055 231.824 892.229 235.022C891.103 238.715 890.552 242.562 890.596 246.425C890.573 250.132 891.141 253.819 892.277 257.345C893.087 260.525 894.729 263.428 897.032 265.753C899.472 267.766 902.574 268.783 905.725 268.604H905.821Z" fill="white"/>
<path d="M945.779 270.585C945.57 270.612 945.358 270.576 945.17 270.481C944.981 270.387 944.825 270.238 944.722 270.053C944.51 269.703 944.394 269.303 944.386 268.894C944.386 268.024 944.674 267.541 945.01 267.444C945.455 267.363 945.91 267.363 946.355 267.444C947.558 267.571 948.767 267.263 949.765 266.574C950.411 265.977 950.835 265.176 950.965 264.303C951.121 263.377 951.201 262.44 951.205 261.501V230.722C951.349 229.873 951.311 229.004 951.096 228.171C950.881 227.338 950.493 226.561 949.957 225.89C948.791 225.056 947.438 224.525 946.019 224.344C945.49 224.265 944.974 224.119 944.482 223.909C944.242 223.909 944.098 223.329 944.098 222.556C944.098 221.783 944.434 221.203 945.058 221.106H947.171C949.527 221.059 951.88 221.286 954.183 221.783C955.959 222.227 957.605 223.088 958.986 224.295C960.645 225.738 962.143 227.358 963.452 229.127L984.536 257.2H984.776V230.625C984.771 229.686 984.691 228.749 984.536 227.823C984.405 226.95 983.981 226.149 983.335 225.552C982.337 224.863 981.128 224.555 979.925 224.682C979.479 224.737 979.027 224.737 978.58 224.682C978.244 224.682 978.004 224.054 977.908 223.184C977.894 222.771 978.012 222.365 978.244 222.024C978.36 221.852 978.518 221.712 978.703 221.619C978.888 221.526 979.094 221.482 979.301 221.493H982.038H984.103H989.338H991.355H993.997C994.211 221.474 994.427 221.513 994.621 221.606C994.816 221.7 994.982 221.844 995.101 222.024C995.296 222.379 995.396 222.779 995.389 223.184C995.389 224.054 995.149 224.537 994.813 224.682C994.367 224.745 993.914 224.745 993.468 224.682C992.282 224.571 991.093 224.878 990.107 225.552C989.429 226.123 988.998 226.938 988.906 227.823C988.758 228.751 988.661 229.686 988.618 230.625V269.667C988.61 269.866 988.533 270.056 988.402 270.206C988.271 270.355 988.093 270.455 987.897 270.488C987.5 270.551 987.095 270.551 986.697 270.488C986.268 270.509 985.84 270.428 985.448 270.252C985.056 270.075 984.71 269.809 984.44 269.473L955.624 230.432H955.384V261.211C955.427 262.15 955.523 263.085 955.672 264.013C955.764 264.898 956.195 265.713 956.873 266.284C957.859 266.958 959.047 267.265 960.234 267.154C960.695 267.066 961.167 267.066 961.627 267.154C962.011 267.154 962.203 267.734 962.252 268.604C962.265 269.016 962.148 269.423 961.915 269.763C961.882 269.912 961.819 270.052 961.73 270.175C961.64 270.298 961.527 270.401 961.396 270.478C961.266 270.555 961.121 270.604 960.97 270.623C960.82 270.641 960.668 270.628 960.523 270.585H957.785H955.72H950.437H948.516H945.779Z" fill="white"/>
</g>
<defs>
<clipPath id="clip0_243_295">
<rect width="1000" height="312.67" fill="white"/>
</clipPath>
</defs>
</svg>
